M48
; DRILL file KiCad 10.0.0 date 2026-03-26T00:51:38
; FORMAT={-:-/ absolute / metric / decimal}
; #@! TF.CreationDate,2026-03-26T00:51:38+01:00
; #@! TF.GenerationSoftware,Kicad,Pcbnew,10.0.0
; #@! TF.FileFunction,Plated,1,2,PTH
FMAT,2
METRIC
; #@! TA.AperFunction,Plated,PTH,ComponentDrill
T1C2.200
%
G90
G05
T1
X102.5Y-28.0
X102.5Y-34.0
X102.5Y-40.0
X102.5Y-46.0
X102.5Y-52.0
X102.5Y-58.0
X102.5Y-64.001
X102.5Y-70.001
X102.5Y-76.001
X102.5Y-82.001
X102.5Y-88.001
X102.5Y-94.001
X102.5Y-100.001
X102.5Y-106.0
X110.5Y-28.0
X110.5Y-34.0
X110.5Y-40.0
X110.5Y-46.0
X110.5Y-52.0
X110.5Y-58.0
X110.5Y-64.001
X110.5Y-70.001
X110.5Y-76.001
X110.5Y-82.001
X110.5Y-88.001
X110.5Y-94.001
X110.5Y-100.001
X110.5Y-106.0
X116.5Y-28.0
X116.5Y-34.0
X116.5Y-40.0
X116.5Y-46.0
X116.5Y-52.0
X116.5Y-58.0
X116.5Y-64.001
X116.5Y-70.001
X116.5Y-76.001
X116.5Y-82.001
X116.5Y-88.001
X116.5Y-94.001
X116.5Y-100.001
X116.5Y-106.0
X124.5Y-28.0
X124.5Y-34.0
X124.5Y-40.0
X124.5Y-46.0
X124.5Y-52.0
X124.5Y-58.0
X124.5Y-64.001
X124.5Y-70.001
X124.5Y-76.001
X124.5Y-82.001
X124.5Y-88.001
X124.5Y-94.001
X124.5Y-100.001
X124.5Y-106.0
X130.5Y-28.0
X130.5Y-34.0
X130.5Y-40.0
X130.5Y-46.0
X130.5Y-52.0
X130.5Y-58.0
X130.5Y-64.001
X130.5Y-70.001
X130.5Y-76.001
X130.5Y-82.001
X130.5Y-88.001
X130.5Y-94.001
X130.5Y-100.001
X130.5Y-106.0
X138.5Y-28.0
X138.5Y-34.0
X138.5Y-40.0
X138.5Y-46.0
X138.5Y-52.0
X138.5Y-58.0
X138.5Y-64.001
X138.5Y-70.001
X138.5Y-76.001
X138.5Y-82.001
X138.5Y-88.001
X138.5Y-94.001
X138.5Y-100.001
X138.5Y-106.0
X144.5Y-28.0
X144.5Y-34.0
X144.5Y-40.0
X144.5Y-46.0
X144.5Y-52.0
X144.5Y-58.0
X144.5Y-64.001
X144.5Y-70.001
X144.5Y-76.001
X144.5Y-82.001
X144.5Y-88.001
X144.5Y-94.001
X144.5Y-100.001
X144.5Y-106.0
X152.5Y-28.0
X152.5Y-34.0
X152.5Y-40.0
X152.5Y-46.0
X152.5Y-52.0
X152.5Y-58.0
X152.5Y-64.001
X152.5Y-70.001
X152.5Y-76.001
X152.5Y-82.001
X152.5Y-88.001
X152.5Y-94.001
X152.5Y-100.001
X152.5Y-106.0
X158.5Y-28.0
X158.5Y-34.0
X158.5Y-40.0
X158.5Y-46.0
X158.5Y-52.0
X158.5Y-58.0
X158.5Y-64.001
X158.5Y-70.001
X158.5Y-76.001
X158.5Y-82.001
X158.5Y-88.001
X158.5Y-94.001
X158.5Y-100.001
X158.5Y-106.0
X166.5Y-28.0
X166.5Y-34.0
X166.5Y-40.0
X166.5Y-46.0
X166.5Y-52.0
X166.5Y-58.0
X166.5Y-64.001
X166.5Y-70.001
X166.5Y-76.001
X166.5Y-82.001
X166.5Y-88.001
X166.5Y-94.001
X166.5Y-100.001
X166.5Y-106.0
X172.5Y-28.0
X172.5Y-34.0
X172.5Y-40.0
X172.5Y-46.0
X172.5Y-52.0
X172.5Y-58.0
X172.5Y-64.001
X172.5Y-70.001
X172.5Y-76.001
X172.5Y-82.001
X172.5Y-88.001
X172.5Y-94.001
X172.5Y-100.001
X172.5Y-106.0
X180.5Y-28.0
X180.5Y-34.0
X180.5Y-40.0
X180.5Y-46.0
X180.5Y-52.0
X180.5Y-58.0
X180.5Y-64.001
X180.5Y-70.001
X180.5Y-76.001
X180.5Y-82.001
X180.5Y-88.001
X180.5Y-94.001
X180.5Y-100.001
X180.5Y-106.0
X186.5Y-28.0
X186.5Y-34.0
X186.5Y-40.0
X186.5Y-46.0
X186.5Y-52.0
X186.5Y-58.0
X186.5Y-64.001
X186.5Y-70.001
X186.5Y-76.001
X186.5Y-82.001
X186.5Y-88.001
X186.5Y-94.001
X186.5Y-100.001
X186.5Y-106.0
X194.5Y-28.0
X194.5Y-34.0
X194.5Y-40.0
X194.5Y-46.0
X194.5Y-52.0
X194.5Y-58.0
X194.5Y-64.001
X194.5Y-70.001
X194.5Y-76.001
X194.5Y-82.001
X194.5Y-88.001
X194.5Y-94.001
X194.5Y-100.001
X194.5Y-106.0
M30
