%TF.GenerationSoftware,KiCad,Pcbnew,10.0.0*%
%TF.CreationDate,2026-03-26T00:51:39+01:00*%
%TF.ProjectId,resistor_0805_order,72657369-7374-46f7-925f-303830355f6f,rev?*%
%TF.SameCoordinates,Original*%
%TF.FileFunction,Paste,Top*%
%TF.FilePolarity,Positive*%
%FSLAX46Y46*%
G04 Gerber Fmt 4.6, Leading zero omitted, Abs format (unit mm)*
G04 Created by KiCad (PCBNEW 10.0.0) date 2026-03-26 00:51:39*
%MOMM*%
%LPD*%
G01*
G04 APERTURE LIST*
G04 Aperture macros list*
%AMRoundRect*
0 Rectangle with rounded corners*
0 $1 Rounding radius*
0 $2 $3 $4 $5 $6 $7 $8 $9 X,Y pos of 4 corners*
0 Add a 4 corners polygon primitive as box body*
4,1,4,$2,$3,$4,$5,$6,$7,$8,$9,$2,$3,0*
0 Add four circle primitives for the rounded corners*
1,1,$1+$1,$2,$3*
1,1,$1+$1,$4,$5*
1,1,$1+$1,$6,$7*
1,1,$1+$1,$8,$9*
0 Add four rect primitives between the rounded corners*
20,1,$1+$1,$2,$3,$4,$5,0*
20,1,$1+$1,$4,$5,$6,$7,0*
20,1,$1+$1,$6,$7,$8,$9,0*
20,1,$1+$1,$8,$9,$2,$3,0*%
G04 Aperture macros list end*
%ADD10RoundRect,0.250000X-0.350000X-0.450000X0.350000X-0.450000X0.350000X0.450000X-0.350000X0.450000X0*%
G04 APERTURE END LIST*
D10*
%TO.C,R1*%
X175500000Y-52000500D03*
X177500000Y-52000500D03*
%TD*%
%TO.C,R1*%
X119500000Y-70000500D03*
X121500000Y-70000500D03*
%TD*%
%TO.C,R1*%
X105500000Y-82000500D03*
X107500000Y-82000500D03*
%TD*%
%TO.C,R1*%
X133500000Y-28000500D03*
X135500000Y-28000500D03*
%TD*%
%TO.C,R1*%
X189500000Y-34000500D03*
X191500000Y-34000500D03*
%TD*%
%TO.C,R1*%
X119500000Y-40000500D03*
X121500000Y-40000500D03*
%TD*%
%TO.C,R1*%
X133500000Y-52000500D03*
X135500000Y-52000500D03*
%TD*%
%TO.C,R1*%
X119500000Y-28000500D03*
X121500000Y-28000500D03*
%TD*%
%TO.C,R1*%
X105500000Y-64000500D03*
X107500000Y-64000500D03*
%TD*%
%TO.C,R1*%
X147500000Y-88000500D03*
X149500000Y-88000500D03*
%TD*%
%TO.C,R1*%
X175500000Y-88000500D03*
X177500000Y-88000500D03*
%TD*%
%TO.C,R1*%
X189500000Y-100000500D03*
X191500000Y-100000500D03*
%TD*%
%TO.C,R1*%
X161500000Y-40000500D03*
X163500000Y-40000500D03*
%TD*%
%TO.C,R1*%
X189500000Y-94000500D03*
X191500000Y-94000500D03*
%TD*%
%TO.C,R1*%
X105500000Y-70000500D03*
X107500000Y-70000500D03*
%TD*%
%TO.C,R1*%
X161500000Y-70000500D03*
X163500000Y-70000500D03*
%TD*%
%TO.C,R1*%
X133500000Y-64000500D03*
X135500000Y-64000500D03*
%TD*%
%TO.C,R1*%
X147500000Y-64000500D03*
X149500000Y-64000500D03*
%TD*%
%TO.C,R1*%
X105500000Y-106000500D03*
X107500000Y-106000500D03*
%TD*%
%TO.C,R1*%
X189500000Y-28000500D03*
X191500000Y-28000500D03*
%TD*%
%TO.C,R1*%
X189500000Y-40000500D03*
X191500000Y-40000500D03*
%TD*%
%TO.C,R1*%
X119500000Y-34000500D03*
X121500000Y-34000500D03*
%TD*%
%TO.C,R1*%
X105500000Y-88000500D03*
X107500000Y-88000500D03*
%TD*%
%TO.C,R1*%
X119500000Y-100000500D03*
X121500000Y-100000500D03*
%TD*%
%TO.C,R1*%
X119500000Y-82000500D03*
X121500000Y-82000500D03*
%TD*%
%TO.C,R1*%
X147500000Y-46000500D03*
X149500000Y-46000500D03*
%TD*%
%TO.C,R1*%
X105500000Y-76000500D03*
X107500000Y-76000500D03*
%TD*%
%TO.C,R1*%
X105500000Y-52000500D03*
X107500000Y-52000500D03*
%TD*%
%TO.C,R1*%
X147500000Y-58000500D03*
X149500000Y-58000500D03*
%TD*%
%TO.C,R1*%
X175500000Y-58000500D03*
X177500000Y-58000500D03*
%TD*%
%TO.C,R1*%
X175500000Y-82000500D03*
X177500000Y-82000500D03*
%TD*%
%TO.C,R1*%
X175500000Y-94000500D03*
X177500000Y-94000500D03*
%TD*%
%TO.C,R1*%
X175500000Y-70000500D03*
X177500000Y-70000500D03*
%TD*%
%TO.C,R1*%
X119500000Y-88000500D03*
X121500000Y-88000500D03*
%TD*%
%TO.C,R1*%
X189500000Y-64000500D03*
X191500000Y-64000500D03*
%TD*%
%TO.C,R1*%
X119500000Y-52000500D03*
X121500000Y-52000500D03*
%TD*%
%TO.C,R1*%
X161500000Y-28000500D03*
X163500000Y-28000500D03*
%TD*%
%TO.C,R1*%
X175500000Y-100000500D03*
X177500000Y-100000500D03*
%TD*%
%TO.C,R1*%
X147500000Y-94000500D03*
X149500000Y-94000500D03*
%TD*%
%TO.C,R1*%
X175500000Y-34000500D03*
X177500000Y-34000500D03*
%TD*%
%TO.C,R1*%
X189500000Y-88000500D03*
X191500000Y-88000500D03*
%TD*%
%TO.C,R1*%
X133500000Y-70000500D03*
X135500000Y-70000500D03*
%TD*%
%TO.C,R1*%
X119500000Y-46000500D03*
X121500000Y-46000500D03*
%TD*%
%TO.C,R1*%
X147500000Y-34000500D03*
X149500000Y-34000500D03*
%TD*%
%TO.C,R1*%
X189500000Y-82000500D03*
X191500000Y-82000500D03*
%TD*%
%TO.C,R1*%
X147500000Y-82000500D03*
X149500000Y-82000500D03*
%TD*%
%TO.C,R1*%
X133500000Y-40000500D03*
X135500000Y-40000500D03*
%TD*%
%TO.C,R1*%
X161500000Y-46000500D03*
X163500000Y-46000500D03*
%TD*%
%TO.C,R1*%
X147500000Y-100000500D03*
X149500000Y-100000500D03*
%TD*%
%TO.C,R1*%
X105500000Y-34000500D03*
X107500000Y-34000500D03*
%TD*%
%TO.C,R1*%
X105500000Y-46000500D03*
X107500000Y-46000500D03*
%TD*%
%TO.C,R1*%
X105500000Y-100000500D03*
X107500000Y-100000500D03*
%TD*%
%TO.C,R1*%
X119500000Y-76000500D03*
X121500000Y-76000500D03*
%TD*%
%TO.C,R1*%
X175500000Y-28000500D03*
X177500000Y-28000500D03*
%TD*%
%TO.C,R1*%
X105500000Y-40000500D03*
X107500000Y-40000500D03*
%TD*%
%TO.C,R1*%
X133500000Y-82000500D03*
X135500000Y-82000500D03*
%TD*%
%TO.C,R1*%
X189500000Y-76000500D03*
X191500000Y-76000500D03*
%TD*%
%TO.C,R1*%
X175500000Y-76000500D03*
X177500000Y-76000500D03*
%TD*%
%TO.C,R1*%
X161500000Y-64000500D03*
X163500000Y-64000500D03*
%TD*%
%TO.C,R1*%
X161500000Y-106000500D03*
X163500000Y-106000500D03*
%TD*%
%TO.C,R1*%
X133500000Y-34000500D03*
X135500000Y-34000500D03*
%TD*%
%TO.C,R1*%
X119500000Y-106000500D03*
X121500000Y-106000500D03*
%TD*%
%TO.C,R1*%
X147500000Y-76000500D03*
X149500000Y-76000500D03*
%TD*%
%TO.C,R1*%
X119500000Y-58000500D03*
X121500000Y-58000500D03*
%TD*%
%TO.C,R1*%
X147500000Y-52000500D03*
X149500000Y-52000500D03*
%TD*%
%TO.C,R1*%
X147500000Y-40000500D03*
X149500000Y-40000500D03*
%TD*%
%TO.C,R1*%
X133500000Y-88000500D03*
X135500000Y-88000500D03*
%TD*%
%TO.C,R1*%
X161500000Y-76000500D03*
X163500000Y-76000500D03*
%TD*%
%TO.C,R1*%
X161500000Y-88000500D03*
X163500000Y-88000500D03*
%TD*%
%TO.C,R1*%
X133500000Y-46000500D03*
X135500000Y-46000500D03*
%TD*%
%TO.C,R1*%
X119500000Y-94000500D03*
X121500000Y-94000500D03*
%TD*%
%TO.C,R1*%
X161500000Y-52000500D03*
X163500000Y-52000500D03*
%TD*%
%TO.C,R1*%
X133500000Y-94000500D03*
X135500000Y-94000500D03*
%TD*%
%TO.C,R1*%
X147500000Y-70000500D03*
X149500000Y-70000500D03*
%TD*%
%TO.C,R1*%
X161500000Y-82000500D03*
X163500000Y-82000500D03*
%TD*%
%TO.C,R1*%
X189500000Y-46000500D03*
X191500000Y-46000500D03*
%TD*%
%TO.C,R1*%
X175500000Y-106000500D03*
X177500000Y-106000500D03*
%TD*%
%TO.C,R1*%
X175500000Y-64000500D03*
X177500000Y-64000500D03*
%TD*%
%TO.C,R1*%
X105500000Y-28000500D03*
X107500000Y-28000500D03*
%TD*%
%TO.C,R1*%
X105500000Y-94000500D03*
X107500000Y-94000500D03*
%TD*%
%TO.C,R1*%
X105500000Y-58000500D03*
X107500000Y-58000500D03*
%TD*%
%TO.C,R1*%
X147500000Y-28000500D03*
X149500000Y-28000500D03*
%TD*%
%TO.C,R1*%
X161500000Y-34000500D03*
X163500000Y-34000500D03*
%TD*%
%TO.C,R1*%
X161500000Y-100000500D03*
X163500000Y-100000500D03*
%TD*%
%TO.C,R1*%
X147500000Y-106000500D03*
X149500000Y-106000500D03*
%TD*%
%TO.C,R1*%
X189500000Y-106000500D03*
X191500000Y-106000500D03*
%TD*%
%TO.C,R1*%
X189500000Y-52000500D03*
X191500000Y-52000500D03*
%TD*%
%TO.C,R1*%
X175500000Y-40000500D03*
X177500000Y-40000500D03*
%TD*%
%TO.C,R1*%
X175500000Y-46000500D03*
X177500000Y-46000500D03*
%TD*%
%TO.C,R1*%
X133500000Y-100000500D03*
X135500000Y-100000500D03*
%TD*%
%TO.C,R1*%
X133500000Y-76000500D03*
X135500000Y-76000500D03*
%TD*%
%TO.C,R1*%
X161500000Y-58000500D03*
X163500000Y-58000500D03*
%TD*%
%TO.C,R1*%
X189500000Y-70000500D03*
X191500000Y-70000500D03*
%TD*%
%TO.C,R1*%
X133500000Y-58000500D03*
X135500000Y-58000500D03*
%TD*%
%TO.C,R1*%
X133500000Y-106000500D03*
X135500000Y-106000500D03*
%TD*%
%TO.C,R1*%
X189500000Y-58000500D03*
X191500000Y-58000500D03*
%TD*%
%TO.C,R1*%
X119500000Y-64000500D03*
X121500000Y-64000500D03*
%TD*%
%TO.C,R1*%
X161500000Y-94000500D03*
X163500000Y-94000500D03*
%TD*%
M02*
