M48
; DRILL file KiCad 10.0.0 date 2026-03-26T00:51:38
; FORMAT={-:-/ absolute / metric / decimal}
; #@! TF.CreationDate,2026-03-26T00:51:38+01:00
; #@! TF.GenerationSoftware,Kicad,Pcbnew,10.0.0
; #@! TF.FileFunction,NonPlated,1,2,NPTH
FMAT,2
METRIC
; #@! TA.AperFunction,NonPlated,NPTH,ComponentDrill
T1C0.500
%
G90
G05
T1
X105.0Y-26.0
X105.0Y-30.0
X105.0Y-32.0
X105.0Y-36.0
X105.0Y-38.0
X105.0Y-42.0
X105.0Y-44.0
X105.0Y-48.0
X105.0Y-50.0
X105.0Y-54.0
X105.0Y-56.0
X105.0Y-60.0
X105.0Y-62.0
X105.0Y-66.001
X105.0Y-68.001
X105.0Y-72.001
X105.0Y-74.001
X105.0Y-78.001
X105.0Y-80.001
X105.0Y-84.001
X105.0Y-86.001
X105.0Y-90.001
X105.0Y-92.001
X105.0Y-96.001
X105.0Y-98.001
X105.0Y-102.001
X105.0Y-104.001
X105.0Y-108.0
X106.0Y-26.0
X106.0Y-30.0
X106.0Y-32.0
X106.0Y-36.0
X106.0Y-38.0
X106.0Y-42.0
X106.0Y-44.0
X106.0Y-48.0
X106.0Y-50.0
X106.0Y-54.0
X106.0Y-56.0
X106.0Y-60.0
X106.0Y-62.0
X106.0Y-66.001
X106.0Y-68.001
X106.0Y-72.001
X106.0Y-74.001
X106.0Y-78.001
X106.0Y-80.001
X106.0Y-84.001
X106.0Y-86.001
X106.0Y-90.001
X106.0Y-92.001
X106.0Y-96.001
X106.0Y-98.001
X106.0Y-102.001
X106.0Y-104.001
X106.0Y-108.0
X107.0Y-26.0
X107.0Y-30.0
X107.0Y-32.0
X107.0Y-36.0
X107.0Y-38.0
X107.0Y-42.0
X107.0Y-44.0
X107.0Y-48.0
X107.0Y-50.0
X107.0Y-54.0
X107.0Y-56.0
X107.0Y-60.0
X107.0Y-62.0
X107.0Y-66.001
X107.0Y-68.001
X107.0Y-72.001
X107.0Y-74.001
X107.0Y-78.001
X107.0Y-80.001
X107.0Y-84.001
X107.0Y-86.001
X107.0Y-90.001
X107.0Y-92.001
X107.0Y-96.001
X107.0Y-98.001
X107.0Y-102.001
X107.0Y-104.001
X107.0Y-108.0
X108.0Y-26.0
X108.0Y-30.0
X108.0Y-32.0
X108.0Y-36.0
X108.0Y-38.0
X108.0Y-42.0
X108.0Y-44.0
X108.0Y-48.0
X108.0Y-50.0
X108.0Y-54.0
X108.0Y-56.0
X108.0Y-60.0
X108.0Y-62.0
X108.0Y-66.001
X108.0Y-68.001
X108.0Y-72.001
X108.0Y-74.001
X108.0Y-78.001
X108.0Y-80.001
X108.0Y-84.001
X108.0Y-86.001
X108.0Y-90.001
X108.0Y-92.001
X108.0Y-96.001
X108.0Y-98.001
X108.0Y-102.001
X108.0Y-104.001
X108.0Y-108.0
X119.0Y-26.0
X119.0Y-30.0
X119.0Y-32.0
X119.0Y-36.0
X119.0Y-38.0
X119.0Y-42.0
X119.0Y-44.0
X119.0Y-48.0
X119.0Y-50.0
X119.0Y-54.0
X119.0Y-56.0
X119.0Y-60.0
X119.0Y-62.0
X119.0Y-66.001
X119.0Y-68.001
X119.0Y-72.001
X119.0Y-74.001
X119.0Y-78.001
X119.0Y-80.001
X119.0Y-84.001
X119.0Y-86.001
X119.0Y-90.001
X119.0Y-92.001
X119.0Y-96.001
X119.0Y-98.001
X119.0Y-102.001
X119.0Y-104.001
X119.0Y-108.0
X120.0Y-26.0
X120.0Y-30.0
X120.0Y-32.0
X120.0Y-36.0
X120.0Y-38.0
X120.0Y-42.0
X120.0Y-44.0
X120.0Y-48.0
X120.0Y-50.0
X120.0Y-54.0
X120.0Y-56.0
X120.0Y-60.0
X120.0Y-62.0
X120.0Y-66.001
X120.0Y-68.001
X120.0Y-72.001
X120.0Y-74.001
X120.0Y-78.001
X120.0Y-80.001
X120.0Y-84.001
X120.0Y-86.001
X120.0Y-90.001
X120.0Y-92.001
X120.0Y-96.001
X120.0Y-98.001
X120.0Y-102.001
X120.0Y-104.001
X120.0Y-108.0
X121.0Y-26.0
X121.0Y-30.0
X121.0Y-32.0
X121.0Y-36.0
X121.0Y-38.0
X121.0Y-42.0
X121.0Y-44.0
X121.0Y-48.0
X121.0Y-50.0
X121.0Y-54.0
X121.0Y-56.0
X121.0Y-60.0
X121.0Y-62.0
X121.0Y-66.001
X121.0Y-68.001
X121.0Y-72.001
X121.0Y-74.001
X121.0Y-78.001
X121.0Y-80.001
X121.0Y-84.001
X121.0Y-86.001
X121.0Y-90.001
X121.0Y-92.001
X121.0Y-96.001
X121.0Y-98.001
X121.0Y-102.001
X121.0Y-104.001
X121.0Y-108.0
X122.0Y-26.0
X122.0Y-30.0
X122.0Y-32.0
X122.0Y-36.0
X122.0Y-38.0
X122.0Y-42.0
X122.0Y-44.0
X122.0Y-48.0
X122.0Y-50.0
X122.0Y-54.0
X122.0Y-56.0
X122.0Y-60.0
X122.0Y-62.0
X122.0Y-66.001
X122.0Y-68.001
X122.0Y-72.001
X122.0Y-74.001
X122.0Y-78.001
X122.0Y-80.001
X122.0Y-84.001
X122.0Y-86.001
X122.0Y-90.001
X122.0Y-92.001
X122.0Y-96.001
X122.0Y-98.001
X122.0Y-102.001
X122.0Y-104.001
X122.0Y-108.0
X133.0Y-26.0
X133.0Y-30.0
X133.0Y-32.0
X133.0Y-36.0
X133.0Y-38.0
X133.0Y-42.0
X133.0Y-44.0
X133.0Y-48.0
X133.0Y-50.0
X133.0Y-54.0
X133.0Y-56.0
X133.0Y-60.0
X133.0Y-62.0
X133.0Y-66.001
X133.0Y-68.001
X133.0Y-72.001
X133.0Y-74.001
X133.0Y-78.001
X133.0Y-80.001
X133.0Y-84.001
X133.0Y-86.001
X133.0Y-90.001
X133.0Y-92.001
X133.0Y-96.001
X133.0Y-98.001
X133.0Y-102.001
X133.0Y-104.001
X133.0Y-108.0
X134.0Y-26.0
X134.0Y-30.0
X134.0Y-32.0
X134.0Y-36.0
X134.0Y-38.0
X134.0Y-42.0
X134.0Y-44.0
X134.0Y-48.0
X134.0Y-50.0
X134.0Y-54.0
X134.0Y-56.0
X134.0Y-60.0
X134.0Y-62.0
X134.0Y-66.001
X134.0Y-68.001
X134.0Y-72.001
X134.0Y-74.001
X134.0Y-78.001
X134.0Y-80.001
X134.0Y-84.001
X134.0Y-86.001
X134.0Y-90.001
X134.0Y-92.001
X134.0Y-96.001
X134.0Y-98.001
X134.0Y-102.001
X134.0Y-104.001
X134.0Y-108.0
X135.0Y-26.0
X135.0Y-30.0
X135.0Y-32.0
X135.0Y-36.0
X135.0Y-38.0
X135.0Y-42.0
X135.0Y-44.0
X135.0Y-48.0
X135.0Y-50.0
X135.0Y-54.0
X135.0Y-56.0
X135.0Y-60.0
X135.0Y-62.0
X135.0Y-66.001
X135.0Y-68.001
X135.0Y-72.001
X135.0Y-74.001
X135.0Y-78.001
X135.0Y-80.001
X135.0Y-84.001
X135.0Y-86.001
X135.0Y-90.001
X135.0Y-92.001
X135.0Y-96.001
X135.0Y-98.001
X135.0Y-102.001
X135.0Y-104.001
X135.0Y-108.0
X136.0Y-26.0
X136.0Y-30.0
X136.0Y-32.0
X136.0Y-36.0
X136.0Y-38.0
X136.0Y-42.0
X136.0Y-44.0
X136.0Y-48.0
X136.0Y-50.0
X136.0Y-54.0
X136.0Y-56.0
X136.0Y-60.0
X136.0Y-62.0
X136.0Y-66.001
X136.0Y-68.001
X136.0Y-72.001
X136.0Y-74.001
X136.0Y-78.001
X136.0Y-80.001
X136.0Y-84.001
X136.0Y-86.001
X136.0Y-90.001
X136.0Y-92.001
X136.0Y-96.001
X136.0Y-98.001
X136.0Y-102.001
X136.0Y-104.001
X136.0Y-108.0
X147.0Y-26.0
X147.0Y-30.0
X147.0Y-32.0
X147.0Y-36.0
X147.0Y-38.0
X147.0Y-42.0
X147.0Y-44.0
X147.0Y-48.0
X147.0Y-50.0
X147.0Y-54.0
X147.0Y-56.0
X147.0Y-60.0
X147.0Y-62.0
X147.0Y-66.001
X147.0Y-68.001
X147.0Y-72.001
X147.0Y-74.001
X147.0Y-78.001
X147.0Y-80.001
X147.0Y-84.001
X147.0Y-86.001
X147.0Y-90.001
X147.0Y-92.001
X147.0Y-96.001
X147.0Y-98.001
X147.0Y-102.001
X147.0Y-104.001
X147.0Y-108.0
X148.0Y-26.0
X148.0Y-30.0
X148.0Y-32.0
X148.0Y-36.0
X148.0Y-38.0
X148.0Y-42.0
X148.0Y-44.0
X148.0Y-48.0
X148.0Y-50.0
X148.0Y-54.0
X148.0Y-56.0
X148.0Y-60.0
X148.0Y-62.0
X148.0Y-66.001
X148.0Y-68.001
X148.0Y-72.001
X148.0Y-74.001
X148.0Y-78.001
X148.0Y-80.001
X148.0Y-84.001
X148.0Y-86.001
X148.0Y-90.001
X148.0Y-92.001
X148.0Y-96.001
X148.0Y-98.001
X148.0Y-102.001
X148.0Y-104.001
X148.0Y-108.0
X149.0Y-26.0
X149.0Y-30.0
X149.0Y-32.0
X149.0Y-36.0
X149.0Y-38.0
X149.0Y-42.0
X149.0Y-44.0
X149.0Y-48.0
X149.0Y-50.0
X149.0Y-54.0
X149.0Y-56.0
X149.0Y-60.0
X149.0Y-62.0
X149.0Y-66.001
X149.0Y-68.001
X149.0Y-72.001
X149.0Y-74.001
X149.0Y-78.001
X149.0Y-80.001
X149.0Y-84.001
X149.0Y-86.001
X149.0Y-90.001
X149.0Y-92.001
X149.0Y-96.001
X149.0Y-98.001
X149.0Y-102.001
X149.0Y-104.001
X149.0Y-108.0
X150.0Y-26.0
X150.0Y-30.0
X150.0Y-32.0
X150.0Y-36.0
X150.0Y-38.0
X150.0Y-42.0
X150.0Y-44.0
X150.0Y-48.0
X150.0Y-50.0
X150.0Y-54.0
X150.0Y-56.0
X150.0Y-60.0
X150.0Y-62.0
X150.0Y-66.001
X150.0Y-68.001
X150.0Y-72.001
X150.0Y-74.001
X150.0Y-78.001
X150.0Y-80.001
X150.0Y-84.001
X150.0Y-86.001
X150.0Y-90.001
X150.0Y-92.001
X150.0Y-96.001
X150.0Y-98.001
X150.0Y-102.001
X150.0Y-104.001
X150.0Y-108.0
X161.0Y-26.0
X161.0Y-30.0
X161.0Y-32.0
X161.0Y-36.0
X161.0Y-38.0
X161.0Y-42.0
X161.0Y-44.0
X161.0Y-48.0
X161.0Y-50.0
X161.0Y-54.0
X161.0Y-56.0
X161.0Y-60.0
X161.0Y-62.0
X161.0Y-66.001
X161.0Y-68.001
X161.0Y-72.001
X161.0Y-74.001
X161.0Y-78.001
X161.0Y-80.001
X161.0Y-84.001
X161.0Y-86.001
X161.0Y-90.001
X161.0Y-92.001
X161.0Y-96.001
X161.0Y-98.001
X161.0Y-102.001
X161.0Y-104.001
X161.0Y-108.0
X162.0Y-26.0
X162.0Y-30.0
X162.0Y-32.0
X162.0Y-36.0
X162.0Y-38.0
X162.0Y-42.0
X162.0Y-44.0
X162.0Y-48.0
X162.0Y-50.0
X162.0Y-54.0
X162.0Y-56.0
X162.0Y-60.0
X162.0Y-62.0
X162.0Y-66.001
X162.0Y-68.001
X162.0Y-72.001
X162.0Y-74.001
X162.0Y-78.001
X162.0Y-80.001
X162.0Y-84.001
X162.0Y-86.001
X162.0Y-90.001
X162.0Y-92.001
X162.0Y-96.001
X162.0Y-98.001
X162.0Y-102.001
X162.0Y-104.001
X162.0Y-108.0
X163.0Y-26.0
X163.0Y-30.0
X163.0Y-32.0
X163.0Y-36.0
X163.0Y-38.0
X163.0Y-42.0
X163.0Y-44.0
X163.0Y-48.0
X163.0Y-50.0
X163.0Y-54.0
X163.0Y-56.0
X163.0Y-60.0
X163.0Y-62.0
X163.0Y-66.001
X163.0Y-68.001
X163.0Y-72.001
X163.0Y-74.001
X163.0Y-78.001
X163.0Y-80.001
X163.0Y-84.001
X163.0Y-86.001
X163.0Y-90.001
X163.0Y-92.001
X163.0Y-96.001
X163.0Y-98.001
X163.0Y-102.001
X163.0Y-104.001
X163.0Y-108.0
X164.0Y-26.0
X164.0Y-30.0
X164.0Y-32.0
X164.0Y-36.0
X164.0Y-38.0
X164.0Y-42.0
X164.0Y-44.0
X164.0Y-48.0
X164.0Y-50.0
X164.0Y-54.0
X164.0Y-56.0
X164.0Y-60.0
X164.0Y-62.0
X164.0Y-66.001
X164.0Y-68.001
X164.0Y-72.001
X164.0Y-74.001
X164.0Y-78.001
X164.0Y-80.001
X164.0Y-84.001
X164.0Y-86.001
X164.0Y-90.001
X164.0Y-92.001
X164.0Y-96.001
X164.0Y-98.001
X164.0Y-102.001
X164.0Y-104.001
X164.0Y-108.0
X175.0Y-26.0
X175.0Y-30.0
X175.0Y-32.0
X175.0Y-36.0
X175.0Y-38.0
X175.0Y-42.0
X175.0Y-44.0
X175.0Y-48.0
X175.0Y-50.0
X175.0Y-54.0
X175.0Y-56.0
X175.0Y-60.0
X175.0Y-62.0
X175.0Y-66.001
X175.0Y-68.001
X175.0Y-72.001
X175.0Y-74.001
X175.0Y-78.001
X175.0Y-80.001
X175.0Y-84.001
X175.0Y-86.001
X175.0Y-90.001
X175.0Y-92.001
X175.0Y-96.001
X175.0Y-98.001
X175.0Y-102.001
X175.0Y-104.001
X175.0Y-108.0
X176.0Y-26.0
X176.0Y-30.0
X176.0Y-32.0
X176.0Y-36.0
X176.0Y-38.0
X176.0Y-42.0
X176.0Y-44.0
X176.0Y-48.0
X176.0Y-50.0
X176.0Y-54.0
X176.0Y-56.0
X176.0Y-60.0
X176.0Y-62.0
X176.0Y-66.001
X176.0Y-68.001
X176.0Y-72.001
X176.0Y-74.001
X176.0Y-78.001
X176.0Y-80.001
X176.0Y-84.001
X176.0Y-86.001
X176.0Y-90.001
X176.0Y-92.001
X176.0Y-96.001
X176.0Y-98.001
X176.0Y-102.001
X176.0Y-104.001
X176.0Y-108.0
X177.0Y-26.0
X177.0Y-30.0
X177.0Y-32.0
X177.0Y-36.0
X177.0Y-38.0
X177.0Y-42.0
X177.0Y-44.0
X177.0Y-48.0
X177.0Y-50.0
X177.0Y-54.0
X177.0Y-56.0
X177.0Y-60.0
X177.0Y-62.0
X177.0Y-66.001
X177.0Y-68.001
X177.0Y-72.001
X177.0Y-74.001
X177.0Y-78.001
X177.0Y-80.001
X177.0Y-84.001
X177.0Y-86.001
X177.0Y-90.001
X177.0Y-92.001
X177.0Y-96.001
X177.0Y-98.001
X177.0Y-102.001
X177.0Y-104.001
X177.0Y-108.0
X178.0Y-26.0
X178.0Y-30.0
X178.0Y-32.0
X178.0Y-36.0
X178.0Y-38.0
X178.0Y-42.0
X178.0Y-44.0
X178.0Y-48.0
X178.0Y-50.0
X178.0Y-54.0
X178.0Y-56.0
X178.0Y-60.0
X178.0Y-62.0
X178.0Y-66.001
X178.0Y-68.001
X178.0Y-72.001
X178.0Y-74.001
X178.0Y-78.001
X178.0Y-80.001
X178.0Y-84.001
X178.0Y-86.001
X178.0Y-90.001
X178.0Y-92.001
X178.0Y-96.001
X178.0Y-98.001
X178.0Y-102.001
X178.0Y-104.001
X178.0Y-108.0
X189.0Y-26.0
X189.0Y-30.0
X189.0Y-32.0
X189.0Y-36.0
X189.0Y-38.0
X189.0Y-42.0
X189.0Y-44.0
X189.0Y-48.0
X189.0Y-50.0
X189.0Y-54.0
X189.0Y-56.0
X189.0Y-60.0
X189.0Y-62.0
X189.0Y-66.001
X189.0Y-68.001
X189.0Y-72.001
X189.0Y-74.001
X189.0Y-78.001
X189.0Y-80.001
X189.0Y-84.001
X189.0Y-86.001
X189.0Y-90.001
X189.0Y-92.001
X189.0Y-96.001
X189.0Y-98.001
X189.0Y-102.001
X189.0Y-104.001
X189.0Y-108.0
X190.0Y-26.0
X190.0Y-30.0
X190.0Y-32.0
X190.0Y-36.0
X190.0Y-38.0
X190.0Y-42.0
X190.0Y-44.0
X190.0Y-48.0
X190.0Y-50.0
X190.0Y-54.0
X190.0Y-56.0
X190.0Y-60.0
X190.0Y-62.0
X190.0Y-66.001
X190.0Y-68.001
X190.0Y-72.001
X190.0Y-74.001
X190.0Y-78.001
X190.0Y-80.001
X190.0Y-84.001
X190.0Y-86.001
X190.0Y-90.001
X190.0Y-92.001
X190.0Y-96.001
X190.0Y-98.001
X190.0Y-102.001
X190.0Y-104.001
X190.0Y-108.0
X191.0Y-26.0
X191.0Y-30.0
X191.0Y-32.0
X191.0Y-36.0
X191.0Y-38.0
X191.0Y-42.0
X191.0Y-44.0
X191.0Y-48.0
X191.0Y-50.0
X191.0Y-54.0
X191.0Y-56.0
X191.0Y-60.0
X191.0Y-62.0
X191.0Y-66.001
X191.0Y-68.001
X191.0Y-72.001
X191.0Y-74.001
X191.0Y-78.001
X191.0Y-80.001
X191.0Y-84.001
X191.0Y-86.001
X191.0Y-90.001
X191.0Y-92.001
X191.0Y-96.001
X191.0Y-98.001
X191.0Y-102.001
X191.0Y-104.001
X191.0Y-108.0
X192.0Y-26.0
X192.0Y-30.0
X192.0Y-32.0
X192.0Y-36.0
X192.0Y-38.0
X192.0Y-42.0
X192.0Y-44.0
X192.0Y-48.0
X192.0Y-50.0
X192.0Y-54.0
X192.0Y-56.0
X192.0Y-60.0
X192.0Y-62.0
X192.0Y-66.001
X192.0Y-68.001
X192.0Y-72.001
X192.0Y-74.001
X192.0Y-78.001
X192.0Y-80.001
X192.0Y-84.001
X192.0Y-86.001
X192.0Y-90.001
X192.0Y-92.001
X192.0Y-96.001
X192.0Y-98.001
X192.0Y-102.001
X192.0Y-104.001
X192.0Y-108.0
M30
