%TF.GenerationSoftware,KiCad,Pcbnew,10.0.0*%
%TF.CreationDate,2026-03-26T00:51:39+01:00*%
%TF.ProjectId,resistor_0805_order,72657369-7374-46f7-925f-303830355f6f,rev?*%
%TF.SameCoordinates,Original*%
%TF.FileFunction,Legend,Top*%
%TF.FilePolarity,Positive*%
%FSLAX46Y46*%
G04 Gerber Fmt 4.6, Leading zero omitted, Abs format (unit mm)*
G04 Created by KiCad (PCBNEW 10.0.0) date 2026-03-26 00:51:39*
%MOMM*%
%LPD*%
G01*
G04 APERTURE LIST*
%ADD10C,0.087500*%
%ADD11C,0.120000*%
G04 APERTURE END LIST*
D10*
X188624231Y-107926950D02*
X188590898Y-107893616D01*
X188590898Y-107893616D02*
X188524231Y-107793616D01*
X188524231Y-107793616D02*
X188490898Y-107726950D01*
X188490898Y-107726950D02*
X188457565Y-107626950D01*
X188457565Y-107626950D02*
X188424231Y-107460283D01*
X188424231Y-107460283D02*
X188424231Y-107326950D01*
X188424231Y-107326950D02*
X188457565Y-107160283D01*
X188457565Y-107160283D02*
X188490898Y-107060283D01*
X188490898Y-107060283D02*
X188524231Y-106993616D01*
X188524231Y-106993616D02*
X188590898Y-106893616D01*
X188590898Y-106893616D02*
X188624231Y-106860283D01*
X188890898Y-107393616D02*
X189424232Y-107393616D01*
X189157565Y-107660283D02*
X189157565Y-107126950D01*
X189690899Y-107926950D02*
X189724232Y-107893616D01*
X189724232Y-107893616D02*
X189790899Y-107793616D01*
X189790899Y-107793616D02*
X189824232Y-107726950D01*
X189824232Y-107726950D02*
X189857565Y-107626950D01*
X189857565Y-107626950D02*
X189890899Y-107460283D01*
X189890899Y-107460283D02*
X189890899Y-107326950D01*
X189890899Y-107326950D02*
X189857565Y-107160283D01*
X189857565Y-107160283D02*
X189824232Y-107060283D01*
X189824232Y-107060283D02*
X189790899Y-106993616D01*
X189790899Y-106993616D02*
X189724232Y-106893616D01*
X189724232Y-106893616D02*
X189690899Y-106860283D01*
X188624231Y-101926950D02*
X188590898Y-101893616D01*
X188590898Y-101893616D02*
X188524231Y-101793616D01*
X188524231Y-101793616D02*
X188490898Y-101726950D01*
X188490898Y-101726950D02*
X188457565Y-101626950D01*
X188457565Y-101626950D02*
X188424231Y-101460283D01*
X188424231Y-101460283D02*
X188424231Y-101326950D01*
X188424231Y-101326950D02*
X188457565Y-101160283D01*
X188457565Y-101160283D02*
X188490898Y-101060283D01*
X188490898Y-101060283D02*
X188524231Y-100993616D01*
X188524231Y-100993616D02*
X188590898Y-100893616D01*
X188590898Y-100893616D02*
X188624231Y-100860283D01*
X188890898Y-101393616D02*
X189424232Y-101393616D01*
X189157565Y-101660283D02*
X189157565Y-101126950D01*
X189690899Y-101926950D02*
X189724232Y-101893616D01*
X189724232Y-101893616D02*
X189790899Y-101793616D01*
X189790899Y-101793616D02*
X189824232Y-101726950D01*
X189824232Y-101726950D02*
X189857565Y-101626950D01*
X189857565Y-101626950D02*
X189890899Y-101460283D01*
X189890899Y-101460283D02*
X189890899Y-101326950D01*
X189890899Y-101326950D02*
X189857565Y-101160283D01*
X189857565Y-101160283D02*
X189824232Y-101060283D01*
X189824232Y-101060283D02*
X189790899Y-100993616D01*
X189790899Y-100993616D02*
X189724232Y-100893616D01*
X189724232Y-100893616D02*
X189690899Y-100860283D01*
X188624231Y-95926950D02*
X188590898Y-95893616D01*
X188590898Y-95893616D02*
X188524231Y-95793616D01*
X188524231Y-95793616D02*
X188490898Y-95726950D01*
X188490898Y-95726950D02*
X188457565Y-95626950D01*
X188457565Y-95626950D02*
X188424231Y-95460283D01*
X188424231Y-95460283D02*
X188424231Y-95326950D01*
X188424231Y-95326950D02*
X188457565Y-95160283D01*
X188457565Y-95160283D02*
X188490898Y-95060283D01*
X188490898Y-95060283D02*
X188524231Y-94993616D01*
X188524231Y-94993616D02*
X188590898Y-94893616D01*
X188590898Y-94893616D02*
X188624231Y-94860283D01*
X188890898Y-95393616D02*
X189424232Y-95393616D01*
X189157565Y-95660283D02*
X189157565Y-95126950D01*
X189690899Y-95926950D02*
X189724232Y-95893616D01*
X189724232Y-95893616D02*
X189790899Y-95793616D01*
X189790899Y-95793616D02*
X189824232Y-95726950D01*
X189824232Y-95726950D02*
X189857565Y-95626950D01*
X189857565Y-95626950D02*
X189890899Y-95460283D01*
X189890899Y-95460283D02*
X189890899Y-95326950D01*
X189890899Y-95326950D02*
X189857565Y-95160283D01*
X189857565Y-95160283D02*
X189824232Y-95060283D01*
X189824232Y-95060283D02*
X189790899Y-94993616D01*
X189790899Y-94993616D02*
X189724232Y-94893616D01*
X189724232Y-94893616D02*
X189690899Y-94860283D01*
X188624231Y-89926950D02*
X188590898Y-89893616D01*
X188590898Y-89893616D02*
X188524231Y-89793616D01*
X188524231Y-89793616D02*
X188490898Y-89726950D01*
X188490898Y-89726950D02*
X188457565Y-89626950D01*
X188457565Y-89626950D02*
X188424231Y-89460283D01*
X188424231Y-89460283D02*
X188424231Y-89326950D01*
X188424231Y-89326950D02*
X188457565Y-89160283D01*
X188457565Y-89160283D02*
X188490898Y-89060283D01*
X188490898Y-89060283D02*
X188524231Y-88993616D01*
X188524231Y-88993616D02*
X188590898Y-88893616D01*
X188590898Y-88893616D02*
X188624231Y-88860283D01*
X188890898Y-89393616D02*
X189424232Y-89393616D01*
X189157565Y-89660283D02*
X189157565Y-89126950D01*
X189690899Y-89926950D02*
X189724232Y-89893616D01*
X189724232Y-89893616D02*
X189790899Y-89793616D01*
X189790899Y-89793616D02*
X189824232Y-89726950D01*
X189824232Y-89726950D02*
X189857565Y-89626950D01*
X189857565Y-89626950D02*
X189890899Y-89460283D01*
X189890899Y-89460283D02*
X189890899Y-89326950D01*
X189890899Y-89326950D02*
X189857565Y-89160283D01*
X189857565Y-89160283D02*
X189824232Y-89060283D01*
X189824232Y-89060283D02*
X189790899Y-88993616D01*
X189790899Y-88993616D02*
X189724232Y-88893616D01*
X189724232Y-88893616D02*
X189690899Y-88860283D01*
X188624231Y-83926950D02*
X188590898Y-83893616D01*
X188590898Y-83893616D02*
X188524231Y-83793616D01*
X188524231Y-83793616D02*
X188490898Y-83726950D01*
X188490898Y-83726950D02*
X188457565Y-83626950D01*
X188457565Y-83626950D02*
X188424231Y-83460283D01*
X188424231Y-83460283D02*
X188424231Y-83326950D01*
X188424231Y-83326950D02*
X188457565Y-83160283D01*
X188457565Y-83160283D02*
X188490898Y-83060283D01*
X188490898Y-83060283D02*
X188524231Y-82993616D01*
X188524231Y-82993616D02*
X188590898Y-82893616D01*
X188590898Y-82893616D02*
X188624231Y-82860283D01*
X188890898Y-83393616D02*
X189424232Y-83393616D01*
X189157565Y-83660283D02*
X189157565Y-83126950D01*
X189690899Y-83926950D02*
X189724232Y-83893616D01*
X189724232Y-83893616D02*
X189790899Y-83793616D01*
X189790899Y-83793616D02*
X189824232Y-83726950D01*
X189824232Y-83726950D02*
X189857565Y-83626950D01*
X189857565Y-83626950D02*
X189890899Y-83460283D01*
X189890899Y-83460283D02*
X189890899Y-83326950D01*
X189890899Y-83326950D02*
X189857565Y-83160283D01*
X189857565Y-83160283D02*
X189824232Y-83060283D01*
X189824232Y-83060283D02*
X189790899Y-82993616D01*
X189790899Y-82993616D02*
X189724232Y-82893616D01*
X189724232Y-82893616D02*
X189690899Y-82860283D01*
X188624231Y-77926950D02*
X188590898Y-77893616D01*
X188590898Y-77893616D02*
X188524231Y-77793616D01*
X188524231Y-77793616D02*
X188490898Y-77726950D01*
X188490898Y-77726950D02*
X188457565Y-77626950D01*
X188457565Y-77626950D02*
X188424231Y-77460283D01*
X188424231Y-77460283D02*
X188424231Y-77326950D01*
X188424231Y-77326950D02*
X188457565Y-77160283D01*
X188457565Y-77160283D02*
X188490898Y-77060283D01*
X188490898Y-77060283D02*
X188524231Y-76993616D01*
X188524231Y-76993616D02*
X188590898Y-76893616D01*
X188590898Y-76893616D02*
X188624231Y-76860283D01*
X188890898Y-77393616D02*
X189424232Y-77393616D01*
X189157565Y-77660283D02*
X189157565Y-77126950D01*
X189690899Y-77926950D02*
X189724232Y-77893616D01*
X189724232Y-77893616D02*
X189790899Y-77793616D01*
X189790899Y-77793616D02*
X189824232Y-77726950D01*
X189824232Y-77726950D02*
X189857565Y-77626950D01*
X189857565Y-77626950D02*
X189890899Y-77460283D01*
X189890899Y-77460283D02*
X189890899Y-77326950D01*
X189890899Y-77326950D02*
X189857565Y-77160283D01*
X189857565Y-77160283D02*
X189824232Y-77060283D01*
X189824232Y-77060283D02*
X189790899Y-76993616D01*
X189790899Y-76993616D02*
X189724232Y-76893616D01*
X189724232Y-76893616D02*
X189690899Y-76860283D01*
X188624231Y-71926950D02*
X188590898Y-71893616D01*
X188590898Y-71893616D02*
X188524231Y-71793616D01*
X188524231Y-71793616D02*
X188490898Y-71726950D01*
X188490898Y-71726950D02*
X188457565Y-71626950D01*
X188457565Y-71626950D02*
X188424231Y-71460283D01*
X188424231Y-71460283D02*
X188424231Y-71326950D01*
X188424231Y-71326950D02*
X188457565Y-71160283D01*
X188457565Y-71160283D02*
X188490898Y-71060283D01*
X188490898Y-71060283D02*
X188524231Y-70993616D01*
X188524231Y-70993616D02*
X188590898Y-70893616D01*
X188590898Y-70893616D02*
X188624231Y-70860283D01*
X188890898Y-71393616D02*
X189424232Y-71393616D01*
X189157565Y-71660283D02*
X189157565Y-71126950D01*
X189690899Y-71926950D02*
X189724232Y-71893616D01*
X189724232Y-71893616D02*
X189790899Y-71793616D01*
X189790899Y-71793616D02*
X189824232Y-71726950D01*
X189824232Y-71726950D02*
X189857565Y-71626950D01*
X189857565Y-71626950D02*
X189890899Y-71460283D01*
X189890899Y-71460283D02*
X189890899Y-71326950D01*
X189890899Y-71326950D02*
X189857565Y-71160283D01*
X189857565Y-71160283D02*
X189824232Y-71060283D01*
X189824232Y-71060283D02*
X189790899Y-70993616D01*
X189790899Y-70993616D02*
X189724232Y-70893616D01*
X189724232Y-70893616D02*
X189690899Y-70860283D01*
X188624231Y-65926950D02*
X188590898Y-65893616D01*
X188590898Y-65893616D02*
X188524231Y-65793616D01*
X188524231Y-65793616D02*
X188490898Y-65726950D01*
X188490898Y-65726950D02*
X188457565Y-65626950D01*
X188457565Y-65626950D02*
X188424231Y-65460283D01*
X188424231Y-65460283D02*
X188424231Y-65326950D01*
X188424231Y-65326950D02*
X188457565Y-65160283D01*
X188457565Y-65160283D02*
X188490898Y-65060283D01*
X188490898Y-65060283D02*
X188524231Y-64993616D01*
X188524231Y-64993616D02*
X188590898Y-64893616D01*
X188590898Y-64893616D02*
X188624231Y-64860283D01*
X188890898Y-65393616D02*
X189424232Y-65393616D01*
X189157565Y-65660283D02*
X189157565Y-65126950D01*
X189690899Y-65926950D02*
X189724232Y-65893616D01*
X189724232Y-65893616D02*
X189790899Y-65793616D01*
X189790899Y-65793616D02*
X189824232Y-65726950D01*
X189824232Y-65726950D02*
X189857565Y-65626950D01*
X189857565Y-65626950D02*
X189890899Y-65460283D01*
X189890899Y-65460283D02*
X189890899Y-65326950D01*
X189890899Y-65326950D02*
X189857565Y-65160283D01*
X189857565Y-65160283D02*
X189824232Y-65060283D01*
X189824232Y-65060283D02*
X189790899Y-64993616D01*
X189790899Y-64993616D02*
X189724232Y-64893616D01*
X189724232Y-64893616D02*
X189690899Y-64860283D01*
X188624231Y-59926950D02*
X188590898Y-59893616D01*
X188590898Y-59893616D02*
X188524231Y-59793616D01*
X188524231Y-59793616D02*
X188490898Y-59726950D01*
X188490898Y-59726950D02*
X188457565Y-59626950D01*
X188457565Y-59626950D02*
X188424231Y-59460283D01*
X188424231Y-59460283D02*
X188424231Y-59326950D01*
X188424231Y-59326950D02*
X188457565Y-59160283D01*
X188457565Y-59160283D02*
X188490898Y-59060283D01*
X188490898Y-59060283D02*
X188524231Y-58993616D01*
X188524231Y-58993616D02*
X188590898Y-58893616D01*
X188590898Y-58893616D02*
X188624231Y-58860283D01*
X188890898Y-59393616D02*
X189424232Y-59393616D01*
X189157565Y-59660283D02*
X189157565Y-59126950D01*
X189690899Y-59926950D02*
X189724232Y-59893616D01*
X189724232Y-59893616D02*
X189790899Y-59793616D01*
X189790899Y-59793616D02*
X189824232Y-59726950D01*
X189824232Y-59726950D02*
X189857565Y-59626950D01*
X189857565Y-59626950D02*
X189890899Y-59460283D01*
X189890899Y-59460283D02*
X189890899Y-59326950D01*
X189890899Y-59326950D02*
X189857565Y-59160283D01*
X189857565Y-59160283D02*
X189824232Y-59060283D01*
X189824232Y-59060283D02*
X189790899Y-58993616D01*
X189790899Y-58993616D02*
X189724232Y-58893616D01*
X189724232Y-58893616D02*
X189690899Y-58860283D01*
X188624231Y-53926950D02*
X188590898Y-53893616D01*
X188590898Y-53893616D02*
X188524231Y-53793616D01*
X188524231Y-53793616D02*
X188490898Y-53726950D01*
X188490898Y-53726950D02*
X188457565Y-53626950D01*
X188457565Y-53626950D02*
X188424231Y-53460283D01*
X188424231Y-53460283D02*
X188424231Y-53326950D01*
X188424231Y-53326950D02*
X188457565Y-53160283D01*
X188457565Y-53160283D02*
X188490898Y-53060283D01*
X188490898Y-53060283D02*
X188524231Y-52993616D01*
X188524231Y-52993616D02*
X188590898Y-52893616D01*
X188590898Y-52893616D02*
X188624231Y-52860283D01*
X188890898Y-53393616D02*
X189424232Y-53393616D01*
X189157565Y-53660283D02*
X189157565Y-53126950D01*
X189690899Y-53926950D02*
X189724232Y-53893616D01*
X189724232Y-53893616D02*
X189790899Y-53793616D01*
X189790899Y-53793616D02*
X189824232Y-53726950D01*
X189824232Y-53726950D02*
X189857565Y-53626950D01*
X189857565Y-53626950D02*
X189890899Y-53460283D01*
X189890899Y-53460283D02*
X189890899Y-53326950D01*
X189890899Y-53326950D02*
X189857565Y-53160283D01*
X189857565Y-53160283D02*
X189824232Y-53060283D01*
X189824232Y-53060283D02*
X189790899Y-52993616D01*
X189790899Y-52993616D02*
X189724232Y-52893616D01*
X189724232Y-52893616D02*
X189690899Y-52860283D01*
X188624231Y-47926950D02*
X188590898Y-47893616D01*
X188590898Y-47893616D02*
X188524231Y-47793616D01*
X188524231Y-47793616D02*
X188490898Y-47726950D01*
X188490898Y-47726950D02*
X188457565Y-47626950D01*
X188457565Y-47626950D02*
X188424231Y-47460283D01*
X188424231Y-47460283D02*
X188424231Y-47326950D01*
X188424231Y-47326950D02*
X188457565Y-47160283D01*
X188457565Y-47160283D02*
X188490898Y-47060283D01*
X188490898Y-47060283D02*
X188524231Y-46993616D01*
X188524231Y-46993616D02*
X188590898Y-46893616D01*
X188590898Y-46893616D02*
X188624231Y-46860283D01*
X188890898Y-47393616D02*
X189424232Y-47393616D01*
X189157565Y-47660283D02*
X189157565Y-47126950D01*
X189690899Y-47926950D02*
X189724232Y-47893616D01*
X189724232Y-47893616D02*
X189790899Y-47793616D01*
X189790899Y-47793616D02*
X189824232Y-47726950D01*
X189824232Y-47726950D02*
X189857565Y-47626950D01*
X189857565Y-47626950D02*
X189890899Y-47460283D01*
X189890899Y-47460283D02*
X189890899Y-47326950D01*
X189890899Y-47326950D02*
X189857565Y-47160283D01*
X189857565Y-47160283D02*
X189824232Y-47060283D01*
X189824232Y-47060283D02*
X189790899Y-46993616D01*
X189790899Y-46993616D02*
X189724232Y-46893616D01*
X189724232Y-46893616D02*
X189690899Y-46860283D01*
X188624231Y-41926950D02*
X188590898Y-41893616D01*
X188590898Y-41893616D02*
X188524231Y-41793616D01*
X188524231Y-41793616D02*
X188490898Y-41726950D01*
X188490898Y-41726950D02*
X188457565Y-41626950D01*
X188457565Y-41626950D02*
X188424231Y-41460283D01*
X188424231Y-41460283D02*
X188424231Y-41326950D01*
X188424231Y-41326950D02*
X188457565Y-41160283D01*
X188457565Y-41160283D02*
X188490898Y-41060283D01*
X188490898Y-41060283D02*
X188524231Y-40993616D01*
X188524231Y-40993616D02*
X188590898Y-40893616D01*
X188590898Y-40893616D02*
X188624231Y-40860283D01*
X188890898Y-41393616D02*
X189424232Y-41393616D01*
X189157565Y-41660283D02*
X189157565Y-41126950D01*
X189690899Y-41926950D02*
X189724232Y-41893616D01*
X189724232Y-41893616D02*
X189790899Y-41793616D01*
X189790899Y-41793616D02*
X189824232Y-41726950D01*
X189824232Y-41726950D02*
X189857565Y-41626950D01*
X189857565Y-41626950D02*
X189890899Y-41460283D01*
X189890899Y-41460283D02*
X189890899Y-41326950D01*
X189890899Y-41326950D02*
X189857565Y-41160283D01*
X189857565Y-41160283D02*
X189824232Y-41060283D01*
X189824232Y-41060283D02*
X189790899Y-40993616D01*
X189790899Y-40993616D02*
X189724232Y-40893616D01*
X189724232Y-40893616D02*
X189690899Y-40860283D01*
X188624231Y-35926950D02*
X188590898Y-35893616D01*
X188590898Y-35893616D02*
X188524231Y-35793616D01*
X188524231Y-35793616D02*
X188490898Y-35726950D01*
X188490898Y-35726950D02*
X188457565Y-35626950D01*
X188457565Y-35626950D02*
X188424231Y-35460283D01*
X188424231Y-35460283D02*
X188424231Y-35326950D01*
X188424231Y-35326950D02*
X188457565Y-35160283D01*
X188457565Y-35160283D02*
X188490898Y-35060283D01*
X188490898Y-35060283D02*
X188524231Y-34993616D01*
X188524231Y-34993616D02*
X188590898Y-34893616D01*
X188590898Y-34893616D02*
X188624231Y-34860283D01*
X188890898Y-35393616D02*
X189424232Y-35393616D01*
X189157565Y-35660283D02*
X189157565Y-35126950D01*
X189690899Y-35926950D02*
X189724232Y-35893616D01*
X189724232Y-35893616D02*
X189790899Y-35793616D01*
X189790899Y-35793616D02*
X189824232Y-35726950D01*
X189824232Y-35726950D02*
X189857565Y-35626950D01*
X189857565Y-35626950D02*
X189890899Y-35460283D01*
X189890899Y-35460283D02*
X189890899Y-35326950D01*
X189890899Y-35326950D02*
X189857565Y-35160283D01*
X189857565Y-35160283D02*
X189824232Y-35060283D01*
X189824232Y-35060283D02*
X189790899Y-34993616D01*
X189790899Y-34993616D02*
X189724232Y-34893616D01*
X189724232Y-34893616D02*
X189690899Y-34860283D01*
X188624231Y-29926950D02*
X188590898Y-29893616D01*
X188590898Y-29893616D02*
X188524231Y-29793616D01*
X188524231Y-29793616D02*
X188490898Y-29726950D01*
X188490898Y-29726950D02*
X188457565Y-29626950D01*
X188457565Y-29626950D02*
X188424231Y-29460283D01*
X188424231Y-29460283D02*
X188424231Y-29326950D01*
X188424231Y-29326950D02*
X188457565Y-29160283D01*
X188457565Y-29160283D02*
X188490898Y-29060283D01*
X188490898Y-29060283D02*
X188524231Y-28993616D01*
X188524231Y-28993616D02*
X188590898Y-28893616D01*
X188590898Y-28893616D02*
X188624231Y-28860283D01*
X188890898Y-29393616D02*
X189424232Y-29393616D01*
X189157565Y-29660283D02*
X189157565Y-29126950D01*
X189690899Y-29926950D02*
X189724232Y-29893616D01*
X189724232Y-29893616D02*
X189790899Y-29793616D01*
X189790899Y-29793616D02*
X189824232Y-29726950D01*
X189824232Y-29726950D02*
X189857565Y-29626950D01*
X189857565Y-29626950D02*
X189890899Y-29460283D01*
X189890899Y-29460283D02*
X189890899Y-29326950D01*
X189890899Y-29326950D02*
X189857565Y-29160283D01*
X189857565Y-29160283D02*
X189824232Y-29060283D01*
X189824232Y-29060283D02*
X189790899Y-28993616D01*
X189790899Y-28993616D02*
X189724232Y-28893616D01*
X189724232Y-28893616D02*
X189690899Y-28860283D01*
X174624231Y-107926950D02*
X174590898Y-107893616D01*
X174590898Y-107893616D02*
X174524231Y-107793616D01*
X174524231Y-107793616D02*
X174490898Y-107726950D01*
X174490898Y-107726950D02*
X174457565Y-107626950D01*
X174457565Y-107626950D02*
X174424231Y-107460283D01*
X174424231Y-107460283D02*
X174424231Y-107326950D01*
X174424231Y-107326950D02*
X174457565Y-107160283D01*
X174457565Y-107160283D02*
X174490898Y-107060283D01*
X174490898Y-107060283D02*
X174524231Y-106993616D01*
X174524231Y-106993616D02*
X174590898Y-106893616D01*
X174590898Y-106893616D02*
X174624231Y-106860283D01*
X174890898Y-107393616D02*
X175424232Y-107393616D01*
X175157565Y-107660283D02*
X175157565Y-107126950D01*
X175690899Y-107926950D02*
X175724232Y-107893616D01*
X175724232Y-107893616D02*
X175790899Y-107793616D01*
X175790899Y-107793616D02*
X175824232Y-107726950D01*
X175824232Y-107726950D02*
X175857565Y-107626950D01*
X175857565Y-107626950D02*
X175890899Y-107460283D01*
X175890899Y-107460283D02*
X175890899Y-107326950D01*
X175890899Y-107326950D02*
X175857565Y-107160283D01*
X175857565Y-107160283D02*
X175824232Y-107060283D01*
X175824232Y-107060283D02*
X175790899Y-106993616D01*
X175790899Y-106993616D02*
X175724232Y-106893616D01*
X175724232Y-106893616D02*
X175690899Y-106860283D01*
X174624231Y-101926950D02*
X174590898Y-101893616D01*
X174590898Y-101893616D02*
X174524231Y-101793616D01*
X174524231Y-101793616D02*
X174490898Y-101726950D01*
X174490898Y-101726950D02*
X174457565Y-101626950D01*
X174457565Y-101626950D02*
X174424231Y-101460283D01*
X174424231Y-101460283D02*
X174424231Y-101326950D01*
X174424231Y-101326950D02*
X174457565Y-101160283D01*
X174457565Y-101160283D02*
X174490898Y-101060283D01*
X174490898Y-101060283D02*
X174524231Y-100993616D01*
X174524231Y-100993616D02*
X174590898Y-100893616D01*
X174590898Y-100893616D02*
X174624231Y-100860283D01*
X174890898Y-101393616D02*
X175424232Y-101393616D01*
X175157565Y-101660283D02*
X175157565Y-101126950D01*
X175690899Y-101926950D02*
X175724232Y-101893616D01*
X175724232Y-101893616D02*
X175790899Y-101793616D01*
X175790899Y-101793616D02*
X175824232Y-101726950D01*
X175824232Y-101726950D02*
X175857565Y-101626950D01*
X175857565Y-101626950D02*
X175890899Y-101460283D01*
X175890899Y-101460283D02*
X175890899Y-101326950D01*
X175890899Y-101326950D02*
X175857565Y-101160283D01*
X175857565Y-101160283D02*
X175824232Y-101060283D01*
X175824232Y-101060283D02*
X175790899Y-100993616D01*
X175790899Y-100993616D02*
X175724232Y-100893616D01*
X175724232Y-100893616D02*
X175690899Y-100860283D01*
X174624231Y-95926950D02*
X174590898Y-95893616D01*
X174590898Y-95893616D02*
X174524231Y-95793616D01*
X174524231Y-95793616D02*
X174490898Y-95726950D01*
X174490898Y-95726950D02*
X174457565Y-95626950D01*
X174457565Y-95626950D02*
X174424231Y-95460283D01*
X174424231Y-95460283D02*
X174424231Y-95326950D01*
X174424231Y-95326950D02*
X174457565Y-95160283D01*
X174457565Y-95160283D02*
X174490898Y-95060283D01*
X174490898Y-95060283D02*
X174524231Y-94993616D01*
X174524231Y-94993616D02*
X174590898Y-94893616D01*
X174590898Y-94893616D02*
X174624231Y-94860283D01*
X174890898Y-95393616D02*
X175424232Y-95393616D01*
X175157565Y-95660283D02*
X175157565Y-95126950D01*
X175690899Y-95926950D02*
X175724232Y-95893616D01*
X175724232Y-95893616D02*
X175790899Y-95793616D01*
X175790899Y-95793616D02*
X175824232Y-95726950D01*
X175824232Y-95726950D02*
X175857565Y-95626950D01*
X175857565Y-95626950D02*
X175890899Y-95460283D01*
X175890899Y-95460283D02*
X175890899Y-95326950D01*
X175890899Y-95326950D02*
X175857565Y-95160283D01*
X175857565Y-95160283D02*
X175824232Y-95060283D01*
X175824232Y-95060283D02*
X175790899Y-94993616D01*
X175790899Y-94993616D02*
X175724232Y-94893616D01*
X175724232Y-94893616D02*
X175690899Y-94860283D01*
X174624231Y-89926950D02*
X174590898Y-89893616D01*
X174590898Y-89893616D02*
X174524231Y-89793616D01*
X174524231Y-89793616D02*
X174490898Y-89726950D01*
X174490898Y-89726950D02*
X174457565Y-89626950D01*
X174457565Y-89626950D02*
X174424231Y-89460283D01*
X174424231Y-89460283D02*
X174424231Y-89326950D01*
X174424231Y-89326950D02*
X174457565Y-89160283D01*
X174457565Y-89160283D02*
X174490898Y-89060283D01*
X174490898Y-89060283D02*
X174524231Y-88993616D01*
X174524231Y-88993616D02*
X174590898Y-88893616D01*
X174590898Y-88893616D02*
X174624231Y-88860283D01*
X174890898Y-89393616D02*
X175424232Y-89393616D01*
X175157565Y-89660283D02*
X175157565Y-89126950D01*
X175690899Y-89926950D02*
X175724232Y-89893616D01*
X175724232Y-89893616D02*
X175790899Y-89793616D01*
X175790899Y-89793616D02*
X175824232Y-89726950D01*
X175824232Y-89726950D02*
X175857565Y-89626950D01*
X175857565Y-89626950D02*
X175890899Y-89460283D01*
X175890899Y-89460283D02*
X175890899Y-89326950D01*
X175890899Y-89326950D02*
X175857565Y-89160283D01*
X175857565Y-89160283D02*
X175824232Y-89060283D01*
X175824232Y-89060283D02*
X175790899Y-88993616D01*
X175790899Y-88993616D02*
X175724232Y-88893616D01*
X175724232Y-88893616D02*
X175690899Y-88860283D01*
X174624231Y-83926950D02*
X174590898Y-83893616D01*
X174590898Y-83893616D02*
X174524231Y-83793616D01*
X174524231Y-83793616D02*
X174490898Y-83726950D01*
X174490898Y-83726950D02*
X174457565Y-83626950D01*
X174457565Y-83626950D02*
X174424231Y-83460283D01*
X174424231Y-83460283D02*
X174424231Y-83326950D01*
X174424231Y-83326950D02*
X174457565Y-83160283D01*
X174457565Y-83160283D02*
X174490898Y-83060283D01*
X174490898Y-83060283D02*
X174524231Y-82993616D01*
X174524231Y-82993616D02*
X174590898Y-82893616D01*
X174590898Y-82893616D02*
X174624231Y-82860283D01*
X174890898Y-83393616D02*
X175424232Y-83393616D01*
X175157565Y-83660283D02*
X175157565Y-83126950D01*
X175690899Y-83926950D02*
X175724232Y-83893616D01*
X175724232Y-83893616D02*
X175790899Y-83793616D01*
X175790899Y-83793616D02*
X175824232Y-83726950D01*
X175824232Y-83726950D02*
X175857565Y-83626950D01*
X175857565Y-83626950D02*
X175890899Y-83460283D01*
X175890899Y-83460283D02*
X175890899Y-83326950D01*
X175890899Y-83326950D02*
X175857565Y-83160283D01*
X175857565Y-83160283D02*
X175824232Y-83060283D01*
X175824232Y-83060283D02*
X175790899Y-82993616D01*
X175790899Y-82993616D02*
X175724232Y-82893616D01*
X175724232Y-82893616D02*
X175690899Y-82860283D01*
X174624231Y-77926950D02*
X174590898Y-77893616D01*
X174590898Y-77893616D02*
X174524231Y-77793616D01*
X174524231Y-77793616D02*
X174490898Y-77726950D01*
X174490898Y-77726950D02*
X174457565Y-77626950D01*
X174457565Y-77626950D02*
X174424231Y-77460283D01*
X174424231Y-77460283D02*
X174424231Y-77326950D01*
X174424231Y-77326950D02*
X174457565Y-77160283D01*
X174457565Y-77160283D02*
X174490898Y-77060283D01*
X174490898Y-77060283D02*
X174524231Y-76993616D01*
X174524231Y-76993616D02*
X174590898Y-76893616D01*
X174590898Y-76893616D02*
X174624231Y-76860283D01*
X174890898Y-77393616D02*
X175424232Y-77393616D01*
X175157565Y-77660283D02*
X175157565Y-77126950D01*
X175690899Y-77926950D02*
X175724232Y-77893616D01*
X175724232Y-77893616D02*
X175790899Y-77793616D01*
X175790899Y-77793616D02*
X175824232Y-77726950D01*
X175824232Y-77726950D02*
X175857565Y-77626950D01*
X175857565Y-77626950D02*
X175890899Y-77460283D01*
X175890899Y-77460283D02*
X175890899Y-77326950D01*
X175890899Y-77326950D02*
X175857565Y-77160283D01*
X175857565Y-77160283D02*
X175824232Y-77060283D01*
X175824232Y-77060283D02*
X175790899Y-76993616D01*
X175790899Y-76993616D02*
X175724232Y-76893616D01*
X175724232Y-76893616D02*
X175690899Y-76860283D01*
X174624231Y-71926950D02*
X174590898Y-71893616D01*
X174590898Y-71893616D02*
X174524231Y-71793616D01*
X174524231Y-71793616D02*
X174490898Y-71726950D01*
X174490898Y-71726950D02*
X174457565Y-71626950D01*
X174457565Y-71626950D02*
X174424231Y-71460283D01*
X174424231Y-71460283D02*
X174424231Y-71326950D01*
X174424231Y-71326950D02*
X174457565Y-71160283D01*
X174457565Y-71160283D02*
X174490898Y-71060283D01*
X174490898Y-71060283D02*
X174524231Y-70993616D01*
X174524231Y-70993616D02*
X174590898Y-70893616D01*
X174590898Y-70893616D02*
X174624231Y-70860283D01*
X174890898Y-71393616D02*
X175424232Y-71393616D01*
X175157565Y-71660283D02*
X175157565Y-71126950D01*
X175690899Y-71926950D02*
X175724232Y-71893616D01*
X175724232Y-71893616D02*
X175790899Y-71793616D01*
X175790899Y-71793616D02*
X175824232Y-71726950D01*
X175824232Y-71726950D02*
X175857565Y-71626950D01*
X175857565Y-71626950D02*
X175890899Y-71460283D01*
X175890899Y-71460283D02*
X175890899Y-71326950D01*
X175890899Y-71326950D02*
X175857565Y-71160283D01*
X175857565Y-71160283D02*
X175824232Y-71060283D01*
X175824232Y-71060283D02*
X175790899Y-70993616D01*
X175790899Y-70993616D02*
X175724232Y-70893616D01*
X175724232Y-70893616D02*
X175690899Y-70860283D01*
X174624231Y-65926950D02*
X174590898Y-65893616D01*
X174590898Y-65893616D02*
X174524231Y-65793616D01*
X174524231Y-65793616D02*
X174490898Y-65726950D01*
X174490898Y-65726950D02*
X174457565Y-65626950D01*
X174457565Y-65626950D02*
X174424231Y-65460283D01*
X174424231Y-65460283D02*
X174424231Y-65326950D01*
X174424231Y-65326950D02*
X174457565Y-65160283D01*
X174457565Y-65160283D02*
X174490898Y-65060283D01*
X174490898Y-65060283D02*
X174524231Y-64993616D01*
X174524231Y-64993616D02*
X174590898Y-64893616D01*
X174590898Y-64893616D02*
X174624231Y-64860283D01*
X174890898Y-65393616D02*
X175424232Y-65393616D01*
X175157565Y-65660283D02*
X175157565Y-65126950D01*
X175690899Y-65926950D02*
X175724232Y-65893616D01*
X175724232Y-65893616D02*
X175790899Y-65793616D01*
X175790899Y-65793616D02*
X175824232Y-65726950D01*
X175824232Y-65726950D02*
X175857565Y-65626950D01*
X175857565Y-65626950D02*
X175890899Y-65460283D01*
X175890899Y-65460283D02*
X175890899Y-65326950D01*
X175890899Y-65326950D02*
X175857565Y-65160283D01*
X175857565Y-65160283D02*
X175824232Y-65060283D01*
X175824232Y-65060283D02*
X175790899Y-64993616D01*
X175790899Y-64993616D02*
X175724232Y-64893616D01*
X175724232Y-64893616D02*
X175690899Y-64860283D01*
X174624231Y-59926950D02*
X174590898Y-59893616D01*
X174590898Y-59893616D02*
X174524231Y-59793616D01*
X174524231Y-59793616D02*
X174490898Y-59726950D01*
X174490898Y-59726950D02*
X174457565Y-59626950D01*
X174457565Y-59626950D02*
X174424231Y-59460283D01*
X174424231Y-59460283D02*
X174424231Y-59326950D01*
X174424231Y-59326950D02*
X174457565Y-59160283D01*
X174457565Y-59160283D02*
X174490898Y-59060283D01*
X174490898Y-59060283D02*
X174524231Y-58993616D01*
X174524231Y-58993616D02*
X174590898Y-58893616D01*
X174590898Y-58893616D02*
X174624231Y-58860283D01*
X174890898Y-59393616D02*
X175424232Y-59393616D01*
X175157565Y-59660283D02*
X175157565Y-59126950D01*
X175690899Y-59926950D02*
X175724232Y-59893616D01*
X175724232Y-59893616D02*
X175790899Y-59793616D01*
X175790899Y-59793616D02*
X175824232Y-59726950D01*
X175824232Y-59726950D02*
X175857565Y-59626950D01*
X175857565Y-59626950D02*
X175890899Y-59460283D01*
X175890899Y-59460283D02*
X175890899Y-59326950D01*
X175890899Y-59326950D02*
X175857565Y-59160283D01*
X175857565Y-59160283D02*
X175824232Y-59060283D01*
X175824232Y-59060283D02*
X175790899Y-58993616D01*
X175790899Y-58993616D02*
X175724232Y-58893616D01*
X175724232Y-58893616D02*
X175690899Y-58860283D01*
X174624231Y-53926950D02*
X174590898Y-53893616D01*
X174590898Y-53893616D02*
X174524231Y-53793616D01*
X174524231Y-53793616D02*
X174490898Y-53726950D01*
X174490898Y-53726950D02*
X174457565Y-53626950D01*
X174457565Y-53626950D02*
X174424231Y-53460283D01*
X174424231Y-53460283D02*
X174424231Y-53326950D01*
X174424231Y-53326950D02*
X174457565Y-53160283D01*
X174457565Y-53160283D02*
X174490898Y-53060283D01*
X174490898Y-53060283D02*
X174524231Y-52993616D01*
X174524231Y-52993616D02*
X174590898Y-52893616D01*
X174590898Y-52893616D02*
X174624231Y-52860283D01*
X174890898Y-53393616D02*
X175424232Y-53393616D01*
X175157565Y-53660283D02*
X175157565Y-53126950D01*
X175690899Y-53926950D02*
X175724232Y-53893616D01*
X175724232Y-53893616D02*
X175790899Y-53793616D01*
X175790899Y-53793616D02*
X175824232Y-53726950D01*
X175824232Y-53726950D02*
X175857565Y-53626950D01*
X175857565Y-53626950D02*
X175890899Y-53460283D01*
X175890899Y-53460283D02*
X175890899Y-53326950D01*
X175890899Y-53326950D02*
X175857565Y-53160283D01*
X175857565Y-53160283D02*
X175824232Y-53060283D01*
X175824232Y-53060283D02*
X175790899Y-52993616D01*
X175790899Y-52993616D02*
X175724232Y-52893616D01*
X175724232Y-52893616D02*
X175690899Y-52860283D01*
X174624231Y-47926950D02*
X174590898Y-47893616D01*
X174590898Y-47893616D02*
X174524231Y-47793616D01*
X174524231Y-47793616D02*
X174490898Y-47726950D01*
X174490898Y-47726950D02*
X174457565Y-47626950D01*
X174457565Y-47626950D02*
X174424231Y-47460283D01*
X174424231Y-47460283D02*
X174424231Y-47326950D01*
X174424231Y-47326950D02*
X174457565Y-47160283D01*
X174457565Y-47160283D02*
X174490898Y-47060283D01*
X174490898Y-47060283D02*
X174524231Y-46993616D01*
X174524231Y-46993616D02*
X174590898Y-46893616D01*
X174590898Y-46893616D02*
X174624231Y-46860283D01*
X174890898Y-47393616D02*
X175424232Y-47393616D01*
X175157565Y-47660283D02*
X175157565Y-47126950D01*
X175690899Y-47926950D02*
X175724232Y-47893616D01*
X175724232Y-47893616D02*
X175790899Y-47793616D01*
X175790899Y-47793616D02*
X175824232Y-47726950D01*
X175824232Y-47726950D02*
X175857565Y-47626950D01*
X175857565Y-47626950D02*
X175890899Y-47460283D01*
X175890899Y-47460283D02*
X175890899Y-47326950D01*
X175890899Y-47326950D02*
X175857565Y-47160283D01*
X175857565Y-47160283D02*
X175824232Y-47060283D01*
X175824232Y-47060283D02*
X175790899Y-46993616D01*
X175790899Y-46993616D02*
X175724232Y-46893616D01*
X175724232Y-46893616D02*
X175690899Y-46860283D01*
X174624231Y-41926950D02*
X174590898Y-41893616D01*
X174590898Y-41893616D02*
X174524231Y-41793616D01*
X174524231Y-41793616D02*
X174490898Y-41726950D01*
X174490898Y-41726950D02*
X174457565Y-41626950D01*
X174457565Y-41626950D02*
X174424231Y-41460283D01*
X174424231Y-41460283D02*
X174424231Y-41326950D01*
X174424231Y-41326950D02*
X174457565Y-41160283D01*
X174457565Y-41160283D02*
X174490898Y-41060283D01*
X174490898Y-41060283D02*
X174524231Y-40993616D01*
X174524231Y-40993616D02*
X174590898Y-40893616D01*
X174590898Y-40893616D02*
X174624231Y-40860283D01*
X174890898Y-41393616D02*
X175424232Y-41393616D01*
X175157565Y-41660283D02*
X175157565Y-41126950D01*
X175690899Y-41926950D02*
X175724232Y-41893616D01*
X175724232Y-41893616D02*
X175790899Y-41793616D01*
X175790899Y-41793616D02*
X175824232Y-41726950D01*
X175824232Y-41726950D02*
X175857565Y-41626950D01*
X175857565Y-41626950D02*
X175890899Y-41460283D01*
X175890899Y-41460283D02*
X175890899Y-41326950D01*
X175890899Y-41326950D02*
X175857565Y-41160283D01*
X175857565Y-41160283D02*
X175824232Y-41060283D01*
X175824232Y-41060283D02*
X175790899Y-40993616D01*
X175790899Y-40993616D02*
X175724232Y-40893616D01*
X175724232Y-40893616D02*
X175690899Y-40860283D01*
X174624231Y-35926950D02*
X174590898Y-35893616D01*
X174590898Y-35893616D02*
X174524231Y-35793616D01*
X174524231Y-35793616D02*
X174490898Y-35726950D01*
X174490898Y-35726950D02*
X174457565Y-35626950D01*
X174457565Y-35626950D02*
X174424231Y-35460283D01*
X174424231Y-35460283D02*
X174424231Y-35326950D01*
X174424231Y-35326950D02*
X174457565Y-35160283D01*
X174457565Y-35160283D02*
X174490898Y-35060283D01*
X174490898Y-35060283D02*
X174524231Y-34993616D01*
X174524231Y-34993616D02*
X174590898Y-34893616D01*
X174590898Y-34893616D02*
X174624231Y-34860283D01*
X174890898Y-35393616D02*
X175424232Y-35393616D01*
X175157565Y-35660283D02*
X175157565Y-35126950D01*
X175690899Y-35926950D02*
X175724232Y-35893616D01*
X175724232Y-35893616D02*
X175790899Y-35793616D01*
X175790899Y-35793616D02*
X175824232Y-35726950D01*
X175824232Y-35726950D02*
X175857565Y-35626950D01*
X175857565Y-35626950D02*
X175890899Y-35460283D01*
X175890899Y-35460283D02*
X175890899Y-35326950D01*
X175890899Y-35326950D02*
X175857565Y-35160283D01*
X175857565Y-35160283D02*
X175824232Y-35060283D01*
X175824232Y-35060283D02*
X175790899Y-34993616D01*
X175790899Y-34993616D02*
X175724232Y-34893616D01*
X175724232Y-34893616D02*
X175690899Y-34860283D01*
X174624231Y-29926950D02*
X174590898Y-29893616D01*
X174590898Y-29893616D02*
X174524231Y-29793616D01*
X174524231Y-29793616D02*
X174490898Y-29726950D01*
X174490898Y-29726950D02*
X174457565Y-29626950D01*
X174457565Y-29626950D02*
X174424231Y-29460283D01*
X174424231Y-29460283D02*
X174424231Y-29326950D01*
X174424231Y-29326950D02*
X174457565Y-29160283D01*
X174457565Y-29160283D02*
X174490898Y-29060283D01*
X174490898Y-29060283D02*
X174524231Y-28993616D01*
X174524231Y-28993616D02*
X174590898Y-28893616D01*
X174590898Y-28893616D02*
X174624231Y-28860283D01*
X174890898Y-29393616D02*
X175424232Y-29393616D01*
X175157565Y-29660283D02*
X175157565Y-29126950D01*
X175690899Y-29926950D02*
X175724232Y-29893616D01*
X175724232Y-29893616D02*
X175790899Y-29793616D01*
X175790899Y-29793616D02*
X175824232Y-29726950D01*
X175824232Y-29726950D02*
X175857565Y-29626950D01*
X175857565Y-29626950D02*
X175890899Y-29460283D01*
X175890899Y-29460283D02*
X175890899Y-29326950D01*
X175890899Y-29326950D02*
X175857565Y-29160283D01*
X175857565Y-29160283D02*
X175824232Y-29060283D01*
X175824232Y-29060283D02*
X175790899Y-28993616D01*
X175790899Y-28993616D02*
X175724232Y-28893616D01*
X175724232Y-28893616D02*
X175690899Y-28860283D01*
X160624231Y-107926950D02*
X160590898Y-107893616D01*
X160590898Y-107893616D02*
X160524231Y-107793616D01*
X160524231Y-107793616D02*
X160490898Y-107726950D01*
X160490898Y-107726950D02*
X160457565Y-107626950D01*
X160457565Y-107626950D02*
X160424231Y-107460283D01*
X160424231Y-107460283D02*
X160424231Y-107326950D01*
X160424231Y-107326950D02*
X160457565Y-107160283D01*
X160457565Y-107160283D02*
X160490898Y-107060283D01*
X160490898Y-107060283D02*
X160524231Y-106993616D01*
X160524231Y-106993616D02*
X160590898Y-106893616D01*
X160590898Y-106893616D02*
X160624231Y-106860283D01*
X160890898Y-107393616D02*
X161424232Y-107393616D01*
X161157565Y-107660283D02*
X161157565Y-107126950D01*
X161690899Y-107926950D02*
X161724232Y-107893616D01*
X161724232Y-107893616D02*
X161790899Y-107793616D01*
X161790899Y-107793616D02*
X161824232Y-107726950D01*
X161824232Y-107726950D02*
X161857565Y-107626950D01*
X161857565Y-107626950D02*
X161890899Y-107460283D01*
X161890899Y-107460283D02*
X161890899Y-107326950D01*
X161890899Y-107326950D02*
X161857565Y-107160283D01*
X161857565Y-107160283D02*
X161824232Y-107060283D01*
X161824232Y-107060283D02*
X161790899Y-106993616D01*
X161790899Y-106993616D02*
X161724232Y-106893616D01*
X161724232Y-106893616D02*
X161690899Y-106860283D01*
X160624231Y-101926950D02*
X160590898Y-101893616D01*
X160590898Y-101893616D02*
X160524231Y-101793616D01*
X160524231Y-101793616D02*
X160490898Y-101726950D01*
X160490898Y-101726950D02*
X160457565Y-101626950D01*
X160457565Y-101626950D02*
X160424231Y-101460283D01*
X160424231Y-101460283D02*
X160424231Y-101326950D01*
X160424231Y-101326950D02*
X160457565Y-101160283D01*
X160457565Y-101160283D02*
X160490898Y-101060283D01*
X160490898Y-101060283D02*
X160524231Y-100993616D01*
X160524231Y-100993616D02*
X160590898Y-100893616D01*
X160590898Y-100893616D02*
X160624231Y-100860283D01*
X160890898Y-101393616D02*
X161424232Y-101393616D01*
X161157565Y-101660283D02*
X161157565Y-101126950D01*
X161690899Y-101926950D02*
X161724232Y-101893616D01*
X161724232Y-101893616D02*
X161790899Y-101793616D01*
X161790899Y-101793616D02*
X161824232Y-101726950D01*
X161824232Y-101726950D02*
X161857565Y-101626950D01*
X161857565Y-101626950D02*
X161890899Y-101460283D01*
X161890899Y-101460283D02*
X161890899Y-101326950D01*
X161890899Y-101326950D02*
X161857565Y-101160283D01*
X161857565Y-101160283D02*
X161824232Y-101060283D01*
X161824232Y-101060283D02*
X161790899Y-100993616D01*
X161790899Y-100993616D02*
X161724232Y-100893616D01*
X161724232Y-100893616D02*
X161690899Y-100860283D01*
X160624231Y-95926950D02*
X160590898Y-95893616D01*
X160590898Y-95893616D02*
X160524231Y-95793616D01*
X160524231Y-95793616D02*
X160490898Y-95726950D01*
X160490898Y-95726950D02*
X160457565Y-95626950D01*
X160457565Y-95626950D02*
X160424231Y-95460283D01*
X160424231Y-95460283D02*
X160424231Y-95326950D01*
X160424231Y-95326950D02*
X160457565Y-95160283D01*
X160457565Y-95160283D02*
X160490898Y-95060283D01*
X160490898Y-95060283D02*
X160524231Y-94993616D01*
X160524231Y-94993616D02*
X160590898Y-94893616D01*
X160590898Y-94893616D02*
X160624231Y-94860283D01*
X160890898Y-95393616D02*
X161424232Y-95393616D01*
X161157565Y-95660283D02*
X161157565Y-95126950D01*
X161690899Y-95926950D02*
X161724232Y-95893616D01*
X161724232Y-95893616D02*
X161790899Y-95793616D01*
X161790899Y-95793616D02*
X161824232Y-95726950D01*
X161824232Y-95726950D02*
X161857565Y-95626950D01*
X161857565Y-95626950D02*
X161890899Y-95460283D01*
X161890899Y-95460283D02*
X161890899Y-95326950D01*
X161890899Y-95326950D02*
X161857565Y-95160283D01*
X161857565Y-95160283D02*
X161824232Y-95060283D01*
X161824232Y-95060283D02*
X161790899Y-94993616D01*
X161790899Y-94993616D02*
X161724232Y-94893616D01*
X161724232Y-94893616D02*
X161690899Y-94860283D01*
X160624231Y-89926950D02*
X160590898Y-89893616D01*
X160590898Y-89893616D02*
X160524231Y-89793616D01*
X160524231Y-89793616D02*
X160490898Y-89726950D01*
X160490898Y-89726950D02*
X160457565Y-89626950D01*
X160457565Y-89626950D02*
X160424231Y-89460283D01*
X160424231Y-89460283D02*
X160424231Y-89326950D01*
X160424231Y-89326950D02*
X160457565Y-89160283D01*
X160457565Y-89160283D02*
X160490898Y-89060283D01*
X160490898Y-89060283D02*
X160524231Y-88993616D01*
X160524231Y-88993616D02*
X160590898Y-88893616D01*
X160590898Y-88893616D02*
X160624231Y-88860283D01*
X160890898Y-89393616D02*
X161424232Y-89393616D01*
X161157565Y-89660283D02*
X161157565Y-89126950D01*
X161690899Y-89926950D02*
X161724232Y-89893616D01*
X161724232Y-89893616D02*
X161790899Y-89793616D01*
X161790899Y-89793616D02*
X161824232Y-89726950D01*
X161824232Y-89726950D02*
X161857565Y-89626950D01*
X161857565Y-89626950D02*
X161890899Y-89460283D01*
X161890899Y-89460283D02*
X161890899Y-89326950D01*
X161890899Y-89326950D02*
X161857565Y-89160283D01*
X161857565Y-89160283D02*
X161824232Y-89060283D01*
X161824232Y-89060283D02*
X161790899Y-88993616D01*
X161790899Y-88993616D02*
X161724232Y-88893616D01*
X161724232Y-88893616D02*
X161690899Y-88860283D01*
X160624231Y-83926950D02*
X160590898Y-83893616D01*
X160590898Y-83893616D02*
X160524231Y-83793616D01*
X160524231Y-83793616D02*
X160490898Y-83726950D01*
X160490898Y-83726950D02*
X160457565Y-83626950D01*
X160457565Y-83626950D02*
X160424231Y-83460283D01*
X160424231Y-83460283D02*
X160424231Y-83326950D01*
X160424231Y-83326950D02*
X160457565Y-83160283D01*
X160457565Y-83160283D02*
X160490898Y-83060283D01*
X160490898Y-83060283D02*
X160524231Y-82993616D01*
X160524231Y-82993616D02*
X160590898Y-82893616D01*
X160590898Y-82893616D02*
X160624231Y-82860283D01*
X160890898Y-83393616D02*
X161424232Y-83393616D01*
X161157565Y-83660283D02*
X161157565Y-83126950D01*
X161690899Y-83926950D02*
X161724232Y-83893616D01*
X161724232Y-83893616D02*
X161790899Y-83793616D01*
X161790899Y-83793616D02*
X161824232Y-83726950D01*
X161824232Y-83726950D02*
X161857565Y-83626950D01*
X161857565Y-83626950D02*
X161890899Y-83460283D01*
X161890899Y-83460283D02*
X161890899Y-83326950D01*
X161890899Y-83326950D02*
X161857565Y-83160283D01*
X161857565Y-83160283D02*
X161824232Y-83060283D01*
X161824232Y-83060283D02*
X161790899Y-82993616D01*
X161790899Y-82993616D02*
X161724232Y-82893616D01*
X161724232Y-82893616D02*
X161690899Y-82860283D01*
X160624231Y-77926950D02*
X160590898Y-77893616D01*
X160590898Y-77893616D02*
X160524231Y-77793616D01*
X160524231Y-77793616D02*
X160490898Y-77726950D01*
X160490898Y-77726950D02*
X160457565Y-77626950D01*
X160457565Y-77626950D02*
X160424231Y-77460283D01*
X160424231Y-77460283D02*
X160424231Y-77326950D01*
X160424231Y-77326950D02*
X160457565Y-77160283D01*
X160457565Y-77160283D02*
X160490898Y-77060283D01*
X160490898Y-77060283D02*
X160524231Y-76993616D01*
X160524231Y-76993616D02*
X160590898Y-76893616D01*
X160590898Y-76893616D02*
X160624231Y-76860283D01*
X160890898Y-77393616D02*
X161424232Y-77393616D01*
X161157565Y-77660283D02*
X161157565Y-77126950D01*
X161690899Y-77926950D02*
X161724232Y-77893616D01*
X161724232Y-77893616D02*
X161790899Y-77793616D01*
X161790899Y-77793616D02*
X161824232Y-77726950D01*
X161824232Y-77726950D02*
X161857565Y-77626950D01*
X161857565Y-77626950D02*
X161890899Y-77460283D01*
X161890899Y-77460283D02*
X161890899Y-77326950D01*
X161890899Y-77326950D02*
X161857565Y-77160283D01*
X161857565Y-77160283D02*
X161824232Y-77060283D01*
X161824232Y-77060283D02*
X161790899Y-76993616D01*
X161790899Y-76993616D02*
X161724232Y-76893616D01*
X161724232Y-76893616D02*
X161690899Y-76860283D01*
X160624231Y-71926950D02*
X160590898Y-71893616D01*
X160590898Y-71893616D02*
X160524231Y-71793616D01*
X160524231Y-71793616D02*
X160490898Y-71726950D01*
X160490898Y-71726950D02*
X160457565Y-71626950D01*
X160457565Y-71626950D02*
X160424231Y-71460283D01*
X160424231Y-71460283D02*
X160424231Y-71326950D01*
X160424231Y-71326950D02*
X160457565Y-71160283D01*
X160457565Y-71160283D02*
X160490898Y-71060283D01*
X160490898Y-71060283D02*
X160524231Y-70993616D01*
X160524231Y-70993616D02*
X160590898Y-70893616D01*
X160590898Y-70893616D02*
X160624231Y-70860283D01*
X160890898Y-71393616D02*
X161424232Y-71393616D01*
X161157565Y-71660283D02*
X161157565Y-71126950D01*
X161690899Y-71926950D02*
X161724232Y-71893616D01*
X161724232Y-71893616D02*
X161790899Y-71793616D01*
X161790899Y-71793616D02*
X161824232Y-71726950D01*
X161824232Y-71726950D02*
X161857565Y-71626950D01*
X161857565Y-71626950D02*
X161890899Y-71460283D01*
X161890899Y-71460283D02*
X161890899Y-71326950D01*
X161890899Y-71326950D02*
X161857565Y-71160283D01*
X161857565Y-71160283D02*
X161824232Y-71060283D01*
X161824232Y-71060283D02*
X161790899Y-70993616D01*
X161790899Y-70993616D02*
X161724232Y-70893616D01*
X161724232Y-70893616D02*
X161690899Y-70860283D01*
X160624231Y-65926950D02*
X160590898Y-65893616D01*
X160590898Y-65893616D02*
X160524231Y-65793616D01*
X160524231Y-65793616D02*
X160490898Y-65726950D01*
X160490898Y-65726950D02*
X160457565Y-65626950D01*
X160457565Y-65626950D02*
X160424231Y-65460283D01*
X160424231Y-65460283D02*
X160424231Y-65326950D01*
X160424231Y-65326950D02*
X160457565Y-65160283D01*
X160457565Y-65160283D02*
X160490898Y-65060283D01*
X160490898Y-65060283D02*
X160524231Y-64993616D01*
X160524231Y-64993616D02*
X160590898Y-64893616D01*
X160590898Y-64893616D02*
X160624231Y-64860283D01*
X160890898Y-65393616D02*
X161424232Y-65393616D01*
X161157565Y-65660283D02*
X161157565Y-65126950D01*
X161690899Y-65926950D02*
X161724232Y-65893616D01*
X161724232Y-65893616D02*
X161790899Y-65793616D01*
X161790899Y-65793616D02*
X161824232Y-65726950D01*
X161824232Y-65726950D02*
X161857565Y-65626950D01*
X161857565Y-65626950D02*
X161890899Y-65460283D01*
X161890899Y-65460283D02*
X161890899Y-65326950D01*
X161890899Y-65326950D02*
X161857565Y-65160283D01*
X161857565Y-65160283D02*
X161824232Y-65060283D01*
X161824232Y-65060283D02*
X161790899Y-64993616D01*
X161790899Y-64993616D02*
X161724232Y-64893616D01*
X161724232Y-64893616D02*
X161690899Y-64860283D01*
X160624231Y-59926950D02*
X160590898Y-59893616D01*
X160590898Y-59893616D02*
X160524231Y-59793616D01*
X160524231Y-59793616D02*
X160490898Y-59726950D01*
X160490898Y-59726950D02*
X160457565Y-59626950D01*
X160457565Y-59626950D02*
X160424231Y-59460283D01*
X160424231Y-59460283D02*
X160424231Y-59326950D01*
X160424231Y-59326950D02*
X160457565Y-59160283D01*
X160457565Y-59160283D02*
X160490898Y-59060283D01*
X160490898Y-59060283D02*
X160524231Y-58993616D01*
X160524231Y-58993616D02*
X160590898Y-58893616D01*
X160590898Y-58893616D02*
X160624231Y-58860283D01*
X160890898Y-59393616D02*
X161424232Y-59393616D01*
X161157565Y-59660283D02*
X161157565Y-59126950D01*
X161690899Y-59926950D02*
X161724232Y-59893616D01*
X161724232Y-59893616D02*
X161790899Y-59793616D01*
X161790899Y-59793616D02*
X161824232Y-59726950D01*
X161824232Y-59726950D02*
X161857565Y-59626950D01*
X161857565Y-59626950D02*
X161890899Y-59460283D01*
X161890899Y-59460283D02*
X161890899Y-59326950D01*
X161890899Y-59326950D02*
X161857565Y-59160283D01*
X161857565Y-59160283D02*
X161824232Y-59060283D01*
X161824232Y-59060283D02*
X161790899Y-58993616D01*
X161790899Y-58993616D02*
X161724232Y-58893616D01*
X161724232Y-58893616D02*
X161690899Y-58860283D01*
X160624231Y-53926950D02*
X160590898Y-53893616D01*
X160590898Y-53893616D02*
X160524231Y-53793616D01*
X160524231Y-53793616D02*
X160490898Y-53726950D01*
X160490898Y-53726950D02*
X160457565Y-53626950D01*
X160457565Y-53626950D02*
X160424231Y-53460283D01*
X160424231Y-53460283D02*
X160424231Y-53326950D01*
X160424231Y-53326950D02*
X160457565Y-53160283D01*
X160457565Y-53160283D02*
X160490898Y-53060283D01*
X160490898Y-53060283D02*
X160524231Y-52993616D01*
X160524231Y-52993616D02*
X160590898Y-52893616D01*
X160590898Y-52893616D02*
X160624231Y-52860283D01*
X160890898Y-53393616D02*
X161424232Y-53393616D01*
X161157565Y-53660283D02*
X161157565Y-53126950D01*
X161690899Y-53926950D02*
X161724232Y-53893616D01*
X161724232Y-53893616D02*
X161790899Y-53793616D01*
X161790899Y-53793616D02*
X161824232Y-53726950D01*
X161824232Y-53726950D02*
X161857565Y-53626950D01*
X161857565Y-53626950D02*
X161890899Y-53460283D01*
X161890899Y-53460283D02*
X161890899Y-53326950D01*
X161890899Y-53326950D02*
X161857565Y-53160283D01*
X161857565Y-53160283D02*
X161824232Y-53060283D01*
X161824232Y-53060283D02*
X161790899Y-52993616D01*
X161790899Y-52993616D02*
X161724232Y-52893616D01*
X161724232Y-52893616D02*
X161690899Y-52860283D01*
X160624231Y-47926950D02*
X160590898Y-47893616D01*
X160590898Y-47893616D02*
X160524231Y-47793616D01*
X160524231Y-47793616D02*
X160490898Y-47726950D01*
X160490898Y-47726950D02*
X160457565Y-47626950D01*
X160457565Y-47626950D02*
X160424231Y-47460283D01*
X160424231Y-47460283D02*
X160424231Y-47326950D01*
X160424231Y-47326950D02*
X160457565Y-47160283D01*
X160457565Y-47160283D02*
X160490898Y-47060283D01*
X160490898Y-47060283D02*
X160524231Y-46993616D01*
X160524231Y-46993616D02*
X160590898Y-46893616D01*
X160590898Y-46893616D02*
X160624231Y-46860283D01*
X160890898Y-47393616D02*
X161424232Y-47393616D01*
X161157565Y-47660283D02*
X161157565Y-47126950D01*
X161690899Y-47926950D02*
X161724232Y-47893616D01*
X161724232Y-47893616D02*
X161790899Y-47793616D01*
X161790899Y-47793616D02*
X161824232Y-47726950D01*
X161824232Y-47726950D02*
X161857565Y-47626950D01*
X161857565Y-47626950D02*
X161890899Y-47460283D01*
X161890899Y-47460283D02*
X161890899Y-47326950D01*
X161890899Y-47326950D02*
X161857565Y-47160283D01*
X161857565Y-47160283D02*
X161824232Y-47060283D01*
X161824232Y-47060283D02*
X161790899Y-46993616D01*
X161790899Y-46993616D02*
X161724232Y-46893616D01*
X161724232Y-46893616D02*
X161690899Y-46860283D01*
X160624231Y-41926950D02*
X160590898Y-41893616D01*
X160590898Y-41893616D02*
X160524231Y-41793616D01*
X160524231Y-41793616D02*
X160490898Y-41726950D01*
X160490898Y-41726950D02*
X160457565Y-41626950D01*
X160457565Y-41626950D02*
X160424231Y-41460283D01*
X160424231Y-41460283D02*
X160424231Y-41326950D01*
X160424231Y-41326950D02*
X160457565Y-41160283D01*
X160457565Y-41160283D02*
X160490898Y-41060283D01*
X160490898Y-41060283D02*
X160524231Y-40993616D01*
X160524231Y-40993616D02*
X160590898Y-40893616D01*
X160590898Y-40893616D02*
X160624231Y-40860283D01*
X160890898Y-41393616D02*
X161424232Y-41393616D01*
X161157565Y-41660283D02*
X161157565Y-41126950D01*
X161690899Y-41926950D02*
X161724232Y-41893616D01*
X161724232Y-41893616D02*
X161790899Y-41793616D01*
X161790899Y-41793616D02*
X161824232Y-41726950D01*
X161824232Y-41726950D02*
X161857565Y-41626950D01*
X161857565Y-41626950D02*
X161890899Y-41460283D01*
X161890899Y-41460283D02*
X161890899Y-41326950D01*
X161890899Y-41326950D02*
X161857565Y-41160283D01*
X161857565Y-41160283D02*
X161824232Y-41060283D01*
X161824232Y-41060283D02*
X161790899Y-40993616D01*
X161790899Y-40993616D02*
X161724232Y-40893616D01*
X161724232Y-40893616D02*
X161690899Y-40860283D01*
X160624231Y-35926950D02*
X160590898Y-35893616D01*
X160590898Y-35893616D02*
X160524231Y-35793616D01*
X160524231Y-35793616D02*
X160490898Y-35726950D01*
X160490898Y-35726950D02*
X160457565Y-35626950D01*
X160457565Y-35626950D02*
X160424231Y-35460283D01*
X160424231Y-35460283D02*
X160424231Y-35326950D01*
X160424231Y-35326950D02*
X160457565Y-35160283D01*
X160457565Y-35160283D02*
X160490898Y-35060283D01*
X160490898Y-35060283D02*
X160524231Y-34993616D01*
X160524231Y-34993616D02*
X160590898Y-34893616D01*
X160590898Y-34893616D02*
X160624231Y-34860283D01*
X160890898Y-35393616D02*
X161424232Y-35393616D01*
X161157565Y-35660283D02*
X161157565Y-35126950D01*
X161690899Y-35926950D02*
X161724232Y-35893616D01*
X161724232Y-35893616D02*
X161790899Y-35793616D01*
X161790899Y-35793616D02*
X161824232Y-35726950D01*
X161824232Y-35726950D02*
X161857565Y-35626950D01*
X161857565Y-35626950D02*
X161890899Y-35460283D01*
X161890899Y-35460283D02*
X161890899Y-35326950D01*
X161890899Y-35326950D02*
X161857565Y-35160283D01*
X161857565Y-35160283D02*
X161824232Y-35060283D01*
X161824232Y-35060283D02*
X161790899Y-34993616D01*
X161790899Y-34993616D02*
X161724232Y-34893616D01*
X161724232Y-34893616D02*
X161690899Y-34860283D01*
X160624231Y-29926950D02*
X160590898Y-29893616D01*
X160590898Y-29893616D02*
X160524231Y-29793616D01*
X160524231Y-29793616D02*
X160490898Y-29726950D01*
X160490898Y-29726950D02*
X160457565Y-29626950D01*
X160457565Y-29626950D02*
X160424231Y-29460283D01*
X160424231Y-29460283D02*
X160424231Y-29326950D01*
X160424231Y-29326950D02*
X160457565Y-29160283D01*
X160457565Y-29160283D02*
X160490898Y-29060283D01*
X160490898Y-29060283D02*
X160524231Y-28993616D01*
X160524231Y-28993616D02*
X160590898Y-28893616D01*
X160590898Y-28893616D02*
X160624231Y-28860283D01*
X160890898Y-29393616D02*
X161424232Y-29393616D01*
X161157565Y-29660283D02*
X161157565Y-29126950D01*
X161690899Y-29926950D02*
X161724232Y-29893616D01*
X161724232Y-29893616D02*
X161790899Y-29793616D01*
X161790899Y-29793616D02*
X161824232Y-29726950D01*
X161824232Y-29726950D02*
X161857565Y-29626950D01*
X161857565Y-29626950D02*
X161890899Y-29460283D01*
X161890899Y-29460283D02*
X161890899Y-29326950D01*
X161890899Y-29326950D02*
X161857565Y-29160283D01*
X161857565Y-29160283D02*
X161824232Y-29060283D01*
X161824232Y-29060283D02*
X161790899Y-28993616D01*
X161790899Y-28993616D02*
X161724232Y-28893616D01*
X161724232Y-28893616D02*
X161690899Y-28860283D01*
X146624231Y-107926950D02*
X146590898Y-107893616D01*
X146590898Y-107893616D02*
X146524231Y-107793616D01*
X146524231Y-107793616D02*
X146490898Y-107726950D01*
X146490898Y-107726950D02*
X146457565Y-107626950D01*
X146457565Y-107626950D02*
X146424231Y-107460283D01*
X146424231Y-107460283D02*
X146424231Y-107326950D01*
X146424231Y-107326950D02*
X146457565Y-107160283D01*
X146457565Y-107160283D02*
X146490898Y-107060283D01*
X146490898Y-107060283D02*
X146524231Y-106993616D01*
X146524231Y-106993616D02*
X146590898Y-106893616D01*
X146590898Y-106893616D02*
X146624231Y-106860283D01*
X146890898Y-107393616D02*
X147424232Y-107393616D01*
X147157565Y-107660283D02*
X147157565Y-107126950D01*
X147690899Y-107926950D02*
X147724232Y-107893616D01*
X147724232Y-107893616D02*
X147790899Y-107793616D01*
X147790899Y-107793616D02*
X147824232Y-107726950D01*
X147824232Y-107726950D02*
X147857565Y-107626950D01*
X147857565Y-107626950D02*
X147890899Y-107460283D01*
X147890899Y-107460283D02*
X147890899Y-107326950D01*
X147890899Y-107326950D02*
X147857565Y-107160283D01*
X147857565Y-107160283D02*
X147824232Y-107060283D01*
X147824232Y-107060283D02*
X147790899Y-106993616D01*
X147790899Y-106993616D02*
X147724232Y-106893616D01*
X147724232Y-106893616D02*
X147690899Y-106860283D01*
X146624231Y-101926950D02*
X146590898Y-101893616D01*
X146590898Y-101893616D02*
X146524231Y-101793616D01*
X146524231Y-101793616D02*
X146490898Y-101726950D01*
X146490898Y-101726950D02*
X146457565Y-101626950D01*
X146457565Y-101626950D02*
X146424231Y-101460283D01*
X146424231Y-101460283D02*
X146424231Y-101326950D01*
X146424231Y-101326950D02*
X146457565Y-101160283D01*
X146457565Y-101160283D02*
X146490898Y-101060283D01*
X146490898Y-101060283D02*
X146524231Y-100993616D01*
X146524231Y-100993616D02*
X146590898Y-100893616D01*
X146590898Y-100893616D02*
X146624231Y-100860283D01*
X146890898Y-101393616D02*
X147424232Y-101393616D01*
X147157565Y-101660283D02*
X147157565Y-101126950D01*
X147690899Y-101926950D02*
X147724232Y-101893616D01*
X147724232Y-101893616D02*
X147790899Y-101793616D01*
X147790899Y-101793616D02*
X147824232Y-101726950D01*
X147824232Y-101726950D02*
X147857565Y-101626950D01*
X147857565Y-101626950D02*
X147890899Y-101460283D01*
X147890899Y-101460283D02*
X147890899Y-101326950D01*
X147890899Y-101326950D02*
X147857565Y-101160283D01*
X147857565Y-101160283D02*
X147824232Y-101060283D01*
X147824232Y-101060283D02*
X147790899Y-100993616D01*
X147790899Y-100993616D02*
X147724232Y-100893616D01*
X147724232Y-100893616D02*
X147690899Y-100860283D01*
X146624231Y-95926950D02*
X146590898Y-95893616D01*
X146590898Y-95893616D02*
X146524231Y-95793616D01*
X146524231Y-95793616D02*
X146490898Y-95726950D01*
X146490898Y-95726950D02*
X146457565Y-95626950D01*
X146457565Y-95626950D02*
X146424231Y-95460283D01*
X146424231Y-95460283D02*
X146424231Y-95326950D01*
X146424231Y-95326950D02*
X146457565Y-95160283D01*
X146457565Y-95160283D02*
X146490898Y-95060283D01*
X146490898Y-95060283D02*
X146524231Y-94993616D01*
X146524231Y-94993616D02*
X146590898Y-94893616D01*
X146590898Y-94893616D02*
X146624231Y-94860283D01*
X146890898Y-95393616D02*
X147424232Y-95393616D01*
X147157565Y-95660283D02*
X147157565Y-95126950D01*
X147690899Y-95926950D02*
X147724232Y-95893616D01*
X147724232Y-95893616D02*
X147790899Y-95793616D01*
X147790899Y-95793616D02*
X147824232Y-95726950D01*
X147824232Y-95726950D02*
X147857565Y-95626950D01*
X147857565Y-95626950D02*
X147890899Y-95460283D01*
X147890899Y-95460283D02*
X147890899Y-95326950D01*
X147890899Y-95326950D02*
X147857565Y-95160283D01*
X147857565Y-95160283D02*
X147824232Y-95060283D01*
X147824232Y-95060283D02*
X147790899Y-94993616D01*
X147790899Y-94993616D02*
X147724232Y-94893616D01*
X147724232Y-94893616D02*
X147690899Y-94860283D01*
X146624231Y-89926950D02*
X146590898Y-89893616D01*
X146590898Y-89893616D02*
X146524231Y-89793616D01*
X146524231Y-89793616D02*
X146490898Y-89726950D01*
X146490898Y-89726950D02*
X146457565Y-89626950D01*
X146457565Y-89626950D02*
X146424231Y-89460283D01*
X146424231Y-89460283D02*
X146424231Y-89326950D01*
X146424231Y-89326950D02*
X146457565Y-89160283D01*
X146457565Y-89160283D02*
X146490898Y-89060283D01*
X146490898Y-89060283D02*
X146524231Y-88993616D01*
X146524231Y-88993616D02*
X146590898Y-88893616D01*
X146590898Y-88893616D02*
X146624231Y-88860283D01*
X146890898Y-89393616D02*
X147424232Y-89393616D01*
X147157565Y-89660283D02*
X147157565Y-89126950D01*
X147690899Y-89926950D02*
X147724232Y-89893616D01*
X147724232Y-89893616D02*
X147790899Y-89793616D01*
X147790899Y-89793616D02*
X147824232Y-89726950D01*
X147824232Y-89726950D02*
X147857565Y-89626950D01*
X147857565Y-89626950D02*
X147890899Y-89460283D01*
X147890899Y-89460283D02*
X147890899Y-89326950D01*
X147890899Y-89326950D02*
X147857565Y-89160283D01*
X147857565Y-89160283D02*
X147824232Y-89060283D01*
X147824232Y-89060283D02*
X147790899Y-88993616D01*
X147790899Y-88993616D02*
X147724232Y-88893616D01*
X147724232Y-88893616D02*
X147690899Y-88860283D01*
X146624231Y-83926950D02*
X146590898Y-83893616D01*
X146590898Y-83893616D02*
X146524231Y-83793616D01*
X146524231Y-83793616D02*
X146490898Y-83726950D01*
X146490898Y-83726950D02*
X146457565Y-83626950D01*
X146457565Y-83626950D02*
X146424231Y-83460283D01*
X146424231Y-83460283D02*
X146424231Y-83326950D01*
X146424231Y-83326950D02*
X146457565Y-83160283D01*
X146457565Y-83160283D02*
X146490898Y-83060283D01*
X146490898Y-83060283D02*
X146524231Y-82993616D01*
X146524231Y-82993616D02*
X146590898Y-82893616D01*
X146590898Y-82893616D02*
X146624231Y-82860283D01*
X146890898Y-83393616D02*
X147424232Y-83393616D01*
X147157565Y-83660283D02*
X147157565Y-83126950D01*
X147690899Y-83926950D02*
X147724232Y-83893616D01*
X147724232Y-83893616D02*
X147790899Y-83793616D01*
X147790899Y-83793616D02*
X147824232Y-83726950D01*
X147824232Y-83726950D02*
X147857565Y-83626950D01*
X147857565Y-83626950D02*
X147890899Y-83460283D01*
X147890899Y-83460283D02*
X147890899Y-83326950D01*
X147890899Y-83326950D02*
X147857565Y-83160283D01*
X147857565Y-83160283D02*
X147824232Y-83060283D01*
X147824232Y-83060283D02*
X147790899Y-82993616D01*
X147790899Y-82993616D02*
X147724232Y-82893616D01*
X147724232Y-82893616D02*
X147690899Y-82860283D01*
X146624231Y-77926950D02*
X146590898Y-77893616D01*
X146590898Y-77893616D02*
X146524231Y-77793616D01*
X146524231Y-77793616D02*
X146490898Y-77726950D01*
X146490898Y-77726950D02*
X146457565Y-77626950D01*
X146457565Y-77626950D02*
X146424231Y-77460283D01*
X146424231Y-77460283D02*
X146424231Y-77326950D01*
X146424231Y-77326950D02*
X146457565Y-77160283D01*
X146457565Y-77160283D02*
X146490898Y-77060283D01*
X146490898Y-77060283D02*
X146524231Y-76993616D01*
X146524231Y-76993616D02*
X146590898Y-76893616D01*
X146590898Y-76893616D02*
X146624231Y-76860283D01*
X146890898Y-77393616D02*
X147424232Y-77393616D01*
X147157565Y-77660283D02*
X147157565Y-77126950D01*
X147690899Y-77926950D02*
X147724232Y-77893616D01*
X147724232Y-77893616D02*
X147790899Y-77793616D01*
X147790899Y-77793616D02*
X147824232Y-77726950D01*
X147824232Y-77726950D02*
X147857565Y-77626950D01*
X147857565Y-77626950D02*
X147890899Y-77460283D01*
X147890899Y-77460283D02*
X147890899Y-77326950D01*
X147890899Y-77326950D02*
X147857565Y-77160283D01*
X147857565Y-77160283D02*
X147824232Y-77060283D01*
X147824232Y-77060283D02*
X147790899Y-76993616D01*
X147790899Y-76993616D02*
X147724232Y-76893616D01*
X147724232Y-76893616D02*
X147690899Y-76860283D01*
X146624231Y-71926950D02*
X146590898Y-71893616D01*
X146590898Y-71893616D02*
X146524231Y-71793616D01*
X146524231Y-71793616D02*
X146490898Y-71726950D01*
X146490898Y-71726950D02*
X146457565Y-71626950D01*
X146457565Y-71626950D02*
X146424231Y-71460283D01*
X146424231Y-71460283D02*
X146424231Y-71326950D01*
X146424231Y-71326950D02*
X146457565Y-71160283D01*
X146457565Y-71160283D02*
X146490898Y-71060283D01*
X146490898Y-71060283D02*
X146524231Y-70993616D01*
X146524231Y-70993616D02*
X146590898Y-70893616D01*
X146590898Y-70893616D02*
X146624231Y-70860283D01*
X146890898Y-71393616D02*
X147424232Y-71393616D01*
X147157565Y-71660283D02*
X147157565Y-71126950D01*
X147690899Y-71926950D02*
X147724232Y-71893616D01*
X147724232Y-71893616D02*
X147790899Y-71793616D01*
X147790899Y-71793616D02*
X147824232Y-71726950D01*
X147824232Y-71726950D02*
X147857565Y-71626950D01*
X147857565Y-71626950D02*
X147890899Y-71460283D01*
X147890899Y-71460283D02*
X147890899Y-71326950D01*
X147890899Y-71326950D02*
X147857565Y-71160283D01*
X147857565Y-71160283D02*
X147824232Y-71060283D01*
X147824232Y-71060283D02*
X147790899Y-70993616D01*
X147790899Y-70993616D02*
X147724232Y-70893616D01*
X147724232Y-70893616D02*
X147690899Y-70860283D01*
X146624231Y-65926950D02*
X146590898Y-65893616D01*
X146590898Y-65893616D02*
X146524231Y-65793616D01*
X146524231Y-65793616D02*
X146490898Y-65726950D01*
X146490898Y-65726950D02*
X146457565Y-65626950D01*
X146457565Y-65626950D02*
X146424231Y-65460283D01*
X146424231Y-65460283D02*
X146424231Y-65326950D01*
X146424231Y-65326950D02*
X146457565Y-65160283D01*
X146457565Y-65160283D02*
X146490898Y-65060283D01*
X146490898Y-65060283D02*
X146524231Y-64993616D01*
X146524231Y-64993616D02*
X146590898Y-64893616D01*
X146590898Y-64893616D02*
X146624231Y-64860283D01*
X146890898Y-65393616D02*
X147424232Y-65393616D01*
X147157565Y-65660283D02*
X147157565Y-65126950D01*
X147690899Y-65926950D02*
X147724232Y-65893616D01*
X147724232Y-65893616D02*
X147790899Y-65793616D01*
X147790899Y-65793616D02*
X147824232Y-65726950D01*
X147824232Y-65726950D02*
X147857565Y-65626950D01*
X147857565Y-65626950D02*
X147890899Y-65460283D01*
X147890899Y-65460283D02*
X147890899Y-65326950D01*
X147890899Y-65326950D02*
X147857565Y-65160283D01*
X147857565Y-65160283D02*
X147824232Y-65060283D01*
X147824232Y-65060283D02*
X147790899Y-64993616D01*
X147790899Y-64993616D02*
X147724232Y-64893616D01*
X147724232Y-64893616D02*
X147690899Y-64860283D01*
X146624231Y-59926950D02*
X146590898Y-59893616D01*
X146590898Y-59893616D02*
X146524231Y-59793616D01*
X146524231Y-59793616D02*
X146490898Y-59726950D01*
X146490898Y-59726950D02*
X146457565Y-59626950D01*
X146457565Y-59626950D02*
X146424231Y-59460283D01*
X146424231Y-59460283D02*
X146424231Y-59326950D01*
X146424231Y-59326950D02*
X146457565Y-59160283D01*
X146457565Y-59160283D02*
X146490898Y-59060283D01*
X146490898Y-59060283D02*
X146524231Y-58993616D01*
X146524231Y-58993616D02*
X146590898Y-58893616D01*
X146590898Y-58893616D02*
X146624231Y-58860283D01*
X146890898Y-59393616D02*
X147424232Y-59393616D01*
X147157565Y-59660283D02*
X147157565Y-59126950D01*
X147690899Y-59926950D02*
X147724232Y-59893616D01*
X147724232Y-59893616D02*
X147790899Y-59793616D01*
X147790899Y-59793616D02*
X147824232Y-59726950D01*
X147824232Y-59726950D02*
X147857565Y-59626950D01*
X147857565Y-59626950D02*
X147890899Y-59460283D01*
X147890899Y-59460283D02*
X147890899Y-59326950D01*
X147890899Y-59326950D02*
X147857565Y-59160283D01*
X147857565Y-59160283D02*
X147824232Y-59060283D01*
X147824232Y-59060283D02*
X147790899Y-58993616D01*
X147790899Y-58993616D02*
X147724232Y-58893616D01*
X147724232Y-58893616D02*
X147690899Y-58860283D01*
X146624231Y-53926950D02*
X146590898Y-53893616D01*
X146590898Y-53893616D02*
X146524231Y-53793616D01*
X146524231Y-53793616D02*
X146490898Y-53726950D01*
X146490898Y-53726950D02*
X146457565Y-53626950D01*
X146457565Y-53626950D02*
X146424231Y-53460283D01*
X146424231Y-53460283D02*
X146424231Y-53326950D01*
X146424231Y-53326950D02*
X146457565Y-53160283D01*
X146457565Y-53160283D02*
X146490898Y-53060283D01*
X146490898Y-53060283D02*
X146524231Y-52993616D01*
X146524231Y-52993616D02*
X146590898Y-52893616D01*
X146590898Y-52893616D02*
X146624231Y-52860283D01*
X146890898Y-53393616D02*
X147424232Y-53393616D01*
X147157565Y-53660283D02*
X147157565Y-53126950D01*
X147690899Y-53926950D02*
X147724232Y-53893616D01*
X147724232Y-53893616D02*
X147790899Y-53793616D01*
X147790899Y-53793616D02*
X147824232Y-53726950D01*
X147824232Y-53726950D02*
X147857565Y-53626950D01*
X147857565Y-53626950D02*
X147890899Y-53460283D01*
X147890899Y-53460283D02*
X147890899Y-53326950D01*
X147890899Y-53326950D02*
X147857565Y-53160283D01*
X147857565Y-53160283D02*
X147824232Y-53060283D01*
X147824232Y-53060283D02*
X147790899Y-52993616D01*
X147790899Y-52993616D02*
X147724232Y-52893616D01*
X147724232Y-52893616D02*
X147690899Y-52860283D01*
X146624231Y-47926950D02*
X146590898Y-47893616D01*
X146590898Y-47893616D02*
X146524231Y-47793616D01*
X146524231Y-47793616D02*
X146490898Y-47726950D01*
X146490898Y-47726950D02*
X146457565Y-47626950D01*
X146457565Y-47626950D02*
X146424231Y-47460283D01*
X146424231Y-47460283D02*
X146424231Y-47326950D01*
X146424231Y-47326950D02*
X146457565Y-47160283D01*
X146457565Y-47160283D02*
X146490898Y-47060283D01*
X146490898Y-47060283D02*
X146524231Y-46993616D01*
X146524231Y-46993616D02*
X146590898Y-46893616D01*
X146590898Y-46893616D02*
X146624231Y-46860283D01*
X146890898Y-47393616D02*
X147424232Y-47393616D01*
X147157565Y-47660283D02*
X147157565Y-47126950D01*
X147690899Y-47926950D02*
X147724232Y-47893616D01*
X147724232Y-47893616D02*
X147790899Y-47793616D01*
X147790899Y-47793616D02*
X147824232Y-47726950D01*
X147824232Y-47726950D02*
X147857565Y-47626950D01*
X147857565Y-47626950D02*
X147890899Y-47460283D01*
X147890899Y-47460283D02*
X147890899Y-47326950D01*
X147890899Y-47326950D02*
X147857565Y-47160283D01*
X147857565Y-47160283D02*
X147824232Y-47060283D01*
X147824232Y-47060283D02*
X147790899Y-46993616D01*
X147790899Y-46993616D02*
X147724232Y-46893616D01*
X147724232Y-46893616D02*
X147690899Y-46860283D01*
X146624231Y-41926950D02*
X146590898Y-41893616D01*
X146590898Y-41893616D02*
X146524231Y-41793616D01*
X146524231Y-41793616D02*
X146490898Y-41726950D01*
X146490898Y-41726950D02*
X146457565Y-41626950D01*
X146457565Y-41626950D02*
X146424231Y-41460283D01*
X146424231Y-41460283D02*
X146424231Y-41326950D01*
X146424231Y-41326950D02*
X146457565Y-41160283D01*
X146457565Y-41160283D02*
X146490898Y-41060283D01*
X146490898Y-41060283D02*
X146524231Y-40993616D01*
X146524231Y-40993616D02*
X146590898Y-40893616D01*
X146590898Y-40893616D02*
X146624231Y-40860283D01*
X146890898Y-41393616D02*
X147424232Y-41393616D01*
X147157565Y-41660283D02*
X147157565Y-41126950D01*
X147690899Y-41926950D02*
X147724232Y-41893616D01*
X147724232Y-41893616D02*
X147790899Y-41793616D01*
X147790899Y-41793616D02*
X147824232Y-41726950D01*
X147824232Y-41726950D02*
X147857565Y-41626950D01*
X147857565Y-41626950D02*
X147890899Y-41460283D01*
X147890899Y-41460283D02*
X147890899Y-41326950D01*
X147890899Y-41326950D02*
X147857565Y-41160283D01*
X147857565Y-41160283D02*
X147824232Y-41060283D01*
X147824232Y-41060283D02*
X147790899Y-40993616D01*
X147790899Y-40993616D02*
X147724232Y-40893616D01*
X147724232Y-40893616D02*
X147690899Y-40860283D01*
X146624231Y-35926950D02*
X146590898Y-35893616D01*
X146590898Y-35893616D02*
X146524231Y-35793616D01*
X146524231Y-35793616D02*
X146490898Y-35726950D01*
X146490898Y-35726950D02*
X146457565Y-35626950D01*
X146457565Y-35626950D02*
X146424231Y-35460283D01*
X146424231Y-35460283D02*
X146424231Y-35326950D01*
X146424231Y-35326950D02*
X146457565Y-35160283D01*
X146457565Y-35160283D02*
X146490898Y-35060283D01*
X146490898Y-35060283D02*
X146524231Y-34993616D01*
X146524231Y-34993616D02*
X146590898Y-34893616D01*
X146590898Y-34893616D02*
X146624231Y-34860283D01*
X146890898Y-35393616D02*
X147424232Y-35393616D01*
X147157565Y-35660283D02*
X147157565Y-35126950D01*
X147690899Y-35926950D02*
X147724232Y-35893616D01*
X147724232Y-35893616D02*
X147790899Y-35793616D01*
X147790899Y-35793616D02*
X147824232Y-35726950D01*
X147824232Y-35726950D02*
X147857565Y-35626950D01*
X147857565Y-35626950D02*
X147890899Y-35460283D01*
X147890899Y-35460283D02*
X147890899Y-35326950D01*
X147890899Y-35326950D02*
X147857565Y-35160283D01*
X147857565Y-35160283D02*
X147824232Y-35060283D01*
X147824232Y-35060283D02*
X147790899Y-34993616D01*
X147790899Y-34993616D02*
X147724232Y-34893616D01*
X147724232Y-34893616D02*
X147690899Y-34860283D01*
X146624231Y-29926950D02*
X146590898Y-29893616D01*
X146590898Y-29893616D02*
X146524231Y-29793616D01*
X146524231Y-29793616D02*
X146490898Y-29726950D01*
X146490898Y-29726950D02*
X146457565Y-29626950D01*
X146457565Y-29626950D02*
X146424231Y-29460283D01*
X146424231Y-29460283D02*
X146424231Y-29326950D01*
X146424231Y-29326950D02*
X146457565Y-29160283D01*
X146457565Y-29160283D02*
X146490898Y-29060283D01*
X146490898Y-29060283D02*
X146524231Y-28993616D01*
X146524231Y-28993616D02*
X146590898Y-28893616D01*
X146590898Y-28893616D02*
X146624231Y-28860283D01*
X146890898Y-29393616D02*
X147424232Y-29393616D01*
X147157565Y-29660283D02*
X147157565Y-29126950D01*
X147690899Y-29926950D02*
X147724232Y-29893616D01*
X147724232Y-29893616D02*
X147790899Y-29793616D01*
X147790899Y-29793616D02*
X147824232Y-29726950D01*
X147824232Y-29726950D02*
X147857565Y-29626950D01*
X147857565Y-29626950D02*
X147890899Y-29460283D01*
X147890899Y-29460283D02*
X147890899Y-29326950D01*
X147890899Y-29326950D02*
X147857565Y-29160283D01*
X147857565Y-29160283D02*
X147824232Y-29060283D01*
X147824232Y-29060283D02*
X147790899Y-28993616D01*
X147790899Y-28993616D02*
X147724232Y-28893616D01*
X147724232Y-28893616D02*
X147690899Y-28860283D01*
X132624231Y-107926950D02*
X132590898Y-107893616D01*
X132590898Y-107893616D02*
X132524231Y-107793616D01*
X132524231Y-107793616D02*
X132490898Y-107726950D01*
X132490898Y-107726950D02*
X132457565Y-107626950D01*
X132457565Y-107626950D02*
X132424231Y-107460283D01*
X132424231Y-107460283D02*
X132424231Y-107326950D01*
X132424231Y-107326950D02*
X132457565Y-107160283D01*
X132457565Y-107160283D02*
X132490898Y-107060283D01*
X132490898Y-107060283D02*
X132524231Y-106993616D01*
X132524231Y-106993616D02*
X132590898Y-106893616D01*
X132590898Y-106893616D02*
X132624231Y-106860283D01*
X132890898Y-107393616D02*
X133424232Y-107393616D01*
X133157565Y-107660283D02*
X133157565Y-107126950D01*
X133690899Y-107926950D02*
X133724232Y-107893616D01*
X133724232Y-107893616D02*
X133790899Y-107793616D01*
X133790899Y-107793616D02*
X133824232Y-107726950D01*
X133824232Y-107726950D02*
X133857565Y-107626950D01*
X133857565Y-107626950D02*
X133890899Y-107460283D01*
X133890899Y-107460283D02*
X133890899Y-107326950D01*
X133890899Y-107326950D02*
X133857565Y-107160283D01*
X133857565Y-107160283D02*
X133824232Y-107060283D01*
X133824232Y-107060283D02*
X133790899Y-106993616D01*
X133790899Y-106993616D02*
X133724232Y-106893616D01*
X133724232Y-106893616D02*
X133690899Y-106860283D01*
X132624231Y-101926950D02*
X132590898Y-101893616D01*
X132590898Y-101893616D02*
X132524231Y-101793616D01*
X132524231Y-101793616D02*
X132490898Y-101726950D01*
X132490898Y-101726950D02*
X132457565Y-101626950D01*
X132457565Y-101626950D02*
X132424231Y-101460283D01*
X132424231Y-101460283D02*
X132424231Y-101326950D01*
X132424231Y-101326950D02*
X132457565Y-101160283D01*
X132457565Y-101160283D02*
X132490898Y-101060283D01*
X132490898Y-101060283D02*
X132524231Y-100993616D01*
X132524231Y-100993616D02*
X132590898Y-100893616D01*
X132590898Y-100893616D02*
X132624231Y-100860283D01*
X132890898Y-101393616D02*
X133424232Y-101393616D01*
X133157565Y-101660283D02*
X133157565Y-101126950D01*
X133690899Y-101926950D02*
X133724232Y-101893616D01*
X133724232Y-101893616D02*
X133790899Y-101793616D01*
X133790899Y-101793616D02*
X133824232Y-101726950D01*
X133824232Y-101726950D02*
X133857565Y-101626950D01*
X133857565Y-101626950D02*
X133890899Y-101460283D01*
X133890899Y-101460283D02*
X133890899Y-101326950D01*
X133890899Y-101326950D02*
X133857565Y-101160283D01*
X133857565Y-101160283D02*
X133824232Y-101060283D01*
X133824232Y-101060283D02*
X133790899Y-100993616D01*
X133790899Y-100993616D02*
X133724232Y-100893616D01*
X133724232Y-100893616D02*
X133690899Y-100860283D01*
X132624231Y-95926950D02*
X132590898Y-95893616D01*
X132590898Y-95893616D02*
X132524231Y-95793616D01*
X132524231Y-95793616D02*
X132490898Y-95726950D01*
X132490898Y-95726950D02*
X132457565Y-95626950D01*
X132457565Y-95626950D02*
X132424231Y-95460283D01*
X132424231Y-95460283D02*
X132424231Y-95326950D01*
X132424231Y-95326950D02*
X132457565Y-95160283D01*
X132457565Y-95160283D02*
X132490898Y-95060283D01*
X132490898Y-95060283D02*
X132524231Y-94993616D01*
X132524231Y-94993616D02*
X132590898Y-94893616D01*
X132590898Y-94893616D02*
X132624231Y-94860283D01*
X132890898Y-95393616D02*
X133424232Y-95393616D01*
X133157565Y-95660283D02*
X133157565Y-95126950D01*
X133690899Y-95926950D02*
X133724232Y-95893616D01*
X133724232Y-95893616D02*
X133790899Y-95793616D01*
X133790899Y-95793616D02*
X133824232Y-95726950D01*
X133824232Y-95726950D02*
X133857565Y-95626950D01*
X133857565Y-95626950D02*
X133890899Y-95460283D01*
X133890899Y-95460283D02*
X133890899Y-95326950D01*
X133890899Y-95326950D02*
X133857565Y-95160283D01*
X133857565Y-95160283D02*
X133824232Y-95060283D01*
X133824232Y-95060283D02*
X133790899Y-94993616D01*
X133790899Y-94993616D02*
X133724232Y-94893616D01*
X133724232Y-94893616D02*
X133690899Y-94860283D01*
X132624231Y-89926950D02*
X132590898Y-89893616D01*
X132590898Y-89893616D02*
X132524231Y-89793616D01*
X132524231Y-89793616D02*
X132490898Y-89726950D01*
X132490898Y-89726950D02*
X132457565Y-89626950D01*
X132457565Y-89626950D02*
X132424231Y-89460283D01*
X132424231Y-89460283D02*
X132424231Y-89326950D01*
X132424231Y-89326950D02*
X132457565Y-89160283D01*
X132457565Y-89160283D02*
X132490898Y-89060283D01*
X132490898Y-89060283D02*
X132524231Y-88993616D01*
X132524231Y-88993616D02*
X132590898Y-88893616D01*
X132590898Y-88893616D02*
X132624231Y-88860283D01*
X132890898Y-89393616D02*
X133424232Y-89393616D01*
X133157565Y-89660283D02*
X133157565Y-89126950D01*
X133690899Y-89926950D02*
X133724232Y-89893616D01*
X133724232Y-89893616D02*
X133790899Y-89793616D01*
X133790899Y-89793616D02*
X133824232Y-89726950D01*
X133824232Y-89726950D02*
X133857565Y-89626950D01*
X133857565Y-89626950D02*
X133890899Y-89460283D01*
X133890899Y-89460283D02*
X133890899Y-89326950D01*
X133890899Y-89326950D02*
X133857565Y-89160283D01*
X133857565Y-89160283D02*
X133824232Y-89060283D01*
X133824232Y-89060283D02*
X133790899Y-88993616D01*
X133790899Y-88993616D02*
X133724232Y-88893616D01*
X133724232Y-88893616D02*
X133690899Y-88860283D01*
X132624231Y-83926950D02*
X132590898Y-83893616D01*
X132590898Y-83893616D02*
X132524231Y-83793616D01*
X132524231Y-83793616D02*
X132490898Y-83726950D01*
X132490898Y-83726950D02*
X132457565Y-83626950D01*
X132457565Y-83626950D02*
X132424231Y-83460283D01*
X132424231Y-83460283D02*
X132424231Y-83326950D01*
X132424231Y-83326950D02*
X132457565Y-83160283D01*
X132457565Y-83160283D02*
X132490898Y-83060283D01*
X132490898Y-83060283D02*
X132524231Y-82993616D01*
X132524231Y-82993616D02*
X132590898Y-82893616D01*
X132590898Y-82893616D02*
X132624231Y-82860283D01*
X132890898Y-83393616D02*
X133424232Y-83393616D01*
X133157565Y-83660283D02*
X133157565Y-83126950D01*
X133690899Y-83926950D02*
X133724232Y-83893616D01*
X133724232Y-83893616D02*
X133790899Y-83793616D01*
X133790899Y-83793616D02*
X133824232Y-83726950D01*
X133824232Y-83726950D02*
X133857565Y-83626950D01*
X133857565Y-83626950D02*
X133890899Y-83460283D01*
X133890899Y-83460283D02*
X133890899Y-83326950D01*
X133890899Y-83326950D02*
X133857565Y-83160283D01*
X133857565Y-83160283D02*
X133824232Y-83060283D01*
X133824232Y-83060283D02*
X133790899Y-82993616D01*
X133790899Y-82993616D02*
X133724232Y-82893616D01*
X133724232Y-82893616D02*
X133690899Y-82860283D01*
X132624231Y-77926950D02*
X132590898Y-77893616D01*
X132590898Y-77893616D02*
X132524231Y-77793616D01*
X132524231Y-77793616D02*
X132490898Y-77726950D01*
X132490898Y-77726950D02*
X132457565Y-77626950D01*
X132457565Y-77626950D02*
X132424231Y-77460283D01*
X132424231Y-77460283D02*
X132424231Y-77326950D01*
X132424231Y-77326950D02*
X132457565Y-77160283D01*
X132457565Y-77160283D02*
X132490898Y-77060283D01*
X132490898Y-77060283D02*
X132524231Y-76993616D01*
X132524231Y-76993616D02*
X132590898Y-76893616D01*
X132590898Y-76893616D02*
X132624231Y-76860283D01*
X132890898Y-77393616D02*
X133424232Y-77393616D01*
X133157565Y-77660283D02*
X133157565Y-77126950D01*
X133690899Y-77926950D02*
X133724232Y-77893616D01*
X133724232Y-77893616D02*
X133790899Y-77793616D01*
X133790899Y-77793616D02*
X133824232Y-77726950D01*
X133824232Y-77726950D02*
X133857565Y-77626950D01*
X133857565Y-77626950D02*
X133890899Y-77460283D01*
X133890899Y-77460283D02*
X133890899Y-77326950D01*
X133890899Y-77326950D02*
X133857565Y-77160283D01*
X133857565Y-77160283D02*
X133824232Y-77060283D01*
X133824232Y-77060283D02*
X133790899Y-76993616D01*
X133790899Y-76993616D02*
X133724232Y-76893616D01*
X133724232Y-76893616D02*
X133690899Y-76860283D01*
X132624231Y-71926950D02*
X132590898Y-71893616D01*
X132590898Y-71893616D02*
X132524231Y-71793616D01*
X132524231Y-71793616D02*
X132490898Y-71726950D01*
X132490898Y-71726950D02*
X132457565Y-71626950D01*
X132457565Y-71626950D02*
X132424231Y-71460283D01*
X132424231Y-71460283D02*
X132424231Y-71326950D01*
X132424231Y-71326950D02*
X132457565Y-71160283D01*
X132457565Y-71160283D02*
X132490898Y-71060283D01*
X132490898Y-71060283D02*
X132524231Y-70993616D01*
X132524231Y-70993616D02*
X132590898Y-70893616D01*
X132590898Y-70893616D02*
X132624231Y-70860283D01*
X132890898Y-71393616D02*
X133424232Y-71393616D01*
X133157565Y-71660283D02*
X133157565Y-71126950D01*
X133690899Y-71926950D02*
X133724232Y-71893616D01*
X133724232Y-71893616D02*
X133790899Y-71793616D01*
X133790899Y-71793616D02*
X133824232Y-71726950D01*
X133824232Y-71726950D02*
X133857565Y-71626950D01*
X133857565Y-71626950D02*
X133890899Y-71460283D01*
X133890899Y-71460283D02*
X133890899Y-71326950D01*
X133890899Y-71326950D02*
X133857565Y-71160283D01*
X133857565Y-71160283D02*
X133824232Y-71060283D01*
X133824232Y-71060283D02*
X133790899Y-70993616D01*
X133790899Y-70993616D02*
X133724232Y-70893616D01*
X133724232Y-70893616D02*
X133690899Y-70860283D01*
X132624231Y-65926950D02*
X132590898Y-65893616D01*
X132590898Y-65893616D02*
X132524231Y-65793616D01*
X132524231Y-65793616D02*
X132490898Y-65726950D01*
X132490898Y-65726950D02*
X132457565Y-65626950D01*
X132457565Y-65626950D02*
X132424231Y-65460283D01*
X132424231Y-65460283D02*
X132424231Y-65326950D01*
X132424231Y-65326950D02*
X132457565Y-65160283D01*
X132457565Y-65160283D02*
X132490898Y-65060283D01*
X132490898Y-65060283D02*
X132524231Y-64993616D01*
X132524231Y-64993616D02*
X132590898Y-64893616D01*
X132590898Y-64893616D02*
X132624231Y-64860283D01*
X132890898Y-65393616D02*
X133424232Y-65393616D01*
X133157565Y-65660283D02*
X133157565Y-65126950D01*
X133690899Y-65926950D02*
X133724232Y-65893616D01*
X133724232Y-65893616D02*
X133790899Y-65793616D01*
X133790899Y-65793616D02*
X133824232Y-65726950D01*
X133824232Y-65726950D02*
X133857565Y-65626950D01*
X133857565Y-65626950D02*
X133890899Y-65460283D01*
X133890899Y-65460283D02*
X133890899Y-65326950D01*
X133890899Y-65326950D02*
X133857565Y-65160283D01*
X133857565Y-65160283D02*
X133824232Y-65060283D01*
X133824232Y-65060283D02*
X133790899Y-64993616D01*
X133790899Y-64993616D02*
X133724232Y-64893616D01*
X133724232Y-64893616D02*
X133690899Y-64860283D01*
X132624231Y-59926950D02*
X132590898Y-59893616D01*
X132590898Y-59893616D02*
X132524231Y-59793616D01*
X132524231Y-59793616D02*
X132490898Y-59726950D01*
X132490898Y-59726950D02*
X132457565Y-59626950D01*
X132457565Y-59626950D02*
X132424231Y-59460283D01*
X132424231Y-59460283D02*
X132424231Y-59326950D01*
X132424231Y-59326950D02*
X132457565Y-59160283D01*
X132457565Y-59160283D02*
X132490898Y-59060283D01*
X132490898Y-59060283D02*
X132524231Y-58993616D01*
X132524231Y-58993616D02*
X132590898Y-58893616D01*
X132590898Y-58893616D02*
X132624231Y-58860283D01*
X132890898Y-59393616D02*
X133424232Y-59393616D01*
X133157565Y-59660283D02*
X133157565Y-59126950D01*
X133690899Y-59926950D02*
X133724232Y-59893616D01*
X133724232Y-59893616D02*
X133790899Y-59793616D01*
X133790899Y-59793616D02*
X133824232Y-59726950D01*
X133824232Y-59726950D02*
X133857565Y-59626950D01*
X133857565Y-59626950D02*
X133890899Y-59460283D01*
X133890899Y-59460283D02*
X133890899Y-59326950D01*
X133890899Y-59326950D02*
X133857565Y-59160283D01*
X133857565Y-59160283D02*
X133824232Y-59060283D01*
X133824232Y-59060283D02*
X133790899Y-58993616D01*
X133790899Y-58993616D02*
X133724232Y-58893616D01*
X133724232Y-58893616D02*
X133690899Y-58860283D01*
X132624231Y-53926950D02*
X132590898Y-53893616D01*
X132590898Y-53893616D02*
X132524231Y-53793616D01*
X132524231Y-53793616D02*
X132490898Y-53726950D01*
X132490898Y-53726950D02*
X132457565Y-53626950D01*
X132457565Y-53626950D02*
X132424231Y-53460283D01*
X132424231Y-53460283D02*
X132424231Y-53326950D01*
X132424231Y-53326950D02*
X132457565Y-53160283D01*
X132457565Y-53160283D02*
X132490898Y-53060283D01*
X132490898Y-53060283D02*
X132524231Y-52993616D01*
X132524231Y-52993616D02*
X132590898Y-52893616D01*
X132590898Y-52893616D02*
X132624231Y-52860283D01*
X132890898Y-53393616D02*
X133424232Y-53393616D01*
X133157565Y-53660283D02*
X133157565Y-53126950D01*
X133690899Y-53926950D02*
X133724232Y-53893616D01*
X133724232Y-53893616D02*
X133790899Y-53793616D01*
X133790899Y-53793616D02*
X133824232Y-53726950D01*
X133824232Y-53726950D02*
X133857565Y-53626950D01*
X133857565Y-53626950D02*
X133890899Y-53460283D01*
X133890899Y-53460283D02*
X133890899Y-53326950D01*
X133890899Y-53326950D02*
X133857565Y-53160283D01*
X133857565Y-53160283D02*
X133824232Y-53060283D01*
X133824232Y-53060283D02*
X133790899Y-52993616D01*
X133790899Y-52993616D02*
X133724232Y-52893616D01*
X133724232Y-52893616D02*
X133690899Y-52860283D01*
X132624231Y-47926950D02*
X132590898Y-47893616D01*
X132590898Y-47893616D02*
X132524231Y-47793616D01*
X132524231Y-47793616D02*
X132490898Y-47726950D01*
X132490898Y-47726950D02*
X132457565Y-47626950D01*
X132457565Y-47626950D02*
X132424231Y-47460283D01*
X132424231Y-47460283D02*
X132424231Y-47326950D01*
X132424231Y-47326950D02*
X132457565Y-47160283D01*
X132457565Y-47160283D02*
X132490898Y-47060283D01*
X132490898Y-47060283D02*
X132524231Y-46993616D01*
X132524231Y-46993616D02*
X132590898Y-46893616D01*
X132590898Y-46893616D02*
X132624231Y-46860283D01*
X132890898Y-47393616D02*
X133424232Y-47393616D01*
X133157565Y-47660283D02*
X133157565Y-47126950D01*
X133690899Y-47926950D02*
X133724232Y-47893616D01*
X133724232Y-47893616D02*
X133790899Y-47793616D01*
X133790899Y-47793616D02*
X133824232Y-47726950D01*
X133824232Y-47726950D02*
X133857565Y-47626950D01*
X133857565Y-47626950D02*
X133890899Y-47460283D01*
X133890899Y-47460283D02*
X133890899Y-47326950D01*
X133890899Y-47326950D02*
X133857565Y-47160283D01*
X133857565Y-47160283D02*
X133824232Y-47060283D01*
X133824232Y-47060283D02*
X133790899Y-46993616D01*
X133790899Y-46993616D02*
X133724232Y-46893616D01*
X133724232Y-46893616D02*
X133690899Y-46860283D01*
X132624231Y-41926950D02*
X132590898Y-41893616D01*
X132590898Y-41893616D02*
X132524231Y-41793616D01*
X132524231Y-41793616D02*
X132490898Y-41726950D01*
X132490898Y-41726950D02*
X132457565Y-41626950D01*
X132457565Y-41626950D02*
X132424231Y-41460283D01*
X132424231Y-41460283D02*
X132424231Y-41326950D01*
X132424231Y-41326950D02*
X132457565Y-41160283D01*
X132457565Y-41160283D02*
X132490898Y-41060283D01*
X132490898Y-41060283D02*
X132524231Y-40993616D01*
X132524231Y-40993616D02*
X132590898Y-40893616D01*
X132590898Y-40893616D02*
X132624231Y-40860283D01*
X132890898Y-41393616D02*
X133424232Y-41393616D01*
X133157565Y-41660283D02*
X133157565Y-41126950D01*
X133690899Y-41926950D02*
X133724232Y-41893616D01*
X133724232Y-41893616D02*
X133790899Y-41793616D01*
X133790899Y-41793616D02*
X133824232Y-41726950D01*
X133824232Y-41726950D02*
X133857565Y-41626950D01*
X133857565Y-41626950D02*
X133890899Y-41460283D01*
X133890899Y-41460283D02*
X133890899Y-41326950D01*
X133890899Y-41326950D02*
X133857565Y-41160283D01*
X133857565Y-41160283D02*
X133824232Y-41060283D01*
X133824232Y-41060283D02*
X133790899Y-40993616D01*
X133790899Y-40993616D02*
X133724232Y-40893616D01*
X133724232Y-40893616D02*
X133690899Y-40860283D01*
X132624231Y-35926950D02*
X132590898Y-35893616D01*
X132590898Y-35893616D02*
X132524231Y-35793616D01*
X132524231Y-35793616D02*
X132490898Y-35726950D01*
X132490898Y-35726950D02*
X132457565Y-35626950D01*
X132457565Y-35626950D02*
X132424231Y-35460283D01*
X132424231Y-35460283D02*
X132424231Y-35326950D01*
X132424231Y-35326950D02*
X132457565Y-35160283D01*
X132457565Y-35160283D02*
X132490898Y-35060283D01*
X132490898Y-35060283D02*
X132524231Y-34993616D01*
X132524231Y-34993616D02*
X132590898Y-34893616D01*
X132590898Y-34893616D02*
X132624231Y-34860283D01*
X132890898Y-35393616D02*
X133424232Y-35393616D01*
X133157565Y-35660283D02*
X133157565Y-35126950D01*
X133690899Y-35926950D02*
X133724232Y-35893616D01*
X133724232Y-35893616D02*
X133790899Y-35793616D01*
X133790899Y-35793616D02*
X133824232Y-35726950D01*
X133824232Y-35726950D02*
X133857565Y-35626950D01*
X133857565Y-35626950D02*
X133890899Y-35460283D01*
X133890899Y-35460283D02*
X133890899Y-35326950D01*
X133890899Y-35326950D02*
X133857565Y-35160283D01*
X133857565Y-35160283D02*
X133824232Y-35060283D01*
X133824232Y-35060283D02*
X133790899Y-34993616D01*
X133790899Y-34993616D02*
X133724232Y-34893616D01*
X133724232Y-34893616D02*
X133690899Y-34860283D01*
X132624231Y-29926950D02*
X132590898Y-29893616D01*
X132590898Y-29893616D02*
X132524231Y-29793616D01*
X132524231Y-29793616D02*
X132490898Y-29726950D01*
X132490898Y-29726950D02*
X132457565Y-29626950D01*
X132457565Y-29626950D02*
X132424231Y-29460283D01*
X132424231Y-29460283D02*
X132424231Y-29326950D01*
X132424231Y-29326950D02*
X132457565Y-29160283D01*
X132457565Y-29160283D02*
X132490898Y-29060283D01*
X132490898Y-29060283D02*
X132524231Y-28993616D01*
X132524231Y-28993616D02*
X132590898Y-28893616D01*
X132590898Y-28893616D02*
X132624231Y-28860283D01*
X132890898Y-29393616D02*
X133424232Y-29393616D01*
X133157565Y-29660283D02*
X133157565Y-29126950D01*
X133690899Y-29926950D02*
X133724232Y-29893616D01*
X133724232Y-29893616D02*
X133790899Y-29793616D01*
X133790899Y-29793616D02*
X133824232Y-29726950D01*
X133824232Y-29726950D02*
X133857565Y-29626950D01*
X133857565Y-29626950D02*
X133890899Y-29460283D01*
X133890899Y-29460283D02*
X133890899Y-29326950D01*
X133890899Y-29326950D02*
X133857565Y-29160283D01*
X133857565Y-29160283D02*
X133824232Y-29060283D01*
X133824232Y-29060283D02*
X133790899Y-28993616D01*
X133790899Y-28993616D02*
X133724232Y-28893616D01*
X133724232Y-28893616D02*
X133690899Y-28860283D01*
X118624231Y-107926950D02*
X118590898Y-107893616D01*
X118590898Y-107893616D02*
X118524231Y-107793616D01*
X118524231Y-107793616D02*
X118490898Y-107726950D01*
X118490898Y-107726950D02*
X118457565Y-107626950D01*
X118457565Y-107626950D02*
X118424231Y-107460283D01*
X118424231Y-107460283D02*
X118424231Y-107326950D01*
X118424231Y-107326950D02*
X118457565Y-107160283D01*
X118457565Y-107160283D02*
X118490898Y-107060283D01*
X118490898Y-107060283D02*
X118524231Y-106993616D01*
X118524231Y-106993616D02*
X118590898Y-106893616D01*
X118590898Y-106893616D02*
X118624231Y-106860283D01*
X118890898Y-107393616D02*
X119424232Y-107393616D01*
X119157565Y-107660283D02*
X119157565Y-107126950D01*
X119690899Y-107926950D02*
X119724232Y-107893616D01*
X119724232Y-107893616D02*
X119790899Y-107793616D01*
X119790899Y-107793616D02*
X119824232Y-107726950D01*
X119824232Y-107726950D02*
X119857565Y-107626950D01*
X119857565Y-107626950D02*
X119890899Y-107460283D01*
X119890899Y-107460283D02*
X119890899Y-107326950D01*
X119890899Y-107326950D02*
X119857565Y-107160283D01*
X119857565Y-107160283D02*
X119824232Y-107060283D01*
X119824232Y-107060283D02*
X119790899Y-106993616D01*
X119790899Y-106993616D02*
X119724232Y-106893616D01*
X119724232Y-106893616D02*
X119690899Y-106860283D01*
X118624231Y-101926950D02*
X118590898Y-101893616D01*
X118590898Y-101893616D02*
X118524231Y-101793616D01*
X118524231Y-101793616D02*
X118490898Y-101726950D01*
X118490898Y-101726950D02*
X118457565Y-101626950D01*
X118457565Y-101626950D02*
X118424231Y-101460283D01*
X118424231Y-101460283D02*
X118424231Y-101326950D01*
X118424231Y-101326950D02*
X118457565Y-101160283D01*
X118457565Y-101160283D02*
X118490898Y-101060283D01*
X118490898Y-101060283D02*
X118524231Y-100993616D01*
X118524231Y-100993616D02*
X118590898Y-100893616D01*
X118590898Y-100893616D02*
X118624231Y-100860283D01*
X118890898Y-101393616D02*
X119424232Y-101393616D01*
X119157565Y-101660283D02*
X119157565Y-101126950D01*
X119690899Y-101926950D02*
X119724232Y-101893616D01*
X119724232Y-101893616D02*
X119790899Y-101793616D01*
X119790899Y-101793616D02*
X119824232Y-101726950D01*
X119824232Y-101726950D02*
X119857565Y-101626950D01*
X119857565Y-101626950D02*
X119890899Y-101460283D01*
X119890899Y-101460283D02*
X119890899Y-101326950D01*
X119890899Y-101326950D02*
X119857565Y-101160283D01*
X119857565Y-101160283D02*
X119824232Y-101060283D01*
X119824232Y-101060283D02*
X119790899Y-100993616D01*
X119790899Y-100993616D02*
X119724232Y-100893616D01*
X119724232Y-100893616D02*
X119690899Y-100860283D01*
X118624231Y-95926950D02*
X118590898Y-95893616D01*
X118590898Y-95893616D02*
X118524231Y-95793616D01*
X118524231Y-95793616D02*
X118490898Y-95726950D01*
X118490898Y-95726950D02*
X118457565Y-95626950D01*
X118457565Y-95626950D02*
X118424231Y-95460283D01*
X118424231Y-95460283D02*
X118424231Y-95326950D01*
X118424231Y-95326950D02*
X118457565Y-95160283D01*
X118457565Y-95160283D02*
X118490898Y-95060283D01*
X118490898Y-95060283D02*
X118524231Y-94993616D01*
X118524231Y-94993616D02*
X118590898Y-94893616D01*
X118590898Y-94893616D02*
X118624231Y-94860283D01*
X118890898Y-95393616D02*
X119424232Y-95393616D01*
X119157565Y-95660283D02*
X119157565Y-95126950D01*
X119690899Y-95926950D02*
X119724232Y-95893616D01*
X119724232Y-95893616D02*
X119790899Y-95793616D01*
X119790899Y-95793616D02*
X119824232Y-95726950D01*
X119824232Y-95726950D02*
X119857565Y-95626950D01*
X119857565Y-95626950D02*
X119890899Y-95460283D01*
X119890899Y-95460283D02*
X119890899Y-95326950D01*
X119890899Y-95326950D02*
X119857565Y-95160283D01*
X119857565Y-95160283D02*
X119824232Y-95060283D01*
X119824232Y-95060283D02*
X119790899Y-94993616D01*
X119790899Y-94993616D02*
X119724232Y-94893616D01*
X119724232Y-94893616D02*
X119690899Y-94860283D01*
X118624231Y-89926950D02*
X118590898Y-89893616D01*
X118590898Y-89893616D02*
X118524231Y-89793616D01*
X118524231Y-89793616D02*
X118490898Y-89726950D01*
X118490898Y-89726950D02*
X118457565Y-89626950D01*
X118457565Y-89626950D02*
X118424231Y-89460283D01*
X118424231Y-89460283D02*
X118424231Y-89326950D01*
X118424231Y-89326950D02*
X118457565Y-89160283D01*
X118457565Y-89160283D02*
X118490898Y-89060283D01*
X118490898Y-89060283D02*
X118524231Y-88993616D01*
X118524231Y-88993616D02*
X118590898Y-88893616D01*
X118590898Y-88893616D02*
X118624231Y-88860283D01*
X118890898Y-89393616D02*
X119424232Y-89393616D01*
X119157565Y-89660283D02*
X119157565Y-89126950D01*
X119690899Y-89926950D02*
X119724232Y-89893616D01*
X119724232Y-89893616D02*
X119790899Y-89793616D01*
X119790899Y-89793616D02*
X119824232Y-89726950D01*
X119824232Y-89726950D02*
X119857565Y-89626950D01*
X119857565Y-89626950D02*
X119890899Y-89460283D01*
X119890899Y-89460283D02*
X119890899Y-89326950D01*
X119890899Y-89326950D02*
X119857565Y-89160283D01*
X119857565Y-89160283D02*
X119824232Y-89060283D01*
X119824232Y-89060283D02*
X119790899Y-88993616D01*
X119790899Y-88993616D02*
X119724232Y-88893616D01*
X119724232Y-88893616D02*
X119690899Y-88860283D01*
X118624231Y-83926950D02*
X118590898Y-83893616D01*
X118590898Y-83893616D02*
X118524231Y-83793616D01*
X118524231Y-83793616D02*
X118490898Y-83726950D01*
X118490898Y-83726950D02*
X118457565Y-83626950D01*
X118457565Y-83626950D02*
X118424231Y-83460283D01*
X118424231Y-83460283D02*
X118424231Y-83326950D01*
X118424231Y-83326950D02*
X118457565Y-83160283D01*
X118457565Y-83160283D02*
X118490898Y-83060283D01*
X118490898Y-83060283D02*
X118524231Y-82993616D01*
X118524231Y-82993616D02*
X118590898Y-82893616D01*
X118590898Y-82893616D02*
X118624231Y-82860283D01*
X118890898Y-83393616D02*
X119424232Y-83393616D01*
X119157565Y-83660283D02*
X119157565Y-83126950D01*
X119690899Y-83926950D02*
X119724232Y-83893616D01*
X119724232Y-83893616D02*
X119790899Y-83793616D01*
X119790899Y-83793616D02*
X119824232Y-83726950D01*
X119824232Y-83726950D02*
X119857565Y-83626950D01*
X119857565Y-83626950D02*
X119890899Y-83460283D01*
X119890899Y-83460283D02*
X119890899Y-83326950D01*
X119890899Y-83326950D02*
X119857565Y-83160283D01*
X119857565Y-83160283D02*
X119824232Y-83060283D01*
X119824232Y-83060283D02*
X119790899Y-82993616D01*
X119790899Y-82993616D02*
X119724232Y-82893616D01*
X119724232Y-82893616D02*
X119690899Y-82860283D01*
X118624231Y-77926950D02*
X118590898Y-77893616D01*
X118590898Y-77893616D02*
X118524231Y-77793616D01*
X118524231Y-77793616D02*
X118490898Y-77726950D01*
X118490898Y-77726950D02*
X118457565Y-77626950D01*
X118457565Y-77626950D02*
X118424231Y-77460283D01*
X118424231Y-77460283D02*
X118424231Y-77326950D01*
X118424231Y-77326950D02*
X118457565Y-77160283D01*
X118457565Y-77160283D02*
X118490898Y-77060283D01*
X118490898Y-77060283D02*
X118524231Y-76993616D01*
X118524231Y-76993616D02*
X118590898Y-76893616D01*
X118590898Y-76893616D02*
X118624231Y-76860283D01*
X118890898Y-77393616D02*
X119424232Y-77393616D01*
X119157565Y-77660283D02*
X119157565Y-77126950D01*
X119690899Y-77926950D02*
X119724232Y-77893616D01*
X119724232Y-77893616D02*
X119790899Y-77793616D01*
X119790899Y-77793616D02*
X119824232Y-77726950D01*
X119824232Y-77726950D02*
X119857565Y-77626950D01*
X119857565Y-77626950D02*
X119890899Y-77460283D01*
X119890899Y-77460283D02*
X119890899Y-77326950D01*
X119890899Y-77326950D02*
X119857565Y-77160283D01*
X119857565Y-77160283D02*
X119824232Y-77060283D01*
X119824232Y-77060283D02*
X119790899Y-76993616D01*
X119790899Y-76993616D02*
X119724232Y-76893616D01*
X119724232Y-76893616D02*
X119690899Y-76860283D01*
X118624231Y-71926950D02*
X118590898Y-71893616D01*
X118590898Y-71893616D02*
X118524231Y-71793616D01*
X118524231Y-71793616D02*
X118490898Y-71726950D01*
X118490898Y-71726950D02*
X118457565Y-71626950D01*
X118457565Y-71626950D02*
X118424231Y-71460283D01*
X118424231Y-71460283D02*
X118424231Y-71326950D01*
X118424231Y-71326950D02*
X118457565Y-71160283D01*
X118457565Y-71160283D02*
X118490898Y-71060283D01*
X118490898Y-71060283D02*
X118524231Y-70993616D01*
X118524231Y-70993616D02*
X118590898Y-70893616D01*
X118590898Y-70893616D02*
X118624231Y-70860283D01*
X118890898Y-71393616D02*
X119424232Y-71393616D01*
X119157565Y-71660283D02*
X119157565Y-71126950D01*
X119690899Y-71926950D02*
X119724232Y-71893616D01*
X119724232Y-71893616D02*
X119790899Y-71793616D01*
X119790899Y-71793616D02*
X119824232Y-71726950D01*
X119824232Y-71726950D02*
X119857565Y-71626950D01*
X119857565Y-71626950D02*
X119890899Y-71460283D01*
X119890899Y-71460283D02*
X119890899Y-71326950D01*
X119890899Y-71326950D02*
X119857565Y-71160283D01*
X119857565Y-71160283D02*
X119824232Y-71060283D01*
X119824232Y-71060283D02*
X119790899Y-70993616D01*
X119790899Y-70993616D02*
X119724232Y-70893616D01*
X119724232Y-70893616D02*
X119690899Y-70860283D01*
X118624231Y-65926950D02*
X118590898Y-65893616D01*
X118590898Y-65893616D02*
X118524231Y-65793616D01*
X118524231Y-65793616D02*
X118490898Y-65726950D01*
X118490898Y-65726950D02*
X118457565Y-65626950D01*
X118457565Y-65626950D02*
X118424231Y-65460283D01*
X118424231Y-65460283D02*
X118424231Y-65326950D01*
X118424231Y-65326950D02*
X118457565Y-65160283D01*
X118457565Y-65160283D02*
X118490898Y-65060283D01*
X118490898Y-65060283D02*
X118524231Y-64993616D01*
X118524231Y-64993616D02*
X118590898Y-64893616D01*
X118590898Y-64893616D02*
X118624231Y-64860283D01*
X118890898Y-65393616D02*
X119424232Y-65393616D01*
X119157565Y-65660283D02*
X119157565Y-65126950D01*
X119690899Y-65926950D02*
X119724232Y-65893616D01*
X119724232Y-65893616D02*
X119790899Y-65793616D01*
X119790899Y-65793616D02*
X119824232Y-65726950D01*
X119824232Y-65726950D02*
X119857565Y-65626950D01*
X119857565Y-65626950D02*
X119890899Y-65460283D01*
X119890899Y-65460283D02*
X119890899Y-65326950D01*
X119890899Y-65326950D02*
X119857565Y-65160283D01*
X119857565Y-65160283D02*
X119824232Y-65060283D01*
X119824232Y-65060283D02*
X119790899Y-64993616D01*
X119790899Y-64993616D02*
X119724232Y-64893616D01*
X119724232Y-64893616D02*
X119690899Y-64860283D01*
X118624231Y-59926950D02*
X118590898Y-59893616D01*
X118590898Y-59893616D02*
X118524231Y-59793616D01*
X118524231Y-59793616D02*
X118490898Y-59726950D01*
X118490898Y-59726950D02*
X118457565Y-59626950D01*
X118457565Y-59626950D02*
X118424231Y-59460283D01*
X118424231Y-59460283D02*
X118424231Y-59326950D01*
X118424231Y-59326950D02*
X118457565Y-59160283D01*
X118457565Y-59160283D02*
X118490898Y-59060283D01*
X118490898Y-59060283D02*
X118524231Y-58993616D01*
X118524231Y-58993616D02*
X118590898Y-58893616D01*
X118590898Y-58893616D02*
X118624231Y-58860283D01*
X118890898Y-59393616D02*
X119424232Y-59393616D01*
X119157565Y-59660283D02*
X119157565Y-59126950D01*
X119690899Y-59926950D02*
X119724232Y-59893616D01*
X119724232Y-59893616D02*
X119790899Y-59793616D01*
X119790899Y-59793616D02*
X119824232Y-59726950D01*
X119824232Y-59726950D02*
X119857565Y-59626950D01*
X119857565Y-59626950D02*
X119890899Y-59460283D01*
X119890899Y-59460283D02*
X119890899Y-59326950D01*
X119890899Y-59326950D02*
X119857565Y-59160283D01*
X119857565Y-59160283D02*
X119824232Y-59060283D01*
X119824232Y-59060283D02*
X119790899Y-58993616D01*
X119790899Y-58993616D02*
X119724232Y-58893616D01*
X119724232Y-58893616D02*
X119690899Y-58860283D01*
X118624231Y-53926950D02*
X118590898Y-53893616D01*
X118590898Y-53893616D02*
X118524231Y-53793616D01*
X118524231Y-53793616D02*
X118490898Y-53726950D01*
X118490898Y-53726950D02*
X118457565Y-53626950D01*
X118457565Y-53626950D02*
X118424231Y-53460283D01*
X118424231Y-53460283D02*
X118424231Y-53326950D01*
X118424231Y-53326950D02*
X118457565Y-53160283D01*
X118457565Y-53160283D02*
X118490898Y-53060283D01*
X118490898Y-53060283D02*
X118524231Y-52993616D01*
X118524231Y-52993616D02*
X118590898Y-52893616D01*
X118590898Y-52893616D02*
X118624231Y-52860283D01*
X118890898Y-53393616D02*
X119424232Y-53393616D01*
X119157565Y-53660283D02*
X119157565Y-53126950D01*
X119690899Y-53926950D02*
X119724232Y-53893616D01*
X119724232Y-53893616D02*
X119790899Y-53793616D01*
X119790899Y-53793616D02*
X119824232Y-53726950D01*
X119824232Y-53726950D02*
X119857565Y-53626950D01*
X119857565Y-53626950D02*
X119890899Y-53460283D01*
X119890899Y-53460283D02*
X119890899Y-53326950D01*
X119890899Y-53326950D02*
X119857565Y-53160283D01*
X119857565Y-53160283D02*
X119824232Y-53060283D01*
X119824232Y-53060283D02*
X119790899Y-52993616D01*
X119790899Y-52993616D02*
X119724232Y-52893616D01*
X119724232Y-52893616D02*
X119690899Y-52860283D01*
X118624231Y-47926950D02*
X118590898Y-47893616D01*
X118590898Y-47893616D02*
X118524231Y-47793616D01*
X118524231Y-47793616D02*
X118490898Y-47726950D01*
X118490898Y-47726950D02*
X118457565Y-47626950D01*
X118457565Y-47626950D02*
X118424231Y-47460283D01*
X118424231Y-47460283D02*
X118424231Y-47326950D01*
X118424231Y-47326950D02*
X118457565Y-47160283D01*
X118457565Y-47160283D02*
X118490898Y-47060283D01*
X118490898Y-47060283D02*
X118524231Y-46993616D01*
X118524231Y-46993616D02*
X118590898Y-46893616D01*
X118590898Y-46893616D02*
X118624231Y-46860283D01*
X118890898Y-47393616D02*
X119424232Y-47393616D01*
X119157565Y-47660283D02*
X119157565Y-47126950D01*
X119690899Y-47926950D02*
X119724232Y-47893616D01*
X119724232Y-47893616D02*
X119790899Y-47793616D01*
X119790899Y-47793616D02*
X119824232Y-47726950D01*
X119824232Y-47726950D02*
X119857565Y-47626950D01*
X119857565Y-47626950D02*
X119890899Y-47460283D01*
X119890899Y-47460283D02*
X119890899Y-47326950D01*
X119890899Y-47326950D02*
X119857565Y-47160283D01*
X119857565Y-47160283D02*
X119824232Y-47060283D01*
X119824232Y-47060283D02*
X119790899Y-46993616D01*
X119790899Y-46993616D02*
X119724232Y-46893616D01*
X119724232Y-46893616D02*
X119690899Y-46860283D01*
X118624231Y-41926950D02*
X118590898Y-41893616D01*
X118590898Y-41893616D02*
X118524231Y-41793616D01*
X118524231Y-41793616D02*
X118490898Y-41726950D01*
X118490898Y-41726950D02*
X118457565Y-41626950D01*
X118457565Y-41626950D02*
X118424231Y-41460283D01*
X118424231Y-41460283D02*
X118424231Y-41326950D01*
X118424231Y-41326950D02*
X118457565Y-41160283D01*
X118457565Y-41160283D02*
X118490898Y-41060283D01*
X118490898Y-41060283D02*
X118524231Y-40993616D01*
X118524231Y-40993616D02*
X118590898Y-40893616D01*
X118590898Y-40893616D02*
X118624231Y-40860283D01*
X118890898Y-41393616D02*
X119424232Y-41393616D01*
X119157565Y-41660283D02*
X119157565Y-41126950D01*
X119690899Y-41926950D02*
X119724232Y-41893616D01*
X119724232Y-41893616D02*
X119790899Y-41793616D01*
X119790899Y-41793616D02*
X119824232Y-41726950D01*
X119824232Y-41726950D02*
X119857565Y-41626950D01*
X119857565Y-41626950D02*
X119890899Y-41460283D01*
X119890899Y-41460283D02*
X119890899Y-41326950D01*
X119890899Y-41326950D02*
X119857565Y-41160283D01*
X119857565Y-41160283D02*
X119824232Y-41060283D01*
X119824232Y-41060283D02*
X119790899Y-40993616D01*
X119790899Y-40993616D02*
X119724232Y-40893616D01*
X119724232Y-40893616D02*
X119690899Y-40860283D01*
X118624231Y-35926950D02*
X118590898Y-35893616D01*
X118590898Y-35893616D02*
X118524231Y-35793616D01*
X118524231Y-35793616D02*
X118490898Y-35726950D01*
X118490898Y-35726950D02*
X118457565Y-35626950D01*
X118457565Y-35626950D02*
X118424231Y-35460283D01*
X118424231Y-35460283D02*
X118424231Y-35326950D01*
X118424231Y-35326950D02*
X118457565Y-35160283D01*
X118457565Y-35160283D02*
X118490898Y-35060283D01*
X118490898Y-35060283D02*
X118524231Y-34993616D01*
X118524231Y-34993616D02*
X118590898Y-34893616D01*
X118590898Y-34893616D02*
X118624231Y-34860283D01*
X118890898Y-35393616D02*
X119424232Y-35393616D01*
X119157565Y-35660283D02*
X119157565Y-35126950D01*
X119690899Y-35926950D02*
X119724232Y-35893616D01*
X119724232Y-35893616D02*
X119790899Y-35793616D01*
X119790899Y-35793616D02*
X119824232Y-35726950D01*
X119824232Y-35726950D02*
X119857565Y-35626950D01*
X119857565Y-35626950D02*
X119890899Y-35460283D01*
X119890899Y-35460283D02*
X119890899Y-35326950D01*
X119890899Y-35326950D02*
X119857565Y-35160283D01*
X119857565Y-35160283D02*
X119824232Y-35060283D01*
X119824232Y-35060283D02*
X119790899Y-34993616D01*
X119790899Y-34993616D02*
X119724232Y-34893616D01*
X119724232Y-34893616D02*
X119690899Y-34860283D01*
X118624231Y-29926950D02*
X118590898Y-29893616D01*
X118590898Y-29893616D02*
X118524231Y-29793616D01*
X118524231Y-29793616D02*
X118490898Y-29726950D01*
X118490898Y-29726950D02*
X118457565Y-29626950D01*
X118457565Y-29626950D02*
X118424231Y-29460283D01*
X118424231Y-29460283D02*
X118424231Y-29326950D01*
X118424231Y-29326950D02*
X118457565Y-29160283D01*
X118457565Y-29160283D02*
X118490898Y-29060283D01*
X118490898Y-29060283D02*
X118524231Y-28993616D01*
X118524231Y-28993616D02*
X118590898Y-28893616D01*
X118590898Y-28893616D02*
X118624231Y-28860283D01*
X118890898Y-29393616D02*
X119424232Y-29393616D01*
X119157565Y-29660283D02*
X119157565Y-29126950D01*
X119690899Y-29926950D02*
X119724232Y-29893616D01*
X119724232Y-29893616D02*
X119790899Y-29793616D01*
X119790899Y-29793616D02*
X119824232Y-29726950D01*
X119824232Y-29726950D02*
X119857565Y-29626950D01*
X119857565Y-29626950D02*
X119890899Y-29460283D01*
X119890899Y-29460283D02*
X119890899Y-29326950D01*
X119890899Y-29326950D02*
X119857565Y-29160283D01*
X119857565Y-29160283D02*
X119824232Y-29060283D01*
X119824232Y-29060283D02*
X119790899Y-28993616D01*
X119790899Y-28993616D02*
X119724232Y-28893616D01*
X119724232Y-28893616D02*
X119690899Y-28860283D01*
X104624231Y-107926950D02*
X104590898Y-107893616D01*
X104590898Y-107893616D02*
X104524231Y-107793616D01*
X104524231Y-107793616D02*
X104490898Y-107726950D01*
X104490898Y-107726950D02*
X104457565Y-107626950D01*
X104457565Y-107626950D02*
X104424231Y-107460283D01*
X104424231Y-107460283D02*
X104424231Y-107326950D01*
X104424231Y-107326950D02*
X104457565Y-107160283D01*
X104457565Y-107160283D02*
X104490898Y-107060283D01*
X104490898Y-107060283D02*
X104524231Y-106993616D01*
X104524231Y-106993616D02*
X104590898Y-106893616D01*
X104590898Y-106893616D02*
X104624231Y-106860283D01*
X104890898Y-107393616D02*
X105424232Y-107393616D01*
X105157565Y-107660283D02*
X105157565Y-107126950D01*
X105690899Y-107926950D02*
X105724232Y-107893616D01*
X105724232Y-107893616D02*
X105790899Y-107793616D01*
X105790899Y-107793616D02*
X105824232Y-107726950D01*
X105824232Y-107726950D02*
X105857565Y-107626950D01*
X105857565Y-107626950D02*
X105890899Y-107460283D01*
X105890899Y-107460283D02*
X105890899Y-107326950D01*
X105890899Y-107326950D02*
X105857565Y-107160283D01*
X105857565Y-107160283D02*
X105824232Y-107060283D01*
X105824232Y-107060283D02*
X105790899Y-106993616D01*
X105790899Y-106993616D02*
X105724232Y-106893616D01*
X105724232Y-106893616D02*
X105690899Y-106860283D01*
X104624231Y-101926950D02*
X104590898Y-101893616D01*
X104590898Y-101893616D02*
X104524231Y-101793616D01*
X104524231Y-101793616D02*
X104490898Y-101726950D01*
X104490898Y-101726950D02*
X104457565Y-101626950D01*
X104457565Y-101626950D02*
X104424231Y-101460283D01*
X104424231Y-101460283D02*
X104424231Y-101326950D01*
X104424231Y-101326950D02*
X104457565Y-101160283D01*
X104457565Y-101160283D02*
X104490898Y-101060283D01*
X104490898Y-101060283D02*
X104524231Y-100993616D01*
X104524231Y-100993616D02*
X104590898Y-100893616D01*
X104590898Y-100893616D02*
X104624231Y-100860283D01*
X104890898Y-101393616D02*
X105424232Y-101393616D01*
X105157565Y-101660283D02*
X105157565Y-101126950D01*
X105690899Y-101926950D02*
X105724232Y-101893616D01*
X105724232Y-101893616D02*
X105790899Y-101793616D01*
X105790899Y-101793616D02*
X105824232Y-101726950D01*
X105824232Y-101726950D02*
X105857565Y-101626950D01*
X105857565Y-101626950D02*
X105890899Y-101460283D01*
X105890899Y-101460283D02*
X105890899Y-101326950D01*
X105890899Y-101326950D02*
X105857565Y-101160283D01*
X105857565Y-101160283D02*
X105824232Y-101060283D01*
X105824232Y-101060283D02*
X105790899Y-100993616D01*
X105790899Y-100993616D02*
X105724232Y-100893616D01*
X105724232Y-100893616D02*
X105690899Y-100860283D01*
X104624231Y-95926950D02*
X104590898Y-95893616D01*
X104590898Y-95893616D02*
X104524231Y-95793616D01*
X104524231Y-95793616D02*
X104490898Y-95726950D01*
X104490898Y-95726950D02*
X104457565Y-95626950D01*
X104457565Y-95626950D02*
X104424231Y-95460283D01*
X104424231Y-95460283D02*
X104424231Y-95326950D01*
X104424231Y-95326950D02*
X104457565Y-95160283D01*
X104457565Y-95160283D02*
X104490898Y-95060283D01*
X104490898Y-95060283D02*
X104524231Y-94993616D01*
X104524231Y-94993616D02*
X104590898Y-94893616D01*
X104590898Y-94893616D02*
X104624231Y-94860283D01*
X104890898Y-95393616D02*
X105424232Y-95393616D01*
X105157565Y-95660283D02*
X105157565Y-95126950D01*
X105690899Y-95926950D02*
X105724232Y-95893616D01*
X105724232Y-95893616D02*
X105790899Y-95793616D01*
X105790899Y-95793616D02*
X105824232Y-95726950D01*
X105824232Y-95726950D02*
X105857565Y-95626950D01*
X105857565Y-95626950D02*
X105890899Y-95460283D01*
X105890899Y-95460283D02*
X105890899Y-95326950D01*
X105890899Y-95326950D02*
X105857565Y-95160283D01*
X105857565Y-95160283D02*
X105824232Y-95060283D01*
X105824232Y-95060283D02*
X105790899Y-94993616D01*
X105790899Y-94993616D02*
X105724232Y-94893616D01*
X105724232Y-94893616D02*
X105690899Y-94860283D01*
X104624231Y-89926950D02*
X104590898Y-89893616D01*
X104590898Y-89893616D02*
X104524231Y-89793616D01*
X104524231Y-89793616D02*
X104490898Y-89726950D01*
X104490898Y-89726950D02*
X104457565Y-89626950D01*
X104457565Y-89626950D02*
X104424231Y-89460283D01*
X104424231Y-89460283D02*
X104424231Y-89326950D01*
X104424231Y-89326950D02*
X104457565Y-89160283D01*
X104457565Y-89160283D02*
X104490898Y-89060283D01*
X104490898Y-89060283D02*
X104524231Y-88993616D01*
X104524231Y-88993616D02*
X104590898Y-88893616D01*
X104590898Y-88893616D02*
X104624231Y-88860283D01*
X104890898Y-89393616D02*
X105424232Y-89393616D01*
X105157565Y-89660283D02*
X105157565Y-89126950D01*
X105690899Y-89926950D02*
X105724232Y-89893616D01*
X105724232Y-89893616D02*
X105790899Y-89793616D01*
X105790899Y-89793616D02*
X105824232Y-89726950D01*
X105824232Y-89726950D02*
X105857565Y-89626950D01*
X105857565Y-89626950D02*
X105890899Y-89460283D01*
X105890899Y-89460283D02*
X105890899Y-89326950D01*
X105890899Y-89326950D02*
X105857565Y-89160283D01*
X105857565Y-89160283D02*
X105824232Y-89060283D01*
X105824232Y-89060283D02*
X105790899Y-88993616D01*
X105790899Y-88993616D02*
X105724232Y-88893616D01*
X105724232Y-88893616D02*
X105690899Y-88860283D01*
X104624231Y-83926950D02*
X104590898Y-83893616D01*
X104590898Y-83893616D02*
X104524231Y-83793616D01*
X104524231Y-83793616D02*
X104490898Y-83726950D01*
X104490898Y-83726950D02*
X104457565Y-83626950D01*
X104457565Y-83626950D02*
X104424231Y-83460283D01*
X104424231Y-83460283D02*
X104424231Y-83326950D01*
X104424231Y-83326950D02*
X104457565Y-83160283D01*
X104457565Y-83160283D02*
X104490898Y-83060283D01*
X104490898Y-83060283D02*
X104524231Y-82993616D01*
X104524231Y-82993616D02*
X104590898Y-82893616D01*
X104590898Y-82893616D02*
X104624231Y-82860283D01*
X104890898Y-83393616D02*
X105424232Y-83393616D01*
X105157565Y-83660283D02*
X105157565Y-83126950D01*
X105690899Y-83926950D02*
X105724232Y-83893616D01*
X105724232Y-83893616D02*
X105790899Y-83793616D01*
X105790899Y-83793616D02*
X105824232Y-83726950D01*
X105824232Y-83726950D02*
X105857565Y-83626950D01*
X105857565Y-83626950D02*
X105890899Y-83460283D01*
X105890899Y-83460283D02*
X105890899Y-83326950D01*
X105890899Y-83326950D02*
X105857565Y-83160283D01*
X105857565Y-83160283D02*
X105824232Y-83060283D01*
X105824232Y-83060283D02*
X105790899Y-82993616D01*
X105790899Y-82993616D02*
X105724232Y-82893616D01*
X105724232Y-82893616D02*
X105690899Y-82860283D01*
X104624231Y-77926950D02*
X104590898Y-77893616D01*
X104590898Y-77893616D02*
X104524231Y-77793616D01*
X104524231Y-77793616D02*
X104490898Y-77726950D01*
X104490898Y-77726950D02*
X104457565Y-77626950D01*
X104457565Y-77626950D02*
X104424231Y-77460283D01*
X104424231Y-77460283D02*
X104424231Y-77326950D01*
X104424231Y-77326950D02*
X104457565Y-77160283D01*
X104457565Y-77160283D02*
X104490898Y-77060283D01*
X104490898Y-77060283D02*
X104524231Y-76993616D01*
X104524231Y-76993616D02*
X104590898Y-76893616D01*
X104590898Y-76893616D02*
X104624231Y-76860283D01*
X104890898Y-77393616D02*
X105424232Y-77393616D01*
X105157565Y-77660283D02*
X105157565Y-77126950D01*
X105690899Y-77926950D02*
X105724232Y-77893616D01*
X105724232Y-77893616D02*
X105790899Y-77793616D01*
X105790899Y-77793616D02*
X105824232Y-77726950D01*
X105824232Y-77726950D02*
X105857565Y-77626950D01*
X105857565Y-77626950D02*
X105890899Y-77460283D01*
X105890899Y-77460283D02*
X105890899Y-77326950D01*
X105890899Y-77326950D02*
X105857565Y-77160283D01*
X105857565Y-77160283D02*
X105824232Y-77060283D01*
X105824232Y-77060283D02*
X105790899Y-76993616D01*
X105790899Y-76993616D02*
X105724232Y-76893616D01*
X105724232Y-76893616D02*
X105690899Y-76860283D01*
X104624231Y-71926950D02*
X104590898Y-71893616D01*
X104590898Y-71893616D02*
X104524231Y-71793616D01*
X104524231Y-71793616D02*
X104490898Y-71726950D01*
X104490898Y-71726950D02*
X104457565Y-71626950D01*
X104457565Y-71626950D02*
X104424231Y-71460283D01*
X104424231Y-71460283D02*
X104424231Y-71326950D01*
X104424231Y-71326950D02*
X104457565Y-71160283D01*
X104457565Y-71160283D02*
X104490898Y-71060283D01*
X104490898Y-71060283D02*
X104524231Y-70993616D01*
X104524231Y-70993616D02*
X104590898Y-70893616D01*
X104590898Y-70893616D02*
X104624231Y-70860283D01*
X104890898Y-71393616D02*
X105424232Y-71393616D01*
X105157565Y-71660283D02*
X105157565Y-71126950D01*
X105690899Y-71926950D02*
X105724232Y-71893616D01*
X105724232Y-71893616D02*
X105790899Y-71793616D01*
X105790899Y-71793616D02*
X105824232Y-71726950D01*
X105824232Y-71726950D02*
X105857565Y-71626950D01*
X105857565Y-71626950D02*
X105890899Y-71460283D01*
X105890899Y-71460283D02*
X105890899Y-71326950D01*
X105890899Y-71326950D02*
X105857565Y-71160283D01*
X105857565Y-71160283D02*
X105824232Y-71060283D01*
X105824232Y-71060283D02*
X105790899Y-70993616D01*
X105790899Y-70993616D02*
X105724232Y-70893616D01*
X105724232Y-70893616D02*
X105690899Y-70860283D01*
X104624231Y-65926950D02*
X104590898Y-65893616D01*
X104590898Y-65893616D02*
X104524231Y-65793616D01*
X104524231Y-65793616D02*
X104490898Y-65726950D01*
X104490898Y-65726950D02*
X104457565Y-65626950D01*
X104457565Y-65626950D02*
X104424231Y-65460283D01*
X104424231Y-65460283D02*
X104424231Y-65326950D01*
X104424231Y-65326950D02*
X104457565Y-65160283D01*
X104457565Y-65160283D02*
X104490898Y-65060283D01*
X104490898Y-65060283D02*
X104524231Y-64993616D01*
X104524231Y-64993616D02*
X104590898Y-64893616D01*
X104590898Y-64893616D02*
X104624231Y-64860283D01*
X104890898Y-65393616D02*
X105424232Y-65393616D01*
X105157565Y-65660283D02*
X105157565Y-65126950D01*
X105690899Y-65926950D02*
X105724232Y-65893616D01*
X105724232Y-65893616D02*
X105790899Y-65793616D01*
X105790899Y-65793616D02*
X105824232Y-65726950D01*
X105824232Y-65726950D02*
X105857565Y-65626950D01*
X105857565Y-65626950D02*
X105890899Y-65460283D01*
X105890899Y-65460283D02*
X105890899Y-65326950D01*
X105890899Y-65326950D02*
X105857565Y-65160283D01*
X105857565Y-65160283D02*
X105824232Y-65060283D01*
X105824232Y-65060283D02*
X105790899Y-64993616D01*
X105790899Y-64993616D02*
X105724232Y-64893616D01*
X105724232Y-64893616D02*
X105690899Y-64860283D01*
X104624231Y-59926950D02*
X104590898Y-59893616D01*
X104590898Y-59893616D02*
X104524231Y-59793616D01*
X104524231Y-59793616D02*
X104490898Y-59726950D01*
X104490898Y-59726950D02*
X104457565Y-59626950D01*
X104457565Y-59626950D02*
X104424231Y-59460283D01*
X104424231Y-59460283D02*
X104424231Y-59326950D01*
X104424231Y-59326950D02*
X104457565Y-59160283D01*
X104457565Y-59160283D02*
X104490898Y-59060283D01*
X104490898Y-59060283D02*
X104524231Y-58993616D01*
X104524231Y-58993616D02*
X104590898Y-58893616D01*
X104590898Y-58893616D02*
X104624231Y-58860283D01*
X104890898Y-59393616D02*
X105424232Y-59393616D01*
X105157565Y-59660283D02*
X105157565Y-59126950D01*
X105690899Y-59926950D02*
X105724232Y-59893616D01*
X105724232Y-59893616D02*
X105790899Y-59793616D01*
X105790899Y-59793616D02*
X105824232Y-59726950D01*
X105824232Y-59726950D02*
X105857565Y-59626950D01*
X105857565Y-59626950D02*
X105890899Y-59460283D01*
X105890899Y-59460283D02*
X105890899Y-59326950D01*
X105890899Y-59326950D02*
X105857565Y-59160283D01*
X105857565Y-59160283D02*
X105824232Y-59060283D01*
X105824232Y-59060283D02*
X105790899Y-58993616D01*
X105790899Y-58993616D02*
X105724232Y-58893616D01*
X105724232Y-58893616D02*
X105690899Y-58860283D01*
X104624231Y-53926950D02*
X104590898Y-53893616D01*
X104590898Y-53893616D02*
X104524231Y-53793616D01*
X104524231Y-53793616D02*
X104490898Y-53726950D01*
X104490898Y-53726950D02*
X104457565Y-53626950D01*
X104457565Y-53626950D02*
X104424231Y-53460283D01*
X104424231Y-53460283D02*
X104424231Y-53326950D01*
X104424231Y-53326950D02*
X104457565Y-53160283D01*
X104457565Y-53160283D02*
X104490898Y-53060283D01*
X104490898Y-53060283D02*
X104524231Y-52993616D01*
X104524231Y-52993616D02*
X104590898Y-52893616D01*
X104590898Y-52893616D02*
X104624231Y-52860283D01*
X104890898Y-53393616D02*
X105424232Y-53393616D01*
X105157565Y-53660283D02*
X105157565Y-53126950D01*
X105690899Y-53926950D02*
X105724232Y-53893616D01*
X105724232Y-53893616D02*
X105790899Y-53793616D01*
X105790899Y-53793616D02*
X105824232Y-53726950D01*
X105824232Y-53726950D02*
X105857565Y-53626950D01*
X105857565Y-53626950D02*
X105890899Y-53460283D01*
X105890899Y-53460283D02*
X105890899Y-53326950D01*
X105890899Y-53326950D02*
X105857565Y-53160283D01*
X105857565Y-53160283D02*
X105824232Y-53060283D01*
X105824232Y-53060283D02*
X105790899Y-52993616D01*
X105790899Y-52993616D02*
X105724232Y-52893616D01*
X105724232Y-52893616D02*
X105690899Y-52860283D01*
X104624231Y-47926950D02*
X104590898Y-47893616D01*
X104590898Y-47893616D02*
X104524231Y-47793616D01*
X104524231Y-47793616D02*
X104490898Y-47726950D01*
X104490898Y-47726950D02*
X104457565Y-47626950D01*
X104457565Y-47626950D02*
X104424231Y-47460283D01*
X104424231Y-47460283D02*
X104424231Y-47326950D01*
X104424231Y-47326950D02*
X104457565Y-47160283D01*
X104457565Y-47160283D02*
X104490898Y-47060283D01*
X104490898Y-47060283D02*
X104524231Y-46993616D01*
X104524231Y-46993616D02*
X104590898Y-46893616D01*
X104590898Y-46893616D02*
X104624231Y-46860283D01*
X104890898Y-47393616D02*
X105424232Y-47393616D01*
X105157565Y-47660283D02*
X105157565Y-47126950D01*
X105690899Y-47926950D02*
X105724232Y-47893616D01*
X105724232Y-47893616D02*
X105790899Y-47793616D01*
X105790899Y-47793616D02*
X105824232Y-47726950D01*
X105824232Y-47726950D02*
X105857565Y-47626950D01*
X105857565Y-47626950D02*
X105890899Y-47460283D01*
X105890899Y-47460283D02*
X105890899Y-47326950D01*
X105890899Y-47326950D02*
X105857565Y-47160283D01*
X105857565Y-47160283D02*
X105824232Y-47060283D01*
X105824232Y-47060283D02*
X105790899Y-46993616D01*
X105790899Y-46993616D02*
X105724232Y-46893616D01*
X105724232Y-46893616D02*
X105690899Y-46860283D01*
X104624231Y-41926950D02*
X104590898Y-41893616D01*
X104590898Y-41893616D02*
X104524231Y-41793616D01*
X104524231Y-41793616D02*
X104490898Y-41726950D01*
X104490898Y-41726950D02*
X104457565Y-41626950D01*
X104457565Y-41626950D02*
X104424231Y-41460283D01*
X104424231Y-41460283D02*
X104424231Y-41326950D01*
X104424231Y-41326950D02*
X104457565Y-41160283D01*
X104457565Y-41160283D02*
X104490898Y-41060283D01*
X104490898Y-41060283D02*
X104524231Y-40993616D01*
X104524231Y-40993616D02*
X104590898Y-40893616D01*
X104590898Y-40893616D02*
X104624231Y-40860283D01*
X104890898Y-41393616D02*
X105424232Y-41393616D01*
X105157565Y-41660283D02*
X105157565Y-41126950D01*
X105690899Y-41926950D02*
X105724232Y-41893616D01*
X105724232Y-41893616D02*
X105790899Y-41793616D01*
X105790899Y-41793616D02*
X105824232Y-41726950D01*
X105824232Y-41726950D02*
X105857565Y-41626950D01*
X105857565Y-41626950D02*
X105890899Y-41460283D01*
X105890899Y-41460283D02*
X105890899Y-41326950D01*
X105890899Y-41326950D02*
X105857565Y-41160283D01*
X105857565Y-41160283D02*
X105824232Y-41060283D01*
X105824232Y-41060283D02*
X105790899Y-40993616D01*
X105790899Y-40993616D02*
X105724232Y-40893616D01*
X105724232Y-40893616D02*
X105690899Y-40860283D01*
X104624231Y-35926950D02*
X104590898Y-35893616D01*
X104590898Y-35893616D02*
X104524231Y-35793616D01*
X104524231Y-35793616D02*
X104490898Y-35726950D01*
X104490898Y-35726950D02*
X104457565Y-35626950D01*
X104457565Y-35626950D02*
X104424231Y-35460283D01*
X104424231Y-35460283D02*
X104424231Y-35326950D01*
X104424231Y-35326950D02*
X104457565Y-35160283D01*
X104457565Y-35160283D02*
X104490898Y-35060283D01*
X104490898Y-35060283D02*
X104524231Y-34993616D01*
X104524231Y-34993616D02*
X104590898Y-34893616D01*
X104590898Y-34893616D02*
X104624231Y-34860283D01*
X104890898Y-35393616D02*
X105424232Y-35393616D01*
X105157565Y-35660283D02*
X105157565Y-35126950D01*
X105690899Y-35926950D02*
X105724232Y-35893616D01*
X105724232Y-35893616D02*
X105790899Y-35793616D01*
X105790899Y-35793616D02*
X105824232Y-35726950D01*
X105824232Y-35726950D02*
X105857565Y-35626950D01*
X105857565Y-35626950D02*
X105890899Y-35460283D01*
X105890899Y-35460283D02*
X105890899Y-35326950D01*
X105890899Y-35326950D02*
X105857565Y-35160283D01*
X105857565Y-35160283D02*
X105824232Y-35060283D01*
X105824232Y-35060283D02*
X105790899Y-34993616D01*
X105790899Y-34993616D02*
X105724232Y-34893616D01*
X105724232Y-34893616D02*
X105690899Y-34860283D01*
X104624231Y-29926950D02*
X104590898Y-29893616D01*
X104590898Y-29893616D02*
X104524231Y-29793616D01*
X104524231Y-29793616D02*
X104490898Y-29726950D01*
X104490898Y-29726950D02*
X104457565Y-29626950D01*
X104457565Y-29626950D02*
X104424231Y-29460283D01*
X104424231Y-29460283D02*
X104424231Y-29326950D01*
X104424231Y-29326950D02*
X104457565Y-29160283D01*
X104457565Y-29160283D02*
X104490898Y-29060283D01*
X104490898Y-29060283D02*
X104524231Y-28993616D01*
X104524231Y-28993616D02*
X104590898Y-28893616D01*
X104590898Y-28893616D02*
X104624231Y-28860283D01*
X104890898Y-29393616D02*
X105424232Y-29393616D01*
X105157565Y-29660283D02*
X105157565Y-29126950D01*
X105690899Y-29926950D02*
X105724232Y-29893616D01*
X105724232Y-29893616D02*
X105790899Y-29793616D01*
X105790899Y-29793616D02*
X105824232Y-29726950D01*
X105824232Y-29726950D02*
X105857565Y-29626950D01*
X105857565Y-29626950D02*
X105890899Y-29460283D01*
X105890899Y-29460283D02*
X105890899Y-29326950D01*
X105890899Y-29326950D02*
X105857565Y-29160283D01*
X105857565Y-29160283D02*
X105824232Y-29060283D01*
X105824232Y-29060283D02*
X105790899Y-28993616D01*
X105790899Y-28993616D02*
X105724232Y-28893616D01*
X105724232Y-28893616D02*
X105690899Y-28860283D01*
%TO.C,R1*%
D11*
X176272936Y-51265500D02*
X176727064Y-51265500D01*
X176272936Y-52735500D02*
X176727064Y-52735500D01*
X120272936Y-69265500D02*
X120727064Y-69265500D01*
X120272936Y-70735500D02*
X120727064Y-70735500D01*
X106272936Y-81265500D02*
X106727064Y-81265500D01*
X106272936Y-82735500D02*
X106727064Y-82735500D01*
X134272936Y-27265500D02*
X134727064Y-27265500D01*
X134272936Y-28735500D02*
X134727064Y-28735500D01*
X190272936Y-33265500D02*
X190727064Y-33265500D01*
X190272936Y-34735500D02*
X190727064Y-34735500D01*
X120272936Y-39265500D02*
X120727064Y-39265500D01*
X120272936Y-40735500D02*
X120727064Y-40735500D01*
X134272936Y-51265500D02*
X134727064Y-51265500D01*
X134272936Y-52735500D02*
X134727064Y-52735500D01*
X120272936Y-27265500D02*
X120727064Y-27265500D01*
X120272936Y-28735500D02*
X120727064Y-28735500D01*
X106272936Y-63265500D02*
X106727064Y-63265500D01*
X106272936Y-64735500D02*
X106727064Y-64735500D01*
X148272936Y-87265500D02*
X148727064Y-87265500D01*
X148272936Y-88735500D02*
X148727064Y-88735500D01*
X176272936Y-87265500D02*
X176727064Y-87265500D01*
X176272936Y-88735500D02*
X176727064Y-88735500D01*
X190272936Y-99265500D02*
X190727064Y-99265500D01*
X190272936Y-100735500D02*
X190727064Y-100735500D01*
X162272936Y-39265500D02*
X162727064Y-39265500D01*
X162272936Y-40735500D02*
X162727064Y-40735500D01*
X190272936Y-93265500D02*
X190727064Y-93265500D01*
X190272936Y-94735500D02*
X190727064Y-94735500D01*
X106272936Y-69265500D02*
X106727064Y-69265500D01*
X106272936Y-70735500D02*
X106727064Y-70735500D01*
X162272936Y-69265500D02*
X162727064Y-69265500D01*
X162272936Y-70735500D02*
X162727064Y-70735500D01*
X134272936Y-63265500D02*
X134727064Y-63265500D01*
X134272936Y-64735500D02*
X134727064Y-64735500D01*
X148272936Y-63265500D02*
X148727064Y-63265500D01*
X148272936Y-64735500D02*
X148727064Y-64735500D01*
X106272936Y-105265500D02*
X106727064Y-105265500D01*
X106272936Y-106735500D02*
X106727064Y-106735500D01*
X190272936Y-27265500D02*
X190727064Y-27265500D01*
X190272936Y-28735500D02*
X190727064Y-28735500D01*
X190272936Y-39265500D02*
X190727064Y-39265500D01*
X190272936Y-40735500D02*
X190727064Y-40735500D01*
X120272936Y-33265500D02*
X120727064Y-33265500D01*
X120272936Y-34735500D02*
X120727064Y-34735500D01*
X106272936Y-87265500D02*
X106727064Y-87265500D01*
X106272936Y-88735500D02*
X106727064Y-88735500D01*
X120272936Y-99265500D02*
X120727064Y-99265500D01*
X120272936Y-100735500D02*
X120727064Y-100735500D01*
X120272936Y-81265500D02*
X120727064Y-81265500D01*
X120272936Y-82735500D02*
X120727064Y-82735500D01*
X148272936Y-45265500D02*
X148727064Y-45265500D01*
X148272936Y-46735500D02*
X148727064Y-46735500D01*
X106272936Y-75265500D02*
X106727064Y-75265500D01*
X106272936Y-76735500D02*
X106727064Y-76735500D01*
X106272936Y-51265500D02*
X106727064Y-51265500D01*
X106272936Y-52735500D02*
X106727064Y-52735500D01*
X148272936Y-57265500D02*
X148727064Y-57265500D01*
X148272936Y-58735500D02*
X148727064Y-58735500D01*
X176272936Y-57265500D02*
X176727064Y-57265500D01*
X176272936Y-58735500D02*
X176727064Y-58735500D01*
X176272936Y-81265500D02*
X176727064Y-81265500D01*
X176272936Y-82735500D02*
X176727064Y-82735500D01*
X176272936Y-93265500D02*
X176727064Y-93265500D01*
X176272936Y-94735500D02*
X176727064Y-94735500D01*
X176272936Y-69265500D02*
X176727064Y-69265500D01*
X176272936Y-70735500D02*
X176727064Y-70735500D01*
X120272936Y-87265500D02*
X120727064Y-87265500D01*
X120272936Y-88735500D02*
X120727064Y-88735500D01*
X190272936Y-63265500D02*
X190727064Y-63265500D01*
X190272936Y-64735500D02*
X190727064Y-64735500D01*
X120272936Y-51265500D02*
X120727064Y-51265500D01*
X120272936Y-52735500D02*
X120727064Y-52735500D01*
X162272936Y-27265500D02*
X162727064Y-27265500D01*
X162272936Y-28735500D02*
X162727064Y-28735500D01*
X176272936Y-99265500D02*
X176727064Y-99265500D01*
X176272936Y-100735500D02*
X176727064Y-100735500D01*
X148272936Y-93265500D02*
X148727064Y-93265500D01*
X148272936Y-94735500D02*
X148727064Y-94735500D01*
X176272936Y-33265500D02*
X176727064Y-33265500D01*
X176272936Y-34735500D02*
X176727064Y-34735500D01*
X190272936Y-87265500D02*
X190727064Y-87265500D01*
X190272936Y-88735500D02*
X190727064Y-88735500D01*
X134272936Y-69265500D02*
X134727064Y-69265500D01*
X134272936Y-70735500D02*
X134727064Y-70735500D01*
X120272936Y-45265500D02*
X120727064Y-45265500D01*
X120272936Y-46735500D02*
X120727064Y-46735500D01*
X148272936Y-33265500D02*
X148727064Y-33265500D01*
X148272936Y-34735500D02*
X148727064Y-34735500D01*
X190272936Y-81265500D02*
X190727064Y-81265500D01*
X190272936Y-82735500D02*
X190727064Y-82735500D01*
X148272936Y-81265500D02*
X148727064Y-81265500D01*
X148272936Y-82735500D02*
X148727064Y-82735500D01*
X134272936Y-39265500D02*
X134727064Y-39265500D01*
X134272936Y-40735500D02*
X134727064Y-40735500D01*
X162272936Y-45265500D02*
X162727064Y-45265500D01*
X162272936Y-46735500D02*
X162727064Y-46735500D01*
X148272936Y-99265500D02*
X148727064Y-99265500D01*
X148272936Y-100735500D02*
X148727064Y-100735500D01*
X106272936Y-33265500D02*
X106727064Y-33265500D01*
X106272936Y-34735500D02*
X106727064Y-34735500D01*
X106272936Y-45265500D02*
X106727064Y-45265500D01*
X106272936Y-46735500D02*
X106727064Y-46735500D01*
X106272936Y-99265500D02*
X106727064Y-99265500D01*
X106272936Y-100735500D02*
X106727064Y-100735500D01*
X120272936Y-75265500D02*
X120727064Y-75265500D01*
X120272936Y-76735500D02*
X120727064Y-76735500D01*
X176272936Y-27265500D02*
X176727064Y-27265500D01*
X176272936Y-28735500D02*
X176727064Y-28735500D01*
X106272936Y-39265500D02*
X106727064Y-39265500D01*
X106272936Y-40735500D02*
X106727064Y-40735500D01*
X134272936Y-81265500D02*
X134727064Y-81265500D01*
X134272936Y-82735500D02*
X134727064Y-82735500D01*
X190272936Y-75265500D02*
X190727064Y-75265500D01*
X190272936Y-76735500D02*
X190727064Y-76735500D01*
X176272936Y-75265500D02*
X176727064Y-75265500D01*
X176272936Y-76735500D02*
X176727064Y-76735500D01*
X162272936Y-63265500D02*
X162727064Y-63265500D01*
X162272936Y-64735500D02*
X162727064Y-64735500D01*
X162272936Y-105265500D02*
X162727064Y-105265500D01*
X162272936Y-106735500D02*
X162727064Y-106735500D01*
X134272936Y-33265500D02*
X134727064Y-33265500D01*
X134272936Y-34735500D02*
X134727064Y-34735500D01*
X120272936Y-105265500D02*
X120727064Y-105265500D01*
X120272936Y-106735500D02*
X120727064Y-106735500D01*
X148272936Y-75265500D02*
X148727064Y-75265500D01*
X148272936Y-76735500D02*
X148727064Y-76735500D01*
X120272936Y-57265500D02*
X120727064Y-57265500D01*
X120272936Y-58735500D02*
X120727064Y-58735500D01*
X148272936Y-51265500D02*
X148727064Y-51265500D01*
X148272936Y-52735500D02*
X148727064Y-52735500D01*
X148272936Y-39265500D02*
X148727064Y-39265500D01*
X148272936Y-40735500D02*
X148727064Y-40735500D01*
X134272936Y-87265500D02*
X134727064Y-87265500D01*
X134272936Y-88735500D02*
X134727064Y-88735500D01*
X162272936Y-75265500D02*
X162727064Y-75265500D01*
X162272936Y-76735500D02*
X162727064Y-76735500D01*
X162272936Y-87265500D02*
X162727064Y-87265500D01*
X162272936Y-88735500D02*
X162727064Y-88735500D01*
X134272936Y-45265500D02*
X134727064Y-45265500D01*
X134272936Y-46735500D02*
X134727064Y-46735500D01*
X120272936Y-93265500D02*
X120727064Y-93265500D01*
X120272936Y-94735500D02*
X120727064Y-94735500D01*
X162272936Y-51265500D02*
X162727064Y-51265500D01*
X162272936Y-52735500D02*
X162727064Y-52735500D01*
X134272936Y-93265500D02*
X134727064Y-93265500D01*
X134272936Y-94735500D02*
X134727064Y-94735500D01*
X148272936Y-69265500D02*
X148727064Y-69265500D01*
X148272936Y-70735500D02*
X148727064Y-70735500D01*
X162272936Y-81265500D02*
X162727064Y-81265500D01*
X162272936Y-82735500D02*
X162727064Y-82735500D01*
X190272936Y-45265500D02*
X190727064Y-45265500D01*
X190272936Y-46735500D02*
X190727064Y-46735500D01*
X176272936Y-105265500D02*
X176727064Y-105265500D01*
X176272936Y-106735500D02*
X176727064Y-106735500D01*
X176272936Y-63265500D02*
X176727064Y-63265500D01*
X176272936Y-64735500D02*
X176727064Y-64735500D01*
X106272936Y-27265500D02*
X106727064Y-27265500D01*
X106272936Y-28735500D02*
X106727064Y-28735500D01*
X106272936Y-93265500D02*
X106727064Y-93265500D01*
X106272936Y-94735500D02*
X106727064Y-94735500D01*
X106272936Y-57265500D02*
X106727064Y-57265500D01*
X106272936Y-58735500D02*
X106727064Y-58735500D01*
X148272936Y-27265500D02*
X148727064Y-27265500D01*
X148272936Y-28735500D02*
X148727064Y-28735500D01*
X162272936Y-33265500D02*
X162727064Y-33265500D01*
X162272936Y-34735500D02*
X162727064Y-34735500D01*
X162272936Y-99265500D02*
X162727064Y-99265500D01*
X162272936Y-100735500D02*
X162727064Y-100735500D01*
X148272936Y-105265500D02*
X148727064Y-105265500D01*
X148272936Y-106735500D02*
X148727064Y-106735500D01*
X190272936Y-105265500D02*
X190727064Y-105265500D01*
X190272936Y-106735500D02*
X190727064Y-106735500D01*
X190272936Y-51265500D02*
X190727064Y-51265500D01*
X190272936Y-52735500D02*
X190727064Y-52735500D01*
X176272936Y-39265500D02*
X176727064Y-39265500D01*
X176272936Y-40735500D02*
X176727064Y-40735500D01*
X176272936Y-45265500D02*
X176727064Y-45265500D01*
X176272936Y-46735500D02*
X176727064Y-46735500D01*
X134272936Y-99265500D02*
X134727064Y-99265500D01*
X134272936Y-100735500D02*
X134727064Y-100735500D01*
X134272936Y-75265500D02*
X134727064Y-75265500D01*
X134272936Y-76735500D02*
X134727064Y-76735500D01*
X162272936Y-57265500D02*
X162727064Y-57265500D01*
X162272936Y-58735500D02*
X162727064Y-58735500D01*
X190272936Y-69265500D02*
X190727064Y-69265500D01*
X190272936Y-70735500D02*
X190727064Y-70735500D01*
X134272936Y-57265500D02*
X134727064Y-57265500D01*
X134272936Y-58735500D02*
X134727064Y-58735500D01*
X134272936Y-105265500D02*
X134727064Y-105265500D01*
X134272936Y-106735500D02*
X134727064Y-106735500D01*
X190272936Y-57265500D02*
X190727064Y-57265500D01*
X190272936Y-58735500D02*
X190727064Y-58735500D01*
X120272936Y-63265500D02*
X120727064Y-63265500D01*
X120272936Y-64735500D02*
X120727064Y-64735500D01*
X162272936Y-93265500D02*
X162727064Y-93265500D01*
X162272936Y-94735500D02*
X162727064Y-94735500D01*
%TD*%
M02*
