%TF.GenerationSoftware,KiCad,Pcbnew,10.0.1*%
%TF.CreationDate,2026-04-26T18:20:22+02:00*%
%TF.ProjectId,fs_SAO,66735f53-414f-42e6-9b69-6361645f7063,rev?*%
%TF.SameCoordinates,Original*%
%TF.FileFunction,Copper,L1,Top*%
%TF.FilePolarity,Positive*%
%FSLAX46Y46*%
G04 Gerber Fmt 4.6, Leading zero omitted, Abs format (unit mm)*
G04 Created by KiCad (PCBNEW 10.0.1) date 2026-04-26 18:20:22*
%MOMM*%
%LPD*%
G01*
G04 APERTURE LIST*
G04 Aperture macros list*
%AMRoundRect*
0 Rectangle with rounded corners*
0 $1 Rounding radius*
0 $2 $3 $4 $5 $6 $7 $8 $9 X,Y pos of 4 corners*
0 Add a 4 corners polygon primitive as box body*
4,1,4,$2,$3,$4,$5,$6,$7,$8,$9,$2,$3,0*
0 Add four circle primitives for the rounded corners*
1,1,$1+$1,$2,$3*
1,1,$1+$1,$4,$5*
1,1,$1+$1,$6,$7*
1,1,$1+$1,$8,$9*
0 Add four rect primitives between the rounded corners*
20,1,$1+$1,$2,$3,$4,$5,0*
20,1,$1+$1,$4,$5,$6,$7,0*
20,1,$1+$1,$6,$7,$8,$9,0*
20,1,$1+$1,$8,$9,$2,$3,0*%
G04 Aperture macros list end*
%TA.AperFunction,SMDPad,CuDef*%
%ADD10RoundRect,0.250000X-2.250000X-0.260000X2.250000X-0.260000X2.250000X0.260000X-2.250000X0.260000X0*%
%TD*%
%TA.AperFunction,ComponentPad*%
%ADD11C,2.600000*%
%TD*%
%TA.AperFunction,ConnectorPad*%
%ADD12C,4.400000*%
%TD*%
%TA.AperFunction,Conductor*%
%ADD13C,0.400000*%
%TD*%
G04 APERTURE END LIST*
D10*
%TO.P,J1,1,Pin_1_1*%
%TO.N,Net-(J1-Pin_1)*%
X148200000Y-82460000D03*
%TO.P,J1,2,Pin_2_2*%
%TO.N,Net-(J1-Pin_2)*%
X155800000Y-82460000D03*
%TO.P,J1,3,Pin_3_3*%
%TO.N,Net-(J1-Pin_3)*%
X148200000Y-85000000D03*
%TO.P,J1,4,Pin_4_4*%
%TO.N,Net-(J1-Pin_4)*%
X155800000Y-85000000D03*
%TO.P,J1,5,Pin_5_5*%
%TO.N,Net-(J1-Pin_5)*%
X148200000Y-87540000D03*
%TO.P,J1,6,Pin_6_6*%
%TO.N,Net-(J1-Pin_6)*%
X155800000Y-87540000D03*
%TD*%
D11*
%TO.P,H5,1,1_1*%
%TO.N,Net-(J1-Pin_4)*%
X162000000Y-85000000D03*
D12*
X162000000Y-85000000D03*
%TD*%
D11*
%TO.P,H3,1,1_1*%
%TO.N,Net-(J1-Pin_5)*%
X142000000Y-91000000D03*
D12*
X142000000Y-91000000D03*
%TD*%
D11*
%TO.P,H1,1,1_1*%
%TO.N,Net-(J1-Pin_1)*%
X142000000Y-79000000D03*
D12*
X142000000Y-79000000D03*
%TD*%
D11*
%TO.P,H2,1,1_1*%
%TO.N,Net-(J1-Pin_3)*%
X142000000Y-85000000D03*
D12*
X142000000Y-85000000D03*
%TD*%
D11*
%TO.P,H6,1,1_1*%
%TO.N,Net-(J1-Pin_6)*%
X162000000Y-91000000D03*
D12*
X162000000Y-91000000D03*
%TD*%
D11*
%TO.P,H4,1,1_1*%
%TO.N,Net-(J1-Pin_2)*%
X162000000Y-79000000D03*
D12*
X162000000Y-79000000D03*
%TD*%
%TO.N,Net-(J1-Pin_1)*%
D13*
X142000000Y-79000000D02*
X147000000Y-79000000D01*
X147000000Y-79000000D02*
X148200000Y-80200000D01*
X148200000Y-80200000D02*
X148200000Y-82460000D01*
%TO.N,Net-(J1-Pin_3)*%
X142000000Y-85000000D02*
X148200000Y-85000000D01*
%TO.N,Net-(J1-Pin_5)*%
X142000000Y-91000000D02*
X146600000Y-91000000D01*
X146600000Y-91000000D02*
X148200000Y-89400000D01*
X148200000Y-89400000D02*
X148200000Y-87540000D01*
%TO.N,Net-(J1-Pin_2)*%
X157400000Y-79000000D02*
X155800000Y-80600000D01*
X162000000Y-79000000D02*
X157400000Y-79000000D01*
X155800000Y-80600000D02*
X155800000Y-82460000D01*
%TO.N,Net-(J1-Pin_4)*%
X162000000Y-85000000D02*
X155800000Y-85000000D01*
%TO.N,Net-(J1-Pin_6)*%
X157200000Y-91000000D02*
X155800000Y-89600000D01*
X155800000Y-89600000D02*
X155800000Y-87540000D01*
X162000000Y-91000000D02*
X157200000Y-91000000D01*
%TD*%
M02*
