%TF.GenerationSoftware,KiCad,Pcbnew,10.0.0*%
%TF.CreationDate,2026-03-26T02:04:37+01:00*%
%TF.ProjectId,resistor_0805_order,72657369-7374-46f7-925f-303830355f6f,rev?*%
%TF.SameCoordinates,Original*%
%TF.FileFunction,Copper,L1,Top*%
%TF.FilePolarity,Positive*%
%FSLAX46Y46*%
G04 Gerber Fmt 4.6, Leading zero omitted, Abs format (unit mm)*
G04 Created by KiCad (PCBNEW 10.0.0) date 2026-03-26 02:04:37*
%MOMM*%
%LPD*%
G01*
G04 APERTURE LIST*
G04 Aperture macros list*
%AMRoundRect*
0 Rectangle with rounded corners*
0 $1 Rounding radius*
0 $2 $3 $4 $5 $6 $7 $8 $9 X,Y pos of 4 corners*
0 Add a 4 corners polygon primitive as box body*
4,1,4,$2,$3,$4,$5,$6,$7,$8,$9,$2,$3,0*
0 Add four circle primitives for the rounded corners*
1,1,$1+$1,$2,$3*
1,1,$1+$1,$4,$5*
1,1,$1+$1,$6,$7*
1,1,$1+$1,$8,$9*
0 Add four rect primitives between the rounded corners*
20,1,$1+$1,$2,$3,$4,$5,0*
20,1,$1+$1,$4,$5,$6,$7,0*
20,1,$1+$1,$6,$7,$8,$9,0*
20,1,$1+$1,$8,$9,$2,$3,0*%
G04 Aperture macros list end*
%TA.AperFunction,ComponentPad*%
%ADD10C,2.600000*%
%TD*%
%TA.AperFunction,ConnectorPad*%
%ADD11C,3.800000*%
%TD*%
%TA.AperFunction,SMDPad,CuDef*%
%ADD12RoundRect,0.237500X0.237500X-0.250000X0.237500X0.250000X-0.237500X0.250000X-0.237500X-0.250000X0*%
%TD*%
%TA.AperFunction,SMDPad,CuDef*%
%ADD13RoundRect,0.237500X0.237500X-0.287500X0.237500X0.287500X-0.237500X0.287500X-0.237500X-0.287500X0*%
%TD*%
%TA.AperFunction,Conductor*%
%ADD14C,0.200000*%
%TD*%
G04 APERTURE END LIST*
D10*
%TO.P,H1,1,1_1*%
%TO.N,Board_72-Net-(D1-A)*%
X106500000Y-101000500D03*
D11*
X106500000Y-101000500D03*
%TD*%
D12*
%TO.P,R1,1*%
%TO.N,Board_4-Net-(D1-K)*%
X171800000Y-29913000D03*
%TO.P,R1,2*%
%TO.N,Board_4-Net-(H2-Pad1)*%
X171800000Y-28088000D03*
%TD*%
D10*
%TO.P,H1,1,1_1*%
%TO.N,Board_17-Net-(D1-A)*%
X181500000Y-41000500D03*
D11*
X181500000Y-41000500D03*
%TD*%
D10*
%TO.P,H1,1,1_1*%
%TO.N,Board_26-Net-(D1-A)*%
X136500000Y-53000500D03*
D11*
X136500000Y-53000500D03*
%TD*%
D10*
%TO.P,H1,1,1_1*%
%TO.N,Board_44-Net-(D1-A)*%
X136500000Y-71000500D03*
D11*
X136500000Y-71000500D03*
%TD*%
D10*
%TO.P,H1,1,1_1*%
%TO.N,Board_82-Net-(D1-A)*%
X166500000Y-107000500D03*
D11*
X166500000Y-107000500D03*
%TD*%
D10*
%TO.P,H2,1,1_1*%
%TO.N,Board_28-Net-(H2-Pad1)*%
X175500000Y-53000500D03*
D11*
X175500000Y-53000500D03*
%TD*%
D10*
%TO.P,H1,1,1_1*%
%TO.N,Board_23-Net-(D1-A)*%
X181500000Y-47000500D03*
D11*
X181500000Y-47000500D03*
%TD*%
D13*
%TO.P,D1,1,K_1*%
%TO.N,Board_39-Net-(D1-K)*%
X155200000Y-65875500D03*
%TO.P,D1,2,A_2*%
%TO.N,Board_39-Net-(D1-A)*%
X155200000Y-64125500D03*
%TD*%
D10*
%TO.P,H2,1,1_1*%
%TO.N,Board_62-Net-(H2-Pad1)*%
X145500000Y-89000500D03*
D11*
X145500000Y-89000500D03*
%TD*%
D13*
%TO.P,D1,1,K_1*%
%TO.N,Board_82-Net-(D1-K)*%
X170200000Y-107875500D03*
%TO.P,D1,2,A_2*%
%TO.N,Board_82-Net-(D1-A)*%
X170200000Y-106125500D03*
%TD*%
%TO.P,D1,1,K_1*%
%TO.N,Board_33-Net-(D1-K)*%
X155200000Y-59875500D03*
%TO.P,D1,2,A_2*%
%TO.N,Board_33-Net-(D1-A)*%
X155200000Y-58125500D03*
%TD*%
D12*
%TO.P,R1,1*%
%TO.N,Board_39-Net-(D1-K)*%
X156800000Y-65913000D03*
%TO.P,R1,2*%
%TO.N,Board_39-Net-(H2-Pad1)*%
X156800000Y-64088000D03*
%TD*%
D13*
%TO.P,D1,1,K_1*%
%TO.N,Board_57-Net-(D1-K)*%
X155200000Y-83875500D03*
%TO.P,D1,2,A_2*%
%TO.N,Board_57-Net-(D1-A)*%
X155200000Y-82125500D03*
%TD*%
D10*
%TO.P,H2,1,1_1*%
%TO.N,Board_25-Net-(H2-Pad1)*%
X130500000Y-53000500D03*
D11*
X130500000Y-53000500D03*
%TD*%
D10*
%TO.P,H2,1,1_1*%
%TO.N,Board_8-Net-(H2-Pad1)*%
X145500000Y-35000500D03*
D11*
X145500000Y-35000500D03*
%TD*%
D10*
%TO.P,H2,1,1_1*%
%TO.N,Board_48-Net-(H2-Pad1)*%
X115500000Y-77000500D03*
D11*
X115500000Y-77000500D03*
%TD*%
D10*
%TO.P,H2,1,1_1*%
%TO.N,Board_37-Net-(H2-Pad1)*%
X130500000Y-65000500D03*
D11*
X130500000Y-65000500D03*
%TD*%
D10*
%TO.P,H2,1,1_1*%
%TO.N,Board_21-Net-(H2-Pad1)*%
X160500000Y-47000500D03*
D11*
X160500000Y-47000500D03*
%TD*%
D10*
%TO.P,H1,1,1_1*%
%TO.N,Board_61-Net-(D1-A)*%
X121500000Y-89000500D03*
D11*
X121500000Y-89000500D03*
%TD*%
D12*
%TO.P,R1,1*%
%TO.N,Board_65-Net-(D1-K)*%
X186800000Y-89913000D03*
%TO.P,R1,2*%
%TO.N,Board_65-Net-(H2-Pad1)*%
X186800000Y-88088000D03*
%TD*%
%TO.P,R1,1*%
%TO.N,Board_5-Net-(D1-K)*%
X186800000Y-29913000D03*
%TO.P,R1,2*%
%TO.N,Board_5-Net-(H2-Pad1)*%
X186800000Y-28088000D03*
%TD*%
D13*
%TO.P,D1,1,K_1*%
%TO.N,Board_73-Net-(D1-K)*%
X125200000Y-101875500D03*
%TO.P,D1,2,A_2*%
%TO.N,Board_73-Net-(D1-A)*%
X125200000Y-100125500D03*
%TD*%
D12*
%TO.P,R1,1*%
%TO.N,Board_3-Net-(D1-K)*%
X156800000Y-29913000D03*
%TO.P,R1,2*%
%TO.N,Board_3-Net-(H2-Pad1)*%
X156800000Y-28088000D03*
%TD*%
D13*
%TO.P,D1,1,K_1*%
%TO.N,Board_24-Net-(D1-K)*%
X110200000Y-53875500D03*
%TO.P,D1,2,A_2*%
%TO.N,Board_24-Net-(D1-A)*%
X110200000Y-52125500D03*
%TD*%
D10*
%TO.P,H2,1,1_1*%
%TO.N,Board_26-Net-(H2-Pad1)*%
X145500000Y-53000500D03*
D11*
X145500000Y-53000500D03*
%TD*%
D10*
%TO.P,H2,1,1_1*%
%TO.N,Board_72-Net-(H2-Pad1)*%
X115500000Y-101000500D03*
D11*
X115500000Y-101000500D03*
%TD*%
D10*
%TO.P,H2,1,1_1*%
%TO.N,Board_63-Net-(H2-Pad1)*%
X160500000Y-89000500D03*
D11*
X160500000Y-89000500D03*
%TD*%
D10*
%TO.P,H1,1,1_1*%
%TO.N,Board_59-Net-(D1-A)*%
X181500000Y-83000500D03*
D11*
X181500000Y-83000500D03*
%TD*%
D13*
%TO.P,D1,1,K_1*%
%TO.N,Board_63-Net-(D1-K)*%
X155200000Y-89875500D03*
%TO.P,D1,2,A_2*%
%TO.N,Board_63-Net-(D1-A)*%
X155200000Y-88125500D03*
%TD*%
%TO.P,D1,1,K_1*%
%TO.N,Board_38-Net-(D1-K)*%
X140200000Y-65875500D03*
%TO.P,D1,2,A_2*%
%TO.N,Board_38-Net-(D1-A)*%
X140200000Y-64125500D03*
%TD*%
D10*
%TO.P,H1,1,1_1*%
%TO.N,Board_19-Net-(D1-A)*%
X121500000Y-47000500D03*
D11*
X121500000Y-47000500D03*
%TD*%
D13*
%TO.P,D1,1,K_1*%
%TO.N,Board_50-Net-(D1-K)*%
X140200000Y-77875500D03*
%TO.P,D1,2,A_2*%
%TO.N,Board_50-Net-(D1-A)*%
X140200000Y-76125500D03*
%TD*%
D12*
%TO.P,R1,1*%
%TO.N,Board_8-Net-(D1-K)*%
X141800000Y-35913000D03*
%TO.P,R1,2*%
%TO.N,Board_8-Net-(H2-Pad1)*%
X141800000Y-34088000D03*
%TD*%
%TO.P,R1,1*%
%TO.N,Board_49-Net-(D1-K)*%
X126800000Y-77913000D03*
%TO.P,R1,2*%
%TO.N,Board_49-Net-(H2-Pad1)*%
X126800000Y-76088000D03*
%TD*%
D13*
%TO.P,D1,1,K_1*%
%TO.N,Board_59-Net-(D1-K)*%
X185200000Y-83875500D03*
%TO.P,D1,2,A_2*%
%TO.N,Board_59-Net-(D1-A)*%
X185200000Y-82125500D03*
%TD*%
%TO.P,D1,1,K_1*%
%TO.N,Board_16-Net-(D1-K)*%
X170200000Y-41875500D03*
%TO.P,D1,2,A_2*%
%TO.N,Board_16-Net-(D1-A)*%
X170200000Y-40125500D03*
%TD*%
D10*
%TO.P,H2,1,1_1*%
%TO.N,Board_1-Net-(H2-Pad1)*%
X130500000Y-29000500D03*
D11*
X130500000Y-29000500D03*
%TD*%
D12*
%TO.P,R1,1*%
%TO.N,Board_36-Net-(D1-K)*%
X111800000Y-65913000D03*
%TO.P,R1,2*%
%TO.N,Board_36-Net-(H2-Pad1)*%
X111800000Y-64088000D03*
%TD*%
%TO.P,R1,1*%
%TO.N,Board_59-Net-(D1-K)*%
X186800000Y-83913000D03*
%TO.P,R1,2*%
%TO.N,Board_59-Net-(H2-Pad1)*%
X186800000Y-82088000D03*
%TD*%
D10*
%TO.P,H1,1,1_1*%
%TO.N,Board_51-Net-(D1-A)*%
X151500000Y-77000500D03*
D11*
X151500000Y-77000500D03*
%TD*%
D12*
%TO.P,R1,1*%
%TO.N,Board_66-Net-(D1-K)*%
X111800000Y-95913000D03*
%TO.P,R1,2*%
%TO.N,Board_66-Net-(H2-Pad1)*%
X111800000Y-94088000D03*
%TD*%
D13*
%TO.P,D1,1,K_1*%
%TO.N,Board_35-Net-(D1-K)*%
X185200000Y-59875500D03*
%TO.P,D1,2,A_2*%
%TO.N,Board_35-Net-(D1-A)*%
X185200000Y-58125500D03*
%TD*%
D10*
%TO.P,H1,1,1_1*%
%TO.N,Board_33-Net-(D1-A)*%
X151500000Y-59000500D03*
D11*
X151500000Y-59000500D03*
%TD*%
D10*
%TO.P,H2,1,1_1*%
%TO.N,Board_51-Net-(H2-Pad1)*%
X160500000Y-77000500D03*
D11*
X160500000Y-77000500D03*
%TD*%
D10*
%TO.P,H2,1,1_1*%
%TO.N,Board_27-Net-(H2-Pad1)*%
X160500000Y-53000500D03*
D11*
X160500000Y-53000500D03*
%TD*%
D12*
%TO.P,R1,1*%
%TO.N,Board_7-Net-(D1-K)*%
X126800000Y-35913000D03*
%TO.P,R1,2*%
%TO.N,Board_7-Net-(H2-Pad1)*%
X126800000Y-34088000D03*
%TD*%
D10*
%TO.P,H2,1,1_1*%
%TO.N,Board_0-Net-(H2-Pad1)*%
X115500000Y-29000500D03*
D11*
X115500000Y-29000500D03*
%TD*%
D10*
%TO.P,H2,1,1_1*%
%TO.N,Board_18-Net-(H2-Pad1)*%
X115500000Y-47000500D03*
D11*
X115500000Y-47000500D03*
%TD*%
D10*
%TO.P,H2,1,1_1*%
%TO.N,Board_46-Net-(H2-Pad1)*%
X175500000Y-71000500D03*
D11*
X175500000Y-71000500D03*
%TD*%
D12*
%TO.P,R1,1*%
%TO.N,Board_11-Net-(D1-K)*%
X186800000Y-35913000D03*
%TO.P,R1,2*%
%TO.N,Board_11-Net-(H2-Pad1)*%
X186800000Y-34088000D03*
%TD*%
D13*
%TO.P,D1,1,K_1*%
%TO.N,Board_78-Net-(D1-K)*%
X110200000Y-107875500D03*
%TO.P,D1,2,A_2*%
%TO.N,Board_78-Net-(D1-A)*%
X110200000Y-106125500D03*
%TD*%
D10*
%TO.P,H1,1,1_1*%
%TO.N,Board_12-Net-(D1-A)*%
X106500000Y-41000500D03*
D11*
X106500000Y-41000500D03*
%TD*%
D12*
%TO.P,R1,1*%
%TO.N,Board_61-Net-(D1-K)*%
X126800000Y-89913000D03*
%TO.P,R1,2*%
%TO.N,Board_61-Net-(H2-Pad1)*%
X126800000Y-88088000D03*
%TD*%
D10*
%TO.P,H1,1,1_1*%
%TO.N,Board_0-Net-(D1-A)*%
X106500000Y-29000500D03*
D11*
X106500000Y-29000500D03*
%TD*%
D10*
%TO.P,H1,1,1_1*%
%TO.N,Board_10-Net-(D1-A)*%
X166500000Y-35000500D03*
D11*
X166500000Y-35000500D03*
%TD*%
D12*
%TO.P,R1,1*%
%TO.N,Board_34-Net-(D1-K)*%
X171800000Y-59913000D03*
%TO.P,R1,2*%
%TO.N,Board_34-Net-(H2-Pad1)*%
X171800000Y-58088000D03*
%TD*%
D13*
%TO.P,D1,1,K_1*%
%TO.N,Board_48-Net-(D1-K)*%
X110200000Y-77875500D03*
%TO.P,D1,2,A_2*%
%TO.N,Board_48-Net-(D1-A)*%
X110200000Y-76125500D03*
%TD*%
D10*
%TO.P,H1,1,1_1*%
%TO.N,Board_4-Net-(D1-A)*%
X166500000Y-29000500D03*
D11*
X166500000Y-29000500D03*
%TD*%
D10*
%TO.P,H2,1,1_1*%
%TO.N,Board_22-Net-(H2-Pad1)*%
X175500000Y-47000500D03*
D11*
X175500000Y-47000500D03*
%TD*%
D10*
%TO.P,H1,1,1_1*%
%TO.N,Board_39-Net-(D1-A)*%
X151500000Y-65000500D03*
D11*
X151500000Y-65000500D03*
%TD*%
D10*
%TO.P,H1,1,1_1*%
%TO.N,Board_36-Net-(D1-A)*%
X106500000Y-65000500D03*
D11*
X106500000Y-65000500D03*
%TD*%
D12*
%TO.P,R1,1*%
%TO.N,Board_35-Net-(D1-K)*%
X186800000Y-59913000D03*
%TO.P,R1,2*%
%TO.N,Board_35-Net-(H2-Pad1)*%
X186800000Y-58088000D03*
%TD*%
D10*
%TO.P,H2,1,1_1*%
%TO.N,Board_56-Net-(H2-Pad1)*%
X145500000Y-83000500D03*
D11*
X145500000Y-83000500D03*
%TD*%
D10*
%TO.P,H2,1,1_1*%
%TO.N,Board_7-Net-(H2-Pad1)*%
X130500000Y-35000500D03*
D11*
X130500000Y-35000500D03*
%TD*%
D13*
%TO.P,D1,1,K_1*%
%TO.N,Board_55-Net-(D1-K)*%
X125200000Y-83875500D03*
%TO.P,D1,2,A_2*%
%TO.N,Board_55-Net-(D1-A)*%
X125200000Y-82125500D03*
%TD*%
%TO.P,D1,1,K_1*%
%TO.N,Board_17-Net-(D1-K)*%
X185200000Y-41875500D03*
%TO.P,D1,2,A_2*%
%TO.N,Board_17-Net-(D1-A)*%
X185200000Y-40125500D03*
%TD*%
D10*
%TO.P,H1,1,1_1*%
%TO.N,Board_56-Net-(D1-A)*%
X136500000Y-83000500D03*
D11*
X136500000Y-83000500D03*
%TD*%
D10*
%TO.P,H1,1,1_1*%
%TO.N,Board_74-Net-(D1-A)*%
X136500000Y-101000500D03*
D11*
X136500000Y-101000500D03*
%TD*%
D13*
%TO.P,D1,1,K_1*%
%TO.N,Board_1-Net-(D1-K)*%
X125200000Y-29875500D03*
%TO.P,D1,2,A_2*%
%TO.N,Board_1-Net-(D1-A)*%
X125200000Y-28125500D03*
%TD*%
%TO.P,D1,1,K_1*%
%TO.N,Board_21-Net-(D1-K)*%
X155200000Y-47875500D03*
%TO.P,D1,2,A_2*%
%TO.N,Board_21-Net-(D1-A)*%
X155200000Y-46125500D03*
%TD*%
D10*
%TO.P,H2,1,1_1*%
%TO.N,Board_58-Net-(H2-Pad1)*%
X175500000Y-83000500D03*
D11*
X175500000Y-83000500D03*
%TD*%
D10*
%TO.P,H1,1,1_1*%
%TO.N,Board_1-Net-(D1-A)*%
X121500000Y-29000500D03*
D11*
X121500000Y-29000500D03*
%TD*%
D10*
%TO.P,H1,1,1_1*%
%TO.N,Board_13-Net-(D1-A)*%
X121500000Y-41000500D03*
D11*
X121500000Y-41000500D03*
%TD*%
D10*
%TO.P,H1,1,1_1*%
%TO.N,Board_57-Net-(D1-A)*%
X151500000Y-83000500D03*
D11*
X151500000Y-83000500D03*
%TD*%
D12*
%TO.P,R1,1*%
%TO.N,Board_76-Net-(D1-K)*%
X171800000Y-101913000D03*
%TO.P,R1,2*%
%TO.N,Board_76-Net-(H2-Pad1)*%
X171800000Y-100088000D03*
%TD*%
%TO.P,R1,1*%
%TO.N,Board_16-Net-(D1-K)*%
X171800000Y-41913000D03*
%TO.P,R1,2*%
%TO.N,Board_16-Net-(H2-Pad1)*%
X171800000Y-40088000D03*
%TD*%
%TO.P,R1,1*%
%TO.N,Board_78-Net-(D1-K)*%
X111800000Y-107913000D03*
%TO.P,R1,2*%
%TO.N,Board_78-Net-(H2-Pad1)*%
X111800000Y-106088000D03*
%TD*%
D10*
%TO.P,H1,1,1_1*%
%TO.N,Board_15-Net-(D1-A)*%
X151500000Y-41000500D03*
D11*
X151500000Y-41000500D03*
%TD*%
D10*
%TO.P,H2,1,1_1*%
%TO.N,Board_53-Net-(H2-Pad1)*%
X190500000Y-77000500D03*
D11*
X190500000Y-77000500D03*
%TD*%
D10*
%TO.P,H1,1,1_1*%
%TO.N,Board_54-Net-(D1-A)*%
X106500000Y-83000500D03*
D11*
X106500000Y-83000500D03*
%TD*%
D10*
%TO.P,H2,1,1_1*%
%TO.N,Board_17-Net-(H2-Pad1)*%
X190500000Y-41000500D03*
D11*
X190500000Y-41000500D03*
%TD*%
D13*
%TO.P,D1,1,K_1*%
%TO.N,Board_43-Net-(D1-K)*%
X125200000Y-71875500D03*
%TO.P,D1,2,A_2*%
%TO.N,Board_43-Net-(D1-A)*%
X125200000Y-70125500D03*
%TD*%
D12*
%TO.P,R1,1*%
%TO.N,Board_42-Net-(D1-K)*%
X111800000Y-71913000D03*
%TO.P,R1,2*%
%TO.N,Board_42-Net-(H2-Pad1)*%
X111800000Y-70088000D03*
%TD*%
%TO.P,R1,1*%
%TO.N,Board_63-Net-(D1-K)*%
X156800000Y-89913000D03*
%TO.P,R1,2*%
%TO.N,Board_63-Net-(H2-Pad1)*%
X156800000Y-88088000D03*
%TD*%
D10*
%TO.P,H1,1,1_1*%
%TO.N,Board_80-Net-(D1-A)*%
X136500000Y-107000500D03*
D11*
X136500000Y-107000500D03*
%TD*%
D12*
%TO.P,R1,1*%
%TO.N,Board_17-Net-(D1-K)*%
X186800000Y-41913000D03*
%TO.P,R1,2*%
%TO.N,Board_17-Net-(H2-Pad1)*%
X186800000Y-40088000D03*
%TD*%
D13*
%TO.P,D1,1,K_1*%
%TO.N,Board_14-Net-(D1-K)*%
X140200000Y-41875500D03*
%TO.P,D1,2,A_2*%
%TO.N,Board_14-Net-(D1-A)*%
X140200000Y-40125500D03*
%TD*%
D12*
%TO.P,R1,1*%
%TO.N,Board_58-Net-(D1-K)*%
X171800000Y-83913000D03*
%TO.P,R1,2*%
%TO.N,Board_58-Net-(H2-Pad1)*%
X171800000Y-82088000D03*
%TD*%
%TO.P,R1,1*%
%TO.N,Board_32-Net-(D1-K)*%
X141800000Y-59913000D03*
%TO.P,R1,2*%
%TO.N,Board_32-Net-(H2-Pad1)*%
X141800000Y-58088000D03*
%TD*%
D10*
%TO.P,H2,1,1_1*%
%TO.N,Board_55-Net-(H2-Pad1)*%
X130500000Y-83000500D03*
D11*
X130500000Y-83000500D03*
%TD*%
D12*
%TO.P,R1,1*%
%TO.N,Board_74-Net-(D1-K)*%
X141800000Y-101913000D03*
%TO.P,R1,2*%
%TO.N,Board_74-Net-(H2-Pad1)*%
X141800000Y-100088000D03*
%TD*%
D10*
%TO.P,H1,1,1_1*%
%TO.N,Board_48-Net-(D1-A)*%
X106500000Y-77000500D03*
D11*
X106500000Y-77000500D03*
%TD*%
D12*
%TO.P,R1,1*%
%TO.N,Board_73-Net-(D1-K)*%
X126800000Y-101913000D03*
%TO.P,R1,2*%
%TO.N,Board_73-Net-(H2-Pad1)*%
X126800000Y-100088000D03*
%TD*%
D10*
%TO.P,H1,1,1_1*%
%TO.N,Board_40-Net-(D1-A)*%
X166500000Y-65000500D03*
D11*
X166500000Y-65000500D03*
%TD*%
D10*
%TO.P,H1,1,1_1*%
%TO.N,Board_47-Net-(D1-A)*%
X181500000Y-71000500D03*
D11*
X181500000Y-71000500D03*
%TD*%
D13*
%TO.P,D1,1,K_1*%
%TO.N,Board_76-Net-(D1-K)*%
X170200000Y-101875500D03*
%TO.P,D1,2,A_2*%
%TO.N,Board_76-Net-(D1-A)*%
X170200000Y-100125500D03*
%TD*%
%TO.P,D1,1,K_1*%
%TO.N,Board_23-Net-(D1-K)*%
X185200000Y-47875500D03*
%TO.P,D1,2,A_2*%
%TO.N,Board_23-Net-(D1-A)*%
X185200000Y-46125500D03*
%TD*%
D12*
%TO.P,R1,1*%
%TO.N,Board_71-Net-(D1-K)*%
X186800000Y-95913000D03*
%TO.P,R1,2*%
%TO.N,Board_71-Net-(H2-Pad1)*%
X186800000Y-94088000D03*
%TD*%
D10*
%TO.P,H1,1,1_1*%
%TO.N,Board_43-Net-(D1-A)*%
X121500000Y-71000500D03*
D11*
X121500000Y-71000500D03*
%TD*%
D10*
%TO.P,H2,1,1_1*%
%TO.N,Board_31-Net-(H2-Pad1)*%
X130500000Y-59000500D03*
D11*
X130500000Y-59000500D03*
%TD*%
D10*
%TO.P,H2,1,1_1*%
%TO.N,Board_2-Net-(H2-Pad1)*%
X145500000Y-29000500D03*
D11*
X145500000Y-29000500D03*
%TD*%
D13*
%TO.P,D1,1,K_1*%
%TO.N,Board_62-Net-(D1-K)*%
X140200000Y-89875500D03*
%TO.P,D1,2,A_2*%
%TO.N,Board_62-Net-(D1-A)*%
X140200000Y-88125500D03*
%TD*%
D10*
%TO.P,H2,1,1_1*%
%TO.N,Board_16-Net-(H2-Pad1)*%
X175500000Y-41000500D03*
D11*
X175500000Y-41000500D03*
%TD*%
D13*
%TO.P,D1,1,K_1*%
%TO.N,Board_37-Net-(D1-K)*%
X125200000Y-65875500D03*
%TO.P,D1,2,A_2*%
%TO.N,Board_37-Net-(D1-A)*%
X125200000Y-64125500D03*
%TD*%
%TO.P,D1,1,K_1*%
%TO.N,Board_40-Net-(D1-K)*%
X170200000Y-65875500D03*
%TO.P,D1,2,A_2*%
%TO.N,Board_40-Net-(D1-A)*%
X170200000Y-64125500D03*
%TD*%
%TO.P,D1,1,K_1*%
%TO.N,Board_13-Net-(D1-K)*%
X125200000Y-41875500D03*
%TO.P,D1,2,A_2*%
%TO.N,Board_13-Net-(D1-A)*%
X125200000Y-40125500D03*
%TD*%
D12*
%TO.P,R1,1*%
%TO.N,Board_69-Net-(D1-K)*%
X156800000Y-95913000D03*
%TO.P,R1,2*%
%TO.N,Board_69-Net-(H2-Pad1)*%
X156800000Y-94088000D03*
%TD*%
D10*
%TO.P,H2,1,1_1*%
%TO.N,Board_9-Net-(H2-Pad1)*%
X160500000Y-35000500D03*
D11*
X160500000Y-35000500D03*
%TD*%
D13*
%TO.P,D1,1,K_1*%
%TO.N,Board_42-Net-(D1-K)*%
X110200000Y-71875500D03*
%TO.P,D1,2,A_2*%
%TO.N,Board_42-Net-(D1-A)*%
X110200000Y-70125500D03*
%TD*%
D10*
%TO.P,H1,1,1_1*%
%TO.N,Board_42-Net-(D1-A)*%
X106500000Y-71000500D03*
D11*
X106500000Y-71000500D03*
%TD*%
D12*
%TO.P,R1,1*%
%TO.N,Board_9-Net-(D1-K)*%
X156800000Y-35913000D03*
%TO.P,R1,2*%
%TO.N,Board_9-Net-(H2-Pad1)*%
X156800000Y-34088000D03*
%TD*%
D10*
%TO.P,H2,1,1_1*%
%TO.N,Board_57-Net-(H2-Pad1)*%
X160500000Y-83000500D03*
D11*
X160500000Y-83000500D03*
%TD*%
D10*
%TO.P,H2,1,1_1*%
%TO.N,Board_66-Net-(H2-Pad1)*%
X115500000Y-95000500D03*
D11*
X115500000Y-95000500D03*
%TD*%
D10*
%TO.P,H1,1,1_1*%
%TO.N,Board_2-Net-(D1-A)*%
X136500000Y-29000500D03*
D11*
X136500000Y-29000500D03*
%TD*%
D13*
%TO.P,D1,1,K_1*%
%TO.N,Board_75-Net-(D1-K)*%
X155200000Y-101875500D03*
%TO.P,D1,2,A_2*%
%TO.N,Board_75-Net-(D1-A)*%
X155200000Y-100125500D03*
%TD*%
D10*
%TO.P,H1,1,1_1*%
%TO.N,Board_21-Net-(D1-A)*%
X151500000Y-47000500D03*
D11*
X151500000Y-47000500D03*
%TD*%
D10*
%TO.P,H2,1,1_1*%
%TO.N,Board_67-Net-(H2-Pad1)*%
X130500000Y-95000500D03*
D11*
X130500000Y-95000500D03*
%TD*%
D10*
%TO.P,H2,1,1_1*%
%TO.N,Board_83-Net-(H2-Pad1)*%
X190500000Y-107000500D03*
D11*
X190500000Y-107000500D03*
%TD*%
D10*
%TO.P,H2,1,1_1*%
%TO.N,Board_33-Net-(H2-Pad1)*%
X160500000Y-59000500D03*
D11*
X160500000Y-59000500D03*
%TD*%
D10*
%TO.P,H2,1,1_1*%
%TO.N,Board_68-Net-(H2-Pad1)*%
X145500000Y-95000500D03*
D11*
X145500000Y-95000500D03*
%TD*%
D10*
%TO.P,H1,1,1_1*%
%TO.N,Board_22-Net-(D1-A)*%
X166500000Y-47000500D03*
D11*
X166500000Y-47000500D03*
%TD*%
D10*
%TO.P,H2,1,1_1*%
%TO.N,Board_32-Net-(H2-Pad1)*%
X145500000Y-59000500D03*
D11*
X145500000Y-59000500D03*
%TD*%
D10*
%TO.P,H1,1,1_1*%
%TO.N,Board_50-Net-(D1-A)*%
X136500000Y-77000500D03*
D11*
X136500000Y-77000500D03*
%TD*%
D12*
%TO.P,R1,1*%
%TO.N,Board_70-Net-(D1-K)*%
X171800000Y-95913000D03*
%TO.P,R1,2*%
%TO.N,Board_70-Net-(H2-Pad1)*%
X171800000Y-94088000D03*
%TD*%
%TO.P,R1,1*%
%TO.N,Board_21-Net-(D1-K)*%
X156800000Y-47913000D03*
%TO.P,R1,2*%
%TO.N,Board_21-Net-(H2-Pad1)*%
X156800000Y-46088000D03*
%TD*%
D10*
%TO.P,H1,1,1_1*%
%TO.N,Board_63-Net-(D1-A)*%
X151500000Y-89000500D03*
D11*
X151500000Y-89000500D03*
%TD*%
D10*
%TO.P,H1,1,1_1*%
%TO.N,Board_14-Net-(D1-A)*%
X136500000Y-41000500D03*
D11*
X136500000Y-41000500D03*
%TD*%
D10*
%TO.P,H1,1,1_1*%
%TO.N,Board_64-Net-(D1-A)*%
X166500000Y-89000500D03*
D11*
X166500000Y-89000500D03*
%TD*%
D10*
%TO.P,H2,1,1_1*%
%TO.N,Board_70-Net-(H2-Pad1)*%
X175500000Y-95000500D03*
D11*
X175500000Y-95000500D03*
%TD*%
D12*
%TO.P,R1,1*%
%TO.N,Board_83-Net-(D1-K)*%
X186800000Y-107913000D03*
%TO.P,R1,2*%
%TO.N,Board_83-Net-(H2-Pad1)*%
X186800000Y-106088000D03*
%TD*%
D13*
%TO.P,D1,1,K_1*%
%TO.N,Board_0-Net-(D1-K)*%
X110200000Y-29875500D03*
%TO.P,D1,2,A_2*%
%TO.N,Board_0-Net-(D1-A)*%
X110200000Y-28125500D03*
%TD*%
D10*
%TO.P,H2,1,1_1*%
%TO.N,Board_82-Net-(H2-Pad1)*%
X175500000Y-107000500D03*
D11*
X175500000Y-107000500D03*
%TD*%
D13*
%TO.P,D1,1,K_1*%
%TO.N,Board_9-Net-(D1-K)*%
X155200000Y-35875500D03*
%TO.P,D1,2,A_2*%
%TO.N,Board_9-Net-(D1-A)*%
X155200000Y-34125500D03*
%TD*%
D10*
%TO.P,H2,1,1_1*%
%TO.N,Board_76-Net-(H2-Pad1)*%
X175500000Y-101000500D03*
D11*
X175500000Y-101000500D03*
%TD*%
D12*
%TO.P,R1,1*%
%TO.N,Board_23-Net-(D1-K)*%
X186800000Y-47913000D03*
%TO.P,R1,2*%
%TO.N,Board_23-Net-(H2-Pad1)*%
X186800000Y-46088000D03*
%TD*%
%TO.P,R1,1*%
%TO.N,Board_44-Net-(D1-K)*%
X141800000Y-71913000D03*
%TO.P,R1,2*%
%TO.N,Board_44-Net-(H2-Pad1)*%
X141800000Y-70088000D03*
%TD*%
D10*
%TO.P,H2,1,1_1*%
%TO.N,Board_78-Net-(H2-Pad1)*%
X115500000Y-107000500D03*
D11*
X115500000Y-107000500D03*
%TD*%
D12*
%TO.P,R1,1*%
%TO.N,Board_55-Net-(D1-K)*%
X126800000Y-83913000D03*
%TO.P,R1,2*%
%TO.N,Board_55-Net-(H2-Pad1)*%
X126800000Y-82088000D03*
%TD*%
D13*
%TO.P,D1,1,K_1*%
%TO.N,Board_32-Net-(D1-K)*%
X140200000Y-59875500D03*
%TO.P,D1,2,A_2*%
%TO.N,Board_32-Net-(D1-A)*%
X140200000Y-58125500D03*
%TD*%
D10*
%TO.P,H2,1,1_1*%
%TO.N,Board_42-Net-(H2-Pad1)*%
X115500000Y-71000500D03*
D11*
X115500000Y-71000500D03*
%TD*%
D13*
%TO.P,D1,1,K_1*%
%TO.N,Board_19-Net-(D1-K)*%
X125200000Y-47875500D03*
%TO.P,D1,2,A_2*%
%TO.N,Board_19-Net-(D1-A)*%
X125200000Y-46125500D03*
%TD*%
D10*
%TO.P,H2,1,1_1*%
%TO.N,Board_75-Net-(H2-Pad1)*%
X160500000Y-101000500D03*
D11*
X160500000Y-101000500D03*
%TD*%
D13*
%TO.P,D1,1,K_1*%
%TO.N,Board_53-Net-(D1-K)*%
X185200000Y-77875500D03*
%TO.P,D1,2,A_2*%
%TO.N,Board_53-Net-(D1-A)*%
X185200000Y-76125500D03*
%TD*%
D10*
%TO.P,H1,1,1_1*%
%TO.N,Board_16-Net-(D1-A)*%
X166500000Y-41000500D03*
D11*
X166500000Y-41000500D03*
%TD*%
D10*
%TO.P,H1,1,1_1*%
%TO.N,Board_29-Net-(D1-A)*%
X181500000Y-53000500D03*
D11*
X181500000Y-53000500D03*
%TD*%
D13*
%TO.P,D1,1,K_1*%
%TO.N,Board_46-Net-(D1-K)*%
X170200000Y-71875500D03*
%TO.P,D1,2,A_2*%
%TO.N,Board_46-Net-(D1-A)*%
X170200000Y-70125500D03*
%TD*%
D10*
%TO.P,H2,1,1_1*%
%TO.N,Board_49-Net-(H2-Pad1)*%
X130500000Y-77000500D03*
D11*
X130500000Y-77000500D03*
%TD*%
D10*
%TO.P,H2,1,1_1*%
%TO.N,Board_61-Net-(H2-Pad1)*%
X130500000Y-89000500D03*
D11*
X130500000Y-89000500D03*
%TD*%
D10*
%TO.P,H1,1,1_1*%
%TO.N,Board_25-Net-(D1-A)*%
X121500000Y-53000500D03*
D11*
X121500000Y-53000500D03*
%TD*%
D10*
%TO.P,H1,1,1_1*%
%TO.N,Board_68-Net-(D1-A)*%
X136500000Y-95000500D03*
D11*
X136500000Y-95000500D03*
%TD*%
D10*
%TO.P,H2,1,1_1*%
%TO.N,Board_77-Net-(H2-Pad1)*%
X190500000Y-101000500D03*
D11*
X190500000Y-101000500D03*
%TD*%
D10*
%TO.P,H1,1,1_1*%
%TO.N,Board_30-Net-(D1-A)*%
X106500000Y-59000500D03*
D11*
X106500000Y-59000500D03*
%TD*%
D10*
%TO.P,H1,1,1_1*%
%TO.N,Board_70-Net-(D1-A)*%
X166500000Y-95000500D03*
D11*
X166500000Y-95000500D03*
%TD*%
D10*
%TO.P,H2,1,1_1*%
%TO.N,Board_50-Net-(H2-Pad1)*%
X145500000Y-77000500D03*
D11*
X145500000Y-77000500D03*
%TD*%
D10*
%TO.P,H1,1,1_1*%
%TO.N,Board_20-Net-(D1-A)*%
X136500000Y-47000500D03*
D11*
X136500000Y-47000500D03*
%TD*%
D10*
%TO.P,H2,1,1_1*%
%TO.N,Board_6-Net-(H2-Pad1)*%
X115500000Y-35000500D03*
D11*
X115500000Y-35000500D03*
%TD*%
D13*
%TO.P,D1,1,K_1*%
%TO.N,Board_11-Net-(D1-K)*%
X185200000Y-35875500D03*
%TO.P,D1,2,A_2*%
%TO.N,Board_11-Net-(D1-A)*%
X185200000Y-34125500D03*
%TD*%
D10*
%TO.P,H1,1,1_1*%
%TO.N,Board_78-Net-(D1-A)*%
X106500000Y-107000500D03*
D11*
X106500000Y-107000500D03*
%TD*%
D10*
%TO.P,H2,1,1_1*%
%TO.N,Board_59-Net-(H2-Pad1)*%
X190500000Y-83000500D03*
D11*
X190500000Y-83000500D03*
%TD*%
D13*
%TO.P,D1,1,K_1*%
%TO.N,Board_10-Net-(D1-K)*%
X170200000Y-35875500D03*
%TO.P,D1,2,A_2*%
%TO.N,Board_10-Net-(D1-A)*%
X170200000Y-34125500D03*
%TD*%
D10*
%TO.P,H1,1,1_1*%
%TO.N,Board_53-Net-(D1-A)*%
X181500000Y-77000500D03*
D11*
X181500000Y-77000500D03*
%TD*%
D12*
%TO.P,R1,1*%
%TO.N,Board_60-Net-(D1-K)*%
X111800000Y-89913000D03*
%TO.P,R1,2*%
%TO.N,Board_60-Net-(H2-Pad1)*%
X111800000Y-88088000D03*
%TD*%
D13*
%TO.P,D1,1,K_1*%
%TO.N,Board_31-Net-(D1-K)*%
X125200000Y-59875500D03*
%TO.P,D1,2,A_2*%
%TO.N,Board_31-Net-(D1-A)*%
X125200000Y-58125500D03*
%TD*%
D12*
%TO.P,R1,1*%
%TO.N,Board_40-Net-(D1-K)*%
X171800000Y-65913000D03*
%TO.P,R1,2*%
%TO.N,Board_40-Net-(H2-Pad1)*%
X171800000Y-64088000D03*
%TD*%
D10*
%TO.P,H2,1,1_1*%
%TO.N,Board_64-Net-(H2-Pad1)*%
X175500000Y-89000500D03*
D11*
X175500000Y-89000500D03*
%TD*%
D12*
%TO.P,R1,1*%
%TO.N,Board_14-Net-(D1-K)*%
X141800000Y-41913000D03*
%TO.P,R1,2*%
%TO.N,Board_14-Net-(H2-Pad1)*%
X141800000Y-40088000D03*
%TD*%
D10*
%TO.P,H1,1,1_1*%
%TO.N,Board_83-Net-(D1-A)*%
X181500000Y-107000500D03*
D11*
X181500000Y-107000500D03*
%TD*%
D12*
%TO.P,R1,1*%
%TO.N,Board_67-Net-(D1-K)*%
X126800000Y-95913000D03*
%TO.P,R1,2*%
%TO.N,Board_67-Net-(H2-Pad1)*%
X126800000Y-94088000D03*
%TD*%
%TO.P,R1,1*%
%TO.N,Board_62-Net-(D1-K)*%
X141800000Y-89913000D03*
%TO.P,R1,2*%
%TO.N,Board_62-Net-(H2-Pad1)*%
X141800000Y-88088000D03*
%TD*%
D10*
%TO.P,H1,1,1_1*%
%TO.N,Board_35-Net-(D1-A)*%
X181500000Y-59000500D03*
D11*
X181500000Y-59000500D03*
%TD*%
D12*
%TO.P,R1,1*%
%TO.N,Board_20-Net-(D1-K)*%
X141800000Y-47913000D03*
%TO.P,R1,2*%
%TO.N,Board_20-Net-(H2-Pad1)*%
X141800000Y-46088000D03*
%TD*%
D13*
%TO.P,D1,1,K_1*%
%TO.N,Board_71-Net-(D1-K)*%
X185200000Y-95875500D03*
%TO.P,D1,2,A_2*%
%TO.N,Board_71-Net-(D1-A)*%
X185200000Y-94125500D03*
%TD*%
D10*
%TO.P,H2,1,1_1*%
%TO.N,Board_43-Net-(H2-Pad1)*%
X130500000Y-71000500D03*
D11*
X130500000Y-71000500D03*
%TD*%
D13*
%TO.P,D1,1,K_1*%
%TO.N,Board_4-Net-(D1-K)*%
X170200000Y-29875500D03*
%TO.P,D1,2,A_2*%
%TO.N,Board_4-Net-(D1-A)*%
X170200000Y-28125500D03*
%TD*%
D12*
%TO.P,R1,1*%
%TO.N,Board_31-Net-(D1-K)*%
X126800000Y-59913000D03*
%TO.P,R1,2*%
%TO.N,Board_31-Net-(H2-Pad1)*%
X126800000Y-58088000D03*
%TD*%
%TO.P,R1,1*%
%TO.N,Board_19-Net-(D1-K)*%
X126800000Y-47913000D03*
%TO.P,R1,2*%
%TO.N,Board_19-Net-(H2-Pad1)*%
X126800000Y-46088000D03*
%TD*%
D13*
%TO.P,D1,1,K_1*%
%TO.N,Board_72-Net-(D1-K)*%
X110200000Y-101875500D03*
%TO.P,D1,2,A_2*%
%TO.N,Board_72-Net-(D1-A)*%
X110200000Y-100125500D03*
%TD*%
D10*
%TO.P,H2,1,1_1*%
%TO.N,Board_19-Net-(H2-Pad1)*%
X130500000Y-47000500D03*
D11*
X130500000Y-47000500D03*
%TD*%
D13*
%TO.P,D1,1,K_1*%
%TO.N,Board_47-Net-(D1-K)*%
X185200000Y-71875500D03*
%TO.P,D1,2,A_2*%
%TO.N,Board_47-Net-(D1-A)*%
X185200000Y-70125500D03*
%TD*%
D10*
%TO.P,H1,1,1_1*%
%TO.N,Board_18-Net-(D1-A)*%
X106500000Y-47000500D03*
D11*
X106500000Y-47000500D03*
%TD*%
D10*
%TO.P,H2,1,1_1*%
%TO.N,Board_30-Net-(H2-Pad1)*%
X115500000Y-59000500D03*
D11*
X115500000Y-59000500D03*
%TD*%
D12*
%TO.P,R1,1*%
%TO.N,Board_47-Net-(D1-K)*%
X186800000Y-71913000D03*
%TO.P,R1,2*%
%TO.N,Board_47-Net-(H2-Pad1)*%
X186800000Y-70088000D03*
%TD*%
D13*
%TO.P,D1,1,K_1*%
%TO.N,Board_25-Net-(D1-K)*%
X125200000Y-53875500D03*
%TO.P,D1,2,A_2*%
%TO.N,Board_25-Net-(D1-A)*%
X125200000Y-52125500D03*
%TD*%
D12*
%TO.P,R1,1*%
%TO.N,Board_18-Net-(D1-K)*%
X111800000Y-47913000D03*
%TO.P,R1,2*%
%TO.N,Board_18-Net-(H2-Pad1)*%
X111800000Y-46088000D03*
%TD*%
%TO.P,R1,1*%
%TO.N,Board_79-Net-(D1-K)*%
X126800000Y-107913000D03*
%TO.P,R1,2*%
%TO.N,Board_79-Net-(H2-Pad1)*%
X126800000Y-106088000D03*
%TD*%
D13*
%TO.P,D1,1,K_1*%
%TO.N,Board_51-Net-(D1-K)*%
X155200000Y-77875500D03*
%TO.P,D1,2,A_2*%
%TO.N,Board_51-Net-(D1-A)*%
X155200000Y-76125500D03*
%TD*%
D10*
%TO.P,H1,1,1_1*%
%TO.N,Board_7-Net-(D1-A)*%
X121500000Y-35000500D03*
D11*
X121500000Y-35000500D03*
%TD*%
D10*
%TO.P,H1,1,1_1*%
%TO.N,Board_76-Net-(D1-A)*%
X166500000Y-101000500D03*
D11*
X166500000Y-101000500D03*
%TD*%
D10*
%TO.P,H2,1,1_1*%
%TO.N,Board_11-Net-(H2-Pad1)*%
X190500000Y-35000500D03*
D11*
X190500000Y-35000500D03*
%TD*%
D10*
%TO.P,H2,1,1_1*%
%TO.N,Board_45-Net-(H2-Pad1)*%
X160500000Y-71000500D03*
D11*
X160500000Y-71000500D03*
%TD*%
D12*
%TO.P,R1,1*%
%TO.N,Board_50-Net-(D1-K)*%
X141800000Y-77913000D03*
%TO.P,R1,2*%
%TO.N,Board_50-Net-(H2-Pad1)*%
X141800000Y-76088000D03*
%TD*%
D13*
%TO.P,D1,1,K_1*%
%TO.N,Board_69-Net-(D1-K)*%
X155200000Y-95875500D03*
%TO.P,D1,2,A_2*%
%TO.N,Board_69-Net-(D1-A)*%
X155200000Y-94125500D03*
%TD*%
%TO.P,D1,1,K_1*%
%TO.N,Board_74-Net-(D1-K)*%
X140200000Y-101875500D03*
%TO.P,D1,2,A_2*%
%TO.N,Board_74-Net-(D1-A)*%
X140200000Y-100125500D03*
%TD*%
%TO.P,D1,1,K_1*%
%TO.N,Board_64-Net-(D1-K)*%
X170200000Y-89875500D03*
%TO.P,D1,2,A_2*%
%TO.N,Board_64-Net-(D1-A)*%
X170200000Y-88125500D03*
%TD*%
D12*
%TO.P,R1,1*%
%TO.N,Board_48-Net-(D1-K)*%
X111800000Y-77913000D03*
%TO.P,R1,2*%
%TO.N,Board_48-Net-(H2-Pad1)*%
X111800000Y-76088000D03*
%TD*%
D10*
%TO.P,H1,1,1_1*%
%TO.N,Board_3-Net-(D1-A)*%
X151500000Y-29000500D03*
D11*
X151500000Y-29000500D03*
%TD*%
D13*
%TO.P,D1,1,K_1*%
%TO.N,Board_70-Net-(D1-K)*%
X170200000Y-95875500D03*
%TO.P,D1,2,A_2*%
%TO.N,Board_70-Net-(D1-A)*%
X170200000Y-94125500D03*
%TD*%
%TO.P,D1,1,K_1*%
%TO.N,Board_27-Net-(D1-K)*%
X155200000Y-53875500D03*
%TO.P,D1,2,A_2*%
%TO.N,Board_27-Net-(D1-A)*%
X155200000Y-52125500D03*
%TD*%
D10*
%TO.P,H1,1,1_1*%
%TO.N,Board_52-Net-(D1-A)*%
X166500000Y-77000500D03*
D11*
X166500000Y-77000500D03*
%TD*%
D10*
%TO.P,H1,1,1_1*%
%TO.N,Board_8-Net-(D1-A)*%
X136500000Y-35000500D03*
D11*
X136500000Y-35000500D03*
%TD*%
D10*
%TO.P,H1,1,1_1*%
%TO.N,Board_73-Net-(D1-A)*%
X121500000Y-101000500D03*
D11*
X121500000Y-101000500D03*
%TD*%
D12*
%TO.P,R1,1*%
%TO.N,Board_38-Net-(D1-K)*%
X141800000Y-65913000D03*
%TO.P,R1,2*%
%TO.N,Board_38-Net-(H2-Pad1)*%
X141800000Y-64088000D03*
%TD*%
D10*
%TO.P,H2,1,1_1*%
%TO.N,Board_80-Net-(H2-Pad1)*%
X145500000Y-107000500D03*
D11*
X145500000Y-107000500D03*
%TD*%
D12*
%TO.P,R1,1*%
%TO.N,Board_41-Net-(D1-K)*%
X186800000Y-65913000D03*
%TO.P,R1,2*%
%TO.N,Board_41-Net-(H2-Pad1)*%
X186800000Y-64088000D03*
%TD*%
D13*
%TO.P,D1,1,K_1*%
%TO.N,Board_8-Net-(D1-K)*%
X140200000Y-35875500D03*
%TO.P,D1,2,A_2*%
%TO.N,Board_8-Net-(D1-A)*%
X140200000Y-34125500D03*
%TD*%
D12*
%TO.P,R1,1*%
%TO.N,Board_37-Net-(D1-K)*%
X126800000Y-65913000D03*
%TO.P,R1,2*%
%TO.N,Board_37-Net-(H2-Pad1)*%
X126800000Y-64088000D03*
%TD*%
D10*
%TO.P,H2,1,1_1*%
%TO.N,Board_44-Net-(H2-Pad1)*%
X145500000Y-71000500D03*
D11*
X145500000Y-71000500D03*
%TD*%
D10*
%TO.P,H2,1,1_1*%
%TO.N,Board_12-Net-(H2-Pad1)*%
X115500000Y-41000500D03*
D11*
X115500000Y-41000500D03*
%TD*%
D13*
%TO.P,D1,1,K_1*%
%TO.N,Board_5-Net-(D1-K)*%
X185200000Y-29875500D03*
%TO.P,D1,2,A_2*%
%TO.N,Board_5-Net-(D1-A)*%
X185200000Y-28125500D03*
%TD*%
D10*
%TO.P,H2,1,1_1*%
%TO.N,Board_52-Net-(H2-Pad1)*%
X175500000Y-77000500D03*
D11*
X175500000Y-77000500D03*
%TD*%
D10*
%TO.P,H1,1,1_1*%
%TO.N,Board_67-Net-(D1-A)*%
X121500000Y-95000500D03*
D11*
X121500000Y-95000500D03*
%TD*%
D10*
%TO.P,H1,1,1_1*%
%TO.N,Board_71-Net-(D1-A)*%
X181500000Y-95000500D03*
D11*
X181500000Y-95000500D03*
%TD*%
D10*
%TO.P,H1,1,1_1*%
%TO.N,Board_11-Net-(D1-A)*%
X181500000Y-35000500D03*
D11*
X181500000Y-35000500D03*
%TD*%
D12*
%TO.P,R1,1*%
%TO.N,Board_80-Net-(D1-K)*%
X141800000Y-107913000D03*
%TO.P,R1,2*%
%TO.N,Board_80-Net-(H2-Pad1)*%
X141800000Y-106088000D03*
%TD*%
D10*
%TO.P,H2,1,1_1*%
%TO.N,Board_23-Net-(H2-Pad1)*%
X190500000Y-47000500D03*
D11*
X190500000Y-47000500D03*
%TD*%
D10*
%TO.P,H2,1,1_1*%
%TO.N,Board_20-Net-(H2-Pad1)*%
X145500000Y-47000500D03*
D11*
X145500000Y-47000500D03*
%TD*%
D13*
%TO.P,D1,1,K_1*%
%TO.N,Board_41-Net-(D1-K)*%
X185200000Y-65875500D03*
%TO.P,D1,2,A_2*%
%TO.N,Board_41-Net-(D1-A)*%
X185200000Y-64125500D03*
%TD*%
D10*
%TO.P,H2,1,1_1*%
%TO.N,Board_5-Net-(H2-Pad1)*%
X190500000Y-29000500D03*
D11*
X190500000Y-29000500D03*
%TD*%
D13*
%TO.P,D1,1,K_1*%
%TO.N,Board_12-Net-(D1-K)*%
X110200000Y-41875500D03*
%TO.P,D1,2,A_2*%
%TO.N,Board_12-Net-(D1-A)*%
X110200000Y-40125500D03*
%TD*%
D12*
%TO.P,R1,1*%
%TO.N,Board_56-Net-(D1-K)*%
X141800000Y-83913000D03*
%TO.P,R1,2*%
%TO.N,Board_56-Net-(H2-Pad1)*%
X141800000Y-82088000D03*
%TD*%
%TO.P,R1,1*%
%TO.N,Board_24-Net-(D1-K)*%
X111800000Y-53913000D03*
%TO.P,R1,2*%
%TO.N,Board_24-Net-(H2-Pad1)*%
X111800000Y-52088000D03*
%TD*%
D10*
%TO.P,H1,1,1_1*%
%TO.N,Board_27-Net-(D1-A)*%
X151500000Y-53000500D03*
D11*
X151500000Y-53000500D03*
%TD*%
D12*
%TO.P,R1,1*%
%TO.N,Board_43-Net-(D1-K)*%
X126800000Y-71913000D03*
%TO.P,R1,2*%
%TO.N,Board_43-Net-(H2-Pad1)*%
X126800000Y-70088000D03*
%TD*%
D13*
%TO.P,D1,1,K_1*%
%TO.N,Board_65-Net-(D1-K)*%
X185200000Y-89875500D03*
%TO.P,D1,2,A_2*%
%TO.N,Board_65-Net-(D1-A)*%
X185200000Y-88125500D03*
%TD*%
D10*
%TO.P,H2,1,1_1*%
%TO.N,Board_60-Net-(H2-Pad1)*%
X115500000Y-89000500D03*
D11*
X115500000Y-89000500D03*
%TD*%
D12*
%TO.P,R1,1*%
%TO.N,Board_46-Net-(D1-K)*%
X171800000Y-71913000D03*
%TO.P,R1,2*%
%TO.N,Board_46-Net-(H2-Pad1)*%
X171800000Y-70088000D03*
%TD*%
D13*
%TO.P,D1,1,K_1*%
%TO.N,Board_68-Net-(D1-K)*%
X140200000Y-95875500D03*
%TO.P,D1,2,A_2*%
%TO.N,Board_68-Net-(D1-A)*%
X140200000Y-94125500D03*
%TD*%
D12*
%TO.P,R1,1*%
%TO.N,Board_53-Net-(D1-K)*%
X186800000Y-77913000D03*
%TO.P,R1,2*%
%TO.N,Board_53-Net-(H2-Pad1)*%
X186800000Y-76088000D03*
%TD*%
D13*
%TO.P,D1,1,K_1*%
%TO.N,Board_80-Net-(D1-K)*%
X140200000Y-107875500D03*
%TO.P,D1,2,A_2*%
%TO.N,Board_80-Net-(D1-A)*%
X140200000Y-106125500D03*
%TD*%
D10*
%TO.P,H1,1,1_1*%
%TO.N,Board_58-Net-(D1-A)*%
X166500000Y-83000500D03*
D11*
X166500000Y-83000500D03*
%TD*%
D13*
%TO.P,D1,1,K_1*%
%TO.N,Board_79-Net-(D1-K)*%
X125200000Y-107875500D03*
%TO.P,D1,2,A_2*%
%TO.N,Board_79-Net-(D1-A)*%
X125200000Y-106125500D03*
%TD*%
D10*
%TO.P,H2,1,1_1*%
%TO.N,Board_35-Net-(H2-Pad1)*%
X190500000Y-59000500D03*
D11*
X190500000Y-59000500D03*
%TD*%
D12*
%TO.P,R1,1*%
%TO.N,Board_25-Net-(D1-K)*%
X126800000Y-53913000D03*
%TO.P,R1,2*%
%TO.N,Board_25-Net-(H2-Pad1)*%
X126800000Y-52088000D03*
%TD*%
%TO.P,R1,1*%
%TO.N,Board_51-Net-(D1-K)*%
X156800000Y-77913000D03*
%TO.P,R1,2*%
%TO.N,Board_51-Net-(H2-Pad1)*%
X156800000Y-76088000D03*
%TD*%
%TO.P,R1,1*%
%TO.N,Board_27-Net-(D1-K)*%
X156800000Y-53913000D03*
%TO.P,R1,2*%
%TO.N,Board_27-Net-(H2-Pad1)*%
X156800000Y-52088000D03*
%TD*%
%TO.P,R1,1*%
%TO.N,Board_28-Net-(D1-K)*%
X171800000Y-53913000D03*
%TO.P,R1,2*%
%TO.N,Board_28-Net-(H2-Pad1)*%
X171800000Y-52088000D03*
%TD*%
%TO.P,R1,1*%
%TO.N,Board_15-Net-(D1-K)*%
X156800000Y-41913000D03*
%TO.P,R1,2*%
%TO.N,Board_15-Net-(H2-Pad1)*%
X156800000Y-40088000D03*
%TD*%
%TO.P,R1,1*%
%TO.N,Board_77-Net-(D1-K)*%
X186800000Y-101913000D03*
%TO.P,R1,2*%
%TO.N,Board_77-Net-(H2-Pad1)*%
X186800000Y-100088000D03*
%TD*%
D13*
%TO.P,D1,1,K_1*%
%TO.N,Board_18-Net-(D1-K)*%
X110200000Y-47875500D03*
%TO.P,D1,2,A_2*%
%TO.N,Board_18-Net-(D1-A)*%
X110200000Y-46125500D03*
%TD*%
D10*
%TO.P,H1,1,1_1*%
%TO.N,Board_46-Net-(D1-A)*%
X166500000Y-71000500D03*
D11*
X166500000Y-71000500D03*
%TD*%
D13*
%TO.P,D1,1,K_1*%
%TO.N,Board_22-Net-(D1-K)*%
X170200000Y-47875500D03*
%TO.P,D1,2,A_2*%
%TO.N,Board_22-Net-(D1-A)*%
X170200000Y-46125500D03*
%TD*%
D10*
%TO.P,H2,1,1_1*%
%TO.N,Board_69-Net-(H2-Pad1)*%
X160500000Y-95000500D03*
D11*
X160500000Y-95000500D03*
%TD*%
D10*
%TO.P,H2,1,1_1*%
%TO.N,Board_81-Net-(H2-Pad1)*%
X160500000Y-107000500D03*
D11*
X160500000Y-107000500D03*
%TD*%
D10*
%TO.P,H1,1,1_1*%
%TO.N,Board_45-Net-(D1-A)*%
X151500000Y-71000500D03*
D11*
X151500000Y-71000500D03*
%TD*%
D13*
%TO.P,D1,1,K_1*%
%TO.N,Board_54-Net-(D1-K)*%
X110200000Y-83875500D03*
%TO.P,D1,2,A_2*%
%TO.N,Board_54-Net-(D1-A)*%
X110200000Y-82125500D03*
%TD*%
D10*
%TO.P,H1,1,1_1*%
%TO.N,Board_38-Net-(D1-A)*%
X136500000Y-65000500D03*
D11*
X136500000Y-65000500D03*
%TD*%
D12*
%TO.P,R1,1*%
%TO.N,Board_2-Net-(D1-K)*%
X141800000Y-29913000D03*
%TO.P,R1,2*%
%TO.N,Board_2-Net-(H2-Pad1)*%
X141800000Y-28088000D03*
%TD*%
D13*
%TO.P,D1,1,K_1*%
%TO.N,Board_2-Net-(D1-K)*%
X140200000Y-29875500D03*
%TO.P,D1,2,A_2*%
%TO.N,Board_2-Net-(D1-A)*%
X140200000Y-28125500D03*
%TD*%
D10*
%TO.P,H1,1,1_1*%
%TO.N,Board_32-Net-(D1-A)*%
X136500000Y-59000500D03*
D11*
X136500000Y-59000500D03*
%TD*%
D10*
%TO.P,H2,1,1_1*%
%TO.N,Board_40-Net-(H2-Pad1)*%
X175500000Y-65000500D03*
D11*
X175500000Y-65000500D03*
%TD*%
D10*
%TO.P,H1,1,1_1*%
%TO.N,Board_81-Net-(D1-A)*%
X151500000Y-107000500D03*
D11*
X151500000Y-107000500D03*
%TD*%
D12*
%TO.P,R1,1*%
%TO.N,Board_6-Net-(D1-K)*%
X111800000Y-35913000D03*
%TO.P,R1,2*%
%TO.N,Board_6-Net-(H2-Pad1)*%
X111800000Y-34088000D03*
%TD*%
D13*
%TO.P,D1,1,K_1*%
%TO.N,Board_81-Net-(D1-K)*%
X155200000Y-107875500D03*
%TO.P,D1,2,A_2*%
%TO.N,Board_81-Net-(D1-A)*%
X155200000Y-106125500D03*
%TD*%
D10*
%TO.P,H2,1,1_1*%
%TO.N,Board_65-Net-(H2-Pad1)*%
X190500000Y-89000500D03*
D11*
X190500000Y-89000500D03*
%TD*%
D12*
%TO.P,R1,1*%
%TO.N,Board_26-Net-(D1-K)*%
X141800000Y-53913000D03*
%TO.P,R1,2*%
%TO.N,Board_26-Net-(H2-Pad1)*%
X141800000Y-52088000D03*
%TD*%
D10*
%TO.P,H2,1,1_1*%
%TO.N,Board_13-Net-(H2-Pad1)*%
X130500000Y-41000500D03*
D11*
X130500000Y-41000500D03*
%TD*%
D13*
%TO.P,D1,1,K_1*%
%TO.N,Board_67-Net-(D1-K)*%
X125200000Y-95875500D03*
%TO.P,D1,2,A_2*%
%TO.N,Board_67-Net-(D1-A)*%
X125200000Y-94125500D03*
%TD*%
D12*
%TO.P,R1,1*%
%TO.N,Board_54-Net-(D1-K)*%
X111800000Y-83913000D03*
%TO.P,R1,2*%
%TO.N,Board_54-Net-(H2-Pad1)*%
X111800000Y-82088000D03*
%TD*%
%TO.P,R1,1*%
%TO.N,Board_45-Net-(D1-K)*%
X156800000Y-71913000D03*
%TO.P,R1,2*%
%TO.N,Board_45-Net-(H2-Pad1)*%
X156800000Y-70088000D03*
%TD*%
D10*
%TO.P,H1,1,1_1*%
%TO.N,Board_55-Net-(D1-A)*%
X121500000Y-83000500D03*
D11*
X121500000Y-83000500D03*
%TD*%
D12*
%TO.P,R1,1*%
%TO.N,Board_33-Net-(D1-K)*%
X156800000Y-59913000D03*
%TO.P,R1,2*%
%TO.N,Board_33-Net-(H2-Pad1)*%
X156800000Y-58088000D03*
%TD*%
%TO.P,R1,1*%
%TO.N,Board_72-Net-(D1-K)*%
X111800000Y-101913000D03*
%TO.P,R1,2*%
%TO.N,Board_72-Net-(H2-Pad1)*%
X111800000Y-100088000D03*
%TD*%
D10*
%TO.P,H1,1,1_1*%
%TO.N,Board_9-Net-(D1-A)*%
X151500000Y-35000500D03*
D11*
X151500000Y-35000500D03*
%TD*%
D10*
%TO.P,H1,1,1_1*%
%TO.N,Board_5-Net-(D1-A)*%
X181500000Y-29000500D03*
D11*
X181500000Y-29000500D03*
%TD*%
D10*
%TO.P,H1,1,1_1*%
%TO.N,Board_69-Net-(D1-A)*%
X151500000Y-95000500D03*
D11*
X151500000Y-95000500D03*
%TD*%
D10*
%TO.P,H1,1,1_1*%
%TO.N,Board_75-Net-(D1-A)*%
X151500000Y-101000500D03*
D11*
X151500000Y-101000500D03*
%TD*%
D10*
%TO.P,H1,1,1_1*%
%TO.N,Board_37-Net-(D1-A)*%
X121500000Y-65000500D03*
D11*
X121500000Y-65000500D03*
%TD*%
D10*
%TO.P,H1,1,1_1*%
%TO.N,Board_31-Net-(D1-A)*%
X121500000Y-59000500D03*
D11*
X121500000Y-59000500D03*
%TD*%
D13*
%TO.P,D1,1,K_1*%
%TO.N,Board_3-Net-(D1-K)*%
X155200000Y-29875500D03*
%TO.P,D1,2,A_2*%
%TO.N,Board_3-Net-(D1-A)*%
X155200000Y-28125500D03*
%TD*%
%TO.P,D1,1,K_1*%
%TO.N,Board_20-Net-(D1-K)*%
X140200000Y-47875500D03*
%TO.P,D1,2,A_2*%
%TO.N,Board_20-Net-(D1-A)*%
X140200000Y-46125500D03*
%TD*%
D10*
%TO.P,H2,1,1_1*%
%TO.N,Board_74-Net-(H2-Pad1)*%
X145500000Y-101000500D03*
D11*
X145500000Y-101000500D03*
%TD*%
D13*
%TO.P,D1,1,K_1*%
%TO.N,Board_30-Net-(D1-K)*%
X110200000Y-59875500D03*
%TO.P,D1,2,A_2*%
%TO.N,Board_30-Net-(D1-A)*%
X110200000Y-58125500D03*
%TD*%
D10*
%TO.P,H2,1,1_1*%
%TO.N,Board_10-Net-(H2-Pad1)*%
X175500000Y-35000500D03*
D11*
X175500000Y-35000500D03*
%TD*%
D12*
%TO.P,R1,1*%
%TO.N,Board_13-Net-(D1-K)*%
X126800000Y-41913000D03*
%TO.P,R1,2*%
%TO.N,Board_13-Net-(H2-Pad1)*%
X126800000Y-40088000D03*
%TD*%
D10*
%TO.P,H2,1,1_1*%
%TO.N,Board_36-Net-(H2-Pad1)*%
X115500000Y-65000500D03*
D11*
X115500000Y-65000500D03*
%TD*%
D10*
%TO.P,H2,1,1_1*%
%TO.N,Board_14-Net-(H2-Pad1)*%
X145500000Y-41000500D03*
D11*
X145500000Y-41000500D03*
%TD*%
D10*
%TO.P,H2,1,1_1*%
%TO.N,Board_47-Net-(H2-Pad1)*%
X190500000Y-71000500D03*
D11*
X190500000Y-71000500D03*
%TD*%
D12*
%TO.P,R1,1*%
%TO.N,Board_52-Net-(D1-K)*%
X171800000Y-77913000D03*
%TO.P,R1,2*%
%TO.N,Board_52-Net-(H2-Pad1)*%
X171800000Y-76088000D03*
%TD*%
D10*
%TO.P,H1,1,1_1*%
%TO.N,Board_66-Net-(D1-A)*%
X106500000Y-95000500D03*
D11*
X106500000Y-95000500D03*
%TD*%
D13*
%TO.P,D1,1,K_1*%
%TO.N,Board_49-Net-(D1-K)*%
X125200000Y-77875500D03*
%TO.P,D1,2,A_2*%
%TO.N,Board_49-Net-(D1-A)*%
X125200000Y-76125500D03*
%TD*%
D10*
%TO.P,H1,1,1_1*%
%TO.N,Board_34-Net-(D1-A)*%
X166500000Y-59000500D03*
D11*
X166500000Y-59000500D03*
%TD*%
D10*
%TO.P,H1,1,1_1*%
%TO.N,Board_79-Net-(D1-A)*%
X121500000Y-107000500D03*
D11*
X121500000Y-107000500D03*
%TD*%
D10*
%TO.P,H2,1,1_1*%
%TO.N,Board_54-Net-(H2-Pad1)*%
X115500000Y-83000500D03*
D11*
X115500000Y-83000500D03*
%TD*%
D10*
%TO.P,H1,1,1_1*%
%TO.N,Board_60-Net-(D1-A)*%
X106500000Y-89000500D03*
D11*
X106500000Y-89000500D03*
%TD*%
D10*
%TO.P,H2,1,1_1*%
%TO.N,Board_38-Net-(H2-Pad1)*%
X145500000Y-65000500D03*
D11*
X145500000Y-65000500D03*
%TD*%
D12*
%TO.P,R1,1*%
%TO.N,Board_22-Net-(D1-K)*%
X171800000Y-47913000D03*
%TO.P,R1,2*%
%TO.N,Board_22-Net-(H2-Pad1)*%
X171800000Y-46088000D03*
%TD*%
D13*
%TO.P,D1,1,K_1*%
%TO.N,Board_45-Net-(D1-K)*%
X155200000Y-71875500D03*
%TO.P,D1,2,A_2*%
%TO.N,Board_45-Net-(D1-A)*%
X155200000Y-70125500D03*
%TD*%
%TO.P,D1,1,K_1*%
%TO.N,Board_52-Net-(D1-K)*%
X170200000Y-77875500D03*
%TO.P,D1,2,A_2*%
%TO.N,Board_52-Net-(D1-A)*%
X170200000Y-76125500D03*
%TD*%
D10*
%TO.P,H1,1,1_1*%
%TO.N,Board_24-Net-(D1-A)*%
X106500000Y-53000500D03*
D11*
X106500000Y-53000500D03*
%TD*%
D12*
%TO.P,R1,1*%
%TO.N,Board_12-Net-(D1-K)*%
X111800000Y-41913000D03*
%TO.P,R1,2*%
%TO.N,Board_12-Net-(H2-Pad1)*%
X111800000Y-40088000D03*
%TD*%
D10*
%TO.P,H2,1,1_1*%
%TO.N,Board_3-Net-(H2-Pad1)*%
X160500000Y-29000500D03*
D11*
X160500000Y-29000500D03*
%TD*%
D12*
%TO.P,R1,1*%
%TO.N,Board_75-Net-(D1-K)*%
X156800000Y-101913000D03*
%TO.P,R1,2*%
%TO.N,Board_75-Net-(H2-Pad1)*%
X156800000Y-100088000D03*
%TD*%
%TO.P,R1,1*%
%TO.N,Board_81-Net-(D1-K)*%
X156800000Y-107913000D03*
%TO.P,R1,2*%
%TO.N,Board_81-Net-(H2-Pad1)*%
X156800000Y-106088000D03*
%TD*%
D10*
%TO.P,H1,1,1_1*%
%TO.N,Board_65-Net-(D1-A)*%
X181500000Y-89000500D03*
D11*
X181500000Y-89000500D03*
%TD*%
D12*
%TO.P,R1,1*%
%TO.N,Board_10-Net-(D1-K)*%
X171800000Y-35913000D03*
%TO.P,R1,2*%
%TO.N,Board_10-Net-(H2-Pad1)*%
X171800000Y-34088000D03*
%TD*%
D10*
%TO.P,H2,1,1_1*%
%TO.N,Board_29-Net-(H2-Pad1)*%
X190500000Y-53000500D03*
D11*
X190500000Y-53000500D03*
%TD*%
D12*
%TO.P,R1,1*%
%TO.N,Board_30-Net-(D1-K)*%
X111800000Y-59913000D03*
%TO.P,R1,2*%
%TO.N,Board_30-Net-(H2-Pad1)*%
X111800000Y-58088000D03*
%TD*%
D13*
%TO.P,D1,1,K_1*%
%TO.N,Board_66-Net-(D1-K)*%
X110200000Y-95875500D03*
%TO.P,D1,2,A_2*%
%TO.N,Board_66-Net-(D1-A)*%
X110200000Y-94125500D03*
%TD*%
D12*
%TO.P,R1,1*%
%TO.N,Board_64-Net-(D1-K)*%
X171800000Y-89913000D03*
%TO.P,R1,2*%
%TO.N,Board_64-Net-(H2-Pad1)*%
X171800000Y-88088000D03*
%TD*%
D10*
%TO.P,H2,1,1_1*%
%TO.N,Board_24-Net-(H2-Pad1)*%
X115500000Y-53000500D03*
D11*
X115500000Y-53000500D03*
%TD*%
D10*
%TO.P,H1,1,1_1*%
%TO.N,Board_62-Net-(D1-A)*%
X136500000Y-89000500D03*
D11*
X136500000Y-89000500D03*
%TD*%
D13*
%TO.P,D1,1,K_1*%
%TO.N,Board_15-Net-(D1-K)*%
X155200000Y-41875500D03*
%TO.P,D1,2,A_2*%
%TO.N,Board_15-Net-(D1-A)*%
X155200000Y-40125500D03*
%TD*%
D10*
%TO.P,H1,1,1_1*%
%TO.N,Board_77-Net-(D1-A)*%
X181500000Y-101000500D03*
D11*
X181500000Y-101000500D03*
%TD*%
D12*
%TO.P,R1,1*%
%TO.N,Board_82-Net-(D1-K)*%
X171800000Y-107913000D03*
%TO.P,R1,2*%
%TO.N,Board_82-Net-(H2-Pad1)*%
X171800000Y-106088000D03*
%TD*%
D13*
%TO.P,D1,1,K_1*%
%TO.N,Board_56-Net-(D1-K)*%
X140200000Y-83875500D03*
%TO.P,D1,2,A_2*%
%TO.N,Board_56-Net-(D1-A)*%
X140200000Y-82125500D03*
%TD*%
D10*
%TO.P,H2,1,1_1*%
%TO.N,Board_34-Net-(H2-Pad1)*%
X175500000Y-59000500D03*
D11*
X175500000Y-59000500D03*
%TD*%
D10*
%TO.P,H2,1,1_1*%
%TO.N,Board_39-Net-(H2-Pad1)*%
X160500000Y-65000500D03*
D11*
X160500000Y-65000500D03*
%TD*%
D13*
%TO.P,D1,1,K_1*%
%TO.N,Board_26-Net-(D1-K)*%
X140200000Y-53875500D03*
%TO.P,D1,2,A_2*%
%TO.N,Board_26-Net-(D1-A)*%
X140200000Y-52125500D03*
%TD*%
%TO.P,D1,1,K_1*%
%TO.N,Board_44-Net-(D1-K)*%
X140200000Y-71875500D03*
%TO.P,D1,2,A_2*%
%TO.N,Board_44-Net-(D1-A)*%
X140200000Y-70125500D03*
%TD*%
%TO.P,D1,1,K_1*%
%TO.N,Board_7-Net-(D1-K)*%
X125200000Y-35875500D03*
%TO.P,D1,2,A_2*%
%TO.N,Board_7-Net-(D1-A)*%
X125200000Y-34125500D03*
%TD*%
D10*
%TO.P,H2,1,1_1*%
%TO.N,Board_73-Net-(H2-Pad1)*%
X130500000Y-101000500D03*
D11*
X130500000Y-101000500D03*
%TD*%
D10*
%TO.P,H2,1,1_1*%
%TO.N,Board_41-Net-(H2-Pad1)*%
X190500000Y-65000500D03*
D11*
X190500000Y-65000500D03*
%TD*%
D12*
%TO.P,R1,1*%
%TO.N,Board_1-Net-(D1-K)*%
X126800000Y-29913000D03*
%TO.P,R1,2*%
%TO.N,Board_1-Net-(H2-Pad1)*%
X126800000Y-28088000D03*
%TD*%
D13*
%TO.P,D1,1,K_1*%
%TO.N,Board_29-Net-(D1-K)*%
X185200000Y-53875500D03*
%TO.P,D1,2,A_2*%
%TO.N,Board_29-Net-(D1-A)*%
X185200000Y-52125500D03*
%TD*%
D10*
%TO.P,H1,1,1_1*%
%TO.N,Board_49-Net-(D1-A)*%
X121500000Y-77000500D03*
D11*
X121500000Y-77000500D03*
%TD*%
D13*
%TO.P,D1,1,K_1*%
%TO.N,Board_60-Net-(D1-K)*%
X110200000Y-89875500D03*
%TO.P,D1,2,A_2*%
%TO.N,Board_60-Net-(D1-A)*%
X110200000Y-88125500D03*
%TD*%
%TO.P,D1,1,K_1*%
%TO.N,Board_58-Net-(D1-K)*%
X170200000Y-83875500D03*
%TO.P,D1,2,A_2*%
%TO.N,Board_58-Net-(D1-A)*%
X170200000Y-82125500D03*
%TD*%
D10*
%TO.P,H1,1,1_1*%
%TO.N,Board_6-Net-(D1-A)*%
X106500000Y-35000500D03*
D11*
X106500000Y-35000500D03*
%TD*%
D10*
%TO.P,H1,1,1_1*%
%TO.N,Board_41-Net-(D1-A)*%
X181500000Y-65000500D03*
D11*
X181500000Y-65000500D03*
%TD*%
D10*
%TO.P,H2,1,1_1*%
%TO.N,Board_4-Net-(H2-Pad1)*%
X175500000Y-29000500D03*
D11*
X175500000Y-29000500D03*
%TD*%
D13*
%TO.P,D1,1,K_1*%
%TO.N,Board_6-Net-(D1-K)*%
X110200000Y-35875500D03*
%TO.P,D1,2,A_2*%
%TO.N,Board_6-Net-(D1-A)*%
X110200000Y-34125500D03*
%TD*%
%TO.P,D1,1,K_1*%
%TO.N,Board_28-Net-(D1-K)*%
X170200000Y-53875500D03*
%TO.P,D1,2,A_2*%
%TO.N,Board_28-Net-(D1-A)*%
X170200000Y-52125500D03*
%TD*%
D12*
%TO.P,R1,1*%
%TO.N,Board_57-Net-(D1-K)*%
X156800000Y-83913000D03*
%TO.P,R1,2*%
%TO.N,Board_57-Net-(H2-Pad1)*%
X156800000Y-82088000D03*
%TD*%
%TO.P,R1,1*%
%TO.N,Board_0-Net-(D1-K)*%
X111800000Y-29913000D03*
%TO.P,R1,2*%
%TO.N,Board_0-Net-(H2-Pad1)*%
X111800000Y-28088000D03*
%TD*%
D13*
%TO.P,D1,1,K_1*%
%TO.N,Board_61-Net-(D1-K)*%
X125200000Y-89875500D03*
%TO.P,D1,2,A_2*%
%TO.N,Board_61-Net-(D1-A)*%
X125200000Y-88125500D03*
%TD*%
D10*
%TO.P,H1,1,1_1*%
%TO.N,Board_28-Net-(D1-A)*%
X166500000Y-53000500D03*
D11*
X166500000Y-53000500D03*
%TD*%
D13*
%TO.P,D1,1,K_1*%
%TO.N,Board_34-Net-(D1-K)*%
X170200000Y-59875500D03*
%TO.P,D1,2,A_2*%
%TO.N,Board_34-Net-(D1-A)*%
X170200000Y-58125500D03*
%TD*%
D12*
%TO.P,R1,1*%
%TO.N,Board_29-Net-(D1-K)*%
X186800000Y-53913000D03*
%TO.P,R1,2*%
%TO.N,Board_29-Net-(H2-Pad1)*%
X186800000Y-52088000D03*
%TD*%
D10*
%TO.P,H2,1,1_1*%
%TO.N,Board_15-Net-(H2-Pad1)*%
X160500000Y-41000500D03*
D11*
X160500000Y-41000500D03*
%TD*%
D10*
%TO.P,H2,1,1_1*%
%TO.N,Board_71-Net-(H2-Pad1)*%
X190500000Y-95000500D03*
D11*
X190500000Y-95000500D03*
%TD*%
D12*
%TO.P,R1,1*%
%TO.N,Board_68-Net-(D1-K)*%
X141800000Y-95913000D03*
%TO.P,R1,2*%
%TO.N,Board_68-Net-(H2-Pad1)*%
X141800000Y-94088000D03*
%TD*%
D13*
%TO.P,D1,1,K_1*%
%TO.N,Board_77-Net-(D1-K)*%
X185200000Y-101875500D03*
%TO.P,D1,2,A_2*%
%TO.N,Board_77-Net-(D1-A)*%
X185200000Y-100125500D03*
%TD*%
%TO.P,D1,1,K_1*%
%TO.N,Board_83-Net-(D1-K)*%
X185200000Y-107875500D03*
%TO.P,D1,2,A_2*%
%TO.N,Board_83-Net-(D1-A)*%
X185200000Y-106125500D03*
%TD*%
D10*
%TO.P,H2,1,1_1*%
%TO.N,Board_79-Net-(H2-Pad1)*%
X130500000Y-107000500D03*
D11*
X130500000Y-107000500D03*
%TD*%
D13*
%TO.P,D1,1,K_1*%
%TO.N,Board_36-Net-(D1-K)*%
X110200000Y-65875500D03*
%TO.P,D1,2,A_2*%
%TO.N,Board_36-Net-(D1-A)*%
X110200000Y-64125500D03*
%TD*%
%TO.N,Board_82-Net-(D1-A)*%
D14*
X166500000Y-107000500D02*
X168500000Y-107000500D01*
X168500000Y-107000500D02*
X169375000Y-106125500D01*
X169375000Y-106125500D02*
X170200000Y-106125500D01*
%TO.N,Board_39-Net-(D1-K)*%
X156762500Y-65875500D02*
X156800000Y-65913000D01*
X155200000Y-65875500D02*
X156762500Y-65875500D01*
%TO.N,Board_8-Net-(H2-Pad1)*%
X141800000Y-34088000D02*
X142587500Y-34088000D01*
X143500000Y-35000500D02*
X145500000Y-35000500D01*
X142587500Y-34088000D02*
X143500000Y-35000500D01*
%TO.N,Board_59-Net-(D1-A)*%
X184375000Y-82125500D02*
X185200000Y-82125500D01*
X181500000Y-83000500D02*
X183500000Y-83000500D01*
X183500000Y-83000500D02*
X184375000Y-82125500D01*
%TO.N,Board_59-Net-(D1-K)*%
X186762500Y-83875500D02*
X186800000Y-83913000D01*
X185200000Y-83875500D02*
X186762500Y-83875500D01*
%TO.N,Board_33-Net-(D1-A)*%
X153500000Y-59000500D02*
X154375000Y-58125500D01*
X154375000Y-58125500D02*
X155200000Y-58125500D01*
X151500000Y-59000500D02*
X153500000Y-59000500D01*
%TO.N,Board_39-Net-(D1-A)*%
X154375000Y-64125500D02*
X155200000Y-64125500D01*
X153500000Y-65000500D02*
X154375000Y-64125500D01*
X151500000Y-65000500D02*
X153500000Y-65000500D01*
%TO.N,Board_35-Net-(D1-K)*%
X185200000Y-59875500D02*
X186762500Y-59875500D01*
X186762500Y-59875500D02*
X186800000Y-59913000D01*
%TO.N,Board_7-Net-(H2-Pad1)*%
X126800000Y-34088000D02*
X127587500Y-34088000D01*
X127587500Y-34088000D02*
X128500000Y-35000500D01*
X128500000Y-35000500D02*
X130500000Y-35000500D01*
%TO.N,Board_17-Net-(D1-A)*%
X183500000Y-41000500D02*
X184375000Y-40125500D01*
X184375000Y-40125500D02*
X185200000Y-40125500D01*
X181500000Y-41000500D02*
X183500000Y-41000500D01*
%TO.N,Board_1-Net-(D1-A)*%
X124375000Y-28125500D02*
X125200000Y-28125500D01*
X123500000Y-29000500D02*
X124375000Y-28125500D01*
X121500000Y-29000500D02*
X123500000Y-29000500D01*
%TO.N,Board_57-Net-(D1-A)*%
X151500000Y-83000500D02*
X153500000Y-83000500D01*
X154375000Y-82125500D02*
X155200000Y-82125500D01*
X153500000Y-83000500D02*
X154375000Y-82125500D01*
%TO.N,Board_16-Net-(D1-K)*%
X170200000Y-41875500D02*
X171762500Y-41875500D01*
X171762500Y-41875500D02*
X171800000Y-41913000D01*
%TO.N,Board_78-Net-(D1-K)*%
X111762500Y-107875500D02*
X111800000Y-107913000D01*
X110200000Y-107875500D02*
X111762500Y-107875500D01*
%TO.N,Board_63-Net-(H2-Pad1)*%
X158500000Y-89000500D02*
X160500000Y-89000500D01*
X157587500Y-88088000D02*
X158500000Y-89000500D01*
X156800000Y-88088000D02*
X157587500Y-88088000D01*
%TO.N,Board_63-Net-(D1-K)*%
X156762500Y-89875500D02*
X156800000Y-89913000D01*
X155200000Y-89875500D02*
X156762500Y-89875500D01*
%TO.N,Board_17-Net-(H2-Pad1)*%
X186800000Y-40088000D02*
X187587500Y-40088000D01*
X188500000Y-41000500D02*
X190500000Y-41000500D01*
X187587500Y-40088000D02*
X188500000Y-41000500D01*
%TO.N,Board_17-Net-(D1-K)*%
X186762500Y-41875500D02*
X186800000Y-41913000D01*
X185200000Y-41875500D02*
X186762500Y-41875500D01*
%TO.N,Board_58-Net-(H2-Pad1)*%
X172587500Y-82088000D02*
X173500000Y-83000500D01*
X173500000Y-83000500D02*
X175500000Y-83000500D01*
X171800000Y-82088000D02*
X172587500Y-82088000D01*
%TO.N,Board_48-Net-(D1-A)*%
X106500000Y-77000500D02*
X108500000Y-77000500D01*
X109375000Y-76125500D02*
X110200000Y-76125500D01*
X108500000Y-77000500D02*
X109375000Y-76125500D01*
%TO.N,Board_73-Net-(D1-K)*%
X126762500Y-101875500D02*
X126800000Y-101913000D01*
X125200000Y-101875500D02*
X126762500Y-101875500D01*
%TO.N,Board_76-Net-(D1-K)*%
X171762500Y-101875500D02*
X171800000Y-101913000D01*
X170200000Y-101875500D02*
X171762500Y-101875500D01*
%TO.N,Board_23-Net-(D1-A)*%
X183500000Y-47000500D02*
X184375000Y-46125500D01*
X184375000Y-46125500D02*
X185200000Y-46125500D01*
X181500000Y-47000500D02*
X183500000Y-47000500D01*
%TO.N,Board_43-Net-(D1-A)*%
X121500000Y-71000500D02*
X123500000Y-71000500D01*
X123500000Y-71000500D02*
X124375000Y-70125500D01*
X124375000Y-70125500D02*
X125200000Y-70125500D01*
%TO.N,Board_16-Net-(H2-Pad1)*%
X172587500Y-40088000D02*
X173500000Y-41000500D01*
X173500000Y-41000500D02*
X175500000Y-41000500D01*
X171800000Y-40088000D02*
X172587500Y-40088000D01*
%TO.N,Board_40-Net-(D1-A)*%
X169375000Y-64125500D02*
X170200000Y-64125500D01*
X168500000Y-65000500D02*
X169375000Y-64125500D01*
X166500000Y-65000500D02*
X168500000Y-65000500D01*
%TO.N,Board_13-Net-(D1-A)*%
X121500000Y-41000500D02*
X123500000Y-41000500D01*
X124375000Y-40125500D02*
X125200000Y-40125500D01*
X123500000Y-41000500D02*
X124375000Y-40125500D01*
%TO.N,Board_42-Net-(D1-K)*%
X111762500Y-71875500D02*
X111800000Y-71913000D01*
X110200000Y-71875500D02*
X111762500Y-71875500D01*
%TO.N,Board_42-Net-(D1-A)*%
X106500000Y-71000500D02*
X108500000Y-71000500D01*
X108500000Y-71000500D02*
X109375000Y-70125500D01*
X109375000Y-70125500D02*
X110200000Y-70125500D01*
%TO.N,Board_9-Net-(H2-Pad1)*%
X157587500Y-34088000D02*
X158500000Y-35000500D01*
X156800000Y-34088000D02*
X157587500Y-34088000D01*
X158500000Y-35000500D02*
X160500000Y-35000500D01*
%TO.N,Board_66-Net-(H2-Pad1)*%
X111800000Y-94088000D02*
X112587500Y-94088000D01*
X113500000Y-95000500D02*
X115500000Y-95000500D01*
X112587500Y-94088000D02*
X113500000Y-95000500D01*
%TO.N,Board_21-Net-(D1-A)*%
X154375000Y-46125500D02*
X155200000Y-46125500D01*
X151500000Y-47000500D02*
X153500000Y-47000500D01*
X153500000Y-47000500D02*
X154375000Y-46125500D01*
%TO.N,Board_32-Net-(H2-Pad1)*%
X141800000Y-58088000D02*
X142587500Y-58088000D01*
X142587500Y-58088000D02*
X143500000Y-59000500D01*
X143500000Y-59000500D02*
X145500000Y-59000500D01*
%TO.N,Board_50-Net-(D1-A)*%
X139375000Y-76125500D02*
X140200000Y-76125500D01*
X138500000Y-77000500D02*
X139375000Y-76125500D01*
X136500000Y-77000500D02*
X138500000Y-77000500D01*
%TO.N,Board_21-Net-(H2-Pad1)*%
X158500000Y-47000500D02*
X160500000Y-47000500D01*
X156800000Y-46088000D02*
X157587500Y-46088000D01*
X157587500Y-46088000D02*
X158500000Y-47000500D01*
%TO.N,Board_21-Net-(D1-K)*%
X155200000Y-47875500D02*
X156762500Y-47875500D01*
X156762500Y-47875500D02*
X156800000Y-47913000D01*
%TO.N,Board_63-Net-(D1-A)*%
X154375000Y-88125500D02*
X155200000Y-88125500D01*
X151500000Y-89000500D02*
X153500000Y-89000500D01*
X153500000Y-89000500D02*
X154375000Y-88125500D01*
%TO.N,Board_14-Net-(D1-A)*%
X136500000Y-41000500D02*
X138500000Y-41000500D01*
X138500000Y-41000500D02*
X139375000Y-40125500D01*
X139375000Y-40125500D02*
X140200000Y-40125500D01*
%TO.N,Board_70-Net-(H2-Pad1)*%
X173500000Y-95000500D02*
X175500000Y-95000500D01*
X172587500Y-94088000D02*
X173500000Y-95000500D01*
X171800000Y-94088000D02*
X172587500Y-94088000D01*
%TO.N,Board_83-Net-(H2-Pad1)*%
X188500000Y-107000500D02*
X190500000Y-107000500D01*
X187587500Y-106088000D02*
X188500000Y-107000500D01*
X186800000Y-106088000D02*
X187587500Y-106088000D01*
%TO.N,Board_0-Net-(D1-A)*%
X106500000Y-29000500D02*
X108500000Y-29000500D01*
X108500000Y-29000500D02*
X109375000Y-28125500D01*
X109375000Y-28125500D02*
X110200000Y-28125500D01*
%TO.N,Board_9-Net-(D1-K)*%
X156762500Y-35875500D02*
X156800000Y-35913000D01*
X155200000Y-35875500D02*
X156762500Y-35875500D01*
%TO.N,Board_76-Net-(H2-Pad1)*%
X172587500Y-100088000D02*
X173500000Y-101000500D01*
X171800000Y-100088000D02*
X172587500Y-100088000D01*
X173500000Y-101000500D02*
X175500000Y-101000500D01*
%TO.N,Board_23-Net-(D1-K)*%
X186762500Y-47875500D02*
X186800000Y-47913000D01*
X185200000Y-47875500D02*
X186762500Y-47875500D01*
%TO.N,Board_78-Net-(H2-Pad1)*%
X111800000Y-106088000D02*
X112587500Y-106088000D01*
X113500000Y-107000500D02*
X115500000Y-107000500D01*
X112587500Y-106088000D02*
X113500000Y-107000500D01*
%TO.N,Board_55-Net-(H2-Pad1)*%
X128500000Y-83000500D02*
X130500000Y-83000500D01*
X127587500Y-82088000D02*
X128500000Y-83000500D01*
X126800000Y-82088000D02*
X127587500Y-82088000D01*
%TO.N,Board_55-Net-(D1-K)*%
X126762500Y-83875500D02*
X126800000Y-83913000D01*
X125200000Y-83875500D02*
X126762500Y-83875500D01*
%TO.N,Board_32-Net-(D1-K)*%
X141762500Y-59875500D02*
X141800000Y-59913000D01*
X140200000Y-59875500D02*
X141762500Y-59875500D01*
%TO.N,Board_42-Net-(H2-Pad1)*%
X112587500Y-70088000D02*
X113500000Y-71000500D01*
X111800000Y-70088000D02*
X112587500Y-70088000D01*
X113500000Y-71000500D02*
X115500000Y-71000500D01*
%TO.N,Board_19-Net-(D1-A)*%
X124375000Y-46125500D02*
X125200000Y-46125500D01*
X121500000Y-47000500D02*
X123500000Y-47000500D01*
X123500000Y-47000500D02*
X124375000Y-46125500D01*
%TO.N,Board_16-Net-(D1-A)*%
X169375000Y-40125500D02*
X170200000Y-40125500D01*
X168500000Y-41000500D02*
X169375000Y-40125500D01*
X166500000Y-41000500D02*
X168500000Y-41000500D01*
%TO.N,Board_49-Net-(H2-Pad1)*%
X126800000Y-76088000D02*
X127587500Y-76088000D01*
X128500000Y-77000500D02*
X130500000Y-77000500D01*
X127587500Y-76088000D02*
X128500000Y-77000500D01*
%TO.N,Board_61-Net-(H2-Pad1)*%
X126800000Y-88088000D02*
X127587500Y-88088000D01*
X127587500Y-88088000D02*
X128500000Y-89000500D01*
X128500000Y-89000500D02*
X130500000Y-89000500D01*
%TO.N,Board_11-Net-(D1-K)*%
X186762500Y-35875500D02*
X186800000Y-35913000D01*
X185200000Y-35875500D02*
X186762500Y-35875500D01*
%TO.N,Board_78-Net-(D1-A)*%
X109375000Y-106125500D02*
X110200000Y-106125500D01*
X106500000Y-107000500D02*
X108500000Y-107000500D01*
X108500000Y-107000500D02*
X109375000Y-106125500D01*
%TO.N,Board_59-Net-(H2-Pad1)*%
X188500000Y-83000500D02*
X190500000Y-83000500D01*
X186800000Y-82088000D02*
X187587500Y-82088000D01*
X187587500Y-82088000D02*
X188500000Y-83000500D01*
%TO.N,Board_10-Net-(D1-A)*%
X168500000Y-35000500D02*
X169375000Y-34125500D01*
X169375000Y-34125500D02*
X170200000Y-34125500D01*
X166500000Y-35000500D02*
X168500000Y-35000500D01*
%TO.N,Board_53-Net-(D1-A)*%
X184375000Y-76125500D02*
X185200000Y-76125500D01*
X181500000Y-77000500D02*
X183500000Y-77000500D01*
X183500000Y-77000500D02*
X184375000Y-76125500D01*
%TO.N,Board_40-Net-(D1-K)*%
X171762500Y-65875500D02*
X171800000Y-65913000D01*
X170200000Y-65875500D02*
X171762500Y-65875500D01*
%TO.N,Board_14-Net-(D1-K)*%
X141762500Y-41875500D02*
X141800000Y-41913000D01*
X140200000Y-41875500D02*
X141762500Y-41875500D01*
%TO.N,Board_67-Net-(H2-Pad1)*%
X128500000Y-95000500D02*
X130500000Y-95000500D01*
X126800000Y-94088000D02*
X127587500Y-94088000D01*
X127587500Y-94088000D02*
X128500000Y-95000500D01*
%TO.N,Board_62-Net-(H2-Pad1)*%
X142587500Y-88088000D02*
X143500000Y-89000500D01*
X141800000Y-88088000D02*
X142587500Y-88088000D01*
X143500000Y-89000500D02*
X145500000Y-89000500D01*
%TO.N,Board_62-Net-(D1-K)*%
X140200000Y-89875500D02*
X141762500Y-89875500D01*
X141762500Y-89875500D02*
X141800000Y-89913000D01*
%TO.N,Board_35-Net-(D1-A)*%
X184375000Y-58125500D02*
X185200000Y-58125500D01*
X181500000Y-59000500D02*
X183500000Y-59000500D01*
X183500000Y-59000500D02*
X184375000Y-58125500D01*
%TO.N,Board_71-Net-(D1-K)*%
X185200000Y-95875500D02*
X186762500Y-95875500D01*
X186762500Y-95875500D02*
X186800000Y-95913000D01*
%TO.N,Board_4-Net-(D1-A)*%
X168500000Y-29000500D02*
X169375000Y-28125500D01*
X169375000Y-28125500D02*
X170200000Y-28125500D01*
X166500000Y-29000500D02*
X168500000Y-29000500D01*
%TO.N,Board_4-Net-(D1-K)*%
X171762500Y-29875500D02*
X171800000Y-29913000D01*
X170200000Y-29875500D02*
X171762500Y-29875500D01*
%TO.N,Board_31-Net-(H2-Pad1)*%
X128500000Y-59000500D02*
X130500000Y-59000500D01*
X126800000Y-58088000D02*
X127587500Y-58088000D01*
X127587500Y-58088000D02*
X128500000Y-59000500D01*
%TO.N,Board_31-Net-(D1-K)*%
X126762500Y-59875500D02*
X126800000Y-59913000D01*
X125200000Y-59875500D02*
X126762500Y-59875500D01*
%TO.N,Board_19-Net-(D1-K)*%
X125200000Y-47875500D02*
X126762500Y-47875500D01*
X126762500Y-47875500D02*
X126800000Y-47913000D01*
%TO.N,Board_72-Net-(D1-A)*%
X106500000Y-101000500D02*
X108500000Y-101000500D01*
X108500000Y-101000500D02*
X109375000Y-100125500D01*
X109375000Y-100125500D02*
X110200000Y-100125500D01*
%TO.N,Board_19-Net-(H2-Pad1)*%
X128500000Y-47000500D02*
X130500000Y-47000500D01*
X126800000Y-46088000D02*
X127587500Y-46088000D01*
X127587500Y-46088000D02*
X128500000Y-47000500D01*
%TO.N,Board_47-Net-(D1-A)*%
X181500000Y-71000500D02*
X183500000Y-71000500D01*
X184375000Y-70125500D02*
X185200000Y-70125500D01*
X183500000Y-71000500D02*
X184375000Y-70125500D01*
%TO.N,Board_47-Net-(D1-K)*%
X186762500Y-71875500D02*
X186800000Y-71913000D01*
X185200000Y-71875500D02*
X186762500Y-71875500D01*
%TO.N,Board_25-Net-(D1-A)*%
X123500000Y-53000500D02*
X124375000Y-52125500D01*
X124375000Y-52125500D02*
X125200000Y-52125500D01*
X121500000Y-53000500D02*
X123500000Y-53000500D01*
%TO.N,Board_18-Net-(H2-Pad1)*%
X112587500Y-46088000D02*
X113500000Y-47000500D01*
X113500000Y-47000500D02*
X115500000Y-47000500D01*
X111800000Y-46088000D02*
X112587500Y-46088000D01*
%TO.N,Board_51-Net-(D1-A)*%
X151500000Y-77000500D02*
X153500000Y-77000500D01*
X154375000Y-76125500D02*
X155200000Y-76125500D01*
X153500000Y-77000500D02*
X154375000Y-76125500D01*
%TO.N,Board_76-Net-(D1-A)*%
X169375000Y-100125500D02*
X170200000Y-100125500D01*
X168500000Y-101000500D02*
X169375000Y-100125500D01*
X166500000Y-101000500D02*
X168500000Y-101000500D01*
%TO.N,Board_11-Net-(H2-Pad1)*%
X186800000Y-34088000D02*
X187587500Y-34088000D01*
X187587500Y-34088000D02*
X188500000Y-35000500D01*
X188500000Y-35000500D02*
X190500000Y-35000500D01*
%TO.N,Board_50-Net-(H2-Pad1)*%
X141800000Y-76088000D02*
X142587500Y-76088000D01*
X143500000Y-77000500D02*
X145500000Y-77000500D01*
X142587500Y-76088000D02*
X143500000Y-77000500D01*
%TO.N,Board_50-Net-(D1-K)*%
X140200000Y-77875500D02*
X141762500Y-77875500D01*
X141762500Y-77875500D02*
X141800000Y-77913000D01*
%TO.N,Board_69-Net-(D1-K)*%
X155200000Y-95875500D02*
X156762500Y-95875500D01*
X156762500Y-95875500D02*
X156800000Y-95913000D01*
%TO.N,Board_74-Net-(D1-A)*%
X139375000Y-100125500D02*
X140200000Y-100125500D01*
X138500000Y-101000500D02*
X139375000Y-100125500D01*
X136500000Y-101000500D02*
X138500000Y-101000500D01*
%TO.N,Board_74-Net-(D1-K)*%
X141762500Y-101875500D02*
X141800000Y-101913000D01*
X140200000Y-101875500D02*
X141762500Y-101875500D01*
%TO.N,Board_64-Net-(D1-A)*%
X169375000Y-88125500D02*
X170200000Y-88125500D01*
X168500000Y-89000500D02*
X169375000Y-88125500D01*
X166500000Y-89000500D02*
X168500000Y-89000500D01*
%TO.N,Board_48-Net-(H2-Pad1)*%
X111800000Y-76088000D02*
X112587500Y-76088000D01*
X112587500Y-76088000D02*
X113500000Y-77000500D01*
X113500000Y-77000500D02*
X115500000Y-77000500D01*
%TO.N,Board_48-Net-(D1-K)*%
X111762500Y-77875500D02*
X111800000Y-77913000D01*
X110200000Y-77875500D02*
X111762500Y-77875500D01*
%TO.N,Board_70-Net-(D1-A)*%
X166500000Y-95000500D02*
X168500000Y-95000500D01*
X168500000Y-95000500D02*
X169375000Y-94125500D01*
X169375000Y-94125500D02*
X170200000Y-94125500D01*
%TO.N,Board_70-Net-(D1-K)*%
X170200000Y-95875500D02*
X171762500Y-95875500D01*
X171762500Y-95875500D02*
X171800000Y-95913000D01*
%TO.N,Board_73-Net-(D1-A)*%
X123500000Y-101000500D02*
X124375000Y-100125500D01*
X121500000Y-101000500D02*
X123500000Y-101000500D01*
X124375000Y-100125500D02*
X125200000Y-100125500D01*
%TO.N,Board_38-Net-(D1-K)*%
X140200000Y-65875500D02*
X141762500Y-65875500D01*
X141762500Y-65875500D02*
X141800000Y-65913000D01*
%TO.N,Board_8-Net-(D1-A)*%
X138500000Y-35000500D02*
X139375000Y-34125500D01*
X136500000Y-35000500D02*
X138500000Y-35000500D01*
X139375000Y-34125500D02*
X140200000Y-34125500D01*
%TO.N,Board_8-Net-(D1-K)*%
X140200000Y-35875500D02*
X141762500Y-35875500D01*
X141762500Y-35875500D02*
X141800000Y-35913000D01*
%TO.N,Board_37-Net-(H2-Pad1)*%
X127587500Y-64088000D02*
X128500000Y-65000500D01*
X128500000Y-65000500D02*
X130500000Y-65000500D01*
X126800000Y-64088000D02*
X127587500Y-64088000D01*
%TO.N,Board_37-Net-(D1-K)*%
X126762500Y-65875500D02*
X126800000Y-65913000D01*
X125200000Y-65875500D02*
X126762500Y-65875500D01*
%TO.N,Board_44-Net-(H2-Pad1)*%
X143500000Y-71000500D02*
X145500000Y-71000500D01*
X141800000Y-70088000D02*
X142587500Y-70088000D01*
X142587500Y-70088000D02*
X143500000Y-71000500D01*
%TO.N,Board_5-Net-(D1-K)*%
X186762500Y-29875500D02*
X186800000Y-29913000D01*
X185200000Y-29875500D02*
X186762500Y-29875500D01*
%TO.N,Board_71-Net-(D1-A)*%
X181500000Y-95000500D02*
X183500000Y-95000500D01*
X184375000Y-94125500D02*
X185200000Y-94125500D01*
X183500000Y-95000500D02*
X184375000Y-94125500D01*
%TO.N,Board_11-Net-(D1-A)*%
X184375000Y-34125500D02*
X185200000Y-34125500D01*
X183500000Y-35000500D02*
X184375000Y-34125500D01*
X181500000Y-35000500D02*
X183500000Y-35000500D01*
%TO.N,Board_80-Net-(H2-Pad1)*%
X142587500Y-106088000D02*
X143500000Y-107000500D01*
X143500000Y-107000500D02*
X145500000Y-107000500D01*
X141800000Y-106088000D02*
X142587500Y-106088000D01*
%TO.N,Board_23-Net-(H2-Pad1)*%
X187587500Y-46088000D02*
X188500000Y-47000500D01*
X186800000Y-46088000D02*
X187587500Y-46088000D01*
X188500000Y-47000500D02*
X190500000Y-47000500D01*
%TO.N,Board_20-Net-(H2-Pad1)*%
X143500000Y-47000500D02*
X145500000Y-47000500D01*
X141800000Y-46088000D02*
X142587500Y-46088000D01*
X142587500Y-46088000D02*
X143500000Y-47000500D01*
%TO.N,Board_41-Net-(D1-K)*%
X185200000Y-65875500D02*
X186762500Y-65875500D01*
X186762500Y-65875500D02*
X186800000Y-65913000D01*
%TO.N,Board_5-Net-(H2-Pad1)*%
X187587500Y-28088000D02*
X188500000Y-29000500D01*
X188500000Y-29000500D02*
X190500000Y-29000500D01*
X186800000Y-28088000D02*
X187587500Y-28088000D01*
%TO.N,Board_12-Net-(D1-A)*%
X109375000Y-40125500D02*
X110200000Y-40125500D01*
X108500000Y-41000500D02*
X109375000Y-40125500D01*
X106500000Y-41000500D02*
X108500000Y-41000500D01*
%TO.N,Board_56-Net-(H2-Pad1)*%
X143500000Y-83000500D02*
X145500000Y-83000500D01*
X142587500Y-82088000D02*
X143500000Y-83000500D01*
X141800000Y-82088000D02*
X142587500Y-82088000D01*
%TO.N,Board_24-Net-(D1-K)*%
X110200000Y-53875500D02*
X111762500Y-53875500D01*
X111762500Y-53875500D02*
X111800000Y-53913000D01*
%TO.N,Board_27-Net-(D1-A)*%
X151500000Y-53000500D02*
X153500000Y-53000500D01*
X153500000Y-53000500D02*
X154375000Y-52125500D01*
X154375000Y-52125500D02*
X155200000Y-52125500D01*
%TO.N,Board_43-Net-(H2-Pad1)*%
X127587500Y-70088000D02*
X128500000Y-71000500D01*
X126800000Y-70088000D02*
X127587500Y-70088000D01*
X128500000Y-71000500D02*
X130500000Y-71000500D01*
%TO.N,Board_43-Net-(D1-K)*%
X125200000Y-71875500D02*
X126762500Y-71875500D01*
X126762500Y-71875500D02*
X126800000Y-71913000D01*
%TO.N,Board_65-Net-(D1-K)*%
X186762500Y-89875500D02*
X186800000Y-89913000D01*
X185200000Y-89875500D02*
X186762500Y-89875500D01*
%TO.N,Board_60-Net-(H2-Pad1)*%
X113500000Y-89000500D02*
X115500000Y-89000500D01*
X111800000Y-88088000D02*
X112587500Y-88088000D01*
X112587500Y-88088000D02*
X113500000Y-89000500D01*
%TO.N,Board_46-Net-(H2-Pad1)*%
X171800000Y-70088000D02*
X172587500Y-70088000D01*
X173500000Y-71000500D02*
X175500000Y-71000500D01*
X172587500Y-70088000D02*
X173500000Y-71000500D01*
%TO.N,Board_46-Net-(D1-K)*%
X170200000Y-71875500D02*
X171762500Y-71875500D01*
X171762500Y-71875500D02*
X171800000Y-71913000D01*
%TO.N,Board_68-Net-(D1-A)*%
X136500000Y-95000500D02*
X138500000Y-95000500D01*
X139375000Y-94125500D02*
X140200000Y-94125500D01*
X138500000Y-95000500D02*
X139375000Y-94125500D01*
%TO.N,Board_53-Net-(H2-Pad1)*%
X187587500Y-76088000D02*
X188500000Y-77000500D01*
X188500000Y-77000500D02*
X190500000Y-77000500D01*
X186800000Y-76088000D02*
X187587500Y-76088000D01*
%TO.N,Board_53-Net-(D1-K)*%
X185200000Y-77875500D02*
X186762500Y-77875500D01*
X186762500Y-77875500D02*
X186800000Y-77913000D01*
%TO.N,Board_80-Net-(D1-A)*%
X138500000Y-107000500D02*
X139375000Y-106125500D01*
X139375000Y-106125500D02*
X140200000Y-106125500D01*
X136500000Y-107000500D02*
X138500000Y-107000500D01*
%TO.N,Board_80-Net-(D1-K)*%
X140200000Y-107875500D02*
X141762500Y-107875500D01*
X141762500Y-107875500D02*
X141800000Y-107913000D01*
%TO.N,Board_79-Net-(D1-K)*%
X125200000Y-107875500D02*
X126762500Y-107875500D01*
X126762500Y-107875500D02*
X126800000Y-107913000D01*
%TO.N,Board_35-Net-(H2-Pad1)*%
X188500000Y-59000500D02*
X190500000Y-59000500D01*
X187587500Y-58088000D02*
X188500000Y-59000500D01*
X186800000Y-58088000D02*
X187587500Y-58088000D01*
%TO.N,Board_25-Net-(H2-Pad1)*%
X127587500Y-52088000D02*
X128500000Y-53000500D01*
X126800000Y-52088000D02*
X127587500Y-52088000D01*
X128500000Y-53000500D02*
X130500000Y-53000500D01*
%TO.N,Board_25-Net-(D1-K)*%
X126762500Y-53875500D02*
X126800000Y-53913000D01*
X125200000Y-53875500D02*
X126762500Y-53875500D01*
%TO.N,Board_51-Net-(H2-Pad1)*%
X158500000Y-77000500D02*
X160500000Y-77000500D01*
X157587500Y-76088000D02*
X158500000Y-77000500D01*
X156800000Y-76088000D02*
X157587500Y-76088000D01*
%TO.N,Board_51-Net-(D1-K)*%
X156762500Y-77875500D02*
X156800000Y-77913000D01*
X155200000Y-77875500D02*
X156762500Y-77875500D01*
%TO.N,Board_27-Net-(H2-Pad1)*%
X156800000Y-52088000D02*
X157587500Y-52088000D01*
X158500000Y-53000500D02*
X160500000Y-53000500D01*
X157587500Y-52088000D02*
X158500000Y-53000500D01*
%TO.N,Board_27-Net-(D1-K)*%
X155200000Y-53875500D02*
X156762500Y-53875500D01*
X156762500Y-53875500D02*
X156800000Y-53913000D01*
%TO.N,Board_28-Net-(H2-Pad1)*%
X172587500Y-52088000D02*
X173500000Y-53000500D01*
X171800000Y-52088000D02*
X172587500Y-52088000D01*
X173500000Y-53000500D02*
X175500000Y-53000500D01*
%TO.N,Board_77-Net-(H2-Pad1)*%
X188500000Y-101000500D02*
X190500000Y-101000500D01*
X187587500Y-100088000D02*
X188500000Y-101000500D01*
X186800000Y-100088000D02*
X187587500Y-100088000D01*
%TO.N,Board_18-Net-(D1-A)*%
X108500000Y-47000500D02*
X109375000Y-46125500D01*
X106500000Y-47000500D02*
X108500000Y-47000500D01*
X109375000Y-46125500D02*
X110200000Y-46125500D01*
%TO.N,Board_18-Net-(D1-K)*%
X111762500Y-47875500D02*
X111800000Y-47913000D01*
X110200000Y-47875500D02*
X111762500Y-47875500D01*
%TO.N,Board_46-Net-(D1-A)*%
X168500000Y-71000500D02*
X169375000Y-70125500D01*
X169375000Y-70125500D02*
X170200000Y-70125500D01*
X166500000Y-71000500D02*
X168500000Y-71000500D01*
%TO.N,Board_22-Net-(D1-A)*%
X169375000Y-46125500D02*
X170200000Y-46125500D01*
X166500000Y-47000500D02*
X168500000Y-47000500D01*
X168500000Y-47000500D02*
X169375000Y-46125500D01*
%TO.N,Board_69-Net-(H2-Pad1)*%
X158500000Y-95000500D02*
X160500000Y-95000500D01*
X156800000Y-94088000D02*
X157587500Y-94088000D01*
X157587500Y-94088000D02*
X158500000Y-95000500D01*
%TO.N,Board_54-Net-(D1-A)*%
X106500000Y-83000500D02*
X108500000Y-83000500D01*
X108500000Y-83000500D02*
X109375000Y-82125500D01*
X109375000Y-82125500D02*
X110200000Y-82125500D01*
%TO.N,Board_38-Net-(D1-A)*%
X138500000Y-65000500D02*
X139375000Y-64125500D01*
X139375000Y-64125500D02*
X140200000Y-64125500D01*
X136500000Y-65000500D02*
X138500000Y-65000500D01*
%TO.N,Board_2-Net-(H2-Pad1)*%
X142587500Y-28088000D02*
X143500000Y-29000500D01*
X141800000Y-28088000D02*
X142587500Y-28088000D01*
X143500000Y-29000500D02*
X145500000Y-29000500D01*
%TO.N,Board_2-Net-(D1-A)*%
X139375000Y-28125500D02*
X140200000Y-28125500D01*
X136500000Y-29000500D02*
X138500000Y-29000500D01*
X138500000Y-29000500D02*
X139375000Y-28125500D01*
%TO.N,Board_2-Net-(D1-K)*%
X141762500Y-29875500D02*
X141800000Y-29913000D01*
X140200000Y-29875500D02*
X141762500Y-29875500D01*
%TO.N,Board_32-Net-(D1-A)*%
X136500000Y-59000500D02*
X138500000Y-59000500D01*
X139375000Y-58125500D02*
X140200000Y-58125500D01*
X138500000Y-59000500D02*
X139375000Y-58125500D01*
%TO.N,Board_40-Net-(H2-Pad1)*%
X171800000Y-64088000D02*
X172587500Y-64088000D01*
X172587500Y-64088000D02*
X173500000Y-65000500D01*
X173500000Y-65000500D02*
X175500000Y-65000500D01*
%TO.N,Board_6-Net-(H2-Pad1)*%
X112587500Y-34088000D02*
X113500000Y-35000500D01*
X111800000Y-34088000D02*
X112587500Y-34088000D01*
X113500000Y-35000500D02*
X115500000Y-35000500D01*
%TO.N,Board_81-Net-(D1-A)*%
X153500000Y-107000500D02*
X154375000Y-106125500D01*
X151500000Y-107000500D02*
X153500000Y-107000500D01*
X154375000Y-106125500D02*
X155200000Y-106125500D01*
%TO.N,Board_65-Net-(H2-Pad1)*%
X188500000Y-89000500D02*
X190500000Y-89000500D01*
X187587500Y-88088000D02*
X188500000Y-89000500D01*
X186800000Y-88088000D02*
X187587500Y-88088000D01*
%TO.N,Board_26-Net-(H2-Pad1)*%
X142587500Y-52088000D02*
X143500000Y-53000500D01*
X143500000Y-53000500D02*
X145500000Y-53000500D01*
X141800000Y-52088000D02*
X142587500Y-52088000D01*
%TO.N,Board_67-Net-(D1-A)*%
X123500000Y-95000500D02*
X124375000Y-94125500D01*
X121500000Y-95000500D02*
X123500000Y-95000500D01*
X124375000Y-94125500D02*
X125200000Y-94125500D01*
%TO.N,Board_67-Net-(D1-K)*%
X125200000Y-95875500D02*
X126762500Y-95875500D01*
X126762500Y-95875500D02*
X126800000Y-95913000D01*
%TO.N,Board_54-Net-(D1-K)*%
X110200000Y-83875500D02*
X111762500Y-83875500D01*
X111762500Y-83875500D02*
X111800000Y-83913000D01*
%TO.N,Board_45-Net-(H2-Pad1)*%
X156800000Y-70088000D02*
X157587500Y-70088000D01*
X158500000Y-71000500D02*
X160500000Y-71000500D01*
X157587500Y-70088000D02*
X158500000Y-71000500D01*
%TO.N,Board_55-Net-(D1-A)*%
X124375000Y-82125500D02*
X125200000Y-82125500D01*
X123500000Y-83000500D02*
X124375000Y-82125500D01*
X121500000Y-83000500D02*
X123500000Y-83000500D01*
%TO.N,Board_33-Net-(H2-Pad1)*%
X158500000Y-59000500D02*
X160500000Y-59000500D01*
X157587500Y-58088000D02*
X158500000Y-59000500D01*
X156800000Y-58088000D02*
X157587500Y-58088000D01*
%TO.N,Board_33-Net-(D1-K)*%
X156762500Y-59875500D02*
X156800000Y-59913000D01*
X155200000Y-59875500D02*
X156762500Y-59875500D01*
%TO.N,Board_72-Net-(H2-Pad1)*%
X112587500Y-100088000D02*
X113500000Y-101000500D01*
X111800000Y-100088000D02*
X112587500Y-100088000D01*
X113500000Y-101000500D02*
X115500000Y-101000500D01*
%TO.N,Board_72-Net-(D1-K)*%
X110200000Y-101875500D02*
X111762500Y-101875500D01*
X111762500Y-101875500D02*
X111800000Y-101913000D01*
%TO.N,Board_9-Net-(D1-A)*%
X154375000Y-34125500D02*
X155200000Y-34125500D01*
X151500000Y-35000500D02*
X153500000Y-35000500D01*
X153500000Y-35000500D02*
X154375000Y-34125500D01*
%TO.N,Board_5-Net-(D1-A)*%
X183500000Y-29000500D02*
X184375000Y-28125500D01*
X184375000Y-28125500D02*
X185200000Y-28125500D01*
X181500000Y-29000500D02*
X183500000Y-29000500D01*
%TO.N,Board_69-Net-(D1-A)*%
X153500000Y-95000500D02*
X154375000Y-94125500D01*
X154375000Y-94125500D02*
X155200000Y-94125500D01*
X151500000Y-95000500D02*
X153500000Y-95000500D01*
%TO.N,Board_75-Net-(D1-A)*%
X151500000Y-101000500D02*
X153500000Y-101000500D01*
X154375000Y-100125500D02*
X155200000Y-100125500D01*
X153500000Y-101000500D02*
X154375000Y-100125500D01*
%TO.N,Board_37-Net-(D1-A)*%
X121500000Y-65000500D02*
X123500000Y-65000500D01*
X123500000Y-65000500D02*
X124375000Y-64125500D01*
X124375000Y-64125500D02*
X125200000Y-64125500D01*
%TO.N,Board_31-Net-(D1-A)*%
X121500000Y-59000500D02*
X123500000Y-59000500D01*
X123500000Y-59000500D02*
X124375000Y-58125500D01*
X124375000Y-58125500D02*
X125200000Y-58125500D01*
%TO.N,Board_3-Net-(D1-A)*%
X151500000Y-29000500D02*
X153500000Y-29000500D01*
X153500000Y-29000500D02*
X154375000Y-28125500D01*
X154375000Y-28125500D02*
X155200000Y-28125500D01*
%TO.N,Board_3-Net-(D1-K)*%
X155200000Y-29875500D02*
X156762500Y-29875500D01*
X156762500Y-29875500D02*
X156800000Y-29913000D01*
%TO.N,Board_20-Net-(D1-A)*%
X139375000Y-46125500D02*
X140200000Y-46125500D01*
X138500000Y-47000500D02*
X139375000Y-46125500D01*
X136500000Y-47000500D02*
X138500000Y-47000500D01*
%TO.N,Board_20-Net-(D1-K)*%
X141762500Y-47875500D02*
X141800000Y-47913000D01*
X140200000Y-47875500D02*
X141762500Y-47875500D01*
%TO.N,Board_74-Net-(H2-Pad1)*%
X143500000Y-101000500D02*
X145500000Y-101000500D01*
X142587500Y-100088000D02*
X143500000Y-101000500D01*
X141800000Y-100088000D02*
X142587500Y-100088000D01*
%TO.N,Board_30-Net-(D1-A)*%
X108500000Y-59000500D02*
X109375000Y-58125500D01*
X106500000Y-59000500D02*
X108500000Y-59000500D01*
X109375000Y-58125500D02*
X110200000Y-58125500D01*
%TO.N,Board_13-Net-(H2-Pad1)*%
X127587500Y-40088000D02*
X128500000Y-41000500D01*
X128500000Y-41000500D02*
X130500000Y-41000500D01*
X126800000Y-40088000D02*
X127587500Y-40088000D01*
%TO.N,Board_13-Net-(D1-K)*%
X126762500Y-41875500D02*
X126800000Y-41913000D01*
X125200000Y-41875500D02*
X126762500Y-41875500D01*
%TO.N,Board_36-Net-(H2-Pad1)*%
X111800000Y-64088000D02*
X112587500Y-64088000D01*
X112587500Y-64088000D02*
X113500000Y-65000500D01*
X113500000Y-65000500D02*
X115500000Y-65000500D01*
%TO.N,Board_14-Net-(H2-Pad1)*%
X141800000Y-40088000D02*
X142587500Y-40088000D01*
X143500000Y-41000500D02*
X145500000Y-41000500D01*
X142587500Y-40088000D02*
X143500000Y-41000500D01*
%TO.N,Board_47-Net-(H2-Pad1)*%
X186800000Y-70088000D02*
X187587500Y-70088000D01*
X187587500Y-70088000D02*
X188500000Y-71000500D01*
X188500000Y-71000500D02*
X190500000Y-71000500D01*
%TO.N,Board_52-Net-(H2-Pad1)*%
X171800000Y-76088000D02*
X172587500Y-76088000D01*
X173500000Y-77000500D02*
X175500000Y-77000500D01*
X172587500Y-76088000D02*
X173500000Y-77000500D01*
%TO.N,Board_49-Net-(D1-K)*%
X125200000Y-77875500D02*
X126762500Y-77875500D01*
X126762500Y-77875500D02*
X126800000Y-77913000D01*
%TO.N,Board_79-Net-(D1-A)*%
X124375000Y-106125500D02*
X125200000Y-106125500D01*
X123500000Y-107000500D02*
X124375000Y-106125500D01*
X121500000Y-107000500D02*
X123500000Y-107000500D01*
%TO.N,Board_54-Net-(H2-Pad1)*%
X112587500Y-82088000D02*
X113500000Y-83000500D01*
X113500000Y-83000500D02*
X115500000Y-83000500D01*
X111800000Y-82088000D02*
X112587500Y-82088000D01*
%TO.N,Board_38-Net-(H2-Pad1)*%
X141800000Y-64088000D02*
X142587500Y-64088000D01*
X142587500Y-64088000D02*
X143500000Y-65000500D01*
X143500000Y-65000500D02*
X145500000Y-65000500D01*
%TO.N,Board_22-Net-(H2-Pad1)*%
X171800000Y-46088000D02*
X172587500Y-46088000D01*
X173500000Y-47000500D02*
X175500000Y-47000500D01*
X172587500Y-46088000D02*
X173500000Y-47000500D01*
%TO.N,Board_22-Net-(D1-K)*%
X171762500Y-47875500D02*
X171800000Y-47913000D01*
X170200000Y-47875500D02*
X171762500Y-47875500D01*
%TO.N,Board_45-Net-(D1-A)*%
X151500000Y-71000500D02*
X153500000Y-71000500D01*
X154375000Y-70125500D02*
X155200000Y-70125500D01*
X153500000Y-71000500D02*
X154375000Y-70125500D01*
%TO.N,Board_45-Net-(D1-K)*%
X156762500Y-71875500D02*
X156800000Y-71913000D01*
X155200000Y-71875500D02*
X156762500Y-71875500D01*
%TO.N,Board_52-Net-(D1-A)*%
X166500000Y-77000500D02*
X168500000Y-77000500D01*
X168500000Y-77000500D02*
X169375000Y-76125500D01*
X169375000Y-76125500D02*
X170200000Y-76125500D01*
%TO.N,Board_52-Net-(D1-K)*%
X170200000Y-77875500D02*
X171762500Y-77875500D01*
X171762500Y-77875500D02*
X171800000Y-77913000D01*
%TO.N,Board_24-Net-(D1-A)*%
X109375000Y-52125500D02*
X110200000Y-52125500D01*
X106500000Y-53000500D02*
X108500000Y-53000500D01*
X108500000Y-53000500D02*
X109375000Y-52125500D01*
%TO.N,Board_12-Net-(H2-Pad1)*%
X112587500Y-40088000D02*
X113500000Y-41000500D01*
X111800000Y-40088000D02*
X112587500Y-40088000D01*
X113500000Y-41000500D02*
X115500000Y-41000500D01*
%TO.N,Board_12-Net-(D1-K)*%
X111762500Y-41875500D02*
X111800000Y-41913000D01*
X110200000Y-41875500D02*
X111762500Y-41875500D01*
%TO.N,Board_3-Net-(H2-Pad1)*%
X157587500Y-28088000D02*
X158500000Y-29000500D01*
X158500000Y-29000500D02*
X160500000Y-29000500D01*
X156800000Y-28088000D02*
X157587500Y-28088000D01*
%TO.N,Board_75-Net-(H2-Pad1)*%
X156800000Y-100088000D02*
X157587500Y-100088000D01*
X158500000Y-101000500D02*
X160500000Y-101000500D01*
X157587500Y-100088000D02*
X158500000Y-101000500D01*
%TO.N,Board_75-Net-(D1-K)*%
X155200000Y-101875500D02*
X156762500Y-101875500D01*
X156762500Y-101875500D02*
X156800000Y-101913000D01*
%TO.N,Board_81-Net-(H2-Pad1)*%
X158500000Y-107000500D02*
X160500000Y-107000500D01*
X157587500Y-106088000D02*
X158500000Y-107000500D01*
X156800000Y-106088000D02*
X157587500Y-106088000D01*
%TO.N,Board_81-Net-(D1-K)*%
X155200000Y-107875500D02*
X156762500Y-107875500D01*
X156762500Y-107875500D02*
X156800000Y-107913000D01*
%TO.N,Board_65-Net-(D1-A)*%
X184375000Y-88125500D02*
X185200000Y-88125500D01*
X183500000Y-89000500D02*
X184375000Y-88125500D01*
X181500000Y-89000500D02*
X183500000Y-89000500D01*
%TO.N,Board_10-Net-(H2-Pad1)*%
X173500000Y-35000500D02*
X175500000Y-35000500D01*
X171800000Y-34088000D02*
X172587500Y-34088000D01*
X172587500Y-34088000D02*
X173500000Y-35000500D01*
%TO.N,Board_10-Net-(D1-K)*%
X171762500Y-35875500D02*
X171800000Y-35913000D01*
X170200000Y-35875500D02*
X171762500Y-35875500D01*
%TO.N,Board_30-Net-(H2-Pad1)*%
X112587500Y-58088000D02*
X113500000Y-59000500D01*
X113500000Y-59000500D02*
X115500000Y-59000500D01*
X111800000Y-58088000D02*
X112587500Y-58088000D01*
%TO.N,Board_30-Net-(D1-K)*%
X111762500Y-59875500D02*
X111800000Y-59913000D01*
X110200000Y-59875500D02*
X111762500Y-59875500D01*
%TO.N,Board_66-Net-(D1-A)*%
X108500000Y-95000500D02*
X109375000Y-94125500D01*
X109375000Y-94125500D02*
X110200000Y-94125500D01*
X106500000Y-95000500D02*
X108500000Y-95000500D01*
%TO.N,Board_66-Net-(D1-K)*%
X111762500Y-95875500D02*
X111800000Y-95913000D01*
X110200000Y-95875500D02*
X111762500Y-95875500D01*
%TO.N,Board_64-Net-(H2-Pad1)*%
X172587500Y-88088000D02*
X173500000Y-89000500D01*
X171800000Y-88088000D02*
X172587500Y-88088000D01*
X173500000Y-89000500D02*
X175500000Y-89000500D01*
%TO.N,Board_64-Net-(D1-K)*%
X171762500Y-89875500D02*
X171800000Y-89913000D01*
X170200000Y-89875500D02*
X171762500Y-89875500D01*
%TO.N,Board_24-Net-(H2-Pad1)*%
X113500000Y-53000500D02*
X115500000Y-53000500D01*
X112587500Y-52088000D02*
X113500000Y-53000500D01*
X111800000Y-52088000D02*
X112587500Y-52088000D01*
%TO.N,Board_62-Net-(D1-A)*%
X136500000Y-89000500D02*
X138500000Y-89000500D01*
X138500000Y-89000500D02*
X139375000Y-88125500D01*
X139375000Y-88125500D02*
X140200000Y-88125500D01*
%TO.N,Board_15-Net-(D1-A)*%
X154375000Y-40125500D02*
X155200000Y-40125500D01*
X153500000Y-41000500D02*
X154375000Y-40125500D01*
X151500000Y-41000500D02*
X153500000Y-41000500D01*
%TO.N,Board_15-Net-(D1-K)*%
X155200000Y-41875500D02*
X156762500Y-41875500D01*
X156762500Y-41875500D02*
X156800000Y-41913000D01*
%TO.N,Board_82-Net-(H2-Pad1)*%
X171800000Y-106088000D02*
X172587500Y-106088000D01*
X172587500Y-106088000D02*
X173500000Y-107000500D01*
X173500000Y-107000500D02*
X175500000Y-107000500D01*
%TO.N,Board_82-Net-(D1-K)*%
X170200000Y-107875500D02*
X171762500Y-107875500D01*
X171762500Y-107875500D02*
X171800000Y-107913000D01*
%TO.N,Board_56-Net-(D1-A)*%
X139375000Y-82125500D02*
X140200000Y-82125500D01*
X138500000Y-83000500D02*
X139375000Y-82125500D01*
X136500000Y-83000500D02*
X138500000Y-83000500D01*
%TO.N,Board_56-Net-(D1-K)*%
X140200000Y-83875500D02*
X141762500Y-83875500D01*
X141762500Y-83875500D02*
X141800000Y-83913000D01*
%TO.N,Board_34-Net-(H2-Pad1)*%
X172587500Y-58088000D02*
X173500000Y-59000500D01*
X171800000Y-58088000D02*
X172587500Y-58088000D01*
X173500000Y-59000500D02*
X175500000Y-59000500D01*
%TO.N,Board_39-Net-(H2-Pad1)*%
X156800000Y-64088000D02*
X157587500Y-64088000D01*
X158500000Y-65000500D02*
X160500000Y-65000500D01*
X157587500Y-64088000D02*
X158500000Y-65000500D01*
%TO.N,Board_26-Net-(D1-A)*%
X136500000Y-53000500D02*
X138500000Y-53000500D01*
X138500000Y-53000500D02*
X139375000Y-52125500D01*
X139375000Y-52125500D02*
X140200000Y-52125500D01*
%TO.N,Board_26-Net-(D1-K)*%
X140200000Y-53875500D02*
X141762500Y-53875500D01*
X141762500Y-53875500D02*
X141800000Y-53913000D01*
%TO.N,Board_44-Net-(D1-A)*%
X138500000Y-71000500D02*
X139375000Y-70125500D01*
X136500000Y-71000500D02*
X138500000Y-71000500D01*
X139375000Y-70125500D02*
X140200000Y-70125500D01*
%TO.N,Board_44-Net-(D1-K)*%
X140200000Y-71875500D02*
X141762500Y-71875500D01*
X141762500Y-71875500D02*
X141800000Y-71913000D01*
%TO.N,Board_7-Net-(D1-A)*%
X124375000Y-34125500D02*
X125200000Y-34125500D01*
X123500000Y-35000500D02*
X124375000Y-34125500D01*
X121500000Y-35000500D02*
X123500000Y-35000500D01*
%TO.N,Board_7-Net-(D1-K)*%
X125200000Y-35875500D02*
X126762500Y-35875500D01*
X126762500Y-35875500D02*
X126800000Y-35913000D01*
%TO.N,Board_73-Net-(H2-Pad1)*%
X126800000Y-100088000D02*
X127587500Y-100088000D01*
X127587500Y-100088000D02*
X128500000Y-101000500D01*
X128500000Y-101000500D02*
X130500000Y-101000500D01*
%TO.N,Board_41-Net-(H2-Pad1)*%
X187587500Y-64088000D02*
X188500000Y-65000500D01*
X188500000Y-65000500D02*
X190500000Y-65000500D01*
X186800000Y-64088000D02*
X187587500Y-64088000D01*
%TO.N,Board_1-Net-(H2-Pad1)*%
X128500000Y-29000500D02*
X130500000Y-29000500D01*
X126800000Y-28088000D02*
X127587500Y-28088000D01*
X127587500Y-28088000D02*
X128500000Y-29000500D01*
%TO.N,Board_1-Net-(D1-K)*%
X125200000Y-29875500D02*
X126762500Y-29875500D01*
X126762500Y-29875500D02*
X126800000Y-29913000D01*
%TO.N,Board_29-Net-(D1-A)*%
X183500000Y-53000500D02*
X184375000Y-52125500D01*
X184375000Y-52125500D02*
X185200000Y-52125500D01*
X181500000Y-53000500D02*
X183500000Y-53000500D01*
%TO.N,Board_49-Net-(D1-A)*%
X121500000Y-77000500D02*
X123500000Y-77000500D01*
X123500000Y-77000500D02*
X124375000Y-76125500D01*
X124375000Y-76125500D02*
X125200000Y-76125500D01*
%TO.N,Board_60-Net-(D1-A)*%
X106500000Y-89000500D02*
X108500000Y-89000500D01*
X108500000Y-89000500D02*
X109375000Y-88125500D01*
X109375000Y-88125500D02*
X110200000Y-88125500D01*
%TO.N,Board_60-Net-(D1-K)*%
X111762500Y-89875500D02*
X111800000Y-89913000D01*
X110200000Y-89875500D02*
X111762500Y-89875500D01*
%TO.N,Board_58-Net-(D1-A)*%
X169375000Y-82125500D02*
X170200000Y-82125500D01*
X166500000Y-83000500D02*
X168500000Y-83000500D01*
X168500000Y-83000500D02*
X169375000Y-82125500D01*
%TO.N,Board_58-Net-(D1-K)*%
X170200000Y-83875500D02*
X171762500Y-83875500D01*
X171762500Y-83875500D02*
X171800000Y-83913000D01*
%TO.N,Board_41-Net-(D1-A)*%
X181500000Y-65000500D02*
X183500000Y-65000500D01*
X184375000Y-64125500D02*
X185200000Y-64125500D01*
X183500000Y-65000500D02*
X184375000Y-64125500D01*
%TO.N,Board_4-Net-(H2-Pad1)*%
X171800000Y-28088000D02*
X172587500Y-28088000D01*
X172587500Y-28088000D02*
X173500000Y-29000500D01*
X173500000Y-29000500D02*
X175500000Y-29000500D01*
%TO.N,Board_6-Net-(D1-A)*%
X109375000Y-34125500D02*
X110200000Y-34125500D01*
X106500000Y-35000500D02*
X108500000Y-35000500D01*
X108500000Y-35000500D02*
X109375000Y-34125500D01*
%TO.N,Board_6-Net-(D1-K)*%
X110200000Y-35875500D02*
X111762500Y-35875500D01*
X111762500Y-35875500D02*
X111800000Y-35913000D01*
%TO.N,Board_28-Net-(D1-K)*%
X171762500Y-53875500D02*
X171800000Y-53913000D01*
X170200000Y-53875500D02*
X171762500Y-53875500D01*
%TO.N,Board_57-Net-(H2-Pad1)*%
X156800000Y-82088000D02*
X157587500Y-82088000D01*
X157587500Y-82088000D02*
X158500000Y-83000500D01*
X158500000Y-83000500D02*
X160500000Y-83000500D01*
%TO.N,Board_57-Net-(D1-K)*%
X155200000Y-83875500D02*
X156762500Y-83875500D01*
X156762500Y-83875500D02*
X156800000Y-83913000D01*
%TO.N,Board_0-Net-(H2-Pad1)*%
X111800000Y-28088000D02*
X112587500Y-28088000D01*
X113500000Y-29000500D02*
X115500000Y-29000500D01*
X112587500Y-28088000D02*
X113500000Y-29000500D01*
%TO.N,Board_0-Net-(D1-K)*%
X110200000Y-29875500D02*
X111762500Y-29875500D01*
X111762500Y-29875500D02*
X111800000Y-29913000D01*
%TO.N,Board_61-Net-(D1-A)*%
X121500000Y-89000500D02*
X123500000Y-89000500D01*
X123500000Y-89000500D02*
X124375000Y-88125500D01*
X124375000Y-88125500D02*
X125200000Y-88125500D01*
%TO.N,Board_61-Net-(D1-K)*%
X125200000Y-89875500D02*
X126762500Y-89875500D01*
X126762500Y-89875500D02*
X126800000Y-89913000D01*
%TO.N,Board_28-Net-(D1-A)*%
X169375000Y-52125500D02*
X170200000Y-52125500D01*
X168500000Y-53000500D02*
X169375000Y-52125500D01*
X166500000Y-53000500D02*
X168500000Y-53000500D01*
%TO.N,Board_34-Net-(D1-A)*%
X169375000Y-58125500D02*
X170200000Y-58125500D01*
X168500000Y-59000500D02*
X169375000Y-58125500D01*
X166500000Y-59000500D02*
X168500000Y-59000500D01*
%TO.N,Board_34-Net-(D1-K)*%
X171762500Y-59875500D02*
X171800000Y-59913000D01*
X170200000Y-59875500D02*
X171762500Y-59875500D01*
%TO.N,Board_29-Net-(H2-Pad1)*%
X186800000Y-52088000D02*
X187587500Y-52088000D01*
X187587500Y-52088000D02*
X188500000Y-53000500D01*
X188500000Y-53000500D02*
X190500000Y-53000500D01*
%TO.N,Board_29-Net-(D1-K)*%
X185200000Y-53875500D02*
X186762500Y-53875500D01*
X186762500Y-53875500D02*
X186800000Y-53913000D01*
%TO.N,Board_15-Net-(H2-Pad1)*%
X157587500Y-40088000D02*
X158500000Y-41000500D01*
X156800000Y-40088000D02*
X157587500Y-40088000D01*
X158500000Y-41000500D02*
X160500000Y-41000500D01*
%TO.N,Board_71-Net-(H2-Pad1)*%
X188500000Y-95000500D02*
X190500000Y-95000500D01*
X187587500Y-94088000D02*
X188500000Y-95000500D01*
X186800000Y-94088000D02*
X187587500Y-94088000D01*
%TO.N,Board_68-Net-(H2-Pad1)*%
X143500000Y-95000500D02*
X145500000Y-95000500D01*
X141800000Y-94088000D02*
X142587500Y-94088000D01*
X142587500Y-94088000D02*
X143500000Y-95000500D01*
%TO.N,Board_68-Net-(D1-K)*%
X140200000Y-95875500D02*
X141762500Y-95875500D01*
X141762500Y-95875500D02*
X141800000Y-95913000D01*
%TO.N,Board_77-Net-(D1-A)*%
X184375000Y-100125500D02*
X185200000Y-100125500D01*
X183500000Y-101000500D02*
X184375000Y-100125500D01*
X181500000Y-101000500D02*
X183500000Y-101000500D01*
%TO.N,Board_77-Net-(D1-K)*%
X185200000Y-101875500D02*
X186762500Y-101875500D01*
X186762500Y-101875500D02*
X186800000Y-101913000D01*
%TO.N,Board_83-Net-(D1-A)*%
X184375000Y-106125500D02*
X185200000Y-106125500D01*
X183500000Y-107000500D02*
X184375000Y-106125500D01*
X181500000Y-107000500D02*
X183500000Y-107000500D01*
%TO.N,Board_83-Net-(D1-K)*%
X186762500Y-107875500D02*
X186800000Y-107913000D01*
X185200000Y-107875500D02*
X186762500Y-107875500D01*
%TO.N,Board_79-Net-(H2-Pad1)*%
X127587500Y-106088000D02*
X128500000Y-107000500D01*
X126800000Y-106088000D02*
X127587500Y-106088000D01*
X128500000Y-107000500D02*
X130500000Y-107000500D01*
%TO.N,Board_36-Net-(D1-A)*%
X109375000Y-64125500D02*
X110200000Y-64125500D01*
X106500000Y-65000500D02*
X108500000Y-65000500D01*
X108500000Y-65000500D02*
X109375000Y-64125500D01*
%TO.N,Board_36-Net-(D1-K)*%
X111762500Y-65875500D02*
X111800000Y-65913000D01*
X110200000Y-65875500D02*
X111762500Y-65875500D01*
%TD*%
M02*
