%TF.GenerationSoftware,KiCad,Pcbnew,10.0.0*%
%TF.CreationDate,2026-03-26T02:04:37+01:00*%
%TF.ProjectId,resistor_0805_order,72657369-7374-46f7-925f-303830355f6f,rev?*%
%TF.SameCoordinates,Original*%
%TF.FileFunction,Legend,Top*%
%TF.FilePolarity,Positive*%
%FSLAX46Y46*%
G04 Gerber Fmt 4.6, Leading zero omitted, Abs format (unit mm)*
G04 Created by KiCad (PCBNEW 10.0.0) date 2026-03-26 02:04:37*
%MOMM*%
%LPD*%
G01*
G04 APERTURE LIST*
%ADD10C,0.150000*%
%ADD11C,0.120000*%
G04 APERTURE END LIST*
D10*
X187836779Y-105489366D02*
X188598684Y-105489366D01*
X187836779Y-99489366D02*
X188598684Y-99489366D01*
X187836779Y-93489366D02*
X188598684Y-93489366D01*
X187836779Y-87489366D02*
X188598684Y-87489366D01*
X187836779Y-81489366D02*
X188598684Y-81489366D01*
X187836779Y-75489366D02*
X188598684Y-75489366D01*
X187836779Y-69489366D02*
X188598684Y-69489366D01*
X187836779Y-63489366D02*
X188598684Y-63489366D01*
X187836779Y-57489366D02*
X188598684Y-57489366D01*
X187836779Y-51489366D02*
X188598684Y-51489366D01*
X187836779Y-45489366D02*
X188598684Y-45489366D01*
X187836779Y-39489366D02*
X188598684Y-39489366D01*
X187836779Y-33489366D02*
X188598684Y-33489366D01*
X187836779Y-27489366D02*
X188598684Y-27489366D01*
X183336779Y-108489366D02*
X184098684Y-108489366D01*
X183717731Y-108870319D02*
X183717731Y-108108414D01*
X183336779Y-102489366D02*
X184098684Y-102489366D01*
X183717731Y-102870319D02*
X183717731Y-102108414D01*
X183336779Y-96489366D02*
X184098684Y-96489366D01*
X183717731Y-96870319D02*
X183717731Y-96108414D01*
X183336779Y-90489366D02*
X184098684Y-90489366D01*
X183717731Y-90870319D02*
X183717731Y-90108414D01*
X183336779Y-84489366D02*
X184098684Y-84489366D01*
X183717731Y-84870319D02*
X183717731Y-84108414D01*
X183336779Y-78489366D02*
X184098684Y-78489366D01*
X183717731Y-78870319D02*
X183717731Y-78108414D01*
X183336779Y-72489366D02*
X184098684Y-72489366D01*
X183717731Y-72870319D02*
X183717731Y-72108414D01*
X183336779Y-66489366D02*
X184098684Y-66489366D01*
X183717731Y-66870319D02*
X183717731Y-66108414D01*
X183336779Y-60489366D02*
X184098684Y-60489366D01*
X183717731Y-60870319D02*
X183717731Y-60108414D01*
X183336779Y-54489366D02*
X184098684Y-54489366D01*
X183717731Y-54870319D02*
X183717731Y-54108414D01*
X183336779Y-48489366D02*
X184098684Y-48489366D01*
X183717731Y-48870319D02*
X183717731Y-48108414D01*
X183336779Y-42489366D02*
X184098684Y-42489366D01*
X183717731Y-42870319D02*
X183717731Y-42108414D01*
X183336779Y-36489366D02*
X184098684Y-36489366D01*
X183717731Y-36870319D02*
X183717731Y-36108414D01*
X183336779Y-30489366D02*
X184098684Y-30489366D01*
X183717731Y-30870319D02*
X183717731Y-30108414D01*
X172836779Y-105489366D02*
X173598684Y-105489366D01*
X172836779Y-99489366D02*
X173598684Y-99489366D01*
X172836779Y-93489366D02*
X173598684Y-93489366D01*
X172836779Y-87489366D02*
X173598684Y-87489366D01*
X172836779Y-81489366D02*
X173598684Y-81489366D01*
X172836779Y-75489366D02*
X173598684Y-75489366D01*
X172836779Y-69489366D02*
X173598684Y-69489366D01*
X172836779Y-63489366D02*
X173598684Y-63489366D01*
X172836779Y-57489366D02*
X173598684Y-57489366D01*
X172836779Y-51489366D02*
X173598684Y-51489366D01*
X172836779Y-45489366D02*
X173598684Y-45489366D01*
X172836779Y-39489366D02*
X173598684Y-39489366D01*
X172836779Y-33489366D02*
X173598684Y-33489366D01*
X172836779Y-27489366D02*
X173598684Y-27489366D01*
X168336779Y-108489366D02*
X169098684Y-108489366D01*
X168717731Y-108870319D02*
X168717731Y-108108414D01*
X168336779Y-102489366D02*
X169098684Y-102489366D01*
X168717731Y-102870319D02*
X168717731Y-102108414D01*
X168336779Y-96489366D02*
X169098684Y-96489366D01*
X168717731Y-96870319D02*
X168717731Y-96108414D01*
X168336779Y-90489366D02*
X169098684Y-90489366D01*
X168717731Y-90870319D02*
X168717731Y-90108414D01*
X168336779Y-84489366D02*
X169098684Y-84489366D01*
X168717731Y-84870319D02*
X168717731Y-84108414D01*
X168336779Y-78489366D02*
X169098684Y-78489366D01*
X168717731Y-78870319D02*
X168717731Y-78108414D01*
X168336779Y-72489366D02*
X169098684Y-72489366D01*
X168717731Y-72870319D02*
X168717731Y-72108414D01*
X168336779Y-66489366D02*
X169098684Y-66489366D01*
X168717731Y-66870319D02*
X168717731Y-66108414D01*
X168336779Y-60489366D02*
X169098684Y-60489366D01*
X168717731Y-60870319D02*
X168717731Y-60108414D01*
X168336779Y-54489366D02*
X169098684Y-54489366D01*
X168717731Y-54870319D02*
X168717731Y-54108414D01*
X168336779Y-48489366D02*
X169098684Y-48489366D01*
X168717731Y-48870319D02*
X168717731Y-48108414D01*
X168336779Y-42489366D02*
X169098684Y-42489366D01*
X168717731Y-42870319D02*
X168717731Y-42108414D01*
X168336779Y-36489366D02*
X169098684Y-36489366D01*
X168717731Y-36870319D02*
X168717731Y-36108414D01*
X168336779Y-30489366D02*
X169098684Y-30489366D01*
X168717731Y-30870319D02*
X168717731Y-30108414D01*
X157836779Y-105489366D02*
X158598684Y-105489366D01*
X157836779Y-99489366D02*
X158598684Y-99489366D01*
X157836779Y-93489366D02*
X158598684Y-93489366D01*
X157836779Y-87489366D02*
X158598684Y-87489366D01*
X157836779Y-81489366D02*
X158598684Y-81489366D01*
X157836779Y-75489366D02*
X158598684Y-75489366D01*
X157836779Y-69489366D02*
X158598684Y-69489366D01*
X157836779Y-63489366D02*
X158598684Y-63489366D01*
X157836779Y-57489366D02*
X158598684Y-57489366D01*
X157836779Y-51489366D02*
X158598684Y-51489366D01*
X157836779Y-45489366D02*
X158598684Y-45489366D01*
X157836779Y-39489366D02*
X158598684Y-39489366D01*
X157836779Y-33489366D02*
X158598684Y-33489366D01*
X157836779Y-27489366D02*
X158598684Y-27489366D01*
X153336779Y-108489366D02*
X154098684Y-108489366D01*
X153717731Y-108870319D02*
X153717731Y-108108414D01*
X153336779Y-102489366D02*
X154098684Y-102489366D01*
X153717731Y-102870319D02*
X153717731Y-102108414D01*
X153336779Y-96489366D02*
X154098684Y-96489366D01*
X153717731Y-96870319D02*
X153717731Y-96108414D01*
X153336779Y-90489366D02*
X154098684Y-90489366D01*
X153717731Y-90870319D02*
X153717731Y-90108414D01*
X153336779Y-84489366D02*
X154098684Y-84489366D01*
X153717731Y-84870319D02*
X153717731Y-84108414D01*
X153336779Y-78489366D02*
X154098684Y-78489366D01*
X153717731Y-78870319D02*
X153717731Y-78108414D01*
X153336779Y-72489366D02*
X154098684Y-72489366D01*
X153717731Y-72870319D02*
X153717731Y-72108414D01*
X153336779Y-66489366D02*
X154098684Y-66489366D01*
X153717731Y-66870319D02*
X153717731Y-66108414D01*
X153336779Y-60489366D02*
X154098684Y-60489366D01*
X153717731Y-60870319D02*
X153717731Y-60108414D01*
X153336779Y-54489366D02*
X154098684Y-54489366D01*
X153717731Y-54870319D02*
X153717731Y-54108414D01*
X153336779Y-48489366D02*
X154098684Y-48489366D01*
X153717731Y-48870319D02*
X153717731Y-48108414D01*
X153336779Y-42489366D02*
X154098684Y-42489366D01*
X153717731Y-42870319D02*
X153717731Y-42108414D01*
X153336779Y-36489366D02*
X154098684Y-36489366D01*
X153717731Y-36870319D02*
X153717731Y-36108414D01*
X153336779Y-30489366D02*
X154098684Y-30489366D01*
X153717731Y-30870319D02*
X153717731Y-30108414D01*
X142836779Y-105489366D02*
X143598684Y-105489366D01*
X142836779Y-99489366D02*
X143598684Y-99489366D01*
X142836779Y-93489366D02*
X143598684Y-93489366D01*
X142836779Y-87489366D02*
X143598684Y-87489366D01*
X142836779Y-81489366D02*
X143598684Y-81489366D01*
X142836779Y-75489366D02*
X143598684Y-75489366D01*
X142836779Y-69489366D02*
X143598684Y-69489366D01*
X142836779Y-63489366D02*
X143598684Y-63489366D01*
X142836779Y-57489366D02*
X143598684Y-57489366D01*
X142836779Y-51489366D02*
X143598684Y-51489366D01*
X142836779Y-45489366D02*
X143598684Y-45489366D01*
X142836779Y-39489366D02*
X143598684Y-39489366D01*
X142836779Y-33489366D02*
X143598684Y-33489366D01*
X142836779Y-27489366D02*
X143598684Y-27489366D01*
X138336779Y-108489366D02*
X139098684Y-108489366D01*
X138717731Y-108870319D02*
X138717731Y-108108414D01*
X138336779Y-102489366D02*
X139098684Y-102489366D01*
X138717731Y-102870319D02*
X138717731Y-102108414D01*
X138336779Y-96489366D02*
X139098684Y-96489366D01*
X138717731Y-96870319D02*
X138717731Y-96108414D01*
X138336779Y-90489366D02*
X139098684Y-90489366D01*
X138717731Y-90870319D02*
X138717731Y-90108414D01*
X138336779Y-84489366D02*
X139098684Y-84489366D01*
X138717731Y-84870319D02*
X138717731Y-84108414D01*
X138336779Y-78489366D02*
X139098684Y-78489366D01*
X138717731Y-78870319D02*
X138717731Y-78108414D01*
X138336779Y-72489366D02*
X139098684Y-72489366D01*
X138717731Y-72870319D02*
X138717731Y-72108414D01*
X138336779Y-66489366D02*
X139098684Y-66489366D01*
X138717731Y-66870319D02*
X138717731Y-66108414D01*
X138336779Y-60489366D02*
X139098684Y-60489366D01*
X138717731Y-60870319D02*
X138717731Y-60108414D01*
X138336779Y-54489366D02*
X139098684Y-54489366D01*
X138717731Y-54870319D02*
X138717731Y-54108414D01*
X138336779Y-48489366D02*
X139098684Y-48489366D01*
X138717731Y-48870319D02*
X138717731Y-48108414D01*
X138336779Y-42489366D02*
X139098684Y-42489366D01*
X138717731Y-42870319D02*
X138717731Y-42108414D01*
X138336779Y-36489366D02*
X139098684Y-36489366D01*
X138717731Y-36870319D02*
X138717731Y-36108414D01*
X138336779Y-30489366D02*
X139098684Y-30489366D01*
X138717731Y-30870319D02*
X138717731Y-30108414D01*
X127836779Y-105489366D02*
X128598684Y-105489366D01*
X127836779Y-99489366D02*
X128598684Y-99489366D01*
X127836779Y-93489366D02*
X128598684Y-93489366D01*
X127836779Y-87489366D02*
X128598684Y-87489366D01*
X127836779Y-81489366D02*
X128598684Y-81489366D01*
X127836779Y-75489366D02*
X128598684Y-75489366D01*
X127836779Y-69489366D02*
X128598684Y-69489366D01*
X127836779Y-63489366D02*
X128598684Y-63489366D01*
X127836779Y-57489366D02*
X128598684Y-57489366D01*
X127836779Y-51489366D02*
X128598684Y-51489366D01*
X127836779Y-45489366D02*
X128598684Y-45489366D01*
X127836779Y-39489366D02*
X128598684Y-39489366D01*
X127836779Y-33489366D02*
X128598684Y-33489366D01*
X127836779Y-27489366D02*
X128598684Y-27489366D01*
X123336779Y-108489366D02*
X124098684Y-108489366D01*
X123717731Y-108870319D02*
X123717731Y-108108414D01*
X123336779Y-102489366D02*
X124098684Y-102489366D01*
X123717731Y-102870319D02*
X123717731Y-102108414D01*
X123336779Y-96489366D02*
X124098684Y-96489366D01*
X123717731Y-96870319D02*
X123717731Y-96108414D01*
X123336779Y-90489366D02*
X124098684Y-90489366D01*
X123717731Y-90870319D02*
X123717731Y-90108414D01*
X123336779Y-84489366D02*
X124098684Y-84489366D01*
X123717731Y-84870319D02*
X123717731Y-84108414D01*
X123336779Y-78489366D02*
X124098684Y-78489366D01*
X123717731Y-78870319D02*
X123717731Y-78108414D01*
X123336779Y-72489366D02*
X124098684Y-72489366D01*
X123717731Y-72870319D02*
X123717731Y-72108414D01*
X123336779Y-66489366D02*
X124098684Y-66489366D01*
X123717731Y-66870319D02*
X123717731Y-66108414D01*
X123336779Y-60489366D02*
X124098684Y-60489366D01*
X123717731Y-60870319D02*
X123717731Y-60108414D01*
X123336779Y-54489366D02*
X124098684Y-54489366D01*
X123717731Y-54870319D02*
X123717731Y-54108414D01*
X123336779Y-48489366D02*
X124098684Y-48489366D01*
X123717731Y-48870319D02*
X123717731Y-48108414D01*
X123336779Y-42489366D02*
X124098684Y-42489366D01*
X123717731Y-42870319D02*
X123717731Y-42108414D01*
X123336779Y-36489366D02*
X124098684Y-36489366D01*
X123717731Y-36870319D02*
X123717731Y-36108414D01*
X123336779Y-30489366D02*
X124098684Y-30489366D01*
X123717731Y-30870319D02*
X123717731Y-30108414D01*
X112836779Y-105489366D02*
X113598684Y-105489366D01*
X112836779Y-99489366D02*
X113598684Y-99489366D01*
X112836779Y-93489366D02*
X113598684Y-93489366D01*
X112836779Y-87489366D02*
X113598684Y-87489366D01*
X112836779Y-81489366D02*
X113598684Y-81489366D01*
X112836779Y-75489366D02*
X113598684Y-75489366D01*
X112836779Y-69489366D02*
X113598684Y-69489366D01*
X112836779Y-63489366D02*
X113598684Y-63489366D01*
X112836779Y-57489366D02*
X113598684Y-57489366D01*
X112836779Y-51489366D02*
X113598684Y-51489366D01*
X112836779Y-45489366D02*
X113598684Y-45489366D01*
X112836779Y-39489366D02*
X113598684Y-39489366D01*
X112836779Y-33489366D02*
X113598684Y-33489366D01*
X112836779Y-27489366D02*
X113598684Y-27489366D01*
X108336779Y-108489366D02*
X109098684Y-108489366D01*
X108717731Y-108870319D02*
X108717731Y-108108414D01*
X108336779Y-102489366D02*
X109098684Y-102489366D01*
X108717731Y-102870319D02*
X108717731Y-102108414D01*
X108336779Y-96489366D02*
X109098684Y-96489366D01*
X108717731Y-96870319D02*
X108717731Y-96108414D01*
X108336779Y-90489366D02*
X109098684Y-90489366D01*
X108717731Y-90870319D02*
X108717731Y-90108414D01*
X108336779Y-84489366D02*
X109098684Y-84489366D01*
X108717731Y-84870319D02*
X108717731Y-84108414D01*
X108336779Y-78489366D02*
X109098684Y-78489366D01*
X108717731Y-78870319D02*
X108717731Y-78108414D01*
X108336779Y-72489366D02*
X109098684Y-72489366D01*
X108717731Y-72870319D02*
X108717731Y-72108414D01*
X108336779Y-66489366D02*
X109098684Y-66489366D01*
X108717731Y-66870319D02*
X108717731Y-66108414D01*
X108336779Y-60489366D02*
X109098684Y-60489366D01*
X108717731Y-60870319D02*
X108717731Y-60108414D01*
X108336779Y-54489366D02*
X109098684Y-54489366D01*
X108717731Y-54870319D02*
X108717731Y-54108414D01*
X108336779Y-48489366D02*
X109098684Y-48489366D01*
X108717731Y-48870319D02*
X108717731Y-48108414D01*
X108336779Y-42489366D02*
X109098684Y-42489366D01*
X108717731Y-42870319D02*
X108717731Y-42108414D01*
X108336779Y-36489366D02*
X109098684Y-36489366D01*
X108717731Y-36870319D02*
X108717731Y-36108414D01*
X108336779Y-30489366D02*
X109098684Y-30489366D01*
X108717731Y-30870319D02*
X108717731Y-30108414D01*
%TO.C,R1*%
D11*
X171277500Y-29255224D02*
X171277500Y-28745776D01*
X172322500Y-29255224D02*
X172322500Y-28745776D01*
%TO.C,D1*%
X154465000Y-64200500D02*
X154465000Y-66660500D01*
X154465000Y-66660500D02*
X155935000Y-66660500D01*
X155935000Y-66660500D02*
X155935000Y-64200500D01*
X169465000Y-106200500D02*
X169465000Y-108660500D01*
X169465000Y-108660500D02*
X170935000Y-108660500D01*
X170935000Y-108660500D02*
X170935000Y-106200500D01*
X154465000Y-58200500D02*
X154465000Y-60660500D01*
X154465000Y-60660500D02*
X155935000Y-60660500D01*
X155935000Y-60660500D02*
X155935000Y-58200500D01*
%TO.C,R1*%
X156277500Y-65255224D02*
X156277500Y-64745776D01*
X157322500Y-65255224D02*
X157322500Y-64745776D01*
%TO.C,D1*%
X154465000Y-82200500D02*
X154465000Y-84660500D01*
X154465000Y-84660500D02*
X155935000Y-84660500D01*
X155935000Y-84660500D02*
X155935000Y-82200500D01*
%TO.C,R1*%
X186277500Y-89255224D02*
X186277500Y-88745776D01*
X187322500Y-89255224D02*
X187322500Y-88745776D01*
X186277500Y-29255224D02*
X186277500Y-28745776D01*
X187322500Y-29255224D02*
X187322500Y-28745776D01*
%TO.C,D1*%
X124465000Y-100200500D02*
X124465000Y-102660500D01*
X124465000Y-102660500D02*
X125935000Y-102660500D01*
X125935000Y-102660500D02*
X125935000Y-100200500D01*
%TO.C,R1*%
X156277500Y-29255224D02*
X156277500Y-28745776D01*
X157322500Y-29255224D02*
X157322500Y-28745776D01*
%TO.C,D1*%
X109465000Y-52200500D02*
X109465000Y-54660500D01*
X109465000Y-54660500D02*
X110935000Y-54660500D01*
X110935000Y-54660500D02*
X110935000Y-52200500D01*
X154465000Y-88200500D02*
X154465000Y-90660500D01*
X154465000Y-90660500D02*
X155935000Y-90660500D01*
X155935000Y-90660500D02*
X155935000Y-88200500D01*
X139465000Y-64200500D02*
X139465000Y-66660500D01*
X139465000Y-66660500D02*
X140935000Y-66660500D01*
X140935000Y-66660500D02*
X140935000Y-64200500D01*
X139465000Y-76200500D02*
X139465000Y-78660500D01*
X139465000Y-78660500D02*
X140935000Y-78660500D01*
X140935000Y-78660500D02*
X140935000Y-76200500D01*
%TO.C,R1*%
X141277500Y-35255224D02*
X141277500Y-34745776D01*
X142322500Y-35255224D02*
X142322500Y-34745776D01*
X126277500Y-77255224D02*
X126277500Y-76745776D01*
X127322500Y-77255224D02*
X127322500Y-76745776D01*
%TO.C,D1*%
X184465000Y-82200500D02*
X184465000Y-84660500D01*
X184465000Y-84660500D02*
X185935000Y-84660500D01*
X185935000Y-84660500D02*
X185935000Y-82200500D01*
X169465000Y-40200500D02*
X169465000Y-42660500D01*
X169465000Y-42660500D02*
X170935000Y-42660500D01*
X170935000Y-42660500D02*
X170935000Y-40200500D01*
%TO.C,R1*%
X111277500Y-65255224D02*
X111277500Y-64745776D01*
X112322500Y-65255224D02*
X112322500Y-64745776D01*
X186277500Y-83255224D02*
X186277500Y-82745776D01*
X187322500Y-83255224D02*
X187322500Y-82745776D01*
X111277500Y-95255224D02*
X111277500Y-94745776D01*
X112322500Y-95255224D02*
X112322500Y-94745776D01*
%TO.C,D1*%
X184465000Y-58200500D02*
X184465000Y-60660500D01*
X184465000Y-60660500D02*
X185935000Y-60660500D01*
X185935000Y-60660500D02*
X185935000Y-58200500D01*
%TO.C,R1*%
X126277500Y-35255224D02*
X126277500Y-34745776D01*
X127322500Y-35255224D02*
X127322500Y-34745776D01*
X186277500Y-35255224D02*
X186277500Y-34745776D01*
X187322500Y-35255224D02*
X187322500Y-34745776D01*
%TO.C,D1*%
X109465000Y-106200500D02*
X109465000Y-108660500D01*
X109465000Y-108660500D02*
X110935000Y-108660500D01*
X110935000Y-108660500D02*
X110935000Y-106200500D01*
%TO.C,R1*%
X126277500Y-89255224D02*
X126277500Y-88745776D01*
X127322500Y-89255224D02*
X127322500Y-88745776D01*
X171277500Y-59255224D02*
X171277500Y-58745776D01*
X172322500Y-59255224D02*
X172322500Y-58745776D01*
%TO.C,D1*%
X109465000Y-76200500D02*
X109465000Y-78660500D01*
X109465000Y-78660500D02*
X110935000Y-78660500D01*
X110935000Y-78660500D02*
X110935000Y-76200500D01*
%TO.C,R1*%
X186277500Y-59255224D02*
X186277500Y-58745776D01*
X187322500Y-59255224D02*
X187322500Y-58745776D01*
%TO.C,D1*%
X124465000Y-82200500D02*
X124465000Y-84660500D01*
X124465000Y-84660500D02*
X125935000Y-84660500D01*
X125935000Y-84660500D02*
X125935000Y-82200500D01*
X184465000Y-40200500D02*
X184465000Y-42660500D01*
X184465000Y-42660500D02*
X185935000Y-42660500D01*
X185935000Y-42660500D02*
X185935000Y-40200500D01*
X124465000Y-28200500D02*
X124465000Y-30660500D01*
X124465000Y-30660500D02*
X125935000Y-30660500D01*
X125935000Y-30660500D02*
X125935000Y-28200500D01*
X154465000Y-46200500D02*
X154465000Y-48660500D01*
X154465000Y-48660500D02*
X155935000Y-48660500D01*
X155935000Y-48660500D02*
X155935000Y-46200500D01*
%TO.C,R1*%
X171277500Y-101255224D02*
X171277500Y-100745776D01*
X172322500Y-101255224D02*
X172322500Y-100745776D01*
X171277500Y-41255224D02*
X171277500Y-40745776D01*
X172322500Y-41255224D02*
X172322500Y-40745776D01*
X111277500Y-107255224D02*
X111277500Y-106745776D01*
X112322500Y-107255224D02*
X112322500Y-106745776D01*
%TO.C,D1*%
X124465000Y-70200500D02*
X124465000Y-72660500D01*
X124465000Y-72660500D02*
X125935000Y-72660500D01*
X125935000Y-72660500D02*
X125935000Y-70200500D01*
%TO.C,R1*%
X111277500Y-71255224D02*
X111277500Y-70745776D01*
X112322500Y-71255224D02*
X112322500Y-70745776D01*
X156277500Y-89255224D02*
X156277500Y-88745776D01*
X157322500Y-89255224D02*
X157322500Y-88745776D01*
X186277500Y-41255224D02*
X186277500Y-40745776D01*
X187322500Y-41255224D02*
X187322500Y-40745776D01*
%TO.C,D1*%
X139465000Y-40200500D02*
X139465000Y-42660500D01*
X139465000Y-42660500D02*
X140935000Y-42660500D01*
X140935000Y-42660500D02*
X140935000Y-40200500D01*
%TO.C,R1*%
X171277500Y-83255224D02*
X171277500Y-82745776D01*
X172322500Y-83255224D02*
X172322500Y-82745776D01*
X141277500Y-59255224D02*
X141277500Y-58745776D01*
X142322500Y-59255224D02*
X142322500Y-58745776D01*
X141277500Y-101255224D02*
X141277500Y-100745776D01*
X142322500Y-101255224D02*
X142322500Y-100745776D01*
X126277500Y-101255224D02*
X126277500Y-100745776D01*
X127322500Y-101255224D02*
X127322500Y-100745776D01*
%TO.C,D1*%
X169465000Y-100200500D02*
X169465000Y-102660500D01*
X169465000Y-102660500D02*
X170935000Y-102660500D01*
X170935000Y-102660500D02*
X170935000Y-100200500D01*
X184465000Y-46200500D02*
X184465000Y-48660500D01*
X184465000Y-48660500D02*
X185935000Y-48660500D01*
X185935000Y-48660500D02*
X185935000Y-46200500D01*
%TO.C,R1*%
X186277500Y-95255224D02*
X186277500Y-94745776D01*
X187322500Y-95255224D02*
X187322500Y-94745776D01*
%TO.C,D1*%
X139465000Y-88200500D02*
X139465000Y-90660500D01*
X139465000Y-90660500D02*
X140935000Y-90660500D01*
X140935000Y-90660500D02*
X140935000Y-88200500D01*
X124465000Y-64200500D02*
X124465000Y-66660500D01*
X124465000Y-66660500D02*
X125935000Y-66660500D01*
X125935000Y-66660500D02*
X125935000Y-64200500D01*
X169465000Y-64200500D02*
X169465000Y-66660500D01*
X169465000Y-66660500D02*
X170935000Y-66660500D01*
X170935000Y-66660500D02*
X170935000Y-64200500D01*
X124465000Y-40200500D02*
X124465000Y-42660500D01*
X124465000Y-42660500D02*
X125935000Y-42660500D01*
X125935000Y-42660500D02*
X125935000Y-40200500D01*
%TO.C,R1*%
X156277500Y-95255224D02*
X156277500Y-94745776D01*
X157322500Y-95255224D02*
X157322500Y-94745776D01*
%TO.C,D1*%
X109465000Y-70200500D02*
X109465000Y-72660500D01*
X109465000Y-72660500D02*
X110935000Y-72660500D01*
X110935000Y-72660500D02*
X110935000Y-70200500D01*
%TO.C,R1*%
X156277500Y-35255224D02*
X156277500Y-34745776D01*
X157322500Y-35255224D02*
X157322500Y-34745776D01*
%TO.C,D1*%
X154465000Y-100200500D02*
X154465000Y-102660500D01*
X154465000Y-102660500D02*
X155935000Y-102660500D01*
X155935000Y-102660500D02*
X155935000Y-100200500D01*
%TO.C,R1*%
X171277500Y-95255224D02*
X171277500Y-94745776D01*
X172322500Y-95255224D02*
X172322500Y-94745776D01*
X156277500Y-47255224D02*
X156277500Y-46745776D01*
X157322500Y-47255224D02*
X157322500Y-46745776D01*
X186277500Y-107255224D02*
X186277500Y-106745776D01*
X187322500Y-107255224D02*
X187322500Y-106745776D01*
%TO.C,D1*%
X109465000Y-28200500D02*
X109465000Y-30660500D01*
X109465000Y-30660500D02*
X110935000Y-30660500D01*
X110935000Y-30660500D02*
X110935000Y-28200500D01*
X154465000Y-34200500D02*
X154465000Y-36660500D01*
X154465000Y-36660500D02*
X155935000Y-36660500D01*
X155935000Y-36660500D02*
X155935000Y-34200500D01*
%TO.C,R1*%
X186277500Y-47255224D02*
X186277500Y-46745776D01*
X187322500Y-47255224D02*
X187322500Y-46745776D01*
X141277500Y-71255224D02*
X141277500Y-70745776D01*
X142322500Y-71255224D02*
X142322500Y-70745776D01*
X126277500Y-83255224D02*
X126277500Y-82745776D01*
X127322500Y-83255224D02*
X127322500Y-82745776D01*
%TO.C,D1*%
X139465000Y-58200500D02*
X139465000Y-60660500D01*
X139465000Y-60660500D02*
X140935000Y-60660500D01*
X140935000Y-60660500D02*
X140935000Y-58200500D01*
X124465000Y-46200500D02*
X124465000Y-48660500D01*
X124465000Y-48660500D02*
X125935000Y-48660500D01*
X125935000Y-48660500D02*
X125935000Y-46200500D01*
X184465000Y-76200500D02*
X184465000Y-78660500D01*
X184465000Y-78660500D02*
X185935000Y-78660500D01*
X185935000Y-78660500D02*
X185935000Y-76200500D01*
X169465000Y-70200500D02*
X169465000Y-72660500D01*
X169465000Y-72660500D02*
X170935000Y-72660500D01*
X170935000Y-72660500D02*
X170935000Y-70200500D01*
X184465000Y-34200500D02*
X184465000Y-36660500D01*
X184465000Y-36660500D02*
X185935000Y-36660500D01*
X185935000Y-36660500D02*
X185935000Y-34200500D01*
X169465000Y-34200500D02*
X169465000Y-36660500D01*
X169465000Y-36660500D02*
X170935000Y-36660500D01*
X170935000Y-36660500D02*
X170935000Y-34200500D01*
%TO.C,R1*%
X111277500Y-89255224D02*
X111277500Y-88745776D01*
X112322500Y-89255224D02*
X112322500Y-88745776D01*
%TO.C,D1*%
X124465000Y-58200500D02*
X124465000Y-60660500D01*
X124465000Y-60660500D02*
X125935000Y-60660500D01*
X125935000Y-60660500D02*
X125935000Y-58200500D01*
%TO.C,R1*%
X171277500Y-65255224D02*
X171277500Y-64745776D01*
X172322500Y-65255224D02*
X172322500Y-64745776D01*
X141277500Y-41255224D02*
X141277500Y-40745776D01*
X142322500Y-41255224D02*
X142322500Y-40745776D01*
X126277500Y-95255224D02*
X126277500Y-94745776D01*
X127322500Y-95255224D02*
X127322500Y-94745776D01*
X141277500Y-89255224D02*
X141277500Y-88745776D01*
X142322500Y-89255224D02*
X142322500Y-88745776D01*
X141277500Y-47255224D02*
X141277500Y-46745776D01*
X142322500Y-47255224D02*
X142322500Y-46745776D01*
%TO.C,D1*%
X184465000Y-94200500D02*
X184465000Y-96660500D01*
X184465000Y-96660500D02*
X185935000Y-96660500D01*
X185935000Y-96660500D02*
X185935000Y-94200500D01*
X169465000Y-28200500D02*
X169465000Y-30660500D01*
X169465000Y-30660500D02*
X170935000Y-30660500D01*
X170935000Y-30660500D02*
X170935000Y-28200500D01*
%TO.C,R1*%
X126277500Y-59255224D02*
X126277500Y-58745776D01*
X127322500Y-59255224D02*
X127322500Y-58745776D01*
X126277500Y-47255224D02*
X126277500Y-46745776D01*
X127322500Y-47255224D02*
X127322500Y-46745776D01*
%TO.C,D1*%
X109465000Y-100200500D02*
X109465000Y-102660500D01*
X109465000Y-102660500D02*
X110935000Y-102660500D01*
X110935000Y-102660500D02*
X110935000Y-100200500D01*
X184465000Y-70200500D02*
X184465000Y-72660500D01*
X184465000Y-72660500D02*
X185935000Y-72660500D01*
X185935000Y-72660500D02*
X185935000Y-70200500D01*
%TO.C,R1*%
X186277500Y-71255224D02*
X186277500Y-70745776D01*
X187322500Y-71255224D02*
X187322500Y-70745776D01*
%TO.C,D1*%
X124465000Y-52200500D02*
X124465000Y-54660500D01*
X124465000Y-54660500D02*
X125935000Y-54660500D01*
X125935000Y-54660500D02*
X125935000Y-52200500D01*
%TO.C,R1*%
X111277500Y-47255224D02*
X111277500Y-46745776D01*
X112322500Y-47255224D02*
X112322500Y-46745776D01*
X126277500Y-107255224D02*
X126277500Y-106745776D01*
X127322500Y-107255224D02*
X127322500Y-106745776D01*
%TO.C,D1*%
X154465000Y-76200500D02*
X154465000Y-78660500D01*
X154465000Y-78660500D02*
X155935000Y-78660500D01*
X155935000Y-78660500D02*
X155935000Y-76200500D01*
%TO.C,R1*%
X141277500Y-77255224D02*
X141277500Y-76745776D01*
X142322500Y-77255224D02*
X142322500Y-76745776D01*
%TO.C,D1*%
X154465000Y-94200500D02*
X154465000Y-96660500D01*
X154465000Y-96660500D02*
X155935000Y-96660500D01*
X155935000Y-96660500D02*
X155935000Y-94200500D01*
X139465000Y-100200500D02*
X139465000Y-102660500D01*
X139465000Y-102660500D02*
X140935000Y-102660500D01*
X140935000Y-102660500D02*
X140935000Y-100200500D01*
X169465000Y-88200500D02*
X169465000Y-90660500D01*
X169465000Y-90660500D02*
X170935000Y-90660500D01*
X170935000Y-90660500D02*
X170935000Y-88200500D01*
%TO.C,R1*%
X111277500Y-77255224D02*
X111277500Y-76745776D01*
X112322500Y-77255224D02*
X112322500Y-76745776D01*
%TO.C,D1*%
X169465000Y-94200500D02*
X169465000Y-96660500D01*
X169465000Y-96660500D02*
X170935000Y-96660500D01*
X170935000Y-96660500D02*
X170935000Y-94200500D01*
X154465000Y-52200500D02*
X154465000Y-54660500D01*
X154465000Y-54660500D02*
X155935000Y-54660500D01*
X155935000Y-54660500D02*
X155935000Y-52200500D01*
%TO.C,R1*%
X141277500Y-65255224D02*
X141277500Y-64745776D01*
X142322500Y-65255224D02*
X142322500Y-64745776D01*
X186277500Y-65255224D02*
X186277500Y-64745776D01*
X187322500Y-65255224D02*
X187322500Y-64745776D01*
%TO.C,D1*%
X139465000Y-34200500D02*
X139465000Y-36660500D01*
X139465000Y-36660500D02*
X140935000Y-36660500D01*
X140935000Y-36660500D02*
X140935000Y-34200500D01*
%TO.C,R1*%
X126277500Y-65255224D02*
X126277500Y-64745776D01*
X127322500Y-65255224D02*
X127322500Y-64745776D01*
%TO.C,D1*%
X184465000Y-28200500D02*
X184465000Y-30660500D01*
X184465000Y-30660500D02*
X185935000Y-30660500D01*
X185935000Y-30660500D02*
X185935000Y-28200500D01*
%TO.C,R1*%
X141277500Y-107255224D02*
X141277500Y-106745776D01*
X142322500Y-107255224D02*
X142322500Y-106745776D01*
%TO.C,D1*%
X184465000Y-64200500D02*
X184465000Y-66660500D01*
X184465000Y-66660500D02*
X185935000Y-66660500D01*
X185935000Y-66660500D02*
X185935000Y-64200500D01*
X109465000Y-40200500D02*
X109465000Y-42660500D01*
X109465000Y-42660500D02*
X110935000Y-42660500D01*
X110935000Y-42660500D02*
X110935000Y-40200500D01*
%TO.C,R1*%
X141277500Y-83255224D02*
X141277500Y-82745776D01*
X142322500Y-83255224D02*
X142322500Y-82745776D01*
X111277500Y-53255224D02*
X111277500Y-52745776D01*
X112322500Y-53255224D02*
X112322500Y-52745776D01*
X126277500Y-71255224D02*
X126277500Y-70745776D01*
X127322500Y-71255224D02*
X127322500Y-70745776D01*
%TO.C,D1*%
X184465000Y-88200500D02*
X184465000Y-90660500D01*
X184465000Y-90660500D02*
X185935000Y-90660500D01*
X185935000Y-90660500D02*
X185935000Y-88200500D01*
%TO.C,R1*%
X171277500Y-71255224D02*
X171277500Y-70745776D01*
X172322500Y-71255224D02*
X172322500Y-70745776D01*
%TO.C,D1*%
X139465000Y-94200500D02*
X139465000Y-96660500D01*
X139465000Y-96660500D02*
X140935000Y-96660500D01*
X140935000Y-96660500D02*
X140935000Y-94200500D01*
%TO.C,R1*%
X186277500Y-77255224D02*
X186277500Y-76745776D01*
X187322500Y-77255224D02*
X187322500Y-76745776D01*
%TO.C,D1*%
X139465000Y-106200500D02*
X139465000Y-108660500D01*
X139465000Y-108660500D02*
X140935000Y-108660500D01*
X140935000Y-108660500D02*
X140935000Y-106200500D01*
X124465000Y-106200500D02*
X124465000Y-108660500D01*
X124465000Y-108660500D02*
X125935000Y-108660500D01*
X125935000Y-108660500D02*
X125935000Y-106200500D01*
%TO.C,R1*%
X126277500Y-53255224D02*
X126277500Y-52745776D01*
X127322500Y-53255224D02*
X127322500Y-52745776D01*
X156277500Y-77255224D02*
X156277500Y-76745776D01*
X157322500Y-77255224D02*
X157322500Y-76745776D01*
X156277500Y-53255224D02*
X156277500Y-52745776D01*
X157322500Y-53255224D02*
X157322500Y-52745776D01*
X171277500Y-53255224D02*
X171277500Y-52745776D01*
X172322500Y-53255224D02*
X172322500Y-52745776D01*
X156277500Y-41255224D02*
X156277500Y-40745776D01*
X157322500Y-41255224D02*
X157322500Y-40745776D01*
X186277500Y-101255224D02*
X186277500Y-100745776D01*
X187322500Y-101255224D02*
X187322500Y-100745776D01*
%TO.C,D1*%
X109465000Y-46200500D02*
X109465000Y-48660500D01*
X109465000Y-48660500D02*
X110935000Y-48660500D01*
X110935000Y-48660500D02*
X110935000Y-46200500D01*
X169465000Y-46200500D02*
X169465000Y-48660500D01*
X169465000Y-48660500D02*
X170935000Y-48660500D01*
X170935000Y-48660500D02*
X170935000Y-46200500D01*
X109465000Y-82200500D02*
X109465000Y-84660500D01*
X109465000Y-84660500D02*
X110935000Y-84660500D01*
X110935000Y-84660500D02*
X110935000Y-82200500D01*
%TO.C,R1*%
X141277500Y-29255224D02*
X141277500Y-28745776D01*
X142322500Y-29255224D02*
X142322500Y-28745776D01*
%TO.C,D1*%
X139465000Y-28200500D02*
X139465000Y-30660500D01*
X139465000Y-30660500D02*
X140935000Y-30660500D01*
X140935000Y-30660500D02*
X140935000Y-28200500D01*
%TO.C,R1*%
X111277500Y-35255224D02*
X111277500Y-34745776D01*
X112322500Y-35255224D02*
X112322500Y-34745776D01*
%TO.C,D1*%
X154465000Y-106200500D02*
X154465000Y-108660500D01*
X154465000Y-108660500D02*
X155935000Y-108660500D01*
X155935000Y-108660500D02*
X155935000Y-106200500D01*
%TO.C,R1*%
X141277500Y-53255224D02*
X141277500Y-52745776D01*
X142322500Y-53255224D02*
X142322500Y-52745776D01*
%TO.C,D1*%
X124465000Y-94200500D02*
X124465000Y-96660500D01*
X124465000Y-96660500D02*
X125935000Y-96660500D01*
X125935000Y-96660500D02*
X125935000Y-94200500D01*
%TO.C,R1*%
X111277500Y-83255224D02*
X111277500Y-82745776D01*
X112322500Y-83255224D02*
X112322500Y-82745776D01*
X156277500Y-71255224D02*
X156277500Y-70745776D01*
X157322500Y-71255224D02*
X157322500Y-70745776D01*
X156277500Y-59255224D02*
X156277500Y-58745776D01*
X157322500Y-59255224D02*
X157322500Y-58745776D01*
X111277500Y-101255224D02*
X111277500Y-100745776D01*
X112322500Y-101255224D02*
X112322500Y-100745776D01*
%TO.C,D1*%
X154465000Y-28200500D02*
X154465000Y-30660500D01*
X154465000Y-30660500D02*
X155935000Y-30660500D01*
X155935000Y-30660500D02*
X155935000Y-28200500D01*
X139465000Y-46200500D02*
X139465000Y-48660500D01*
X139465000Y-48660500D02*
X140935000Y-48660500D01*
X140935000Y-48660500D02*
X140935000Y-46200500D01*
X109465000Y-58200500D02*
X109465000Y-60660500D01*
X109465000Y-60660500D02*
X110935000Y-60660500D01*
X110935000Y-60660500D02*
X110935000Y-58200500D01*
%TO.C,R1*%
X126277500Y-41255224D02*
X126277500Y-40745776D01*
X127322500Y-41255224D02*
X127322500Y-40745776D01*
X171277500Y-77255224D02*
X171277500Y-76745776D01*
X172322500Y-77255224D02*
X172322500Y-76745776D01*
%TO.C,D1*%
X124465000Y-76200500D02*
X124465000Y-78660500D01*
X124465000Y-78660500D02*
X125935000Y-78660500D01*
X125935000Y-78660500D02*
X125935000Y-76200500D01*
%TO.C,R1*%
X171277500Y-47255224D02*
X171277500Y-46745776D01*
X172322500Y-47255224D02*
X172322500Y-46745776D01*
%TO.C,D1*%
X154465000Y-70200500D02*
X154465000Y-72660500D01*
X154465000Y-72660500D02*
X155935000Y-72660500D01*
X155935000Y-72660500D02*
X155935000Y-70200500D01*
X169465000Y-76200500D02*
X169465000Y-78660500D01*
X169465000Y-78660500D02*
X170935000Y-78660500D01*
X170935000Y-78660500D02*
X170935000Y-76200500D01*
%TO.C,R1*%
X111277500Y-41255224D02*
X111277500Y-40745776D01*
X112322500Y-41255224D02*
X112322500Y-40745776D01*
X156277500Y-101255224D02*
X156277500Y-100745776D01*
X157322500Y-101255224D02*
X157322500Y-100745776D01*
X156277500Y-107255224D02*
X156277500Y-106745776D01*
X157322500Y-107255224D02*
X157322500Y-106745776D01*
X171277500Y-35255224D02*
X171277500Y-34745776D01*
X172322500Y-35255224D02*
X172322500Y-34745776D01*
X111277500Y-59255224D02*
X111277500Y-58745776D01*
X112322500Y-59255224D02*
X112322500Y-58745776D01*
%TO.C,D1*%
X109465000Y-94200500D02*
X109465000Y-96660500D01*
X109465000Y-96660500D02*
X110935000Y-96660500D01*
X110935000Y-96660500D02*
X110935000Y-94200500D01*
%TO.C,R1*%
X171277500Y-89255224D02*
X171277500Y-88745776D01*
X172322500Y-89255224D02*
X172322500Y-88745776D01*
%TO.C,D1*%
X154465000Y-40200500D02*
X154465000Y-42660500D01*
X154465000Y-42660500D02*
X155935000Y-42660500D01*
X155935000Y-42660500D02*
X155935000Y-40200500D01*
%TO.C,R1*%
X171277500Y-107255224D02*
X171277500Y-106745776D01*
X172322500Y-107255224D02*
X172322500Y-106745776D01*
%TO.C,D1*%
X139465000Y-82200500D02*
X139465000Y-84660500D01*
X139465000Y-84660500D02*
X140935000Y-84660500D01*
X140935000Y-84660500D02*
X140935000Y-82200500D01*
X139465000Y-52200500D02*
X139465000Y-54660500D01*
X139465000Y-54660500D02*
X140935000Y-54660500D01*
X140935000Y-54660500D02*
X140935000Y-52200500D01*
X139465000Y-70200500D02*
X139465000Y-72660500D01*
X139465000Y-72660500D02*
X140935000Y-72660500D01*
X140935000Y-72660500D02*
X140935000Y-70200500D01*
X124465000Y-34200500D02*
X124465000Y-36660500D01*
X124465000Y-36660500D02*
X125935000Y-36660500D01*
X125935000Y-36660500D02*
X125935000Y-34200500D01*
%TO.C,R1*%
X126277500Y-29255224D02*
X126277500Y-28745776D01*
X127322500Y-29255224D02*
X127322500Y-28745776D01*
%TO.C,D1*%
X184465000Y-52200500D02*
X184465000Y-54660500D01*
X184465000Y-54660500D02*
X185935000Y-54660500D01*
X185935000Y-54660500D02*
X185935000Y-52200500D01*
X109465000Y-88200500D02*
X109465000Y-90660500D01*
X109465000Y-90660500D02*
X110935000Y-90660500D01*
X110935000Y-90660500D02*
X110935000Y-88200500D01*
X169465000Y-82200500D02*
X169465000Y-84660500D01*
X169465000Y-84660500D02*
X170935000Y-84660500D01*
X170935000Y-84660500D02*
X170935000Y-82200500D01*
X109465000Y-34200500D02*
X109465000Y-36660500D01*
X109465000Y-36660500D02*
X110935000Y-36660500D01*
X110935000Y-36660500D02*
X110935000Y-34200500D01*
X169465000Y-52200500D02*
X169465000Y-54660500D01*
X169465000Y-54660500D02*
X170935000Y-54660500D01*
X170935000Y-54660500D02*
X170935000Y-52200500D01*
%TO.C,R1*%
X156277500Y-83255224D02*
X156277500Y-82745776D01*
X157322500Y-83255224D02*
X157322500Y-82745776D01*
X111277500Y-29255224D02*
X111277500Y-28745776D01*
X112322500Y-29255224D02*
X112322500Y-28745776D01*
%TO.C,D1*%
X124465000Y-88200500D02*
X124465000Y-90660500D01*
X124465000Y-90660500D02*
X125935000Y-90660500D01*
X125935000Y-90660500D02*
X125935000Y-88200500D01*
X169465000Y-58200500D02*
X169465000Y-60660500D01*
X169465000Y-60660500D02*
X170935000Y-60660500D01*
X170935000Y-60660500D02*
X170935000Y-58200500D01*
%TO.C,R1*%
X186277500Y-53255224D02*
X186277500Y-52745776D01*
X187322500Y-53255224D02*
X187322500Y-52745776D01*
X141277500Y-95255224D02*
X141277500Y-94745776D01*
X142322500Y-95255224D02*
X142322500Y-94745776D01*
%TO.C,D1*%
X184465000Y-100200500D02*
X184465000Y-102660500D01*
X184465000Y-102660500D02*
X185935000Y-102660500D01*
X185935000Y-102660500D02*
X185935000Y-100200500D01*
X184465000Y-106200500D02*
X184465000Y-108660500D01*
X184465000Y-108660500D02*
X185935000Y-108660500D01*
X185935000Y-108660500D02*
X185935000Y-106200500D01*
X109465000Y-64200500D02*
X109465000Y-66660500D01*
X109465000Y-66660500D02*
X110935000Y-66660500D01*
X110935000Y-66660500D02*
X110935000Y-64200500D01*
%TD*%
M02*
