M48
; DRILL file KiCad 10.0.0 date 2026-03-26T02:04:35
; FORMAT={-:-/ absolute / metric / decimal}
; #@! TF.CreationDate,2026-03-26T02:04:35+01:00
; #@! TF.GenerationSoftware,Kicad,Pcbnew,10.0.0
; #@! TF.FileFunction,NonPlated,1,2,NPTH
FMAT,2
METRIC
; #@! TA.AperFunction,NonPlated,NPTH,ComponentDrill
T1C0.500
%
G90
G05
T1
X109.5Y-27.0
X109.5Y-31.0
X109.5Y-33.0
X109.5Y-37.0
X109.5Y-39.0
X109.5Y-43.0
X109.5Y-45.0
X109.5Y-49.0
X109.5Y-51.0
X109.5Y-55.0
X109.5Y-57.0
X109.5Y-61.0
X109.5Y-63.0
X109.5Y-67.001
X109.5Y-69.001
X109.5Y-73.001
X109.5Y-75.001
X109.5Y-79.001
X109.5Y-81.001
X109.5Y-85.001
X109.5Y-87.001
X109.5Y-91.001
X109.5Y-93.001
X109.5Y-97.001
X109.5Y-99.001
X109.5Y-103.001
X109.5Y-105.0
X109.5Y-109.0
X110.5Y-27.0
X110.5Y-31.0
X110.5Y-33.0
X110.5Y-37.0
X110.5Y-39.0
X110.5Y-43.0
X110.5Y-45.0
X110.5Y-49.0
X110.5Y-51.0
X110.5Y-55.0
X110.5Y-57.0
X110.5Y-61.0
X110.5Y-63.0
X110.5Y-67.001
X110.5Y-69.001
X110.5Y-73.001
X110.5Y-75.001
X110.5Y-79.001
X110.5Y-81.001
X110.5Y-85.001
X110.5Y-87.001
X110.5Y-91.001
X110.5Y-93.001
X110.5Y-97.001
X110.5Y-99.001
X110.5Y-103.001
X110.5Y-105.0
X110.5Y-109.0
X111.5Y-27.0
X111.5Y-31.0
X111.5Y-33.0
X111.5Y-37.0
X111.5Y-39.0
X111.5Y-43.0
X111.5Y-45.0
X111.5Y-49.0
X111.5Y-51.0
X111.5Y-55.0
X111.5Y-57.0
X111.5Y-61.0
X111.5Y-63.0
X111.5Y-67.001
X111.5Y-69.001
X111.5Y-73.001
X111.5Y-75.001
X111.5Y-79.001
X111.5Y-81.001
X111.5Y-85.001
X111.5Y-87.001
X111.5Y-91.001
X111.5Y-93.001
X111.5Y-97.001
X111.5Y-99.001
X111.5Y-103.001
X111.5Y-105.0
X111.5Y-109.0
X112.5Y-27.0
X112.5Y-31.0
X112.5Y-33.0
X112.5Y-37.0
X112.5Y-39.0
X112.5Y-43.0
X112.5Y-45.0
X112.5Y-49.0
X112.5Y-51.0
X112.5Y-55.0
X112.5Y-57.0
X112.5Y-61.0
X112.5Y-63.0
X112.5Y-67.001
X112.5Y-69.001
X112.5Y-73.001
X112.5Y-75.001
X112.5Y-79.001
X112.5Y-81.001
X112.5Y-85.001
X112.5Y-87.001
X112.5Y-91.001
X112.5Y-93.001
X112.5Y-97.001
X112.5Y-99.001
X112.5Y-103.001
X112.5Y-105.0
X112.5Y-109.0
X124.5Y-27.0
X124.5Y-31.0
X124.5Y-33.0
X124.5Y-37.0
X124.5Y-39.0
X124.5Y-43.0
X124.5Y-45.0
X124.5Y-49.0
X124.5Y-51.0
X124.5Y-55.0
X124.5Y-57.0
X124.5Y-61.0
X124.5Y-63.0
X124.5Y-67.001
X124.5Y-69.001
X124.5Y-73.001
X124.5Y-75.001
X124.5Y-79.001
X124.5Y-81.001
X124.5Y-85.001
X124.5Y-87.001
X124.5Y-91.001
X124.5Y-93.001
X124.5Y-97.001
X124.5Y-99.001
X124.5Y-103.001
X124.5Y-105.0
X124.5Y-109.0
X125.5Y-27.0
X125.5Y-31.0
X125.5Y-33.0
X125.5Y-37.0
X125.5Y-39.0
X125.5Y-43.0
X125.5Y-45.0
X125.5Y-49.0
X125.5Y-51.0
X125.5Y-55.0
X125.5Y-57.0
X125.5Y-61.0
X125.5Y-63.0
X125.5Y-67.001
X125.5Y-69.001
X125.5Y-73.001
X125.5Y-75.001
X125.5Y-79.001
X125.5Y-81.001
X125.5Y-85.001
X125.5Y-87.001
X125.5Y-91.001
X125.5Y-93.001
X125.5Y-97.001
X125.5Y-99.001
X125.5Y-103.001
X125.5Y-105.0
X125.5Y-109.0
X126.5Y-27.0
X126.5Y-31.0
X126.5Y-33.0
X126.5Y-37.0
X126.5Y-39.0
X126.5Y-43.0
X126.5Y-45.0
X126.5Y-49.0
X126.5Y-51.0
X126.5Y-55.0
X126.5Y-57.0
X126.5Y-61.0
X126.5Y-63.0
X126.5Y-67.001
X126.5Y-69.001
X126.5Y-73.001
X126.5Y-75.001
X126.5Y-79.001
X126.5Y-81.001
X126.5Y-85.001
X126.5Y-87.001
X126.5Y-91.001
X126.5Y-93.001
X126.5Y-97.001
X126.5Y-99.001
X126.5Y-103.001
X126.5Y-105.0
X126.5Y-109.0
X127.5Y-27.0
X127.5Y-31.0
X127.5Y-33.0
X127.5Y-37.0
X127.5Y-39.0
X127.5Y-43.0
X127.5Y-45.0
X127.5Y-49.0
X127.5Y-51.0
X127.5Y-55.0
X127.5Y-57.0
X127.5Y-61.0
X127.5Y-63.0
X127.5Y-67.001
X127.5Y-69.001
X127.5Y-73.001
X127.5Y-75.001
X127.5Y-79.001
X127.5Y-81.001
X127.5Y-85.001
X127.5Y-87.001
X127.5Y-91.001
X127.5Y-93.001
X127.5Y-97.001
X127.5Y-99.001
X127.5Y-103.001
X127.5Y-105.0
X127.5Y-109.0
X139.5Y-27.0
X139.5Y-31.0
X139.5Y-33.0
X139.5Y-37.0
X139.5Y-39.0
X139.5Y-43.0
X139.5Y-45.0
X139.5Y-49.0
X139.5Y-51.0
X139.5Y-55.0
X139.5Y-57.0
X139.5Y-61.0
X139.5Y-63.0
X139.5Y-67.001
X139.5Y-69.001
X139.5Y-73.001
X139.5Y-75.001
X139.5Y-79.001
X139.5Y-81.001
X139.5Y-85.001
X139.5Y-87.001
X139.5Y-91.001
X139.5Y-93.001
X139.5Y-97.001
X139.5Y-99.001
X139.5Y-103.001
X139.5Y-105.0
X139.5Y-109.0
X140.5Y-27.0
X140.5Y-31.0
X140.5Y-33.0
X140.5Y-37.0
X140.5Y-39.0
X140.5Y-43.0
X140.5Y-45.0
X140.5Y-49.0
X140.5Y-51.0
X140.5Y-55.0
X140.5Y-57.0
X140.5Y-61.0
X140.5Y-63.0
X140.5Y-67.001
X140.5Y-69.001
X140.5Y-73.001
X140.5Y-75.001
X140.5Y-79.001
X140.5Y-81.001
X140.5Y-85.001
X140.5Y-87.001
X140.5Y-91.001
X140.5Y-93.001
X140.5Y-97.001
X140.5Y-99.001
X140.5Y-103.001
X140.5Y-105.0
X140.5Y-109.0
X141.5Y-27.0
X141.5Y-31.0
X141.5Y-33.0
X141.5Y-37.0
X141.5Y-39.0
X141.5Y-43.0
X141.5Y-45.0
X141.5Y-49.0
X141.5Y-51.0
X141.5Y-55.0
X141.5Y-57.0
X141.5Y-61.0
X141.5Y-63.0
X141.5Y-67.001
X141.5Y-69.001
X141.5Y-73.001
X141.5Y-75.001
X141.5Y-79.001
X141.5Y-81.001
X141.5Y-85.001
X141.5Y-87.001
X141.5Y-91.001
X141.5Y-93.001
X141.5Y-97.001
X141.5Y-99.001
X141.5Y-103.001
X141.5Y-105.0
X141.5Y-109.0
X142.5Y-27.0
X142.5Y-31.0
X142.5Y-33.0
X142.5Y-37.0
X142.5Y-39.0
X142.5Y-43.0
X142.5Y-45.0
X142.5Y-49.0
X142.5Y-51.0
X142.5Y-55.0
X142.5Y-57.0
X142.5Y-61.0
X142.5Y-63.0
X142.5Y-67.001
X142.5Y-69.001
X142.5Y-73.001
X142.5Y-75.001
X142.5Y-79.001
X142.5Y-81.001
X142.5Y-85.001
X142.5Y-87.001
X142.5Y-91.001
X142.5Y-93.001
X142.5Y-97.001
X142.5Y-99.001
X142.5Y-103.001
X142.5Y-105.0
X142.5Y-109.0
X154.5Y-27.0
X154.5Y-31.0
X154.5Y-33.0
X154.5Y-37.0
X154.5Y-39.0
X154.5Y-43.0
X154.5Y-45.0
X154.5Y-49.0
X154.5Y-51.0
X154.5Y-55.0
X154.5Y-57.0
X154.5Y-61.0
X154.5Y-63.0
X154.5Y-67.001
X154.5Y-69.001
X154.5Y-73.001
X154.5Y-75.001
X154.5Y-79.001
X154.5Y-81.001
X154.5Y-85.001
X154.5Y-87.001
X154.5Y-91.001
X154.5Y-93.001
X154.5Y-97.001
X154.5Y-99.001
X154.5Y-103.001
X154.5Y-105.0
X154.5Y-109.0
X155.5Y-27.0
X155.5Y-31.0
X155.5Y-33.0
X155.5Y-37.0
X155.5Y-39.0
X155.5Y-43.0
X155.5Y-45.0
X155.5Y-49.0
X155.5Y-51.0
X155.5Y-55.0
X155.5Y-57.0
X155.5Y-61.0
X155.5Y-63.0
X155.5Y-67.001
X155.5Y-69.001
X155.5Y-73.001
X155.5Y-75.001
X155.5Y-79.001
X155.5Y-81.001
X155.5Y-85.001
X155.5Y-87.001
X155.5Y-91.001
X155.5Y-93.001
X155.5Y-97.001
X155.5Y-99.001
X155.5Y-103.001
X155.5Y-105.0
X155.5Y-109.0
X156.5Y-27.0
X156.5Y-31.0
X156.5Y-33.0
X156.5Y-37.0
X156.5Y-39.0
X156.5Y-43.0
X156.5Y-45.0
X156.5Y-49.0
X156.5Y-51.0
X156.5Y-55.0
X156.5Y-57.0
X156.5Y-61.0
X156.5Y-63.0
X156.5Y-67.001
X156.5Y-69.001
X156.5Y-73.001
X156.5Y-75.001
X156.5Y-79.001
X156.5Y-81.001
X156.5Y-85.001
X156.5Y-87.001
X156.5Y-91.001
X156.5Y-93.001
X156.5Y-97.001
X156.5Y-99.001
X156.5Y-103.001
X156.5Y-105.0
X156.5Y-109.0
X157.5Y-27.0
X157.5Y-31.0
X157.5Y-33.0
X157.5Y-37.0
X157.5Y-39.0
X157.5Y-43.0
X157.5Y-45.0
X157.5Y-49.0
X157.5Y-51.0
X157.5Y-55.0
X157.5Y-57.0
X157.5Y-61.0
X157.5Y-63.0
X157.5Y-67.001
X157.5Y-69.001
X157.5Y-73.001
X157.5Y-75.001
X157.5Y-79.001
X157.5Y-81.001
X157.5Y-85.001
X157.5Y-87.001
X157.5Y-91.001
X157.5Y-93.001
X157.5Y-97.001
X157.5Y-99.001
X157.5Y-103.001
X157.5Y-105.0
X157.5Y-109.0
X169.5Y-27.0
X169.5Y-31.0
X169.5Y-33.0
X169.5Y-37.0
X169.5Y-39.0
X169.5Y-43.0
X169.5Y-45.0
X169.5Y-49.0
X169.5Y-51.0
X169.5Y-55.0
X169.5Y-57.0
X169.5Y-61.0
X169.5Y-63.0
X169.5Y-67.001
X169.5Y-69.001
X169.5Y-73.001
X169.5Y-75.001
X169.5Y-79.001
X169.5Y-81.001
X169.5Y-85.001
X169.5Y-87.001
X169.5Y-91.001
X169.5Y-93.001
X169.5Y-97.001
X169.5Y-99.001
X169.5Y-103.001
X169.5Y-105.0
X169.5Y-109.0
X170.5Y-27.0
X170.5Y-31.0
X170.5Y-33.0
X170.5Y-37.0
X170.5Y-39.0
X170.5Y-43.0
X170.5Y-45.0
X170.5Y-49.0
X170.5Y-51.0
X170.5Y-55.0
X170.5Y-57.0
X170.5Y-61.0
X170.5Y-63.0
X170.5Y-67.001
X170.5Y-69.001
X170.5Y-73.001
X170.5Y-75.001
X170.5Y-79.001
X170.5Y-81.001
X170.5Y-85.001
X170.5Y-87.001
X170.5Y-91.001
X170.5Y-93.001
X170.5Y-97.001
X170.5Y-99.001
X170.5Y-103.001
X170.5Y-105.0
X170.5Y-109.0
X171.5Y-27.0
X171.5Y-31.0
X171.5Y-33.0
X171.5Y-37.0
X171.5Y-39.0
X171.5Y-43.0
X171.5Y-45.0
X171.5Y-49.0
X171.5Y-51.0
X171.5Y-55.0
X171.5Y-57.0
X171.5Y-61.0
X171.5Y-63.0
X171.5Y-67.001
X171.5Y-69.001
X171.5Y-73.001
X171.5Y-75.001
X171.5Y-79.001
X171.5Y-81.001
X171.5Y-85.001
X171.5Y-87.001
X171.5Y-91.001
X171.5Y-93.001
X171.5Y-97.001
X171.5Y-99.001
X171.5Y-103.001
X171.5Y-105.0
X171.5Y-109.0
X172.5Y-27.0
X172.5Y-31.0
X172.5Y-33.0
X172.5Y-37.0
X172.5Y-39.0
X172.5Y-43.0
X172.5Y-45.0
X172.5Y-49.0
X172.5Y-51.0
X172.5Y-55.0
X172.5Y-57.0
X172.5Y-61.0
X172.5Y-63.0
X172.5Y-67.001
X172.5Y-69.001
X172.5Y-73.001
X172.5Y-75.001
X172.5Y-79.001
X172.5Y-81.001
X172.5Y-85.001
X172.5Y-87.001
X172.5Y-91.001
X172.5Y-93.001
X172.5Y-97.001
X172.5Y-99.001
X172.5Y-103.001
X172.5Y-105.0
X172.5Y-109.0
X184.5Y-27.0
X184.5Y-31.0
X184.5Y-33.0
X184.5Y-37.0
X184.5Y-39.0
X184.5Y-43.0
X184.5Y-45.0
X184.5Y-49.0
X184.5Y-51.0
X184.5Y-55.0
X184.5Y-57.0
X184.5Y-61.0
X184.5Y-63.0
X184.5Y-67.001
X184.5Y-69.001
X184.5Y-73.001
X184.5Y-75.001
X184.5Y-79.001
X184.5Y-81.001
X184.5Y-85.001
X184.5Y-87.001
X184.5Y-91.001
X184.5Y-93.001
X184.5Y-97.001
X184.5Y-99.001
X184.5Y-103.001
X184.5Y-105.0
X184.5Y-109.0
X185.5Y-27.0
X185.5Y-31.0
X185.5Y-33.0
X185.5Y-37.0
X185.5Y-39.0
X185.5Y-43.0
X185.5Y-45.0
X185.5Y-49.0
X185.5Y-51.0
X185.5Y-55.0
X185.5Y-57.0
X185.5Y-61.0
X185.5Y-63.0
X185.5Y-67.001
X185.5Y-69.001
X185.5Y-73.001
X185.5Y-75.001
X185.5Y-79.001
X185.5Y-81.001
X185.5Y-85.001
X185.5Y-87.001
X185.5Y-91.001
X185.5Y-93.001
X185.5Y-97.001
X185.5Y-99.001
X185.5Y-103.001
X185.5Y-105.0
X185.5Y-109.0
X186.5Y-27.0
X186.5Y-31.0
X186.5Y-33.0
X186.5Y-37.0
X186.5Y-39.0
X186.5Y-43.0
X186.5Y-45.0
X186.5Y-49.0
X186.5Y-51.0
X186.5Y-55.0
X186.5Y-57.0
X186.5Y-61.0
X186.5Y-63.0
X186.5Y-67.001
X186.5Y-69.001
X186.5Y-73.001
X186.5Y-75.001
X186.5Y-79.001
X186.5Y-81.001
X186.5Y-85.001
X186.5Y-87.001
X186.5Y-91.001
X186.5Y-93.001
X186.5Y-97.001
X186.5Y-99.001
X186.5Y-103.001
X186.5Y-105.0
X186.5Y-109.0
X187.5Y-27.0
X187.5Y-31.0
X187.5Y-33.0
X187.5Y-37.0
X187.5Y-39.0
X187.5Y-43.0
X187.5Y-45.0
X187.5Y-49.0
X187.5Y-51.0
X187.5Y-55.0
X187.5Y-57.0
X187.5Y-61.0
X187.5Y-63.0
X187.5Y-67.001
X187.5Y-69.001
X187.5Y-73.001
X187.5Y-75.001
X187.5Y-79.001
X187.5Y-81.001
X187.5Y-85.001
X187.5Y-87.001
X187.5Y-91.001
X187.5Y-93.001
X187.5Y-97.001
X187.5Y-99.001
X187.5Y-103.001
X187.5Y-105.0
X187.5Y-109.0
M30
