M48
; DRILL file KiCad 10.0.0 date 2026-03-26T02:04:35
; FORMAT={-:-/ absolute / metric / decimal}
; #@! TF.CreationDate,2026-03-26T02:04:35+01:00
; #@! TF.GenerationSoftware,Kicad,Pcbnew,10.0.0
; #@! TF.FileFunction,Plated,1,2,PTH
FMAT,2
METRIC
; #@! TA.AperFunction,Plated,PTH,ComponentDrill
T1C2.200
%
G90
G05
T1
X106.5Y-29.0
X106.5Y-35.0
X106.5Y-41.0
X106.5Y-47.0
X106.5Y-53.0
X106.5Y-59.0
X106.5Y-65.001
X106.5Y-71.001
X106.5Y-77.001
X106.5Y-83.001
X106.5Y-89.001
X106.5Y-95.001
X106.5Y-101.001
X106.5Y-107.0
X115.5Y-29.0
X115.5Y-35.0
X115.5Y-41.0
X115.5Y-47.0
X115.5Y-53.0
X115.5Y-59.0
X115.5Y-65.001
X115.5Y-71.001
X115.5Y-77.001
X115.5Y-83.001
X115.5Y-89.001
X115.5Y-95.001
X115.5Y-101.001
X115.5Y-107.0
X121.5Y-29.0
X121.5Y-35.0
X121.5Y-41.0
X121.5Y-47.0
X121.5Y-53.0
X121.5Y-59.0
X121.5Y-65.001
X121.5Y-71.001
X121.5Y-77.001
X121.5Y-83.001
X121.5Y-89.001
X121.5Y-95.001
X121.5Y-101.001
X121.5Y-107.0
X130.5Y-29.0
X130.5Y-35.0
X130.5Y-41.0
X130.5Y-47.0
X130.5Y-53.0
X130.5Y-59.0
X130.5Y-65.001
X130.5Y-71.001
X130.5Y-77.001
X130.5Y-83.001
X130.5Y-89.001
X130.5Y-95.001
X130.5Y-101.001
X130.5Y-107.0
X136.5Y-29.0
X136.5Y-35.0
X136.5Y-41.0
X136.5Y-47.0
X136.5Y-53.0
X136.5Y-59.0
X136.5Y-65.001
X136.5Y-71.001
X136.5Y-77.001
X136.5Y-83.001
X136.5Y-89.001
X136.5Y-95.001
X136.5Y-101.001
X136.5Y-107.0
X145.5Y-29.0
X145.5Y-35.0
X145.5Y-41.0
X145.5Y-47.0
X145.5Y-53.0
X145.5Y-59.0
X145.5Y-65.001
X145.5Y-71.001
X145.5Y-77.001
X145.5Y-83.001
X145.5Y-89.001
X145.5Y-95.001
X145.5Y-101.001
X145.5Y-107.0
X151.5Y-29.0
X151.5Y-35.0
X151.5Y-41.0
X151.5Y-47.0
X151.5Y-53.0
X151.5Y-59.0
X151.5Y-65.001
X151.5Y-71.001
X151.5Y-77.001
X151.5Y-83.001
X151.5Y-89.001
X151.5Y-95.001
X151.5Y-101.001
X151.5Y-107.0
X160.5Y-29.0
X160.5Y-35.0
X160.5Y-41.0
X160.5Y-47.0
X160.5Y-53.0
X160.5Y-59.0
X160.5Y-65.001
X160.5Y-71.001
X160.5Y-77.001
X160.5Y-83.001
X160.5Y-89.001
X160.5Y-95.001
X160.5Y-101.001
X160.5Y-107.0
X166.5Y-29.0
X166.5Y-35.0
X166.5Y-41.0
X166.5Y-47.0
X166.5Y-53.0
X166.5Y-59.0
X166.5Y-65.001
X166.5Y-71.001
X166.5Y-77.001
X166.5Y-83.001
X166.5Y-89.001
X166.5Y-95.001
X166.5Y-101.001
X166.5Y-107.0
X175.5Y-29.0
X175.5Y-35.0
X175.5Y-41.0
X175.5Y-47.0
X175.5Y-53.0
X175.5Y-59.0
X175.5Y-65.001
X175.5Y-71.001
X175.5Y-77.001
X175.5Y-83.001
X175.5Y-89.001
X175.5Y-95.001
X175.5Y-101.001
X175.5Y-107.0
X181.5Y-29.0
X181.5Y-35.0
X181.5Y-41.0
X181.5Y-47.0
X181.5Y-53.0
X181.5Y-59.0
X181.5Y-65.001
X181.5Y-71.001
X181.5Y-77.001
X181.5Y-83.001
X181.5Y-89.001
X181.5Y-95.001
X181.5Y-101.001
X181.5Y-107.0
X190.5Y-29.0
X190.5Y-35.0
X190.5Y-41.0
X190.5Y-47.0
X190.5Y-53.0
X190.5Y-59.0
X190.5Y-65.001
X190.5Y-71.001
X190.5Y-77.001
X190.5Y-83.001
X190.5Y-89.001
X190.5Y-95.001
X190.5Y-101.001
X190.5Y-107.0
M30
