%TF.GenerationSoftware,KiCad,Pcbnew,10.0.0*%
%TF.CreationDate,2026-03-26T02:18:59+01:00*%
%TF.ProjectId,led_res_0805_flex,6c65645f-7265-4735-9f30-3830355f666c,rev?*%
%TF.SameCoordinates,Original*%
%TF.FileFunction,Soldermask,Bot*%
%TF.FilePolarity,Negative*%
%FSLAX46Y46*%
G04 Gerber Fmt 4.6, Leading zero omitted, Abs format (unit mm)*
G04 Created by KiCad (PCBNEW 10.0.0) date 2026-03-26 02:18:59*
%MOMM*%
%LPD*%
G01*
G04 APERTURE LIST*
%ADD10C,2.600000*%
%ADD11C,3.800000*%
G04 APERTURE END LIST*
D10*
%TO.C,H2*%
X193500000Y-64000500D03*
D11*
X193500000Y-64000500D03*
%TD*%
D10*
%TO.C,H1*%
X167500000Y-32000500D03*
D11*
X167500000Y-32000500D03*
%TD*%
D10*
%TO.C,H2*%
X193500000Y-72000500D03*
D11*
X193500000Y-72000500D03*
%TD*%
D10*
%TO.C,H1*%
X103500000Y-40000500D03*
D11*
X103500000Y-40000500D03*
%TD*%
D10*
%TO.C,H1*%
X183500000Y-56000500D03*
D11*
X183500000Y-56000500D03*
%TD*%
D10*
%TO.C,H2*%
X129500000Y-52000500D03*
D11*
X129500000Y-52000500D03*
%TD*%
D10*
%TO.C,H1*%
X119500000Y-72000500D03*
D11*
X119500000Y-72000500D03*
%TD*%
D10*
%TO.C,H1*%
X151500000Y-76000500D03*
D11*
X151500000Y-76000500D03*
%TD*%
D10*
%TO.C,H1*%
X103500000Y-48000500D03*
D11*
X103500000Y-48000500D03*
%TD*%
D10*
%TO.C,H2*%
X161500000Y-68000500D03*
D11*
X161500000Y-68000500D03*
%TD*%
D10*
%TO.C,H1*%
X167500000Y-68000500D03*
D11*
X167500000Y-68000500D03*
%TD*%
D10*
%TO.C,H2*%
X145500000Y-76000500D03*
D11*
X145500000Y-76000500D03*
%TD*%
D10*
%TO.C,H2*%
X193500000Y-32000500D03*
D11*
X193500000Y-32000500D03*
%TD*%
D10*
%TO.C,H1*%
X183500000Y-52000500D03*
D11*
X183500000Y-52000500D03*
%TD*%
D10*
%TO.C,H2*%
X129500000Y-80000500D03*
D11*
X129500000Y-80000500D03*
%TD*%
D10*
%TO.C,H1*%
X183500000Y-48000500D03*
D11*
X183500000Y-48000500D03*
%TD*%
D10*
%TO.C,H2*%
X113500000Y-60000500D03*
D11*
X113500000Y-60000500D03*
%TD*%
D10*
%TO.C,H2*%
X161500000Y-32000500D03*
D11*
X161500000Y-32000500D03*
%TD*%
D10*
%TO.C,H1*%
X151500000Y-40000500D03*
D11*
X151500000Y-40000500D03*
%TD*%
D10*
%TO.C,H1*%
X151500000Y-36000500D03*
D11*
X151500000Y-36000500D03*
%TD*%
D10*
%TO.C,H1*%
X167500000Y-80000500D03*
D11*
X167500000Y-80000500D03*
%TD*%
D10*
%TO.C,H2*%
X145500000Y-28000500D03*
D11*
X145500000Y-28000500D03*
%TD*%
D10*
%TO.C,H1*%
X103500000Y-44000500D03*
D11*
X103500000Y-44000500D03*
%TD*%
D10*
%TO.C,H1*%
X183500000Y-72000500D03*
D11*
X183500000Y-72000500D03*
%TD*%
D10*
%TO.C,H2*%
X177500000Y-44000500D03*
D11*
X177500000Y-44000500D03*
%TD*%
D10*
%TO.C,H2*%
X193500000Y-60000500D03*
D11*
X193500000Y-60000500D03*
%TD*%
D10*
%TO.C,H2*%
X145500000Y-52000500D03*
D11*
X145500000Y-52000500D03*
%TD*%
D10*
%TO.C,H2*%
X161500000Y-44000500D03*
D11*
X161500000Y-44000500D03*
%TD*%
D10*
%TO.C,H1*%
X151500000Y-48000500D03*
D11*
X151500000Y-48000500D03*
%TD*%
D10*
%TO.C,H2*%
X177500000Y-72000500D03*
D11*
X177500000Y-72000500D03*
%TD*%
D10*
%TO.C,H2*%
X113500000Y-68000500D03*
D11*
X113500000Y-68000500D03*
%TD*%
D10*
%TO.C,H2*%
X145500000Y-48000500D03*
D11*
X145500000Y-48000500D03*
%TD*%
D10*
%TO.C,H1*%
X135500000Y-64000500D03*
D11*
X135500000Y-64000500D03*
%TD*%
D10*
%TO.C,H2*%
X161500000Y-56000500D03*
D11*
X161500000Y-56000500D03*
%TD*%
D10*
%TO.C,H1*%
X167500000Y-44000500D03*
D11*
X167500000Y-44000500D03*
%TD*%
D10*
%TO.C,H2*%
X177500000Y-28000500D03*
D11*
X177500000Y-28000500D03*
%TD*%
D10*
%TO.C,H2*%
X177500000Y-56000500D03*
D11*
X177500000Y-56000500D03*
%TD*%
D10*
%TO.C,H2*%
X129500000Y-44000500D03*
D11*
X129500000Y-44000500D03*
%TD*%
D10*
%TO.C,H2*%
X177500000Y-40000500D03*
D11*
X177500000Y-40000500D03*
%TD*%
D10*
%TO.C,H1*%
X183500000Y-76000500D03*
D11*
X183500000Y-76000500D03*
%TD*%
D10*
%TO.C,H2*%
X177500000Y-80000500D03*
D11*
X177500000Y-80000500D03*
%TD*%
D10*
%TO.C,H1*%
X119500000Y-36000500D03*
D11*
X119500000Y-36000500D03*
%TD*%
D10*
%TO.C,H2*%
X113500000Y-76000500D03*
D11*
X113500000Y-76000500D03*
%TD*%
D10*
%TO.C,H1*%
X151500000Y-60000500D03*
D11*
X151500000Y-60000500D03*
%TD*%
D10*
%TO.C,H2*%
X161500000Y-60000500D03*
D11*
X161500000Y-60000500D03*
%TD*%
D10*
%TO.C,H1*%
X103500000Y-32000500D03*
D11*
X103500000Y-32000500D03*
%TD*%
D10*
%TO.C,H1*%
X167500000Y-52000500D03*
D11*
X167500000Y-52000500D03*
%TD*%
D10*
%TO.C,H1*%
X151500000Y-56000500D03*
D11*
X151500000Y-56000500D03*
%TD*%
D10*
%TO.C,H1*%
X103500000Y-28000500D03*
D11*
X103500000Y-28000500D03*
%TD*%
D10*
%TO.C,H2*%
X145500000Y-72000500D03*
D11*
X145500000Y-72000500D03*
%TD*%
D10*
%TO.C,H2*%
X113500000Y-72000500D03*
D11*
X113500000Y-72000500D03*
%TD*%
D10*
%TO.C,H2*%
X145500000Y-32000500D03*
D11*
X145500000Y-32000500D03*
%TD*%
D10*
%TO.C,H1*%
X103500000Y-68000500D03*
D11*
X103500000Y-68000500D03*
%TD*%
D10*
%TO.C,H1*%
X183500000Y-40000500D03*
D11*
X183500000Y-40000500D03*
%TD*%
D10*
%TO.C,H2*%
X129500000Y-72000500D03*
D11*
X129500000Y-72000500D03*
%TD*%
D10*
%TO.C,H2*%
X161500000Y-64000500D03*
D11*
X161500000Y-64000500D03*
%TD*%
D10*
%TO.C,H2*%
X129500000Y-76000500D03*
D11*
X129500000Y-76000500D03*
%TD*%
D10*
%TO.C,H2*%
X193500000Y-52000500D03*
D11*
X193500000Y-52000500D03*
%TD*%
D10*
%TO.C,H2*%
X177500000Y-68000500D03*
D11*
X177500000Y-68000500D03*
%TD*%
D10*
%TO.C,H2*%
X129500000Y-64000500D03*
D11*
X129500000Y-64000500D03*
%TD*%
D10*
%TO.C,H1*%
X119500000Y-28000500D03*
D11*
X119500000Y-28000500D03*
%TD*%
D10*
%TO.C,H1*%
X167500000Y-76000500D03*
D11*
X167500000Y-76000500D03*
%TD*%
D10*
%TO.C,H2*%
X145500000Y-64000500D03*
D11*
X145500000Y-64000500D03*
%TD*%
D10*
%TO.C,H1*%
X167500000Y-64000500D03*
D11*
X167500000Y-64000500D03*
%TD*%
D10*
%TO.C,H2*%
X113500000Y-52000500D03*
D11*
X113500000Y-52000500D03*
%TD*%
D10*
%TO.C,H1*%
X135500000Y-44000500D03*
D11*
X135500000Y-44000500D03*
%TD*%
D10*
%TO.C,H1*%
X135500000Y-56000500D03*
D11*
X135500000Y-56000500D03*
%TD*%
D10*
%TO.C,H1*%
X119500000Y-76000500D03*
D11*
X119500000Y-76000500D03*
%TD*%
D10*
%TO.C,H1*%
X183500000Y-80000500D03*
D11*
X183500000Y-80000500D03*
%TD*%
D10*
%TO.C,H2*%
X161500000Y-28000500D03*
D11*
X161500000Y-28000500D03*
%TD*%
D10*
%TO.C,H1*%
X119500000Y-48000500D03*
D11*
X119500000Y-48000500D03*
%TD*%
D10*
%TO.C,H1*%
X135500000Y-32000500D03*
D11*
X135500000Y-32000500D03*
%TD*%
D10*
%TO.C,H2*%
X177500000Y-64000500D03*
D11*
X177500000Y-64000500D03*
%TD*%
D10*
%TO.C,H1*%
X135500000Y-80000500D03*
D11*
X135500000Y-80000500D03*
%TD*%
D10*
%TO.C,H1*%
X167500000Y-48000500D03*
D11*
X167500000Y-48000500D03*
%TD*%
D10*
%TO.C,H2*%
X113500000Y-48000500D03*
D11*
X113500000Y-48000500D03*
%TD*%
D10*
%TO.C,H1*%
X167500000Y-40000500D03*
D11*
X167500000Y-40000500D03*
%TD*%
D10*
%TO.C,H1*%
X183500000Y-44000500D03*
D11*
X183500000Y-44000500D03*
%TD*%
D10*
%TO.C,H2*%
X161500000Y-80000500D03*
D11*
X161500000Y-80000500D03*
%TD*%
D10*
%TO.C,H2*%
X129500000Y-32000500D03*
D11*
X129500000Y-32000500D03*
%TD*%
D10*
%TO.C,H1*%
X119500000Y-32000500D03*
D11*
X119500000Y-32000500D03*
%TD*%
D10*
%TO.C,H1*%
X135500000Y-52000500D03*
D11*
X135500000Y-52000500D03*
%TD*%
D10*
%TO.C,H2*%
X177500000Y-36000500D03*
D11*
X177500000Y-36000500D03*
%TD*%
D10*
%TO.C,H1*%
X103500000Y-76000500D03*
D11*
X103500000Y-76000500D03*
%TD*%
D10*
%TO.C,H1*%
X167500000Y-36000500D03*
D11*
X167500000Y-36000500D03*
%TD*%
D10*
%TO.C,H2*%
X193500000Y-76000500D03*
D11*
X193500000Y-76000500D03*
%TD*%
D10*
%TO.C,H2*%
X193500000Y-36000500D03*
D11*
X193500000Y-36000500D03*
%TD*%
D10*
%TO.C,H2*%
X145500000Y-60000500D03*
D11*
X145500000Y-60000500D03*
%TD*%
D10*
%TO.C,H2*%
X193500000Y-44000500D03*
D11*
X193500000Y-44000500D03*
%TD*%
D10*
%TO.C,H2*%
X161500000Y-76000500D03*
D11*
X161500000Y-76000500D03*
%TD*%
D10*
%TO.C,H2*%
X113500000Y-80000500D03*
D11*
X113500000Y-80000500D03*
%TD*%
D10*
%TO.C,H1*%
X135500000Y-60000500D03*
D11*
X135500000Y-60000500D03*
%TD*%
D10*
%TO.C,H2*%
X161500000Y-40000500D03*
D11*
X161500000Y-40000500D03*
%TD*%
D10*
%TO.C,H1*%
X119500000Y-60000500D03*
D11*
X119500000Y-60000500D03*
%TD*%
D10*
%TO.C,H1*%
X151500000Y-72000500D03*
D11*
X151500000Y-72000500D03*
%TD*%
D10*
%TO.C,H1*%
X135500000Y-76000500D03*
D11*
X135500000Y-76000500D03*
%TD*%
D10*
%TO.C,H2*%
X177500000Y-52000500D03*
D11*
X177500000Y-52000500D03*
%TD*%
D10*
%TO.C,H1*%
X135500000Y-28000500D03*
D11*
X135500000Y-28000500D03*
%TD*%
D10*
%TO.C,H1*%
X151500000Y-32000500D03*
D11*
X151500000Y-32000500D03*
%TD*%
D10*
%TO.C,H2*%
X129500000Y-36000500D03*
D11*
X129500000Y-36000500D03*
%TD*%
D10*
%TO.C,H1*%
X103500000Y-64000500D03*
D11*
X103500000Y-64000500D03*
%TD*%
D10*
%TO.C,H2*%
X145500000Y-68000500D03*
D11*
X145500000Y-68000500D03*
%TD*%
D10*
%TO.C,H1*%
X135500000Y-36000500D03*
D11*
X135500000Y-36000500D03*
%TD*%
D10*
%TO.C,H1*%
X135500000Y-48000500D03*
D11*
X135500000Y-48000500D03*
%TD*%
D10*
%TO.C,H2*%
X129500000Y-56000500D03*
D11*
X129500000Y-56000500D03*
%TD*%
D10*
%TO.C,H2*%
X193500000Y-48000500D03*
D11*
X193500000Y-48000500D03*
%TD*%
D10*
%TO.C,H2*%
X161500000Y-72000500D03*
D11*
X161500000Y-72000500D03*
%TD*%
D10*
%TO.C,H2*%
X113500000Y-56000500D03*
D11*
X113500000Y-56000500D03*
%TD*%
D10*
%TO.C,H2*%
X129500000Y-48000500D03*
D11*
X129500000Y-48000500D03*
%TD*%
D10*
%TO.C,H1*%
X103500000Y-56000500D03*
D11*
X103500000Y-56000500D03*
%TD*%
D10*
%TO.C,H1*%
X167500000Y-60000500D03*
D11*
X167500000Y-60000500D03*
%TD*%
D10*
%TO.C,H1*%
X103500000Y-52000500D03*
D11*
X103500000Y-52000500D03*
%TD*%
D10*
%TO.C,H1*%
X135500000Y-72000500D03*
D11*
X135500000Y-72000500D03*
%TD*%
D10*
%TO.C,H1*%
X103500000Y-80000500D03*
D11*
X103500000Y-80000500D03*
%TD*%
D10*
%TO.C,H1*%
X183500000Y-28000500D03*
D11*
X183500000Y-28000500D03*
%TD*%
D10*
%TO.C,H2*%
X129500000Y-28000500D03*
D11*
X129500000Y-28000500D03*
%TD*%
D10*
%TO.C,H2*%
X129500000Y-60000500D03*
D11*
X129500000Y-60000500D03*
%TD*%
D10*
%TO.C,H1*%
X151500000Y-52000500D03*
D11*
X151500000Y-52000500D03*
%TD*%
D10*
%TO.C,H1*%
X151500000Y-64000500D03*
D11*
X151500000Y-64000500D03*
%TD*%
D10*
%TO.C,H1*%
X167500000Y-56000500D03*
D11*
X167500000Y-56000500D03*
%TD*%
D10*
%TO.C,H2*%
X177500000Y-60000500D03*
D11*
X177500000Y-60000500D03*
%TD*%
D10*
%TO.C,H1*%
X167500000Y-28000500D03*
D11*
X167500000Y-28000500D03*
%TD*%
D10*
%TO.C,H2*%
X177500000Y-32000500D03*
D11*
X177500000Y-32000500D03*
%TD*%
D10*
%TO.C,H2*%
X145500000Y-40000500D03*
D11*
X145500000Y-40000500D03*
%TD*%
D10*
%TO.C,H1*%
X103500000Y-60000500D03*
D11*
X103500000Y-60000500D03*
%TD*%
D10*
%TO.C,H2*%
X193500000Y-28000500D03*
D11*
X193500000Y-28000500D03*
%TD*%
D10*
%TO.C,H2*%
X145500000Y-56000500D03*
D11*
X145500000Y-56000500D03*
%TD*%
D10*
%TO.C,H1*%
X183500000Y-60000500D03*
D11*
X183500000Y-60000500D03*
%TD*%
D10*
%TO.C,H1*%
X119500000Y-64000500D03*
D11*
X119500000Y-64000500D03*
%TD*%
D10*
%TO.C,H1*%
X151500000Y-28000500D03*
D11*
X151500000Y-28000500D03*
%TD*%
D10*
%TO.C,H1*%
X135500000Y-68000500D03*
D11*
X135500000Y-68000500D03*
%TD*%
D10*
%TO.C,H2*%
X193500000Y-68000500D03*
D11*
X193500000Y-68000500D03*
%TD*%
D10*
%TO.C,H1*%
X119500000Y-68000500D03*
D11*
X119500000Y-68000500D03*
%TD*%
D10*
%TO.C,H1*%
X119500000Y-52000500D03*
D11*
X119500000Y-52000500D03*
%TD*%
D10*
%TO.C,H1*%
X103500000Y-36000500D03*
D11*
X103500000Y-36000500D03*
%TD*%
D10*
%TO.C,H2*%
X113500000Y-40000500D03*
D11*
X113500000Y-40000500D03*
%TD*%
D10*
%TO.C,H2*%
X161500000Y-48000500D03*
D11*
X161500000Y-48000500D03*
%TD*%
D10*
%TO.C,H1*%
X183500000Y-68000500D03*
D11*
X183500000Y-68000500D03*
%TD*%
D10*
%TO.C,H1*%
X151500000Y-68000500D03*
D11*
X151500000Y-68000500D03*
%TD*%
D10*
%TO.C,H2*%
X113500000Y-44000500D03*
D11*
X113500000Y-44000500D03*
%TD*%
D10*
%TO.C,H2*%
X145500000Y-36000500D03*
D11*
X145500000Y-36000500D03*
%TD*%
D10*
%TO.C,H2*%
X113500000Y-28000500D03*
D11*
X113500000Y-28000500D03*
%TD*%
D10*
%TO.C,H1*%
X119500000Y-44000500D03*
D11*
X119500000Y-44000500D03*
%TD*%
D10*
%TO.C,H2*%
X193500000Y-80000500D03*
D11*
X193500000Y-80000500D03*
%TD*%
D10*
%TO.C,H1*%
X151500000Y-80000500D03*
D11*
X151500000Y-80000500D03*
%TD*%
D10*
%TO.C,H1*%
X183500000Y-32000500D03*
D11*
X183500000Y-32000500D03*
%TD*%
D10*
%TO.C,H2*%
X177500000Y-48000500D03*
D11*
X177500000Y-48000500D03*
%TD*%
D10*
%TO.C,H2*%
X145500000Y-44000500D03*
D11*
X145500000Y-44000500D03*
%TD*%
D10*
%TO.C,H2*%
X113500000Y-32000500D03*
D11*
X113500000Y-32000500D03*
%TD*%
D10*
%TO.C,H2*%
X161500000Y-52000500D03*
D11*
X161500000Y-52000500D03*
%TD*%
D10*
%TO.C,H1*%
X103500000Y-72000500D03*
D11*
X103500000Y-72000500D03*
%TD*%
D10*
%TO.C,H1*%
X119500000Y-40000500D03*
D11*
X119500000Y-40000500D03*
%TD*%
D10*
%TO.C,H1*%
X183500000Y-64000500D03*
D11*
X183500000Y-64000500D03*
%TD*%
D10*
%TO.C,H1*%
X119500000Y-80000500D03*
D11*
X119500000Y-80000500D03*
%TD*%
D10*
%TO.C,H2*%
X113500000Y-36000500D03*
D11*
X113500000Y-36000500D03*
%TD*%
D10*
%TO.C,H2*%
X177500000Y-76000500D03*
D11*
X177500000Y-76000500D03*
%TD*%
D10*
%TO.C,H1*%
X151500000Y-44000500D03*
D11*
X151500000Y-44000500D03*
%TD*%
D10*
%TO.C,H2*%
X113500000Y-64000500D03*
D11*
X113500000Y-64000500D03*
%TD*%
D10*
%TO.C,H2*%
X129500000Y-68000500D03*
D11*
X129500000Y-68000500D03*
%TD*%
D10*
%TO.C,H2*%
X161500000Y-36000500D03*
D11*
X161500000Y-36000500D03*
%TD*%
D10*
%TO.C,H2*%
X145500000Y-80000500D03*
D11*
X145500000Y-80000500D03*
%TD*%
D10*
%TO.C,H2*%
X193500000Y-56000500D03*
D11*
X193500000Y-56000500D03*
%TD*%
D10*
%TO.C,H1*%
X119500000Y-56000500D03*
D11*
X119500000Y-56000500D03*
%TD*%
D10*
%TO.C,H1*%
X167500000Y-72000500D03*
D11*
X167500000Y-72000500D03*
%TD*%
D10*
%TO.C,H2*%
X129500000Y-40000500D03*
D11*
X129500000Y-40000500D03*
%TD*%
D10*
%TO.C,H1*%
X183500000Y-36000500D03*
D11*
X183500000Y-36000500D03*
%TD*%
D10*
%TO.C,H2*%
X193500000Y-40000500D03*
D11*
X193500000Y-40000500D03*
%TD*%
D10*
%TO.C,H1*%
X135500000Y-40000500D03*
D11*
X135500000Y-40000500D03*
%TD*%
M02*
