M48
; DRILL file KiCad 10.0.0 date 2026-03-26T02:18:56
; FORMAT={-:-/ absolute / metric / decimal}
; #@! TF.CreationDate,2026-03-26T02:18:56+01:00
; #@! TF.GenerationSoftware,Kicad,Pcbnew,10.0.0
; #@! TF.FileFunction,Plated,1,2,PTH
FMAT,2
METRIC
; #@! TA.AperFunction,Plated,PTH,ComponentDrill
T1C2.200
%
G90
G05
T1
X103.5Y-28.0
X103.5Y-32.0
X103.5Y-36.0
X103.5Y-40.0
X103.5Y-44.0
X103.5Y-48.0
X103.5Y-52.0
X103.5Y-56.0
X103.5Y-60.0
X103.5Y-64.001
X103.5Y-68.001
X103.5Y-72.001
X103.5Y-76.001
X103.5Y-80.001
X113.5Y-28.0
X113.5Y-32.0
X113.5Y-36.0
X113.5Y-40.0
X113.5Y-44.0
X113.5Y-48.0
X113.5Y-52.0
X113.5Y-56.0
X113.5Y-60.0
X113.5Y-64.001
X113.5Y-68.001
X113.5Y-72.001
X113.5Y-76.001
X113.5Y-80.001
X119.5Y-28.0
X119.5Y-32.0
X119.5Y-36.0
X119.5Y-40.0
X119.5Y-44.0
X119.5Y-48.0
X119.5Y-52.0
X119.5Y-56.0
X119.5Y-60.0
X119.5Y-64.001
X119.5Y-68.001
X119.5Y-72.001
X119.5Y-76.001
X119.5Y-80.001
X129.5Y-28.0
X129.5Y-32.0
X129.5Y-36.0
X129.5Y-40.0
X129.5Y-44.0
X129.5Y-48.0
X129.5Y-52.0
X129.5Y-56.0
X129.5Y-60.0
X129.5Y-64.001
X129.5Y-68.001
X129.5Y-72.001
X129.5Y-76.001
X129.5Y-80.001
X135.5Y-28.0
X135.5Y-32.0
X135.5Y-36.0
X135.5Y-40.0
X135.5Y-44.0
X135.5Y-48.0
X135.5Y-52.0
X135.5Y-56.0
X135.5Y-60.0
X135.5Y-64.001
X135.5Y-68.001
X135.5Y-72.001
X135.5Y-76.001
X135.5Y-80.001
X145.5Y-28.0
X145.5Y-32.0
X145.5Y-36.0
X145.5Y-40.0
X145.5Y-44.0
X145.5Y-48.0
X145.5Y-52.0
X145.5Y-56.0
X145.5Y-60.0
X145.5Y-64.001
X145.5Y-68.001
X145.5Y-72.001
X145.5Y-76.001
X145.5Y-80.001
X151.5Y-28.0
X151.5Y-32.0
X151.5Y-36.0
X151.5Y-40.0
X151.5Y-44.0
X151.5Y-48.0
X151.5Y-52.0
X151.5Y-56.0
X151.5Y-60.0
X151.5Y-64.001
X151.5Y-68.001
X151.5Y-72.001
X151.5Y-76.001
X151.5Y-80.001
X161.5Y-28.0
X161.5Y-32.0
X161.5Y-36.0
X161.5Y-40.0
X161.5Y-44.0
X161.5Y-48.0
X161.5Y-52.0
X161.5Y-56.0
X161.5Y-60.0
X161.5Y-64.001
X161.5Y-68.001
X161.5Y-72.001
X161.5Y-76.001
X161.5Y-80.001
X167.5Y-28.0
X167.5Y-32.0
X167.5Y-36.0
X167.5Y-40.0
X167.5Y-44.0
X167.5Y-48.0
X167.5Y-52.0
X167.5Y-56.0
X167.5Y-60.0
X167.5Y-64.001
X167.5Y-68.001
X167.5Y-72.001
X167.5Y-76.001
X167.5Y-80.001
X177.5Y-28.0
X177.5Y-32.0
X177.5Y-36.0
X177.5Y-40.0
X177.5Y-44.0
X177.5Y-48.0
X177.5Y-52.0
X177.5Y-56.0
X177.5Y-60.0
X177.5Y-64.001
X177.5Y-68.001
X177.5Y-72.001
X177.5Y-76.001
X177.5Y-80.001
X183.5Y-28.0
X183.5Y-32.0
X183.5Y-36.0
X183.5Y-40.0
X183.5Y-44.0
X183.5Y-48.0
X183.5Y-52.0
X183.5Y-56.0
X183.5Y-60.0
X183.5Y-64.001
X183.5Y-68.001
X183.5Y-72.001
X183.5Y-76.001
X183.5Y-80.001
X193.5Y-28.0
X193.5Y-32.0
X193.5Y-36.0
X193.5Y-40.0
X193.5Y-44.0
X193.5Y-48.0
X193.5Y-52.0
X193.5Y-56.0
X193.5Y-60.0
X193.5Y-64.001
X193.5Y-68.001
X193.5Y-72.001
X193.5Y-76.001
X193.5Y-80.001
M30
