%TF.GenerationSoftware,KiCad,Pcbnew,10.0.0*%
%TF.CreationDate,2026-03-25T00:05:04+01:00*%
%TF.ProjectId,fs_resistor_0805_panel,66735f72-6573-4697-9374-6f725f303830,rev?*%
%TF.SameCoordinates,Original*%
%TF.FileFunction,Legend,Top*%
%TF.FilePolarity,Positive*%
%FSLAX46Y46*%
G04 Gerber Fmt 4.6, Leading zero omitted, Abs format (unit mm)*
G04 Created by KiCad (PCBNEW 10.0.0) date 2026-03-25 00:05:04*
%MOMM*%
%LPD*%
G01*
G04 APERTURE LIST*
%ADD10C,0.120000*%
G04 APERTURE END LIST*
%TO.C,R1*%
D10*
X120272936Y-51265500D02*
X120727064Y-51265500D01*
X120272936Y-52735500D02*
X120727064Y-52735500D01*
X120272936Y-99265500D02*
X120727064Y-99265500D01*
X120272936Y-100735500D02*
X120727064Y-100735500D01*
X148272936Y-45265500D02*
X148727064Y-45265500D01*
X148272936Y-46735500D02*
X148727064Y-46735500D01*
X162272936Y-39265500D02*
X162727064Y-39265500D01*
X162272936Y-40735500D02*
X162727064Y-40735500D01*
X120272936Y-45265500D02*
X120727064Y-45265500D01*
X120272936Y-46735500D02*
X120727064Y-46735500D01*
X176272936Y-27265500D02*
X176727064Y-27265500D01*
X176272936Y-28735500D02*
X176727064Y-28735500D01*
X120272936Y-33265500D02*
X120727064Y-33265500D01*
X120272936Y-34735500D02*
X120727064Y-34735500D01*
X190272936Y-87265500D02*
X190727064Y-87265500D01*
X190272936Y-88735500D02*
X190727064Y-88735500D01*
X148272936Y-57265500D02*
X148727064Y-57265500D01*
X148272936Y-58735500D02*
X148727064Y-58735500D01*
X106272936Y-69265500D02*
X106727064Y-69265500D01*
X106272936Y-70735500D02*
X106727064Y-70735500D01*
X176272936Y-69265500D02*
X176727064Y-69265500D01*
X176272936Y-70735500D02*
X176727064Y-70735500D01*
X134272936Y-39265500D02*
X134727064Y-39265500D01*
X134272936Y-40735500D02*
X134727064Y-40735500D01*
X134272936Y-51265500D02*
X134727064Y-51265500D01*
X134272936Y-52735500D02*
X134727064Y-52735500D01*
X106272936Y-81265500D02*
X106727064Y-81265500D01*
X106272936Y-82735500D02*
X106727064Y-82735500D01*
X190272936Y-63265500D02*
X190727064Y-63265500D01*
X190272936Y-64735500D02*
X190727064Y-64735500D01*
X176272936Y-105265500D02*
X176727064Y-105265500D01*
X176272936Y-106735500D02*
X176727064Y-106735500D01*
X162272936Y-33265500D02*
X162727064Y-33265500D01*
X162272936Y-34735500D02*
X162727064Y-34735500D01*
X120272936Y-75265500D02*
X120727064Y-75265500D01*
X120272936Y-76735500D02*
X120727064Y-76735500D01*
X176272936Y-57265500D02*
X176727064Y-57265500D01*
X176272936Y-58735500D02*
X176727064Y-58735500D01*
X148272936Y-27265500D02*
X148727064Y-27265500D01*
X148272936Y-28735500D02*
X148727064Y-28735500D01*
X162272936Y-99265500D02*
X162727064Y-99265500D01*
X162272936Y-100735500D02*
X162727064Y-100735500D01*
X162272936Y-81265500D02*
X162727064Y-81265500D01*
X162272936Y-82735500D02*
X162727064Y-82735500D01*
X190272936Y-33265500D02*
X190727064Y-33265500D01*
X190272936Y-34735500D02*
X190727064Y-34735500D01*
X120272936Y-105265500D02*
X120727064Y-105265500D01*
X120272936Y-106735500D02*
X120727064Y-106735500D01*
X148272936Y-63265500D02*
X148727064Y-63265500D01*
X148272936Y-64735500D02*
X148727064Y-64735500D01*
X106272936Y-99265500D02*
X106727064Y-99265500D01*
X106272936Y-100735500D02*
X106727064Y-100735500D01*
X148272936Y-93265500D02*
X148727064Y-93265500D01*
X148272936Y-94735500D02*
X148727064Y-94735500D01*
X148272936Y-75265500D02*
X148727064Y-75265500D01*
X148272936Y-76735500D02*
X148727064Y-76735500D01*
X120272936Y-87265500D02*
X120727064Y-87265500D01*
X120272936Y-88735500D02*
X120727064Y-88735500D01*
X106272936Y-39265500D02*
X106727064Y-39265500D01*
X106272936Y-40735500D02*
X106727064Y-40735500D01*
X190272936Y-39265500D02*
X190727064Y-39265500D01*
X190272936Y-40735500D02*
X190727064Y-40735500D01*
X176272936Y-99265500D02*
X176727064Y-99265500D01*
X176272936Y-100735500D02*
X176727064Y-100735500D01*
X148272936Y-69265500D02*
X148727064Y-69265500D01*
X148272936Y-70735500D02*
X148727064Y-70735500D01*
X148272936Y-87265500D02*
X148727064Y-87265500D01*
X148272936Y-88735500D02*
X148727064Y-88735500D01*
X148272936Y-39265500D02*
X148727064Y-39265500D01*
X148272936Y-40735500D02*
X148727064Y-40735500D01*
X148272936Y-33265500D02*
X148727064Y-33265500D01*
X148272936Y-34735500D02*
X148727064Y-34735500D01*
X106272936Y-45265500D02*
X106727064Y-45265500D01*
X106272936Y-46735500D02*
X106727064Y-46735500D01*
X176272936Y-81265500D02*
X176727064Y-81265500D01*
X176272936Y-82735500D02*
X176727064Y-82735500D01*
X120272936Y-27265500D02*
X120727064Y-27265500D01*
X120272936Y-28735500D02*
X120727064Y-28735500D01*
X106272936Y-27265500D02*
X106727064Y-27265500D01*
X106272936Y-28735500D02*
X106727064Y-28735500D01*
X106272936Y-33265500D02*
X106727064Y-33265500D01*
X106272936Y-34735500D02*
X106727064Y-34735500D01*
X148272936Y-99265500D02*
X148727064Y-99265500D01*
X148272936Y-100735500D02*
X148727064Y-100735500D01*
X106272936Y-57265500D02*
X106727064Y-57265500D01*
X106272936Y-58735500D02*
X106727064Y-58735500D01*
X106272936Y-51265500D02*
X106727064Y-51265500D01*
X106272936Y-52735500D02*
X106727064Y-52735500D01*
X106272936Y-63265500D02*
X106727064Y-63265500D01*
X106272936Y-64735500D02*
X106727064Y-64735500D01*
X190272936Y-57265500D02*
X190727064Y-57265500D01*
X190272936Y-58735500D02*
X190727064Y-58735500D01*
X190272936Y-27265500D02*
X190727064Y-27265500D01*
X190272936Y-28735500D02*
X190727064Y-28735500D01*
X134272936Y-81265500D02*
X134727064Y-81265500D01*
X134272936Y-82735500D02*
X134727064Y-82735500D01*
X162272936Y-45265500D02*
X162727064Y-45265500D01*
X162272936Y-46735500D02*
X162727064Y-46735500D01*
X162272936Y-93265500D02*
X162727064Y-93265500D01*
X162272936Y-94735500D02*
X162727064Y-94735500D01*
X162272936Y-51265500D02*
X162727064Y-51265500D01*
X162272936Y-52735500D02*
X162727064Y-52735500D01*
X162272936Y-75265500D02*
X162727064Y-75265500D01*
X162272936Y-76735500D02*
X162727064Y-76735500D01*
X162272936Y-27265500D02*
X162727064Y-27265500D01*
X162272936Y-28735500D02*
X162727064Y-28735500D01*
X134272936Y-87265500D02*
X134727064Y-87265500D01*
X134272936Y-88735500D02*
X134727064Y-88735500D01*
X190272936Y-99265500D02*
X190727064Y-99265500D01*
X190272936Y-100735500D02*
X190727064Y-100735500D01*
X190272936Y-69265500D02*
X190727064Y-69265500D01*
X190272936Y-70735500D02*
X190727064Y-70735500D01*
X190272936Y-75265500D02*
X190727064Y-75265500D01*
X190272936Y-76735500D02*
X190727064Y-76735500D01*
X176272936Y-39265500D02*
X176727064Y-39265500D01*
X176272936Y-40735500D02*
X176727064Y-40735500D01*
X190272936Y-45265500D02*
X190727064Y-45265500D01*
X190272936Y-46735500D02*
X190727064Y-46735500D01*
X134272936Y-45265500D02*
X134727064Y-45265500D01*
X134272936Y-46735500D02*
X134727064Y-46735500D01*
X134272936Y-93265500D02*
X134727064Y-93265500D01*
X134272936Y-94735500D02*
X134727064Y-94735500D01*
X162272936Y-69265500D02*
X162727064Y-69265500D01*
X162272936Y-70735500D02*
X162727064Y-70735500D01*
X106272936Y-87265500D02*
X106727064Y-87265500D01*
X106272936Y-88735500D02*
X106727064Y-88735500D01*
X134272936Y-69265500D02*
X134727064Y-69265500D01*
X134272936Y-70735500D02*
X134727064Y-70735500D01*
X106272936Y-75265500D02*
X106727064Y-75265500D01*
X106272936Y-76735500D02*
X106727064Y-76735500D01*
X148272936Y-51265500D02*
X148727064Y-51265500D01*
X148272936Y-52735500D02*
X148727064Y-52735500D01*
X134272936Y-57265500D02*
X134727064Y-57265500D01*
X134272936Y-58735500D02*
X134727064Y-58735500D01*
X120272936Y-63265500D02*
X120727064Y-63265500D01*
X120272936Y-64735500D02*
X120727064Y-64735500D01*
X134272936Y-63265500D02*
X134727064Y-63265500D01*
X134272936Y-64735500D02*
X134727064Y-64735500D01*
X190272936Y-51265500D02*
X190727064Y-51265500D01*
X190272936Y-52735500D02*
X190727064Y-52735500D01*
X106272936Y-105265500D02*
X106727064Y-105265500D01*
X106272936Y-106735500D02*
X106727064Y-106735500D01*
X162272936Y-57265500D02*
X162727064Y-57265500D01*
X162272936Y-58735500D02*
X162727064Y-58735500D01*
X176272936Y-63265500D02*
X176727064Y-63265500D01*
X176272936Y-64735500D02*
X176727064Y-64735500D01*
X134272936Y-99265500D02*
X134727064Y-99265500D01*
X134272936Y-100735500D02*
X134727064Y-100735500D01*
X190272936Y-105265500D02*
X190727064Y-105265500D01*
X190272936Y-106735500D02*
X190727064Y-106735500D01*
X162272936Y-87265500D02*
X162727064Y-87265500D01*
X162272936Y-88735500D02*
X162727064Y-88735500D01*
X176272936Y-51265500D02*
X176727064Y-51265500D01*
X176272936Y-52735500D02*
X176727064Y-52735500D01*
X148272936Y-81265500D02*
X148727064Y-81265500D01*
X148272936Y-82735500D02*
X148727064Y-82735500D01*
X190272936Y-93265500D02*
X190727064Y-93265500D01*
X190272936Y-94735500D02*
X190727064Y-94735500D01*
X120272936Y-93265500D02*
X120727064Y-93265500D01*
X120272936Y-94735500D02*
X120727064Y-94735500D01*
X176272936Y-33265500D02*
X176727064Y-33265500D01*
X176272936Y-34735500D02*
X176727064Y-34735500D01*
X148272936Y-105265500D02*
X148727064Y-105265500D01*
X148272936Y-106735500D02*
X148727064Y-106735500D01*
X176272936Y-87265500D02*
X176727064Y-87265500D01*
X176272936Y-88735500D02*
X176727064Y-88735500D01*
X134272936Y-27265500D02*
X134727064Y-27265500D01*
X134272936Y-28735500D02*
X134727064Y-28735500D01*
X176272936Y-93265500D02*
X176727064Y-93265500D01*
X176272936Y-94735500D02*
X176727064Y-94735500D01*
X106272936Y-93265500D02*
X106727064Y-93265500D01*
X106272936Y-94735500D02*
X106727064Y-94735500D01*
X134272936Y-75265500D02*
X134727064Y-75265500D01*
X134272936Y-76735500D02*
X134727064Y-76735500D01*
X120272936Y-69265500D02*
X120727064Y-69265500D01*
X120272936Y-70735500D02*
X120727064Y-70735500D01*
X190272936Y-81265500D02*
X190727064Y-81265500D01*
X190272936Y-82735500D02*
X190727064Y-82735500D01*
X120272936Y-57265500D02*
X120727064Y-57265500D01*
X120272936Y-58735500D02*
X120727064Y-58735500D01*
X176272936Y-75265500D02*
X176727064Y-75265500D01*
X176272936Y-76735500D02*
X176727064Y-76735500D01*
X120272936Y-81265500D02*
X120727064Y-81265500D01*
X120272936Y-82735500D02*
X120727064Y-82735500D01*
X162272936Y-63265500D02*
X162727064Y-63265500D01*
X162272936Y-64735500D02*
X162727064Y-64735500D01*
X176272936Y-45265500D02*
X176727064Y-45265500D01*
X176272936Y-46735500D02*
X176727064Y-46735500D01*
X162272936Y-105265500D02*
X162727064Y-105265500D01*
X162272936Y-106735500D02*
X162727064Y-106735500D01*
X134272936Y-105265500D02*
X134727064Y-105265500D01*
X134272936Y-106735500D02*
X134727064Y-106735500D01*
X134272936Y-33265500D02*
X134727064Y-33265500D01*
X134272936Y-34735500D02*
X134727064Y-34735500D01*
X120272936Y-39265500D02*
X120727064Y-39265500D01*
X120272936Y-40735500D02*
X120727064Y-40735500D01*
%TD*%
M02*
