%TF.GenerationSoftware,KiCad,Pcbnew,10.0.0*%
%TF.CreationDate,2026-03-25T00:05:04+01:00*%
%TF.ProjectId,fs_resistor_0805_panel,66735f72-6573-4697-9374-6f725f303830,rev?*%
%TF.SameCoordinates,Original*%
%TF.FileFunction,Copper,L1,Top*%
%TF.FilePolarity,Positive*%
%FSLAX46Y46*%
G04 Gerber Fmt 4.6, Leading zero omitted, Abs format (unit mm)*
G04 Created by KiCad (PCBNEW 10.0.0) date 2026-03-25 00:05:04*
%MOMM*%
%LPD*%
G01*
G04 APERTURE LIST*
G04 Aperture macros list*
%AMRoundRect*
0 Rectangle with rounded corners*
0 $1 Rounding radius*
0 $2 $3 $4 $5 $6 $7 $8 $9 X,Y pos of 4 corners*
0 Add a 4 corners polygon primitive as box body*
4,1,4,$2,$3,$4,$5,$6,$7,$8,$9,$2,$3,0*
0 Add four circle primitives for the rounded corners*
1,1,$1+$1,$2,$3*
1,1,$1+$1,$4,$5*
1,1,$1+$1,$6,$7*
1,1,$1+$1,$8,$9*
0 Add four rect primitives between the rounded corners*
20,1,$1+$1,$2,$3,$4,$5,0*
20,1,$1+$1,$4,$5,$6,$7,0*
20,1,$1+$1,$6,$7,$8,$9,0*
20,1,$1+$1,$8,$9,$2,$3,0*%
G04 Aperture macros list end*
%TA.AperFunction,ComponentPad*%
%ADD10C,3.800000*%
%TD*%
%TA.AperFunction,SMDPad,CuDef*%
%ADD11RoundRect,0.250000X-0.262500X-0.450000X0.262500X-0.450000X0.262500X0.450000X-0.262500X0.450000X0*%
%TD*%
%TA.AperFunction,Conductor*%
%ADD12C,0.200000*%
%TD*%
G04 APERTURE END LIST*
D10*
%TO.P,H2,1,1_1*%
%TO.N,Board_4-Net-(H2-Pad1)*%
X166500000Y-28000500D03*
%TD*%
%TO.P,H1,1,1_1*%
%TO.N,Board_79-Net-(H1-Pad1)*%
X130500000Y-94000500D03*
%TD*%
%TO.P,H1,1,1_1*%
%TO.N,Board_30-Net-(H1-Pad1)*%
X130500000Y-52000500D03*
%TD*%
D11*
%TO.P,R1,1*%
%TO.N,Board_29-Net-(H1-Pad1)*%
X119587500Y-52000500D03*
%TO.P,R1,2*%
%TO.N,Board_29-Net-(H2-Pad1)*%
X121412500Y-52000500D03*
%TD*%
D10*
%TO.P,H2,1,1_1*%
%TO.N,Board_93-Net-(H2-Pad1)*%
X138500000Y-106000500D03*
%TD*%
D11*
%TO.P,R1,1*%
%TO.N,Board_85-Net-(H1-Pad1)*%
X119587500Y-100000500D03*
%TO.P,R1,2*%
%TO.N,Board_85-Net-(H2-Pad1)*%
X121412500Y-100000500D03*
%TD*%
%TO.P,R1,1*%
%TO.N,Board_24-Net-(H1-Pad1)*%
X147587500Y-46000500D03*
%TO.P,R1,2*%
%TO.N,Board_24-Net-(H2-Pad1)*%
X149412500Y-46000500D03*
%TD*%
%TO.P,R1,1*%
%TO.N,Board_18-Net-(H1-Pad1)*%
X161587500Y-40000500D03*
%TO.P,R1,2*%
%TO.N,Board_18-Net-(H2-Pad1)*%
X163412500Y-40000500D03*
%TD*%
D10*
%TO.P,H2,1,1_1*%
%TO.N,Board_61-Net-(H2-Pad1)*%
X180500000Y-76000500D03*
%TD*%
D11*
%TO.P,R1,1*%
%TO.N,Board_22-Net-(H1-Pad1)*%
X119587500Y-46000500D03*
%TO.P,R1,2*%
%TO.N,Board_22-Net-(H2-Pad1)*%
X121412500Y-46000500D03*
%TD*%
D10*
%TO.P,H1,1,1_1*%
%TO.N,Board_88-Net-(H1-Pad1)*%
X158500000Y-100000500D03*
%TD*%
%TO.P,H2,1,1_1*%
%TO.N,Board_14-Net-(H2-Pad1)*%
X110500000Y-40000500D03*
%TD*%
%TO.P,H1,1,1_1*%
%TO.N,Board_39-Net-(H1-Pad1)*%
X158500000Y-58000500D03*
%TD*%
D11*
%TO.P,R1,1*%
%TO.N,Board_5-Net-(H1-Pad1)*%
X175587500Y-28000500D03*
%TO.P,R1,2*%
%TO.N,Board_5-Net-(H2-Pad1)*%
X177412500Y-28000500D03*
%TD*%
D10*
%TO.P,H1,1,1_1*%
%TO.N,Board_72-Net-(H1-Pad1)*%
X130500000Y-88000500D03*
%TD*%
%TO.P,H1,1,1_1*%
%TO.N,Board_54-Net-(H1-Pad1)*%
X172500000Y-70000500D03*
%TD*%
D11*
%TO.P,R1,1*%
%TO.N,Board_8-Net-(H1-Pad1)*%
X119587500Y-34000500D03*
%TO.P,R1,2*%
%TO.N,Board_8-Net-(H2-Pad1)*%
X121412500Y-34000500D03*
%TD*%
D10*
%TO.P,H2,1,1_1*%
%TO.N,Board_21-Net-(H2-Pad1)*%
X110500000Y-46000500D03*
%TD*%
%TO.P,H1,1,1_1*%
%TO.N,Board_66-Net-(H1-Pad1)*%
X144500000Y-82000500D03*
%TD*%
%TO.P,H1,1,1_1*%
%TO.N,Board_29-Net-(H1-Pad1)*%
X116500000Y-52000500D03*
%TD*%
D11*
%TO.P,R1,1*%
%TO.N,Board_76-Net-(H1-Pad1)*%
X189587500Y-88000500D03*
%TO.P,R1,2*%
%TO.N,Board_76-Net-(H2-Pad1)*%
X191412500Y-88000500D03*
%TD*%
%TO.P,R1,1*%
%TO.N,Board_38-Net-(H1-Pad1)*%
X147587500Y-58000500D03*
%TO.P,R1,2*%
%TO.N,Board_38-Net-(H2-Pad1)*%
X149412500Y-58000500D03*
%TD*%
%TO.P,R1,1*%
%TO.N,Board_49-Net-(H1-Pad1)*%
X105587500Y-70000500D03*
%TO.P,R1,2*%
%TO.N,Board_49-Net-(H2-Pad1)*%
X107412500Y-70000500D03*
%TD*%
%TO.P,R1,1*%
%TO.N,Board_54-Net-(H1-Pad1)*%
X175587500Y-70000500D03*
%TO.P,R1,2*%
%TO.N,Board_54-Net-(H2-Pad1)*%
X177412500Y-70000500D03*
%TD*%
D10*
%TO.P,H2,1,1_1*%
%TO.N,Board_82-Net-(H2-Pad1)*%
X180500000Y-94000500D03*
%TD*%
D11*
%TO.P,R1,1*%
%TO.N,Board_16-Net-(H1-Pad1)*%
X133587500Y-40000500D03*
%TO.P,R1,2*%
%TO.N,Board_16-Net-(H2-Pad1)*%
X135412500Y-40000500D03*
%TD*%
%TO.P,R1,1*%
%TO.N,Board_30-Net-(H1-Pad1)*%
X133587500Y-52000500D03*
%TO.P,R1,2*%
%TO.N,Board_30-Net-(H2-Pad1)*%
X135412500Y-52000500D03*
%TD*%
%TO.P,R1,1*%
%TO.N,Board_63-Net-(H1-Pad1)*%
X105587500Y-82000500D03*
%TO.P,R1,2*%
%TO.N,Board_63-Net-(H2-Pad1)*%
X107412500Y-82000500D03*
%TD*%
D10*
%TO.P,H2,1,1_1*%
%TO.N,Board_2-Net-(H2-Pad1)*%
X138500000Y-28000500D03*
%TD*%
%TO.P,H2,1,1_1*%
%TO.N,Board_57-Net-(H2-Pad1)*%
X124500000Y-76000500D03*
%TD*%
%TO.P,H1,1,1_1*%
%TO.N,Board_85-Net-(H1-Pad1)*%
X116500000Y-100000500D03*
%TD*%
%TO.P,H1,1,1_1*%
%TO.N,Board_1-Net-(H1-Pad1)*%
X116500000Y-28000500D03*
%TD*%
%TO.P,H1,1,1_1*%
%TO.N,Board_94-Net-(H1-Pad1)*%
X144500000Y-106000500D03*
%TD*%
%TO.P,H1,1,1_1*%
%TO.N,Board_24-Net-(H1-Pad1)*%
X144500000Y-46000500D03*
%TD*%
%TO.P,H2,1,1_1*%
%TO.N,Board_78-Net-(H2-Pad1)*%
X124500000Y-94000500D03*
%TD*%
%TO.P,H2,1,1_1*%
%TO.N,Board_7-Net-(H2-Pad1)*%
X110500000Y-34000500D03*
%TD*%
%TO.P,H2,1,1_1*%
%TO.N,Board_13-Net-(H2-Pad1)*%
X194500000Y-34000500D03*
%TD*%
D11*
%TO.P,R1,1*%
%TO.N,Board_48-Net-(H1-Pad1)*%
X189587500Y-64000500D03*
%TO.P,R1,2*%
%TO.N,Board_48-Net-(H2-Pad1)*%
X191412500Y-64000500D03*
%TD*%
D10*
%TO.P,H2,1,1_1*%
%TO.N,Board_26-Net-(H2-Pad1)*%
X180500000Y-46000500D03*
%TD*%
D11*
%TO.P,R1,1*%
%TO.N,Board_96-Net-(H1-Pad1)*%
X175587500Y-106000500D03*
%TO.P,R1,2*%
%TO.N,Board_96-Net-(H2-Pad1)*%
X177412500Y-106000500D03*
%TD*%
D10*
%TO.P,H1,1,1_1*%
%TO.N,Board_43-Net-(H1-Pad1)*%
X116500000Y-64000500D03*
%TD*%
%TO.P,H1,1,1_1*%
%TO.N,Board_45-Net-(H1-Pad1)*%
X144500000Y-64000500D03*
%TD*%
%TO.P,H1,1,1_1*%
%TO.N,Board_90-Net-(H1-Pad1)*%
X186500000Y-100000500D03*
%TD*%
%TO.P,H2,1,1_1*%
%TO.N,Board_54-Net-(H2-Pad1)*%
X180500000Y-70000500D03*
%TD*%
D11*
%TO.P,R1,1*%
%TO.N,Board_11-Net-(H1-Pad1)*%
X161587500Y-34000500D03*
%TO.P,R1,2*%
%TO.N,Board_11-Net-(H2-Pad1)*%
X163412500Y-34000500D03*
%TD*%
D10*
%TO.P,H2,1,1_1*%
%TO.N,Board_49-Net-(H2-Pad1)*%
X110500000Y-70000500D03*
%TD*%
D11*
%TO.P,R1,1*%
%TO.N,Board_57-Net-(H1-Pad1)*%
X119587500Y-76000500D03*
%TO.P,R1,2*%
%TO.N,Board_57-Net-(H2-Pad1)*%
X121412500Y-76000500D03*
%TD*%
%TO.P,R1,1*%
%TO.N,Board_40-Net-(H1-Pad1)*%
X175587500Y-58000500D03*
%TO.P,R1,2*%
%TO.N,Board_40-Net-(H2-Pad1)*%
X177412500Y-58000500D03*
%TD*%
%TO.P,R1,1*%
%TO.N,Board_3-Net-(H1-Pad1)*%
X147587500Y-28000500D03*
%TO.P,R1,2*%
%TO.N,Board_3-Net-(H2-Pad1)*%
X149412500Y-28000500D03*
%TD*%
%TO.P,R1,1*%
%TO.N,Board_88-Net-(H1-Pad1)*%
X161587500Y-100000500D03*
%TO.P,R1,2*%
%TO.N,Board_88-Net-(H2-Pad1)*%
X163412500Y-100000500D03*
%TD*%
D10*
%TO.P,H1,1,1_1*%
%TO.N,Board_81-Net-(H1-Pad1)*%
X158500000Y-94000500D03*
%TD*%
D11*
%TO.P,R1,1*%
%TO.N,Board_67-Net-(H1-Pad1)*%
X161587500Y-82000500D03*
%TO.P,R1,2*%
%TO.N,Board_67-Net-(H2-Pad1)*%
X163412500Y-82000500D03*
%TD*%
D10*
%TO.P,H1,1,1_1*%
%TO.N,Board_60-Net-(H1-Pad1)*%
X158500000Y-76000500D03*
%TD*%
D11*
%TO.P,R1,1*%
%TO.N,Board_13-Net-(H1-Pad1)*%
X189587500Y-34000500D03*
%TO.P,R1,2*%
%TO.N,Board_13-Net-(H2-Pad1)*%
X191412500Y-34000500D03*
%TD*%
D10*
%TO.P,H1,1,1_1*%
%TO.N,Board_14-Net-(H1-Pad1)*%
X102500000Y-40000500D03*
%TD*%
%TO.P,H1,1,1_1*%
%TO.N,Board_33-Net-(H1-Pad1)*%
X172500000Y-52000500D03*
%TD*%
%TO.P,H2,1,1_1*%
%TO.N,Board_1-Net-(H2-Pad1)*%
X124500000Y-28000500D03*
%TD*%
%TO.P,H2,1,1_1*%
%TO.N,Board_34-Net-(H2-Pad1)*%
X194500000Y-52000500D03*
%TD*%
%TO.P,H1,1,1_1*%
%TO.N,Board_78-Net-(H1-Pad1)*%
X116500000Y-94000500D03*
%TD*%
%TO.P,H2,1,1_1*%
%TO.N,Board_27-Net-(H2-Pad1)*%
X194500000Y-46000500D03*
%TD*%
%TO.P,H1,1,1_1*%
%TO.N,Board_52-Net-(H1-Pad1)*%
X144500000Y-70000500D03*
%TD*%
%TO.P,H2,1,1_1*%
%TO.N,Board_76-Net-(H2-Pad1)*%
X194500000Y-88000500D03*
%TD*%
%TO.P,H1,1,1_1*%
%TO.N,Board_32-Net-(H1-Pad1)*%
X158500000Y-52000500D03*
%TD*%
D11*
%TO.P,R1,1*%
%TO.N,Board_92-Net-(H1-Pad1)*%
X119587500Y-106000500D03*
%TO.P,R1,2*%
%TO.N,Board_92-Net-(H2-Pad1)*%
X121412500Y-106000500D03*
%TD*%
D10*
%TO.P,H2,1,1_1*%
%TO.N,Board_58-Net-(H2-Pad1)*%
X138500000Y-76000500D03*
%TD*%
D11*
%TO.P,R1,1*%
%TO.N,Board_45-Net-(H1-Pad1)*%
X147587500Y-64000500D03*
%TO.P,R1,2*%
%TO.N,Board_45-Net-(H2-Pad1)*%
X149412500Y-64000500D03*
%TD*%
D10*
%TO.P,H1,1,1_1*%
%TO.N,Board_19-Net-(H1-Pad1)*%
X172500000Y-40000500D03*
%TD*%
%TO.P,H2,1,1_1*%
%TO.N,Board_62-Net-(H2-Pad1)*%
X194500000Y-76000500D03*
%TD*%
%TO.P,H2,1,1_1*%
%TO.N,Board_42-Net-(H2-Pad1)*%
X110500000Y-64000500D03*
%TD*%
%TO.P,H2,1,1_1*%
%TO.N,Board_90-Net-(H2-Pad1)*%
X194500000Y-100000500D03*
%TD*%
D11*
%TO.P,R1,1*%
%TO.N,Board_84-Net-(H1-Pad1)*%
X105587500Y-100000500D03*
%TO.P,R1,2*%
%TO.N,Board_84-Net-(H2-Pad1)*%
X107412500Y-100000500D03*
%TD*%
D10*
%TO.P,H1,1,1_1*%
%TO.N,Board_64-Net-(H1-Pad1)*%
X116500000Y-82000500D03*
%TD*%
%TO.P,H1,1,1_1*%
%TO.N,Board_22-Net-(H1-Pad1)*%
X116500000Y-46000500D03*
%TD*%
%TO.P,H2,1,1_1*%
%TO.N,Board_51-Net-(H2-Pad1)*%
X138500000Y-70000500D03*
%TD*%
%TO.P,H2,1,1_1*%
%TO.N,Board_84-Net-(H2-Pad1)*%
X110500000Y-100000500D03*
%TD*%
%TO.P,H2,1,1_1*%
%TO.N,Board_16-Net-(H2-Pad1)*%
X138500000Y-40000500D03*
%TD*%
%TO.P,H1,1,1_1*%
%TO.N,Board_36-Net-(H1-Pad1)*%
X116500000Y-58000500D03*
%TD*%
%TO.P,H2,1,1_1*%
%TO.N,Board_5-Net-(H2-Pad1)*%
X180500000Y-28000500D03*
%TD*%
%TO.P,H2,1,1_1*%
%TO.N,Board_52-Net-(H2-Pad1)*%
X152500000Y-70000500D03*
%TD*%
%TO.P,H1,1,1_1*%
%TO.N,Board_37-Net-(H1-Pad1)*%
X130500000Y-58000500D03*
%TD*%
%TO.P,H1,1,1_1*%
%TO.N,Board_7-Net-(H1-Pad1)*%
X102500000Y-34000500D03*
%TD*%
D11*
%TO.P,R1,1*%
%TO.N,Board_80-Net-(H1-Pad1)*%
X147587500Y-94000500D03*
%TO.P,R1,2*%
%TO.N,Board_80-Net-(H2-Pad1)*%
X149412500Y-94000500D03*
%TD*%
D10*
%TO.P,H2,1,1_1*%
%TO.N,Board_37-Net-(H2-Pad1)*%
X138500000Y-58000500D03*
%TD*%
%TO.P,H2,1,1_1*%
%TO.N,Board_74-Net-(H2-Pad1)*%
X166500000Y-88000500D03*
%TD*%
%TO.P,H2,1,1_1*%
%TO.N,Board_80-Net-(H2-Pad1)*%
X152500000Y-94000500D03*
%TD*%
%TO.P,H1,1,1_1*%
%TO.N,Board_95-Net-(H1-Pad1)*%
X158500000Y-106000500D03*
%TD*%
%TO.P,H2,1,1_1*%
%TO.N,Board_94-Net-(H2-Pad1)*%
X152500000Y-106000500D03*
%TD*%
%TO.P,H2,1,1_1*%
%TO.N,Board_11-Net-(H2-Pad1)*%
X166500000Y-34000500D03*
%TD*%
D11*
%TO.P,R1,1*%
%TO.N,Board_59-Net-(H1-Pad1)*%
X147587500Y-76000500D03*
%TO.P,R1,2*%
%TO.N,Board_59-Net-(H2-Pad1)*%
X149412500Y-76000500D03*
%TD*%
D10*
%TO.P,H2,1,1_1*%
%TO.N,Board_91-Net-(H2-Pad1)*%
X110500000Y-106000500D03*
%TD*%
%TO.P,H2,1,1_1*%
%TO.N,Board_38-Net-(H2-Pad1)*%
X152500000Y-58000500D03*
%TD*%
%TO.P,H2,1,1_1*%
%TO.N,Board_67-Net-(H2-Pad1)*%
X166500000Y-82000500D03*
%TD*%
D11*
%TO.P,R1,1*%
%TO.N,Board_71-Net-(H1-Pad1)*%
X119587500Y-88000500D03*
%TO.P,R1,2*%
%TO.N,Board_71-Net-(H2-Pad1)*%
X121412500Y-88000500D03*
%TD*%
%TO.P,R1,1*%
%TO.N,Board_14-Net-(H1-Pad1)*%
X105587500Y-40000500D03*
%TO.P,R1,2*%
%TO.N,Board_14-Net-(H2-Pad1)*%
X107412500Y-40000500D03*
%TD*%
D10*
%TO.P,H2,1,1_1*%
%TO.N,Board_39-Net-(H2-Pad1)*%
X166500000Y-58000500D03*
%TD*%
%TO.P,H2,1,1_1*%
%TO.N,Board_59-Net-(H2-Pad1)*%
X152500000Y-76000500D03*
%TD*%
D11*
%TO.P,R1,1*%
%TO.N,Board_20-Net-(H1-Pad1)*%
X189587500Y-40000500D03*
%TO.P,R1,2*%
%TO.N,Board_20-Net-(H2-Pad1)*%
X191412500Y-40000500D03*
%TD*%
D10*
%TO.P,H1,1,1_1*%
%TO.N,Board_75-Net-(H1-Pad1)*%
X172500000Y-88000500D03*
%TD*%
%TO.P,H2,1,1_1*%
%TO.N,Board_70-Net-(H2-Pad1)*%
X110500000Y-88000500D03*
%TD*%
%TO.P,H2,1,1_1*%
%TO.N,Board_47-Net-(H2-Pad1)*%
X180500000Y-64000500D03*
%TD*%
%TO.P,H2,1,1_1*%
%TO.N,Board_8-Net-(H2-Pad1)*%
X124500000Y-34000500D03*
%TD*%
D11*
%TO.P,R1,1*%
%TO.N,Board_89-Net-(H1-Pad1)*%
X175587500Y-100000500D03*
%TO.P,R1,2*%
%TO.N,Board_89-Net-(H2-Pad1)*%
X177412500Y-100000500D03*
%TD*%
D10*
%TO.P,H1,1,1_1*%
%TO.N,Board_27-Net-(H1-Pad1)*%
X186500000Y-46000500D03*
%TD*%
D11*
%TO.P,R1,1*%
%TO.N,Board_52-Net-(H1-Pad1)*%
X147587500Y-70000500D03*
%TO.P,R1,2*%
%TO.N,Board_52-Net-(H2-Pad1)*%
X149412500Y-70000500D03*
%TD*%
D10*
%TO.P,H1,1,1_1*%
%TO.N,Board_6-Net-(H1-Pad1)*%
X186500000Y-28000500D03*
%TD*%
D11*
%TO.P,R1,1*%
%TO.N,Board_73-Net-(H1-Pad1)*%
X147587500Y-88000500D03*
%TO.P,R1,2*%
%TO.N,Board_73-Net-(H2-Pad1)*%
X149412500Y-88000500D03*
%TD*%
D10*
%TO.P,H2,1,1_1*%
%TO.N,Board_83-Net-(H2-Pad1)*%
X194500000Y-94000500D03*
%TD*%
%TO.P,H1,1,1_1*%
%TO.N,Board_74-Net-(H1-Pad1)*%
X158500000Y-88000500D03*
%TD*%
%TO.P,H2,1,1_1*%
%TO.N,Board_25-Net-(H2-Pad1)*%
X166500000Y-46000500D03*
%TD*%
%TO.P,H2,1,1_1*%
%TO.N,Board_56-Net-(H2-Pad1)*%
X110500000Y-76000500D03*
%TD*%
D11*
%TO.P,R1,1*%
%TO.N,Board_17-Net-(H1-Pad1)*%
X147587500Y-40000500D03*
%TO.P,R1,2*%
%TO.N,Board_17-Net-(H2-Pad1)*%
X149412500Y-40000500D03*
%TD*%
D10*
%TO.P,H1,1,1_1*%
%TO.N,Board_59-Net-(H1-Pad1)*%
X144500000Y-76000500D03*
%TD*%
%TO.P,H2,1,1_1*%
%TO.N,Board_45-Net-(H2-Pad1)*%
X152500000Y-64000500D03*
%TD*%
%TO.P,H1,1,1_1*%
%TO.N,Board_58-Net-(H1-Pad1)*%
X130500000Y-76000500D03*
%TD*%
%TO.P,H2,1,1_1*%
%TO.N,Board_3-Net-(H2-Pad1)*%
X152500000Y-28000500D03*
%TD*%
%TO.P,H1,1,1_1*%
%TO.N,Board_9-Net-(H1-Pad1)*%
X130500000Y-34000500D03*
%TD*%
%TO.P,H1,1,1_1*%
%TO.N,Board_96-Net-(H1-Pad1)*%
X172500000Y-106000500D03*
%TD*%
D11*
%TO.P,R1,1*%
%TO.N,Board_10-Net-(H1-Pad1)*%
X147587500Y-34000500D03*
%TO.P,R1,2*%
%TO.N,Board_10-Net-(H2-Pad1)*%
X149412500Y-34000500D03*
%TD*%
D10*
%TO.P,H2,1,1_1*%
%TO.N,Board_48-Net-(H2-Pad1)*%
X194500000Y-64000500D03*
%TD*%
%TO.P,H1,1,1_1*%
%TO.N,Board_50-Net-(H1-Pad1)*%
X116500000Y-70000500D03*
%TD*%
D11*
%TO.P,R1,1*%
%TO.N,Board_21-Net-(H1-Pad1)*%
X105587500Y-46000500D03*
%TO.P,R1,2*%
%TO.N,Board_21-Net-(H2-Pad1)*%
X107412500Y-46000500D03*
%TD*%
%TO.P,R1,1*%
%TO.N,Board_68-Net-(H1-Pad1)*%
X175587500Y-82000500D03*
%TO.P,R1,2*%
%TO.N,Board_68-Net-(H2-Pad1)*%
X177412500Y-82000500D03*
%TD*%
D10*
%TO.P,H1,1,1_1*%
%TO.N,Board_31-Net-(H1-Pad1)*%
X144500000Y-52000500D03*
%TD*%
D11*
%TO.P,R1,1*%
%TO.N,Board_1-Net-(H1-Pad1)*%
X119587500Y-28000500D03*
%TO.P,R1,2*%
%TO.N,Board_1-Net-(H2-Pad1)*%
X121412500Y-28000500D03*
%TD*%
%TO.P,R1,1*%
%TO.N,Board_0-Net-(H1-Pad1)*%
X105587500Y-28000500D03*
%TO.P,R1,2*%
%TO.N,Board_0-Net-(H2-Pad1)*%
X107412500Y-28000500D03*
%TD*%
%TO.P,R1,1*%
%TO.N,Board_7-Net-(H1-Pad1)*%
X105587500Y-34000500D03*
%TO.P,R1,2*%
%TO.N,Board_7-Net-(H2-Pad1)*%
X107412500Y-34000500D03*
%TD*%
%TO.P,R1,1*%
%TO.N,Board_87-Net-(H1-Pad1)*%
X147587500Y-100000500D03*
%TO.P,R1,2*%
%TO.N,Board_87-Net-(H2-Pad1)*%
X149412500Y-100000500D03*
%TD*%
%TO.P,R1,1*%
%TO.N,Board_35-Net-(H1-Pad1)*%
X105587500Y-58000500D03*
%TO.P,R1,2*%
%TO.N,Board_35-Net-(H2-Pad1)*%
X107412500Y-58000500D03*
%TD*%
D10*
%TO.P,H1,1,1_1*%
%TO.N,Board_2-Net-(H1-Pad1)*%
X130500000Y-28000500D03*
%TD*%
%TO.P,H2,1,1_1*%
%TO.N,Board_44-Net-(H2-Pad1)*%
X138500000Y-64000500D03*
%TD*%
%TO.P,H1,1,1_1*%
%TO.N,Board_67-Net-(H1-Pad1)*%
X158500000Y-82000500D03*
%TD*%
%TO.P,H2,1,1_1*%
%TO.N,Board_85-Net-(H2-Pad1)*%
X124500000Y-100000500D03*
%TD*%
%TO.P,H2,1,1_1*%
%TO.N,Board_29-Net-(H2-Pad1)*%
X124500000Y-52000500D03*
%TD*%
%TO.P,H2,1,1_1*%
%TO.N,Board_86-Net-(H2-Pad1)*%
X138500000Y-100000500D03*
%TD*%
D11*
%TO.P,R1,1*%
%TO.N,Board_28-Net-(H1-Pad1)*%
X105587500Y-52000500D03*
%TO.P,R1,2*%
%TO.N,Board_28-Net-(H2-Pad1)*%
X107412500Y-52000500D03*
%TD*%
%TO.P,R1,1*%
%TO.N,Board_42-Net-(H1-Pad1)*%
X105587500Y-64000500D03*
%TO.P,R1,2*%
%TO.N,Board_42-Net-(H2-Pad1)*%
X107412500Y-64000500D03*
%TD*%
D10*
%TO.P,H1,1,1_1*%
%TO.N,Board_93-Net-(H1-Pad1)*%
X130500000Y-106000500D03*
%TD*%
%TO.P,H1,1,1_1*%
%TO.N,Board_76-Net-(H1-Pad1)*%
X186500000Y-88000500D03*
%TD*%
%TO.P,H2,1,1_1*%
%TO.N,Board_65-Net-(H2-Pad1)*%
X138500000Y-82000500D03*
%TD*%
%TO.P,H1,1,1_1*%
%TO.N,Board_89-Net-(H1-Pad1)*%
X172500000Y-100000500D03*
%TD*%
%TO.P,H2,1,1_1*%
%TO.N,Board_75-Net-(H2-Pad1)*%
X180500000Y-88000500D03*
%TD*%
%TO.P,H1,1,1_1*%
%TO.N,Board_65-Net-(H1-Pad1)*%
X130500000Y-82000500D03*
%TD*%
%TO.P,H2,1,1_1*%
%TO.N,Board_19-Net-(H2-Pad1)*%
X180500000Y-40000500D03*
%TD*%
%TO.P,H2,1,1_1*%
%TO.N,Board_31-Net-(H2-Pad1)*%
X152500000Y-52000500D03*
%TD*%
%TO.P,H2,1,1_1*%
%TO.N,Board_33-Net-(H2-Pad1)*%
X180500000Y-52000500D03*
%TD*%
D11*
%TO.P,R1,1*%
%TO.N,Board_41-Net-(H1-Pad1)*%
X189587500Y-58000500D03*
%TO.P,R1,2*%
%TO.N,Board_41-Net-(H2-Pad1)*%
X191412500Y-58000500D03*
%TD*%
D10*
%TO.P,H2,1,1_1*%
%TO.N,Board_24-Net-(H2-Pad1)*%
X152500000Y-46000500D03*
%TD*%
D11*
%TO.P,R1,1*%
%TO.N,Board_6-Net-(H1-Pad1)*%
X189587500Y-28000500D03*
%TO.P,R1,2*%
%TO.N,Board_6-Net-(H2-Pad1)*%
X191412500Y-28000500D03*
%TD*%
D10*
%TO.P,H1,1,1_1*%
%TO.N,Board_12-Net-(H1-Pad1)*%
X172500000Y-34000500D03*
%TD*%
%TO.P,H1,1,1_1*%
%TO.N,Board_35-Net-(H1-Pad1)*%
X102500000Y-58000500D03*
%TD*%
%TO.P,H2,1,1_1*%
%TO.N,Board_9-Net-(H2-Pad1)*%
X138500000Y-34000500D03*
%TD*%
D11*
%TO.P,R1,1*%
%TO.N,Board_65-Net-(H1-Pad1)*%
X133587500Y-82000500D03*
%TO.P,R1,2*%
%TO.N,Board_65-Net-(H2-Pad1)*%
X135412500Y-82000500D03*
%TD*%
D10*
%TO.P,H2,1,1_1*%
%TO.N,Board_15-Net-(H2-Pad1)*%
X124500000Y-40000500D03*
%TD*%
%TO.P,H1,1,1_1*%
%TO.N,Board_21-Net-(H1-Pad1)*%
X102500000Y-46000500D03*
%TD*%
%TO.P,H2,1,1_1*%
%TO.N,Board_41-Net-(H2-Pad1)*%
X194500000Y-58000500D03*
%TD*%
%TO.P,H1,1,1_1*%
%TO.N,Board_16-Net-(H1-Pad1)*%
X130500000Y-40000500D03*
%TD*%
D11*
%TO.P,R1,1*%
%TO.N,Board_25-Net-(H1-Pad1)*%
X161587500Y-46000500D03*
%TO.P,R1,2*%
%TO.N,Board_25-Net-(H2-Pad1)*%
X163412500Y-46000500D03*
%TD*%
D10*
%TO.P,H2,1,1_1*%
%TO.N,Board_95-Net-(H2-Pad1)*%
X166500000Y-106000500D03*
%TD*%
D11*
%TO.P,R1,1*%
%TO.N,Board_81-Net-(H1-Pad1)*%
X161587500Y-94000500D03*
%TO.P,R1,2*%
%TO.N,Board_81-Net-(H2-Pad1)*%
X163412500Y-94000500D03*
%TD*%
%TO.P,R1,1*%
%TO.N,Board_32-Net-(H1-Pad1)*%
X161587500Y-52000500D03*
%TO.P,R1,2*%
%TO.N,Board_32-Net-(H2-Pad1)*%
X163412500Y-52000500D03*
%TD*%
%TO.P,R1,1*%
%TO.N,Board_60-Net-(H1-Pad1)*%
X161587500Y-76000500D03*
%TO.P,R1,2*%
%TO.N,Board_60-Net-(H2-Pad1)*%
X163412500Y-76000500D03*
%TD*%
D10*
%TO.P,H2,1,1_1*%
%TO.N,Board_30-Net-(H2-Pad1)*%
X138500000Y-52000500D03*
%TD*%
D11*
%TO.P,R1,1*%
%TO.N,Board_4-Net-(H1-Pad1)*%
X161587500Y-28000500D03*
%TO.P,R1,2*%
%TO.N,Board_4-Net-(H2-Pad1)*%
X163412500Y-28000500D03*
%TD*%
D10*
%TO.P,H2,1,1_1*%
%TO.N,Board_79-Net-(H2-Pad1)*%
X138500000Y-94000500D03*
%TD*%
D11*
%TO.P,R1,1*%
%TO.N,Board_72-Net-(H1-Pad1)*%
X133587500Y-88000500D03*
%TO.P,R1,2*%
%TO.N,Board_72-Net-(H2-Pad1)*%
X135412500Y-88000500D03*
%TD*%
D10*
%TO.P,H1,1,1_1*%
%TO.N,Board_97-Net-(H1-Pad1)*%
X186500000Y-106000500D03*
%TD*%
D11*
%TO.P,R1,1*%
%TO.N,Board_90-Net-(H1-Pad1)*%
X189587500Y-100000500D03*
%TO.P,R1,2*%
%TO.N,Board_90-Net-(H2-Pad1)*%
X191412500Y-100000500D03*
%TD*%
D10*
%TO.P,H2,1,1_1*%
%TO.N,Board_43-Net-(H2-Pad1)*%
X124500000Y-64000500D03*
%TD*%
D11*
%TO.P,R1,1*%
%TO.N,Board_55-Net-(H1-Pad1)*%
X189587500Y-70000500D03*
%TO.P,R1,2*%
%TO.N,Board_55-Net-(H2-Pad1)*%
X191412500Y-70000500D03*
%TD*%
%TO.P,R1,1*%
%TO.N,Board_62-Net-(H1-Pad1)*%
X189587500Y-76000500D03*
%TO.P,R1,2*%
%TO.N,Board_62-Net-(H2-Pad1)*%
X191412500Y-76000500D03*
%TD*%
%TO.P,R1,1*%
%TO.N,Board_19-Net-(H1-Pad1)*%
X175587500Y-40000500D03*
%TO.P,R1,2*%
%TO.N,Board_19-Net-(H2-Pad1)*%
X177412500Y-40000500D03*
%TD*%
%TO.P,R1,1*%
%TO.N,Board_27-Net-(H1-Pad1)*%
X189587500Y-46000500D03*
%TO.P,R1,2*%
%TO.N,Board_27-Net-(H2-Pad1)*%
X191412500Y-46000500D03*
%TD*%
D10*
%TO.P,H2,1,1_1*%
%TO.N,Board_17-Net-(H2-Pad1)*%
X152500000Y-40000500D03*
%TD*%
D11*
%TO.P,R1,1*%
%TO.N,Board_23-Net-(H1-Pad1)*%
X133587500Y-46000500D03*
%TO.P,R1,2*%
%TO.N,Board_23-Net-(H2-Pad1)*%
X135412500Y-46000500D03*
%TD*%
D10*
%TO.P,H1,1,1_1*%
%TO.N,Board_62-Net-(H1-Pad1)*%
X186500000Y-76000500D03*
%TD*%
%TO.P,H1,1,1_1*%
%TO.N,Board_34-Net-(H1-Pad1)*%
X186500000Y-52000500D03*
%TD*%
%TO.P,H1,1,1_1*%
%TO.N,Board_53-Net-(H1-Pad1)*%
X158500000Y-70000500D03*
%TD*%
%TO.P,H2,1,1_1*%
%TO.N,Board_36-Net-(H2-Pad1)*%
X124500000Y-58000500D03*
%TD*%
D11*
%TO.P,R1,1*%
%TO.N,Board_79-Net-(H1-Pad1)*%
X133587500Y-94000500D03*
%TO.P,R1,2*%
%TO.N,Board_79-Net-(H2-Pad1)*%
X135412500Y-94000500D03*
%TD*%
D10*
%TO.P,H1,1,1_1*%
%TO.N,Board_42-Net-(H1-Pad1)*%
X102500000Y-64000500D03*
%TD*%
D11*
%TO.P,R1,1*%
%TO.N,Board_53-Net-(H1-Pad1)*%
X161587500Y-70000500D03*
%TO.P,R1,2*%
%TO.N,Board_53-Net-(H2-Pad1)*%
X163412500Y-70000500D03*
%TD*%
%TO.P,R1,1*%
%TO.N,Board_70-Net-(H1-Pad1)*%
X105587500Y-88000500D03*
%TO.P,R1,2*%
%TO.N,Board_70-Net-(H2-Pad1)*%
X107412500Y-88000500D03*
%TD*%
%TO.P,R1,1*%
%TO.N,Board_51-Net-(H1-Pad1)*%
X133587500Y-70000500D03*
%TO.P,R1,2*%
%TO.N,Board_51-Net-(H2-Pad1)*%
X135412500Y-70000500D03*
%TD*%
D10*
%TO.P,H1,1,1_1*%
%TO.N,Board_17-Net-(H1-Pad1)*%
X144500000Y-40000500D03*
%TD*%
%TO.P,H2,1,1_1*%
%TO.N,Board_6-Net-(H2-Pad1)*%
X194500000Y-28000500D03*
%TD*%
D11*
%TO.P,R1,1*%
%TO.N,Board_56-Net-(H1-Pad1)*%
X105587500Y-76000500D03*
%TO.P,R1,2*%
%TO.N,Board_56-Net-(H2-Pad1)*%
X107412500Y-76000500D03*
%TD*%
D10*
%TO.P,H2,1,1_1*%
%TO.N,Board_53-Net-(H2-Pad1)*%
X166500000Y-70000500D03*
%TD*%
%TO.P,H2,1,1_1*%
%TO.N,Board_50-Net-(H2-Pad1)*%
X124500000Y-70000500D03*
%TD*%
D11*
%TO.P,R1,1*%
%TO.N,Board_31-Net-(H1-Pad1)*%
X147587500Y-52000500D03*
%TO.P,R1,2*%
%TO.N,Board_31-Net-(H2-Pad1)*%
X149412500Y-52000500D03*
%TD*%
D10*
%TO.P,H1,1,1_1*%
%TO.N,Board_84-Net-(H1-Pad1)*%
X102500000Y-100000500D03*
%TD*%
D11*
%TO.P,R1,1*%
%TO.N,Board_37-Net-(H1-Pad1)*%
X133587500Y-58000500D03*
%TO.P,R1,2*%
%TO.N,Board_37-Net-(H2-Pad1)*%
X135412500Y-58000500D03*
%TD*%
D10*
%TO.P,H1,1,1_1*%
%TO.N,Board_80-Net-(H1-Pad1)*%
X144500000Y-94000500D03*
%TD*%
%TO.P,H2,1,1_1*%
%TO.N,Board_96-Net-(H2-Pad1)*%
X180500000Y-106000500D03*
%TD*%
%TO.P,H1,1,1_1*%
%TO.N,Board_63-Net-(H1-Pad1)*%
X102500000Y-82000500D03*
%TD*%
%TO.P,H1,1,1_1*%
%TO.N,Board_18-Net-(H1-Pad1)*%
X158500000Y-40000500D03*
%TD*%
%TO.P,H1,1,1_1*%
%TO.N,Board_0-Net-(H1-Pad1)*%
X102500000Y-28000500D03*
%TD*%
%TO.P,H1,1,1_1*%
%TO.N,Board_15-Net-(H1-Pad1)*%
X116500000Y-40000500D03*
%TD*%
%TO.P,H1,1,1_1*%
%TO.N,Board_25-Net-(H1-Pad1)*%
X158500000Y-46000500D03*
%TD*%
D11*
%TO.P,R1,1*%
%TO.N,Board_43-Net-(H1-Pad1)*%
X119587500Y-64000500D03*
%TO.P,R1,2*%
%TO.N,Board_43-Net-(H2-Pad1)*%
X121412500Y-64000500D03*
%TD*%
D10*
%TO.P,H2,1,1_1*%
%TO.N,Board_66-Net-(H2-Pad1)*%
X152500000Y-82000500D03*
%TD*%
%TO.P,H1,1,1_1*%
%TO.N,Board_92-Net-(H1-Pad1)*%
X116500000Y-106000500D03*
%TD*%
%TO.P,H1,1,1_1*%
%TO.N,Board_70-Net-(H1-Pad1)*%
X102500000Y-88000500D03*
%TD*%
D11*
%TO.P,R1,1*%
%TO.N,Board_44-Net-(H1-Pad1)*%
X133587500Y-64000500D03*
%TO.P,R1,2*%
%TO.N,Board_44-Net-(H2-Pad1)*%
X135412500Y-64000500D03*
%TD*%
D10*
%TO.P,H2,1,1_1*%
%TO.N,Board_28-Net-(H2-Pad1)*%
X110500000Y-52000500D03*
%TD*%
%TO.P,H1,1,1_1*%
%TO.N,Board_86-Net-(H1-Pad1)*%
X130500000Y-100000500D03*
%TD*%
%TO.P,H1,1,1_1*%
%TO.N,Board_68-Net-(H1-Pad1)*%
X172500000Y-82000500D03*
%TD*%
%TO.P,H1,1,1_1*%
%TO.N,Board_91-Net-(H1-Pad1)*%
X102500000Y-106000500D03*
%TD*%
D11*
%TO.P,R1,1*%
%TO.N,Board_34-Net-(H1-Pad1)*%
X189587500Y-52000500D03*
%TO.P,R1,2*%
%TO.N,Board_34-Net-(H2-Pad1)*%
X191412500Y-52000500D03*
%TD*%
D10*
%TO.P,H2,1,1_1*%
%TO.N,Board_89-Net-(H2-Pad1)*%
X180500000Y-100000500D03*
%TD*%
%TO.P,H1,1,1_1*%
%TO.N,Board_20-Net-(H1-Pad1)*%
X186500000Y-40000500D03*
%TD*%
%TO.P,H2,1,1_1*%
%TO.N,Board_35-Net-(H2-Pad1)*%
X110500000Y-58000500D03*
%TD*%
%TO.P,H1,1,1_1*%
%TO.N,Board_23-Net-(H1-Pad1)*%
X130500000Y-46000500D03*
%TD*%
%TO.P,H2,1,1_1*%
%TO.N,Board_20-Net-(H2-Pad1)*%
X194500000Y-40000500D03*
%TD*%
%TO.P,H1,1,1_1*%
%TO.N,Board_47-Net-(H1-Pad1)*%
X172500000Y-64000500D03*
%TD*%
%TO.P,H1,1,1_1*%
%TO.N,Board_26-Net-(H1-Pad1)*%
X172500000Y-46000500D03*
%TD*%
%TO.P,H1,1,1_1*%
%TO.N,Board_4-Net-(H1-Pad1)*%
X158500000Y-28000500D03*
%TD*%
%TO.P,H2,1,1_1*%
%TO.N,Board_81-Net-(H2-Pad1)*%
X166500000Y-94000500D03*
%TD*%
%TO.P,H1,1,1_1*%
%TO.N,Board_28-Net-(H1-Pad1)*%
X102500000Y-52000500D03*
%TD*%
D11*
%TO.P,R1,1*%
%TO.N,Board_91-Net-(H1-Pad1)*%
X105587500Y-106000500D03*
%TO.P,R1,2*%
%TO.N,Board_91-Net-(H2-Pad1)*%
X107412500Y-106000500D03*
%TD*%
D10*
%TO.P,H2,1,1_1*%
%TO.N,Board_22-Net-(H2-Pad1)*%
X124500000Y-46000500D03*
%TD*%
%TO.P,H2,1,1_1*%
%TO.N,Board_40-Net-(H2-Pad1)*%
X180500000Y-58000500D03*
%TD*%
D11*
%TO.P,R1,1*%
%TO.N,Board_39-Net-(H1-Pad1)*%
X161587500Y-58000500D03*
%TO.P,R1,2*%
%TO.N,Board_39-Net-(H2-Pad1)*%
X163412500Y-58000500D03*
%TD*%
%TO.P,R1,1*%
%TO.N,Board_47-Net-(H1-Pad1)*%
X175587500Y-64000500D03*
%TO.P,R1,2*%
%TO.N,Board_47-Net-(H2-Pad1)*%
X177412500Y-64000500D03*
%TD*%
D10*
%TO.P,H2,1,1_1*%
%TO.N,Board_92-Net-(H2-Pad1)*%
X124500000Y-106000500D03*
%TD*%
D11*
%TO.P,R1,1*%
%TO.N,Board_86-Net-(H1-Pad1)*%
X133587500Y-100000500D03*
%TO.P,R1,2*%
%TO.N,Board_86-Net-(H2-Pad1)*%
X135412500Y-100000500D03*
%TD*%
%TO.P,R1,1*%
%TO.N,Board_97-Net-(H1-Pad1)*%
X189587500Y-106000500D03*
%TO.P,R1,2*%
%TO.N,Board_97-Net-(H2-Pad1)*%
X191412500Y-106000500D03*
%TD*%
%TO.P,R1,1*%
%TO.N,Board_74-Net-(H1-Pad1)*%
X161587500Y-88000500D03*
%TO.P,R1,2*%
%TO.N,Board_74-Net-(H2-Pad1)*%
X163412500Y-88000500D03*
%TD*%
%TO.P,R1,1*%
%TO.N,Board_33-Net-(H1-Pad1)*%
X175587500Y-52000500D03*
%TO.P,R1,2*%
%TO.N,Board_33-Net-(H2-Pad1)*%
X177412500Y-52000500D03*
%TD*%
D10*
%TO.P,H2,1,1_1*%
%TO.N,Board_72-Net-(H2-Pad1)*%
X138500000Y-88000500D03*
%TD*%
%TO.P,H1,1,1_1*%
%TO.N,Board_71-Net-(H1-Pad1)*%
X116500000Y-88000500D03*
%TD*%
%TO.P,H1,1,1_1*%
%TO.N,Board_87-Net-(H1-Pad1)*%
X144500000Y-100000500D03*
%TD*%
D11*
%TO.P,R1,1*%
%TO.N,Board_66-Net-(H1-Pad1)*%
X147587500Y-82000500D03*
%TO.P,R1,2*%
%TO.N,Board_66-Net-(H2-Pad1)*%
X149412500Y-82000500D03*
%TD*%
D10*
%TO.P,H1,1,1_1*%
%TO.N,Board_73-Net-(H1-Pad1)*%
X144500000Y-88000500D03*
%TD*%
%TO.P,H2,1,1_1*%
%TO.N,Board_73-Net-(H2-Pad1)*%
X152500000Y-88000500D03*
%TD*%
D11*
%TO.P,R1,1*%
%TO.N,Board_83-Net-(H1-Pad1)*%
X189587500Y-94000500D03*
%TO.P,R1,2*%
%TO.N,Board_83-Net-(H2-Pad1)*%
X191412500Y-94000500D03*
%TD*%
D10*
%TO.P,H1,1,1_1*%
%TO.N,Board_83-Net-(H1-Pad1)*%
X186500000Y-94000500D03*
%TD*%
%TO.P,H1,1,1_1*%
%TO.N,Board_5-Net-(H1-Pad1)*%
X172500000Y-28000500D03*
%TD*%
%TO.P,H2,1,1_1*%
%TO.N,Board_55-Net-(H2-Pad1)*%
X194500000Y-70000500D03*
%TD*%
D11*
%TO.P,R1,1*%
%TO.N,Board_78-Net-(H1-Pad1)*%
X119587500Y-94000500D03*
%TO.P,R1,2*%
%TO.N,Board_78-Net-(H2-Pad1)*%
X121412500Y-94000500D03*
%TD*%
D10*
%TO.P,H2,1,1_1*%
%TO.N,Board_88-Net-(H2-Pad1)*%
X166500000Y-100000500D03*
%TD*%
D11*
%TO.P,R1,1*%
%TO.N,Board_12-Net-(H1-Pad1)*%
X175587500Y-34000500D03*
%TO.P,R1,2*%
%TO.N,Board_12-Net-(H2-Pad1)*%
X177412500Y-34000500D03*
%TD*%
D10*
%TO.P,H2,1,1_1*%
%TO.N,Board_77-Net-(H2-Pad1)*%
X110500000Y-94000500D03*
%TD*%
D11*
%TO.P,R1,1*%
%TO.N,Board_94-Net-(H1-Pad1)*%
X147587500Y-106000500D03*
%TO.P,R1,2*%
%TO.N,Board_94-Net-(H2-Pad1)*%
X149412500Y-106000500D03*
%TD*%
%TO.P,R1,1*%
%TO.N,Board_75-Net-(H1-Pad1)*%
X175587500Y-88000500D03*
%TO.P,R1,2*%
%TO.N,Board_75-Net-(H2-Pad1)*%
X177412500Y-88000500D03*
%TD*%
D10*
%TO.P,H1,1,1_1*%
%TO.N,Board_61-Net-(H1-Pad1)*%
X172500000Y-76000500D03*
%TD*%
D11*
%TO.P,R1,1*%
%TO.N,Board_2-Net-(H1-Pad1)*%
X133587500Y-28000500D03*
%TO.P,R1,2*%
%TO.N,Board_2-Net-(H2-Pad1)*%
X135412500Y-28000500D03*
%TD*%
%TO.P,R1,1*%
%TO.N,Board_82-Net-(H1-Pad1)*%
X175587500Y-94000500D03*
%TO.P,R1,2*%
%TO.N,Board_82-Net-(H2-Pad1)*%
X177412500Y-94000500D03*
%TD*%
D10*
%TO.P,H2,1,1_1*%
%TO.N,Board_18-Net-(H2-Pad1)*%
X166500000Y-40000500D03*
%TD*%
%TO.P,H1,1,1_1*%
%TO.N,Board_38-Net-(H1-Pad1)*%
X144500000Y-58000500D03*
%TD*%
%TO.P,H2,1,1_1*%
%TO.N,Board_12-Net-(H2-Pad1)*%
X180500000Y-34000500D03*
%TD*%
%TO.P,H2,1,1_1*%
%TO.N,Board_87-Net-(H2-Pad1)*%
X152500000Y-100000500D03*
%TD*%
%TO.P,H2,1,1_1*%
%TO.N,Board_63-Net-(H2-Pad1)*%
X110500000Y-82000500D03*
%TD*%
%TO.P,H1,1,1_1*%
%TO.N,Board_3-Net-(H1-Pad1)*%
X144500000Y-28000500D03*
%TD*%
%TO.P,H1,1,1_1*%
%TO.N,Board_8-Net-(H1-Pad1)*%
X116500000Y-34000500D03*
%TD*%
%TO.P,H1,1,1_1*%
%TO.N,Board_46-Net-(H1-Pad1)*%
X158500000Y-64000500D03*
%TD*%
%TO.P,H1,1,1_1*%
%TO.N,Board_77-Net-(H1-Pad1)*%
X102500000Y-94000500D03*
%TD*%
D11*
%TO.P,R1,1*%
%TO.N,Board_77-Net-(H1-Pad1)*%
X105587500Y-94000500D03*
%TO.P,R1,2*%
%TO.N,Board_77-Net-(H2-Pad1)*%
X107412500Y-94000500D03*
%TD*%
D10*
%TO.P,H1,1,1_1*%
%TO.N,Board_48-Net-(H1-Pad1)*%
X186500000Y-64000500D03*
%TD*%
%TO.P,H1,1,1_1*%
%TO.N,Board_69-Net-(H1-Pad1)*%
X186500000Y-82000500D03*
%TD*%
%TO.P,H1,1,1_1*%
%TO.N,Board_40-Net-(H1-Pad1)*%
X172500000Y-58000500D03*
%TD*%
%TO.P,H2,1,1_1*%
%TO.N,Board_0-Net-(H2-Pad1)*%
X110500000Y-28000500D03*
%TD*%
%TO.P,H2,1,1_1*%
%TO.N,Board_64-Net-(H2-Pad1)*%
X124500000Y-82000500D03*
%TD*%
D11*
%TO.P,R1,1*%
%TO.N,Board_58-Net-(H1-Pad1)*%
X133587500Y-76000500D03*
%TO.P,R1,2*%
%TO.N,Board_58-Net-(H2-Pad1)*%
X135412500Y-76000500D03*
%TD*%
D10*
%TO.P,H2,1,1_1*%
%TO.N,Board_60-Net-(H2-Pad1)*%
X166500000Y-76000500D03*
%TD*%
%TO.P,H2,1,1_1*%
%TO.N,Board_68-Net-(H2-Pad1)*%
X180500000Y-82000500D03*
%TD*%
%TO.P,H1,1,1_1*%
%TO.N,Board_82-Net-(H1-Pad1)*%
X172500000Y-94000500D03*
%TD*%
D11*
%TO.P,R1,1*%
%TO.N,Board_50-Net-(H1-Pad1)*%
X119587500Y-70000500D03*
%TO.P,R1,2*%
%TO.N,Board_50-Net-(H2-Pad1)*%
X121412500Y-70000500D03*
%TD*%
D10*
%TO.P,H1,1,1_1*%
%TO.N,Board_11-Net-(H1-Pad1)*%
X158500000Y-34000500D03*
%TD*%
%TO.P,H1,1,1_1*%
%TO.N,Board_51-Net-(H1-Pad1)*%
X130500000Y-70000500D03*
%TD*%
%TO.P,H2,1,1_1*%
%TO.N,Board_32-Net-(H2-Pad1)*%
X166500000Y-52000500D03*
%TD*%
D11*
%TO.P,R1,1*%
%TO.N,Board_69-Net-(H1-Pad1)*%
X189587500Y-82000500D03*
%TO.P,R1,2*%
%TO.N,Board_69-Net-(H2-Pad1)*%
X191412500Y-82000500D03*
%TD*%
%TO.P,R1,1*%
%TO.N,Board_36-Net-(H1-Pad1)*%
X119587500Y-58000500D03*
%TO.P,R1,2*%
%TO.N,Board_36-Net-(H2-Pad1)*%
X121412500Y-58000500D03*
%TD*%
D10*
%TO.P,H2,1,1_1*%
%TO.N,Board_10-Net-(H2-Pad1)*%
X152500000Y-34000500D03*
%TD*%
%TO.P,H1,1,1_1*%
%TO.N,Board_10-Net-(H1-Pad1)*%
X144500000Y-34000500D03*
%TD*%
%TO.P,H2,1,1_1*%
%TO.N,Board_97-Net-(H2-Pad1)*%
X194500000Y-106000500D03*
%TD*%
D11*
%TO.P,R1,1*%
%TO.N,Board_61-Net-(H1-Pad1)*%
X175587500Y-76000500D03*
%TO.P,R1,2*%
%TO.N,Board_61-Net-(H2-Pad1)*%
X177412500Y-76000500D03*
%TD*%
%TO.P,R1,1*%
%TO.N,Board_64-Net-(H1-Pad1)*%
X119587500Y-82000500D03*
%TO.P,R1,2*%
%TO.N,Board_64-Net-(H2-Pad1)*%
X121412500Y-82000500D03*
%TD*%
D10*
%TO.P,H2,1,1_1*%
%TO.N,Board_69-Net-(H2-Pad1)*%
X194500000Y-82000500D03*
%TD*%
%TO.P,H1,1,1_1*%
%TO.N,Board_56-Net-(H1-Pad1)*%
X102500000Y-76000500D03*
%TD*%
D11*
%TO.P,R1,1*%
%TO.N,Board_46-Net-(H1-Pad1)*%
X161587500Y-64000500D03*
%TO.P,R1,2*%
%TO.N,Board_46-Net-(H2-Pad1)*%
X163412500Y-64000500D03*
%TD*%
D10*
%TO.P,H2,1,1_1*%
%TO.N,Board_71-Net-(H2-Pad1)*%
X124500000Y-88000500D03*
%TD*%
D11*
%TO.P,R1,1*%
%TO.N,Board_26-Net-(H1-Pad1)*%
X175587500Y-46000500D03*
%TO.P,R1,2*%
%TO.N,Board_26-Net-(H2-Pad1)*%
X177412500Y-46000500D03*
%TD*%
D10*
%TO.P,H1,1,1_1*%
%TO.N,Board_49-Net-(H1-Pad1)*%
X102500000Y-70000500D03*
%TD*%
D11*
%TO.P,R1,1*%
%TO.N,Board_95-Net-(H1-Pad1)*%
X161587500Y-106000500D03*
%TO.P,R1,2*%
%TO.N,Board_95-Net-(H2-Pad1)*%
X163412500Y-106000500D03*
%TD*%
D10*
%TO.P,H1,1,1_1*%
%TO.N,Board_57-Net-(H1-Pad1)*%
X116500000Y-76000500D03*
%TD*%
D11*
%TO.P,R1,1*%
%TO.N,Board_93-Net-(H1-Pad1)*%
X133587500Y-106000500D03*
%TO.P,R1,2*%
%TO.N,Board_93-Net-(H2-Pad1)*%
X135412500Y-106000500D03*
%TD*%
D10*
%TO.P,H1,1,1_1*%
%TO.N,Board_13-Net-(H1-Pad1)*%
X186500000Y-34000500D03*
%TD*%
%TO.P,H2,1,1_1*%
%TO.N,Board_46-Net-(H2-Pad1)*%
X166500000Y-64000500D03*
%TD*%
%TO.P,H2,1,1_1*%
%TO.N,Board_23-Net-(H2-Pad1)*%
X138500000Y-46000500D03*
%TD*%
%TO.P,H1,1,1_1*%
%TO.N,Board_44-Net-(H1-Pad1)*%
X130500000Y-64000500D03*
%TD*%
%TO.P,H1,1,1_1*%
%TO.N,Board_55-Net-(H1-Pad1)*%
X186500000Y-70000500D03*
%TD*%
D11*
%TO.P,R1,1*%
%TO.N,Board_9-Net-(H1-Pad1)*%
X133587500Y-34000500D03*
%TO.P,R1,2*%
%TO.N,Board_9-Net-(H2-Pad1)*%
X135412500Y-34000500D03*
%TD*%
D10*
%TO.P,H1,1,1_1*%
%TO.N,Board_41-Net-(H1-Pad1)*%
X186500000Y-58000500D03*
%TD*%
D11*
%TO.P,R1,1*%
%TO.N,Board_15-Net-(H1-Pad1)*%
X119587500Y-40000500D03*
%TO.P,R1,2*%
%TO.N,Board_15-Net-(H2-Pad1)*%
X121412500Y-40000500D03*
%TD*%
%TO.N,Board_4-Net-(H2-Pad1)*%
D12*
X163412500Y-28000500D02*
X166500000Y-28000500D01*
%TO.N,Board_79-Net-(H1-Pad1)*%
X133587500Y-94000500D02*
X130500000Y-94000500D01*
%TO.N,Board_30-Net-(H1-Pad1)*%
X133587500Y-52000500D02*
X130500000Y-52000500D01*
%TO.N,Board_29-Net-(H1-Pad1)*%
X119587500Y-52000500D02*
X116500000Y-52000500D01*
%TO.N,Board_29-Net-(H2-Pad1)*%
X121412500Y-52000500D02*
X124500000Y-52000500D01*
%TO.N,Board_93-Net-(H2-Pad1)*%
X135412500Y-106000500D02*
X138500000Y-106000500D01*
%TO.N,Board_85-Net-(H1-Pad1)*%
X119587500Y-100000500D02*
X116500000Y-100000500D01*
%TO.N,Board_85-Net-(H2-Pad1)*%
X121412500Y-100000500D02*
X124500000Y-100000500D01*
%TO.N,Board_24-Net-(H1-Pad1)*%
X147587500Y-46000500D02*
X144500000Y-46000500D01*
%TO.N,Board_24-Net-(H2-Pad1)*%
X149412500Y-46000500D02*
X152500000Y-46000500D01*
%TO.N,Board_18-Net-(H1-Pad1)*%
X161587500Y-40000500D02*
X158500000Y-40000500D01*
%TO.N,Board_18-Net-(H2-Pad1)*%
X163412500Y-40000500D02*
X166500000Y-40000500D01*
%TO.N,Board_61-Net-(H2-Pad1)*%
X177412500Y-76000500D02*
X180500000Y-76000500D01*
%TO.N,Board_22-Net-(H1-Pad1)*%
X119587500Y-46000500D02*
X116500000Y-46000500D01*
%TO.N,Board_22-Net-(H2-Pad1)*%
X121412500Y-46000500D02*
X124500000Y-46000500D01*
%TO.N,Board_88-Net-(H1-Pad1)*%
X161587500Y-100000500D02*
X158500000Y-100000500D01*
%TO.N,Board_14-Net-(H2-Pad1)*%
X107412500Y-40000500D02*
X110500000Y-40000500D01*
%TO.N,Board_39-Net-(H1-Pad1)*%
X161587500Y-58000500D02*
X158500000Y-58000500D01*
%TO.N,Board_5-Net-(H1-Pad1)*%
X175587500Y-28000500D02*
X172500000Y-28000500D01*
%TO.N,Board_5-Net-(H2-Pad1)*%
X177412500Y-28000500D02*
X180500000Y-28000500D01*
%TO.N,Board_72-Net-(H1-Pad1)*%
X133587500Y-88000500D02*
X130500000Y-88000500D01*
%TO.N,Board_54-Net-(H1-Pad1)*%
X175587500Y-70000500D02*
X172500000Y-70000500D01*
%TO.N,Board_8-Net-(H1-Pad1)*%
X119587500Y-34000500D02*
X116500000Y-34000500D01*
%TO.N,Board_8-Net-(H2-Pad1)*%
X121412500Y-34000500D02*
X124500000Y-34000500D01*
%TO.N,Board_21-Net-(H2-Pad1)*%
X107412500Y-46000500D02*
X110500000Y-46000500D01*
%TO.N,Board_66-Net-(H1-Pad1)*%
X147587500Y-82000500D02*
X144500000Y-82000500D01*
%TO.N,Board_76-Net-(H1-Pad1)*%
X189587500Y-88000500D02*
X186500000Y-88000500D01*
%TO.N,Board_76-Net-(H2-Pad1)*%
X191412500Y-88000500D02*
X194500000Y-88000500D01*
%TO.N,Board_38-Net-(H1-Pad1)*%
X147587500Y-58000500D02*
X144500000Y-58000500D01*
%TO.N,Board_38-Net-(H2-Pad1)*%
X149412500Y-58000500D02*
X152500000Y-58000500D01*
%TO.N,Board_49-Net-(H1-Pad1)*%
X105587500Y-70000500D02*
X102500000Y-70000500D01*
%TO.N,Board_49-Net-(H2-Pad1)*%
X107412500Y-70000500D02*
X110500000Y-70000500D01*
%TO.N,Board_54-Net-(H2-Pad1)*%
X177412500Y-70000500D02*
X180500000Y-70000500D01*
%TO.N,Board_82-Net-(H2-Pad1)*%
X177412500Y-94000500D02*
X180500000Y-94000500D01*
%TO.N,Board_16-Net-(H1-Pad1)*%
X133587500Y-40000500D02*
X130500000Y-40000500D01*
%TO.N,Board_16-Net-(H2-Pad1)*%
X135412500Y-40000500D02*
X138500000Y-40000500D01*
%TO.N,Board_30-Net-(H2-Pad1)*%
X135412500Y-52000500D02*
X138500000Y-52000500D01*
%TO.N,Board_63-Net-(H1-Pad1)*%
X105587500Y-82000500D02*
X102500000Y-82000500D01*
%TO.N,Board_63-Net-(H2-Pad1)*%
X107412500Y-82000500D02*
X110500000Y-82000500D01*
%TO.N,Board_2-Net-(H2-Pad1)*%
X135412500Y-28000500D02*
X138500000Y-28000500D01*
%TO.N,Board_57-Net-(H2-Pad1)*%
X121412500Y-76000500D02*
X124500000Y-76000500D01*
%TO.N,Board_1-Net-(H1-Pad1)*%
X119587500Y-28000500D02*
X116500000Y-28000500D01*
%TO.N,Board_94-Net-(H1-Pad1)*%
X147587500Y-106000500D02*
X144500000Y-106000500D01*
%TO.N,Board_78-Net-(H2-Pad1)*%
X121412500Y-94000500D02*
X124500000Y-94000500D01*
%TO.N,Board_7-Net-(H2-Pad1)*%
X107412500Y-34000500D02*
X110500000Y-34000500D01*
%TO.N,Board_13-Net-(H2-Pad1)*%
X191412500Y-34000500D02*
X194500000Y-34000500D01*
%TO.N,Board_48-Net-(H1-Pad1)*%
X189587500Y-64000500D02*
X186500000Y-64000500D01*
%TO.N,Board_48-Net-(H2-Pad1)*%
X191412500Y-64000500D02*
X194500000Y-64000500D01*
%TO.N,Board_26-Net-(H2-Pad1)*%
X177412500Y-46000500D02*
X180500000Y-46000500D01*
%TO.N,Board_96-Net-(H1-Pad1)*%
X175587500Y-106000500D02*
X172500000Y-106000500D01*
%TO.N,Board_96-Net-(H2-Pad1)*%
X177412500Y-106000500D02*
X180500000Y-106000500D01*
%TO.N,Board_43-Net-(H1-Pad1)*%
X119587500Y-64000500D02*
X116500000Y-64000500D01*
%TO.N,Board_45-Net-(H1-Pad1)*%
X147587500Y-64000500D02*
X144500000Y-64000500D01*
%TO.N,Board_90-Net-(H1-Pad1)*%
X189587500Y-100000500D02*
X186500000Y-100000500D01*
%TO.N,Board_11-Net-(H1-Pad1)*%
X161587500Y-34000500D02*
X158500000Y-34000500D01*
%TO.N,Board_11-Net-(H2-Pad1)*%
X163412500Y-34000500D02*
X166500000Y-34000500D01*
%TO.N,Board_57-Net-(H1-Pad1)*%
X119587500Y-76000500D02*
X116500000Y-76000500D01*
%TO.N,Board_40-Net-(H1-Pad1)*%
X175587500Y-58000500D02*
X172500000Y-58000500D01*
%TO.N,Board_40-Net-(H2-Pad1)*%
X177412500Y-58000500D02*
X180500000Y-58000500D01*
%TO.N,Board_3-Net-(H1-Pad1)*%
X147587500Y-28000500D02*
X144500000Y-28000500D01*
%TO.N,Board_3-Net-(H2-Pad1)*%
X149412500Y-28000500D02*
X152500000Y-28000500D01*
%TO.N,Board_88-Net-(H2-Pad1)*%
X163412500Y-100000500D02*
X166500000Y-100000500D01*
%TO.N,Board_81-Net-(H1-Pad1)*%
X161587500Y-94000500D02*
X158500000Y-94000500D01*
%TO.N,Board_67-Net-(H1-Pad1)*%
X161587500Y-82000500D02*
X158500000Y-82000500D01*
%TO.N,Board_67-Net-(H2-Pad1)*%
X163412500Y-82000500D02*
X166500000Y-82000500D01*
%TO.N,Board_60-Net-(H1-Pad1)*%
X161587500Y-76000500D02*
X158500000Y-76000500D01*
%TO.N,Board_13-Net-(H1-Pad1)*%
X189587500Y-34000500D02*
X186500000Y-34000500D01*
%TO.N,Board_14-Net-(H1-Pad1)*%
X105587500Y-40000500D02*
X102500000Y-40000500D01*
%TO.N,Board_33-Net-(H1-Pad1)*%
X175587500Y-52000500D02*
X172500000Y-52000500D01*
%TO.N,Board_1-Net-(H2-Pad1)*%
X121412500Y-28000500D02*
X124500000Y-28000500D01*
%TO.N,Board_34-Net-(H2-Pad1)*%
X191412500Y-52000500D02*
X194500000Y-52000500D01*
%TO.N,Board_78-Net-(H1-Pad1)*%
X119587500Y-94000500D02*
X116500000Y-94000500D01*
%TO.N,Board_27-Net-(H2-Pad1)*%
X191412500Y-46000500D02*
X194500000Y-46000500D01*
%TO.N,Board_52-Net-(H1-Pad1)*%
X147587500Y-70000500D02*
X144500000Y-70000500D01*
%TO.N,Board_32-Net-(H1-Pad1)*%
X161587500Y-52000500D02*
X158500000Y-52000500D01*
%TO.N,Board_92-Net-(H1-Pad1)*%
X119587500Y-106000500D02*
X116500000Y-106000500D01*
%TO.N,Board_92-Net-(H2-Pad1)*%
X121412500Y-106000500D02*
X124500000Y-106000500D01*
%TO.N,Board_58-Net-(H2-Pad1)*%
X135412500Y-76000500D02*
X138500000Y-76000500D01*
%TO.N,Board_45-Net-(H2-Pad1)*%
X149412500Y-64000500D02*
X152500000Y-64000500D01*
%TO.N,Board_19-Net-(H1-Pad1)*%
X175587500Y-40000500D02*
X172500000Y-40000500D01*
%TO.N,Board_62-Net-(H2-Pad1)*%
X191412500Y-76000500D02*
X194500000Y-76000500D01*
%TO.N,Board_42-Net-(H2-Pad1)*%
X107412500Y-64000500D02*
X110500000Y-64000500D01*
%TO.N,Board_90-Net-(H2-Pad1)*%
X191412500Y-100000500D02*
X194500000Y-100000500D01*
%TO.N,Board_84-Net-(H1-Pad1)*%
X105587500Y-100000500D02*
X102500000Y-100000500D01*
%TO.N,Board_84-Net-(H2-Pad1)*%
X107412500Y-100000500D02*
X110500000Y-100000500D01*
%TO.N,Board_64-Net-(H1-Pad1)*%
X119587500Y-82000500D02*
X116500000Y-82000500D01*
%TO.N,Board_51-Net-(H2-Pad1)*%
X135412500Y-70000500D02*
X138500000Y-70000500D01*
%TO.N,Board_36-Net-(H1-Pad1)*%
X119587500Y-58000500D02*
X116500000Y-58000500D01*
%TO.N,Board_52-Net-(H2-Pad1)*%
X149412500Y-70000500D02*
X152500000Y-70000500D01*
%TO.N,Board_37-Net-(H1-Pad1)*%
X133587500Y-58000500D02*
X130500000Y-58000500D01*
%TO.N,Board_7-Net-(H1-Pad1)*%
X105587500Y-34000500D02*
X102500000Y-34000500D01*
%TO.N,Board_80-Net-(H1-Pad1)*%
X147587500Y-94000500D02*
X144500000Y-94000500D01*
%TO.N,Board_80-Net-(H2-Pad1)*%
X149412500Y-94000500D02*
X152500000Y-94000500D01*
%TO.N,Board_37-Net-(H2-Pad1)*%
X135412500Y-58000500D02*
X138500000Y-58000500D01*
%TO.N,Board_74-Net-(H2-Pad1)*%
X163412500Y-88000500D02*
X166500000Y-88000500D01*
%TO.N,Board_95-Net-(H1-Pad1)*%
X161587500Y-106000500D02*
X158500000Y-106000500D01*
%TO.N,Board_94-Net-(H2-Pad1)*%
X149412500Y-106000500D02*
X152500000Y-106000500D01*
%TO.N,Board_59-Net-(H1-Pad1)*%
X147587500Y-76000500D02*
X144500000Y-76000500D01*
%TO.N,Board_59-Net-(H2-Pad1)*%
X149412500Y-76000500D02*
X152500000Y-76000500D01*
%TO.N,Board_91-Net-(H2-Pad1)*%
X107412500Y-106000500D02*
X110500000Y-106000500D01*
%TO.N,Board_71-Net-(H1-Pad1)*%
X119587500Y-88000500D02*
X116500000Y-88000500D01*
%TO.N,Board_71-Net-(H2-Pad1)*%
X121412500Y-88000500D02*
X124500000Y-88000500D01*
%TO.N,Board_39-Net-(H2-Pad1)*%
X163412500Y-58000500D02*
X166500000Y-58000500D01*
%TO.N,Board_20-Net-(H1-Pad1)*%
X189587500Y-40000500D02*
X186500000Y-40000500D01*
%TO.N,Board_20-Net-(H2-Pad1)*%
X191412500Y-40000500D02*
X194500000Y-40000500D01*
%TO.N,Board_75-Net-(H1-Pad1)*%
X175587500Y-88000500D02*
X172500000Y-88000500D01*
%TO.N,Board_70-Net-(H2-Pad1)*%
X107412500Y-88000500D02*
X110500000Y-88000500D01*
%TO.N,Board_47-Net-(H2-Pad1)*%
X177412500Y-64000500D02*
X180500000Y-64000500D01*
%TO.N,Board_89-Net-(H1-Pad1)*%
X175587500Y-100000500D02*
X172500000Y-100000500D01*
%TO.N,Board_89-Net-(H2-Pad1)*%
X177412500Y-100000500D02*
X180500000Y-100000500D01*
%TO.N,Board_27-Net-(H1-Pad1)*%
X189587500Y-46000500D02*
X186500000Y-46000500D01*
%TO.N,Board_6-Net-(H1-Pad1)*%
X189587500Y-28000500D02*
X186500000Y-28000500D01*
%TO.N,Board_73-Net-(H1-Pad1)*%
X147587500Y-88000500D02*
X144500000Y-88000500D01*
%TO.N,Board_73-Net-(H2-Pad1)*%
X149412500Y-88000500D02*
X152500000Y-88000500D01*
%TO.N,Board_83-Net-(H2-Pad1)*%
X191412500Y-94000500D02*
X194500000Y-94000500D01*
%TO.N,Board_74-Net-(H1-Pad1)*%
X161587500Y-88000500D02*
X158500000Y-88000500D01*
%TO.N,Board_25-Net-(H2-Pad1)*%
X163412500Y-46000500D02*
X166500000Y-46000500D01*
%TO.N,Board_56-Net-(H2-Pad1)*%
X107412500Y-76000500D02*
X110500000Y-76000500D01*
%TO.N,Board_17-Net-(H1-Pad1)*%
X147587500Y-40000500D02*
X144500000Y-40000500D01*
%TO.N,Board_17-Net-(H2-Pad1)*%
X149412500Y-40000500D02*
X152500000Y-40000500D01*
%TO.N,Board_58-Net-(H1-Pad1)*%
X133587500Y-76000500D02*
X130500000Y-76000500D01*
%TO.N,Board_9-Net-(H1-Pad1)*%
X133587500Y-34000500D02*
X130500000Y-34000500D01*
%TO.N,Board_10-Net-(H1-Pad1)*%
X147587500Y-34000500D02*
X144500000Y-34000500D01*
%TO.N,Board_10-Net-(H2-Pad1)*%
X149412500Y-34000500D02*
X152500000Y-34000500D01*
%TO.N,Board_50-Net-(H1-Pad1)*%
X119587500Y-70000500D02*
X116500000Y-70000500D01*
%TO.N,Board_21-Net-(H1-Pad1)*%
X105587500Y-46000500D02*
X102500000Y-46000500D01*
%TO.N,Board_68-Net-(H1-Pad1)*%
X175587500Y-82000500D02*
X172500000Y-82000500D01*
%TO.N,Board_68-Net-(H2-Pad1)*%
X177412500Y-82000500D02*
X180500000Y-82000500D01*
%TO.N,Board_31-Net-(H1-Pad1)*%
X147587500Y-52000500D02*
X144500000Y-52000500D01*
%TO.N,Board_0-Net-(H1-Pad1)*%
X105587500Y-28000500D02*
X102500000Y-28000500D01*
%TO.N,Board_0-Net-(H2-Pad1)*%
X107412500Y-28000500D02*
X110500000Y-28000500D01*
%TO.N,Board_87-Net-(H1-Pad1)*%
X147587500Y-100000500D02*
X144500000Y-100000500D01*
%TO.N,Board_87-Net-(H2-Pad1)*%
X149412500Y-100000500D02*
X152500000Y-100000500D01*
%TO.N,Board_35-Net-(H1-Pad1)*%
X105587500Y-58000500D02*
X102500000Y-58000500D01*
%TO.N,Board_35-Net-(H2-Pad1)*%
X107412500Y-58000500D02*
X110500000Y-58000500D01*
%TO.N,Board_2-Net-(H1-Pad1)*%
X133587500Y-28000500D02*
X130500000Y-28000500D01*
%TO.N,Board_44-Net-(H2-Pad1)*%
X135412500Y-64000500D02*
X138500000Y-64000500D01*
%TO.N,Board_86-Net-(H2-Pad1)*%
X135412500Y-100000500D02*
X138500000Y-100000500D01*
%TO.N,Board_28-Net-(H1-Pad1)*%
X105587500Y-52000500D02*
X102500000Y-52000500D01*
%TO.N,Board_28-Net-(H2-Pad1)*%
X107412500Y-52000500D02*
X110500000Y-52000500D01*
%TO.N,Board_42-Net-(H1-Pad1)*%
X105587500Y-64000500D02*
X102500000Y-64000500D01*
%TO.N,Board_93-Net-(H1-Pad1)*%
X133587500Y-106000500D02*
X130500000Y-106000500D01*
%TO.N,Board_65-Net-(H2-Pad1)*%
X135412500Y-82000500D02*
X138500000Y-82000500D01*
%TO.N,Board_75-Net-(H2-Pad1)*%
X177412500Y-88000500D02*
X180500000Y-88000500D01*
%TO.N,Board_65-Net-(H1-Pad1)*%
X133587500Y-82000500D02*
X130500000Y-82000500D01*
%TO.N,Board_19-Net-(H2-Pad1)*%
X177412500Y-40000500D02*
X180500000Y-40000500D01*
%TO.N,Board_31-Net-(H2-Pad1)*%
X149412500Y-52000500D02*
X152500000Y-52000500D01*
%TO.N,Board_33-Net-(H2-Pad1)*%
X177412500Y-52000500D02*
X180500000Y-52000500D01*
%TO.N,Board_41-Net-(H1-Pad1)*%
X189587500Y-58000500D02*
X186500000Y-58000500D01*
%TO.N,Board_41-Net-(H2-Pad1)*%
X191412500Y-58000500D02*
X194500000Y-58000500D01*
%TO.N,Board_6-Net-(H2-Pad1)*%
X191412500Y-28000500D02*
X194500000Y-28000500D01*
%TO.N,Board_12-Net-(H1-Pad1)*%
X175587500Y-34000500D02*
X172500000Y-34000500D01*
%TO.N,Board_9-Net-(H2-Pad1)*%
X135412500Y-34000500D02*
X138500000Y-34000500D01*
%TO.N,Board_15-Net-(H2-Pad1)*%
X121412500Y-40000500D02*
X124500000Y-40000500D01*
%TO.N,Board_25-Net-(H1-Pad1)*%
X161587500Y-46000500D02*
X158500000Y-46000500D01*
%TO.N,Board_95-Net-(H2-Pad1)*%
X163412500Y-106000500D02*
X166500000Y-106000500D01*
%TO.N,Board_81-Net-(H2-Pad1)*%
X163412500Y-94000500D02*
X166500000Y-94000500D01*
%TO.N,Board_32-Net-(H2-Pad1)*%
X163412500Y-52000500D02*
X166500000Y-52000500D01*
%TO.N,Board_60-Net-(H2-Pad1)*%
X163412500Y-76000500D02*
X166500000Y-76000500D01*
%TO.N,Board_4-Net-(H1-Pad1)*%
X161587500Y-28000500D02*
X158500000Y-28000500D01*
%TO.N,Board_79-Net-(H2-Pad1)*%
X135412500Y-94000500D02*
X138500000Y-94000500D01*
%TO.N,Board_72-Net-(H2-Pad1)*%
X135412500Y-88000500D02*
X138500000Y-88000500D01*
%TO.N,Board_97-Net-(H1-Pad1)*%
X189587500Y-106000500D02*
X186500000Y-106000500D01*
%TO.N,Board_43-Net-(H2-Pad1)*%
X121412500Y-64000500D02*
X124500000Y-64000500D01*
%TO.N,Board_55-Net-(H1-Pad1)*%
X189587500Y-70000500D02*
X186500000Y-70000500D01*
%TO.N,Board_55-Net-(H2-Pad1)*%
X191412500Y-70000500D02*
X194500000Y-70000500D01*
%TO.N,Board_62-Net-(H1-Pad1)*%
X189587500Y-76000500D02*
X186500000Y-76000500D01*
%TO.N,Board_23-Net-(H1-Pad1)*%
X133587500Y-46000500D02*
X130500000Y-46000500D01*
%TO.N,Board_23-Net-(H2-Pad1)*%
X135412500Y-46000500D02*
X138500000Y-46000500D01*
%TO.N,Board_34-Net-(H1-Pad1)*%
X189587500Y-52000500D02*
X186500000Y-52000500D01*
%TO.N,Board_53-Net-(H1-Pad1)*%
X161587500Y-70000500D02*
X158500000Y-70000500D01*
%TO.N,Board_36-Net-(H2-Pad1)*%
X121412500Y-58000500D02*
X124500000Y-58000500D01*
%TO.N,Board_53-Net-(H2-Pad1)*%
X163412500Y-70000500D02*
X166500000Y-70000500D01*
%TO.N,Board_70-Net-(H1-Pad1)*%
X105587500Y-88000500D02*
X102500000Y-88000500D01*
%TO.N,Board_51-Net-(H1-Pad1)*%
X133587500Y-70000500D02*
X130500000Y-70000500D01*
%TO.N,Board_56-Net-(H1-Pad1)*%
X105587500Y-76000500D02*
X102500000Y-76000500D01*
%TO.N,Board_50-Net-(H2-Pad1)*%
X121412500Y-70000500D02*
X124500000Y-70000500D01*
%TO.N,Board_15-Net-(H1-Pad1)*%
X119587500Y-40000500D02*
X116500000Y-40000500D01*
%TO.N,Board_66-Net-(H2-Pad1)*%
X149412500Y-82000500D02*
X152500000Y-82000500D01*
%TO.N,Board_44-Net-(H1-Pad1)*%
X133587500Y-64000500D02*
X130500000Y-64000500D01*
%TO.N,Board_86-Net-(H1-Pad1)*%
X133587500Y-100000500D02*
X130500000Y-100000500D01*
%TO.N,Board_91-Net-(H1-Pad1)*%
X105587500Y-106000500D02*
X102500000Y-106000500D01*
%TO.N,Board_47-Net-(H1-Pad1)*%
X175587500Y-64000500D02*
X172500000Y-64000500D01*
%TO.N,Board_26-Net-(H1-Pad1)*%
X175587500Y-46000500D02*
X172500000Y-46000500D01*
%TO.N,Board_97-Net-(H2-Pad1)*%
X191412500Y-106000500D02*
X194500000Y-106000500D01*
%TO.N,Board_83-Net-(H1-Pad1)*%
X189587500Y-94000500D02*
X186500000Y-94000500D01*
%TO.N,Board_12-Net-(H2-Pad1)*%
X177412500Y-34000500D02*
X180500000Y-34000500D01*
%TO.N,Board_77-Net-(H2-Pad1)*%
X107412500Y-94000500D02*
X110500000Y-94000500D01*
%TO.N,Board_61-Net-(H1-Pad1)*%
X175587500Y-76000500D02*
X172500000Y-76000500D01*
%TO.N,Board_82-Net-(H1-Pad1)*%
X175587500Y-94000500D02*
X172500000Y-94000500D01*
%TO.N,Board_46-Net-(H1-Pad1)*%
X161587500Y-64000500D02*
X158500000Y-64000500D01*
%TO.N,Board_77-Net-(H1-Pad1)*%
X105587500Y-94000500D02*
X102500000Y-94000500D01*
%TO.N,Board_69-Net-(H1-Pad1)*%
X189587500Y-82000500D02*
X186500000Y-82000500D01*
%TO.N,Board_64-Net-(H2-Pad1)*%
X121412500Y-82000500D02*
X124500000Y-82000500D01*
%TO.N,Board_69-Net-(H2-Pad1)*%
X191412500Y-82000500D02*
X194500000Y-82000500D01*
%TO.N,Board_46-Net-(H2-Pad1)*%
X163412500Y-64000500D02*
X166500000Y-64000500D01*
%TD*%
M02*
