%TF.GenerationSoftware,KiCad,Pcbnew,10.0.5*%
%TF.CreationDate,2026-08-24T14:18:40+02:00*%
%TF.ProjectId,fs_battery_switch,66735f62-6174-4746-9572-795f73776974,rev?*%
%TF.SameCoordinates,Original*%
%TF.FileFunction,Copper,L1,Top*%
%TF.FilePolarity,Positive*%
%FSLAX46Y46*%
G04 Gerber Fmt 4.6, Leading zero omitted, Abs format (unit mm)*
G04 Created by KiCad (PCBNEW 10.0.5) date 2026-08-24 14:18:40*
%MOMM*%
%LPD*%
G01*
G04 APERTURE LIST*
%TA.AperFunction,Conductor*%
%ADD10C,0.200000*%
%TD*%
%TA.AperFunction,ComponentPad*%
%ADD11C,3.800000*%
%TD*%
%TA.AperFunction,SMDPad,CuDef*%
%ADD12R,1.000000X0.800000*%
%TD*%
%TA.AperFunction,SMDPad,CuDef*%
%ADD13R,0.700000X1.500000*%
%TD*%
%TA.AperFunction,SMDPad,CuDef*%
%ADD14R,2.600000X5.560000*%
%TD*%
%TA.AperFunction,SMDPad,CuDef*%
%ADD15C,17.800000*%
%TD*%
%TA.AperFunction,ViaPad*%
%ADD16C,0.600000*%
%TD*%
G04 APERTURE END LIST*
%TO.N,VCC*%
D10*
X184000000Y-92000000D02*
X179300000Y-92007107D01*
X185000000Y-91000000D02*
G75*
G02*
X184000000Y-92000000I-1000000J0D01*
G01*
X185000000Y-90000000D02*
X185000000Y-91000000D01*
X185000000Y-90000000D02*
G75*
G02*
X186000000Y-89000000I1000000J0D01*
G01*
X189000000Y-88000000D02*
G75*
G02*
X188000000Y-89000000I-1000000J0D01*
G01*
X178307107Y-93007107D02*
G75*
G02*
X179307107Y-92007107I999999J1D01*
G01*
X178300000Y-93000000D02*
X178300000Y-93900000D01*
X170000000Y-92000000D02*
X177300000Y-92000000D01*
X177300000Y-92000000D02*
G75*
G02*
X178300000Y-93000000I0J-1000000D01*
G01*
X170000000Y-92000000D02*
G75*
G02*
X169000000Y-91000000I0J1000000D01*
G01*
X169000000Y-90000000D02*
X169000000Y-91000000D01*
X168000000Y-89000000D02*
G75*
G02*
X169000000Y-90000000I0J-1000000D01*
G01*
X166000000Y-89000000D02*
G75*
G02*
X165000000Y-88000000I0J1000000D01*
G01*
%TO.N,GND*%
X189000000Y-75900000D02*
G75*
G02*
X187100000Y-74000000I0J1900000D01*
G01*
X189000000Y-75900000D02*
X191100000Y-75900000D01*
X191100000Y-71900000D01*
X187100000Y-71900000D01*
X187100000Y-74000000D01*
X189000000Y-75900000D01*
%TA.AperFunction,Conductor*%
G36*
X191100000Y-75900000D02*
G01*
X189000000Y-75900000D01*
X187100000Y-74000000D01*
X187100000Y-71900000D01*
X191100000Y-71900000D01*
X191100000Y-75900000D01*
G37*
%TD.AperFunction*%
%TO.N,Net-(JP1-B)*%
X166900000Y-74000000D02*
G75*
G02*
X165000000Y-75900000I-1900000J0D01*
G01*
X165000000Y-75900000D02*
X162800000Y-75900000D01*
X162700000Y-72000000D01*
X166900000Y-72000000D01*
X166900000Y-74000000D01*
X165000000Y-75900000D01*
%TA.AperFunction,Conductor*%
G36*
X166900000Y-74000000D02*
G01*
X165000000Y-75900000D01*
X162800000Y-75900000D01*
X162700000Y-72000000D01*
X166900000Y-72000000D01*
X166900000Y-74000000D01*
G37*
%TD.AperFunction*%
%TO.N,GND*%
X165000000Y-94100000D02*
G75*
G02*
X166900000Y-96000000I0J-1900000D01*
G01*
X166900000Y-96000000D02*
X166900000Y-98300000D01*
X162800000Y-98300000D01*
X162800000Y-94100000D01*
X165100000Y-94100000D01*
X166900000Y-96000000D01*
%TA.AperFunction,Conductor*%
G36*
X166900000Y-96000000D02*
G01*
X166900000Y-98300000D01*
X162800000Y-98300000D01*
X162800000Y-94100000D01*
X165100000Y-94100000D01*
X166900000Y-96000000D01*
G37*
%TD.AperFunction*%
%TO.N,Net-(JP1-B)*%
X187100000Y-96000000D02*
G75*
G02*
X189000000Y-94100000I1900000J0D01*
G01*
X187100000Y-96000000D02*
X187100000Y-98300000D01*
X191100000Y-98300000D01*
X191100000Y-94100000D01*
X189000000Y-94100000D01*
X187100000Y-96000000D01*
%TA.AperFunction,Conductor*%
G36*
X191100000Y-98300000D02*
G01*
X187100000Y-98300000D01*
X187100000Y-96000000D01*
X189000000Y-94100000D01*
X191100000Y-94100000D01*
X191100000Y-98300000D01*
G37*
%TD.AperFunction*%
%TD*%
D11*
%TO.P,H1,1,1_1*%
%TO.N,Net-(JP1-B)*%
X165000000Y-74000000D03*
%TD*%
%TO.P,H4,1,1_1*%
%TO.N,GND*%
X165000000Y-96000000D03*
%TD*%
%TO.P,H2,1,1_1*%
%TO.N,Net-(JP1-B)*%
X189000000Y-96000000D03*
%TD*%
%TO.P,H3,1,1_1*%
%TO.N,GND*%
X189000000Y-74000000D03*
%TD*%
D12*
%TO.P,SW1,*%
%TO.N,*%
X173850000Y-94920000D03*
X173850000Y-97130000D03*
X181150000Y-94920000D03*
X181150000Y-97130000D03*
D13*
%TO.P,SW1,1,C_1*%
%TO.N,unconnected-(SW1-C-Pad1)*%
X175250000Y-94270000D03*
%TO.P,SW1,2,B_2*%
%TO.N,VCC*%
X178250000Y-94270000D03*
%TO.P,SW1,3,A_3*%
%TO.N,Net-(JP1-B)*%
X179750000Y-94270000D03*
%TD*%
D14*
%TO.P,BT1,1,+_1*%
%TO.N,VCC*%
X165095000Y-82500000D03*
X188905000Y-82500000D03*
D15*
%TO.P,BT1,2,-_2*%
%TO.N,GND*%
X177000000Y-82500000D03*
%TD*%
D16*
%TO.N,VCC*%
X178250000Y-94270000D03*
%TO.N,GND*%
X177200000Y-86500000D03*
X175400000Y-78700000D03*
X180200000Y-79900000D03*
X178400000Y-80500000D03*
X177200000Y-83500000D03*
X176600000Y-83500000D03*
X179000000Y-80500000D03*
X174200000Y-81700000D03*
X179000000Y-78700000D03*
X176000000Y-81100000D03*
X175400000Y-82300000D03*
X182000000Y-81700000D03*
X180800000Y-83500000D03*
X176000000Y-78100000D03*
X180200000Y-84100000D03*
X173600000Y-87100000D03*
X172400000Y-82300000D03*
X179600000Y-81700000D03*
X179000000Y-79900000D03*
X179000000Y-82300000D03*
X179600000Y-83500000D03*
X175400000Y-79900000D03*
X177800000Y-82900000D03*
X179000000Y-79300000D03*
X177800000Y-87100000D03*
X176600000Y-84100000D03*
X172400000Y-82900000D03*
X177200000Y-84100000D03*
X176600000Y-77500000D03*
X177800000Y-84700000D03*
X173600000Y-79900000D03*
X178400000Y-83500000D03*
X173000000Y-85300000D03*
X181400000Y-82900000D03*
X176000000Y-83500000D03*
X180200000Y-84700000D03*
X173600000Y-84200000D03*
X177800000Y-77500000D03*
X177800000Y-82300000D03*
X173000000Y-80500000D03*
X174800000Y-87700000D03*
X179600000Y-87700000D03*
X180800000Y-79900000D03*
X180200000Y-87100000D03*
X176600000Y-86500000D03*
X180800000Y-86500000D03*
X174800000Y-82300000D03*
X177200000Y-82900000D03*
X176600000Y-84700000D03*
X181400000Y-83500000D03*
X178400000Y-82300000D03*
X178400000Y-87700000D03*
X178400000Y-85300000D03*
X177800000Y-81700000D03*
X175400000Y-83500000D03*
X175400000Y-80500000D03*
X173600000Y-84800000D03*
X177800000Y-83500000D03*
X176600000Y-85300000D03*
X178400000Y-78100000D03*
X176600000Y-82300000D03*
X174200000Y-87700000D03*
X177200000Y-82300000D03*
X176000000Y-82300000D03*
X176000000Y-82900000D03*
X174800000Y-83500000D03*
X173000000Y-83500000D03*
X173000000Y-86500000D03*
X179000000Y-83500000D03*
X180800000Y-85300000D03*
X174800000Y-79900000D03*
X176000000Y-80500000D03*
X177200000Y-77500000D03*
X180800000Y-85900000D03*
X180200000Y-83500000D03*
X175400000Y-79300000D03*
X181400000Y-80500000D03*
X182000000Y-82900000D03*
X176000000Y-84100000D03*
X175400000Y-84700000D03*
X177200000Y-85900000D03*
X179000000Y-87700000D03*
X173000000Y-85900000D03*
X172400000Y-81100000D03*
X179600000Y-79900000D03*
X178400000Y-82900000D03*
X178400000Y-81100000D03*
X178400000Y-84700000D03*
X182000000Y-81100000D03*
X182000000Y-82300000D03*
X175400000Y-82900000D03*
X177200000Y-81700000D03*
X177200000Y-80500000D03*
X175400000Y-87700000D03*
X177800000Y-84100000D03*
X173000000Y-82900000D03*
X173600000Y-83500000D03*
X179600000Y-84100000D03*
X176000000Y-87100000D03*
X176600000Y-82900000D03*
X174200000Y-84200000D03*
X177200000Y-79900000D03*
X175400000Y-85300000D03*
X174200000Y-83500000D03*
X172400000Y-81700000D03*
X177200000Y-81100000D03*
X176600000Y-85900000D03*
X174200000Y-79900000D03*
%TD*%
%TO.N,VCC*%
D10*
X186000000Y-89000000D02*
X188000000Y-89000000D01*
X189000000Y-82305000D02*
X189000000Y-88000000D01*
X166000000Y-89000000D02*
X168000000Y-89000000D01*
X165000000Y-82500000D02*
X165000000Y-88000000D01*
%TD*%
%TA.AperFunction,Conductor*%
%TO.N,Net-(JP1-B)*%
G36*
X189253755Y-89098210D02*
G01*
X189255310Y-89098139D01*
X189257161Y-89099211D01*
X189297839Y-89111159D01*
X189343589Y-89163966D01*
X189354752Y-89218579D01*
X189353425Y-89271466D01*
X189352246Y-89285691D01*
X189341307Y-89363171D01*
X189338503Y-89377160D01*
X189333146Y-89397676D01*
X189331745Y-89412139D01*
X189332524Y-89415169D01*
X189331860Y-89424440D01*
X189329425Y-89446690D01*
X189329203Y-89448580D01*
X189328956Y-89450556D01*
X189328696Y-89452514D01*
X189325576Y-89474609D01*
X189320122Y-89486629D01*
X189320340Y-89522114D01*
X189319605Y-89536368D01*
X189311115Y-89613914D01*
X189308751Y-89627975D01*
X189301769Y-89658604D01*
X189303959Y-89666126D01*
X189303584Y-89675473D01*
X189301841Y-89697809D01*
X189301683Y-89699652D01*
X189301503Y-89701576D01*
X189301305Y-89703522D01*
X189298869Y-89725771D01*
X189293793Y-89737957D01*
X189295117Y-89773426D01*
X189294827Y-89787697D01*
X189288774Y-89865275D01*
X189286846Y-89879422D01*
X189280821Y-89910236D01*
X189283250Y-89917716D01*
X189283165Y-89927022D01*
X189282117Y-89949435D01*
X189282009Y-89951402D01*
X189281889Y-89953316D01*
X189281756Y-89955202D01*
X189280019Y-89977467D01*
X189275327Y-89989801D01*
X189277752Y-90025211D01*
X189277907Y-90039471D01*
X189274278Y-90117111D01*
X189272792Y-90131305D01*
X189267732Y-90162286D01*
X189270391Y-90169675D01*
X189270597Y-90179014D01*
X189270248Y-90201389D01*
X189270204Y-90203270D01*
X189270145Y-90205187D01*
X189270069Y-90207159D01*
X189269025Y-90229506D01*
X189264711Y-90242006D01*
X189268243Y-90277307D01*
X189268844Y-90291582D01*
X189267635Y-90369210D01*
X189266593Y-90383434D01*
X189262502Y-90414567D01*
X189265386Y-90421863D01*
X189265882Y-90431177D01*
X189266231Y-90453578D01*
X189266246Y-90455510D01*
X189266246Y-90457441D01*
X189266231Y-90459372D01*
X189265883Y-90481715D01*
X189261965Y-90494327D01*
X189266592Y-90529517D01*
X189267635Y-90543751D01*
X189268844Y-90621377D01*
X189268244Y-90635641D01*
X189265121Y-90666876D01*
X189268236Y-90674089D01*
X189269022Y-90683388D01*
X189270069Y-90705789D01*
X189270145Y-90707763D01*
X189270204Y-90709680D01*
X189270248Y-90711562D01*
X189270596Y-90733880D01*
X189267068Y-90746624D01*
X189272791Y-90781640D01*
X189274279Y-90795850D01*
X189277907Y-90873483D01*
X189277752Y-90887742D01*
X189275607Y-90919064D01*
X189278942Y-90926173D01*
X189280015Y-90935428D01*
X189281758Y-90957761D01*
X189281895Y-90959707D01*
X189282012Y-90961587D01*
X189282115Y-90963493D01*
X189283161Y-90985847D01*
X189280031Y-90998700D01*
X189286843Y-91033520D01*
X189288774Y-91047680D01*
X189294828Y-91125269D01*
X189295118Y-91139522D01*
X189293950Y-91170917D01*
X189297504Y-91177917D01*
X189298863Y-91187125D01*
X189301303Y-91209411D01*
X189301503Y-91211382D01*
X189301684Y-91213321D01*
X189301845Y-91215197D01*
X189303582Y-91237451D01*
X189300857Y-91250378D01*
X189308750Y-91284975D01*
X189311119Y-91299060D01*
X189319605Y-91376571D01*
X189320340Y-91390834D01*
X189320145Y-91422239D01*
X189323925Y-91429145D01*
X189325567Y-91438288D01*
X189328703Y-91460505D01*
X189328959Y-91462424D01*
X189329201Y-91464356D01*
X189329425Y-91466272D01*
X189331849Y-91488412D01*
X189329528Y-91501420D01*
X189338502Y-91535781D01*
X189341308Y-91549780D01*
X189352246Y-91627258D01*
X189353425Y-91641480D01*
X189354213Y-91672886D01*
X189358203Y-91679664D01*
X189360130Y-91688755D01*
X189363952Y-91710825D01*
X189364263Y-91712703D01*
X189364569Y-91714647D01*
X189364860Y-91716597D01*
X189367972Y-91738644D01*
X189366056Y-91751725D01*
X189376098Y-91785774D01*
X189379343Y-91799689D01*
X189392749Y-91877094D01*
X189394371Y-91891268D01*
X189396142Y-91922650D01*
X189400337Y-91929293D01*
X189402547Y-91938315D01*
X189407065Y-91960289D01*
X189407443Y-91962203D01*
X189407799Y-91964084D01*
X189408143Y-91965984D01*
X189411945Y-91987938D01*
X189410440Y-92001062D01*
X189421538Y-92034773D01*
X189425216Y-92048575D01*
X189441118Y-92125922D01*
X189443180Y-92140021D01*
X189445936Y-92171343D01*
X189450326Y-92177829D01*
X189452832Y-92186823D01*
X189458016Y-92208563D01*
X189458451Y-92210452D01*
X189458875Y-92212362D01*
X189459282Y-92214266D01*
X189463771Y-92236102D01*
X189462678Y-92249262D01*
X189474825Y-92282601D01*
X189478936Y-92296287D01*
X189497876Y-92375709D01*
X189499333Y-92382711D01*
X189500575Y-92389678D01*
X189501024Y-92392698D01*
X189501359Y-92394500D01*
X189516323Y-92453167D01*
X189516543Y-92454042D01*
X189516774Y-92454976D01*
X189517019Y-92455983D01*
X189528331Y-92503420D01*
X189531060Y-92514861D01*
X189531597Y-92516601D01*
X189532597Y-92519462D01*
X189534751Y-92526249D01*
X189536714Y-92533113D01*
X190195678Y-95116682D01*
X190197273Y-95123802D01*
X190199225Y-95133905D01*
X190199230Y-95133928D01*
X190213134Y-95185618D01*
X190214003Y-95189044D01*
X190214832Y-95192518D01*
X190215612Y-95196009D01*
X190217146Y-95203372D01*
X190216135Y-95215945D01*
X190228761Y-95249644D01*
X190229980Y-95252689D01*
X190231018Y-95255373D01*
X190231132Y-95255679D01*
X190231871Y-95257458D01*
X190232145Y-95258122D01*
X190232406Y-95258761D01*
X190232732Y-95259569D01*
X190233383Y-95261196D01*
X190233390Y-95261210D01*
X190258715Y-95304977D01*
X190260441Y-95308062D01*
X190262110Y-95311146D01*
X190263762Y-95314305D01*
X190313843Y-95413559D01*
X190315618Y-95417226D01*
X190317326Y-95420907D01*
X190318966Y-95424600D01*
X190341432Y-95477499D01*
X190360356Y-95522062D01*
X190361918Y-95525920D01*
X190363426Y-95529831D01*
X190364864Y-95533755D01*
X190366920Y-95539674D01*
X190366922Y-95539682D01*
X190392553Y-95613486D01*
X190397732Y-95628399D01*
X190399062Y-95632453D01*
X190400320Y-95636522D01*
X190401509Y-95640614D01*
X190426497Y-95732517D01*
X190427560Y-95736715D01*
X190428551Y-95740937D01*
X190429467Y-95745173D01*
X190447121Y-95834273D01*
X190447896Y-95838580D01*
X190448600Y-95842934D01*
X190449225Y-95847287D01*
X190460084Y-95933817D01*
X190460557Y-95938223D01*
X190460950Y-95942622D01*
X190461265Y-95947024D01*
X190465766Y-96031066D01*
X190465924Y-96035518D01*
X190466002Y-96039954D01*
X190466001Y-96044382D01*
X190464520Y-96126064D01*
X190464358Y-96130529D01*
X190464119Y-96134937D01*
X190463801Y-96139351D01*
X190456647Y-96218755D01*
X190456169Y-96223173D01*
X190455612Y-96227581D01*
X190454978Y-96231965D01*
X190442406Y-96309173D01*
X190441620Y-96313514D01*
X190440755Y-96317848D01*
X190439812Y-96322168D01*
X190422019Y-96397261D01*
X190420929Y-96401522D01*
X190419766Y-96405755D01*
X190418533Y-96409952D01*
X190395689Y-96482919D01*
X190394317Y-96487046D01*
X190392861Y-96491182D01*
X190391344Y-96495261D01*
X190363596Y-96566048D01*
X190361959Y-96570021D01*
X190360247Y-96573979D01*
X190358460Y-96577920D01*
X190325911Y-96646500D01*
X190324016Y-96650322D01*
X190322063Y-96654096D01*
X190320032Y-96657861D01*
X190317573Y-96662237D01*
X190283202Y-96723389D01*
X190283124Y-96723526D01*
X190283108Y-96723556D01*
X190282748Y-96724194D01*
X190280715Y-96727664D01*
X190278514Y-96731285D01*
X190276250Y-96734870D01*
X190234511Y-96798528D01*
X190232144Y-96802008D01*
X190229743Y-96805412D01*
X190227271Y-96808793D01*
X190181199Y-96869640D01*
X190178630Y-96872918D01*
X190175975Y-96876190D01*
X190173293Y-96879384D01*
X190123009Y-96937262D01*
X190120259Y-96940323D01*
X190117429Y-96943370D01*
X190114541Y-96946377D01*
X190060218Y-97001058D01*
X190057256Y-97003942D01*
X190054241Y-97006781D01*
X190051199Y-97009551D01*
X189993009Y-97060810D01*
X189989886Y-97063470D01*
X189986708Y-97066088D01*
X189983484Y-97068656D01*
X189923263Y-97114993D01*
X189916576Y-97119793D01*
X189915240Y-97120685D01*
X189913925Y-97121674D01*
X189908416Y-97125581D01*
X189846284Y-97167148D01*
X189842809Y-97169389D01*
X189839327Y-97171554D01*
X189835830Y-97173650D01*
X189767260Y-97213220D01*
X189763662Y-97215218D01*
X189760100Y-97217119D01*
X189760036Y-97217153D01*
X189756383Y-97219025D01*
X189728201Y-97232886D01*
X189728192Y-97232890D01*
X189684649Y-97254302D01*
X189680918Y-97256060D01*
X189677187Y-97257743D01*
X189673408Y-97259373D01*
X189598808Y-97290087D01*
X189594962Y-97291596D01*
X189591080Y-97293045D01*
X189587180Y-97294427D01*
X189509823Y-97320395D01*
X189505847Y-97321656D01*
X189501866Y-97322845D01*
X189497893Y-97323960D01*
X189450896Y-97336309D01*
X189417890Y-97344981D01*
X189413842Y-97345972D01*
X189409790Y-97346892D01*
X189405730Y-97347743D01*
X189323198Y-97363599D01*
X189319097Y-97364316D01*
X189314964Y-97364967D01*
X189310822Y-97365548D01*
X189225805Y-97376015D01*
X189221658Y-97376455D01*
X189217483Y-97376827D01*
X189213306Y-97377128D01*
X189125870Y-97381950D01*
X189121706Y-97382109D01*
X189117518Y-97382199D01*
X189113330Y-97382219D01*
X189023437Y-97381114D01*
X189019260Y-97380992D01*
X189015110Y-97380801D01*
X189010962Y-97380540D01*
X188976435Y-97377789D01*
X188962096Y-97375798D01*
X188956261Y-97374638D01*
X188956260Y-97374638D01*
X188932263Y-97369864D01*
X188924575Y-97372327D01*
X188915025Y-97372192D01*
X188891535Y-97370954D01*
X188889842Y-97370853D01*
X188888171Y-97370742D01*
X188886538Y-97370623D01*
X188863088Y-97368754D01*
X188850423Y-97363912D01*
X188815965Y-97366127D01*
X188801487Y-97366210D01*
X187606177Y-97303228D01*
X187598693Y-97302606D01*
X187592072Y-97301853D01*
X187527456Y-97299072D01*
X187526802Y-97299042D01*
X187526202Y-97299013D01*
X187525663Y-97298986D01*
X187460986Y-97295577D01*
X187454299Y-97295695D01*
X187446794Y-97295599D01*
X186477180Y-97253851D01*
X186470277Y-97253361D01*
X186463380Y-97252677D01*
X186456505Y-97251800D01*
X186456397Y-97251783D01*
X186397093Y-97250367D01*
X186395954Y-97250334D01*
X186394684Y-97250292D01*
X186393450Y-97250245D01*
X186334283Y-97247697D01*
X186334270Y-97247698D01*
X186334147Y-97247709D01*
X186327240Y-97248124D01*
X186320341Y-97248345D01*
X186313424Y-97248373D01*
X185343006Y-97225235D01*
X185336087Y-97224876D01*
X185329190Y-97224325D01*
X185322317Y-97223583D01*
X185322273Y-97223576D01*
X185322197Y-97223566D01*
X185262804Y-97223289D01*
X185261645Y-97223278D01*
X185260507Y-97223261D01*
X185259362Y-97223240D01*
X185226645Y-97222460D01*
X185211105Y-97222090D01*
X185211101Y-97222089D01*
X185200036Y-97221827D01*
X185200033Y-97221827D01*
X185200032Y-97221827D01*
X185200028Y-97221827D01*
X185200002Y-97221827D01*
X185199862Y-97221843D01*
X185193005Y-97222386D01*
X185186113Y-97222739D01*
X185179194Y-97222900D01*
X184208500Y-97218388D01*
X184201576Y-97218162D01*
X184194694Y-97217745D01*
X184187770Y-97217130D01*
X184187676Y-97217119D01*
X184187674Y-97217119D01*
X184182268Y-97217197D01*
X184128328Y-97217982D01*
X184127228Y-97217992D01*
X184126016Y-97217999D01*
X184124900Y-97217999D01*
X184070277Y-97217746D01*
X184069839Y-97217744D01*
X184069838Y-97217743D01*
X184065677Y-97217724D01*
X184065495Y-97217724D01*
X184065494Y-97217724D01*
X184065486Y-97217724D01*
X184065485Y-97217724D01*
X184065437Y-97217730D01*
X184065371Y-97217738D01*
X184058483Y-97218418D01*
X184051570Y-97218905D01*
X184044678Y-97219198D01*
X183074232Y-97233312D01*
X183066717Y-97233193D01*
X183060127Y-97232889D01*
X183060124Y-97232889D01*
X183060123Y-97232889D01*
X183054713Y-97233019D01*
X182995455Y-97234447D01*
X182994992Y-97234457D01*
X182994255Y-97234472D01*
X182993537Y-97234485D01*
X182928811Y-97235427D01*
X182922228Y-97235986D01*
X182914733Y-97236394D01*
X182295312Y-97251331D01*
X182260265Y-97247151D01*
X182245162Y-97243109D01*
X182185492Y-97206763D01*
X182184786Y-97205986D01*
X182155699Y-97150386D01*
X182153658Y-97141517D01*
X182150499Y-97113708D01*
X182150499Y-96682122D01*
X182150339Y-96680197D01*
X182150112Y-96678538D01*
X182148360Y-96662240D01*
X182144091Y-96622517D01*
X182139095Y-96609123D01*
X182127457Y-96577920D01*
X182093798Y-96487673D01*
X182093797Y-96487671D01*
X182093795Y-96487668D01*
X182093793Y-96487664D01*
X182007547Y-96372455D01*
X182007544Y-96372452D01*
X182007542Y-96372450D01*
X181934603Y-96317848D01*
X181892335Y-96286206D01*
X181892332Y-96286204D01*
X181892330Y-96286203D01*
X181892328Y-96286202D01*
X181842844Y-96267746D01*
X181807497Y-96241284D01*
X181705583Y-96230328D01*
X181700742Y-96229500D01*
X181697881Y-96229500D01*
X181697873Y-96229500D01*
X181697864Y-96229500D01*
X180602129Y-96229500D01*
X180602123Y-96229500D01*
X180600664Y-96229620D01*
X180598545Y-96229885D01*
X180542516Y-96235908D01*
X180457152Y-96267747D01*
X180407666Y-96286204D01*
X180407665Y-96286205D01*
X180292456Y-96372450D01*
X180292450Y-96372456D01*
X180206205Y-96487665D01*
X180206203Y-96487668D01*
X180155908Y-96622516D01*
X180149500Y-96682125D01*
X180149500Y-97164199D01*
X180144475Y-97199143D01*
X180140070Y-97214141D01*
X180102301Y-97272907D01*
X180100330Y-97274615D01*
X180046958Y-97301741D01*
X180044521Y-97302302D01*
X180040757Y-97303168D01*
X180015918Y-97306296D01*
X178772432Y-97336281D01*
X178772067Y-97336289D01*
X178771500Y-97336301D01*
X178771117Y-97336309D01*
X178632609Y-97338813D01*
X178565225Y-97320343D01*
X178518523Y-97268375D01*
X178506368Y-97214676D01*
X178506379Y-97206736D01*
X178506932Y-96769401D01*
X178526702Y-96702387D01*
X178579563Y-96656699D01*
X178648734Y-96646844D01*
X178678381Y-96654997D01*
X178790063Y-96701257D01*
X178794493Y-96703352D01*
X178795225Y-96703493D01*
X178795879Y-96703621D01*
X178839957Y-96712389D01*
X178931002Y-96730500D01*
X179068995Y-96730500D01*
X179068996Y-96730500D01*
X179114518Y-96721444D01*
X179160041Y-96712389D01*
X179204328Y-96703580D01*
X179304139Y-96662237D01*
X179325270Y-96653484D01*
X179328057Y-96652512D01*
X179329502Y-96651844D01*
X179334162Y-96649801D01*
X179343422Y-96645965D01*
X179352307Y-96637079D01*
X179446542Y-96574114D01*
X179544114Y-96476542D01*
X179620775Y-96361811D01*
X179673580Y-96234328D01*
X179690808Y-96147718D01*
X179700500Y-96098995D01*
X179700500Y-95961004D01*
X179700500Y-95961001D01*
X179673341Y-95824469D01*
X179671250Y-95820048D01*
X179668779Y-95814081D01*
X179668779Y-95814080D01*
X179620781Y-95698201D01*
X179620776Y-95698192D01*
X179620771Y-95698182D01*
X179544114Y-95583458D01*
X179544111Y-95583454D01*
X179543316Y-95582537D01*
X179541957Y-95580581D01*
X179541469Y-95579930D01*
X179541492Y-95579912D01*
X179528158Y-95560716D01*
X179515166Y-95536923D01*
X179510847Y-95520000D01*
X180000000Y-95520000D01*
X180094615Y-95520000D01*
X180129550Y-95525022D01*
X180151371Y-95531430D01*
X180200920Y-95559643D01*
X180203580Y-95562119D01*
X180218360Y-95578571D01*
X180253095Y-95624970D01*
X180253095Y-95624971D01*
X180275514Y-95654919D01*
X180275515Y-95654919D01*
X180292452Y-95677544D01*
X180292454Y-95677545D01*
X180292455Y-95677547D01*
X180407664Y-95763793D01*
X180407671Y-95763797D01*
X180457155Y-95782253D01*
X180492513Y-95808721D01*
X180549444Y-95814835D01*
X180549443Y-95814839D01*
X180549458Y-95814836D01*
X180602127Y-95820500D01*
X181697872Y-95820499D01*
X181757483Y-95814091D01*
X181892331Y-95763796D01*
X182007546Y-95677546D01*
X182093796Y-95562331D01*
X182144091Y-95427483D01*
X182150500Y-95367873D01*
X182150499Y-94472128D01*
X182144091Y-94412517D01*
X182093796Y-94277669D01*
X182093795Y-94277668D01*
X182093793Y-94277664D01*
X182093778Y-94277623D01*
X182093199Y-94276703D01*
X182092249Y-94275164D01*
X182091397Y-94273937D01*
X182091391Y-94273928D01*
X182088489Y-94270579D01*
X182007547Y-94162455D01*
X182007544Y-94162452D01*
X182007542Y-94162450D01*
X181949616Y-94119086D01*
X181892335Y-94076206D01*
X181892332Y-94076204D01*
X181892330Y-94076203D01*
X181892328Y-94076202D01*
X181842844Y-94057746D01*
X181807497Y-94031284D01*
X181705583Y-94020328D01*
X181700742Y-94019500D01*
X181697881Y-94019500D01*
X181697873Y-94019500D01*
X181697865Y-94019500D01*
X180741830Y-94019500D01*
X180706889Y-94014475D01*
X180691890Y-94010070D01*
X180633144Y-93972327D01*
X180631957Y-93970958D01*
X180604477Y-93916083D01*
X180602832Y-93908521D01*
X180600000Y-93882168D01*
X180600000Y-93472172D01*
X180599998Y-93472138D01*
X180593598Y-93412628D01*
X180593596Y-93412621D01*
X180593596Y-93412620D01*
X180543354Y-93277913D01*
X180543350Y-93277906D01*
X180457190Y-93162812D01*
X180457187Y-93162809D01*
X180457185Y-93162807D01*
X180349186Y-93081959D01*
X180342093Y-93076649D01*
X180342088Y-93076646D01*
X180342089Y-93076646D01*
X180207377Y-93026402D01*
X180207370Y-93026400D01*
X180147852Y-93020000D01*
X180147844Y-93020000D01*
X180000000Y-93020000D01*
X180000000Y-95520000D01*
X179510847Y-95520000D01*
X179500000Y-95477499D01*
X179500000Y-93020000D01*
X179352155Y-93020000D01*
X179352146Y-93020000D01*
X179292628Y-93026400D01*
X179292621Y-93026402D01*
X179157912Y-93076645D01*
X179153893Y-93079228D01*
X179150814Y-93081959D01*
X179120190Y-93104884D01*
X179089217Y-93121797D01*
X179077325Y-93126233D01*
X179007633Y-93131220D01*
X178946309Y-93097738D01*
X178913844Y-93040739D01*
X178912722Y-93036345D01*
X178909927Y-92989483D01*
X178918029Y-92927938D01*
X178921189Y-92912054D01*
X178925366Y-92896466D01*
X178930573Y-92881125D01*
X178951775Y-92829940D01*
X178958938Y-92815414D01*
X178967013Y-92801427D01*
X178976007Y-92787969D01*
X179009740Y-92744006D01*
X179018148Y-92734420D01*
X179018442Y-92733852D01*
X179018855Y-92733613D01*
X179020419Y-92731830D01*
X179031830Y-92720419D01*
X179044006Y-92709740D01*
X179087969Y-92676007D01*
X179101429Y-92667012D01*
X179115407Y-92658941D01*
X179129937Y-92651776D01*
X179181122Y-92630574D01*
X179196464Y-92625366D01*
X179212060Y-92621187D01*
X179227940Y-92618029D01*
X179295033Y-92609196D01*
X179303074Y-92608404D01*
X179311204Y-92607871D01*
X179319287Y-92607607D01*
X179386276Y-92607607D01*
X179388160Y-92607549D01*
X179388161Y-92607595D01*
X179392126Y-92607468D01*
X184000606Y-92600500D01*
X184114470Y-92600500D01*
X184341079Y-92567918D01*
X184509912Y-92518345D01*
X184556513Y-92504662D01*
X184562306Y-92503183D01*
X184567021Y-92501327D01*
X184583060Y-92495980D01*
X184590614Y-92489778D01*
X184768997Y-92408313D01*
X184790485Y-92394504D01*
X184838662Y-92363540D01*
X184838665Y-92363540D01*
X184961588Y-92284543D01*
X184961588Y-92284542D01*
X184961594Y-92284539D01*
X185134615Y-92134615D01*
X185284539Y-91961594D01*
X185401768Y-91779182D01*
X185405897Y-91772755D01*
X185407151Y-91770951D01*
X185407181Y-91770903D01*
X185408238Y-91769190D01*
X185408741Y-91768059D01*
X185503419Y-91560746D01*
X185512705Y-91529122D01*
X185548903Y-91405839D01*
X185567918Y-91341079D01*
X185600500Y-91114470D01*
X185600500Y-91000000D01*
X185600500Y-90966309D01*
X185600500Y-90012180D01*
X185600764Y-90004097D01*
X185601297Y-89995967D01*
X185602090Y-89987923D01*
X185610922Y-89920833D01*
X185614080Y-89904956D01*
X185618261Y-89889350D01*
X185623466Y-89874019D01*
X185636093Y-89843536D01*
X185644667Y-89822835D01*
X185651840Y-89808291D01*
X185659903Y-89794326D01*
X185668900Y-89780862D01*
X185702633Y-89736899D01*
X185713312Y-89724723D01*
X185724723Y-89713312D01*
X185736899Y-89702633D01*
X185780862Y-89668900D01*
X185794322Y-89659905D01*
X185808300Y-89651834D01*
X185822830Y-89644669D01*
X185874015Y-89623467D01*
X185889357Y-89618259D01*
X185904953Y-89614080D01*
X185920833Y-89610922D01*
X185987926Y-89602089D01*
X185995967Y-89601297D01*
X186004097Y-89600764D01*
X186012180Y-89600500D01*
X188114469Y-89600500D01*
X188114470Y-89600500D01*
X188341079Y-89567918D01*
X188520470Y-89515245D01*
X188556513Y-89504662D01*
X188562306Y-89503183D01*
X188567021Y-89501327D01*
X188583060Y-89495980D01*
X188590614Y-89489778D01*
X188768997Y-89408313D01*
X188806884Y-89383965D01*
X188852471Y-89354668D01*
X188961594Y-89284539D01*
X189134615Y-89134615D01*
X189134618Y-89134612D01*
X189137742Y-89131488D01*
X189138352Y-89132097D01*
X189158872Y-89114290D01*
X189163763Y-89111146D01*
X189177368Y-89107153D01*
X189185515Y-89101369D01*
X189199237Y-89100733D01*
X189230801Y-89091469D01*
X189253755Y-89098210D01*
G37*
%TD.AperFunction*%
%TD*%
%TA.AperFunction,Conductor*%
%TO.N,GND*%
G36*
X164817282Y-89086700D02*
G01*
X164843814Y-89109721D01*
X164865384Y-89134615D01*
X165038406Y-89284539D01*
X165038412Y-89284543D01*
X165230986Y-89408303D01*
X165230996Y-89408308D01*
X165231003Y-89408313D01*
X165398515Y-89484814D01*
X165439256Y-89503420D01*
X165439262Y-89503422D01*
X165591480Y-89548116D01*
X165658921Y-89567918D01*
X165885530Y-89600500D01*
X165920943Y-89600500D01*
X167927087Y-89600500D01*
X167991873Y-89600500D01*
X168008059Y-89601561D01*
X168087213Y-89611982D01*
X168118480Y-89620360D01*
X168184666Y-89647775D01*
X168212700Y-89663961D01*
X168269537Y-89707574D01*
X168292425Y-89730462D01*
X168336038Y-89787299D01*
X168352224Y-89815333D01*
X168379639Y-89881519D01*
X168388017Y-89912785D01*
X168398439Y-89991940D01*
X168399500Y-90008127D01*
X168399500Y-90966309D01*
X168399500Y-91000000D01*
X168399500Y-91114470D01*
X168406166Y-91160829D01*
X168432081Y-91341077D01*
X168432082Y-91341081D01*
X168496577Y-91560737D01*
X168496579Y-91560743D01*
X168591686Y-91768995D01*
X168591696Y-91769013D01*
X168715456Y-91961587D01*
X168715460Y-91961593D01*
X168865384Y-92134615D01*
X169038406Y-92284539D01*
X169038412Y-92284543D01*
X169230986Y-92408303D01*
X169230996Y-92408308D01*
X169231003Y-92408313D01*
X169406053Y-92488256D01*
X169439256Y-92503420D01*
X169439262Y-92503422D01*
X169624939Y-92557940D01*
X169658921Y-92567918D01*
X169885530Y-92600500D01*
X169920943Y-92600500D01*
X177227087Y-92600500D01*
X177291873Y-92600500D01*
X177308058Y-92601560D01*
X177385002Y-92611691D01*
X177387213Y-92611982D01*
X177418480Y-92620360D01*
X177484666Y-92647775D01*
X177512700Y-92663961D01*
X177569537Y-92707574D01*
X177592425Y-92730462D01*
X177636038Y-92787299D01*
X177652224Y-92815333D01*
X177679639Y-92881519D01*
X177688017Y-92912785D01*
X177695406Y-92968903D01*
X177684641Y-93037938D01*
X177646778Y-93084356D01*
X177542455Y-93162452D01*
X177542452Y-93162455D01*
X177456206Y-93277664D01*
X177456202Y-93277671D01*
X177405908Y-93412517D01*
X177399501Y-93472116D01*
X177399501Y-93472123D01*
X177399500Y-93472135D01*
X177399500Y-95067870D01*
X177399501Y-95067876D01*
X177405908Y-95127483D01*
X177456202Y-95262328D01*
X177456206Y-95262335D01*
X177542452Y-95377544D01*
X177542455Y-95377547D01*
X177657664Y-95463793D01*
X177657671Y-95463797D01*
X177675091Y-95470294D01*
X177792517Y-95514091D01*
X177852127Y-95520500D01*
X177878856Y-95520499D01*
X177945893Y-95540181D01*
X177991650Y-95592984D01*
X178002857Y-95644656D01*
X178000850Y-97228617D01*
X177981080Y-97295632D01*
X177928219Y-97341320D01*
X177879113Y-97352439D01*
X177877250Y-97352473D01*
X177875734Y-97352492D01*
X176983553Y-97357869D01*
X176982059Y-97357869D01*
X176089876Y-97352492D01*
X176088381Y-97352474D01*
X175194240Y-97336305D01*
X175193493Y-97336289D01*
X174971510Y-97330936D01*
X174904964Y-97309641D01*
X174860496Y-97255749D01*
X174850499Y-97206972D01*
X174850499Y-96682129D01*
X174850498Y-96682123D01*
X174850497Y-96682116D01*
X174844091Y-96622517D01*
X174839095Y-96609123D01*
X174793797Y-96487671D01*
X174793793Y-96487664D01*
X174707547Y-96372455D01*
X174707544Y-96372452D01*
X174592335Y-96286206D01*
X174592328Y-96286202D01*
X174457482Y-96235908D01*
X174457483Y-96235908D01*
X174397883Y-96229501D01*
X174397881Y-96229500D01*
X174397873Y-96229500D01*
X174397864Y-96229500D01*
X173302129Y-96229500D01*
X173302123Y-96229501D01*
X173242516Y-96235908D01*
X173107671Y-96286202D01*
X173107664Y-96286206D01*
X172992455Y-96372452D01*
X172992452Y-96372455D01*
X172906206Y-96487664D01*
X172906202Y-96487671D01*
X172855908Y-96622517D01*
X172849501Y-96682116D01*
X172849501Y-96682123D01*
X172849500Y-96682135D01*
X172849500Y-97152739D01*
X172829815Y-97219778D01*
X172777011Y-97265533D01*
X172722511Y-97276703D01*
X171047125Y-97236304D01*
X171036808Y-97235427D01*
X170971749Y-97234481D01*
X170970565Y-97234458D01*
X170905507Y-97232889D01*
X170895140Y-97233367D01*
X169917605Y-97219155D01*
X169903814Y-97218184D01*
X169900252Y-97217732D01*
X169900250Y-97217732D01*
X169899241Y-97217736D01*
X169840338Y-97218010D01*
X169837963Y-97217998D01*
X169778068Y-97217127D01*
X169774505Y-97217544D01*
X169760701Y-97218380D01*
X168783217Y-97222926D01*
X168769398Y-97222218D01*
X168765845Y-97221836D01*
X168765844Y-97221836D01*
X168705979Y-97223262D01*
X168703607Y-97223296D01*
X168643681Y-97223576D01*
X168640131Y-97224060D01*
X168626340Y-97225161D01*
X167649125Y-97248461D01*
X167635288Y-97248018D01*
X167631718Y-97247703D01*
X167571905Y-97250278D01*
X167569532Y-97250358D01*
X167509616Y-97251788D01*
X167506065Y-97252342D01*
X167492295Y-97253707D01*
X166515579Y-97295761D01*
X166505266Y-97295579D01*
X166440193Y-97299001D01*
X166439018Y-97299057D01*
X166374019Y-97301856D01*
X166363771Y-97303021D01*
X165510563Y-97347900D01*
X165504050Y-97348071D01*
X165453572Y-97348071D01*
X165445516Y-97349131D01*
X165445450Y-97348634D01*
X165444705Y-97348745D01*
X165444788Y-97349241D01*
X165432280Y-97351317D01*
X165429202Y-97352068D01*
X165428383Y-97352220D01*
X165385987Y-97366003D01*
X165379745Y-97367852D01*
X165326284Y-97382177D01*
X165318771Y-97385289D01*
X165318405Y-97384405D01*
X165301783Y-97391233D01*
X165260987Y-97401919D01*
X165257732Y-97402569D01*
X165256256Y-97403060D01*
X165207403Y-97413827D01*
X165202639Y-97414779D01*
X165153425Y-97423620D01*
X165148627Y-97424386D01*
X165115052Y-97429068D01*
X165099119Y-97431289D01*
X165094304Y-97431865D01*
X165044545Y-97436824D01*
X165039698Y-97437211D01*
X164989736Y-97440218D01*
X164984868Y-97440415D01*
X164936858Y-97441415D01*
X164931166Y-97441403D01*
X164864432Y-97439729D01*
X164858225Y-97439417D01*
X164793913Y-97434571D01*
X164787747Y-97433952D01*
X164724544Y-97425998D01*
X164718441Y-97425075D01*
X164656375Y-97414103D01*
X164650348Y-97412882D01*
X164589434Y-97398968D01*
X164583503Y-97397459D01*
X164523747Y-97380668D01*
X164517934Y-97378879D01*
X164459428Y-97359297D01*
X164453734Y-97357236D01*
X164396462Y-97334902D01*
X164390915Y-97332582D01*
X164335032Y-97307605D01*
X164329626Y-97305030D01*
X164275114Y-97277435D01*
X164269869Y-97274620D01*
X164248562Y-97262516D01*
X164216839Y-97244494D01*
X164211763Y-97241448D01*
X164203638Y-97236304D01*
X164160317Y-97208876D01*
X164155406Y-97205600D01*
X164105598Y-97170637D01*
X164100866Y-97167146D01*
X164052809Y-97129890D01*
X164048256Y-97126184D01*
X164002001Y-97086682D01*
X163997667Y-97082800D01*
X163953337Y-97041163D01*
X163949183Y-97037072D01*
X163906872Y-96993388D01*
X163902897Y-96989085D01*
X163871091Y-96952980D01*
X163862710Y-96943467D01*
X163858973Y-96939017D01*
X163820947Y-96891494D01*
X163817404Y-96886844D01*
X163781653Y-96837538D01*
X163778304Y-96832679D01*
X163744954Y-96781750D01*
X163741833Y-96776726D01*
X163736030Y-96766868D01*
X163710886Y-96724148D01*
X163707998Y-96718959D01*
X163679576Y-96664888D01*
X163676919Y-96659524D01*
X163651075Y-96604006D01*
X163648670Y-96598492D01*
X163625477Y-96541609D01*
X163623330Y-96535953D01*
X163602835Y-96477711D01*
X163600968Y-96471959D01*
X163583256Y-96412448D01*
X163581661Y-96406559D01*
X163566799Y-96345805D01*
X163565504Y-96339878D01*
X163553572Y-96277942D01*
X163552556Y-96271857D01*
X163551035Y-96261102D01*
X163543633Y-96208772D01*
X163542924Y-96202664D01*
X163537089Y-96138389D01*
X163536685Y-96132248D01*
X163534760Y-96084658D01*
X163534935Y-96071398D01*
X163540212Y-95992554D01*
X163540481Y-95989245D01*
X163550288Y-95886070D01*
X163550643Y-95882820D01*
X163556121Y-95838258D01*
X163556456Y-95835752D01*
X163563035Y-95790454D01*
X163563502Y-95787502D01*
X163570866Y-95744308D01*
X163571466Y-95741052D01*
X163579680Y-95699719D01*
X163580433Y-95696212D01*
X163589493Y-95656836D01*
X163590442Y-95653001D01*
X163600358Y-95615556D01*
X163601520Y-95611459D01*
X163612316Y-95575819D01*
X163613747Y-95571400D01*
X163614165Y-95570188D01*
X163625403Y-95537581D01*
X163627091Y-95532986D01*
X163639712Y-95500645D01*
X163641682Y-95495894D01*
X163655261Y-95465022D01*
X163657572Y-95460069D01*
X163672214Y-95430415D01*
X163674852Y-95425368D01*
X163694554Y-95389691D01*
X163695865Y-95387380D01*
X163701580Y-95377547D01*
X163725546Y-95336311D01*
X163725548Y-95336301D01*
X163727608Y-95331370D01*
X163727681Y-95331217D01*
X163727727Y-95331081D01*
X163729687Y-95326082D01*
X163729687Y-95326079D01*
X163729689Y-95326077D01*
X163743906Y-95268670D01*
X163744560Y-95266145D01*
X163959750Y-94472135D01*
X172849500Y-94472135D01*
X172849500Y-95367870D01*
X172849501Y-95367876D01*
X172855908Y-95427483D01*
X172906202Y-95562328D01*
X172906206Y-95562335D01*
X172992452Y-95677544D01*
X172992455Y-95677547D01*
X173107664Y-95763793D01*
X173107671Y-95763797D01*
X173242517Y-95814091D01*
X173242516Y-95814091D01*
X173249444Y-95814835D01*
X173302127Y-95820500D01*
X174397872Y-95820499D01*
X174457483Y-95814091D01*
X174592331Y-95763796D01*
X174707546Y-95677546D01*
X174787915Y-95570185D01*
X174843847Y-95528317D01*
X174887174Y-95520499D01*
X175267321Y-95520499D01*
X175334359Y-95540184D01*
X175380114Y-95592988D01*
X175390058Y-95662146D01*
X175380271Y-95692027D01*
X175381556Y-95692560D01*
X175326421Y-95825667D01*
X175326418Y-95825677D01*
X175299500Y-95961004D01*
X175299500Y-95961007D01*
X175299500Y-96098993D01*
X175299500Y-96098995D01*
X175299499Y-96098995D01*
X175326418Y-96234322D01*
X175326421Y-96234332D01*
X175379221Y-96361804D01*
X175379228Y-96361817D01*
X175455885Y-96476541D01*
X175455888Y-96476545D01*
X175553454Y-96574111D01*
X175553458Y-96574114D01*
X175668182Y-96650771D01*
X175668195Y-96650778D01*
X175795667Y-96703578D01*
X175795672Y-96703580D01*
X175795676Y-96703580D01*
X175795677Y-96703581D01*
X175931004Y-96730500D01*
X175931007Y-96730500D01*
X176068995Y-96730500D01*
X176160041Y-96712389D01*
X176204328Y-96703580D01*
X176331811Y-96650775D01*
X176446542Y-96574114D01*
X176544114Y-96476542D01*
X176620775Y-96361811D01*
X176673580Y-96234328D01*
X176693891Y-96132220D01*
X176700500Y-96098995D01*
X176700500Y-95961004D01*
X176673581Y-95825677D01*
X176673580Y-95825676D01*
X176673580Y-95825672D01*
X176657770Y-95787502D01*
X176620778Y-95698195D01*
X176620771Y-95698182D01*
X176544114Y-95583458D01*
X176544111Y-95583454D01*
X176446545Y-95485888D01*
X176446541Y-95485885D01*
X176331817Y-95409228D01*
X176331804Y-95409221D01*
X176204332Y-95356421D01*
X176204323Y-95356419D01*
X176165123Y-95348621D01*
X176103213Y-95316235D01*
X176068639Y-95255519D01*
X176072380Y-95185750D01*
X176073112Y-95183729D01*
X176094091Y-95127483D01*
X176100500Y-95067873D01*
X176100499Y-93472128D01*
X176094091Y-93412517D01*
X176043796Y-93277669D01*
X176043795Y-93277668D01*
X176043793Y-93277664D01*
X175957547Y-93162455D01*
X175957544Y-93162452D01*
X175842335Y-93076206D01*
X175842328Y-93076202D01*
X175707482Y-93025908D01*
X175707483Y-93025908D01*
X175647883Y-93019501D01*
X175647881Y-93019500D01*
X175647873Y-93019500D01*
X175647864Y-93019500D01*
X174852129Y-93019500D01*
X174852123Y-93019501D01*
X174792516Y-93025908D01*
X174657671Y-93076202D01*
X174657664Y-93076206D01*
X174542455Y-93162452D01*
X174542452Y-93162455D01*
X174456206Y-93277664D01*
X174456202Y-93277671D01*
X174405908Y-93412517D01*
X174399501Y-93472116D01*
X174399501Y-93472123D01*
X174399500Y-93472135D01*
X174399500Y-93895500D01*
X174379815Y-93962539D01*
X174327011Y-94008294D01*
X174275500Y-94019500D01*
X173302129Y-94019500D01*
X173302123Y-94019501D01*
X173242516Y-94025908D01*
X173107671Y-94076202D01*
X173107664Y-94076206D01*
X172992455Y-94162452D01*
X172992452Y-94162455D01*
X172906206Y-94277664D01*
X172906202Y-94277671D01*
X172855908Y-94412517D01*
X172849501Y-94472116D01*
X172849500Y-94472135D01*
X163959750Y-94472135D01*
X164423235Y-92761969D01*
X164427728Y-92748505D01*
X164428359Y-92746918D01*
X164428367Y-92746905D01*
X164443317Y-92687930D01*
X164443824Y-92686000D01*
X164459718Y-92627359D01*
X164459718Y-92627347D01*
X164459948Y-92625642D01*
X164462641Y-92611708D01*
X164489508Y-92505733D01*
X164494584Y-92492382D01*
X164494062Y-92492194D01*
X164496823Y-92484547D01*
X164496823Y-92484546D01*
X164496826Y-92484541D01*
X164508759Y-92430067D01*
X164509663Y-92426241D01*
X164523365Y-92372197D01*
X164523365Y-92372193D01*
X164524316Y-92364132D01*
X164524863Y-92364196D01*
X164526306Y-92349970D01*
X164540639Y-92284543D01*
X164549960Y-92241990D01*
X164554597Y-92228477D01*
X164554068Y-92228306D01*
X164556576Y-92220579D01*
X164556579Y-92220575D01*
X164566729Y-92165748D01*
X164567528Y-92161798D01*
X164573484Y-92134615D01*
X164579446Y-92107401D01*
X164579446Y-92107400D01*
X164580134Y-92099302D01*
X164580688Y-92099349D01*
X164581663Y-92085098D01*
X164601710Y-91976831D01*
X164605898Y-91963189D01*
X164605362Y-91963034D01*
X164607615Y-91955233D01*
X164607621Y-91955222D01*
X164615988Y-91900063D01*
X164616637Y-91896207D01*
X164626797Y-91841341D01*
X164626796Y-91841334D01*
X164627220Y-91833225D01*
X164627776Y-91833254D01*
X164628287Y-91818979D01*
X164644747Y-91710481D01*
X164648489Y-91696709D01*
X164647949Y-91696572D01*
X164649951Y-91688696D01*
X164654711Y-91648554D01*
X164656520Y-91633297D01*
X164657045Y-91629407D01*
X164665416Y-91574235D01*
X164665416Y-91574231D01*
X164665576Y-91566108D01*
X164666133Y-91566118D01*
X164666181Y-91551845D01*
X164679073Y-91443151D01*
X164682362Y-91429272D01*
X164681817Y-91429152D01*
X164683559Y-91421226D01*
X164683563Y-91421216D01*
X164688331Y-91365633D01*
X164688734Y-91361687D01*
X164695305Y-91306293D01*
X164695303Y-91306285D01*
X164695200Y-91298159D01*
X164695760Y-91298151D01*
X164695344Y-91283900D01*
X164704682Y-91175060D01*
X164707522Y-91161089D01*
X164706970Y-91160987D01*
X164708457Y-91152996D01*
X164708457Y-91152994D01*
X164708458Y-91152992D01*
X164711421Y-91097287D01*
X164711699Y-91093290D01*
X164712221Y-91087214D01*
X164716466Y-91037739D01*
X164716466Y-91037738D01*
X164716098Y-91029617D01*
X164716658Y-91029591D01*
X164715779Y-91015366D01*
X164721575Y-90906410D01*
X164723960Y-90892359D01*
X164723403Y-90892274D01*
X164724630Y-90884240D01*
X164724632Y-90884235D01*
X164725787Y-90828445D01*
X164725930Y-90824542D01*
X164728898Y-90768779D01*
X164728897Y-90768777D01*
X164728898Y-90768774D01*
X164728267Y-90760676D01*
X164728827Y-90760632D01*
X164727486Y-90746441D01*
X164729745Y-90637429D01*
X164731670Y-90623299D01*
X164731113Y-90623233D01*
X164732078Y-90615169D01*
X164732080Y-90615165D01*
X164731426Y-90559378D01*
X164731443Y-90555431D01*
X164732601Y-90499626D01*
X164732600Y-90499622D01*
X164731707Y-90491550D01*
X164732265Y-90491488D01*
X164730466Y-90477350D01*
X164729190Y-90368324D01*
X164730658Y-90354146D01*
X164730098Y-90354098D01*
X164730803Y-90345995D01*
X164729488Y-90316218D01*
X164728341Y-90290259D01*
X164728231Y-90286330D01*
X164727578Y-90230501D01*
X164727577Y-90230497D01*
X164726422Y-90222454D01*
X164726977Y-90222374D01*
X164724721Y-90208297D01*
X164719909Y-90099301D01*
X164720914Y-90085080D01*
X164720355Y-90085050D01*
X164720795Y-90076940D01*
X164720797Y-90076933D01*
X164716528Y-90021303D01*
X164716288Y-90017305D01*
X164716169Y-90014615D01*
X164713829Y-89961613D01*
X164713829Y-89961612D01*
X164712414Y-89953609D01*
X164712964Y-89953511D01*
X164710253Y-89939510D01*
X164701896Y-89830581D01*
X164702441Y-89816338D01*
X164701882Y-89816326D01*
X164702059Y-89808198D01*
X164697898Y-89770196D01*
X164695993Y-89752792D01*
X164695620Y-89748790D01*
X164694214Y-89730462D01*
X164691354Y-89693174D01*
X164691353Y-89693171D01*
X164689679Y-89685216D01*
X164690226Y-89685100D01*
X164687061Y-89671196D01*
X164675149Y-89562381D01*
X164675232Y-89548116D01*
X164674673Y-89548122D01*
X164674587Y-89539998D01*
X164674587Y-89539997D01*
X164666715Y-89484754D01*
X164666224Y-89480856D01*
X164660154Y-89425401D01*
X164660152Y-89425397D01*
X164658222Y-89417506D01*
X164658764Y-89417373D01*
X164655147Y-89403568D01*
X164639666Y-89294921D01*
X164639286Y-89280652D01*
X164638728Y-89280677D01*
X164638377Y-89272561D01*
X164638378Y-89272554D01*
X164628713Y-89217597D01*
X164628102Y-89213753D01*
X164627339Y-89208401D01*
X164637377Y-89139260D01*
X164683203Y-89086518D01*
X164750269Y-89066924D01*
X164817282Y-89086700D01*
G37*
%TD.AperFunction*%
%TA.AperFunction,Conductor*%
G36*
X189322092Y-72461005D02*
G01*
X189331721Y-72461522D01*
X189401658Y-72468013D01*
X189411336Y-72469298D01*
X189477308Y-72480713D01*
X189486865Y-72482758D01*
X189549563Y-72498794D01*
X189558865Y-72501568D01*
X189593321Y-72513332D01*
X189618799Y-72522031D01*
X189627770Y-72525488D01*
X189685487Y-72550341D01*
X189693973Y-72554384D01*
X189732572Y-72574607D01*
X189749847Y-72583658D01*
X189757810Y-72588213D01*
X189812065Y-72621973D01*
X189819438Y-72626936D01*
X189872182Y-72665256D01*
X189878941Y-72670533D01*
X189930173Y-72713464D01*
X189936322Y-72718975D01*
X189978209Y-72759113D01*
X189985929Y-72766510D01*
X189991460Y-72772160D01*
X190039244Y-72824208D01*
X190044193Y-72829944D01*
X190061421Y-72851197D01*
X190089919Y-72886354D01*
X190094368Y-72892187D01*
X190137760Y-72952713D01*
X190141719Y-72958582D01*
X190182524Y-73022965D01*
X190186024Y-73028840D01*
X190224011Y-73096794D01*
X190227089Y-73102663D01*
X190261961Y-73173727D01*
X190264647Y-73179581D01*
X190296215Y-73253418D01*
X190298554Y-73259301D01*
X190326582Y-73335387D01*
X190328589Y-73341287D01*
X190352923Y-73419209D01*
X190354614Y-73425141D01*
X190375102Y-73504406D01*
X190376492Y-73510388D01*
X190393008Y-73590462D01*
X190394100Y-73596514D01*
X190406562Y-73676896D01*
X190407358Y-73683040D01*
X190415715Y-73763233D01*
X190416208Y-73769494D01*
X190420438Y-73848956D01*
X190420613Y-73855356D01*
X190420734Y-73933574D01*
X190420570Y-73940134D01*
X190416638Y-74016595D01*
X190416107Y-74023338D01*
X190408216Y-74097551D01*
X190407280Y-74104488D01*
X190395562Y-74176013D01*
X190394177Y-74183149D01*
X190378815Y-74251519D01*
X190376927Y-74258863D01*
X190358121Y-74323729D01*
X190355674Y-74331261D01*
X190345431Y-74359669D01*
X190336173Y-74379602D01*
X190331013Y-74388539D01*
X190331010Y-74388547D01*
X190329074Y-74395771D01*
X190320848Y-74417830D01*
X190318411Y-74422846D01*
X190315377Y-74438596D01*
X190310266Y-74457193D01*
X190304226Y-74473941D01*
X190303358Y-74484224D01*
X190299575Y-74505868D01*
X190296905Y-74515833D01*
X190296905Y-74522623D01*
X190294665Y-74546086D01*
X190090945Y-75603303D01*
X190087525Y-75616877D01*
X190086730Y-75619415D01*
X190076367Y-75678855D01*
X190075971Y-75681016D01*
X190064549Y-75740296D01*
X190064392Y-75742935D01*
X190062769Y-75756851D01*
X190010987Y-76053873D01*
X190006798Y-76068146D01*
X190007202Y-76068257D01*
X190005051Y-76076095D01*
X189997581Y-76130315D01*
X189996900Y-76134682D01*
X189987499Y-76188617D01*
X189987160Y-76196742D01*
X189986741Y-76196724D01*
X189986385Y-76211598D01*
X189944932Y-76512526D01*
X189941252Y-76526940D01*
X189941663Y-76527037D01*
X189939792Y-76534951D01*
X189934260Y-76589414D01*
X189933735Y-76593802D01*
X189926264Y-76648041D01*
X189926216Y-76656171D01*
X189925794Y-76656168D01*
X189925970Y-76671046D01*
X189895307Y-76972964D01*
X189892145Y-76987501D01*
X189892557Y-76987583D01*
X189890971Y-76995550D01*
X189887381Y-77050214D01*
X189887014Y-77054611D01*
X189881485Y-77109069D01*
X189881726Y-77117196D01*
X189881305Y-77117208D01*
X189882009Y-77132052D01*
X189862140Y-77434734D01*
X189859498Y-77449370D01*
X189859914Y-77449438D01*
X189858612Y-77457459D01*
X189856974Y-77512202D01*
X189856764Y-77516611D01*
X189853178Y-77571249D01*
X189853709Y-77579355D01*
X189853288Y-77579382D01*
X189854523Y-77594197D01*
X189845453Y-77897386D01*
X189843336Y-77912107D01*
X189843753Y-77912160D01*
X189842738Y-77920224D01*
X189843053Y-77974992D01*
X189843000Y-77979408D01*
X189841364Y-78034138D01*
X189842183Y-78042223D01*
X189841764Y-78042265D01*
X189843524Y-78057021D01*
X189845270Y-78360491D01*
X189843678Y-78375278D01*
X189844097Y-78375316D01*
X189843371Y-78383407D01*
X189845637Y-78438122D01*
X189845741Y-78442537D01*
X189846057Y-78497292D01*
X189847164Y-78505343D01*
X189846747Y-78505400D01*
X189849034Y-78520093D01*
X189861611Y-78823595D01*
X189860546Y-78838438D01*
X189860966Y-78838461D01*
X189860528Y-78846575D01*
X189864745Y-78901156D01*
X189865007Y-78905568D01*
X189867275Y-78960275D01*
X189868668Y-78968275D01*
X189868254Y-78968346D01*
X189871066Y-78982956D01*
X189879023Y-79085948D01*
X189864560Y-79154305D01*
X189815438Y-79203991D01*
X189755391Y-79219500D01*
X187557129Y-79219500D01*
X187557123Y-79219501D01*
X187497516Y-79225908D01*
X187362671Y-79276202D01*
X187362664Y-79276206D01*
X187247455Y-79362452D01*
X187247452Y-79362455D01*
X187161206Y-79477664D01*
X187161202Y-79477671D01*
X187110908Y-79612517D01*
X187104623Y-79670980D01*
X187104501Y-79672123D01*
X187104500Y-79672135D01*
X187104500Y-85327870D01*
X187104501Y-85327876D01*
X187110908Y-85387483D01*
X187161202Y-85522328D01*
X187161206Y-85522335D01*
X187247452Y-85637544D01*
X187247455Y-85637547D01*
X187362664Y-85723793D01*
X187362671Y-85723797D01*
X187497517Y-85774091D01*
X187497516Y-85774091D01*
X187504444Y-85774835D01*
X187557127Y-85780500D01*
X188275500Y-85780499D01*
X188342539Y-85800183D01*
X188388294Y-85852987D01*
X188399500Y-85904499D01*
X188399500Y-87991872D01*
X188398439Y-88008059D01*
X188388017Y-88087214D01*
X188379639Y-88118480D01*
X188352224Y-88184666D01*
X188336038Y-88212700D01*
X188292425Y-88269537D01*
X188269537Y-88292425D01*
X188212700Y-88336038D01*
X188184666Y-88352224D01*
X188118480Y-88379639D01*
X188087214Y-88388017D01*
X188019380Y-88396948D01*
X188008057Y-88398439D01*
X187991873Y-88399500D01*
X186000000Y-88399500D01*
X185885530Y-88399500D01*
X185852949Y-88404184D01*
X185658922Y-88432081D01*
X185658918Y-88432082D01*
X185439262Y-88496577D01*
X185439256Y-88496579D01*
X185231004Y-88591686D01*
X185230986Y-88591696D01*
X185038412Y-88715456D01*
X185038406Y-88715460D01*
X184865384Y-88865384D01*
X184715460Y-89038406D01*
X184715456Y-89038412D01*
X184591696Y-89230986D01*
X184591686Y-89231004D01*
X184496579Y-89439256D01*
X184496577Y-89439262D01*
X184432082Y-89658918D01*
X184432081Y-89658922D01*
X184399500Y-89885531D01*
X184399500Y-90991872D01*
X184398439Y-91008059D01*
X184388017Y-91087214D01*
X184379639Y-91118480D01*
X184352224Y-91184666D01*
X184336038Y-91212700D01*
X184292425Y-91269537D01*
X184269537Y-91292425D01*
X184212700Y-91336038D01*
X184184666Y-91352224D01*
X184118480Y-91379639D01*
X184087214Y-91388017D01*
X184023934Y-91396348D01*
X184008055Y-91398439D01*
X183991872Y-91399500D01*
X183920774Y-91399500D01*
X183918780Y-91399621D01*
X180689588Y-91404504D01*
X180622518Y-91384921D01*
X180576684Y-91332186D01*
X180566636Y-91263043D01*
X180595564Y-91199443D01*
X180641947Y-91165943D01*
X180881527Y-91066705D01*
X181433503Y-90794501D01*
X181966488Y-90486782D01*
X181966513Y-90486766D01*
X182478225Y-90144851D01*
X182966485Y-89770196D01*
X183429207Y-89364400D01*
X183470027Y-89323579D01*
X177000000Y-82853553D01*
X170529972Y-89323579D01*
X170570793Y-89364400D01*
X171033514Y-89770196D01*
X171521774Y-90144851D01*
X172033486Y-90486766D01*
X172033511Y-90486782D01*
X172566496Y-90794501D01*
X173118472Y-91066705D01*
X173345971Y-91160939D01*
X173400374Y-91204780D01*
X173422439Y-91271074D01*
X173405160Y-91338774D01*
X173354022Y-91386384D01*
X173298518Y-91399500D01*
X170008127Y-91399500D01*
X169991942Y-91398439D01*
X169978855Y-91396716D01*
X169912785Y-91388017D01*
X169881519Y-91379639D01*
X169815333Y-91352224D01*
X169787299Y-91336038D01*
X169730462Y-91292425D01*
X169707574Y-91269537D01*
X169663961Y-91212700D01*
X169647775Y-91184666D01*
X169620360Y-91118480D01*
X169611982Y-91087212D01*
X169601561Y-91008057D01*
X169600500Y-90991872D01*
X169600500Y-89885531D01*
X169590552Y-89816338D01*
X169567918Y-89658921D01*
X169535385Y-89548122D01*
X169503422Y-89439262D01*
X169503420Y-89439256D01*
X169431049Y-89280788D01*
X169408313Y-89231003D01*
X169408308Y-89230996D01*
X169408303Y-89230986D01*
X169284543Y-89038412D01*
X169284539Y-89038406D01*
X169134615Y-88865384D01*
X168961593Y-88715460D01*
X168961587Y-88715456D01*
X168769013Y-88591696D01*
X168768995Y-88591686D01*
X168560743Y-88496579D01*
X168560737Y-88496577D01*
X168341081Y-88432082D01*
X168341077Y-88432081D01*
X168179632Y-88408869D01*
X168114470Y-88399500D01*
X168114468Y-88399500D01*
X166008127Y-88399500D01*
X165991942Y-88398439D01*
X165978855Y-88396716D01*
X165912785Y-88388017D01*
X165881519Y-88379639D01*
X165815333Y-88352224D01*
X165787299Y-88336038D01*
X165730462Y-88292425D01*
X165707574Y-88269537D01*
X165663961Y-88212700D01*
X165647775Y-88184666D01*
X165620360Y-88118480D01*
X165611982Y-88087212D01*
X165601561Y-88008057D01*
X165600500Y-87991872D01*
X165600500Y-85904499D01*
X165620185Y-85837460D01*
X165672989Y-85791705D01*
X165724500Y-85780499D01*
X166442871Y-85780499D01*
X166442872Y-85780499D01*
X166502483Y-85774091D01*
X166637331Y-85723796D01*
X166752546Y-85637546D01*
X166838796Y-85522331D01*
X166889091Y-85387483D01*
X166895500Y-85327873D01*
X166895499Y-82192287D01*
X167600000Y-82192287D01*
X167600000Y-82807712D01*
X167640252Y-83421860D01*
X167720583Y-84032036D01*
X167720585Y-84032047D01*
X167840646Y-84635636D01*
X167840650Y-84635654D01*
X167999942Y-85230139D01*
X167999944Y-85230147D01*
X168197770Y-85812921D01*
X168197774Y-85812932D01*
X168433294Y-86381527D01*
X168705498Y-86933503D01*
X169013217Y-87466488D01*
X169013233Y-87466513D01*
X169355148Y-87978225D01*
X169729803Y-88466485D01*
X170135606Y-88929214D01*
X170176419Y-88970027D01*
X176646446Y-82500000D01*
X176646446Y-82499999D01*
X177353553Y-82499999D01*
X177353553Y-82500000D01*
X183823579Y-88970027D01*
X183823580Y-88970027D01*
X183864400Y-88929207D01*
X184270196Y-88466485D01*
X184644851Y-87978225D01*
X184986766Y-87466513D01*
X184986782Y-87466488D01*
X185294501Y-86933503D01*
X185566705Y-86381527D01*
X185802225Y-85812932D01*
X185802229Y-85812921D01*
X186000055Y-85230147D01*
X186000057Y-85230139D01*
X186159349Y-84635654D01*
X186159353Y-84635636D01*
X186279414Y-84032047D01*
X186279416Y-84032036D01*
X186359747Y-83421860D01*
X186400000Y-82807712D01*
X186400000Y-82192287D01*
X186359747Y-81578139D01*
X186279416Y-80967963D01*
X186279414Y-80967952D01*
X186159353Y-80364363D01*
X186159349Y-80364345D01*
X186000057Y-79769860D01*
X186000055Y-79769852D01*
X185802229Y-79187078D01*
X185802225Y-79187067D01*
X185566705Y-78618472D01*
X185294501Y-78066496D01*
X184986782Y-77533511D01*
X184986766Y-77533486D01*
X184644851Y-77021774D01*
X184270196Y-76533514D01*
X183864393Y-76070785D01*
X183823580Y-76029972D01*
X177353553Y-82499999D01*
X176646446Y-82499999D01*
X170176419Y-76029972D01*
X170176418Y-76029972D01*
X170135628Y-76070762D01*
X170135601Y-76070791D01*
X169729803Y-76533514D01*
X169355148Y-77021774D01*
X169013233Y-77533486D01*
X169013217Y-77533511D01*
X168705498Y-78066496D01*
X168433294Y-78618472D01*
X168197774Y-79187067D01*
X168197770Y-79187078D01*
X167999944Y-79769852D01*
X167999942Y-79769860D01*
X167840650Y-80364345D01*
X167840646Y-80364363D01*
X167720585Y-80967952D01*
X167720583Y-80967963D01*
X167640252Y-81578139D01*
X167600000Y-82192287D01*
X166895499Y-82192287D01*
X166895499Y-79672128D01*
X166889091Y-79612517D01*
X166838796Y-79477669D01*
X166838795Y-79477668D01*
X166838793Y-79477664D01*
X166752547Y-79362455D01*
X166752544Y-79362452D01*
X166637335Y-79276206D01*
X166637328Y-79276202D01*
X166502482Y-79225908D01*
X166502483Y-79225908D01*
X166442883Y-79219501D01*
X166442881Y-79219500D01*
X166442873Y-79219500D01*
X166442865Y-79219500D01*
X164175755Y-79219500D01*
X164108716Y-79199815D01*
X164062961Y-79147011D01*
X164051853Y-79090563D01*
X164059401Y-78901156D01*
X164066434Y-78724649D01*
X164068665Y-78710256D01*
X164068178Y-78710189D01*
X164069285Y-78702137D01*
X164069286Y-78702135D01*
X164069605Y-78646847D01*
X164069699Y-78642714D01*
X164071903Y-78587436D01*
X164071902Y-78587430D01*
X164071164Y-78579343D01*
X164071652Y-78579298D01*
X164070081Y-78564820D01*
X164070789Y-78442537D01*
X164072378Y-78167840D01*
X164074120Y-78153387D01*
X164073629Y-78153337D01*
X164074462Y-78145249D01*
X164074463Y-78145246D01*
X164072900Y-78089958D01*
X164072854Y-78085755D01*
X164072966Y-78066496D01*
X164073175Y-78030516D01*
X164073173Y-78030508D01*
X164072160Y-78022448D01*
X164072649Y-78022386D01*
X164070585Y-78007978D01*
X164059383Y-77611308D01*
X164060631Y-77596800D01*
X164060139Y-77596767D01*
X164060695Y-77588670D01*
X164060697Y-77588661D01*
X164057255Y-77533452D01*
X164057067Y-77529303D01*
X164055507Y-77474040D01*
X164055506Y-77474035D01*
X164054219Y-77466015D01*
X164054704Y-77465937D01*
X164052153Y-77451610D01*
X164027465Y-77055544D01*
X164028219Y-77041012D01*
X164027726Y-77040995D01*
X164028006Y-77032871D01*
X164028008Y-77032864D01*
X164022693Y-76977836D01*
X164022360Y-76973638D01*
X164022318Y-76972964D01*
X164018923Y-76918488D01*
X164018920Y-76918479D01*
X164017362Y-76910512D01*
X164017845Y-76910417D01*
X164014806Y-76896173D01*
X163991712Y-76657039D01*
X163990204Y-76641418D01*
X164003353Y-76572798D01*
X164051515Y-76522179D01*
X164113630Y-76505500D01*
X164999993Y-76505500D01*
X165000000Y-76505500D01*
X165029920Y-76501560D01*
X165046105Y-76500500D01*
X165151254Y-76500500D01*
X165196630Y-76494990D01*
X165451551Y-76464037D01*
X165745266Y-76391643D01*
X165745269Y-76391641D01*
X165745272Y-76391641D01*
X165848007Y-76352678D01*
X166028113Y-76284373D01*
X166295967Y-76143792D01*
X166544924Y-75971950D01*
X166771352Y-75771352D01*
X166798872Y-75740289D01*
X166891593Y-75635628D01*
X166971950Y-75544924D01*
X167143792Y-75295967D01*
X167284373Y-75028113D01*
X167391643Y-74745266D01*
X167464037Y-74451551D01*
X167496627Y-74183149D01*
X167500500Y-74151254D01*
X167500500Y-74046105D01*
X167501561Y-74029919D01*
X167505499Y-74000007D01*
X167505500Y-74000000D01*
X167505500Y-73044127D01*
X167525185Y-72977088D01*
X167577989Y-72931333D01*
X167647147Y-72921389D01*
X167649125Y-72921690D01*
X168652190Y-73083149D01*
X168667549Y-73087398D01*
X168667596Y-73087214D01*
X168675474Y-73089219D01*
X168675477Y-73089219D01*
X168675479Y-73089220D01*
X168728118Y-73095478D01*
X168733167Y-73096184D01*
X168754890Y-73099681D01*
X168785515Y-73104611D01*
X168793637Y-73104844D01*
X168793631Y-73105034D01*
X168809564Y-73105161D01*
X170857079Y-73348598D01*
X170863962Y-73349615D01*
X171098938Y-73391105D01*
X171103524Y-73392004D01*
X171341610Y-73443369D01*
X171346977Y-73444653D01*
X171580610Y-73506097D01*
X171586646Y-73507851D01*
X171816399Y-73581007D01*
X171823017Y-73583323D01*
X172049655Y-73669915D01*
X172056638Y-73672831D01*
X172281098Y-73774753D01*
X172288282Y-73778299D01*
X172511623Y-73897673D01*
X172518753Y-73901794D01*
X172622747Y-73966629D01*
X172669220Y-74018797D01*
X172680111Y-74087813D01*
X172651962Y-74151761D01*
X172611989Y-74183063D01*
X172566496Y-74205498D01*
X172033511Y-74513217D01*
X172033486Y-74513233D01*
X171521774Y-74855148D01*
X171033514Y-75229803D01*
X170570791Y-75635601D01*
X170570762Y-75635628D01*
X170529972Y-75676417D01*
X170529972Y-75676418D01*
X176999999Y-82146446D01*
X183470027Y-75676419D01*
X183429214Y-75635606D01*
X182966485Y-75229803D01*
X182478225Y-74855148D01*
X181966513Y-74513233D01*
X181966488Y-74513217D01*
X181433503Y-74205498D01*
X181416062Y-74196897D01*
X181364643Y-74149591D01*
X181346963Y-74081995D01*
X181368634Y-74015571D01*
X181403320Y-73981725D01*
X181463538Y-73942582D01*
X181470556Y-73938346D01*
X181693109Y-73813942D01*
X181700241Y-73810255D01*
X181923781Y-73703725D01*
X181930757Y-73700662D01*
X182156336Y-73609834D01*
X182162955Y-73607388D01*
X182391522Y-73530330D01*
X182397664Y-73528436D01*
X182629965Y-73463406D01*
X182635444Y-73462007D01*
X182872195Y-73407327D01*
X182876827Y-73406352D01*
X183118506Y-73360403D01*
X183122379Y-73359731D01*
X183369072Y-73320920D01*
X183372048Y-73320489D01*
X183622867Y-73287253D01*
X183625400Y-73286944D01*
X184149631Y-73228731D01*
X184149960Y-73228789D01*
X184149950Y-73228696D01*
X184311583Y-73211172D01*
X184610160Y-73178800D01*
X184624256Y-73178081D01*
X184626430Y-73178092D01*
X184626438Y-73178094D01*
X184686607Y-73170530D01*
X184688552Y-73170302D01*
X184748844Y-73163766D01*
X184748854Y-73163762D01*
X184750947Y-73163253D01*
X184764836Y-73160695D01*
X184886643Y-73145383D01*
X184900182Y-73144431D01*
X184905169Y-73144353D01*
X184905177Y-73144354D01*
X184963834Y-73135706D01*
X184966323Y-73135366D01*
X185025175Y-73127969D01*
X185025178Y-73127967D01*
X185029999Y-73126706D01*
X185043311Y-73123990D01*
X185166138Y-73105883D01*
X185180130Y-73104656D01*
X185180361Y-73104618D01*
X185180364Y-73104619D01*
X185237184Y-73095477D01*
X185241417Y-73094796D01*
X185242833Y-73094577D01*
X185304101Y-73085546D01*
X185304102Y-73085545D01*
X185304349Y-73085509D01*
X185318056Y-73082465D01*
X188466377Y-72575954D01*
X188488503Y-72574405D01*
X188498756Y-72574608D01*
X188498760Y-72574606D01*
X188498761Y-72574607D01*
X188502644Y-72574174D01*
X188502981Y-72574155D01*
X188504405Y-72573982D01*
X188504749Y-72573917D01*
X188508613Y-72573408D01*
X188508622Y-72573408D01*
X188542192Y-72564412D01*
X188554572Y-72561766D01*
X188586766Y-72556587D01*
X188595054Y-72552872D01*
X188616029Y-72545645D01*
X188650425Y-72537151D01*
X188654306Y-72536260D01*
X188732838Y-72519537D01*
X188736497Y-72518816D01*
X188816401Y-72504332D01*
X188819741Y-72503775D01*
X188901216Y-72491390D01*
X188904329Y-72490958D01*
X188987423Y-72480553D01*
X188990270Y-72480231D01*
X189075238Y-72471660D01*
X189077792Y-72471430D01*
X189164710Y-72464562D01*
X189167006Y-72464404D01*
X189238799Y-72460123D01*
X189247973Y-72459917D01*
X189322092Y-72461005D01*
G37*
%TD.AperFunction*%
%TD*%
M02*
