%TF.GenerationSoftware,KiCad,Pcbnew,10.0.5*%
%TF.CreationDate,2026-08-24T14:15:51+02:00*%
%TF.ProjectId,fs_battery_switch,66735f62-6174-4746-9572-795f73776974,rev?*%
%TF.SameCoordinates,Original*%
%TF.FileFunction,Legend,Top*%
%TF.FilePolarity,Positive*%
%FSLAX46Y46*%
G04 Gerber Fmt 4.6, Leading zero omitted, Abs format (unit mm)*
G04 Created by KiCad (PCBNEW 10.0.5) date 2026-08-24 14:15:51*
%MOMM*%
%LPD*%
G01*
G04 APERTURE LIST*
%ADD10C,0.125000*%
%ADD11C,0.137500*%
%ADD12C,0.120000*%
G04 APERTURE END LIST*
D10*
X170547619Y-96171119D02*
X170738095Y-96171119D01*
X170738095Y-96171119D02*
X170833333Y-96218738D01*
X170833333Y-96218738D02*
X170928571Y-96313976D01*
X170928571Y-96313976D02*
X170976190Y-96504452D01*
X170976190Y-96504452D02*
X170976190Y-96837785D01*
X170976190Y-96837785D02*
X170928571Y-97028261D01*
X170928571Y-97028261D02*
X170833333Y-97123500D01*
X170833333Y-97123500D02*
X170738095Y-97171119D01*
X170738095Y-97171119D02*
X170547619Y-97171119D01*
X170547619Y-97171119D02*
X170452381Y-97123500D01*
X170452381Y-97123500D02*
X170357143Y-97028261D01*
X170357143Y-97028261D02*
X170309524Y-96837785D01*
X170309524Y-96837785D02*
X170309524Y-96504452D01*
X170309524Y-96504452D02*
X170357143Y-96313976D01*
X170357143Y-96313976D02*
X170452381Y-96218738D01*
X170452381Y-96218738D02*
X170547619Y-96171119D01*
X171738095Y-96647309D02*
X171404762Y-96647309D01*
X171404762Y-97171119D02*
X171404762Y-96171119D01*
X171404762Y-96171119D02*
X171880952Y-96171119D01*
X172595238Y-96647309D02*
X172261905Y-96647309D01*
X172261905Y-97171119D02*
X172261905Y-96171119D01*
X172261905Y-96171119D02*
X172738095Y-96171119D01*
X182380952Y-96171119D02*
X182571428Y-96171119D01*
X182571428Y-96171119D02*
X182666666Y-96218738D01*
X182666666Y-96218738D02*
X182761904Y-96313976D01*
X182761904Y-96313976D02*
X182809523Y-96504452D01*
X182809523Y-96504452D02*
X182809523Y-96837785D01*
X182809523Y-96837785D02*
X182761904Y-97028261D01*
X182761904Y-97028261D02*
X182666666Y-97123500D01*
X182666666Y-97123500D02*
X182571428Y-97171119D01*
X182571428Y-97171119D02*
X182380952Y-97171119D01*
X182380952Y-97171119D02*
X182285714Y-97123500D01*
X182285714Y-97123500D02*
X182190476Y-97028261D01*
X182190476Y-97028261D02*
X182142857Y-96837785D01*
X182142857Y-96837785D02*
X182142857Y-96504452D01*
X182142857Y-96504452D02*
X182190476Y-96313976D01*
X182190476Y-96313976D02*
X182285714Y-96218738D01*
X182285714Y-96218738D02*
X182380952Y-96171119D01*
X183238095Y-97171119D02*
X183238095Y-96171119D01*
X183238095Y-96171119D02*
X183809523Y-97171119D01*
X183809523Y-97171119D02*
X183809523Y-96171119D01*
D11*
X184434795Y-94909077D02*
X185471885Y-95427622D01*
X185471885Y-95427622D02*
X184953340Y-94390532D01*
X186360820Y-94390532D02*
X186360820Y-94464610D01*
X186360820Y-94464610D02*
X186286742Y-94612766D01*
X186286742Y-94612766D02*
X186212664Y-94686843D01*
X186212664Y-94686843D02*
X186064508Y-94760921D01*
X186064508Y-94760921D02*
X185916352Y-94760921D01*
X185916352Y-94760921D02*
X185805236Y-94723882D01*
X185805236Y-94723882D02*
X185620041Y-94612766D01*
X185620041Y-94612766D02*
X185508924Y-94501649D01*
X185508924Y-94501649D02*
X185397807Y-94316454D01*
X185397807Y-94316454D02*
X185360768Y-94205337D01*
X185360768Y-94205337D02*
X185360768Y-94057182D01*
X185360768Y-94057182D02*
X185434846Y-93909026D01*
X185434846Y-93909026D02*
X185508924Y-93834948D01*
X185508924Y-93834948D02*
X185657080Y-93760870D01*
X185657080Y-93760870D02*
X185731158Y-93760870D01*
X187138637Y-93612715D02*
X187138637Y-93686792D01*
X187138637Y-93686792D02*
X187064559Y-93834948D01*
X187064559Y-93834948D02*
X186990481Y-93909026D01*
X186990481Y-93909026D02*
X186842326Y-93983104D01*
X186842326Y-93983104D02*
X186694170Y-93983104D01*
X186694170Y-93983104D02*
X186583053Y-93946065D01*
X186583053Y-93946065D02*
X186397858Y-93834948D01*
X186397858Y-93834948D02*
X186286742Y-93723831D01*
X186286742Y-93723831D02*
X186175625Y-93538637D01*
X186175625Y-93538637D02*
X186138586Y-93427520D01*
X186138586Y-93427520D02*
X186138586Y-93279364D01*
X186138586Y-93279364D02*
X186212664Y-93131209D01*
X186212664Y-93131209D02*
X186286742Y-93057131D01*
X186286742Y-93057131D02*
X186434897Y-92983053D01*
X186434897Y-92983053D02*
X186508975Y-92983053D01*
X188064610Y-93427520D02*
X187990532Y-93427520D01*
X187990532Y-93427520D02*
X187805338Y-93390481D01*
X187805338Y-93390481D02*
X187694221Y-93353442D01*
X187694221Y-93353442D02*
X187546065Y-93279364D01*
X187546065Y-93279364D02*
X187323832Y-93131209D01*
X187323832Y-93131209D02*
X187175676Y-92983053D01*
X187175676Y-92983053D02*
X187027520Y-92760819D01*
X187027520Y-92760819D02*
X186953442Y-92612664D01*
X186953442Y-92612664D02*
X186916403Y-92501547D01*
X186916403Y-92501547D02*
X186879364Y-92316352D01*
X186879364Y-92316352D02*
X186879364Y-92242274D01*
X187768298Y-92538586D02*
X188360921Y-91945963D01*
X188360921Y-92538586D02*
X187768298Y-91945963D01*
X189249856Y-92242274D02*
X189249856Y-92168197D01*
X189249856Y-92168197D02*
X189212817Y-91983002D01*
X189212817Y-91983002D02*
X189175778Y-91871885D01*
X189175778Y-91871885D02*
X189101700Y-91723729D01*
X189101700Y-91723729D02*
X188953544Y-91501496D01*
X188953544Y-91501496D02*
X188805389Y-91353340D01*
X188805389Y-91353340D02*
X188583155Y-91205184D01*
X188583155Y-91205184D02*
X188434999Y-91131107D01*
X188434999Y-91131107D02*
X188323883Y-91094068D01*
X188323883Y-91094068D02*
X188138688Y-91057029D01*
X188138688Y-91057029D02*
X188064610Y-91057029D01*
X187651649Y-77633698D02*
X187688688Y-77744814D01*
X187688688Y-77744814D02*
X187799805Y-77855931D01*
X187799805Y-77855931D02*
X187947960Y-77930009D01*
X187947960Y-77930009D02*
X188096116Y-77930009D01*
X188096116Y-77930009D02*
X188207233Y-77892970D01*
X188207233Y-77892970D02*
X188392427Y-77781853D01*
X188392427Y-77781853D02*
X188503544Y-77670737D01*
X188503544Y-77670737D02*
X188614661Y-77485542D01*
X188614661Y-77485542D02*
X188651700Y-77374425D01*
X188651700Y-77374425D02*
X188651700Y-77226269D01*
X188651700Y-77226269D02*
X188577622Y-77078114D01*
X188577622Y-77078114D02*
X188503544Y-77004036D01*
X188503544Y-77004036D02*
X188355388Y-76929958D01*
X188355388Y-76929958D02*
X188281311Y-76929958D01*
X188281311Y-76929958D02*
X188022038Y-77189230D01*
X188022038Y-77189230D02*
X188170194Y-77337386D01*
X188022038Y-76522530D02*
X187244221Y-77300347D01*
X187244221Y-77300347D02*
X187577571Y-76078063D01*
X187577571Y-76078063D02*
X186799754Y-76855880D01*
X187207182Y-75707673D02*
X186429364Y-76485491D01*
X186429364Y-76485491D02*
X186244170Y-76300296D01*
X186244170Y-76300296D02*
X186170092Y-76152140D01*
X186170092Y-76152140D02*
X186170092Y-76003985D01*
X186170092Y-76003985D02*
X186207131Y-75892868D01*
X186207131Y-75892868D02*
X186318247Y-75707673D01*
X186318247Y-75707673D02*
X186429364Y-75596557D01*
X186429364Y-75596557D02*
X186614559Y-75485440D01*
X186614559Y-75485440D02*
X186725676Y-75448401D01*
X186725676Y-75448401D02*
X186873831Y-75448401D01*
X186873831Y-75448401D02*
X187021987Y-75522479D01*
X187021987Y-75522479D02*
X187207182Y-75707673D01*
X186503442Y-74411311D02*
X186503442Y-74485389D01*
X186503442Y-74485389D02*
X186466403Y-74670583D01*
X186466403Y-74670583D02*
X186429364Y-74781700D01*
X186429364Y-74781700D02*
X186355286Y-74929856D01*
X186355286Y-74929856D02*
X186207131Y-75152089D01*
X186207131Y-75152089D02*
X186058975Y-75300245D01*
X186058975Y-75300245D02*
X185836741Y-75448401D01*
X185836741Y-75448401D02*
X185688586Y-75522479D01*
X185688586Y-75522479D02*
X185577469Y-75559518D01*
X185577469Y-75559518D02*
X185392274Y-75596557D01*
X185392274Y-75596557D02*
X185318196Y-75596557D01*
X185614508Y-74707623D02*
X185021885Y-74115000D01*
X185318196Y-73226065D02*
X185244119Y-73226065D01*
X185244119Y-73226065D02*
X185058924Y-73263104D01*
X185058924Y-73263104D02*
X184947807Y-73300143D01*
X184947807Y-73300143D02*
X184799652Y-73374221D01*
X184799652Y-73374221D02*
X184577418Y-73522377D01*
X184577418Y-73522377D02*
X184429262Y-73670532D01*
X184429262Y-73670532D02*
X184281107Y-73892766D01*
X184281107Y-73892766D02*
X184207029Y-74040922D01*
X184207029Y-74040922D02*
X184169990Y-74152039D01*
X184169990Y-74152039D02*
X184132951Y-74337233D01*
X184132951Y-74337233D02*
X184132951Y-74411311D01*
X169915204Y-74440922D02*
X168878114Y-73922377D01*
X168878114Y-73922377D02*
X169396659Y-74959467D01*
X167989179Y-74959467D02*
X167989179Y-74885389D01*
X167989179Y-74885389D02*
X168063257Y-74737233D01*
X168063257Y-74737233D02*
X168137335Y-74663156D01*
X168137335Y-74663156D02*
X168285491Y-74589078D01*
X168285491Y-74589078D02*
X168433647Y-74589078D01*
X168433647Y-74589078D02*
X168544763Y-74626117D01*
X168544763Y-74626117D02*
X168729958Y-74737233D01*
X168729958Y-74737233D02*
X168841075Y-74848350D01*
X168841075Y-74848350D02*
X168952192Y-75033545D01*
X168952192Y-75033545D02*
X168989231Y-75144662D01*
X168989231Y-75144662D02*
X168989231Y-75292817D01*
X168989231Y-75292817D02*
X168915153Y-75440973D01*
X168915153Y-75440973D02*
X168841075Y-75515051D01*
X168841075Y-75515051D02*
X168692919Y-75589129D01*
X168692919Y-75589129D02*
X168618841Y-75589129D01*
X167211362Y-75737284D02*
X167211362Y-75663207D01*
X167211362Y-75663207D02*
X167285440Y-75515051D01*
X167285440Y-75515051D02*
X167359518Y-75440973D01*
X167359518Y-75440973D02*
X167507673Y-75366895D01*
X167507673Y-75366895D02*
X167655829Y-75366895D01*
X167655829Y-75366895D02*
X167766946Y-75403934D01*
X167766946Y-75403934D02*
X167952141Y-75515051D01*
X167952141Y-75515051D02*
X168063257Y-75626168D01*
X168063257Y-75626168D02*
X168174374Y-75811362D01*
X168174374Y-75811362D02*
X168211413Y-75922479D01*
X168211413Y-75922479D02*
X168211413Y-76070635D01*
X168211413Y-76070635D02*
X168137335Y-76218790D01*
X168137335Y-76218790D02*
X168063257Y-76292868D01*
X168063257Y-76292868D02*
X167915102Y-76366946D01*
X167915102Y-76366946D02*
X167841024Y-76366946D01*
X166285389Y-75922479D02*
X166359467Y-75922479D01*
X166359467Y-75922479D02*
X166544661Y-75959518D01*
X166544661Y-75959518D02*
X166655778Y-75996557D01*
X166655778Y-75996557D02*
X166803934Y-76070635D01*
X166803934Y-76070635D02*
X167026167Y-76218790D01*
X167026167Y-76218790D02*
X167174323Y-76366946D01*
X167174323Y-76366946D02*
X167322479Y-76589180D01*
X167322479Y-76589180D02*
X167396557Y-76737335D01*
X167396557Y-76737335D02*
X167433596Y-76848452D01*
X167433596Y-76848452D02*
X167470635Y-77033647D01*
X167470635Y-77033647D02*
X167470635Y-77107725D01*
X166581701Y-76811413D02*
X165989078Y-77404036D01*
X165989078Y-76811413D02*
X166581701Y-77404036D01*
X165100143Y-77107725D02*
X165100143Y-77181802D01*
X165100143Y-77181802D02*
X165137182Y-77366997D01*
X165137182Y-77366997D02*
X165174221Y-77478114D01*
X165174221Y-77478114D02*
X165248299Y-77626270D01*
X165248299Y-77626270D02*
X165396455Y-77848503D01*
X165396455Y-77848503D02*
X165544610Y-77996659D01*
X165544610Y-77996659D02*
X165766844Y-78144815D01*
X165766844Y-78144815D02*
X165915000Y-78218892D01*
X165915000Y-78218892D02*
X166026116Y-78255931D01*
X166026116Y-78255931D02*
X166211311Y-78292970D01*
X166211311Y-78292970D02*
X166285389Y-78292970D01*
X166248350Y-91716301D02*
X166211311Y-91605185D01*
X166211311Y-91605185D02*
X166100194Y-91494068D01*
X166100194Y-91494068D02*
X165952039Y-91419990D01*
X165952039Y-91419990D02*
X165803883Y-91419990D01*
X165803883Y-91419990D02*
X165692766Y-91457029D01*
X165692766Y-91457029D02*
X165507572Y-91568146D01*
X165507572Y-91568146D02*
X165396455Y-91679262D01*
X165396455Y-91679262D02*
X165285338Y-91864457D01*
X165285338Y-91864457D02*
X165248299Y-91975574D01*
X165248299Y-91975574D02*
X165248299Y-92123730D01*
X165248299Y-92123730D02*
X165322377Y-92271885D01*
X165322377Y-92271885D02*
X165396455Y-92345963D01*
X165396455Y-92345963D02*
X165544611Y-92420041D01*
X165544611Y-92420041D02*
X165618688Y-92420041D01*
X165618688Y-92420041D02*
X165877961Y-92160769D01*
X165877961Y-92160769D02*
X165729805Y-92012613D01*
X165877961Y-92827469D02*
X166655778Y-92049652D01*
X166655778Y-92049652D02*
X166322428Y-93271936D01*
X166322428Y-93271936D02*
X167100245Y-92494119D01*
X166692817Y-93642326D02*
X167470635Y-92864508D01*
X167470635Y-92864508D02*
X167655829Y-93049703D01*
X167655829Y-93049703D02*
X167729907Y-93197859D01*
X167729907Y-93197859D02*
X167729907Y-93346014D01*
X167729907Y-93346014D02*
X167692868Y-93457131D01*
X167692868Y-93457131D02*
X167581752Y-93642326D01*
X167581752Y-93642326D02*
X167470635Y-93753442D01*
X167470635Y-93753442D02*
X167285440Y-93864559D01*
X167285440Y-93864559D02*
X167174323Y-93901598D01*
X167174323Y-93901598D02*
X167026168Y-93901598D01*
X167026168Y-93901598D02*
X166878012Y-93827520D01*
X166878012Y-93827520D02*
X166692817Y-93642326D01*
X167396557Y-94938688D02*
X167396557Y-94864610D01*
X167396557Y-94864610D02*
X167433596Y-94679416D01*
X167433596Y-94679416D02*
X167470635Y-94568299D01*
X167470635Y-94568299D02*
X167544713Y-94420143D01*
X167544713Y-94420143D02*
X167692868Y-94197910D01*
X167692868Y-94197910D02*
X167841024Y-94049754D01*
X167841024Y-94049754D02*
X168063258Y-93901598D01*
X168063258Y-93901598D02*
X168211413Y-93827520D01*
X168211413Y-93827520D02*
X168322530Y-93790481D01*
X168322530Y-93790481D02*
X168507725Y-93753442D01*
X168507725Y-93753442D02*
X168581803Y-93753442D01*
X168285491Y-94642376D02*
X168878114Y-95234999D01*
X168581803Y-96123934D02*
X168655880Y-96123934D01*
X168655880Y-96123934D02*
X168841075Y-96086895D01*
X168841075Y-96086895D02*
X168952192Y-96049856D01*
X168952192Y-96049856D02*
X169100347Y-95975778D01*
X169100347Y-95975778D02*
X169322581Y-95827622D01*
X169322581Y-95827622D02*
X169470737Y-95679467D01*
X169470737Y-95679467D02*
X169618892Y-95457233D01*
X169618892Y-95457233D02*
X169692970Y-95309077D01*
X169692970Y-95309077D02*
X169730009Y-95197960D01*
X169730009Y-95197960D02*
X169767048Y-95012766D01*
X169767048Y-95012766D02*
X169767048Y-94938688D01*
%TO.C,SW1*%
D12*
X174050000Y-95630000D02*
X174050000Y-96420000D01*
X174650000Y-97430000D02*
X180350000Y-97430000D01*
X175900000Y-94580000D02*
X177600000Y-94580000D01*
X176100000Y-97430000D02*
X176100000Y-98720000D01*
X176100000Y-98720000D02*
X176300000Y-98930000D01*
X176300000Y-98930000D02*
X177200000Y-98930000D01*
X177400000Y-98720000D02*
X177200000Y-98930000D01*
X177400000Y-98720000D02*
X177400000Y-97430000D01*
X178900000Y-94580000D02*
X179100000Y-94580000D01*
X180950000Y-96420000D02*
X180950000Y-95630000D01*
%TO.C,BT1*%
X166530000Y-77615000D02*
X168137090Y-77615000D01*
X166530000Y-79500000D02*
X166530000Y-77615000D01*
X166530000Y-85500000D02*
X166530000Y-87385000D01*
X166530000Y-87385000D02*
X168137090Y-87385000D01*
X187470000Y-77615000D02*
X185862910Y-77615000D01*
X187470000Y-79500000D02*
X187470000Y-77615000D01*
X187470000Y-85500000D02*
X187470000Y-87385000D01*
X187470000Y-87385000D02*
X185862910Y-87385000D01*
X168137090Y-77615000D02*
G75*
G02*
X185862910Y-77615000I8862910J-4885000D01*
G01*
X185865021Y-87381168D02*
G75*
G02*
X168137090Y-87385000I-8865021J4881167D01*
G01*
%TD*%
M02*
