%TF.GenerationSoftware,KiCad,Pcbnew,10.0.5*%
%TF.CreationDate,2026-08-24T14:18:41+02:00*%
%TF.ProjectId,fs_battery_switch,66735f62-6174-4746-9572-795f73776974,rev?*%
%TF.SameCoordinates,Original*%
%TF.FileFunction,Legend,Bot*%
%TF.FilePolarity,Positive*%
%FSLAX46Y46*%
G04 Gerber Fmt 4.6, Leading zero omitted, Abs format (unit mm)*
G04 Created by KiCad (PCBNEW 10.0.5) date 2026-08-24 14:18:41*
%MOMM*%
%LPD*%
G01*
G04 APERTURE LIST*
%ADD10C,0.125000*%
%ADD11C,0.137500*%
%ADD12C,0.120000*%
G04 APERTURE END LIST*
D10*
X182828572Y-90913556D02*
X182733334Y-90961175D01*
X182733334Y-90961175D02*
X182542858Y-90961175D01*
X182542858Y-90961175D02*
X182447620Y-90913556D01*
X182447620Y-90913556D02*
X182400001Y-90818317D01*
X182400001Y-90818317D02*
X182400001Y-90770698D01*
X182400001Y-90770698D02*
X182447620Y-90675460D01*
X182447620Y-90675460D02*
X182542858Y-90627841D01*
X182542858Y-90627841D02*
X182685715Y-90627841D01*
X182685715Y-90627841D02*
X182780953Y-90580222D01*
X182780953Y-90580222D02*
X182828572Y-90484984D01*
X182828572Y-90484984D02*
X182828572Y-90437365D01*
X182828572Y-90437365D02*
X182780953Y-90342127D01*
X182780953Y-90342127D02*
X182685715Y-90294508D01*
X182685715Y-90294508D02*
X182542858Y-90294508D01*
X182542858Y-90294508D02*
X182447620Y-90342127D01*
X181828572Y-90961175D02*
X181923810Y-90913556D01*
X181923810Y-90913556D02*
X181971429Y-90865936D01*
X181971429Y-90865936D02*
X182019048Y-90770698D01*
X182019048Y-90770698D02*
X182019048Y-90484984D01*
X182019048Y-90484984D02*
X181971429Y-90389746D01*
X181971429Y-90389746D02*
X181923810Y-90342127D01*
X181923810Y-90342127D02*
X181828572Y-90294508D01*
X181828572Y-90294508D02*
X181685715Y-90294508D01*
X181685715Y-90294508D02*
X181590477Y-90342127D01*
X181590477Y-90342127D02*
X181542858Y-90389746D01*
X181542858Y-90389746D02*
X181495239Y-90484984D01*
X181495239Y-90484984D02*
X181495239Y-90770698D01*
X181495239Y-90770698D02*
X181542858Y-90865936D01*
X181542858Y-90865936D02*
X181590477Y-90913556D01*
X181590477Y-90913556D02*
X181685715Y-90961175D01*
X181685715Y-90961175D02*
X181828572Y-90961175D01*
X180923810Y-90961175D02*
X181019048Y-90913556D01*
X181019048Y-90913556D02*
X181066667Y-90818317D01*
X181066667Y-90818317D02*
X181066667Y-89961175D01*
X180114286Y-90961175D02*
X180114286Y-89961175D01*
X180114286Y-90913556D02*
X180209524Y-90961175D01*
X180209524Y-90961175D02*
X180400000Y-90961175D01*
X180400000Y-90961175D02*
X180495238Y-90913556D01*
X180495238Y-90913556D02*
X180542857Y-90865936D01*
X180542857Y-90865936D02*
X180590476Y-90770698D01*
X180590476Y-90770698D02*
X180590476Y-90484984D01*
X180590476Y-90484984D02*
X180542857Y-90389746D01*
X180542857Y-90389746D02*
X180495238Y-90342127D01*
X180495238Y-90342127D02*
X180400000Y-90294508D01*
X180400000Y-90294508D02*
X180209524Y-90294508D01*
X180209524Y-90294508D02*
X180114286Y-90342127D01*
X179257143Y-90913556D02*
X179352381Y-90961175D01*
X179352381Y-90961175D02*
X179542857Y-90961175D01*
X179542857Y-90961175D02*
X179638095Y-90913556D01*
X179638095Y-90913556D02*
X179685714Y-90818317D01*
X179685714Y-90818317D02*
X179685714Y-90437365D01*
X179685714Y-90437365D02*
X179638095Y-90342127D01*
X179638095Y-90342127D02*
X179542857Y-90294508D01*
X179542857Y-90294508D02*
X179352381Y-90294508D01*
X179352381Y-90294508D02*
X179257143Y-90342127D01*
X179257143Y-90342127D02*
X179209524Y-90437365D01*
X179209524Y-90437365D02*
X179209524Y-90532603D01*
X179209524Y-90532603D02*
X179685714Y-90627841D01*
X178780952Y-90961175D02*
X178780952Y-90294508D01*
X178780952Y-90484984D02*
X178733333Y-90389746D01*
X178733333Y-90389746D02*
X178685714Y-90342127D01*
X178685714Y-90342127D02*
X178590476Y-90294508D01*
X178590476Y-90294508D02*
X178495238Y-90294508D01*
X177542856Y-90294508D02*
X177161904Y-90294508D01*
X177399999Y-90961175D02*
X177399999Y-90104032D01*
X177399999Y-90104032D02*
X177352380Y-90008794D01*
X177352380Y-90008794D02*
X177257142Y-89961175D01*
X177257142Y-89961175D02*
X177161904Y-89961175D01*
X176685713Y-90961175D02*
X176780951Y-90913556D01*
X176780951Y-90913556D02*
X176828570Y-90865936D01*
X176828570Y-90865936D02*
X176876189Y-90770698D01*
X176876189Y-90770698D02*
X176876189Y-90484984D01*
X176876189Y-90484984D02*
X176828570Y-90389746D01*
X176828570Y-90389746D02*
X176780951Y-90342127D01*
X176780951Y-90342127D02*
X176685713Y-90294508D01*
X176685713Y-90294508D02*
X176542856Y-90294508D01*
X176542856Y-90294508D02*
X176447618Y-90342127D01*
X176447618Y-90342127D02*
X176399999Y-90389746D01*
X176399999Y-90389746D02*
X176352380Y-90484984D01*
X176352380Y-90484984D02*
X176352380Y-90770698D01*
X176352380Y-90770698D02*
X176399999Y-90865936D01*
X176399999Y-90865936D02*
X176447618Y-90913556D01*
X176447618Y-90913556D02*
X176542856Y-90961175D01*
X176542856Y-90961175D02*
X176685713Y-90961175D01*
X175923808Y-90961175D02*
X175923808Y-90294508D01*
X175923808Y-90484984D02*
X175876189Y-90389746D01*
X175876189Y-90389746D02*
X175828570Y-90342127D01*
X175828570Y-90342127D02*
X175733332Y-90294508D01*
X175733332Y-90294508D02*
X175638094Y-90294508D01*
X184019047Y-91904452D02*
X184019047Y-92904452D01*
X184019047Y-91952071D02*
X183923809Y-91904452D01*
X183923809Y-91904452D02*
X183733333Y-91904452D01*
X183733333Y-91904452D02*
X183638095Y-91952071D01*
X183638095Y-91952071D02*
X183590476Y-91999690D01*
X183590476Y-91999690D02*
X183542857Y-92094928D01*
X183542857Y-92094928D02*
X183542857Y-92380642D01*
X183542857Y-92380642D02*
X183590476Y-92475880D01*
X183590476Y-92475880D02*
X183638095Y-92523500D01*
X183638095Y-92523500D02*
X183733333Y-92571119D01*
X183733333Y-92571119D02*
X183923809Y-92571119D01*
X183923809Y-92571119D02*
X184019047Y-92523500D01*
X182733333Y-92523500D02*
X182828571Y-92571119D01*
X182828571Y-92571119D02*
X183019047Y-92571119D01*
X183019047Y-92571119D02*
X183114285Y-92523500D01*
X183114285Y-92523500D02*
X183161904Y-92428261D01*
X183161904Y-92428261D02*
X183161904Y-92047309D01*
X183161904Y-92047309D02*
X183114285Y-91952071D01*
X183114285Y-91952071D02*
X183019047Y-91904452D01*
X183019047Y-91904452D02*
X182828571Y-91904452D01*
X182828571Y-91904452D02*
X182733333Y-91952071D01*
X182733333Y-91952071D02*
X182685714Y-92047309D01*
X182685714Y-92047309D02*
X182685714Y-92142547D01*
X182685714Y-92142547D02*
X183161904Y-92237785D01*
X182257142Y-92571119D02*
X182257142Y-91904452D01*
X182257142Y-92094928D02*
X182209523Y-91999690D01*
X182209523Y-91999690D02*
X182161904Y-91952071D01*
X182161904Y-91952071D02*
X182066666Y-91904452D01*
X182066666Y-91904452D02*
X181971428Y-91904452D01*
X181638094Y-92571119D02*
X181638094Y-91904452D01*
X181638094Y-91999690D02*
X181590475Y-91952071D01*
X181590475Y-91952071D02*
X181495237Y-91904452D01*
X181495237Y-91904452D02*
X181352380Y-91904452D01*
X181352380Y-91904452D02*
X181257142Y-91952071D01*
X181257142Y-91952071D02*
X181209523Y-92047309D01*
X181209523Y-92047309D02*
X181209523Y-92571119D01*
X181209523Y-92047309D02*
X181161904Y-91952071D01*
X181161904Y-91952071D02*
X181066666Y-91904452D01*
X181066666Y-91904452D02*
X180923809Y-91904452D01*
X180923809Y-91904452D02*
X180828570Y-91952071D01*
X180828570Y-91952071D02*
X180780951Y-92047309D01*
X180780951Y-92047309D02*
X180780951Y-92571119D01*
X179923809Y-92523500D02*
X180019047Y-92571119D01*
X180019047Y-92571119D02*
X180209523Y-92571119D01*
X180209523Y-92571119D02*
X180304761Y-92523500D01*
X180304761Y-92523500D02*
X180352380Y-92428261D01*
X180352380Y-92428261D02*
X180352380Y-92047309D01*
X180352380Y-92047309D02*
X180304761Y-91952071D01*
X180304761Y-91952071D02*
X180209523Y-91904452D01*
X180209523Y-91904452D02*
X180019047Y-91904452D01*
X180019047Y-91904452D02*
X179923809Y-91952071D01*
X179923809Y-91952071D02*
X179876190Y-92047309D01*
X179876190Y-92047309D02*
X179876190Y-92142547D01*
X179876190Y-92142547D02*
X180352380Y-92237785D01*
X179447618Y-91904452D02*
X179447618Y-92571119D01*
X179447618Y-91999690D02*
X179399999Y-91952071D01*
X179399999Y-91952071D02*
X179304761Y-91904452D01*
X179304761Y-91904452D02*
X179161904Y-91904452D01*
X179161904Y-91904452D02*
X179066666Y-91952071D01*
X179066666Y-91952071D02*
X179019047Y-92047309D01*
X179019047Y-92047309D02*
X179019047Y-92571119D01*
X178114285Y-92571119D02*
X178114285Y-92047309D01*
X178114285Y-92047309D02*
X178161904Y-91952071D01*
X178161904Y-91952071D02*
X178257142Y-91904452D01*
X178257142Y-91904452D02*
X178447618Y-91904452D01*
X178447618Y-91904452D02*
X178542856Y-91952071D01*
X178114285Y-92523500D02*
X178209523Y-92571119D01*
X178209523Y-92571119D02*
X178447618Y-92571119D01*
X178447618Y-92571119D02*
X178542856Y-92523500D01*
X178542856Y-92523500D02*
X178590475Y-92428261D01*
X178590475Y-92428261D02*
X178590475Y-92333023D01*
X178590475Y-92333023D02*
X178542856Y-92237785D01*
X178542856Y-92237785D02*
X178447618Y-92190166D01*
X178447618Y-92190166D02*
X178209523Y-92190166D01*
X178209523Y-92190166D02*
X178114285Y-92142547D01*
X177638094Y-91904452D02*
X177638094Y-92571119D01*
X177638094Y-91999690D02*
X177590475Y-91952071D01*
X177590475Y-91952071D02*
X177495237Y-91904452D01*
X177495237Y-91904452D02*
X177352380Y-91904452D01*
X177352380Y-91904452D02*
X177257142Y-91952071D01*
X177257142Y-91952071D02*
X177209523Y-92047309D01*
X177209523Y-92047309D02*
X177209523Y-92571119D01*
X176876189Y-91904452D02*
X176495237Y-91904452D01*
X176733332Y-91571119D02*
X176733332Y-92428261D01*
X176733332Y-92428261D02*
X176685713Y-92523500D01*
X176685713Y-92523500D02*
X176590475Y-92571119D01*
X176590475Y-92571119D02*
X176495237Y-92571119D01*
X175209522Y-91571119D02*
X175019046Y-91571119D01*
X175019046Y-91571119D02*
X174923808Y-91618738D01*
X174923808Y-91618738D02*
X174828570Y-91713976D01*
X174828570Y-91713976D02*
X174780951Y-91904452D01*
X174780951Y-91904452D02*
X174780951Y-92237785D01*
X174780951Y-92237785D02*
X174828570Y-92428261D01*
X174828570Y-92428261D02*
X174923808Y-92523500D01*
X174923808Y-92523500D02*
X175019046Y-92571119D01*
X175019046Y-92571119D02*
X175209522Y-92571119D01*
X175209522Y-92571119D02*
X175304760Y-92523500D01*
X175304760Y-92523500D02*
X175399998Y-92428261D01*
X175399998Y-92428261D02*
X175447617Y-92237785D01*
X175447617Y-92237785D02*
X175447617Y-91904452D01*
X175447617Y-91904452D02*
X175399998Y-91713976D01*
X175399998Y-91713976D02*
X175304760Y-91618738D01*
X175304760Y-91618738D02*
X175209522Y-91571119D01*
X174352379Y-92571119D02*
X174352379Y-91571119D01*
X174352379Y-91571119D02*
X173780951Y-92571119D01*
X173780951Y-92571119D02*
X173780951Y-91571119D01*
D11*
X187859077Y-91784795D02*
X188377622Y-92821885D01*
X188377622Y-92821885D02*
X187340532Y-92303340D01*
X187340532Y-93710820D02*
X187414610Y-93710820D01*
X187414610Y-93710820D02*
X187562766Y-93636742D01*
X187562766Y-93636742D02*
X187636843Y-93562664D01*
X187636843Y-93562664D02*
X187710921Y-93414508D01*
X187710921Y-93414508D02*
X187710921Y-93266352D01*
X187710921Y-93266352D02*
X187673882Y-93155236D01*
X187673882Y-93155236D02*
X187562766Y-92970041D01*
X187562766Y-92970041D02*
X187451649Y-92858924D01*
X187451649Y-92858924D02*
X187266454Y-92747807D01*
X187266454Y-92747807D02*
X187155337Y-92710768D01*
X187155337Y-92710768D02*
X187007182Y-92710768D01*
X187007182Y-92710768D02*
X186859026Y-92784846D01*
X186859026Y-92784846D02*
X186784948Y-92858924D01*
X186784948Y-92858924D02*
X186710870Y-93007080D01*
X186710870Y-93007080D02*
X186710870Y-93081158D01*
X186562715Y-94488637D02*
X186636792Y-94488637D01*
X186636792Y-94488637D02*
X186784948Y-94414559D01*
X186784948Y-94414559D02*
X186859026Y-94340481D01*
X186859026Y-94340481D02*
X186933104Y-94192326D01*
X186933104Y-94192326D02*
X186933104Y-94044170D01*
X186933104Y-94044170D02*
X186896065Y-93933053D01*
X186896065Y-93933053D02*
X186784948Y-93747858D01*
X186784948Y-93747858D02*
X186673831Y-93636742D01*
X186673831Y-93636742D02*
X186488637Y-93525625D01*
X186488637Y-93525625D02*
X186377520Y-93488586D01*
X186377520Y-93488586D02*
X186229364Y-93488586D01*
X186229364Y-93488586D02*
X186081209Y-93562664D01*
X186081209Y-93562664D02*
X186007131Y-93636742D01*
X186007131Y-93636742D02*
X185933053Y-93784897D01*
X185933053Y-93784897D02*
X185933053Y-93858975D01*
X186377520Y-95414610D02*
X186377520Y-95340532D01*
X186377520Y-95340532D02*
X186340481Y-95155338D01*
X186340481Y-95155338D02*
X186303442Y-95044221D01*
X186303442Y-95044221D02*
X186229364Y-94896065D01*
X186229364Y-94896065D02*
X186081209Y-94673832D01*
X186081209Y-94673832D02*
X185933053Y-94525676D01*
X185933053Y-94525676D02*
X185710819Y-94377520D01*
X185710819Y-94377520D02*
X185562664Y-94303442D01*
X185562664Y-94303442D02*
X185451547Y-94266403D01*
X185451547Y-94266403D02*
X185266352Y-94229364D01*
X185266352Y-94229364D02*
X185192274Y-94229364D01*
X185488586Y-95118298D02*
X184895963Y-95710921D01*
X185488586Y-95710921D02*
X184895963Y-95118298D01*
X185192274Y-96599856D02*
X185118197Y-96599856D01*
X185118197Y-96599856D02*
X184933002Y-96562817D01*
X184933002Y-96562817D02*
X184821885Y-96525778D01*
X184821885Y-96525778D02*
X184673729Y-96451700D01*
X184673729Y-96451700D02*
X184451496Y-96303544D01*
X184451496Y-96303544D02*
X184303340Y-96155389D01*
X184303340Y-96155389D02*
X184155184Y-95933155D01*
X184155184Y-95933155D02*
X184081107Y-95784999D01*
X184081107Y-95784999D02*
X184044068Y-95673883D01*
X184044068Y-95673883D02*
X184007029Y-95488688D01*
X184007029Y-95488688D02*
X184007029Y-95414610D01*
X184766301Y-74948350D02*
X184655185Y-74911311D01*
X184655185Y-74911311D02*
X184544068Y-74800194D01*
X184544068Y-74800194D02*
X184469990Y-74652039D01*
X184469990Y-74652039D02*
X184469990Y-74503883D01*
X184469990Y-74503883D02*
X184507029Y-74392766D01*
X184507029Y-74392766D02*
X184618146Y-74207572D01*
X184618146Y-74207572D02*
X184729262Y-74096455D01*
X184729262Y-74096455D02*
X184914457Y-73985338D01*
X184914457Y-73985338D02*
X185025574Y-73948299D01*
X185025574Y-73948299D02*
X185173730Y-73948299D01*
X185173730Y-73948299D02*
X185321885Y-74022377D01*
X185321885Y-74022377D02*
X185395963Y-74096455D01*
X185395963Y-74096455D02*
X185470041Y-74244611D01*
X185470041Y-74244611D02*
X185470041Y-74318688D01*
X185470041Y-74318688D02*
X185210769Y-74577961D01*
X185210769Y-74577961D02*
X185062613Y-74429805D01*
X185877469Y-74577961D02*
X185099652Y-75355778D01*
X185099652Y-75355778D02*
X186321936Y-75022428D01*
X186321936Y-75022428D02*
X185544119Y-75800245D01*
X186692326Y-75392817D02*
X185914508Y-76170635D01*
X185914508Y-76170635D02*
X186099703Y-76355829D01*
X186099703Y-76355829D02*
X186247859Y-76429907D01*
X186247859Y-76429907D02*
X186396014Y-76429907D01*
X186396014Y-76429907D02*
X186507131Y-76392868D01*
X186507131Y-76392868D02*
X186692326Y-76281752D01*
X186692326Y-76281752D02*
X186803442Y-76170635D01*
X186803442Y-76170635D02*
X186914559Y-75985440D01*
X186914559Y-75985440D02*
X186951598Y-75874323D01*
X186951598Y-75874323D02*
X186951598Y-75726168D01*
X186951598Y-75726168D02*
X186877520Y-75578012D01*
X186877520Y-75578012D02*
X186692326Y-75392817D01*
X187988688Y-76096557D02*
X187914610Y-76096557D01*
X187914610Y-76096557D02*
X187729416Y-76133596D01*
X187729416Y-76133596D02*
X187618299Y-76170635D01*
X187618299Y-76170635D02*
X187470143Y-76244713D01*
X187470143Y-76244713D02*
X187247910Y-76392868D01*
X187247910Y-76392868D02*
X187099754Y-76541024D01*
X187099754Y-76541024D02*
X186951598Y-76763258D01*
X186951598Y-76763258D02*
X186877520Y-76911413D01*
X186877520Y-76911413D02*
X186840481Y-77022530D01*
X186840481Y-77022530D02*
X186803442Y-77207725D01*
X186803442Y-77207725D02*
X186803442Y-77281803D01*
X187692376Y-76985491D02*
X188284999Y-77578114D01*
X189173934Y-77281803D02*
X189173934Y-77355880D01*
X189173934Y-77355880D02*
X189136895Y-77541075D01*
X189136895Y-77541075D02*
X189099856Y-77652192D01*
X189099856Y-77652192D02*
X189025778Y-77800347D01*
X189025778Y-77800347D02*
X188877622Y-78022581D01*
X188877622Y-78022581D02*
X188729467Y-78170737D01*
X188729467Y-78170737D02*
X188507233Y-78318892D01*
X188507233Y-78318892D02*
X188359077Y-78392970D01*
X188359077Y-78392970D02*
X188247960Y-78430009D01*
X188247960Y-78430009D02*
X188062766Y-78467048D01*
X188062766Y-78467048D02*
X187988688Y-78467048D01*
X165840922Y-78315204D02*
X165322377Y-77278114D01*
X165322377Y-77278114D02*
X166359467Y-77796659D01*
X166359467Y-76389179D02*
X166285389Y-76389179D01*
X166285389Y-76389179D02*
X166137233Y-76463257D01*
X166137233Y-76463257D02*
X166063156Y-76537335D01*
X166063156Y-76537335D02*
X165989078Y-76685491D01*
X165989078Y-76685491D02*
X165989078Y-76833647D01*
X165989078Y-76833647D02*
X166026117Y-76944763D01*
X166026117Y-76944763D02*
X166137233Y-77129958D01*
X166137233Y-77129958D02*
X166248350Y-77241075D01*
X166248350Y-77241075D02*
X166433545Y-77352192D01*
X166433545Y-77352192D02*
X166544662Y-77389231D01*
X166544662Y-77389231D02*
X166692817Y-77389231D01*
X166692817Y-77389231D02*
X166840973Y-77315153D01*
X166840973Y-77315153D02*
X166915051Y-77241075D01*
X166915051Y-77241075D02*
X166989129Y-77092919D01*
X166989129Y-77092919D02*
X166989129Y-77018841D01*
X167137284Y-75611362D02*
X167063207Y-75611362D01*
X167063207Y-75611362D02*
X166915051Y-75685440D01*
X166915051Y-75685440D02*
X166840973Y-75759518D01*
X166840973Y-75759518D02*
X166766895Y-75907673D01*
X166766895Y-75907673D02*
X166766895Y-76055829D01*
X166766895Y-76055829D02*
X166803934Y-76166946D01*
X166803934Y-76166946D02*
X166915051Y-76352141D01*
X166915051Y-76352141D02*
X167026168Y-76463257D01*
X167026168Y-76463257D02*
X167211362Y-76574374D01*
X167211362Y-76574374D02*
X167322479Y-76611413D01*
X167322479Y-76611413D02*
X167470635Y-76611413D01*
X167470635Y-76611413D02*
X167618790Y-76537335D01*
X167618790Y-76537335D02*
X167692868Y-76463257D01*
X167692868Y-76463257D02*
X167766946Y-76315102D01*
X167766946Y-76315102D02*
X167766946Y-76241024D01*
X167322479Y-74685389D02*
X167322479Y-74759467D01*
X167322479Y-74759467D02*
X167359518Y-74944661D01*
X167359518Y-74944661D02*
X167396557Y-75055778D01*
X167396557Y-75055778D02*
X167470635Y-75203934D01*
X167470635Y-75203934D02*
X167618790Y-75426167D01*
X167618790Y-75426167D02*
X167766946Y-75574323D01*
X167766946Y-75574323D02*
X167989180Y-75722479D01*
X167989180Y-75722479D02*
X168137335Y-75796557D01*
X168137335Y-75796557D02*
X168248452Y-75833596D01*
X168248452Y-75833596D02*
X168433647Y-75870635D01*
X168433647Y-75870635D02*
X168507725Y-75870635D01*
X168211413Y-74981701D02*
X168804036Y-74389078D01*
X168211413Y-74389078D02*
X168804036Y-74981701D01*
X168507725Y-73500143D02*
X168581802Y-73500143D01*
X168581802Y-73500143D02*
X168766997Y-73537182D01*
X168766997Y-73537182D02*
X168878114Y-73574221D01*
X168878114Y-73574221D02*
X169026270Y-73648299D01*
X169026270Y-73648299D02*
X169248503Y-73796455D01*
X169248503Y-73796455D02*
X169396659Y-73944610D01*
X169396659Y-73944610D02*
X169544815Y-74166844D01*
X169544815Y-74166844D02*
X169618892Y-74315000D01*
X169618892Y-74315000D02*
X169655931Y-74426116D01*
X169655931Y-74426116D02*
X169692970Y-74611311D01*
X169692970Y-74611311D02*
X169692970Y-74685389D01*
X169233698Y-94851649D02*
X169344814Y-94888688D01*
X169344814Y-94888688D02*
X169455931Y-94999805D01*
X169455931Y-94999805D02*
X169530009Y-95147960D01*
X169530009Y-95147960D02*
X169530009Y-95296116D01*
X169530009Y-95296116D02*
X169492970Y-95407233D01*
X169492970Y-95407233D02*
X169381853Y-95592427D01*
X169381853Y-95592427D02*
X169270737Y-95703544D01*
X169270737Y-95703544D02*
X169085542Y-95814661D01*
X169085542Y-95814661D02*
X168974425Y-95851700D01*
X168974425Y-95851700D02*
X168826269Y-95851700D01*
X168826269Y-95851700D02*
X168678114Y-95777622D01*
X168678114Y-95777622D02*
X168604036Y-95703544D01*
X168604036Y-95703544D02*
X168529958Y-95555388D01*
X168529958Y-95555388D02*
X168529958Y-95481311D01*
X168529958Y-95481311D02*
X168789230Y-95222038D01*
X168789230Y-95222038D02*
X168937386Y-95370194D01*
X168122530Y-95222038D02*
X168900347Y-94444221D01*
X168900347Y-94444221D02*
X167678063Y-94777571D01*
X167678063Y-94777571D02*
X168455880Y-93999754D01*
X167307673Y-94407182D02*
X168085491Y-93629364D01*
X168085491Y-93629364D02*
X167900296Y-93444170D01*
X167900296Y-93444170D02*
X167752140Y-93370092D01*
X167752140Y-93370092D02*
X167603985Y-93370092D01*
X167603985Y-93370092D02*
X167492868Y-93407131D01*
X167492868Y-93407131D02*
X167307673Y-93518247D01*
X167307673Y-93518247D02*
X167196557Y-93629364D01*
X167196557Y-93629364D02*
X167085440Y-93814559D01*
X167085440Y-93814559D02*
X167048401Y-93925676D01*
X167048401Y-93925676D02*
X167048401Y-94073831D01*
X167048401Y-94073831D02*
X167122479Y-94221987D01*
X167122479Y-94221987D02*
X167307673Y-94407182D01*
X166011311Y-93703442D02*
X166085389Y-93703442D01*
X166085389Y-93703442D02*
X166270583Y-93666403D01*
X166270583Y-93666403D02*
X166381700Y-93629364D01*
X166381700Y-93629364D02*
X166529856Y-93555286D01*
X166529856Y-93555286D02*
X166752089Y-93407131D01*
X166752089Y-93407131D02*
X166900245Y-93258975D01*
X166900245Y-93258975D02*
X167048401Y-93036741D01*
X167048401Y-93036741D02*
X167122479Y-92888586D01*
X167122479Y-92888586D02*
X167159518Y-92777469D01*
X167159518Y-92777469D02*
X167196557Y-92592274D01*
X167196557Y-92592274D02*
X167196557Y-92518196D01*
X166307623Y-92814508D02*
X165715000Y-92221885D01*
X164826065Y-92518196D02*
X164826065Y-92444119D01*
X164826065Y-92444119D02*
X164863104Y-92258924D01*
X164863104Y-92258924D02*
X164900143Y-92147807D01*
X164900143Y-92147807D02*
X164974221Y-91999652D01*
X164974221Y-91999652D02*
X165122377Y-91777418D01*
X165122377Y-91777418D02*
X165270532Y-91629262D01*
X165270532Y-91629262D02*
X165492766Y-91481107D01*
X165492766Y-91481107D02*
X165640922Y-91407029D01*
X165640922Y-91407029D02*
X165752039Y-91369990D01*
X165752039Y-91369990D02*
X165937233Y-91332951D01*
X165937233Y-91332951D02*
X166011311Y-91332951D01*
%TO.C,JP1*%
D12*
X177475000Y-93300000D02*
X177475000Y-95300000D01*
X177475000Y-95300000D02*
X180275000Y-95300000D01*
X180275000Y-93300000D02*
X177475000Y-93300000D01*
X180275000Y-95300000D02*
X180275000Y-93300000D01*
%TD*%
M02*
