M48
; DRILL file KiCad 10.0.5 date 2026-08-24T14:18:39
; FORMAT={-:-/ absolute / metric / decimal}
; #@! TF.CreationDate,2026-08-24T14:18:39+02:00
; #@! TF.GenerationSoftware,Kicad,Pcbnew,10.0.5
; #@! TF.FileFunction,Plated,1,2,PTH
FMAT,2
METRIC
; #@! TA.AperFunction,Plated,PTH,ViaDrill
T1C0.300
; #@! TA.AperFunction,Plated,PTH,ComponentDrill
T2C2.200
%
G90
G05
T1
X172.4Y-81.1
X172.4Y-81.7
X172.4Y-82.3
X172.4Y-82.9
X173.0Y-80.5
X173.0Y-82.9
X173.0Y-83.5
X173.0Y-85.3
X173.0Y-85.9
X173.0Y-86.5
X173.6Y-79.9
X173.6Y-83.5
X173.6Y-84.2
X173.6Y-84.8
X173.6Y-87.1
X174.2Y-79.9
X174.2Y-81.7
X174.2Y-83.5
X174.2Y-84.2
X174.2Y-87.7
X174.8Y-79.9
X174.8Y-82.3
X174.8Y-83.5
X174.8Y-87.7
X175.4Y-78.7
X175.4Y-79.3
X175.4Y-79.9
X175.4Y-80.5
X175.4Y-82.3
X175.4Y-82.9
X175.4Y-83.5
X175.4Y-84.7
X175.4Y-85.3
X175.4Y-87.7
X176.0Y-78.1
X176.0Y-80.5
X176.0Y-81.1
X176.0Y-82.3
X176.0Y-82.9
X176.0Y-83.5
X176.0Y-84.1
X176.0Y-87.1
X176.6Y-77.5
X176.6Y-82.3
X176.6Y-82.9
X176.6Y-83.5
X176.6Y-84.1
X176.6Y-84.7
X176.6Y-85.3
X176.6Y-85.9
X176.6Y-86.5
X177.2Y-77.5
X177.2Y-79.9
X177.2Y-80.5
X177.2Y-81.1
X177.2Y-81.7
X177.2Y-82.3
X177.2Y-82.9
X177.2Y-83.5
X177.2Y-84.1
X177.2Y-85.9
X177.2Y-86.5
X177.8Y-77.5
X177.8Y-81.7
X177.8Y-82.3
X177.8Y-82.9
X177.8Y-83.5
X177.8Y-84.1
X177.8Y-84.7
X177.8Y-87.1
X178.25Y-94.27
X178.4Y-78.1
X178.4Y-80.5
X178.4Y-81.1
X178.4Y-82.3
X178.4Y-82.9
X178.4Y-83.5
X178.4Y-84.7
X178.4Y-85.3
X178.4Y-87.7
X179.0Y-78.7
X179.0Y-79.3
X179.0Y-79.9
X179.0Y-80.5
X179.0Y-82.3
X179.0Y-83.5
X179.0Y-87.7
X179.6Y-79.9
X179.6Y-81.7
X179.6Y-83.5
X179.6Y-84.1
X179.6Y-87.7
X180.2Y-79.9
X180.2Y-83.5
X180.2Y-84.1
X180.2Y-84.7
X180.2Y-87.1
X180.8Y-79.9
X180.8Y-83.5
X180.8Y-85.3
X180.8Y-85.9
X180.8Y-86.5
X181.4Y-80.5
X181.4Y-82.9
X181.4Y-83.5
X182.0Y-81.1
X182.0Y-81.7
X182.0Y-82.3
X182.0Y-82.9
T2
X165.0Y-74.0
X165.0Y-96.0
X189.0Y-74.0
X189.0Y-96.0
M30
