%TF.GenerationSoftware,KiCad,Pcbnew,10.0.0*%
%TF.CreationDate,2026-03-26T01:03:15+01:00*%
%TF.ProjectId,resistor_0603_order,72657369-7374-46f7-925f-303630335f6f,rev?*%
%TF.SameCoordinates,Original*%
%TF.FileFunction,Copper,L2,Bot*%
%TF.FilePolarity,Positive*%
%FSLAX46Y46*%
G04 Gerber Fmt 4.6, Leading zero omitted, Abs format (unit mm)*
G04 Created by KiCad (PCBNEW 10.0.0) date 2026-03-26 01:03:15*
%MOMM*%
%LPD*%
G01*
G04 APERTURE LIST*
%TA.AperFunction,ComponentPad*%
%ADD10C,2.600000*%
%TD*%
%TA.AperFunction,ConnectorPad*%
%ADD11C,3.800000*%
%TD*%
G04 APERTURE END LIST*
D10*
%TO.P,H2,1,1_1*%
%TO.N,Board_37-Net-(H2-Pad1)*%
X138500000Y-58000500D03*
D11*
X138500000Y-58000500D03*
%TD*%
D10*
%TO.P,H2,1,1_1*%
%TO.N,Board_60-Net-(H2-Pad1)*%
X166500000Y-76000500D03*
D11*
X166500000Y-76000500D03*
%TD*%
D10*
%TO.P,H1,1,1_1*%
%TO.N,Board_87-Net-(H1-Pad1)*%
X144500000Y-100000500D03*
D11*
X144500000Y-100000500D03*
%TD*%
D10*
%TO.P,H2,1,1_1*%
%TO.N,Board_96-Net-(H2-Pad1)*%
X180500000Y-106000500D03*
D11*
X180500000Y-106000500D03*
%TD*%
D10*
%TO.P,H1,1,1_1*%
%TO.N,Board_23-Net-(H1-Pad1)*%
X130500000Y-46000500D03*
D11*
X130500000Y-46000500D03*
%TD*%
D10*
%TO.P,H2,1,1_1*%
%TO.N,Board_82-Net-(H2-Pad1)*%
X180500000Y-94000500D03*
D11*
X180500000Y-94000500D03*
%TD*%
D10*
%TO.P,H1,1,1_1*%
%TO.N,Board_43-Net-(H1-Pad1)*%
X116500000Y-64000500D03*
D11*
X116500000Y-64000500D03*
%TD*%
D10*
%TO.P,H1,1,1_1*%
%TO.N,Board_69-Net-(H1-Pad1)*%
X186500000Y-82000500D03*
D11*
X186500000Y-82000500D03*
%TD*%
D10*
%TO.P,H1,1,1_1*%
%TO.N,Board_49-Net-(H1-Pad1)*%
X102500000Y-70000500D03*
D11*
X102500000Y-70000500D03*
%TD*%
D10*
%TO.P,H2,1,1_1*%
%TO.N,Board_26-Net-(H2-Pad1)*%
X180500000Y-46000500D03*
D11*
X180500000Y-46000500D03*
%TD*%
D10*
%TO.P,H2,1,1_1*%
%TO.N,Board_53-Net-(H2-Pad1)*%
X166500000Y-70000500D03*
D11*
X166500000Y-70000500D03*
%TD*%
D10*
%TO.P,H1,1,1_1*%
%TO.N,Board_86-Net-(H1-Pad1)*%
X130500000Y-100000500D03*
D11*
X130500000Y-100000500D03*
%TD*%
D10*
%TO.P,H1,1,1_1*%
%TO.N,Board_94-Net-(H1-Pad1)*%
X144500000Y-106000500D03*
D11*
X144500000Y-106000500D03*
%TD*%
D10*
%TO.P,H1,1,1_1*%
%TO.N,Board_83-Net-(H1-Pad1)*%
X186500000Y-94000500D03*
D11*
X186500000Y-94000500D03*
%TD*%
D10*
%TO.P,H1,1,1_1*%
%TO.N,Board_96-Net-(H1-Pad1)*%
X172500000Y-106000500D03*
D11*
X172500000Y-106000500D03*
%TD*%
D10*
%TO.P,H1,1,1_1*%
%TO.N,Board_52-Net-(H1-Pad1)*%
X144500000Y-70000500D03*
D11*
X144500000Y-70000500D03*
%TD*%
D10*
%TO.P,H2,1,1_1*%
%TO.N,Board_88-Net-(H2-Pad1)*%
X166500000Y-100000500D03*
D11*
X166500000Y-100000500D03*
%TD*%
D10*
%TO.P,H1,1,1_1*%
%TO.N,Board_54-Net-(H1-Pad1)*%
X172500000Y-70000500D03*
D11*
X172500000Y-70000500D03*
%TD*%
D10*
%TO.P,H2,1,1_1*%
%TO.N,Board_97-Net-(H2-Pad1)*%
X194500000Y-106000500D03*
D11*
X194500000Y-106000500D03*
%TD*%
D10*
%TO.P,H2,1,1_1*%
%TO.N,Board_87-Net-(H2-Pad1)*%
X152500000Y-100000500D03*
D11*
X152500000Y-100000500D03*
%TD*%
D10*
%TO.P,H2,1,1_1*%
%TO.N,Board_38-Net-(H2-Pad1)*%
X152500000Y-58000500D03*
D11*
X152500000Y-58000500D03*
%TD*%
D10*
%TO.P,H2,1,1_1*%
%TO.N,Board_15-Net-(H2-Pad1)*%
X124500000Y-40000500D03*
D11*
X124500000Y-40000500D03*
%TD*%
D10*
%TO.P,H1,1,1_1*%
%TO.N,Board_76-Net-(H1-Pad1)*%
X186500000Y-88000500D03*
D11*
X186500000Y-88000500D03*
%TD*%
D10*
%TO.P,H2,1,1_1*%
%TO.N,Board_42-Net-(H2-Pad1)*%
X110500000Y-64000500D03*
D11*
X110500000Y-64000500D03*
%TD*%
D10*
%TO.P,H1,1,1_1*%
%TO.N,Board_14-Net-(H1-Pad1)*%
X102500000Y-40000500D03*
D11*
X102500000Y-40000500D03*
%TD*%
D10*
%TO.P,H1,1,1_1*%
%TO.N,Board_4-Net-(H1-Pad1)*%
X158500000Y-28000500D03*
D11*
X158500000Y-28000500D03*
%TD*%
D10*
%TO.P,H1,1,1_1*%
%TO.N,Board_75-Net-(H1-Pad1)*%
X172500000Y-88000500D03*
D11*
X172500000Y-88000500D03*
%TD*%
D10*
%TO.P,H2,1,1_1*%
%TO.N,Board_68-Net-(H2-Pad1)*%
X180500000Y-82000500D03*
D11*
X180500000Y-82000500D03*
%TD*%
D10*
%TO.P,H1,1,1_1*%
%TO.N,Board_32-Net-(H1-Pad1)*%
X158500000Y-52000500D03*
D11*
X158500000Y-52000500D03*
%TD*%
D10*
%TO.P,H1,1,1_1*%
%TO.N,Board_29-Net-(H1-Pad1)*%
X116500000Y-52000500D03*
D11*
X116500000Y-52000500D03*
%TD*%
D10*
%TO.P,H2,1,1_1*%
%TO.N,Board_76-Net-(H2-Pad1)*%
X194500000Y-88000500D03*
D11*
X194500000Y-88000500D03*
%TD*%
D10*
%TO.P,H2,1,1_1*%
%TO.N,Board_28-Net-(H2-Pad1)*%
X110500000Y-52000500D03*
D11*
X110500000Y-52000500D03*
%TD*%
D10*
%TO.P,H1,1,1_1*%
%TO.N,Board_66-Net-(H1-Pad1)*%
X144500000Y-82000500D03*
D11*
X144500000Y-82000500D03*
%TD*%
D10*
%TO.P,H2,1,1_1*%
%TO.N,Board_12-Net-(H2-Pad1)*%
X180500000Y-34000500D03*
D11*
X180500000Y-34000500D03*
%TD*%
D10*
%TO.P,H1,1,1_1*%
%TO.N,Board_62-Net-(H1-Pad1)*%
X186500000Y-76000500D03*
D11*
X186500000Y-76000500D03*
%TD*%
D10*
%TO.P,H2,1,1_1*%
%TO.N,Board_11-Net-(H2-Pad1)*%
X166500000Y-34000500D03*
D11*
X166500000Y-34000500D03*
%TD*%
D10*
%TO.P,H1,1,1_1*%
%TO.N,Board_24-Net-(H1-Pad1)*%
X144500000Y-46000500D03*
D11*
X144500000Y-46000500D03*
%TD*%
D10*
%TO.P,H1,1,1_1*%
%TO.N,Board_1-Net-(H1-Pad1)*%
X116500000Y-28000500D03*
D11*
X116500000Y-28000500D03*
%TD*%
D10*
%TO.P,H2,1,1_1*%
%TO.N,Board_90-Net-(H2-Pad1)*%
X194500000Y-100000500D03*
D11*
X194500000Y-100000500D03*
%TD*%
D10*
%TO.P,H2,1,1_1*%
%TO.N,Board_34-Net-(H2-Pad1)*%
X194500000Y-52000500D03*
D11*
X194500000Y-52000500D03*
%TD*%
D10*
%TO.P,H2,1,1_1*%
%TO.N,Board_8-Net-(H2-Pad1)*%
X124500000Y-34000500D03*
D11*
X124500000Y-34000500D03*
%TD*%
D10*
%TO.P,H2,1,1_1*%
%TO.N,Board_56-Net-(H2-Pad1)*%
X110500000Y-76000500D03*
D11*
X110500000Y-76000500D03*
%TD*%
D10*
%TO.P,H2,1,1_1*%
%TO.N,Board_52-Net-(H2-Pad1)*%
X152500000Y-70000500D03*
D11*
X152500000Y-70000500D03*
%TD*%
D10*
%TO.P,H2,1,1_1*%
%TO.N,Board_21-Net-(H2-Pad1)*%
X110500000Y-46000500D03*
D11*
X110500000Y-46000500D03*
%TD*%
D10*
%TO.P,H2,1,1_1*%
%TO.N,Board_5-Net-(H2-Pad1)*%
X180500000Y-28000500D03*
D11*
X180500000Y-28000500D03*
%TD*%
D10*
%TO.P,H1,1,1_1*%
%TO.N,Board_34-Net-(H1-Pad1)*%
X186500000Y-52000500D03*
D11*
X186500000Y-52000500D03*
%TD*%
D10*
%TO.P,H2,1,1_1*%
%TO.N,Board_63-Net-(H2-Pad1)*%
X110500000Y-82000500D03*
D11*
X110500000Y-82000500D03*
%TD*%
D10*
%TO.P,H2,1,1_1*%
%TO.N,Board_6-Net-(H2-Pad1)*%
X194500000Y-28000500D03*
D11*
X194500000Y-28000500D03*
%TD*%
D10*
%TO.P,H2,1,1_1*%
%TO.N,Board_9-Net-(H2-Pad1)*%
X138500000Y-34000500D03*
D11*
X138500000Y-34000500D03*
%TD*%
D10*
%TO.P,H2,1,1_1*%
%TO.N,Board_93-Net-(H2-Pad1)*%
X138500000Y-106000500D03*
D11*
X138500000Y-106000500D03*
%TD*%
D10*
%TO.P,H1,1,1_1*%
%TO.N,Board_25-Net-(H1-Pad1)*%
X158500000Y-46000500D03*
D11*
X158500000Y-46000500D03*
%TD*%
D10*
%TO.P,H2,1,1_1*%
%TO.N,Board_64-Net-(H2-Pad1)*%
X124500000Y-82000500D03*
D11*
X124500000Y-82000500D03*
%TD*%
D10*
%TO.P,H1,1,1_1*%
%TO.N,Board_41-Net-(H1-Pad1)*%
X186500000Y-58000500D03*
D11*
X186500000Y-58000500D03*
%TD*%
D10*
%TO.P,H2,1,1_1*%
%TO.N,Board_16-Net-(H2-Pad1)*%
X138500000Y-40000500D03*
D11*
X138500000Y-40000500D03*
%TD*%
D10*
%TO.P,H2,1,1_1*%
%TO.N,Board_61-Net-(H2-Pad1)*%
X180500000Y-76000500D03*
D11*
X180500000Y-76000500D03*
%TD*%
D10*
%TO.P,H1,1,1_1*%
%TO.N,Board_53-Net-(H1-Pad1)*%
X158500000Y-70000500D03*
D11*
X158500000Y-70000500D03*
%TD*%
D10*
%TO.P,H2,1,1_1*%
%TO.N,Board_86-Net-(H2-Pad1)*%
X138500000Y-100000500D03*
D11*
X138500000Y-100000500D03*
%TD*%
D10*
%TO.P,H2,1,1_1*%
%TO.N,Board_1-Net-(H2-Pad1)*%
X124500000Y-28000500D03*
D11*
X124500000Y-28000500D03*
%TD*%
D10*
%TO.P,H1,1,1_1*%
%TO.N,Board_74-Net-(H1-Pad1)*%
X158500000Y-88000500D03*
D11*
X158500000Y-88000500D03*
%TD*%
D10*
%TO.P,H1,1,1_1*%
%TO.N,Board_21-Net-(H1-Pad1)*%
X102500000Y-46000500D03*
D11*
X102500000Y-46000500D03*
%TD*%
D10*
%TO.P,H2,1,1_1*%
%TO.N,Board_46-Net-(H2-Pad1)*%
X166500000Y-64000500D03*
D11*
X166500000Y-64000500D03*
%TD*%
D10*
%TO.P,H2,1,1_1*%
%TO.N,Board_32-Net-(H2-Pad1)*%
X166500000Y-52000500D03*
D11*
X166500000Y-52000500D03*
%TD*%
D10*
%TO.P,H1,1,1_1*%
%TO.N,Board_44-Net-(H1-Pad1)*%
X130500000Y-64000500D03*
D11*
X130500000Y-64000500D03*
%TD*%
D10*
%TO.P,H1,1,1_1*%
%TO.N,Board_93-Net-(H1-Pad1)*%
X130500000Y-106000500D03*
D11*
X130500000Y-106000500D03*
%TD*%
D10*
%TO.P,H1,1,1_1*%
%TO.N,Board_0-Net-(H1-Pad1)*%
X102500000Y-28000500D03*
D11*
X102500000Y-28000500D03*
%TD*%
D10*
%TO.P,H2,1,1_1*%
%TO.N,Board_13-Net-(H2-Pad1)*%
X194500000Y-34000500D03*
D11*
X194500000Y-34000500D03*
%TD*%
D10*
%TO.P,H1,1,1_1*%
%TO.N,Board_71-Net-(H1-Pad1)*%
X116500000Y-88000500D03*
D11*
X116500000Y-88000500D03*
%TD*%
D10*
%TO.P,H2,1,1_1*%
%TO.N,Board_58-Net-(H2-Pad1)*%
X138500000Y-76000500D03*
D11*
X138500000Y-76000500D03*
%TD*%
D10*
%TO.P,H2,1,1_1*%
%TO.N,Board_75-Net-(H2-Pad1)*%
X180500000Y-88000500D03*
D11*
X180500000Y-88000500D03*
%TD*%
D10*
%TO.P,H1,1,1_1*%
%TO.N,Board_60-Net-(H1-Pad1)*%
X158500000Y-76000500D03*
D11*
X158500000Y-76000500D03*
%TD*%
D10*
%TO.P,H1,1,1_1*%
%TO.N,Board_57-Net-(H1-Pad1)*%
X116500000Y-76000500D03*
D11*
X116500000Y-76000500D03*
%TD*%
D10*
%TO.P,H1,1,1_1*%
%TO.N,Board_72-Net-(H1-Pad1)*%
X130500000Y-88000500D03*
D11*
X130500000Y-88000500D03*
%TD*%
D10*
%TO.P,H2,1,1_1*%
%TO.N,Board_2-Net-(H2-Pad1)*%
X138500000Y-28000500D03*
D11*
X138500000Y-28000500D03*
%TD*%
D10*
%TO.P,H1,1,1_1*%
%TO.N,Board_63-Net-(H1-Pad1)*%
X102500000Y-82000500D03*
D11*
X102500000Y-82000500D03*
%TD*%
D10*
%TO.P,H2,1,1_1*%
%TO.N,Board_65-Net-(H2-Pad1)*%
X138500000Y-82000500D03*
D11*
X138500000Y-82000500D03*
%TD*%
D10*
%TO.P,H2,1,1_1*%
%TO.N,Board_30-Net-(H2-Pad1)*%
X138500000Y-52000500D03*
D11*
X138500000Y-52000500D03*
%TD*%
D10*
%TO.P,H1,1,1_1*%
%TO.N,Board_8-Net-(H1-Pad1)*%
X116500000Y-34000500D03*
D11*
X116500000Y-34000500D03*
%TD*%
D10*
%TO.P,H2,1,1_1*%
%TO.N,Board_47-Net-(H2-Pad1)*%
X180500000Y-64000500D03*
D11*
X180500000Y-64000500D03*
%TD*%
D10*
%TO.P,H1,1,1_1*%
%TO.N,Board_56-Net-(H1-Pad1)*%
X102500000Y-76000500D03*
D11*
X102500000Y-76000500D03*
%TD*%
D10*
%TO.P,H2,1,1_1*%
%TO.N,Board_43-Net-(H2-Pad1)*%
X124500000Y-64000500D03*
D11*
X124500000Y-64000500D03*
%TD*%
D10*
%TO.P,H1,1,1_1*%
%TO.N,Board_47-Net-(H1-Pad1)*%
X172500000Y-64000500D03*
D11*
X172500000Y-64000500D03*
%TD*%
D10*
%TO.P,H1,1,1_1*%
%TO.N,Board_73-Net-(H1-Pad1)*%
X144500000Y-88000500D03*
D11*
X144500000Y-88000500D03*
%TD*%
D10*
%TO.P,H2,1,1_1*%
%TO.N,Board_19-Net-(H2-Pad1)*%
X180500000Y-40000500D03*
D11*
X180500000Y-40000500D03*
%TD*%
D10*
%TO.P,H1,1,1_1*%
%TO.N,Board_13-Net-(H1-Pad1)*%
X186500000Y-34000500D03*
D11*
X186500000Y-34000500D03*
%TD*%
D10*
%TO.P,H1,1,1_1*%
%TO.N,Board_33-Net-(H1-Pad1)*%
X172500000Y-52000500D03*
D11*
X172500000Y-52000500D03*
%TD*%
D10*
%TO.P,H1,1,1_1*%
%TO.N,Board_80-Net-(H1-Pad1)*%
X144500000Y-94000500D03*
D11*
X144500000Y-94000500D03*
%TD*%
D10*
%TO.P,H2,1,1_1*%
%TO.N,Board_39-Net-(H2-Pad1)*%
X166500000Y-58000500D03*
D11*
X166500000Y-58000500D03*
%TD*%
D10*
%TO.P,H1,1,1_1*%
%TO.N,Board_48-Net-(H1-Pad1)*%
X186500000Y-64000500D03*
D11*
X186500000Y-64000500D03*
%TD*%
D10*
%TO.P,H1,1,1_1*%
%TO.N,Board_11-Net-(H1-Pad1)*%
X158500000Y-34000500D03*
D11*
X158500000Y-34000500D03*
%TD*%
D10*
%TO.P,H2,1,1_1*%
%TO.N,Board_81-Net-(H2-Pad1)*%
X166500000Y-94000500D03*
D11*
X166500000Y-94000500D03*
%TD*%
D10*
%TO.P,H1,1,1_1*%
%TO.N,Board_90-Net-(H1-Pad1)*%
X186500000Y-100000500D03*
D11*
X186500000Y-100000500D03*
%TD*%
D10*
%TO.P,H2,1,1_1*%
%TO.N,Board_85-Net-(H2-Pad1)*%
X124500000Y-100000500D03*
D11*
X124500000Y-100000500D03*
%TD*%
D10*
%TO.P,H2,1,1_1*%
%TO.N,Board_80-Net-(H2-Pad1)*%
X152500000Y-94000500D03*
D11*
X152500000Y-94000500D03*
%TD*%
D10*
%TO.P,H1,1,1_1*%
%TO.N,Board_26-Net-(H1-Pad1)*%
X172500000Y-46000500D03*
D11*
X172500000Y-46000500D03*
%TD*%
D10*
%TO.P,H2,1,1_1*%
%TO.N,Board_66-Net-(H2-Pad1)*%
X152500000Y-82000500D03*
D11*
X152500000Y-82000500D03*
%TD*%
D10*
%TO.P,H2,1,1_1*%
%TO.N,Board_33-Net-(H2-Pad1)*%
X180500000Y-52000500D03*
D11*
X180500000Y-52000500D03*
%TD*%
D10*
%TO.P,H1,1,1_1*%
%TO.N,Board_31-Net-(H1-Pad1)*%
X144500000Y-52000500D03*
D11*
X144500000Y-52000500D03*
%TD*%
D10*
%TO.P,H2,1,1_1*%
%TO.N,Board_23-Net-(H2-Pad1)*%
X138500000Y-46000500D03*
D11*
X138500000Y-46000500D03*
%TD*%
D10*
%TO.P,H1,1,1_1*%
%TO.N,Board_92-Net-(H1-Pad1)*%
X116500000Y-106000500D03*
D11*
X116500000Y-106000500D03*
%TD*%
D10*
%TO.P,H2,1,1_1*%
%TO.N,Board_7-Net-(H2-Pad1)*%
X110500000Y-34000500D03*
D11*
X110500000Y-34000500D03*
%TD*%
D10*
%TO.P,H1,1,1_1*%
%TO.N,Board_16-Net-(H1-Pad1)*%
X130500000Y-40000500D03*
D11*
X130500000Y-40000500D03*
%TD*%
D10*
%TO.P,H1,1,1_1*%
%TO.N,Board_30-Net-(H1-Pad1)*%
X130500000Y-52000500D03*
D11*
X130500000Y-52000500D03*
%TD*%
D10*
%TO.P,H2,1,1_1*%
%TO.N,Board_51-Net-(H2-Pad1)*%
X138500000Y-70000500D03*
D11*
X138500000Y-70000500D03*
%TD*%
D10*
%TO.P,H1,1,1_1*%
%TO.N,Board_45-Net-(H1-Pad1)*%
X144500000Y-64000500D03*
D11*
X144500000Y-64000500D03*
%TD*%
D10*
%TO.P,H1,1,1_1*%
%TO.N,Board_78-Net-(H1-Pad1)*%
X116500000Y-94000500D03*
D11*
X116500000Y-94000500D03*
%TD*%
D10*
%TO.P,H1,1,1_1*%
%TO.N,Board_7-Net-(H1-Pad1)*%
X102500000Y-34000500D03*
D11*
X102500000Y-34000500D03*
%TD*%
D10*
%TO.P,H1,1,1_1*%
%TO.N,Board_51-Net-(H1-Pad1)*%
X130500000Y-70000500D03*
D11*
X130500000Y-70000500D03*
%TD*%
D10*
%TO.P,H2,1,1_1*%
%TO.N,Board_14-Net-(H2-Pad1)*%
X110500000Y-40000500D03*
D11*
X110500000Y-40000500D03*
%TD*%
D10*
%TO.P,H1,1,1_1*%
%TO.N,Board_95-Net-(H1-Pad1)*%
X158500000Y-106000500D03*
D11*
X158500000Y-106000500D03*
%TD*%
D10*
%TO.P,H1,1,1_1*%
%TO.N,Board_77-Net-(H1-Pad1)*%
X102500000Y-94000500D03*
D11*
X102500000Y-94000500D03*
%TD*%
D10*
%TO.P,H2,1,1_1*%
%TO.N,Board_92-Net-(H2-Pad1)*%
X124500000Y-106000500D03*
D11*
X124500000Y-106000500D03*
%TD*%
D10*
%TO.P,H2,1,1_1*%
%TO.N,Board_95-Net-(H2-Pad1)*%
X166500000Y-106000500D03*
D11*
X166500000Y-106000500D03*
%TD*%
D10*
%TO.P,H2,1,1_1*%
%TO.N,Board_73-Net-(H2-Pad1)*%
X152500000Y-88000500D03*
D11*
X152500000Y-88000500D03*
%TD*%
D10*
%TO.P,H2,1,1_1*%
%TO.N,Board_0-Net-(H2-Pad1)*%
X110500000Y-28000500D03*
D11*
X110500000Y-28000500D03*
%TD*%
D10*
%TO.P,H2,1,1_1*%
%TO.N,Board_89-Net-(H2-Pad1)*%
X180500000Y-100000500D03*
D11*
X180500000Y-100000500D03*
%TD*%
D10*
%TO.P,H2,1,1_1*%
%TO.N,Board_35-Net-(H2-Pad1)*%
X110500000Y-58000500D03*
D11*
X110500000Y-58000500D03*
%TD*%
D10*
%TO.P,H1,1,1_1*%
%TO.N,Board_67-Net-(H1-Pad1)*%
X158500000Y-82000500D03*
D11*
X158500000Y-82000500D03*
%TD*%
D10*
%TO.P,H1,1,1_1*%
%TO.N,Board_5-Net-(H1-Pad1)*%
X172500000Y-28000500D03*
D11*
X172500000Y-28000500D03*
%TD*%
D10*
%TO.P,H2,1,1_1*%
%TO.N,Board_83-Net-(H2-Pad1)*%
X194500000Y-94000500D03*
D11*
X194500000Y-94000500D03*
%TD*%
D10*
%TO.P,H1,1,1_1*%
%TO.N,Board_40-Net-(H1-Pad1)*%
X172500000Y-58000500D03*
D11*
X172500000Y-58000500D03*
%TD*%
D10*
%TO.P,H1,1,1_1*%
%TO.N,Board_6-Net-(H1-Pad1)*%
X186500000Y-28000500D03*
D11*
X186500000Y-28000500D03*
%TD*%
D10*
%TO.P,H1,1,1_1*%
%TO.N,Board_91-Net-(H1-Pad1)*%
X102500000Y-106000500D03*
D11*
X102500000Y-106000500D03*
%TD*%
D10*
%TO.P,H1,1,1_1*%
%TO.N,Board_38-Net-(H1-Pad1)*%
X144500000Y-58000500D03*
D11*
X144500000Y-58000500D03*
%TD*%
D10*
%TO.P,H1,1,1_1*%
%TO.N,Board_42-Net-(H1-Pad1)*%
X102500000Y-64000500D03*
D11*
X102500000Y-64000500D03*
%TD*%
D10*
%TO.P,H2,1,1_1*%
%TO.N,Board_45-Net-(H2-Pad1)*%
X152500000Y-64000500D03*
D11*
X152500000Y-64000500D03*
%TD*%
D10*
%TO.P,H1,1,1_1*%
%TO.N,Board_36-Net-(H1-Pad1)*%
X116500000Y-58000500D03*
D11*
X116500000Y-58000500D03*
%TD*%
D10*
%TO.P,H2,1,1_1*%
%TO.N,Board_17-Net-(H2-Pad1)*%
X152500000Y-40000500D03*
D11*
X152500000Y-40000500D03*
%TD*%
D10*
%TO.P,H2,1,1_1*%
%TO.N,Board_44-Net-(H2-Pad1)*%
X138500000Y-64000500D03*
D11*
X138500000Y-64000500D03*
%TD*%
D10*
%TO.P,H2,1,1_1*%
%TO.N,Board_10-Net-(H2-Pad1)*%
X152500000Y-34000500D03*
D11*
X152500000Y-34000500D03*
%TD*%
D10*
%TO.P,H1,1,1_1*%
%TO.N,Board_65-Net-(H1-Pad1)*%
X130500000Y-82000500D03*
D11*
X130500000Y-82000500D03*
%TD*%
D10*
%TO.P,H1,1,1_1*%
%TO.N,Board_20-Net-(H1-Pad1)*%
X186500000Y-40000500D03*
D11*
X186500000Y-40000500D03*
%TD*%
D10*
%TO.P,H1,1,1_1*%
%TO.N,Board_9-Net-(H1-Pad1)*%
X130500000Y-34000500D03*
D11*
X130500000Y-34000500D03*
%TD*%
D10*
%TO.P,H2,1,1_1*%
%TO.N,Board_41-Net-(H2-Pad1)*%
X194500000Y-58000500D03*
D11*
X194500000Y-58000500D03*
%TD*%
D10*
%TO.P,H1,1,1_1*%
%TO.N,Board_82-Net-(H1-Pad1)*%
X172500000Y-94000500D03*
D11*
X172500000Y-94000500D03*
%TD*%
D10*
%TO.P,H2,1,1_1*%
%TO.N,Board_50-Net-(H2-Pad1)*%
X124500000Y-70000500D03*
D11*
X124500000Y-70000500D03*
%TD*%
D10*
%TO.P,H2,1,1_1*%
%TO.N,Board_79-Net-(H2-Pad1)*%
X138500000Y-94000500D03*
D11*
X138500000Y-94000500D03*
%TD*%
D10*
%TO.P,H2,1,1_1*%
%TO.N,Board_20-Net-(H2-Pad1)*%
X194500000Y-40000500D03*
D11*
X194500000Y-40000500D03*
%TD*%
D10*
%TO.P,H1,1,1_1*%
%TO.N,Board_85-Net-(H1-Pad1)*%
X116500000Y-100000500D03*
D11*
X116500000Y-100000500D03*
%TD*%
D10*
%TO.P,H2,1,1_1*%
%TO.N,Board_62-Net-(H2-Pad1)*%
X194500000Y-76000500D03*
D11*
X194500000Y-76000500D03*
%TD*%
D10*
%TO.P,H1,1,1_1*%
%TO.N,Board_79-Net-(H1-Pad1)*%
X130500000Y-94000500D03*
D11*
X130500000Y-94000500D03*
%TD*%
D10*
%TO.P,H2,1,1_1*%
%TO.N,Board_78-Net-(H2-Pad1)*%
X124500000Y-94000500D03*
D11*
X124500000Y-94000500D03*
%TD*%
D10*
%TO.P,H1,1,1_1*%
%TO.N,Board_28-Net-(H1-Pad1)*%
X102500000Y-52000500D03*
D11*
X102500000Y-52000500D03*
%TD*%
D10*
%TO.P,H2,1,1_1*%
%TO.N,Board_54-Net-(H2-Pad1)*%
X180500000Y-70000500D03*
D11*
X180500000Y-70000500D03*
%TD*%
D10*
%TO.P,H1,1,1_1*%
%TO.N,Board_58-Net-(H1-Pad1)*%
X130500000Y-76000500D03*
D11*
X130500000Y-76000500D03*
%TD*%
D10*
%TO.P,H1,1,1_1*%
%TO.N,Board_27-Net-(H1-Pad1)*%
X186500000Y-46000500D03*
D11*
X186500000Y-46000500D03*
%TD*%
D10*
%TO.P,H1,1,1_1*%
%TO.N,Board_19-Net-(H1-Pad1)*%
X172500000Y-40000500D03*
D11*
X172500000Y-40000500D03*
%TD*%
D10*
%TO.P,H2,1,1_1*%
%TO.N,Board_72-Net-(H2-Pad1)*%
X138500000Y-88000500D03*
D11*
X138500000Y-88000500D03*
%TD*%
D10*
%TO.P,H2,1,1_1*%
%TO.N,Board_48-Net-(H2-Pad1)*%
X194500000Y-64000500D03*
D11*
X194500000Y-64000500D03*
%TD*%
D10*
%TO.P,H2,1,1_1*%
%TO.N,Board_25-Net-(H2-Pad1)*%
X166500000Y-46000500D03*
D11*
X166500000Y-46000500D03*
%TD*%
D10*
%TO.P,H2,1,1_1*%
%TO.N,Board_29-Net-(H2-Pad1)*%
X124500000Y-52000500D03*
D11*
X124500000Y-52000500D03*
%TD*%
D10*
%TO.P,H1,1,1_1*%
%TO.N,Board_59-Net-(H1-Pad1)*%
X144500000Y-76000500D03*
D11*
X144500000Y-76000500D03*
%TD*%
D10*
%TO.P,H1,1,1_1*%
%TO.N,Board_64-Net-(H1-Pad1)*%
X116500000Y-82000500D03*
D11*
X116500000Y-82000500D03*
%TD*%
D10*
%TO.P,H1,1,1_1*%
%TO.N,Board_10-Net-(H1-Pad1)*%
X144500000Y-34000500D03*
D11*
X144500000Y-34000500D03*
%TD*%
D10*
%TO.P,H2,1,1_1*%
%TO.N,Board_57-Net-(H2-Pad1)*%
X124500000Y-76000500D03*
D11*
X124500000Y-76000500D03*
%TD*%
D10*
%TO.P,H1,1,1_1*%
%TO.N,Board_46-Net-(H1-Pad1)*%
X158500000Y-64000500D03*
D11*
X158500000Y-64000500D03*
%TD*%
D10*
%TO.P,H2,1,1_1*%
%TO.N,Board_3-Net-(H2-Pad1)*%
X152500000Y-28000500D03*
D11*
X152500000Y-28000500D03*
%TD*%
D10*
%TO.P,H2,1,1_1*%
%TO.N,Board_27-Net-(H2-Pad1)*%
X194500000Y-46000500D03*
D11*
X194500000Y-46000500D03*
%TD*%
D10*
%TO.P,H2,1,1_1*%
%TO.N,Board_59-Net-(H2-Pad1)*%
X152500000Y-76000500D03*
D11*
X152500000Y-76000500D03*
%TD*%
D10*
%TO.P,H2,1,1_1*%
%TO.N,Board_4-Net-(H2-Pad1)*%
X166500000Y-28000500D03*
D11*
X166500000Y-28000500D03*
%TD*%
D10*
%TO.P,H1,1,1_1*%
%TO.N,Board_50-Net-(H1-Pad1)*%
X116500000Y-70000500D03*
D11*
X116500000Y-70000500D03*
%TD*%
D10*
%TO.P,H1,1,1_1*%
%TO.N,Board_12-Net-(H1-Pad1)*%
X172500000Y-34000500D03*
D11*
X172500000Y-34000500D03*
%TD*%
D10*
%TO.P,H1,1,1_1*%
%TO.N,Board_39-Net-(H1-Pad1)*%
X158500000Y-58000500D03*
D11*
X158500000Y-58000500D03*
%TD*%
D10*
%TO.P,H2,1,1_1*%
%TO.N,Board_91-Net-(H2-Pad1)*%
X110500000Y-106000500D03*
D11*
X110500000Y-106000500D03*
%TD*%
D10*
%TO.P,H1,1,1_1*%
%TO.N,Board_2-Net-(H1-Pad1)*%
X130500000Y-28000500D03*
D11*
X130500000Y-28000500D03*
%TD*%
D10*
%TO.P,H1,1,1_1*%
%TO.N,Board_97-Net-(H1-Pad1)*%
X186500000Y-106000500D03*
D11*
X186500000Y-106000500D03*
%TD*%
D10*
%TO.P,H2,1,1_1*%
%TO.N,Board_22-Net-(H2-Pad1)*%
X124500000Y-46000500D03*
D11*
X124500000Y-46000500D03*
%TD*%
D10*
%TO.P,H2,1,1_1*%
%TO.N,Board_94-Net-(H2-Pad1)*%
X152500000Y-106000500D03*
D11*
X152500000Y-106000500D03*
%TD*%
D10*
%TO.P,H2,1,1_1*%
%TO.N,Board_69-Net-(H2-Pad1)*%
X194500000Y-82000500D03*
D11*
X194500000Y-82000500D03*
%TD*%
D10*
%TO.P,H2,1,1_1*%
%TO.N,Board_36-Net-(H2-Pad1)*%
X124500000Y-58000500D03*
D11*
X124500000Y-58000500D03*
%TD*%
D10*
%TO.P,H1,1,1_1*%
%TO.N,Board_55-Net-(H1-Pad1)*%
X186500000Y-70000500D03*
D11*
X186500000Y-70000500D03*
%TD*%
D10*
%TO.P,H2,1,1_1*%
%TO.N,Board_18-Net-(H2-Pad1)*%
X166500000Y-40000500D03*
D11*
X166500000Y-40000500D03*
%TD*%
D10*
%TO.P,H2,1,1_1*%
%TO.N,Board_24-Net-(H2-Pad1)*%
X152500000Y-46000500D03*
D11*
X152500000Y-46000500D03*
%TD*%
D10*
%TO.P,H2,1,1_1*%
%TO.N,Board_55-Net-(H2-Pad1)*%
X194500000Y-70000500D03*
D11*
X194500000Y-70000500D03*
%TD*%
D10*
%TO.P,H1,1,1_1*%
%TO.N,Board_70-Net-(H1-Pad1)*%
X102500000Y-88000500D03*
D11*
X102500000Y-88000500D03*
%TD*%
D10*
%TO.P,H1,1,1_1*%
%TO.N,Board_22-Net-(H1-Pad1)*%
X116500000Y-46000500D03*
D11*
X116500000Y-46000500D03*
%TD*%
D10*
%TO.P,H1,1,1_1*%
%TO.N,Board_17-Net-(H1-Pad1)*%
X144500000Y-40000500D03*
D11*
X144500000Y-40000500D03*
%TD*%
D10*
%TO.P,H1,1,1_1*%
%TO.N,Board_89-Net-(H1-Pad1)*%
X172500000Y-100000500D03*
D11*
X172500000Y-100000500D03*
%TD*%
D10*
%TO.P,H1,1,1_1*%
%TO.N,Board_61-Net-(H1-Pad1)*%
X172500000Y-76000500D03*
D11*
X172500000Y-76000500D03*
%TD*%
D10*
%TO.P,H2,1,1_1*%
%TO.N,Board_40-Net-(H2-Pad1)*%
X180500000Y-58000500D03*
D11*
X180500000Y-58000500D03*
%TD*%
D10*
%TO.P,H2,1,1_1*%
%TO.N,Board_67-Net-(H2-Pad1)*%
X166500000Y-82000500D03*
D11*
X166500000Y-82000500D03*
%TD*%
D10*
%TO.P,H1,1,1_1*%
%TO.N,Board_18-Net-(H1-Pad1)*%
X158500000Y-40000500D03*
D11*
X158500000Y-40000500D03*
%TD*%
D10*
%TO.P,H1,1,1_1*%
%TO.N,Board_88-Net-(H1-Pad1)*%
X158500000Y-100000500D03*
D11*
X158500000Y-100000500D03*
%TD*%
D10*
%TO.P,H2,1,1_1*%
%TO.N,Board_74-Net-(H2-Pad1)*%
X166500000Y-88000500D03*
D11*
X166500000Y-88000500D03*
%TD*%
D10*
%TO.P,H2,1,1_1*%
%TO.N,Board_71-Net-(H2-Pad1)*%
X124500000Y-88000500D03*
D11*
X124500000Y-88000500D03*
%TD*%
D10*
%TO.P,H1,1,1_1*%
%TO.N,Board_84-Net-(H1-Pad1)*%
X102500000Y-100000500D03*
D11*
X102500000Y-100000500D03*
%TD*%
D10*
%TO.P,H1,1,1_1*%
%TO.N,Board_3-Net-(H1-Pad1)*%
X144500000Y-28000500D03*
D11*
X144500000Y-28000500D03*
%TD*%
D10*
%TO.P,H1,1,1_1*%
%TO.N,Board_35-Net-(H1-Pad1)*%
X102500000Y-58000500D03*
D11*
X102500000Y-58000500D03*
%TD*%
D10*
%TO.P,H1,1,1_1*%
%TO.N,Board_15-Net-(H1-Pad1)*%
X116500000Y-40000500D03*
D11*
X116500000Y-40000500D03*
%TD*%
D10*
%TO.P,H2,1,1_1*%
%TO.N,Board_49-Net-(H2-Pad1)*%
X110500000Y-70000500D03*
D11*
X110500000Y-70000500D03*
%TD*%
D10*
%TO.P,H1,1,1_1*%
%TO.N,Board_37-Net-(H1-Pad1)*%
X130500000Y-58000500D03*
D11*
X130500000Y-58000500D03*
%TD*%
D10*
%TO.P,H2,1,1_1*%
%TO.N,Board_70-Net-(H2-Pad1)*%
X110500000Y-88000500D03*
D11*
X110500000Y-88000500D03*
%TD*%
D10*
%TO.P,H2,1,1_1*%
%TO.N,Board_77-Net-(H2-Pad1)*%
X110500000Y-94000500D03*
D11*
X110500000Y-94000500D03*
%TD*%
D10*
%TO.P,H2,1,1_1*%
%TO.N,Board_84-Net-(H2-Pad1)*%
X110500000Y-100000500D03*
D11*
X110500000Y-100000500D03*
%TD*%
D10*
%TO.P,H2,1,1_1*%
%TO.N,Board_31-Net-(H2-Pad1)*%
X152500000Y-52000500D03*
D11*
X152500000Y-52000500D03*
%TD*%
D10*
%TO.P,H1,1,1_1*%
%TO.N,Board_81-Net-(H1-Pad1)*%
X158500000Y-94000500D03*
D11*
X158500000Y-94000500D03*
%TD*%
D10*
%TO.P,H1,1,1_1*%
%TO.N,Board_68-Net-(H1-Pad1)*%
X172500000Y-82000500D03*
D11*
X172500000Y-82000500D03*
%TD*%
M02*
