%TF.GenerationSoftware,KiCad,Pcbnew,10.0.0*%
%TF.CreationDate,2026-03-26T01:03:15+01:00*%
%TF.ProjectId,resistor_0603_order,72657369-7374-46f7-925f-303630335f6f,rev?*%
%TF.SameCoordinates,Original*%
%TF.FileFunction,Legend,Top*%
%TF.FilePolarity,Positive*%
%FSLAX46Y46*%
G04 Gerber Fmt 4.6, Leading zero omitted, Abs format (unit mm)*
G04 Created by KiCad (PCBNEW 10.0.0) date 2026-03-26 01:03:15*
%MOMM*%
%LPD*%
G01*
G04 APERTURE LIST*
%ADD10C,0.087500*%
%ADD11C,0.120000*%
G04 APERTURE END LIST*
D10*
X188466666Y-107876950D02*
X188433333Y-107843616D01*
X188433333Y-107843616D02*
X188366666Y-107743616D01*
X188366666Y-107743616D02*
X188333333Y-107676950D01*
X188333333Y-107676950D02*
X188300000Y-107576950D01*
X188300000Y-107576950D02*
X188266666Y-107410283D01*
X188266666Y-107410283D02*
X188266666Y-107276950D01*
X188266666Y-107276950D02*
X188300000Y-107110283D01*
X188300000Y-107110283D02*
X188333333Y-107010283D01*
X188333333Y-107010283D02*
X188366666Y-106943616D01*
X188366666Y-106943616D02*
X188433333Y-106843616D01*
X188433333Y-106843616D02*
X188466666Y-106810283D01*
X188733333Y-107343616D02*
X189266667Y-107343616D01*
X189000000Y-107610283D02*
X189000000Y-107076950D01*
X189533334Y-107876950D02*
X189566667Y-107843616D01*
X189566667Y-107843616D02*
X189633334Y-107743616D01*
X189633334Y-107743616D02*
X189666667Y-107676950D01*
X189666667Y-107676950D02*
X189700000Y-107576950D01*
X189700000Y-107576950D02*
X189733334Y-107410283D01*
X189733334Y-107410283D02*
X189733334Y-107276950D01*
X189733334Y-107276950D02*
X189700000Y-107110283D01*
X189700000Y-107110283D02*
X189666667Y-107010283D01*
X189666667Y-107010283D02*
X189633334Y-106943616D01*
X189633334Y-106943616D02*
X189566667Y-106843616D01*
X189566667Y-106843616D02*
X189533334Y-106810283D01*
X188466666Y-101876950D02*
X188433333Y-101843616D01*
X188433333Y-101843616D02*
X188366666Y-101743616D01*
X188366666Y-101743616D02*
X188333333Y-101676950D01*
X188333333Y-101676950D02*
X188300000Y-101576950D01*
X188300000Y-101576950D02*
X188266666Y-101410283D01*
X188266666Y-101410283D02*
X188266666Y-101276950D01*
X188266666Y-101276950D02*
X188300000Y-101110283D01*
X188300000Y-101110283D02*
X188333333Y-101010283D01*
X188333333Y-101010283D02*
X188366666Y-100943616D01*
X188366666Y-100943616D02*
X188433333Y-100843616D01*
X188433333Y-100843616D02*
X188466666Y-100810283D01*
X188733333Y-101343616D02*
X189266667Y-101343616D01*
X189000000Y-101610283D02*
X189000000Y-101076950D01*
X189533334Y-101876950D02*
X189566667Y-101843616D01*
X189566667Y-101843616D02*
X189633334Y-101743616D01*
X189633334Y-101743616D02*
X189666667Y-101676950D01*
X189666667Y-101676950D02*
X189700000Y-101576950D01*
X189700000Y-101576950D02*
X189733334Y-101410283D01*
X189733334Y-101410283D02*
X189733334Y-101276950D01*
X189733334Y-101276950D02*
X189700000Y-101110283D01*
X189700000Y-101110283D02*
X189666667Y-101010283D01*
X189666667Y-101010283D02*
X189633334Y-100943616D01*
X189633334Y-100943616D02*
X189566667Y-100843616D01*
X189566667Y-100843616D02*
X189533334Y-100810283D01*
X188466666Y-95876950D02*
X188433333Y-95843616D01*
X188433333Y-95843616D02*
X188366666Y-95743616D01*
X188366666Y-95743616D02*
X188333333Y-95676950D01*
X188333333Y-95676950D02*
X188300000Y-95576950D01*
X188300000Y-95576950D02*
X188266666Y-95410283D01*
X188266666Y-95410283D02*
X188266666Y-95276950D01*
X188266666Y-95276950D02*
X188300000Y-95110283D01*
X188300000Y-95110283D02*
X188333333Y-95010283D01*
X188333333Y-95010283D02*
X188366666Y-94943616D01*
X188366666Y-94943616D02*
X188433333Y-94843616D01*
X188433333Y-94843616D02*
X188466666Y-94810283D01*
X188733333Y-95343616D02*
X189266667Y-95343616D01*
X189000000Y-95610283D02*
X189000000Y-95076950D01*
X189533334Y-95876950D02*
X189566667Y-95843616D01*
X189566667Y-95843616D02*
X189633334Y-95743616D01*
X189633334Y-95743616D02*
X189666667Y-95676950D01*
X189666667Y-95676950D02*
X189700000Y-95576950D01*
X189700000Y-95576950D02*
X189733334Y-95410283D01*
X189733334Y-95410283D02*
X189733334Y-95276950D01*
X189733334Y-95276950D02*
X189700000Y-95110283D01*
X189700000Y-95110283D02*
X189666667Y-95010283D01*
X189666667Y-95010283D02*
X189633334Y-94943616D01*
X189633334Y-94943616D02*
X189566667Y-94843616D01*
X189566667Y-94843616D02*
X189533334Y-94810283D01*
X188466666Y-89876950D02*
X188433333Y-89843616D01*
X188433333Y-89843616D02*
X188366666Y-89743616D01*
X188366666Y-89743616D02*
X188333333Y-89676950D01*
X188333333Y-89676950D02*
X188300000Y-89576950D01*
X188300000Y-89576950D02*
X188266666Y-89410283D01*
X188266666Y-89410283D02*
X188266666Y-89276950D01*
X188266666Y-89276950D02*
X188300000Y-89110283D01*
X188300000Y-89110283D02*
X188333333Y-89010283D01*
X188333333Y-89010283D02*
X188366666Y-88943616D01*
X188366666Y-88943616D02*
X188433333Y-88843616D01*
X188433333Y-88843616D02*
X188466666Y-88810283D01*
X188733333Y-89343616D02*
X189266667Y-89343616D01*
X189000000Y-89610283D02*
X189000000Y-89076950D01*
X189533334Y-89876950D02*
X189566667Y-89843616D01*
X189566667Y-89843616D02*
X189633334Y-89743616D01*
X189633334Y-89743616D02*
X189666667Y-89676950D01*
X189666667Y-89676950D02*
X189700000Y-89576950D01*
X189700000Y-89576950D02*
X189733334Y-89410283D01*
X189733334Y-89410283D02*
X189733334Y-89276950D01*
X189733334Y-89276950D02*
X189700000Y-89110283D01*
X189700000Y-89110283D02*
X189666667Y-89010283D01*
X189666667Y-89010283D02*
X189633334Y-88943616D01*
X189633334Y-88943616D02*
X189566667Y-88843616D01*
X189566667Y-88843616D02*
X189533334Y-88810283D01*
X188466666Y-83876950D02*
X188433333Y-83843616D01*
X188433333Y-83843616D02*
X188366666Y-83743616D01*
X188366666Y-83743616D02*
X188333333Y-83676950D01*
X188333333Y-83676950D02*
X188300000Y-83576950D01*
X188300000Y-83576950D02*
X188266666Y-83410283D01*
X188266666Y-83410283D02*
X188266666Y-83276950D01*
X188266666Y-83276950D02*
X188300000Y-83110283D01*
X188300000Y-83110283D02*
X188333333Y-83010283D01*
X188333333Y-83010283D02*
X188366666Y-82943616D01*
X188366666Y-82943616D02*
X188433333Y-82843616D01*
X188433333Y-82843616D02*
X188466666Y-82810283D01*
X188733333Y-83343616D02*
X189266667Y-83343616D01*
X189000000Y-83610283D02*
X189000000Y-83076950D01*
X189533334Y-83876950D02*
X189566667Y-83843616D01*
X189566667Y-83843616D02*
X189633334Y-83743616D01*
X189633334Y-83743616D02*
X189666667Y-83676950D01*
X189666667Y-83676950D02*
X189700000Y-83576950D01*
X189700000Y-83576950D02*
X189733334Y-83410283D01*
X189733334Y-83410283D02*
X189733334Y-83276950D01*
X189733334Y-83276950D02*
X189700000Y-83110283D01*
X189700000Y-83110283D02*
X189666667Y-83010283D01*
X189666667Y-83010283D02*
X189633334Y-82943616D01*
X189633334Y-82943616D02*
X189566667Y-82843616D01*
X189566667Y-82843616D02*
X189533334Y-82810283D01*
X188466666Y-77876950D02*
X188433333Y-77843616D01*
X188433333Y-77843616D02*
X188366666Y-77743616D01*
X188366666Y-77743616D02*
X188333333Y-77676950D01*
X188333333Y-77676950D02*
X188300000Y-77576950D01*
X188300000Y-77576950D02*
X188266666Y-77410283D01*
X188266666Y-77410283D02*
X188266666Y-77276950D01*
X188266666Y-77276950D02*
X188300000Y-77110283D01*
X188300000Y-77110283D02*
X188333333Y-77010283D01*
X188333333Y-77010283D02*
X188366666Y-76943616D01*
X188366666Y-76943616D02*
X188433333Y-76843616D01*
X188433333Y-76843616D02*
X188466666Y-76810283D01*
X188733333Y-77343616D02*
X189266667Y-77343616D01*
X189000000Y-77610283D02*
X189000000Y-77076950D01*
X189533334Y-77876950D02*
X189566667Y-77843616D01*
X189566667Y-77843616D02*
X189633334Y-77743616D01*
X189633334Y-77743616D02*
X189666667Y-77676950D01*
X189666667Y-77676950D02*
X189700000Y-77576950D01*
X189700000Y-77576950D02*
X189733334Y-77410283D01*
X189733334Y-77410283D02*
X189733334Y-77276950D01*
X189733334Y-77276950D02*
X189700000Y-77110283D01*
X189700000Y-77110283D02*
X189666667Y-77010283D01*
X189666667Y-77010283D02*
X189633334Y-76943616D01*
X189633334Y-76943616D02*
X189566667Y-76843616D01*
X189566667Y-76843616D02*
X189533334Y-76810283D01*
X188466666Y-71876950D02*
X188433333Y-71843616D01*
X188433333Y-71843616D02*
X188366666Y-71743616D01*
X188366666Y-71743616D02*
X188333333Y-71676950D01*
X188333333Y-71676950D02*
X188300000Y-71576950D01*
X188300000Y-71576950D02*
X188266666Y-71410283D01*
X188266666Y-71410283D02*
X188266666Y-71276950D01*
X188266666Y-71276950D02*
X188300000Y-71110283D01*
X188300000Y-71110283D02*
X188333333Y-71010283D01*
X188333333Y-71010283D02*
X188366666Y-70943616D01*
X188366666Y-70943616D02*
X188433333Y-70843616D01*
X188433333Y-70843616D02*
X188466666Y-70810283D01*
X188733333Y-71343616D02*
X189266667Y-71343616D01*
X189000000Y-71610283D02*
X189000000Y-71076950D01*
X189533334Y-71876950D02*
X189566667Y-71843616D01*
X189566667Y-71843616D02*
X189633334Y-71743616D01*
X189633334Y-71743616D02*
X189666667Y-71676950D01*
X189666667Y-71676950D02*
X189700000Y-71576950D01*
X189700000Y-71576950D02*
X189733334Y-71410283D01*
X189733334Y-71410283D02*
X189733334Y-71276950D01*
X189733334Y-71276950D02*
X189700000Y-71110283D01*
X189700000Y-71110283D02*
X189666667Y-71010283D01*
X189666667Y-71010283D02*
X189633334Y-70943616D01*
X189633334Y-70943616D02*
X189566667Y-70843616D01*
X189566667Y-70843616D02*
X189533334Y-70810283D01*
X188466666Y-65876950D02*
X188433333Y-65843616D01*
X188433333Y-65843616D02*
X188366666Y-65743616D01*
X188366666Y-65743616D02*
X188333333Y-65676950D01*
X188333333Y-65676950D02*
X188300000Y-65576950D01*
X188300000Y-65576950D02*
X188266666Y-65410283D01*
X188266666Y-65410283D02*
X188266666Y-65276950D01*
X188266666Y-65276950D02*
X188300000Y-65110283D01*
X188300000Y-65110283D02*
X188333333Y-65010283D01*
X188333333Y-65010283D02*
X188366666Y-64943616D01*
X188366666Y-64943616D02*
X188433333Y-64843616D01*
X188433333Y-64843616D02*
X188466666Y-64810283D01*
X188733333Y-65343616D02*
X189266667Y-65343616D01*
X189000000Y-65610283D02*
X189000000Y-65076950D01*
X189533334Y-65876950D02*
X189566667Y-65843616D01*
X189566667Y-65843616D02*
X189633334Y-65743616D01*
X189633334Y-65743616D02*
X189666667Y-65676950D01*
X189666667Y-65676950D02*
X189700000Y-65576950D01*
X189700000Y-65576950D02*
X189733334Y-65410283D01*
X189733334Y-65410283D02*
X189733334Y-65276950D01*
X189733334Y-65276950D02*
X189700000Y-65110283D01*
X189700000Y-65110283D02*
X189666667Y-65010283D01*
X189666667Y-65010283D02*
X189633334Y-64943616D01*
X189633334Y-64943616D02*
X189566667Y-64843616D01*
X189566667Y-64843616D02*
X189533334Y-64810283D01*
X188466666Y-59876950D02*
X188433333Y-59843616D01*
X188433333Y-59843616D02*
X188366666Y-59743616D01*
X188366666Y-59743616D02*
X188333333Y-59676950D01*
X188333333Y-59676950D02*
X188300000Y-59576950D01*
X188300000Y-59576950D02*
X188266666Y-59410283D01*
X188266666Y-59410283D02*
X188266666Y-59276950D01*
X188266666Y-59276950D02*
X188300000Y-59110283D01*
X188300000Y-59110283D02*
X188333333Y-59010283D01*
X188333333Y-59010283D02*
X188366666Y-58943616D01*
X188366666Y-58943616D02*
X188433333Y-58843616D01*
X188433333Y-58843616D02*
X188466666Y-58810283D01*
X188733333Y-59343616D02*
X189266667Y-59343616D01*
X189000000Y-59610283D02*
X189000000Y-59076950D01*
X189533334Y-59876950D02*
X189566667Y-59843616D01*
X189566667Y-59843616D02*
X189633334Y-59743616D01*
X189633334Y-59743616D02*
X189666667Y-59676950D01*
X189666667Y-59676950D02*
X189700000Y-59576950D01*
X189700000Y-59576950D02*
X189733334Y-59410283D01*
X189733334Y-59410283D02*
X189733334Y-59276950D01*
X189733334Y-59276950D02*
X189700000Y-59110283D01*
X189700000Y-59110283D02*
X189666667Y-59010283D01*
X189666667Y-59010283D02*
X189633334Y-58943616D01*
X189633334Y-58943616D02*
X189566667Y-58843616D01*
X189566667Y-58843616D02*
X189533334Y-58810283D01*
X188466666Y-53876950D02*
X188433333Y-53843616D01*
X188433333Y-53843616D02*
X188366666Y-53743616D01*
X188366666Y-53743616D02*
X188333333Y-53676950D01*
X188333333Y-53676950D02*
X188300000Y-53576950D01*
X188300000Y-53576950D02*
X188266666Y-53410283D01*
X188266666Y-53410283D02*
X188266666Y-53276950D01*
X188266666Y-53276950D02*
X188300000Y-53110283D01*
X188300000Y-53110283D02*
X188333333Y-53010283D01*
X188333333Y-53010283D02*
X188366666Y-52943616D01*
X188366666Y-52943616D02*
X188433333Y-52843616D01*
X188433333Y-52843616D02*
X188466666Y-52810283D01*
X188733333Y-53343616D02*
X189266667Y-53343616D01*
X189000000Y-53610283D02*
X189000000Y-53076950D01*
X189533334Y-53876950D02*
X189566667Y-53843616D01*
X189566667Y-53843616D02*
X189633334Y-53743616D01*
X189633334Y-53743616D02*
X189666667Y-53676950D01*
X189666667Y-53676950D02*
X189700000Y-53576950D01*
X189700000Y-53576950D02*
X189733334Y-53410283D01*
X189733334Y-53410283D02*
X189733334Y-53276950D01*
X189733334Y-53276950D02*
X189700000Y-53110283D01*
X189700000Y-53110283D02*
X189666667Y-53010283D01*
X189666667Y-53010283D02*
X189633334Y-52943616D01*
X189633334Y-52943616D02*
X189566667Y-52843616D01*
X189566667Y-52843616D02*
X189533334Y-52810283D01*
X188466666Y-47876950D02*
X188433333Y-47843616D01*
X188433333Y-47843616D02*
X188366666Y-47743616D01*
X188366666Y-47743616D02*
X188333333Y-47676950D01*
X188333333Y-47676950D02*
X188300000Y-47576950D01*
X188300000Y-47576950D02*
X188266666Y-47410283D01*
X188266666Y-47410283D02*
X188266666Y-47276950D01*
X188266666Y-47276950D02*
X188300000Y-47110283D01*
X188300000Y-47110283D02*
X188333333Y-47010283D01*
X188333333Y-47010283D02*
X188366666Y-46943616D01*
X188366666Y-46943616D02*
X188433333Y-46843616D01*
X188433333Y-46843616D02*
X188466666Y-46810283D01*
X188733333Y-47343616D02*
X189266667Y-47343616D01*
X189000000Y-47610283D02*
X189000000Y-47076950D01*
X189533334Y-47876950D02*
X189566667Y-47843616D01*
X189566667Y-47843616D02*
X189633334Y-47743616D01*
X189633334Y-47743616D02*
X189666667Y-47676950D01*
X189666667Y-47676950D02*
X189700000Y-47576950D01*
X189700000Y-47576950D02*
X189733334Y-47410283D01*
X189733334Y-47410283D02*
X189733334Y-47276950D01*
X189733334Y-47276950D02*
X189700000Y-47110283D01*
X189700000Y-47110283D02*
X189666667Y-47010283D01*
X189666667Y-47010283D02*
X189633334Y-46943616D01*
X189633334Y-46943616D02*
X189566667Y-46843616D01*
X189566667Y-46843616D02*
X189533334Y-46810283D01*
X188466666Y-41876950D02*
X188433333Y-41843616D01*
X188433333Y-41843616D02*
X188366666Y-41743616D01*
X188366666Y-41743616D02*
X188333333Y-41676950D01*
X188333333Y-41676950D02*
X188300000Y-41576950D01*
X188300000Y-41576950D02*
X188266666Y-41410283D01*
X188266666Y-41410283D02*
X188266666Y-41276950D01*
X188266666Y-41276950D02*
X188300000Y-41110283D01*
X188300000Y-41110283D02*
X188333333Y-41010283D01*
X188333333Y-41010283D02*
X188366666Y-40943616D01*
X188366666Y-40943616D02*
X188433333Y-40843616D01*
X188433333Y-40843616D02*
X188466666Y-40810283D01*
X188733333Y-41343616D02*
X189266667Y-41343616D01*
X189000000Y-41610283D02*
X189000000Y-41076950D01*
X189533334Y-41876950D02*
X189566667Y-41843616D01*
X189566667Y-41843616D02*
X189633334Y-41743616D01*
X189633334Y-41743616D02*
X189666667Y-41676950D01*
X189666667Y-41676950D02*
X189700000Y-41576950D01*
X189700000Y-41576950D02*
X189733334Y-41410283D01*
X189733334Y-41410283D02*
X189733334Y-41276950D01*
X189733334Y-41276950D02*
X189700000Y-41110283D01*
X189700000Y-41110283D02*
X189666667Y-41010283D01*
X189666667Y-41010283D02*
X189633334Y-40943616D01*
X189633334Y-40943616D02*
X189566667Y-40843616D01*
X189566667Y-40843616D02*
X189533334Y-40810283D01*
X188466666Y-35876950D02*
X188433333Y-35843616D01*
X188433333Y-35843616D02*
X188366666Y-35743616D01*
X188366666Y-35743616D02*
X188333333Y-35676950D01*
X188333333Y-35676950D02*
X188300000Y-35576950D01*
X188300000Y-35576950D02*
X188266666Y-35410283D01*
X188266666Y-35410283D02*
X188266666Y-35276950D01*
X188266666Y-35276950D02*
X188300000Y-35110283D01*
X188300000Y-35110283D02*
X188333333Y-35010283D01*
X188333333Y-35010283D02*
X188366666Y-34943616D01*
X188366666Y-34943616D02*
X188433333Y-34843616D01*
X188433333Y-34843616D02*
X188466666Y-34810283D01*
X188733333Y-35343616D02*
X189266667Y-35343616D01*
X189000000Y-35610283D02*
X189000000Y-35076950D01*
X189533334Y-35876950D02*
X189566667Y-35843616D01*
X189566667Y-35843616D02*
X189633334Y-35743616D01*
X189633334Y-35743616D02*
X189666667Y-35676950D01*
X189666667Y-35676950D02*
X189700000Y-35576950D01*
X189700000Y-35576950D02*
X189733334Y-35410283D01*
X189733334Y-35410283D02*
X189733334Y-35276950D01*
X189733334Y-35276950D02*
X189700000Y-35110283D01*
X189700000Y-35110283D02*
X189666667Y-35010283D01*
X189666667Y-35010283D02*
X189633334Y-34943616D01*
X189633334Y-34943616D02*
X189566667Y-34843616D01*
X189566667Y-34843616D02*
X189533334Y-34810283D01*
X188466666Y-29876950D02*
X188433333Y-29843616D01*
X188433333Y-29843616D02*
X188366666Y-29743616D01*
X188366666Y-29743616D02*
X188333333Y-29676950D01*
X188333333Y-29676950D02*
X188300000Y-29576950D01*
X188300000Y-29576950D02*
X188266666Y-29410283D01*
X188266666Y-29410283D02*
X188266666Y-29276950D01*
X188266666Y-29276950D02*
X188300000Y-29110283D01*
X188300000Y-29110283D02*
X188333333Y-29010283D01*
X188333333Y-29010283D02*
X188366666Y-28943616D01*
X188366666Y-28943616D02*
X188433333Y-28843616D01*
X188433333Y-28843616D02*
X188466666Y-28810283D01*
X188733333Y-29343616D02*
X189266667Y-29343616D01*
X189000000Y-29610283D02*
X189000000Y-29076950D01*
X189533334Y-29876950D02*
X189566667Y-29843616D01*
X189566667Y-29843616D02*
X189633334Y-29743616D01*
X189633334Y-29743616D02*
X189666667Y-29676950D01*
X189666667Y-29676950D02*
X189700000Y-29576950D01*
X189700000Y-29576950D02*
X189733334Y-29410283D01*
X189733334Y-29410283D02*
X189733334Y-29276950D01*
X189733334Y-29276950D02*
X189700000Y-29110283D01*
X189700000Y-29110283D02*
X189666667Y-29010283D01*
X189666667Y-29010283D02*
X189633334Y-28943616D01*
X189633334Y-28943616D02*
X189566667Y-28843616D01*
X189566667Y-28843616D02*
X189533334Y-28810283D01*
X174466666Y-107876950D02*
X174433333Y-107843616D01*
X174433333Y-107843616D02*
X174366666Y-107743616D01*
X174366666Y-107743616D02*
X174333333Y-107676950D01*
X174333333Y-107676950D02*
X174300000Y-107576950D01*
X174300000Y-107576950D02*
X174266666Y-107410283D01*
X174266666Y-107410283D02*
X174266666Y-107276950D01*
X174266666Y-107276950D02*
X174300000Y-107110283D01*
X174300000Y-107110283D02*
X174333333Y-107010283D01*
X174333333Y-107010283D02*
X174366666Y-106943616D01*
X174366666Y-106943616D02*
X174433333Y-106843616D01*
X174433333Y-106843616D02*
X174466666Y-106810283D01*
X174733333Y-107343616D02*
X175266667Y-107343616D01*
X175000000Y-107610283D02*
X175000000Y-107076950D01*
X175533334Y-107876950D02*
X175566667Y-107843616D01*
X175566667Y-107843616D02*
X175633334Y-107743616D01*
X175633334Y-107743616D02*
X175666667Y-107676950D01*
X175666667Y-107676950D02*
X175700000Y-107576950D01*
X175700000Y-107576950D02*
X175733334Y-107410283D01*
X175733334Y-107410283D02*
X175733334Y-107276950D01*
X175733334Y-107276950D02*
X175700000Y-107110283D01*
X175700000Y-107110283D02*
X175666667Y-107010283D01*
X175666667Y-107010283D02*
X175633334Y-106943616D01*
X175633334Y-106943616D02*
X175566667Y-106843616D01*
X175566667Y-106843616D02*
X175533334Y-106810283D01*
X174466666Y-101876950D02*
X174433333Y-101843616D01*
X174433333Y-101843616D02*
X174366666Y-101743616D01*
X174366666Y-101743616D02*
X174333333Y-101676950D01*
X174333333Y-101676950D02*
X174300000Y-101576950D01*
X174300000Y-101576950D02*
X174266666Y-101410283D01*
X174266666Y-101410283D02*
X174266666Y-101276950D01*
X174266666Y-101276950D02*
X174300000Y-101110283D01*
X174300000Y-101110283D02*
X174333333Y-101010283D01*
X174333333Y-101010283D02*
X174366666Y-100943616D01*
X174366666Y-100943616D02*
X174433333Y-100843616D01*
X174433333Y-100843616D02*
X174466666Y-100810283D01*
X174733333Y-101343616D02*
X175266667Y-101343616D01*
X175000000Y-101610283D02*
X175000000Y-101076950D01*
X175533334Y-101876950D02*
X175566667Y-101843616D01*
X175566667Y-101843616D02*
X175633334Y-101743616D01*
X175633334Y-101743616D02*
X175666667Y-101676950D01*
X175666667Y-101676950D02*
X175700000Y-101576950D01*
X175700000Y-101576950D02*
X175733334Y-101410283D01*
X175733334Y-101410283D02*
X175733334Y-101276950D01*
X175733334Y-101276950D02*
X175700000Y-101110283D01*
X175700000Y-101110283D02*
X175666667Y-101010283D01*
X175666667Y-101010283D02*
X175633334Y-100943616D01*
X175633334Y-100943616D02*
X175566667Y-100843616D01*
X175566667Y-100843616D02*
X175533334Y-100810283D01*
X174466666Y-95876950D02*
X174433333Y-95843616D01*
X174433333Y-95843616D02*
X174366666Y-95743616D01*
X174366666Y-95743616D02*
X174333333Y-95676950D01*
X174333333Y-95676950D02*
X174300000Y-95576950D01*
X174300000Y-95576950D02*
X174266666Y-95410283D01*
X174266666Y-95410283D02*
X174266666Y-95276950D01*
X174266666Y-95276950D02*
X174300000Y-95110283D01*
X174300000Y-95110283D02*
X174333333Y-95010283D01*
X174333333Y-95010283D02*
X174366666Y-94943616D01*
X174366666Y-94943616D02*
X174433333Y-94843616D01*
X174433333Y-94843616D02*
X174466666Y-94810283D01*
X174733333Y-95343616D02*
X175266667Y-95343616D01*
X175000000Y-95610283D02*
X175000000Y-95076950D01*
X175533334Y-95876950D02*
X175566667Y-95843616D01*
X175566667Y-95843616D02*
X175633334Y-95743616D01*
X175633334Y-95743616D02*
X175666667Y-95676950D01*
X175666667Y-95676950D02*
X175700000Y-95576950D01*
X175700000Y-95576950D02*
X175733334Y-95410283D01*
X175733334Y-95410283D02*
X175733334Y-95276950D01*
X175733334Y-95276950D02*
X175700000Y-95110283D01*
X175700000Y-95110283D02*
X175666667Y-95010283D01*
X175666667Y-95010283D02*
X175633334Y-94943616D01*
X175633334Y-94943616D02*
X175566667Y-94843616D01*
X175566667Y-94843616D02*
X175533334Y-94810283D01*
X174466666Y-89876950D02*
X174433333Y-89843616D01*
X174433333Y-89843616D02*
X174366666Y-89743616D01*
X174366666Y-89743616D02*
X174333333Y-89676950D01*
X174333333Y-89676950D02*
X174300000Y-89576950D01*
X174300000Y-89576950D02*
X174266666Y-89410283D01*
X174266666Y-89410283D02*
X174266666Y-89276950D01*
X174266666Y-89276950D02*
X174300000Y-89110283D01*
X174300000Y-89110283D02*
X174333333Y-89010283D01*
X174333333Y-89010283D02*
X174366666Y-88943616D01*
X174366666Y-88943616D02*
X174433333Y-88843616D01*
X174433333Y-88843616D02*
X174466666Y-88810283D01*
X174733333Y-89343616D02*
X175266667Y-89343616D01*
X175000000Y-89610283D02*
X175000000Y-89076950D01*
X175533334Y-89876950D02*
X175566667Y-89843616D01*
X175566667Y-89843616D02*
X175633334Y-89743616D01*
X175633334Y-89743616D02*
X175666667Y-89676950D01*
X175666667Y-89676950D02*
X175700000Y-89576950D01*
X175700000Y-89576950D02*
X175733334Y-89410283D01*
X175733334Y-89410283D02*
X175733334Y-89276950D01*
X175733334Y-89276950D02*
X175700000Y-89110283D01*
X175700000Y-89110283D02*
X175666667Y-89010283D01*
X175666667Y-89010283D02*
X175633334Y-88943616D01*
X175633334Y-88943616D02*
X175566667Y-88843616D01*
X175566667Y-88843616D02*
X175533334Y-88810283D01*
X174466666Y-83876950D02*
X174433333Y-83843616D01*
X174433333Y-83843616D02*
X174366666Y-83743616D01*
X174366666Y-83743616D02*
X174333333Y-83676950D01*
X174333333Y-83676950D02*
X174300000Y-83576950D01*
X174300000Y-83576950D02*
X174266666Y-83410283D01*
X174266666Y-83410283D02*
X174266666Y-83276950D01*
X174266666Y-83276950D02*
X174300000Y-83110283D01*
X174300000Y-83110283D02*
X174333333Y-83010283D01*
X174333333Y-83010283D02*
X174366666Y-82943616D01*
X174366666Y-82943616D02*
X174433333Y-82843616D01*
X174433333Y-82843616D02*
X174466666Y-82810283D01*
X174733333Y-83343616D02*
X175266667Y-83343616D01*
X175000000Y-83610283D02*
X175000000Y-83076950D01*
X175533334Y-83876950D02*
X175566667Y-83843616D01*
X175566667Y-83843616D02*
X175633334Y-83743616D01*
X175633334Y-83743616D02*
X175666667Y-83676950D01*
X175666667Y-83676950D02*
X175700000Y-83576950D01*
X175700000Y-83576950D02*
X175733334Y-83410283D01*
X175733334Y-83410283D02*
X175733334Y-83276950D01*
X175733334Y-83276950D02*
X175700000Y-83110283D01*
X175700000Y-83110283D02*
X175666667Y-83010283D01*
X175666667Y-83010283D02*
X175633334Y-82943616D01*
X175633334Y-82943616D02*
X175566667Y-82843616D01*
X175566667Y-82843616D02*
X175533334Y-82810283D01*
X174466666Y-77876950D02*
X174433333Y-77843616D01*
X174433333Y-77843616D02*
X174366666Y-77743616D01*
X174366666Y-77743616D02*
X174333333Y-77676950D01*
X174333333Y-77676950D02*
X174300000Y-77576950D01*
X174300000Y-77576950D02*
X174266666Y-77410283D01*
X174266666Y-77410283D02*
X174266666Y-77276950D01*
X174266666Y-77276950D02*
X174300000Y-77110283D01*
X174300000Y-77110283D02*
X174333333Y-77010283D01*
X174333333Y-77010283D02*
X174366666Y-76943616D01*
X174366666Y-76943616D02*
X174433333Y-76843616D01*
X174433333Y-76843616D02*
X174466666Y-76810283D01*
X174733333Y-77343616D02*
X175266667Y-77343616D01*
X175000000Y-77610283D02*
X175000000Y-77076950D01*
X175533334Y-77876950D02*
X175566667Y-77843616D01*
X175566667Y-77843616D02*
X175633334Y-77743616D01*
X175633334Y-77743616D02*
X175666667Y-77676950D01*
X175666667Y-77676950D02*
X175700000Y-77576950D01*
X175700000Y-77576950D02*
X175733334Y-77410283D01*
X175733334Y-77410283D02*
X175733334Y-77276950D01*
X175733334Y-77276950D02*
X175700000Y-77110283D01*
X175700000Y-77110283D02*
X175666667Y-77010283D01*
X175666667Y-77010283D02*
X175633334Y-76943616D01*
X175633334Y-76943616D02*
X175566667Y-76843616D01*
X175566667Y-76843616D02*
X175533334Y-76810283D01*
X174466666Y-71876950D02*
X174433333Y-71843616D01*
X174433333Y-71843616D02*
X174366666Y-71743616D01*
X174366666Y-71743616D02*
X174333333Y-71676950D01*
X174333333Y-71676950D02*
X174300000Y-71576950D01*
X174300000Y-71576950D02*
X174266666Y-71410283D01*
X174266666Y-71410283D02*
X174266666Y-71276950D01*
X174266666Y-71276950D02*
X174300000Y-71110283D01*
X174300000Y-71110283D02*
X174333333Y-71010283D01*
X174333333Y-71010283D02*
X174366666Y-70943616D01*
X174366666Y-70943616D02*
X174433333Y-70843616D01*
X174433333Y-70843616D02*
X174466666Y-70810283D01*
X174733333Y-71343616D02*
X175266667Y-71343616D01*
X175000000Y-71610283D02*
X175000000Y-71076950D01*
X175533334Y-71876950D02*
X175566667Y-71843616D01*
X175566667Y-71843616D02*
X175633334Y-71743616D01*
X175633334Y-71743616D02*
X175666667Y-71676950D01*
X175666667Y-71676950D02*
X175700000Y-71576950D01*
X175700000Y-71576950D02*
X175733334Y-71410283D01*
X175733334Y-71410283D02*
X175733334Y-71276950D01*
X175733334Y-71276950D02*
X175700000Y-71110283D01*
X175700000Y-71110283D02*
X175666667Y-71010283D01*
X175666667Y-71010283D02*
X175633334Y-70943616D01*
X175633334Y-70943616D02*
X175566667Y-70843616D01*
X175566667Y-70843616D02*
X175533334Y-70810283D01*
X174466666Y-65876950D02*
X174433333Y-65843616D01*
X174433333Y-65843616D02*
X174366666Y-65743616D01*
X174366666Y-65743616D02*
X174333333Y-65676950D01*
X174333333Y-65676950D02*
X174300000Y-65576950D01*
X174300000Y-65576950D02*
X174266666Y-65410283D01*
X174266666Y-65410283D02*
X174266666Y-65276950D01*
X174266666Y-65276950D02*
X174300000Y-65110283D01*
X174300000Y-65110283D02*
X174333333Y-65010283D01*
X174333333Y-65010283D02*
X174366666Y-64943616D01*
X174366666Y-64943616D02*
X174433333Y-64843616D01*
X174433333Y-64843616D02*
X174466666Y-64810283D01*
X174733333Y-65343616D02*
X175266667Y-65343616D01*
X175000000Y-65610283D02*
X175000000Y-65076950D01*
X175533334Y-65876950D02*
X175566667Y-65843616D01*
X175566667Y-65843616D02*
X175633334Y-65743616D01*
X175633334Y-65743616D02*
X175666667Y-65676950D01*
X175666667Y-65676950D02*
X175700000Y-65576950D01*
X175700000Y-65576950D02*
X175733334Y-65410283D01*
X175733334Y-65410283D02*
X175733334Y-65276950D01*
X175733334Y-65276950D02*
X175700000Y-65110283D01*
X175700000Y-65110283D02*
X175666667Y-65010283D01*
X175666667Y-65010283D02*
X175633334Y-64943616D01*
X175633334Y-64943616D02*
X175566667Y-64843616D01*
X175566667Y-64843616D02*
X175533334Y-64810283D01*
X174466666Y-59876950D02*
X174433333Y-59843616D01*
X174433333Y-59843616D02*
X174366666Y-59743616D01*
X174366666Y-59743616D02*
X174333333Y-59676950D01*
X174333333Y-59676950D02*
X174300000Y-59576950D01*
X174300000Y-59576950D02*
X174266666Y-59410283D01*
X174266666Y-59410283D02*
X174266666Y-59276950D01*
X174266666Y-59276950D02*
X174300000Y-59110283D01*
X174300000Y-59110283D02*
X174333333Y-59010283D01*
X174333333Y-59010283D02*
X174366666Y-58943616D01*
X174366666Y-58943616D02*
X174433333Y-58843616D01*
X174433333Y-58843616D02*
X174466666Y-58810283D01*
X174733333Y-59343616D02*
X175266667Y-59343616D01*
X175000000Y-59610283D02*
X175000000Y-59076950D01*
X175533334Y-59876950D02*
X175566667Y-59843616D01*
X175566667Y-59843616D02*
X175633334Y-59743616D01*
X175633334Y-59743616D02*
X175666667Y-59676950D01*
X175666667Y-59676950D02*
X175700000Y-59576950D01*
X175700000Y-59576950D02*
X175733334Y-59410283D01*
X175733334Y-59410283D02*
X175733334Y-59276950D01*
X175733334Y-59276950D02*
X175700000Y-59110283D01*
X175700000Y-59110283D02*
X175666667Y-59010283D01*
X175666667Y-59010283D02*
X175633334Y-58943616D01*
X175633334Y-58943616D02*
X175566667Y-58843616D01*
X175566667Y-58843616D02*
X175533334Y-58810283D01*
X174466666Y-53876950D02*
X174433333Y-53843616D01*
X174433333Y-53843616D02*
X174366666Y-53743616D01*
X174366666Y-53743616D02*
X174333333Y-53676950D01*
X174333333Y-53676950D02*
X174300000Y-53576950D01*
X174300000Y-53576950D02*
X174266666Y-53410283D01*
X174266666Y-53410283D02*
X174266666Y-53276950D01*
X174266666Y-53276950D02*
X174300000Y-53110283D01*
X174300000Y-53110283D02*
X174333333Y-53010283D01*
X174333333Y-53010283D02*
X174366666Y-52943616D01*
X174366666Y-52943616D02*
X174433333Y-52843616D01*
X174433333Y-52843616D02*
X174466666Y-52810283D01*
X174733333Y-53343616D02*
X175266667Y-53343616D01*
X175000000Y-53610283D02*
X175000000Y-53076950D01*
X175533334Y-53876950D02*
X175566667Y-53843616D01*
X175566667Y-53843616D02*
X175633334Y-53743616D01*
X175633334Y-53743616D02*
X175666667Y-53676950D01*
X175666667Y-53676950D02*
X175700000Y-53576950D01*
X175700000Y-53576950D02*
X175733334Y-53410283D01*
X175733334Y-53410283D02*
X175733334Y-53276950D01*
X175733334Y-53276950D02*
X175700000Y-53110283D01*
X175700000Y-53110283D02*
X175666667Y-53010283D01*
X175666667Y-53010283D02*
X175633334Y-52943616D01*
X175633334Y-52943616D02*
X175566667Y-52843616D01*
X175566667Y-52843616D02*
X175533334Y-52810283D01*
X174466666Y-47876950D02*
X174433333Y-47843616D01*
X174433333Y-47843616D02*
X174366666Y-47743616D01*
X174366666Y-47743616D02*
X174333333Y-47676950D01*
X174333333Y-47676950D02*
X174300000Y-47576950D01*
X174300000Y-47576950D02*
X174266666Y-47410283D01*
X174266666Y-47410283D02*
X174266666Y-47276950D01*
X174266666Y-47276950D02*
X174300000Y-47110283D01*
X174300000Y-47110283D02*
X174333333Y-47010283D01*
X174333333Y-47010283D02*
X174366666Y-46943616D01*
X174366666Y-46943616D02*
X174433333Y-46843616D01*
X174433333Y-46843616D02*
X174466666Y-46810283D01*
X174733333Y-47343616D02*
X175266667Y-47343616D01*
X175000000Y-47610283D02*
X175000000Y-47076950D01*
X175533334Y-47876950D02*
X175566667Y-47843616D01*
X175566667Y-47843616D02*
X175633334Y-47743616D01*
X175633334Y-47743616D02*
X175666667Y-47676950D01*
X175666667Y-47676950D02*
X175700000Y-47576950D01*
X175700000Y-47576950D02*
X175733334Y-47410283D01*
X175733334Y-47410283D02*
X175733334Y-47276950D01*
X175733334Y-47276950D02*
X175700000Y-47110283D01*
X175700000Y-47110283D02*
X175666667Y-47010283D01*
X175666667Y-47010283D02*
X175633334Y-46943616D01*
X175633334Y-46943616D02*
X175566667Y-46843616D01*
X175566667Y-46843616D02*
X175533334Y-46810283D01*
X174466666Y-41876950D02*
X174433333Y-41843616D01*
X174433333Y-41843616D02*
X174366666Y-41743616D01*
X174366666Y-41743616D02*
X174333333Y-41676950D01*
X174333333Y-41676950D02*
X174300000Y-41576950D01*
X174300000Y-41576950D02*
X174266666Y-41410283D01*
X174266666Y-41410283D02*
X174266666Y-41276950D01*
X174266666Y-41276950D02*
X174300000Y-41110283D01*
X174300000Y-41110283D02*
X174333333Y-41010283D01*
X174333333Y-41010283D02*
X174366666Y-40943616D01*
X174366666Y-40943616D02*
X174433333Y-40843616D01*
X174433333Y-40843616D02*
X174466666Y-40810283D01*
X174733333Y-41343616D02*
X175266667Y-41343616D01*
X175000000Y-41610283D02*
X175000000Y-41076950D01*
X175533334Y-41876950D02*
X175566667Y-41843616D01*
X175566667Y-41843616D02*
X175633334Y-41743616D01*
X175633334Y-41743616D02*
X175666667Y-41676950D01*
X175666667Y-41676950D02*
X175700000Y-41576950D01*
X175700000Y-41576950D02*
X175733334Y-41410283D01*
X175733334Y-41410283D02*
X175733334Y-41276950D01*
X175733334Y-41276950D02*
X175700000Y-41110283D01*
X175700000Y-41110283D02*
X175666667Y-41010283D01*
X175666667Y-41010283D02*
X175633334Y-40943616D01*
X175633334Y-40943616D02*
X175566667Y-40843616D01*
X175566667Y-40843616D02*
X175533334Y-40810283D01*
X174466666Y-35876950D02*
X174433333Y-35843616D01*
X174433333Y-35843616D02*
X174366666Y-35743616D01*
X174366666Y-35743616D02*
X174333333Y-35676950D01*
X174333333Y-35676950D02*
X174300000Y-35576950D01*
X174300000Y-35576950D02*
X174266666Y-35410283D01*
X174266666Y-35410283D02*
X174266666Y-35276950D01*
X174266666Y-35276950D02*
X174300000Y-35110283D01*
X174300000Y-35110283D02*
X174333333Y-35010283D01*
X174333333Y-35010283D02*
X174366666Y-34943616D01*
X174366666Y-34943616D02*
X174433333Y-34843616D01*
X174433333Y-34843616D02*
X174466666Y-34810283D01*
X174733333Y-35343616D02*
X175266667Y-35343616D01*
X175000000Y-35610283D02*
X175000000Y-35076950D01*
X175533334Y-35876950D02*
X175566667Y-35843616D01*
X175566667Y-35843616D02*
X175633334Y-35743616D01*
X175633334Y-35743616D02*
X175666667Y-35676950D01*
X175666667Y-35676950D02*
X175700000Y-35576950D01*
X175700000Y-35576950D02*
X175733334Y-35410283D01*
X175733334Y-35410283D02*
X175733334Y-35276950D01*
X175733334Y-35276950D02*
X175700000Y-35110283D01*
X175700000Y-35110283D02*
X175666667Y-35010283D01*
X175666667Y-35010283D02*
X175633334Y-34943616D01*
X175633334Y-34943616D02*
X175566667Y-34843616D01*
X175566667Y-34843616D02*
X175533334Y-34810283D01*
X174466666Y-29876950D02*
X174433333Y-29843616D01*
X174433333Y-29843616D02*
X174366666Y-29743616D01*
X174366666Y-29743616D02*
X174333333Y-29676950D01*
X174333333Y-29676950D02*
X174300000Y-29576950D01*
X174300000Y-29576950D02*
X174266666Y-29410283D01*
X174266666Y-29410283D02*
X174266666Y-29276950D01*
X174266666Y-29276950D02*
X174300000Y-29110283D01*
X174300000Y-29110283D02*
X174333333Y-29010283D01*
X174333333Y-29010283D02*
X174366666Y-28943616D01*
X174366666Y-28943616D02*
X174433333Y-28843616D01*
X174433333Y-28843616D02*
X174466666Y-28810283D01*
X174733333Y-29343616D02*
X175266667Y-29343616D01*
X175000000Y-29610283D02*
X175000000Y-29076950D01*
X175533334Y-29876950D02*
X175566667Y-29843616D01*
X175566667Y-29843616D02*
X175633334Y-29743616D01*
X175633334Y-29743616D02*
X175666667Y-29676950D01*
X175666667Y-29676950D02*
X175700000Y-29576950D01*
X175700000Y-29576950D02*
X175733334Y-29410283D01*
X175733334Y-29410283D02*
X175733334Y-29276950D01*
X175733334Y-29276950D02*
X175700000Y-29110283D01*
X175700000Y-29110283D02*
X175666667Y-29010283D01*
X175666667Y-29010283D02*
X175633334Y-28943616D01*
X175633334Y-28943616D02*
X175566667Y-28843616D01*
X175566667Y-28843616D02*
X175533334Y-28810283D01*
X160466666Y-107876950D02*
X160433333Y-107843616D01*
X160433333Y-107843616D02*
X160366666Y-107743616D01*
X160366666Y-107743616D02*
X160333333Y-107676950D01*
X160333333Y-107676950D02*
X160300000Y-107576950D01*
X160300000Y-107576950D02*
X160266666Y-107410283D01*
X160266666Y-107410283D02*
X160266666Y-107276950D01*
X160266666Y-107276950D02*
X160300000Y-107110283D01*
X160300000Y-107110283D02*
X160333333Y-107010283D01*
X160333333Y-107010283D02*
X160366666Y-106943616D01*
X160366666Y-106943616D02*
X160433333Y-106843616D01*
X160433333Y-106843616D02*
X160466666Y-106810283D01*
X160733333Y-107343616D02*
X161266667Y-107343616D01*
X161000000Y-107610283D02*
X161000000Y-107076950D01*
X161533334Y-107876950D02*
X161566667Y-107843616D01*
X161566667Y-107843616D02*
X161633334Y-107743616D01*
X161633334Y-107743616D02*
X161666667Y-107676950D01*
X161666667Y-107676950D02*
X161700000Y-107576950D01*
X161700000Y-107576950D02*
X161733334Y-107410283D01*
X161733334Y-107410283D02*
X161733334Y-107276950D01*
X161733334Y-107276950D02*
X161700000Y-107110283D01*
X161700000Y-107110283D02*
X161666667Y-107010283D01*
X161666667Y-107010283D02*
X161633334Y-106943616D01*
X161633334Y-106943616D02*
X161566667Y-106843616D01*
X161566667Y-106843616D02*
X161533334Y-106810283D01*
X160466666Y-101876950D02*
X160433333Y-101843616D01*
X160433333Y-101843616D02*
X160366666Y-101743616D01*
X160366666Y-101743616D02*
X160333333Y-101676950D01*
X160333333Y-101676950D02*
X160300000Y-101576950D01*
X160300000Y-101576950D02*
X160266666Y-101410283D01*
X160266666Y-101410283D02*
X160266666Y-101276950D01*
X160266666Y-101276950D02*
X160300000Y-101110283D01*
X160300000Y-101110283D02*
X160333333Y-101010283D01*
X160333333Y-101010283D02*
X160366666Y-100943616D01*
X160366666Y-100943616D02*
X160433333Y-100843616D01*
X160433333Y-100843616D02*
X160466666Y-100810283D01*
X160733333Y-101343616D02*
X161266667Y-101343616D01*
X161000000Y-101610283D02*
X161000000Y-101076950D01*
X161533334Y-101876950D02*
X161566667Y-101843616D01*
X161566667Y-101843616D02*
X161633334Y-101743616D01*
X161633334Y-101743616D02*
X161666667Y-101676950D01*
X161666667Y-101676950D02*
X161700000Y-101576950D01*
X161700000Y-101576950D02*
X161733334Y-101410283D01*
X161733334Y-101410283D02*
X161733334Y-101276950D01*
X161733334Y-101276950D02*
X161700000Y-101110283D01*
X161700000Y-101110283D02*
X161666667Y-101010283D01*
X161666667Y-101010283D02*
X161633334Y-100943616D01*
X161633334Y-100943616D02*
X161566667Y-100843616D01*
X161566667Y-100843616D02*
X161533334Y-100810283D01*
X160466666Y-95876950D02*
X160433333Y-95843616D01*
X160433333Y-95843616D02*
X160366666Y-95743616D01*
X160366666Y-95743616D02*
X160333333Y-95676950D01*
X160333333Y-95676950D02*
X160300000Y-95576950D01*
X160300000Y-95576950D02*
X160266666Y-95410283D01*
X160266666Y-95410283D02*
X160266666Y-95276950D01*
X160266666Y-95276950D02*
X160300000Y-95110283D01*
X160300000Y-95110283D02*
X160333333Y-95010283D01*
X160333333Y-95010283D02*
X160366666Y-94943616D01*
X160366666Y-94943616D02*
X160433333Y-94843616D01*
X160433333Y-94843616D02*
X160466666Y-94810283D01*
X160733333Y-95343616D02*
X161266667Y-95343616D01*
X161000000Y-95610283D02*
X161000000Y-95076950D01*
X161533334Y-95876950D02*
X161566667Y-95843616D01*
X161566667Y-95843616D02*
X161633334Y-95743616D01*
X161633334Y-95743616D02*
X161666667Y-95676950D01*
X161666667Y-95676950D02*
X161700000Y-95576950D01*
X161700000Y-95576950D02*
X161733334Y-95410283D01*
X161733334Y-95410283D02*
X161733334Y-95276950D01*
X161733334Y-95276950D02*
X161700000Y-95110283D01*
X161700000Y-95110283D02*
X161666667Y-95010283D01*
X161666667Y-95010283D02*
X161633334Y-94943616D01*
X161633334Y-94943616D02*
X161566667Y-94843616D01*
X161566667Y-94843616D02*
X161533334Y-94810283D01*
X160466666Y-89876950D02*
X160433333Y-89843616D01*
X160433333Y-89843616D02*
X160366666Y-89743616D01*
X160366666Y-89743616D02*
X160333333Y-89676950D01*
X160333333Y-89676950D02*
X160300000Y-89576950D01*
X160300000Y-89576950D02*
X160266666Y-89410283D01*
X160266666Y-89410283D02*
X160266666Y-89276950D01*
X160266666Y-89276950D02*
X160300000Y-89110283D01*
X160300000Y-89110283D02*
X160333333Y-89010283D01*
X160333333Y-89010283D02*
X160366666Y-88943616D01*
X160366666Y-88943616D02*
X160433333Y-88843616D01*
X160433333Y-88843616D02*
X160466666Y-88810283D01*
X160733333Y-89343616D02*
X161266667Y-89343616D01*
X161000000Y-89610283D02*
X161000000Y-89076950D01*
X161533334Y-89876950D02*
X161566667Y-89843616D01*
X161566667Y-89843616D02*
X161633334Y-89743616D01*
X161633334Y-89743616D02*
X161666667Y-89676950D01*
X161666667Y-89676950D02*
X161700000Y-89576950D01*
X161700000Y-89576950D02*
X161733334Y-89410283D01*
X161733334Y-89410283D02*
X161733334Y-89276950D01*
X161733334Y-89276950D02*
X161700000Y-89110283D01*
X161700000Y-89110283D02*
X161666667Y-89010283D01*
X161666667Y-89010283D02*
X161633334Y-88943616D01*
X161633334Y-88943616D02*
X161566667Y-88843616D01*
X161566667Y-88843616D02*
X161533334Y-88810283D01*
X160466666Y-83876950D02*
X160433333Y-83843616D01*
X160433333Y-83843616D02*
X160366666Y-83743616D01*
X160366666Y-83743616D02*
X160333333Y-83676950D01*
X160333333Y-83676950D02*
X160300000Y-83576950D01*
X160300000Y-83576950D02*
X160266666Y-83410283D01*
X160266666Y-83410283D02*
X160266666Y-83276950D01*
X160266666Y-83276950D02*
X160300000Y-83110283D01*
X160300000Y-83110283D02*
X160333333Y-83010283D01*
X160333333Y-83010283D02*
X160366666Y-82943616D01*
X160366666Y-82943616D02*
X160433333Y-82843616D01*
X160433333Y-82843616D02*
X160466666Y-82810283D01*
X160733333Y-83343616D02*
X161266667Y-83343616D01*
X161000000Y-83610283D02*
X161000000Y-83076950D01*
X161533334Y-83876950D02*
X161566667Y-83843616D01*
X161566667Y-83843616D02*
X161633334Y-83743616D01*
X161633334Y-83743616D02*
X161666667Y-83676950D01*
X161666667Y-83676950D02*
X161700000Y-83576950D01*
X161700000Y-83576950D02*
X161733334Y-83410283D01*
X161733334Y-83410283D02*
X161733334Y-83276950D01*
X161733334Y-83276950D02*
X161700000Y-83110283D01*
X161700000Y-83110283D02*
X161666667Y-83010283D01*
X161666667Y-83010283D02*
X161633334Y-82943616D01*
X161633334Y-82943616D02*
X161566667Y-82843616D01*
X161566667Y-82843616D02*
X161533334Y-82810283D01*
X160466666Y-77876950D02*
X160433333Y-77843616D01*
X160433333Y-77843616D02*
X160366666Y-77743616D01*
X160366666Y-77743616D02*
X160333333Y-77676950D01*
X160333333Y-77676950D02*
X160300000Y-77576950D01*
X160300000Y-77576950D02*
X160266666Y-77410283D01*
X160266666Y-77410283D02*
X160266666Y-77276950D01*
X160266666Y-77276950D02*
X160300000Y-77110283D01*
X160300000Y-77110283D02*
X160333333Y-77010283D01*
X160333333Y-77010283D02*
X160366666Y-76943616D01*
X160366666Y-76943616D02*
X160433333Y-76843616D01*
X160433333Y-76843616D02*
X160466666Y-76810283D01*
X160733333Y-77343616D02*
X161266667Y-77343616D01*
X161000000Y-77610283D02*
X161000000Y-77076950D01*
X161533334Y-77876950D02*
X161566667Y-77843616D01*
X161566667Y-77843616D02*
X161633334Y-77743616D01*
X161633334Y-77743616D02*
X161666667Y-77676950D01*
X161666667Y-77676950D02*
X161700000Y-77576950D01*
X161700000Y-77576950D02*
X161733334Y-77410283D01*
X161733334Y-77410283D02*
X161733334Y-77276950D01*
X161733334Y-77276950D02*
X161700000Y-77110283D01*
X161700000Y-77110283D02*
X161666667Y-77010283D01*
X161666667Y-77010283D02*
X161633334Y-76943616D01*
X161633334Y-76943616D02*
X161566667Y-76843616D01*
X161566667Y-76843616D02*
X161533334Y-76810283D01*
X160466666Y-71876950D02*
X160433333Y-71843616D01*
X160433333Y-71843616D02*
X160366666Y-71743616D01*
X160366666Y-71743616D02*
X160333333Y-71676950D01*
X160333333Y-71676950D02*
X160300000Y-71576950D01*
X160300000Y-71576950D02*
X160266666Y-71410283D01*
X160266666Y-71410283D02*
X160266666Y-71276950D01*
X160266666Y-71276950D02*
X160300000Y-71110283D01*
X160300000Y-71110283D02*
X160333333Y-71010283D01*
X160333333Y-71010283D02*
X160366666Y-70943616D01*
X160366666Y-70943616D02*
X160433333Y-70843616D01*
X160433333Y-70843616D02*
X160466666Y-70810283D01*
X160733333Y-71343616D02*
X161266667Y-71343616D01*
X161000000Y-71610283D02*
X161000000Y-71076950D01*
X161533334Y-71876950D02*
X161566667Y-71843616D01*
X161566667Y-71843616D02*
X161633334Y-71743616D01*
X161633334Y-71743616D02*
X161666667Y-71676950D01*
X161666667Y-71676950D02*
X161700000Y-71576950D01*
X161700000Y-71576950D02*
X161733334Y-71410283D01*
X161733334Y-71410283D02*
X161733334Y-71276950D01*
X161733334Y-71276950D02*
X161700000Y-71110283D01*
X161700000Y-71110283D02*
X161666667Y-71010283D01*
X161666667Y-71010283D02*
X161633334Y-70943616D01*
X161633334Y-70943616D02*
X161566667Y-70843616D01*
X161566667Y-70843616D02*
X161533334Y-70810283D01*
X160466666Y-65876950D02*
X160433333Y-65843616D01*
X160433333Y-65843616D02*
X160366666Y-65743616D01*
X160366666Y-65743616D02*
X160333333Y-65676950D01*
X160333333Y-65676950D02*
X160300000Y-65576950D01*
X160300000Y-65576950D02*
X160266666Y-65410283D01*
X160266666Y-65410283D02*
X160266666Y-65276950D01*
X160266666Y-65276950D02*
X160300000Y-65110283D01*
X160300000Y-65110283D02*
X160333333Y-65010283D01*
X160333333Y-65010283D02*
X160366666Y-64943616D01*
X160366666Y-64943616D02*
X160433333Y-64843616D01*
X160433333Y-64843616D02*
X160466666Y-64810283D01*
X160733333Y-65343616D02*
X161266667Y-65343616D01*
X161000000Y-65610283D02*
X161000000Y-65076950D01*
X161533334Y-65876950D02*
X161566667Y-65843616D01*
X161566667Y-65843616D02*
X161633334Y-65743616D01*
X161633334Y-65743616D02*
X161666667Y-65676950D01*
X161666667Y-65676950D02*
X161700000Y-65576950D01*
X161700000Y-65576950D02*
X161733334Y-65410283D01*
X161733334Y-65410283D02*
X161733334Y-65276950D01*
X161733334Y-65276950D02*
X161700000Y-65110283D01*
X161700000Y-65110283D02*
X161666667Y-65010283D01*
X161666667Y-65010283D02*
X161633334Y-64943616D01*
X161633334Y-64943616D02*
X161566667Y-64843616D01*
X161566667Y-64843616D02*
X161533334Y-64810283D01*
X160466666Y-59876950D02*
X160433333Y-59843616D01*
X160433333Y-59843616D02*
X160366666Y-59743616D01*
X160366666Y-59743616D02*
X160333333Y-59676950D01*
X160333333Y-59676950D02*
X160300000Y-59576950D01*
X160300000Y-59576950D02*
X160266666Y-59410283D01*
X160266666Y-59410283D02*
X160266666Y-59276950D01*
X160266666Y-59276950D02*
X160300000Y-59110283D01*
X160300000Y-59110283D02*
X160333333Y-59010283D01*
X160333333Y-59010283D02*
X160366666Y-58943616D01*
X160366666Y-58943616D02*
X160433333Y-58843616D01*
X160433333Y-58843616D02*
X160466666Y-58810283D01*
X160733333Y-59343616D02*
X161266667Y-59343616D01*
X161000000Y-59610283D02*
X161000000Y-59076950D01*
X161533334Y-59876950D02*
X161566667Y-59843616D01*
X161566667Y-59843616D02*
X161633334Y-59743616D01*
X161633334Y-59743616D02*
X161666667Y-59676950D01*
X161666667Y-59676950D02*
X161700000Y-59576950D01*
X161700000Y-59576950D02*
X161733334Y-59410283D01*
X161733334Y-59410283D02*
X161733334Y-59276950D01*
X161733334Y-59276950D02*
X161700000Y-59110283D01*
X161700000Y-59110283D02*
X161666667Y-59010283D01*
X161666667Y-59010283D02*
X161633334Y-58943616D01*
X161633334Y-58943616D02*
X161566667Y-58843616D01*
X161566667Y-58843616D02*
X161533334Y-58810283D01*
X160466666Y-53876950D02*
X160433333Y-53843616D01*
X160433333Y-53843616D02*
X160366666Y-53743616D01*
X160366666Y-53743616D02*
X160333333Y-53676950D01*
X160333333Y-53676950D02*
X160300000Y-53576950D01*
X160300000Y-53576950D02*
X160266666Y-53410283D01*
X160266666Y-53410283D02*
X160266666Y-53276950D01*
X160266666Y-53276950D02*
X160300000Y-53110283D01*
X160300000Y-53110283D02*
X160333333Y-53010283D01*
X160333333Y-53010283D02*
X160366666Y-52943616D01*
X160366666Y-52943616D02*
X160433333Y-52843616D01*
X160433333Y-52843616D02*
X160466666Y-52810283D01*
X160733333Y-53343616D02*
X161266667Y-53343616D01*
X161000000Y-53610283D02*
X161000000Y-53076950D01*
X161533334Y-53876950D02*
X161566667Y-53843616D01*
X161566667Y-53843616D02*
X161633334Y-53743616D01*
X161633334Y-53743616D02*
X161666667Y-53676950D01*
X161666667Y-53676950D02*
X161700000Y-53576950D01*
X161700000Y-53576950D02*
X161733334Y-53410283D01*
X161733334Y-53410283D02*
X161733334Y-53276950D01*
X161733334Y-53276950D02*
X161700000Y-53110283D01*
X161700000Y-53110283D02*
X161666667Y-53010283D01*
X161666667Y-53010283D02*
X161633334Y-52943616D01*
X161633334Y-52943616D02*
X161566667Y-52843616D01*
X161566667Y-52843616D02*
X161533334Y-52810283D01*
X160466666Y-47876950D02*
X160433333Y-47843616D01*
X160433333Y-47843616D02*
X160366666Y-47743616D01*
X160366666Y-47743616D02*
X160333333Y-47676950D01*
X160333333Y-47676950D02*
X160300000Y-47576950D01*
X160300000Y-47576950D02*
X160266666Y-47410283D01*
X160266666Y-47410283D02*
X160266666Y-47276950D01*
X160266666Y-47276950D02*
X160300000Y-47110283D01*
X160300000Y-47110283D02*
X160333333Y-47010283D01*
X160333333Y-47010283D02*
X160366666Y-46943616D01*
X160366666Y-46943616D02*
X160433333Y-46843616D01*
X160433333Y-46843616D02*
X160466666Y-46810283D01*
X160733333Y-47343616D02*
X161266667Y-47343616D01*
X161000000Y-47610283D02*
X161000000Y-47076950D01*
X161533334Y-47876950D02*
X161566667Y-47843616D01*
X161566667Y-47843616D02*
X161633334Y-47743616D01*
X161633334Y-47743616D02*
X161666667Y-47676950D01*
X161666667Y-47676950D02*
X161700000Y-47576950D01*
X161700000Y-47576950D02*
X161733334Y-47410283D01*
X161733334Y-47410283D02*
X161733334Y-47276950D01*
X161733334Y-47276950D02*
X161700000Y-47110283D01*
X161700000Y-47110283D02*
X161666667Y-47010283D01*
X161666667Y-47010283D02*
X161633334Y-46943616D01*
X161633334Y-46943616D02*
X161566667Y-46843616D01*
X161566667Y-46843616D02*
X161533334Y-46810283D01*
X160466666Y-41876950D02*
X160433333Y-41843616D01*
X160433333Y-41843616D02*
X160366666Y-41743616D01*
X160366666Y-41743616D02*
X160333333Y-41676950D01*
X160333333Y-41676950D02*
X160300000Y-41576950D01*
X160300000Y-41576950D02*
X160266666Y-41410283D01*
X160266666Y-41410283D02*
X160266666Y-41276950D01*
X160266666Y-41276950D02*
X160300000Y-41110283D01*
X160300000Y-41110283D02*
X160333333Y-41010283D01*
X160333333Y-41010283D02*
X160366666Y-40943616D01*
X160366666Y-40943616D02*
X160433333Y-40843616D01*
X160433333Y-40843616D02*
X160466666Y-40810283D01*
X160733333Y-41343616D02*
X161266667Y-41343616D01*
X161000000Y-41610283D02*
X161000000Y-41076950D01*
X161533334Y-41876950D02*
X161566667Y-41843616D01*
X161566667Y-41843616D02*
X161633334Y-41743616D01*
X161633334Y-41743616D02*
X161666667Y-41676950D01*
X161666667Y-41676950D02*
X161700000Y-41576950D01*
X161700000Y-41576950D02*
X161733334Y-41410283D01*
X161733334Y-41410283D02*
X161733334Y-41276950D01*
X161733334Y-41276950D02*
X161700000Y-41110283D01*
X161700000Y-41110283D02*
X161666667Y-41010283D01*
X161666667Y-41010283D02*
X161633334Y-40943616D01*
X161633334Y-40943616D02*
X161566667Y-40843616D01*
X161566667Y-40843616D02*
X161533334Y-40810283D01*
X160466666Y-35876950D02*
X160433333Y-35843616D01*
X160433333Y-35843616D02*
X160366666Y-35743616D01*
X160366666Y-35743616D02*
X160333333Y-35676950D01*
X160333333Y-35676950D02*
X160300000Y-35576950D01*
X160300000Y-35576950D02*
X160266666Y-35410283D01*
X160266666Y-35410283D02*
X160266666Y-35276950D01*
X160266666Y-35276950D02*
X160300000Y-35110283D01*
X160300000Y-35110283D02*
X160333333Y-35010283D01*
X160333333Y-35010283D02*
X160366666Y-34943616D01*
X160366666Y-34943616D02*
X160433333Y-34843616D01*
X160433333Y-34843616D02*
X160466666Y-34810283D01*
X160733333Y-35343616D02*
X161266667Y-35343616D01*
X161000000Y-35610283D02*
X161000000Y-35076950D01*
X161533334Y-35876950D02*
X161566667Y-35843616D01*
X161566667Y-35843616D02*
X161633334Y-35743616D01*
X161633334Y-35743616D02*
X161666667Y-35676950D01*
X161666667Y-35676950D02*
X161700000Y-35576950D01*
X161700000Y-35576950D02*
X161733334Y-35410283D01*
X161733334Y-35410283D02*
X161733334Y-35276950D01*
X161733334Y-35276950D02*
X161700000Y-35110283D01*
X161700000Y-35110283D02*
X161666667Y-35010283D01*
X161666667Y-35010283D02*
X161633334Y-34943616D01*
X161633334Y-34943616D02*
X161566667Y-34843616D01*
X161566667Y-34843616D02*
X161533334Y-34810283D01*
X160466666Y-29876950D02*
X160433333Y-29843616D01*
X160433333Y-29843616D02*
X160366666Y-29743616D01*
X160366666Y-29743616D02*
X160333333Y-29676950D01*
X160333333Y-29676950D02*
X160300000Y-29576950D01*
X160300000Y-29576950D02*
X160266666Y-29410283D01*
X160266666Y-29410283D02*
X160266666Y-29276950D01*
X160266666Y-29276950D02*
X160300000Y-29110283D01*
X160300000Y-29110283D02*
X160333333Y-29010283D01*
X160333333Y-29010283D02*
X160366666Y-28943616D01*
X160366666Y-28943616D02*
X160433333Y-28843616D01*
X160433333Y-28843616D02*
X160466666Y-28810283D01*
X160733333Y-29343616D02*
X161266667Y-29343616D01*
X161000000Y-29610283D02*
X161000000Y-29076950D01*
X161533334Y-29876950D02*
X161566667Y-29843616D01*
X161566667Y-29843616D02*
X161633334Y-29743616D01*
X161633334Y-29743616D02*
X161666667Y-29676950D01*
X161666667Y-29676950D02*
X161700000Y-29576950D01*
X161700000Y-29576950D02*
X161733334Y-29410283D01*
X161733334Y-29410283D02*
X161733334Y-29276950D01*
X161733334Y-29276950D02*
X161700000Y-29110283D01*
X161700000Y-29110283D02*
X161666667Y-29010283D01*
X161666667Y-29010283D02*
X161633334Y-28943616D01*
X161633334Y-28943616D02*
X161566667Y-28843616D01*
X161566667Y-28843616D02*
X161533334Y-28810283D01*
X146466666Y-107876950D02*
X146433333Y-107843616D01*
X146433333Y-107843616D02*
X146366666Y-107743616D01*
X146366666Y-107743616D02*
X146333333Y-107676950D01*
X146333333Y-107676950D02*
X146300000Y-107576950D01*
X146300000Y-107576950D02*
X146266666Y-107410283D01*
X146266666Y-107410283D02*
X146266666Y-107276950D01*
X146266666Y-107276950D02*
X146300000Y-107110283D01*
X146300000Y-107110283D02*
X146333333Y-107010283D01*
X146333333Y-107010283D02*
X146366666Y-106943616D01*
X146366666Y-106943616D02*
X146433333Y-106843616D01*
X146433333Y-106843616D02*
X146466666Y-106810283D01*
X146733333Y-107343616D02*
X147266667Y-107343616D01*
X147000000Y-107610283D02*
X147000000Y-107076950D01*
X147533334Y-107876950D02*
X147566667Y-107843616D01*
X147566667Y-107843616D02*
X147633334Y-107743616D01*
X147633334Y-107743616D02*
X147666667Y-107676950D01*
X147666667Y-107676950D02*
X147700000Y-107576950D01*
X147700000Y-107576950D02*
X147733334Y-107410283D01*
X147733334Y-107410283D02*
X147733334Y-107276950D01*
X147733334Y-107276950D02*
X147700000Y-107110283D01*
X147700000Y-107110283D02*
X147666667Y-107010283D01*
X147666667Y-107010283D02*
X147633334Y-106943616D01*
X147633334Y-106943616D02*
X147566667Y-106843616D01*
X147566667Y-106843616D02*
X147533334Y-106810283D01*
X146466666Y-101876950D02*
X146433333Y-101843616D01*
X146433333Y-101843616D02*
X146366666Y-101743616D01*
X146366666Y-101743616D02*
X146333333Y-101676950D01*
X146333333Y-101676950D02*
X146300000Y-101576950D01*
X146300000Y-101576950D02*
X146266666Y-101410283D01*
X146266666Y-101410283D02*
X146266666Y-101276950D01*
X146266666Y-101276950D02*
X146300000Y-101110283D01*
X146300000Y-101110283D02*
X146333333Y-101010283D01*
X146333333Y-101010283D02*
X146366666Y-100943616D01*
X146366666Y-100943616D02*
X146433333Y-100843616D01*
X146433333Y-100843616D02*
X146466666Y-100810283D01*
X146733333Y-101343616D02*
X147266667Y-101343616D01*
X147000000Y-101610283D02*
X147000000Y-101076950D01*
X147533334Y-101876950D02*
X147566667Y-101843616D01*
X147566667Y-101843616D02*
X147633334Y-101743616D01*
X147633334Y-101743616D02*
X147666667Y-101676950D01*
X147666667Y-101676950D02*
X147700000Y-101576950D01*
X147700000Y-101576950D02*
X147733334Y-101410283D01*
X147733334Y-101410283D02*
X147733334Y-101276950D01*
X147733334Y-101276950D02*
X147700000Y-101110283D01*
X147700000Y-101110283D02*
X147666667Y-101010283D01*
X147666667Y-101010283D02*
X147633334Y-100943616D01*
X147633334Y-100943616D02*
X147566667Y-100843616D01*
X147566667Y-100843616D02*
X147533334Y-100810283D01*
X146466666Y-95876950D02*
X146433333Y-95843616D01*
X146433333Y-95843616D02*
X146366666Y-95743616D01*
X146366666Y-95743616D02*
X146333333Y-95676950D01*
X146333333Y-95676950D02*
X146300000Y-95576950D01*
X146300000Y-95576950D02*
X146266666Y-95410283D01*
X146266666Y-95410283D02*
X146266666Y-95276950D01*
X146266666Y-95276950D02*
X146300000Y-95110283D01*
X146300000Y-95110283D02*
X146333333Y-95010283D01*
X146333333Y-95010283D02*
X146366666Y-94943616D01*
X146366666Y-94943616D02*
X146433333Y-94843616D01*
X146433333Y-94843616D02*
X146466666Y-94810283D01*
X146733333Y-95343616D02*
X147266667Y-95343616D01*
X147000000Y-95610283D02*
X147000000Y-95076950D01*
X147533334Y-95876950D02*
X147566667Y-95843616D01*
X147566667Y-95843616D02*
X147633334Y-95743616D01*
X147633334Y-95743616D02*
X147666667Y-95676950D01*
X147666667Y-95676950D02*
X147700000Y-95576950D01*
X147700000Y-95576950D02*
X147733334Y-95410283D01*
X147733334Y-95410283D02*
X147733334Y-95276950D01*
X147733334Y-95276950D02*
X147700000Y-95110283D01*
X147700000Y-95110283D02*
X147666667Y-95010283D01*
X147666667Y-95010283D02*
X147633334Y-94943616D01*
X147633334Y-94943616D02*
X147566667Y-94843616D01*
X147566667Y-94843616D02*
X147533334Y-94810283D01*
X146466666Y-89876950D02*
X146433333Y-89843616D01*
X146433333Y-89843616D02*
X146366666Y-89743616D01*
X146366666Y-89743616D02*
X146333333Y-89676950D01*
X146333333Y-89676950D02*
X146300000Y-89576950D01*
X146300000Y-89576950D02*
X146266666Y-89410283D01*
X146266666Y-89410283D02*
X146266666Y-89276950D01*
X146266666Y-89276950D02*
X146300000Y-89110283D01*
X146300000Y-89110283D02*
X146333333Y-89010283D01*
X146333333Y-89010283D02*
X146366666Y-88943616D01*
X146366666Y-88943616D02*
X146433333Y-88843616D01*
X146433333Y-88843616D02*
X146466666Y-88810283D01*
X146733333Y-89343616D02*
X147266667Y-89343616D01*
X147000000Y-89610283D02*
X147000000Y-89076950D01*
X147533334Y-89876950D02*
X147566667Y-89843616D01*
X147566667Y-89843616D02*
X147633334Y-89743616D01*
X147633334Y-89743616D02*
X147666667Y-89676950D01*
X147666667Y-89676950D02*
X147700000Y-89576950D01*
X147700000Y-89576950D02*
X147733334Y-89410283D01*
X147733334Y-89410283D02*
X147733334Y-89276950D01*
X147733334Y-89276950D02*
X147700000Y-89110283D01*
X147700000Y-89110283D02*
X147666667Y-89010283D01*
X147666667Y-89010283D02*
X147633334Y-88943616D01*
X147633334Y-88943616D02*
X147566667Y-88843616D01*
X147566667Y-88843616D02*
X147533334Y-88810283D01*
X146466666Y-83876950D02*
X146433333Y-83843616D01*
X146433333Y-83843616D02*
X146366666Y-83743616D01*
X146366666Y-83743616D02*
X146333333Y-83676950D01*
X146333333Y-83676950D02*
X146300000Y-83576950D01*
X146300000Y-83576950D02*
X146266666Y-83410283D01*
X146266666Y-83410283D02*
X146266666Y-83276950D01*
X146266666Y-83276950D02*
X146300000Y-83110283D01*
X146300000Y-83110283D02*
X146333333Y-83010283D01*
X146333333Y-83010283D02*
X146366666Y-82943616D01*
X146366666Y-82943616D02*
X146433333Y-82843616D01*
X146433333Y-82843616D02*
X146466666Y-82810283D01*
X146733333Y-83343616D02*
X147266667Y-83343616D01*
X147000000Y-83610283D02*
X147000000Y-83076950D01*
X147533334Y-83876950D02*
X147566667Y-83843616D01*
X147566667Y-83843616D02*
X147633334Y-83743616D01*
X147633334Y-83743616D02*
X147666667Y-83676950D01*
X147666667Y-83676950D02*
X147700000Y-83576950D01*
X147700000Y-83576950D02*
X147733334Y-83410283D01*
X147733334Y-83410283D02*
X147733334Y-83276950D01*
X147733334Y-83276950D02*
X147700000Y-83110283D01*
X147700000Y-83110283D02*
X147666667Y-83010283D01*
X147666667Y-83010283D02*
X147633334Y-82943616D01*
X147633334Y-82943616D02*
X147566667Y-82843616D01*
X147566667Y-82843616D02*
X147533334Y-82810283D01*
X146466666Y-77876950D02*
X146433333Y-77843616D01*
X146433333Y-77843616D02*
X146366666Y-77743616D01*
X146366666Y-77743616D02*
X146333333Y-77676950D01*
X146333333Y-77676950D02*
X146300000Y-77576950D01*
X146300000Y-77576950D02*
X146266666Y-77410283D01*
X146266666Y-77410283D02*
X146266666Y-77276950D01*
X146266666Y-77276950D02*
X146300000Y-77110283D01*
X146300000Y-77110283D02*
X146333333Y-77010283D01*
X146333333Y-77010283D02*
X146366666Y-76943616D01*
X146366666Y-76943616D02*
X146433333Y-76843616D01*
X146433333Y-76843616D02*
X146466666Y-76810283D01*
X146733333Y-77343616D02*
X147266667Y-77343616D01*
X147000000Y-77610283D02*
X147000000Y-77076950D01*
X147533334Y-77876950D02*
X147566667Y-77843616D01*
X147566667Y-77843616D02*
X147633334Y-77743616D01*
X147633334Y-77743616D02*
X147666667Y-77676950D01*
X147666667Y-77676950D02*
X147700000Y-77576950D01*
X147700000Y-77576950D02*
X147733334Y-77410283D01*
X147733334Y-77410283D02*
X147733334Y-77276950D01*
X147733334Y-77276950D02*
X147700000Y-77110283D01*
X147700000Y-77110283D02*
X147666667Y-77010283D01*
X147666667Y-77010283D02*
X147633334Y-76943616D01*
X147633334Y-76943616D02*
X147566667Y-76843616D01*
X147566667Y-76843616D02*
X147533334Y-76810283D01*
X146466666Y-71876950D02*
X146433333Y-71843616D01*
X146433333Y-71843616D02*
X146366666Y-71743616D01*
X146366666Y-71743616D02*
X146333333Y-71676950D01*
X146333333Y-71676950D02*
X146300000Y-71576950D01*
X146300000Y-71576950D02*
X146266666Y-71410283D01*
X146266666Y-71410283D02*
X146266666Y-71276950D01*
X146266666Y-71276950D02*
X146300000Y-71110283D01*
X146300000Y-71110283D02*
X146333333Y-71010283D01*
X146333333Y-71010283D02*
X146366666Y-70943616D01*
X146366666Y-70943616D02*
X146433333Y-70843616D01*
X146433333Y-70843616D02*
X146466666Y-70810283D01*
X146733333Y-71343616D02*
X147266667Y-71343616D01*
X147000000Y-71610283D02*
X147000000Y-71076950D01*
X147533334Y-71876950D02*
X147566667Y-71843616D01*
X147566667Y-71843616D02*
X147633334Y-71743616D01*
X147633334Y-71743616D02*
X147666667Y-71676950D01*
X147666667Y-71676950D02*
X147700000Y-71576950D01*
X147700000Y-71576950D02*
X147733334Y-71410283D01*
X147733334Y-71410283D02*
X147733334Y-71276950D01*
X147733334Y-71276950D02*
X147700000Y-71110283D01*
X147700000Y-71110283D02*
X147666667Y-71010283D01*
X147666667Y-71010283D02*
X147633334Y-70943616D01*
X147633334Y-70943616D02*
X147566667Y-70843616D01*
X147566667Y-70843616D02*
X147533334Y-70810283D01*
X146466666Y-65876950D02*
X146433333Y-65843616D01*
X146433333Y-65843616D02*
X146366666Y-65743616D01*
X146366666Y-65743616D02*
X146333333Y-65676950D01*
X146333333Y-65676950D02*
X146300000Y-65576950D01*
X146300000Y-65576950D02*
X146266666Y-65410283D01*
X146266666Y-65410283D02*
X146266666Y-65276950D01*
X146266666Y-65276950D02*
X146300000Y-65110283D01*
X146300000Y-65110283D02*
X146333333Y-65010283D01*
X146333333Y-65010283D02*
X146366666Y-64943616D01*
X146366666Y-64943616D02*
X146433333Y-64843616D01*
X146433333Y-64843616D02*
X146466666Y-64810283D01*
X146733333Y-65343616D02*
X147266667Y-65343616D01*
X147000000Y-65610283D02*
X147000000Y-65076950D01*
X147533334Y-65876950D02*
X147566667Y-65843616D01*
X147566667Y-65843616D02*
X147633334Y-65743616D01*
X147633334Y-65743616D02*
X147666667Y-65676950D01*
X147666667Y-65676950D02*
X147700000Y-65576950D01*
X147700000Y-65576950D02*
X147733334Y-65410283D01*
X147733334Y-65410283D02*
X147733334Y-65276950D01*
X147733334Y-65276950D02*
X147700000Y-65110283D01*
X147700000Y-65110283D02*
X147666667Y-65010283D01*
X147666667Y-65010283D02*
X147633334Y-64943616D01*
X147633334Y-64943616D02*
X147566667Y-64843616D01*
X147566667Y-64843616D02*
X147533334Y-64810283D01*
X146466666Y-59876950D02*
X146433333Y-59843616D01*
X146433333Y-59843616D02*
X146366666Y-59743616D01*
X146366666Y-59743616D02*
X146333333Y-59676950D01*
X146333333Y-59676950D02*
X146300000Y-59576950D01*
X146300000Y-59576950D02*
X146266666Y-59410283D01*
X146266666Y-59410283D02*
X146266666Y-59276950D01*
X146266666Y-59276950D02*
X146300000Y-59110283D01*
X146300000Y-59110283D02*
X146333333Y-59010283D01*
X146333333Y-59010283D02*
X146366666Y-58943616D01*
X146366666Y-58943616D02*
X146433333Y-58843616D01*
X146433333Y-58843616D02*
X146466666Y-58810283D01*
X146733333Y-59343616D02*
X147266667Y-59343616D01*
X147000000Y-59610283D02*
X147000000Y-59076950D01*
X147533334Y-59876950D02*
X147566667Y-59843616D01*
X147566667Y-59843616D02*
X147633334Y-59743616D01*
X147633334Y-59743616D02*
X147666667Y-59676950D01*
X147666667Y-59676950D02*
X147700000Y-59576950D01*
X147700000Y-59576950D02*
X147733334Y-59410283D01*
X147733334Y-59410283D02*
X147733334Y-59276950D01*
X147733334Y-59276950D02*
X147700000Y-59110283D01*
X147700000Y-59110283D02*
X147666667Y-59010283D01*
X147666667Y-59010283D02*
X147633334Y-58943616D01*
X147633334Y-58943616D02*
X147566667Y-58843616D01*
X147566667Y-58843616D02*
X147533334Y-58810283D01*
X146466666Y-53876950D02*
X146433333Y-53843616D01*
X146433333Y-53843616D02*
X146366666Y-53743616D01*
X146366666Y-53743616D02*
X146333333Y-53676950D01*
X146333333Y-53676950D02*
X146300000Y-53576950D01*
X146300000Y-53576950D02*
X146266666Y-53410283D01*
X146266666Y-53410283D02*
X146266666Y-53276950D01*
X146266666Y-53276950D02*
X146300000Y-53110283D01*
X146300000Y-53110283D02*
X146333333Y-53010283D01*
X146333333Y-53010283D02*
X146366666Y-52943616D01*
X146366666Y-52943616D02*
X146433333Y-52843616D01*
X146433333Y-52843616D02*
X146466666Y-52810283D01*
X146733333Y-53343616D02*
X147266667Y-53343616D01*
X147000000Y-53610283D02*
X147000000Y-53076950D01*
X147533334Y-53876950D02*
X147566667Y-53843616D01*
X147566667Y-53843616D02*
X147633334Y-53743616D01*
X147633334Y-53743616D02*
X147666667Y-53676950D01*
X147666667Y-53676950D02*
X147700000Y-53576950D01*
X147700000Y-53576950D02*
X147733334Y-53410283D01*
X147733334Y-53410283D02*
X147733334Y-53276950D01*
X147733334Y-53276950D02*
X147700000Y-53110283D01*
X147700000Y-53110283D02*
X147666667Y-53010283D01*
X147666667Y-53010283D02*
X147633334Y-52943616D01*
X147633334Y-52943616D02*
X147566667Y-52843616D01*
X147566667Y-52843616D02*
X147533334Y-52810283D01*
X146466666Y-47876950D02*
X146433333Y-47843616D01*
X146433333Y-47843616D02*
X146366666Y-47743616D01*
X146366666Y-47743616D02*
X146333333Y-47676950D01*
X146333333Y-47676950D02*
X146300000Y-47576950D01*
X146300000Y-47576950D02*
X146266666Y-47410283D01*
X146266666Y-47410283D02*
X146266666Y-47276950D01*
X146266666Y-47276950D02*
X146300000Y-47110283D01*
X146300000Y-47110283D02*
X146333333Y-47010283D01*
X146333333Y-47010283D02*
X146366666Y-46943616D01*
X146366666Y-46943616D02*
X146433333Y-46843616D01*
X146433333Y-46843616D02*
X146466666Y-46810283D01*
X146733333Y-47343616D02*
X147266667Y-47343616D01*
X147000000Y-47610283D02*
X147000000Y-47076950D01*
X147533334Y-47876950D02*
X147566667Y-47843616D01*
X147566667Y-47843616D02*
X147633334Y-47743616D01*
X147633334Y-47743616D02*
X147666667Y-47676950D01*
X147666667Y-47676950D02*
X147700000Y-47576950D01*
X147700000Y-47576950D02*
X147733334Y-47410283D01*
X147733334Y-47410283D02*
X147733334Y-47276950D01*
X147733334Y-47276950D02*
X147700000Y-47110283D01*
X147700000Y-47110283D02*
X147666667Y-47010283D01*
X147666667Y-47010283D02*
X147633334Y-46943616D01*
X147633334Y-46943616D02*
X147566667Y-46843616D01*
X147566667Y-46843616D02*
X147533334Y-46810283D01*
X146466666Y-41876950D02*
X146433333Y-41843616D01*
X146433333Y-41843616D02*
X146366666Y-41743616D01*
X146366666Y-41743616D02*
X146333333Y-41676950D01*
X146333333Y-41676950D02*
X146300000Y-41576950D01*
X146300000Y-41576950D02*
X146266666Y-41410283D01*
X146266666Y-41410283D02*
X146266666Y-41276950D01*
X146266666Y-41276950D02*
X146300000Y-41110283D01*
X146300000Y-41110283D02*
X146333333Y-41010283D01*
X146333333Y-41010283D02*
X146366666Y-40943616D01*
X146366666Y-40943616D02*
X146433333Y-40843616D01*
X146433333Y-40843616D02*
X146466666Y-40810283D01*
X146733333Y-41343616D02*
X147266667Y-41343616D01*
X147000000Y-41610283D02*
X147000000Y-41076950D01*
X147533334Y-41876950D02*
X147566667Y-41843616D01*
X147566667Y-41843616D02*
X147633334Y-41743616D01*
X147633334Y-41743616D02*
X147666667Y-41676950D01*
X147666667Y-41676950D02*
X147700000Y-41576950D01*
X147700000Y-41576950D02*
X147733334Y-41410283D01*
X147733334Y-41410283D02*
X147733334Y-41276950D01*
X147733334Y-41276950D02*
X147700000Y-41110283D01*
X147700000Y-41110283D02*
X147666667Y-41010283D01*
X147666667Y-41010283D02*
X147633334Y-40943616D01*
X147633334Y-40943616D02*
X147566667Y-40843616D01*
X147566667Y-40843616D02*
X147533334Y-40810283D01*
X146466666Y-35876950D02*
X146433333Y-35843616D01*
X146433333Y-35843616D02*
X146366666Y-35743616D01*
X146366666Y-35743616D02*
X146333333Y-35676950D01*
X146333333Y-35676950D02*
X146300000Y-35576950D01*
X146300000Y-35576950D02*
X146266666Y-35410283D01*
X146266666Y-35410283D02*
X146266666Y-35276950D01*
X146266666Y-35276950D02*
X146300000Y-35110283D01*
X146300000Y-35110283D02*
X146333333Y-35010283D01*
X146333333Y-35010283D02*
X146366666Y-34943616D01*
X146366666Y-34943616D02*
X146433333Y-34843616D01*
X146433333Y-34843616D02*
X146466666Y-34810283D01*
X146733333Y-35343616D02*
X147266667Y-35343616D01*
X147000000Y-35610283D02*
X147000000Y-35076950D01*
X147533334Y-35876950D02*
X147566667Y-35843616D01*
X147566667Y-35843616D02*
X147633334Y-35743616D01*
X147633334Y-35743616D02*
X147666667Y-35676950D01*
X147666667Y-35676950D02*
X147700000Y-35576950D01*
X147700000Y-35576950D02*
X147733334Y-35410283D01*
X147733334Y-35410283D02*
X147733334Y-35276950D01*
X147733334Y-35276950D02*
X147700000Y-35110283D01*
X147700000Y-35110283D02*
X147666667Y-35010283D01*
X147666667Y-35010283D02*
X147633334Y-34943616D01*
X147633334Y-34943616D02*
X147566667Y-34843616D01*
X147566667Y-34843616D02*
X147533334Y-34810283D01*
X146466666Y-29876950D02*
X146433333Y-29843616D01*
X146433333Y-29843616D02*
X146366666Y-29743616D01*
X146366666Y-29743616D02*
X146333333Y-29676950D01*
X146333333Y-29676950D02*
X146300000Y-29576950D01*
X146300000Y-29576950D02*
X146266666Y-29410283D01*
X146266666Y-29410283D02*
X146266666Y-29276950D01*
X146266666Y-29276950D02*
X146300000Y-29110283D01*
X146300000Y-29110283D02*
X146333333Y-29010283D01*
X146333333Y-29010283D02*
X146366666Y-28943616D01*
X146366666Y-28943616D02*
X146433333Y-28843616D01*
X146433333Y-28843616D02*
X146466666Y-28810283D01*
X146733333Y-29343616D02*
X147266667Y-29343616D01*
X147000000Y-29610283D02*
X147000000Y-29076950D01*
X147533334Y-29876950D02*
X147566667Y-29843616D01*
X147566667Y-29843616D02*
X147633334Y-29743616D01*
X147633334Y-29743616D02*
X147666667Y-29676950D01*
X147666667Y-29676950D02*
X147700000Y-29576950D01*
X147700000Y-29576950D02*
X147733334Y-29410283D01*
X147733334Y-29410283D02*
X147733334Y-29276950D01*
X147733334Y-29276950D02*
X147700000Y-29110283D01*
X147700000Y-29110283D02*
X147666667Y-29010283D01*
X147666667Y-29010283D02*
X147633334Y-28943616D01*
X147633334Y-28943616D02*
X147566667Y-28843616D01*
X147566667Y-28843616D02*
X147533334Y-28810283D01*
X132466666Y-107876950D02*
X132433333Y-107843616D01*
X132433333Y-107843616D02*
X132366666Y-107743616D01*
X132366666Y-107743616D02*
X132333333Y-107676950D01*
X132333333Y-107676950D02*
X132300000Y-107576950D01*
X132300000Y-107576950D02*
X132266666Y-107410283D01*
X132266666Y-107410283D02*
X132266666Y-107276950D01*
X132266666Y-107276950D02*
X132300000Y-107110283D01*
X132300000Y-107110283D02*
X132333333Y-107010283D01*
X132333333Y-107010283D02*
X132366666Y-106943616D01*
X132366666Y-106943616D02*
X132433333Y-106843616D01*
X132433333Y-106843616D02*
X132466666Y-106810283D01*
X132733333Y-107343616D02*
X133266667Y-107343616D01*
X133000000Y-107610283D02*
X133000000Y-107076950D01*
X133533334Y-107876950D02*
X133566667Y-107843616D01*
X133566667Y-107843616D02*
X133633334Y-107743616D01*
X133633334Y-107743616D02*
X133666667Y-107676950D01*
X133666667Y-107676950D02*
X133700000Y-107576950D01*
X133700000Y-107576950D02*
X133733334Y-107410283D01*
X133733334Y-107410283D02*
X133733334Y-107276950D01*
X133733334Y-107276950D02*
X133700000Y-107110283D01*
X133700000Y-107110283D02*
X133666667Y-107010283D01*
X133666667Y-107010283D02*
X133633334Y-106943616D01*
X133633334Y-106943616D02*
X133566667Y-106843616D01*
X133566667Y-106843616D02*
X133533334Y-106810283D01*
X132466666Y-101876950D02*
X132433333Y-101843616D01*
X132433333Y-101843616D02*
X132366666Y-101743616D01*
X132366666Y-101743616D02*
X132333333Y-101676950D01*
X132333333Y-101676950D02*
X132300000Y-101576950D01*
X132300000Y-101576950D02*
X132266666Y-101410283D01*
X132266666Y-101410283D02*
X132266666Y-101276950D01*
X132266666Y-101276950D02*
X132300000Y-101110283D01*
X132300000Y-101110283D02*
X132333333Y-101010283D01*
X132333333Y-101010283D02*
X132366666Y-100943616D01*
X132366666Y-100943616D02*
X132433333Y-100843616D01*
X132433333Y-100843616D02*
X132466666Y-100810283D01*
X132733333Y-101343616D02*
X133266667Y-101343616D01*
X133000000Y-101610283D02*
X133000000Y-101076950D01*
X133533334Y-101876950D02*
X133566667Y-101843616D01*
X133566667Y-101843616D02*
X133633334Y-101743616D01*
X133633334Y-101743616D02*
X133666667Y-101676950D01*
X133666667Y-101676950D02*
X133700000Y-101576950D01*
X133700000Y-101576950D02*
X133733334Y-101410283D01*
X133733334Y-101410283D02*
X133733334Y-101276950D01*
X133733334Y-101276950D02*
X133700000Y-101110283D01*
X133700000Y-101110283D02*
X133666667Y-101010283D01*
X133666667Y-101010283D02*
X133633334Y-100943616D01*
X133633334Y-100943616D02*
X133566667Y-100843616D01*
X133566667Y-100843616D02*
X133533334Y-100810283D01*
X132466666Y-95876950D02*
X132433333Y-95843616D01*
X132433333Y-95843616D02*
X132366666Y-95743616D01*
X132366666Y-95743616D02*
X132333333Y-95676950D01*
X132333333Y-95676950D02*
X132300000Y-95576950D01*
X132300000Y-95576950D02*
X132266666Y-95410283D01*
X132266666Y-95410283D02*
X132266666Y-95276950D01*
X132266666Y-95276950D02*
X132300000Y-95110283D01*
X132300000Y-95110283D02*
X132333333Y-95010283D01*
X132333333Y-95010283D02*
X132366666Y-94943616D01*
X132366666Y-94943616D02*
X132433333Y-94843616D01*
X132433333Y-94843616D02*
X132466666Y-94810283D01*
X132733333Y-95343616D02*
X133266667Y-95343616D01*
X133000000Y-95610283D02*
X133000000Y-95076950D01*
X133533334Y-95876950D02*
X133566667Y-95843616D01*
X133566667Y-95843616D02*
X133633334Y-95743616D01*
X133633334Y-95743616D02*
X133666667Y-95676950D01*
X133666667Y-95676950D02*
X133700000Y-95576950D01*
X133700000Y-95576950D02*
X133733334Y-95410283D01*
X133733334Y-95410283D02*
X133733334Y-95276950D01*
X133733334Y-95276950D02*
X133700000Y-95110283D01*
X133700000Y-95110283D02*
X133666667Y-95010283D01*
X133666667Y-95010283D02*
X133633334Y-94943616D01*
X133633334Y-94943616D02*
X133566667Y-94843616D01*
X133566667Y-94843616D02*
X133533334Y-94810283D01*
X132466666Y-89876950D02*
X132433333Y-89843616D01*
X132433333Y-89843616D02*
X132366666Y-89743616D01*
X132366666Y-89743616D02*
X132333333Y-89676950D01*
X132333333Y-89676950D02*
X132300000Y-89576950D01*
X132300000Y-89576950D02*
X132266666Y-89410283D01*
X132266666Y-89410283D02*
X132266666Y-89276950D01*
X132266666Y-89276950D02*
X132300000Y-89110283D01*
X132300000Y-89110283D02*
X132333333Y-89010283D01*
X132333333Y-89010283D02*
X132366666Y-88943616D01*
X132366666Y-88943616D02*
X132433333Y-88843616D01*
X132433333Y-88843616D02*
X132466666Y-88810283D01*
X132733333Y-89343616D02*
X133266667Y-89343616D01*
X133000000Y-89610283D02*
X133000000Y-89076950D01*
X133533334Y-89876950D02*
X133566667Y-89843616D01*
X133566667Y-89843616D02*
X133633334Y-89743616D01*
X133633334Y-89743616D02*
X133666667Y-89676950D01*
X133666667Y-89676950D02*
X133700000Y-89576950D01*
X133700000Y-89576950D02*
X133733334Y-89410283D01*
X133733334Y-89410283D02*
X133733334Y-89276950D01*
X133733334Y-89276950D02*
X133700000Y-89110283D01*
X133700000Y-89110283D02*
X133666667Y-89010283D01*
X133666667Y-89010283D02*
X133633334Y-88943616D01*
X133633334Y-88943616D02*
X133566667Y-88843616D01*
X133566667Y-88843616D02*
X133533334Y-88810283D01*
X132466666Y-83876950D02*
X132433333Y-83843616D01*
X132433333Y-83843616D02*
X132366666Y-83743616D01*
X132366666Y-83743616D02*
X132333333Y-83676950D01*
X132333333Y-83676950D02*
X132300000Y-83576950D01*
X132300000Y-83576950D02*
X132266666Y-83410283D01*
X132266666Y-83410283D02*
X132266666Y-83276950D01*
X132266666Y-83276950D02*
X132300000Y-83110283D01*
X132300000Y-83110283D02*
X132333333Y-83010283D01*
X132333333Y-83010283D02*
X132366666Y-82943616D01*
X132366666Y-82943616D02*
X132433333Y-82843616D01*
X132433333Y-82843616D02*
X132466666Y-82810283D01*
X132733333Y-83343616D02*
X133266667Y-83343616D01*
X133000000Y-83610283D02*
X133000000Y-83076950D01*
X133533334Y-83876950D02*
X133566667Y-83843616D01*
X133566667Y-83843616D02*
X133633334Y-83743616D01*
X133633334Y-83743616D02*
X133666667Y-83676950D01*
X133666667Y-83676950D02*
X133700000Y-83576950D01*
X133700000Y-83576950D02*
X133733334Y-83410283D01*
X133733334Y-83410283D02*
X133733334Y-83276950D01*
X133733334Y-83276950D02*
X133700000Y-83110283D01*
X133700000Y-83110283D02*
X133666667Y-83010283D01*
X133666667Y-83010283D02*
X133633334Y-82943616D01*
X133633334Y-82943616D02*
X133566667Y-82843616D01*
X133566667Y-82843616D02*
X133533334Y-82810283D01*
X132466666Y-77876950D02*
X132433333Y-77843616D01*
X132433333Y-77843616D02*
X132366666Y-77743616D01*
X132366666Y-77743616D02*
X132333333Y-77676950D01*
X132333333Y-77676950D02*
X132300000Y-77576950D01*
X132300000Y-77576950D02*
X132266666Y-77410283D01*
X132266666Y-77410283D02*
X132266666Y-77276950D01*
X132266666Y-77276950D02*
X132300000Y-77110283D01*
X132300000Y-77110283D02*
X132333333Y-77010283D01*
X132333333Y-77010283D02*
X132366666Y-76943616D01*
X132366666Y-76943616D02*
X132433333Y-76843616D01*
X132433333Y-76843616D02*
X132466666Y-76810283D01*
X132733333Y-77343616D02*
X133266667Y-77343616D01*
X133000000Y-77610283D02*
X133000000Y-77076950D01*
X133533334Y-77876950D02*
X133566667Y-77843616D01*
X133566667Y-77843616D02*
X133633334Y-77743616D01*
X133633334Y-77743616D02*
X133666667Y-77676950D01*
X133666667Y-77676950D02*
X133700000Y-77576950D01*
X133700000Y-77576950D02*
X133733334Y-77410283D01*
X133733334Y-77410283D02*
X133733334Y-77276950D01*
X133733334Y-77276950D02*
X133700000Y-77110283D01*
X133700000Y-77110283D02*
X133666667Y-77010283D01*
X133666667Y-77010283D02*
X133633334Y-76943616D01*
X133633334Y-76943616D02*
X133566667Y-76843616D01*
X133566667Y-76843616D02*
X133533334Y-76810283D01*
X132466666Y-71876950D02*
X132433333Y-71843616D01*
X132433333Y-71843616D02*
X132366666Y-71743616D01*
X132366666Y-71743616D02*
X132333333Y-71676950D01*
X132333333Y-71676950D02*
X132300000Y-71576950D01*
X132300000Y-71576950D02*
X132266666Y-71410283D01*
X132266666Y-71410283D02*
X132266666Y-71276950D01*
X132266666Y-71276950D02*
X132300000Y-71110283D01*
X132300000Y-71110283D02*
X132333333Y-71010283D01*
X132333333Y-71010283D02*
X132366666Y-70943616D01*
X132366666Y-70943616D02*
X132433333Y-70843616D01*
X132433333Y-70843616D02*
X132466666Y-70810283D01*
X132733333Y-71343616D02*
X133266667Y-71343616D01*
X133000000Y-71610283D02*
X133000000Y-71076950D01*
X133533334Y-71876950D02*
X133566667Y-71843616D01*
X133566667Y-71843616D02*
X133633334Y-71743616D01*
X133633334Y-71743616D02*
X133666667Y-71676950D01*
X133666667Y-71676950D02*
X133700000Y-71576950D01*
X133700000Y-71576950D02*
X133733334Y-71410283D01*
X133733334Y-71410283D02*
X133733334Y-71276950D01*
X133733334Y-71276950D02*
X133700000Y-71110283D01*
X133700000Y-71110283D02*
X133666667Y-71010283D01*
X133666667Y-71010283D02*
X133633334Y-70943616D01*
X133633334Y-70943616D02*
X133566667Y-70843616D01*
X133566667Y-70843616D02*
X133533334Y-70810283D01*
X132466666Y-65876950D02*
X132433333Y-65843616D01*
X132433333Y-65843616D02*
X132366666Y-65743616D01*
X132366666Y-65743616D02*
X132333333Y-65676950D01*
X132333333Y-65676950D02*
X132300000Y-65576950D01*
X132300000Y-65576950D02*
X132266666Y-65410283D01*
X132266666Y-65410283D02*
X132266666Y-65276950D01*
X132266666Y-65276950D02*
X132300000Y-65110283D01*
X132300000Y-65110283D02*
X132333333Y-65010283D01*
X132333333Y-65010283D02*
X132366666Y-64943616D01*
X132366666Y-64943616D02*
X132433333Y-64843616D01*
X132433333Y-64843616D02*
X132466666Y-64810283D01*
X132733333Y-65343616D02*
X133266667Y-65343616D01*
X133000000Y-65610283D02*
X133000000Y-65076950D01*
X133533334Y-65876950D02*
X133566667Y-65843616D01*
X133566667Y-65843616D02*
X133633334Y-65743616D01*
X133633334Y-65743616D02*
X133666667Y-65676950D01*
X133666667Y-65676950D02*
X133700000Y-65576950D01*
X133700000Y-65576950D02*
X133733334Y-65410283D01*
X133733334Y-65410283D02*
X133733334Y-65276950D01*
X133733334Y-65276950D02*
X133700000Y-65110283D01*
X133700000Y-65110283D02*
X133666667Y-65010283D01*
X133666667Y-65010283D02*
X133633334Y-64943616D01*
X133633334Y-64943616D02*
X133566667Y-64843616D01*
X133566667Y-64843616D02*
X133533334Y-64810283D01*
X132466666Y-59876950D02*
X132433333Y-59843616D01*
X132433333Y-59843616D02*
X132366666Y-59743616D01*
X132366666Y-59743616D02*
X132333333Y-59676950D01*
X132333333Y-59676950D02*
X132300000Y-59576950D01*
X132300000Y-59576950D02*
X132266666Y-59410283D01*
X132266666Y-59410283D02*
X132266666Y-59276950D01*
X132266666Y-59276950D02*
X132300000Y-59110283D01*
X132300000Y-59110283D02*
X132333333Y-59010283D01*
X132333333Y-59010283D02*
X132366666Y-58943616D01*
X132366666Y-58943616D02*
X132433333Y-58843616D01*
X132433333Y-58843616D02*
X132466666Y-58810283D01*
X132733333Y-59343616D02*
X133266667Y-59343616D01*
X133000000Y-59610283D02*
X133000000Y-59076950D01*
X133533334Y-59876950D02*
X133566667Y-59843616D01*
X133566667Y-59843616D02*
X133633334Y-59743616D01*
X133633334Y-59743616D02*
X133666667Y-59676950D01*
X133666667Y-59676950D02*
X133700000Y-59576950D01*
X133700000Y-59576950D02*
X133733334Y-59410283D01*
X133733334Y-59410283D02*
X133733334Y-59276950D01*
X133733334Y-59276950D02*
X133700000Y-59110283D01*
X133700000Y-59110283D02*
X133666667Y-59010283D01*
X133666667Y-59010283D02*
X133633334Y-58943616D01*
X133633334Y-58943616D02*
X133566667Y-58843616D01*
X133566667Y-58843616D02*
X133533334Y-58810283D01*
X132466666Y-53876950D02*
X132433333Y-53843616D01*
X132433333Y-53843616D02*
X132366666Y-53743616D01*
X132366666Y-53743616D02*
X132333333Y-53676950D01*
X132333333Y-53676950D02*
X132300000Y-53576950D01*
X132300000Y-53576950D02*
X132266666Y-53410283D01*
X132266666Y-53410283D02*
X132266666Y-53276950D01*
X132266666Y-53276950D02*
X132300000Y-53110283D01*
X132300000Y-53110283D02*
X132333333Y-53010283D01*
X132333333Y-53010283D02*
X132366666Y-52943616D01*
X132366666Y-52943616D02*
X132433333Y-52843616D01*
X132433333Y-52843616D02*
X132466666Y-52810283D01*
X132733333Y-53343616D02*
X133266667Y-53343616D01*
X133000000Y-53610283D02*
X133000000Y-53076950D01*
X133533334Y-53876950D02*
X133566667Y-53843616D01*
X133566667Y-53843616D02*
X133633334Y-53743616D01*
X133633334Y-53743616D02*
X133666667Y-53676950D01*
X133666667Y-53676950D02*
X133700000Y-53576950D01*
X133700000Y-53576950D02*
X133733334Y-53410283D01*
X133733334Y-53410283D02*
X133733334Y-53276950D01*
X133733334Y-53276950D02*
X133700000Y-53110283D01*
X133700000Y-53110283D02*
X133666667Y-53010283D01*
X133666667Y-53010283D02*
X133633334Y-52943616D01*
X133633334Y-52943616D02*
X133566667Y-52843616D01*
X133566667Y-52843616D02*
X133533334Y-52810283D01*
X132466666Y-47876950D02*
X132433333Y-47843616D01*
X132433333Y-47843616D02*
X132366666Y-47743616D01*
X132366666Y-47743616D02*
X132333333Y-47676950D01*
X132333333Y-47676950D02*
X132300000Y-47576950D01*
X132300000Y-47576950D02*
X132266666Y-47410283D01*
X132266666Y-47410283D02*
X132266666Y-47276950D01*
X132266666Y-47276950D02*
X132300000Y-47110283D01*
X132300000Y-47110283D02*
X132333333Y-47010283D01*
X132333333Y-47010283D02*
X132366666Y-46943616D01*
X132366666Y-46943616D02*
X132433333Y-46843616D01*
X132433333Y-46843616D02*
X132466666Y-46810283D01*
X132733333Y-47343616D02*
X133266667Y-47343616D01*
X133000000Y-47610283D02*
X133000000Y-47076950D01*
X133533334Y-47876950D02*
X133566667Y-47843616D01*
X133566667Y-47843616D02*
X133633334Y-47743616D01*
X133633334Y-47743616D02*
X133666667Y-47676950D01*
X133666667Y-47676950D02*
X133700000Y-47576950D01*
X133700000Y-47576950D02*
X133733334Y-47410283D01*
X133733334Y-47410283D02*
X133733334Y-47276950D01*
X133733334Y-47276950D02*
X133700000Y-47110283D01*
X133700000Y-47110283D02*
X133666667Y-47010283D01*
X133666667Y-47010283D02*
X133633334Y-46943616D01*
X133633334Y-46943616D02*
X133566667Y-46843616D01*
X133566667Y-46843616D02*
X133533334Y-46810283D01*
X132466666Y-41876950D02*
X132433333Y-41843616D01*
X132433333Y-41843616D02*
X132366666Y-41743616D01*
X132366666Y-41743616D02*
X132333333Y-41676950D01*
X132333333Y-41676950D02*
X132300000Y-41576950D01*
X132300000Y-41576950D02*
X132266666Y-41410283D01*
X132266666Y-41410283D02*
X132266666Y-41276950D01*
X132266666Y-41276950D02*
X132300000Y-41110283D01*
X132300000Y-41110283D02*
X132333333Y-41010283D01*
X132333333Y-41010283D02*
X132366666Y-40943616D01*
X132366666Y-40943616D02*
X132433333Y-40843616D01*
X132433333Y-40843616D02*
X132466666Y-40810283D01*
X132733333Y-41343616D02*
X133266667Y-41343616D01*
X133000000Y-41610283D02*
X133000000Y-41076950D01*
X133533334Y-41876950D02*
X133566667Y-41843616D01*
X133566667Y-41843616D02*
X133633334Y-41743616D01*
X133633334Y-41743616D02*
X133666667Y-41676950D01*
X133666667Y-41676950D02*
X133700000Y-41576950D01*
X133700000Y-41576950D02*
X133733334Y-41410283D01*
X133733334Y-41410283D02*
X133733334Y-41276950D01*
X133733334Y-41276950D02*
X133700000Y-41110283D01*
X133700000Y-41110283D02*
X133666667Y-41010283D01*
X133666667Y-41010283D02*
X133633334Y-40943616D01*
X133633334Y-40943616D02*
X133566667Y-40843616D01*
X133566667Y-40843616D02*
X133533334Y-40810283D01*
X132466666Y-35876950D02*
X132433333Y-35843616D01*
X132433333Y-35843616D02*
X132366666Y-35743616D01*
X132366666Y-35743616D02*
X132333333Y-35676950D01*
X132333333Y-35676950D02*
X132300000Y-35576950D01*
X132300000Y-35576950D02*
X132266666Y-35410283D01*
X132266666Y-35410283D02*
X132266666Y-35276950D01*
X132266666Y-35276950D02*
X132300000Y-35110283D01*
X132300000Y-35110283D02*
X132333333Y-35010283D01*
X132333333Y-35010283D02*
X132366666Y-34943616D01*
X132366666Y-34943616D02*
X132433333Y-34843616D01*
X132433333Y-34843616D02*
X132466666Y-34810283D01*
X132733333Y-35343616D02*
X133266667Y-35343616D01*
X133000000Y-35610283D02*
X133000000Y-35076950D01*
X133533334Y-35876950D02*
X133566667Y-35843616D01*
X133566667Y-35843616D02*
X133633334Y-35743616D01*
X133633334Y-35743616D02*
X133666667Y-35676950D01*
X133666667Y-35676950D02*
X133700000Y-35576950D01*
X133700000Y-35576950D02*
X133733334Y-35410283D01*
X133733334Y-35410283D02*
X133733334Y-35276950D01*
X133733334Y-35276950D02*
X133700000Y-35110283D01*
X133700000Y-35110283D02*
X133666667Y-35010283D01*
X133666667Y-35010283D02*
X133633334Y-34943616D01*
X133633334Y-34943616D02*
X133566667Y-34843616D01*
X133566667Y-34843616D02*
X133533334Y-34810283D01*
X132466666Y-29876950D02*
X132433333Y-29843616D01*
X132433333Y-29843616D02*
X132366666Y-29743616D01*
X132366666Y-29743616D02*
X132333333Y-29676950D01*
X132333333Y-29676950D02*
X132300000Y-29576950D01*
X132300000Y-29576950D02*
X132266666Y-29410283D01*
X132266666Y-29410283D02*
X132266666Y-29276950D01*
X132266666Y-29276950D02*
X132300000Y-29110283D01*
X132300000Y-29110283D02*
X132333333Y-29010283D01*
X132333333Y-29010283D02*
X132366666Y-28943616D01*
X132366666Y-28943616D02*
X132433333Y-28843616D01*
X132433333Y-28843616D02*
X132466666Y-28810283D01*
X132733333Y-29343616D02*
X133266667Y-29343616D01*
X133000000Y-29610283D02*
X133000000Y-29076950D01*
X133533334Y-29876950D02*
X133566667Y-29843616D01*
X133566667Y-29843616D02*
X133633334Y-29743616D01*
X133633334Y-29743616D02*
X133666667Y-29676950D01*
X133666667Y-29676950D02*
X133700000Y-29576950D01*
X133700000Y-29576950D02*
X133733334Y-29410283D01*
X133733334Y-29410283D02*
X133733334Y-29276950D01*
X133733334Y-29276950D02*
X133700000Y-29110283D01*
X133700000Y-29110283D02*
X133666667Y-29010283D01*
X133666667Y-29010283D02*
X133633334Y-28943616D01*
X133633334Y-28943616D02*
X133566667Y-28843616D01*
X133566667Y-28843616D02*
X133533334Y-28810283D01*
X118466666Y-107876950D02*
X118433333Y-107843616D01*
X118433333Y-107843616D02*
X118366666Y-107743616D01*
X118366666Y-107743616D02*
X118333333Y-107676950D01*
X118333333Y-107676950D02*
X118300000Y-107576950D01*
X118300000Y-107576950D02*
X118266666Y-107410283D01*
X118266666Y-107410283D02*
X118266666Y-107276950D01*
X118266666Y-107276950D02*
X118300000Y-107110283D01*
X118300000Y-107110283D02*
X118333333Y-107010283D01*
X118333333Y-107010283D02*
X118366666Y-106943616D01*
X118366666Y-106943616D02*
X118433333Y-106843616D01*
X118433333Y-106843616D02*
X118466666Y-106810283D01*
X118733333Y-107343616D02*
X119266667Y-107343616D01*
X119000000Y-107610283D02*
X119000000Y-107076950D01*
X119533334Y-107876950D02*
X119566667Y-107843616D01*
X119566667Y-107843616D02*
X119633334Y-107743616D01*
X119633334Y-107743616D02*
X119666667Y-107676950D01*
X119666667Y-107676950D02*
X119700000Y-107576950D01*
X119700000Y-107576950D02*
X119733334Y-107410283D01*
X119733334Y-107410283D02*
X119733334Y-107276950D01*
X119733334Y-107276950D02*
X119700000Y-107110283D01*
X119700000Y-107110283D02*
X119666667Y-107010283D01*
X119666667Y-107010283D02*
X119633334Y-106943616D01*
X119633334Y-106943616D02*
X119566667Y-106843616D01*
X119566667Y-106843616D02*
X119533334Y-106810283D01*
X118466666Y-101876950D02*
X118433333Y-101843616D01*
X118433333Y-101843616D02*
X118366666Y-101743616D01*
X118366666Y-101743616D02*
X118333333Y-101676950D01*
X118333333Y-101676950D02*
X118300000Y-101576950D01*
X118300000Y-101576950D02*
X118266666Y-101410283D01*
X118266666Y-101410283D02*
X118266666Y-101276950D01*
X118266666Y-101276950D02*
X118300000Y-101110283D01*
X118300000Y-101110283D02*
X118333333Y-101010283D01*
X118333333Y-101010283D02*
X118366666Y-100943616D01*
X118366666Y-100943616D02*
X118433333Y-100843616D01*
X118433333Y-100843616D02*
X118466666Y-100810283D01*
X118733333Y-101343616D02*
X119266667Y-101343616D01*
X119000000Y-101610283D02*
X119000000Y-101076950D01*
X119533334Y-101876950D02*
X119566667Y-101843616D01*
X119566667Y-101843616D02*
X119633334Y-101743616D01*
X119633334Y-101743616D02*
X119666667Y-101676950D01*
X119666667Y-101676950D02*
X119700000Y-101576950D01*
X119700000Y-101576950D02*
X119733334Y-101410283D01*
X119733334Y-101410283D02*
X119733334Y-101276950D01*
X119733334Y-101276950D02*
X119700000Y-101110283D01*
X119700000Y-101110283D02*
X119666667Y-101010283D01*
X119666667Y-101010283D02*
X119633334Y-100943616D01*
X119633334Y-100943616D02*
X119566667Y-100843616D01*
X119566667Y-100843616D02*
X119533334Y-100810283D01*
X118466666Y-95876950D02*
X118433333Y-95843616D01*
X118433333Y-95843616D02*
X118366666Y-95743616D01*
X118366666Y-95743616D02*
X118333333Y-95676950D01*
X118333333Y-95676950D02*
X118300000Y-95576950D01*
X118300000Y-95576950D02*
X118266666Y-95410283D01*
X118266666Y-95410283D02*
X118266666Y-95276950D01*
X118266666Y-95276950D02*
X118300000Y-95110283D01*
X118300000Y-95110283D02*
X118333333Y-95010283D01*
X118333333Y-95010283D02*
X118366666Y-94943616D01*
X118366666Y-94943616D02*
X118433333Y-94843616D01*
X118433333Y-94843616D02*
X118466666Y-94810283D01*
X118733333Y-95343616D02*
X119266667Y-95343616D01*
X119000000Y-95610283D02*
X119000000Y-95076950D01*
X119533334Y-95876950D02*
X119566667Y-95843616D01*
X119566667Y-95843616D02*
X119633334Y-95743616D01*
X119633334Y-95743616D02*
X119666667Y-95676950D01*
X119666667Y-95676950D02*
X119700000Y-95576950D01*
X119700000Y-95576950D02*
X119733334Y-95410283D01*
X119733334Y-95410283D02*
X119733334Y-95276950D01*
X119733334Y-95276950D02*
X119700000Y-95110283D01*
X119700000Y-95110283D02*
X119666667Y-95010283D01*
X119666667Y-95010283D02*
X119633334Y-94943616D01*
X119633334Y-94943616D02*
X119566667Y-94843616D01*
X119566667Y-94843616D02*
X119533334Y-94810283D01*
X118466666Y-89876950D02*
X118433333Y-89843616D01*
X118433333Y-89843616D02*
X118366666Y-89743616D01*
X118366666Y-89743616D02*
X118333333Y-89676950D01*
X118333333Y-89676950D02*
X118300000Y-89576950D01*
X118300000Y-89576950D02*
X118266666Y-89410283D01*
X118266666Y-89410283D02*
X118266666Y-89276950D01*
X118266666Y-89276950D02*
X118300000Y-89110283D01*
X118300000Y-89110283D02*
X118333333Y-89010283D01*
X118333333Y-89010283D02*
X118366666Y-88943616D01*
X118366666Y-88943616D02*
X118433333Y-88843616D01*
X118433333Y-88843616D02*
X118466666Y-88810283D01*
X118733333Y-89343616D02*
X119266667Y-89343616D01*
X119000000Y-89610283D02*
X119000000Y-89076950D01*
X119533334Y-89876950D02*
X119566667Y-89843616D01*
X119566667Y-89843616D02*
X119633334Y-89743616D01*
X119633334Y-89743616D02*
X119666667Y-89676950D01*
X119666667Y-89676950D02*
X119700000Y-89576950D01*
X119700000Y-89576950D02*
X119733334Y-89410283D01*
X119733334Y-89410283D02*
X119733334Y-89276950D01*
X119733334Y-89276950D02*
X119700000Y-89110283D01*
X119700000Y-89110283D02*
X119666667Y-89010283D01*
X119666667Y-89010283D02*
X119633334Y-88943616D01*
X119633334Y-88943616D02*
X119566667Y-88843616D01*
X119566667Y-88843616D02*
X119533334Y-88810283D01*
X118466666Y-83876950D02*
X118433333Y-83843616D01*
X118433333Y-83843616D02*
X118366666Y-83743616D01*
X118366666Y-83743616D02*
X118333333Y-83676950D01*
X118333333Y-83676950D02*
X118300000Y-83576950D01*
X118300000Y-83576950D02*
X118266666Y-83410283D01*
X118266666Y-83410283D02*
X118266666Y-83276950D01*
X118266666Y-83276950D02*
X118300000Y-83110283D01*
X118300000Y-83110283D02*
X118333333Y-83010283D01*
X118333333Y-83010283D02*
X118366666Y-82943616D01*
X118366666Y-82943616D02*
X118433333Y-82843616D01*
X118433333Y-82843616D02*
X118466666Y-82810283D01*
X118733333Y-83343616D02*
X119266667Y-83343616D01*
X119000000Y-83610283D02*
X119000000Y-83076950D01*
X119533334Y-83876950D02*
X119566667Y-83843616D01*
X119566667Y-83843616D02*
X119633334Y-83743616D01*
X119633334Y-83743616D02*
X119666667Y-83676950D01*
X119666667Y-83676950D02*
X119700000Y-83576950D01*
X119700000Y-83576950D02*
X119733334Y-83410283D01*
X119733334Y-83410283D02*
X119733334Y-83276950D01*
X119733334Y-83276950D02*
X119700000Y-83110283D01*
X119700000Y-83110283D02*
X119666667Y-83010283D01*
X119666667Y-83010283D02*
X119633334Y-82943616D01*
X119633334Y-82943616D02*
X119566667Y-82843616D01*
X119566667Y-82843616D02*
X119533334Y-82810283D01*
X118466666Y-77876950D02*
X118433333Y-77843616D01*
X118433333Y-77843616D02*
X118366666Y-77743616D01*
X118366666Y-77743616D02*
X118333333Y-77676950D01*
X118333333Y-77676950D02*
X118300000Y-77576950D01*
X118300000Y-77576950D02*
X118266666Y-77410283D01*
X118266666Y-77410283D02*
X118266666Y-77276950D01*
X118266666Y-77276950D02*
X118300000Y-77110283D01*
X118300000Y-77110283D02*
X118333333Y-77010283D01*
X118333333Y-77010283D02*
X118366666Y-76943616D01*
X118366666Y-76943616D02*
X118433333Y-76843616D01*
X118433333Y-76843616D02*
X118466666Y-76810283D01*
X118733333Y-77343616D02*
X119266667Y-77343616D01*
X119000000Y-77610283D02*
X119000000Y-77076950D01*
X119533334Y-77876950D02*
X119566667Y-77843616D01*
X119566667Y-77843616D02*
X119633334Y-77743616D01*
X119633334Y-77743616D02*
X119666667Y-77676950D01*
X119666667Y-77676950D02*
X119700000Y-77576950D01*
X119700000Y-77576950D02*
X119733334Y-77410283D01*
X119733334Y-77410283D02*
X119733334Y-77276950D01*
X119733334Y-77276950D02*
X119700000Y-77110283D01*
X119700000Y-77110283D02*
X119666667Y-77010283D01*
X119666667Y-77010283D02*
X119633334Y-76943616D01*
X119633334Y-76943616D02*
X119566667Y-76843616D01*
X119566667Y-76843616D02*
X119533334Y-76810283D01*
X118466666Y-71876950D02*
X118433333Y-71843616D01*
X118433333Y-71843616D02*
X118366666Y-71743616D01*
X118366666Y-71743616D02*
X118333333Y-71676950D01*
X118333333Y-71676950D02*
X118300000Y-71576950D01*
X118300000Y-71576950D02*
X118266666Y-71410283D01*
X118266666Y-71410283D02*
X118266666Y-71276950D01*
X118266666Y-71276950D02*
X118300000Y-71110283D01*
X118300000Y-71110283D02*
X118333333Y-71010283D01*
X118333333Y-71010283D02*
X118366666Y-70943616D01*
X118366666Y-70943616D02*
X118433333Y-70843616D01*
X118433333Y-70843616D02*
X118466666Y-70810283D01*
X118733333Y-71343616D02*
X119266667Y-71343616D01*
X119000000Y-71610283D02*
X119000000Y-71076950D01*
X119533334Y-71876950D02*
X119566667Y-71843616D01*
X119566667Y-71843616D02*
X119633334Y-71743616D01*
X119633334Y-71743616D02*
X119666667Y-71676950D01*
X119666667Y-71676950D02*
X119700000Y-71576950D01*
X119700000Y-71576950D02*
X119733334Y-71410283D01*
X119733334Y-71410283D02*
X119733334Y-71276950D01*
X119733334Y-71276950D02*
X119700000Y-71110283D01*
X119700000Y-71110283D02*
X119666667Y-71010283D01*
X119666667Y-71010283D02*
X119633334Y-70943616D01*
X119633334Y-70943616D02*
X119566667Y-70843616D01*
X119566667Y-70843616D02*
X119533334Y-70810283D01*
X118466666Y-65876950D02*
X118433333Y-65843616D01*
X118433333Y-65843616D02*
X118366666Y-65743616D01*
X118366666Y-65743616D02*
X118333333Y-65676950D01*
X118333333Y-65676950D02*
X118300000Y-65576950D01*
X118300000Y-65576950D02*
X118266666Y-65410283D01*
X118266666Y-65410283D02*
X118266666Y-65276950D01*
X118266666Y-65276950D02*
X118300000Y-65110283D01*
X118300000Y-65110283D02*
X118333333Y-65010283D01*
X118333333Y-65010283D02*
X118366666Y-64943616D01*
X118366666Y-64943616D02*
X118433333Y-64843616D01*
X118433333Y-64843616D02*
X118466666Y-64810283D01*
X118733333Y-65343616D02*
X119266667Y-65343616D01*
X119000000Y-65610283D02*
X119000000Y-65076950D01*
X119533334Y-65876950D02*
X119566667Y-65843616D01*
X119566667Y-65843616D02*
X119633334Y-65743616D01*
X119633334Y-65743616D02*
X119666667Y-65676950D01*
X119666667Y-65676950D02*
X119700000Y-65576950D01*
X119700000Y-65576950D02*
X119733334Y-65410283D01*
X119733334Y-65410283D02*
X119733334Y-65276950D01*
X119733334Y-65276950D02*
X119700000Y-65110283D01*
X119700000Y-65110283D02*
X119666667Y-65010283D01*
X119666667Y-65010283D02*
X119633334Y-64943616D01*
X119633334Y-64943616D02*
X119566667Y-64843616D01*
X119566667Y-64843616D02*
X119533334Y-64810283D01*
X118466666Y-59876950D02*
X118433333Y-59843616D01*
X118433333Y-59843616D02*
X118366666Y-59743616D01*
X118366666Y-59743616D02*
X118333333Y-59676950D01*
X118333333Y-59676950D02*
X118300000Y-59576950D01*
X118300000Y-59576950D02*
X118266666Y-59410283D01*
X118266666Y-59410283D02*
X118266666Y-59276950D01*
X118266666Y-59276950D02*
X118300000Y-59110283D01*
X118300000Y-59110283D02*
X118333333Y-59010283D01*
X118333333Y-59010283D02*
X118366666Y-58943616D01*
X118366666Y-58943616D02*
X118433333Y-58843616D01*
X118433333Y-58843616D02*
X118466666Y-58810283D01*
X118733333Y-59343616D02*
X119266667Y-59343616D01*
X119000000Y-59610283D02*
X119000000Y-59076950D01*
X119533334Y-59876950D02*
X119566667Y-59843616D01*
X119566667Y-59843616D02*
X119633334Y-59743616D01*
X119633334Y-59743616D02*
X119666667Y-59676950D01*
X119666667Y-59676950D02*
X119700000Y-59576950D01*
X119700000Y-59576950D02*
X119733334Y-59410283D01*
X119733334Y-59410283D02*
X119733334Y-59276950D01*
X119733334Y-59276950D02*
X119700000Y-59110283D01*
X119700000Y-59110283D02*
X119666667Y-59010283D01*
X119666667Y-59010283D02*
X119633334Y-58943616D01*
X119633334Y-58943616D02*
X119566667Y-58843616D01*
X119566667Y-58843616D02*
X119533334Y-58810283D01*
X118466666Y-53876950D02*
X118433333Y-53843616D01*
X118433333Y-53843616D02*
X118366666Y-53743616D01*
X118366666Y-53743616D02*
X118333333Y-53676950D01*
X118333333Y-53676950D02*
X118300000Y-53576950D01*
X118300000Y-53576950D02*
X118266666Y-53410283D01*
X118266666Y-53410283D02*
X118266666Y-53276950D01*
X118266666Y-53276950D02*
X118300000Y-53110283D01*
X118300000Y-53110283D02*
X118333333Y-53010283D01*
X118333333Y-53010283D02*
X118366666Y-52943616D01*
X118366666Y-52943616D02*
X118433333Y-52843616D01*
X118433333Y-52843616D02*
X118466666Y-52810283D01*
X118733333Y-53343616D02*
X119266667Y-53343616D01*
X119000000Y-53610283D02*
X119000000Y-53076950D01*
X119533334Y-53876950D02*
X119566667Y-53843616D01*
X119566667Y-53843616D02*
X119633334Y-53743616D01*
X119633334Y-53743616D02*
X119666667Y-53676950D01*
X119666667Y-53676950D02*
X119700000Y-53576950D01*
X119700000Y-53576950D02*
X119733334Y-53410283D01*
X119733334Y-53410283D02*
X119733334Y-53276950D01*
X119733334Y-53276950D02*
X119700000Y-53110283D01*
X119700000Y-53110283D02*
X119666667Y-53010283D01*
X119666667Y-53010283D02*
X119633334Y-52943616D01*
X119633334Y-52943616D02*
X119566667Y-52843616D01*
X119566667Y-52843616D02*
X119533334Y-52810283D01*
X118466666Y-47876950D02*
X118433333Y-47843616D01*
X118433333Y-47843616D02*
X118366666Y-47743616D01*
X118366666Y-47743616D02*
X118333333Y-47676950D01*
X118333333Y-47676950D02*
X118300000Y-47576950D01*
X118300000Y-47576950D02*
X118266666Y-47410283D01*
X118266666Y-47410283D02*
X118266666Y-47276950D01*
X118266666Y-47276950D02*
X118300000Y-47110283D01*
X118300000Y-47110283D02*
X118333333Y-47010283D01*
X118333333Y-47010283D02*
X118366666Y-46943616D01*
X118366666Y-46943616D02*
X118433333Y-46843616D01*
X118433333Y-46843616D02*
X118466666Y-46810283D01*
X118733333Y-47343616D02*
X119266667Y-47343616D01*
X119000000Y-47610283D02*
X119000000Y-47076950D01*
X119533334Y-47876950D02*
X119566667Y-47843616D01*
X119566667Y-47843616D02*
X119633334Y-47743616D01*
X119633334Y-47743616D02*
X119666667Y-47676950D01*
X119666667Y-47676950D02*
X119700000Y-47576950D01*
X119700000Y-47576950D02*
X119733334Y-47410283D01*
X119733334Y-47410283D02*
X119733334Y-47276950D01*
X119733334Y-47276950D02*
X119700000Y-47110283D01*
X119700000Y-47110283D02*
X119666667Y-47010283D01*
X119666667Y-47010283D02*
X119633334Y-46943616D01*
X119633334Y-46943616D02*
X119566667Y-46843616D01*
X119566667Y-46843616D02*
X119533334Y-46810283D01*
X118466666Y-41876950D02*
X118433333Y-41843616D01*
X118433333Y-41843616D02*
X118366666Y-41743616D01*
X118366666Y-41743616D02*
X118333333Y-41676950D01*
X118333333Y-41676950D02*
X118300000Y-41576950D01*
X118300000Y-41576950D02*
X118266666Y-41410283D01*
X118266666Y-41410283D02*
X118266666Y-41276950D01*
X118266666Y-41276950D02*
X118300000Y-41110283D01*
X118300000Y-41110283D02*
X118333333Y-41010283D01*
X118333333Y-41010283D02*
X118366666Y-40943616D01*
X118366666Y-40943616D02*
X118433333Y-40843616D01*
X118433333Y-40843616D02*
X118466666Y-40810283D01*
X118733333Y-41343616D02*
X119266667Y-41343616D01*
X119000000Y-41610283D02*
X119000000Y-41076950D01*
X119533334Y-41876950D02*
X119566667Y-41843616D01*
X119566667Y-41843616D02*
X119633334Y-41743616D01*
X119633334Y-41743616D02*
X119666667Y-41676950D01*
X119666667Y-41676950D02*
X119700000Y-41576950D01*
X119700000Y-41576950D02*
X119733334Y-41410283D01*
X119733334Y-41410283D02*
X119733334Y-41276950D01*
X119733334Y-41276950D02*
X119700000Y-41110283D01*
X119700000Y-41110283D02*
X119666667Y-41010283D01*
X119666667Y-41010283D02*
X119633334Y-40943616D01*
X119633334Y-40943616D02*
X119566667Y-40843616D01*
X119566667Y-40843616D02*
X119533334Y-40810283D01*
X118466666Y-35876950D02*
X118433333Y-35843616D01*
X118433333Y-35843616D02*
X118366666Y-35743616D01*
X118366666Y-35743616D02*
X118333333Y-35676950D01*
X118333333Y-35676950D02*
X118300000Y-35576950D01*
X118300000Y-35576950D02*
X118266666Y-35410283D01*
X118266666Y-35410283D02*
X118266666Y-35276950D01*
X118266666Y-35276950D02*
X118300000Y-35110283D01*
X118300000Y-35110283D02*
X118333333Y-35010283D01*
X118333333Y-35010283D02*
X118366666Y-34943616D01*
X118366666Y-34943616D02*
X118433333Y-34843616D01*
X118433333Y-34843616D02*
X118466666Y-34810283D01*
X118733333Y-35343616D02*
X119266667Y-35343616D01*
X119000000Y-35610283D02*
X119000000Y-35076950D01*
X119533334Y-35876950D02*
X119566667Y-35843616D01*
X119566667Y-35843616D02*
X119633334Y-35743616D01*
X119633334Y-35743616D02*
X119666667Y-35676950D01*
X119666667Y-35676950D02*
X119700000Y-35576950D01*
X119700000Y-35576950D02*
X119733334Y-35410283D01*
X119733334Y-35410283D02*
X119733334Y-35276950D01*
X119733334Y-35276950D02*
X119700000Y-35110283D01*
X119700000Y-35110283D02*
X119666667Y-35010283D01*
X119666667Y-35010283D02*
X119633334Y-34943616D01*
X119633334Y-34943616D02*
X119566667Y-34843616D01*
X119566667Y-34843616D02*
X119533334Y-34810283D01*
X118466666Y-29876950D02*
X118433333Y-29843616D01*
X118433333Y-29843616D02*
X118366666Y-29743616D01*
X118366666Y-29743616D02*
X118333333Y-29676950D01*
X118333333Y-29676950D02*
X118300000Y-29576950D01*
X118300000Y-29576950D02*
X118266666Y-29410283D01*
X118266666Y-29410283D02*
X118266666Y-29276950D01*
X118266666Y-29276950D02*
X118300000Y-29110283D01*
X118300000Y-29110283D02*
X118333333Y-29010283D01*
X118333333Y-29010283D02*
X118366666Y-28943616D01*
X118366666Y-28943616D02*
X118433333Y-28843616D01*
X118433333Y-28843616D02*
X118466666Y-28810283D01*
X118733333Y-29343616D02*
X119266667Y-29343616D01*
X119000000Y-29610283D02*
X119000000Y-29076950D01*
X119533334Y-29876950D02*
X119566667Y-29843616D01*
X119566667Y-29843616D02*
X119633334Y-29743616D01*
X119633334Y-29743616D02*
X119666667Y-29676950D01*
X119666667Y-29676950D02*
X119700000Y-29576950D01*
X119700000Y-29576950D02*
X119733334Y-29410283D01*
X119733334Y-29410283D02*
X119733334Y-29276950D01*
X119733334Y-29276950D02*
X119700000Y-29110283D01*
X119700000Y-29110283D02*
X119666667Y-29010283D01*
X119666667Y-29010283D02*
X119633334Y-28943616D01*
X119633334Y-28943616D02*
X119566667Y-28843616D01*
X119566667Y-28843616D02*
X119533334Y-28810283D01*
X104466666Y-107876950D02*
X104433333Y-107843616D01*
X104433333Y-107843616D02*
X104366666Y-107743616D01*
X104366666Y-107743616D02*
X104333333Y-107676950D01*
X104333333Y-107676950D02*
X104300000Y-107576950D01*
X104300000Y-107576950D02*
X104266666Y-107410283D01*
X104266666Y-107410283D02*
X104266666Y-107276950D01*
X104266666Y-107276950D02*
X104300000Y-107110283D01*
X104300000Y-107110283D02*
X104333333Y-107010283D01*
X104333333Y-107010283D02*
X104366666Y-106943616D01*
X104366666Y-106943616D02*
X104433333Y-106843616D01*
X104433333Y-106843616D02*
X104466666Y-106810283D01*
X104733333Y-107343616D02*
X105266667Y-107343616D01*
X105000000Y-107610283D02*
X105000000Y-107076950D01*
X105533334Y-107876950D02*
X105566667Y-107843616D01*
X105566667Y-107843616D02*
X105633334Y-107743616D01*
X105633334Y-107743616D02*
X105666667Y-107676950D01*
X105666667Y-107676950D02*
X105700000Y-107576950D01*
X105700000Y-107576950D02*
X105733334Y-107410283D01*
X105733334Y-107410283D02*
X105733334Y-107276950D01*
X105733334Y-107276950D02*
X105700000Y-107110283D01*
X105700000Y-107110283D02*
X105666667Y-107010283D01*
X105666667Y-107010283D02*
X105633334Y-106943616D01*
X105633334Y-106943616D02*
X105566667Y-106843616D01*
X105566667Y-106843616D02*
X105533334Y-106810283D01*
X104466666Y-101876950D02*
X104433333Y-101843616D01*
X104433333Y-101843616D02*
X104366666Y-101743616D01*
X104366666Y-101743616D02*
X104333333Y-101676950D01*
X104333333Y-101676950D02*
X104300000Y-101576950D01*
X104300000Y-101576950D02*
X104266666Y-101410283D01*
X104266666Y-101410283D02*
X104266666Y-101276950D01*
X104266666Y-101276950D02*
X104300000Y-101110283D01*
X104300000Y-101110283D02*
X104333333Y-101010283D01*
X104333333Y-101010283D02*
X104366666Y-100943616D01*
X104366666Y-100943616D02*
X104433333Y-100843616D01*
X104433333Y-100843616D02*
X104466666Y-100810283D01*
X104733333Y-101343616D02*
X105266667Y-101343616D01*
X105000000Y-101610283D02*
X105000000Y-101076950D01*
X105533334Y-101876950D02*
X105566667Y-101843616D01*
X105566667Y-101843616D02*
X105633334Y-101743616D01*
X105633334Y-101743616D02*
X105666667Y-101676950D01*
X105666667Y-101676950D02*
X105700000Y-101576950D01*
X105700000Y-101576950D02*
X105733334Y-101410283D01*
X105733334Y-101410283D02*
X105733334Y-101276950D01*
X105733334Y-101276950D02*
X105700000Y-101110283D01*
X105700000Y-101110283D02*
X105666667Y-101010283D01*
X105666667Y-101010283D02*
X105633334Y-100943616D01*
X105633334Y-100943616D02*
X105566667Y-100843616D01*
X105566667Y-100843616D02*
X105533334Y-100810283D01*
X104466666Y-95876950D02*
X104433333Y-95843616D01*
X104433333Y-95843616D02*
X104366666Y-95743616D01*
X104366666Y-95743616D02*
X104333333Y-95676950D01*
X104333333Y-95676950D02*
X104300000Y-95576950D01*
X104300000Y-95576950D02*
X104266666Y-95410283D01*
X104266666Y-95410283D02*
X104266666Y-95276950D01*
X104266666Y-95276950D02*
X104300000Y-95110283D01*
X104300000Y-95110283D02*
X104333333Y-95010283D01*
X104333333Y-95010283D02*
X104366666Y-94943616D01*
X104366666Y-94943616D02*
X104433333Y-94843616D01*
X104433333Y-94843616D02*
X104466666Y-94810283D01*
X104733333Y-95343616D02*
X105266667Y-95343616D01*
X105000000Y-95610283D02*
X105000000Y-95076950D01*
X105533334Y-95876950D02*
X105566667Y-95843616D01*
X105566667Y-95843616D02*
X105633334Y-95743616D01*
X105633334Y-95743616D02*
X105666667Y-95676950D01*
X105666667Y-95676950D02*
X105700000Y-95576950D01*
X105700000Y-95576950D02*
X105733334Y-95410283D01*
X105733334Y-95410283D02*
X105733334Y-95276950D01*
X105733334Y-95276950D02*
X105700000Y-95110283D01*
X105700000Y-95110283D02*
X105666667Y-95010283D01*
X105666667Y-95010283D02*
X105633334Y-94943616D01*
X105633334Y-94943616D02*
X105566667Y-94843616D01*
X105566667Y-94843616D02*
X105533334Y-94810283D01*
X104466666Y-89876950D02*
X104433333Y-89843616D01*
X104433333Y-89843616D02*
X104366666Y-89743616D01*
X104366666Y-89743616D02*
X104333333Y-89676950D01*
X104333333Y-89676950D02*
X104300000Y-89576950D01*
X104300000Y-89576950D02*
X104266666Y-89410283D01*
X104266666Y-89410283D02*
X104266666Y-89276950D01*
X104266666Y-89276950D02*
X104300000Y-89110283D01*
X104300000Y-89110283D02*
X104333333Y-89010283D01*
X104333333Y-89010283D02*
X104366666Y-88943616D01*
X104366666Y-88943616D02*
X104433333Y-88843616D01*
X104433333Y-88843616D02*
X104466666Y-88810283D01*
X104733333Y-89343616D02*
X105266667Y-89343616D01*
X105000000Y-89610283D02*
X105000000Y-89076950D01*
X105533334Y-89876950D02*
X105566667Y-89843616D01*
X105566667Y-89843616D02*
X105633334Y-89743616D01*
X105633334Y-89743616D02*
X105666667Y-89676950D01*
X105666667Y-89676950D02*
X105700000Y-89576950D01*
X105700000Y-89576950D02*
X105733334Y-89410283D01*
X105733334Y-89410283D02*
X105733334Y-89276950D01*
X105733334Y-89276950D02*
X105700000Y-89110283D01*
X105700000Y-89110283D02*
X105666667Y-89010283D01*
X105666667Y-89010283D02*
X105633334Y-88943616D01*
X105633334Y-88943616D02*
X105566667Y-88843616D01*
X105566667Y-88843616D02*
X105533334Y-88810283D01*
X104466666Y-83876950D02*
X104433333Y-83843616D01*
X104433333Y-83843616D02*
X104366666Y-83743616D01*
X104366666Y-83743616D02*
X104333333Y-83676950D01*
X104333333Y-83676950D02*
X104300000Y-83576950D01*
X104300000Y-83576950D02*
X104266666Y-83410283D01*
X104266666Y-83410283D02*
X104266666Y-83276950D01*
X104266666Y-83276950D02*
X104300000Y-83110283D01*
X104300000Y-83110283D02*
X104333333Y-83010283D01*
X104333333Y-83010283D02*
X104366666Y-82943616D01*
X104366666Y-82943616D02*
X104433333Y-82843616D01*
X104433333Y-82843616D02*
X104466666Y-82810283D01*
X104733333Y-83343616D02*
X105266667Y-83343616D01*
X105000000Y-83610283D02*
X105000000Y-83076950D01*
X105533334Y-83876950D02*
X105566667Y-83843616D01*
X105566667Y-83843616D02*
X105633334Y-83743616D01*
X105633334Y-83743616D02*
X105666667Y-83676950D01*
X105666667Y-83676950D02*
X105700000Y-83576950D01*
X105700000Y-83576950D02*
X105733334Y-83410283D01*
X105733334Y-83410283D02*
X105733334Y-83276950D01*
X105733334Y-83276950D02*
X105700000Y-83110283D01*
X105700000Y-83110283D02*
X105666667Y-83010283D01*
X105666667Y-83010283D02*
X105633334Y-82943616D01*
X105633334Y-82943616D02*
X105566667Y-82843616D01*
X105566667Y-82843616D02*
X105533334Y-82810283D01*
X104466666Y-77876950D02*
X104433333Y-77843616D01*
X104433333Y-77843616D02*
X104366666Y-77743616D01*
X104366666Y-77743616D02*
X104333333Y-77676950D01*
X104333333Y-77676950D02*
X104300000Y-77576950D01*
X104300000Y-77576950D02*
X104266666Y-77410283D01*
X104266666Y-77410283D02*
X104266666Y-77276950D01*
X104266666Y-77276950D02*
X104300000Y-77110283D01*
X104300000Y-77110283D02*
X104333333Y-77010283D01*
X104333333Y-77010283D02*
X104366666Y-76943616D01*
X104366666Y-76943616D02*
X104433333Y-76843616D01*
X104433333Y-76843616D02*
X104466666Y-76810283D01*
X104733333Y-77343616D02*
X105266667Y-77343616D01*
X105000000Y-77610283D02*
X105000000Y-77076950D01*
X105533334Y-77876950D02*
X105566667Y-77843616D01*
X105566667Y-77843616D02*
X105633334Y-77743616D01*
X105633334Y-77743616D02*
X105666667Y-77676950D01*
X105666667Y-77676950D02*
X105700000Y-77576950D01*
X105700000Y-77576950D02*
X105733334Y-77410283D01*
X105733334Y-77410283D02*
X105733334Y-77276950D01*
X105733334Y-77276950D02*
X105700000Y-77110283D01*
X105700000Y-77110283D02*
X105666667Y-77010283D01*
X105666667Y-77010283D02*
X105633334Y-76943616D01*
X105633334Y-76943616D02*
X105566667Y-76843616D01*
X105566667Y-76843616D02*
X105533334Y-76810283D01*
X104466666Y-71876950D02*
X104433333Y-71843616D01*
X104433333Y-71843616D02*
X104366666Y-71743616D01*
X104366666Y-71743616D02*
X104333333Y-71676950D01*
X104333333Y-71676950D02*
X104300000Y-71576950D01*
X104300000Y-71576950D02*
X104266666Y-71410283D01*
X104266666Y-71410283D02*
X104266666Y-71276950D01*
X104266666Y-71276950D02*
X104300000Y-71110283D01*
X104300000Y-71110283D02*
X104333333Y-71010283D01*
X104333333Y-71010283D02*
X104366666Y-70943616D01*
X104366666Y-70943616D02*
X104433333Y-70843616D01*
X104433333Y-70843616D02*
X104466666Y-70810283D01*
X104733333Y-71343616D02*
X105266667Y-71343616D01*
X105000000Y-71610283D02*
X105000000Y-71076950D01*
X105533334Y-71876950D02*
X105566667Y-71843616D01*
X105566667Y-71843616D02*
X105633334Y-71743616D01*
X105633334Y-71743616D02*
X105666667Y-71676950D01*
X105666667Y-71676950D02*
X105700000Y-71576950D01*
X105700000Y-71576950D02*
X105733334Y-71410283D01*
X105733334Y-71410283D02*
X105733334Y-71276950D01*
X105733334Y-71276950D02*
X105700000Y-71110283D01*
X105700000Y-71110283D02*
X105666667Y-71010283D01*
X105666667Y-71010283D02*
X105633334Y-70943616D01*
X105633334Y-70943616D02*
X105566667Y-70843616D01*
X105566667Y-70843616D02*
X105533334Y-70810283D01*
X104466666Y-65876950D02*
X104433333Y-65843616D01*
X104433333Y-65843616D02*
X104366666Y-65743616D01*
X104366666Y-65743616D02*
X104333333Y-65676950D01*
X104333333Y-65676950D02*
X104300000Y-65576950D01*
X104300000Y-65576950D02*
X104266666Y-65410283D01*
X104266666Y-65410283D02*
X104266666Y-65276950D01*
X104266666Y-65276950D02*
X104300000Y-65110283D01*
X104300000Y-65110283D02*
X104333333Y-65010283D01*
X104333333Y-65010283D02*
X104366666Y-64943616D01*
X104366666Y-64943616D02*
X104433333Y-64843616D01*
X104433333Y-64843616D02*
X104466666Y-64810283D01*
X104733333Y-65343616D02*
X105266667Y-65343616D01*
X105000000Y-65610283D02*
X105000000Y-65076950D01*
X105533334Y-65876950D02*
X105566667Y-65843616D01*
X105566667Y-65843616D02*
X105633334Y-65743616D01*
X105633334Y-65743616D02*
X105666667Y-65676950D01*
X105666667Y-65676950D02*
X105700000Y-65576950D01*
X105700000Y-65576950D02*
X105733334Y-65410283D01*
X105733334Y-65410283D02*
X105733334Y-65276950D01*
X105733334Y-65276950D02*
X105700000Y-65110283D01*
X105700000Y-65110283D02*
X105666667Y-65010283D01*
X105666667Y-65010283D02*
X105633334Y-64943616D01*
X105633334Y-64943616D02*
X105566667Y-64843616D01*
X105566667Y-64843616D02*
X105533334Y-64810283D01*
X104466666Y-59876950D02*
X104433333Y-59843616D01*
X104433333Y-59843616D02*
X104366666Y-59743616D01*
X104366666Y-59743616D02*
X104333333Y-59676950D01*
X104333333Y-59676950D02*
X104300000Y-59576950D01*
X104300000Y-59576950D02*
X104266666Y-59410283D01*
X104266666Y-59410283D02*
X104266666Y-59276950D01*
X104266666Y-59276950D02*
X104300000Y-59110283D01*
X104300000Y-59110283D02*
X104333333Y-59010283D01*
X104333333Y-59010283D02*
X104366666Y-58943616D01*
X104366666Y-58943616D02*
X104433333Y-58843616D01*
X104433333Y-58843616D02*
X104466666Y-58810283D01*
X104733333Y-59343616D02*
X105266667Y-59343616D01*
X105000000Y-59610283D02*
X105000000Y-59076950D01*
X105533334Y-59876950D02*
X105566667Y-59843616D01*
X105566667Y-59843616D02*
X105633334Y-59743616D01*
X105633334Y-59743616D02*
X105666667Y-59676950D01*
X105666667Y-59676950D02*
X105700000Y-59576950D01*
X105700000Y-59576950D02*
X105733334Y-59410283D01*
X105733334Y-59410283D02*
X105733334Y-59276950D01*
X105733334Y-59276950D02*
X105700000Y-59110283D01*
X105700000Y-59110283D02*
X105666667Y-59010283D01*
X105666667Y-59010283D02*
X105633334Y-58943616D01*
X105633334Y-58943616D02*
X105566667Y-58843616D01*
X105566667Y-58843616D02*
X105533334Y-58810283D01*
X104466666Y-53876950D02*
X104433333Y-53843616D01*
X104433333Y-53843616D02*
X104366666Y-53743616D01*
X104366666Y-53743616D02*
X104333333Y-53676950D01*
X104333333Y-53676950D02*
X104300000Y-53576950D01*
X104300000Y-53576950D02*
X104266666Y-53410283D01*
X104266666Y-53410283D02*
X104266666Y-53276950D01*
X104266666Y-53276950D02*
X104300000Y-53110283D01*
X104300000Y-53110283D02*
X104333333Y-53010283D01*
X104333333Y-53010283D02*
X104366666Y-52943616D01*
X104366666Y-52943616D02*
X104433333Y-52843616D01*
X104433333Y-52843616D02*
X104466666Y-52810283D01*
X104733333Y-53343616D02*
X105266667Y-53343616D01*
X105000000Y-53610283D02*
X105000000Y-53076950D01*
X105533334Y-53876950D02*
X105566667Y-53843616D01*
X105566667Y-53843616D02*
X105633334Y-53743616D01*
X105633334Y-53743616D02*
X105666667Y-53676950D01*
X105666667Y-53676950D02*
X105700000Y-53576950D01*
X105700000Y-53576950D02*
X105733334Y-53410283D01*
X105733334Y-53410283D02*
X105733334Y-53276950D01*
X105733334Y-53276950D02*
X105700000Y-53110283D01*
X105700000Y-53110283D02*
X105666667Y-53010283D01*
X105666667Y-53010283D02*
X105633334Y-52943616D01*
X105633334Y-52943616D02*
X105566667Y-52843616D01*
X105566667Y-52843616D02*
X105533334Y-52810283D01*
X104466666Y-47876950D02*
X104433333Y-47843616D01*
X104433333Y-47843616D02*
X104366666Y-47743616D01*
X104366666Y-47743616D02*
X104333333Y-47676950D01*
X104333333Y-47676950D02*
X104300000Y-47576950D01*
X104300000Y-47576950D02*
X104266666Y-47410283D01*
X104266666Y-47410283D02*
X104266666Y-47276950D01*
X104266666Y-47276950D02*
X104300000Y-47110283D01*
X104300000Y-47110283D02*
X104333333Y-47010283D01*
X104333333Y-47010283D02*
X104366666Y-46943616D01*
X104366666Y-46943616D02*
X104433333Y-46843616D01*
X104433333Y-46843616D02*
X104466666Y-46810283D01*
X104733333Y-47343616D02*
X105266667Y-47343616D01*
X105000000Y-47610283D02*
X105000000Y-47076950D01*
X105533334Y-47876950D02*
X105566667Y-47843616D01*
X105566667Y-47843616D02*
X105633334Y-47743616D01*
X105633334Y-47743616D02*
X105666667Y-47676950D01*
X105666667Y-47676950D02*
X105700000Y-47576950D01*
X105700000Y-47576950D02*
X105733334Y-47410283D01*
X105733334Y-47410283D02*
X105733334Y-47276950D01*
X105733334Y-47276950D02*
X105700000Y-47110283D01*
X105700000Y-47110283D02*
X105666667Y-47010283D01*
X105666667Y-47010283D02*
X105633334Y-46943616D01*
X105633334Y-46943616D02*
X105566667Y-46843616D01*
X105566667Y-46843616D02*
X105533334Y-46810283D01*
X104466666Y-41876950D02*
X104433333Y-41843616D01*
X104433333Y-41843616D02*
X104366666Y-41743616D01*
X104366666Y-41743616D02*
X104333333Y-41676950D01*
X104333333Y-41676950D02*
X104300000Y-41576950D01*
X104300000Y-41576950D02*
X104266666Y-41410283D01*
X104266666Y-41410283D02*
X104266666Y-41276950D01*
X104266666Y-41276950D02*
X104300000Y-41110283D01*
X104300000Y-41110283D02*
X104333333Y-41010283D01*
X104333333Y-41010283D02*
X104366666Y-40943616D01*
X104366666Y-40943616D02*
X104433333Y-40843616D01*
X104433333Y-40843616D02*
X104466666Y-40810283D01*
X104733333Y-41343616D02*
X105266667Y-41343616D01*
X105000000Y-41610283D02*
X105000000Y-41076950D01*
X105533334Y-41876950D02*
X105566667Y-41843616D01*
X105566667Y-41843616D02*
X105633334Y-41743616D01*
X105633334Y-41743616D02*
X105666667Y-41676950D01*
X105666667Y-41676950D02*
X105700000Y-41576950D01*
X105700000Y-41576950D02*
X105733334Y-41410283D01*
X105733334Y-41410283D02*
X105733334Y-41276950D01*
X105733334Y-41276950D02*
X105700000Y-41110283D01*
X105700000Y-41110283D02*
X105666667Y-41010283D01*
X105666667Y-41010283D02*
X105633334Y-40943616D01*
X105633334Y-40943616D02*
X105566667Y-40843616D01*
X105566667Y-40843616D02*
X105533334Y-40810283D01*
X104466666Y-35876950D02*
X104433333Y-35843616D01*
X104433333Y-35843616D02*
X104366666Y-35743616D01*
X104366666Y-35743616D02*
X104333333Y-35676950D01*
X104333333Y-35676950D02*
X104300000Y-35576950D01*
X104300000Y-35576950D02*
X104266666Y-35410283D01*
X104266666Y-35410283D02*
X104266666Y-35276950D01*
X104266666Y-35276950D02*
X104300000Y-35110283D01*
X104300000Y-35110283D02*
X104333333Y-35010283D01*
X104333333Y-35010283D02*
X104366666Y-34943616D01*
X104366666Y-34943616D02*
X104433333Y-34843616D01*
X104433333Y-34843616D02*
X104466666Y-34810283D01*
X104733333Y-35343616D02*
X105266667Y-35343616D01*
X105000000Y-35610283D02*
X105000000Y-35076950D01*
X105533334Y-35876950D02*
X105566667Y-35843616D01*
X105566667Y-35843616D02*
X105633334Y-35743616D01*
X105633334Y-35743616D02*
X105666667Y-35676950D01*
X105666667Y-35676950D02*
X105700000Y-35576950D01*
X105700000Y-35576950D02*
X105733334Y-35410283D01*
X105733334Y-35410283D02*
X105733334Y-35276950D01*
X105733334Y-35276950D02*
X105700000Y-35110283D01*
X105700000Y-35110283D02*
X105666667Y-35010283D01*
X105666667Y-35010283D02*
X105633334Y-34943616D01*
X105633334Y-34943616D02*
X105566667Y-34843616D01*
X105566667Y-34843616D02*
X105533334Y-34810283D01*
X104466666Y-29876950D02*
X104433333Y-29843616D01*
X104433333Y-29843616D02*
X104366666Y-29743616D01*
X104366666Y-29743616D02*
X104333333Y-29676950D01*
X104333333Y-29676950D02*
X104300000Y-29576950D01*
X104300000Y-29576950D02*
X104266666Y-29410283D01*
X104266666Y-29410283D02*
X104266666Y-29276950D01*
X104266666Y-29276950D02*
X104300000Y-29110283D01*
X104300000Y-29110283D02*
X104333333Y-29010283D01*
X104333333Y-29010283D02*
X104366666Y-28943616D01*
X104366666Y-28943616D02*
X104433333Y-28843616D01*
X104433333Y-28843616D02*
X104466666Y-28810283D01*
X104733333Y-29343616D02*
X105266667Y-29343616D01*
X105000000Y-29610283D02*
X105000000Y-29076950D01*
X105533334Y-29876950D02*
X105566667Y-29843616D01*
X105566667Y-29843616D02*
X105633334Y-29743616D01*
X105633334Y-29743616D02*
X105666667Y-29676950D01*
X105666667Y-29676950D02*
X105700000Y-29576950D01*
X105700000Y-29576950D02*
X105733334Y-29410283D01*
X105733334Y-29410283D02*
X105733334Y-29276950D01*
X105733334Y-29276950D02*
X105700000Y-29110283D01*
X105700000Y-29110283D02*
X105666667Y-29010283D01*
X105666667Y-29010283D02*
X105633334Y-28943616D01*
X105633334Y-28943616D02*
X105566667Y-28843616D01*
X105566667Y-28843616D02*
X105533334Y-28810283D01*
%TO.C,R1*%
D11*
X148245276Y-75478000D02*
X148754724Y-75478000D01*
X148245276Y-76523000D02*
X148754724Y-76523000D01*
X176245276Y-93478000D02*
X176754724Y-93478000D01*
X176245276Y-94523000D02*
X176754724Y-94523000D01*
X134245276Y-33478000D02*
X134754724Y-33478000D01*
X134245276Y-34523000D02*
X134754724Y-34523000D01*
X148245276Y-93478000D02*
X148754724Y-93478000D01*
X148245276Y-94523000D02*
X148754724Y-94523000D01*
X190245276Y-63478000D02*
X190754724Y-63478000D01*
X190245276Y-64523000D02*
X190754724Y-64523000D01*
X162245276Y-63478000D02*
X162754724Y-63478000D01*
X162245276Y-64523000D02*
X162754724Y-64523000D01*
X162245276Y-69478000D02*
X162754724Y-69478000D01*
X162245276Y-70523000D02*
X162754724Y-70523000D01*
X120245276Y-51478000D02*
X120754724Y-51478000D01*
X120245276Y-52523000D02*
X120754724Y-52523000D01*
X134245276Y-57478000D02*
X134754724Y-57478000D01*
X134245276Y-58523000D02*
X134754724Y-58523000D01*
X190245276Y-87478000D02*
X190754724Y-87478000D01*
X190245276Y-88523000D02*
X190754724Y-88523000D01*
X134245276Y-75478000D02*
X134754724Y-75478000D01*
X134245276Y-76523000D02*
X134754724Y-76523000D01*
X106245276Y-45478000D02*
X106754724Y-45478000D01*
X106245276Y-46523000D02*
X106754724Y-46523000D01*
X134245276Y-51478000D02*
X134754724Y-51478000D01*
X134245276Y-52523000D02*
X134754724Y-52523000D01*
X162245276Y-45478000D02*
X162754724Y-45478000D01*
X162245276Y-46523000D02*
X162754724Y-46523000D01*
X176245276Y-27478000D02*
X176754724Y-27478000D01*
X176245276Y-28523000D02*
X176754724Y-28523000D01*
X106245276Y-27478000D02*
X106754724Y-27478000D01*
X106245276Y-28523000D02*
X106754724Y-28523000D01*
X120245276Y-69478000D02*
X120754724Y-69478000D01*
X120245276Y-70523000D02*
X120754724Y-70523000D01*
X134245276Y-45478000D02*
X134754724Y-45478000D01*
X134245276Y-46523000D02*
X134754724Y-46523000D01*
X176245276Y-57478000D02*
X176754724Y-57478000D01*
X176245276Y-58523000D02*
X176754724Y-58523000D01*
X106245276Y-93478000D02*
X106754724Y-93478000D01*
X106245276Y-94523000D02*
X106754724Y-94523000D01*
X120245276Y-87478000D02*
X120754724Y-87478000D01*
X120245276Y-88523000D02*
X120754724Y-88523000D01*
X190245276Y-105478000D02*
X190754724Y-105478000D01*
X190245276Y-106523000D02*
X190754724Y-106523000D01*
X106245276Y-99478000D02*
X106754724Y-99478000D01*
X106245276Y-100523000D02*
X106754724Y-100523000D01*
X176245276Y-39478000D02*
X176754724Y-39478000D01*
X176245276Y-40523000D02*
X176754724Y-40523000D01*
X148245276Y-39478000D02*
X148754724Y-39478000D01*
X148245276Y-40523000D02*
X148754724Y-40523000D01*
X162245276Y-57478000D02*
X162754724Y-57478000D01*
X162245276Y-58523000D02*
X162754724Y-58523000D01*
X190245276Y-45478000D02*
X190754724Y-45478000D01*
X190245276Y-46523000D02*
X190754724Y-46523000D01*
X106245276Y-39478000D02*
X106754724Y-39478000D01*
X106245276Y-40523000D02*
X106754724Y-40523000D01*
X190245276Y-33478000D02*
X190754724Y-33478000D01*
X190245276Y-34523000D02*
X190754724Y-34523000D01*
X120245276Y-93478000D02*
X120754724Y-93478000D01*
X120245276Y-94523000D02*
X120754724Y-94523000D01*
X190245276Y-39478000D02*
X190754724Y-39478000D01*
X190245276Y-40523000D02*
X190754724Y-40523000D01*
X106245276Y-87478000D02*
X106754724Y-87478000D01*
X106245276Y-88523000D02*
X106754724Y-88523000D01*
X176245276Y-51478000D02*
X176754724Y-51478000D01*
X176245276Y-52523000D02*
X176754724Y-52523000D01*
X190245276Y-81478000D02*
X190754724Y-81478000D01*
X190245276Y-82523000D02*
X190754724Y-82523000D01*
X134245276Y-93478000D02*
X134754724Y-93478000D01*
X134245276Y-94523000D02*
X134754724Y-94523000D01*
X120245276Y-75478000D02*
X120754724Y-75478000D01*
X120245276Y-76523000D02*
X120754724Y-76523000D01*
X190245276Y-75478000D02*
X190754724Y-75478000D01*
X190245276Y-76523000D02*
X190754724Y-76523000D01*
X134245276Y-69478000D02*
X134754724Y-69478000D01*
X134245276Y-70523000D02*
X134754724Y-70523000D01*
X176245276Y-99478000D02*
X176754724Y-99478000D01*
X176245276Y-100523000D02*
X176754724Y-100523000D01*
X148245276Y-51478000D02*
X148754724Y-51478000D01*
X148245276Y-52523000D02*
X148754724Y-52523000D01*
X148245276Y-99478000D02*
X148754724Y-99478000D01*
X148245276Y-100523000D02*
X148754724Y-100523000D01*
X120245276Y-81478000D02*
X120754724Y-81478000D01*
X120245276Y-82523000D02*
X120754724Y-82523000D01*
X120245276Y-63478000D02*
X120754724Y-63478000D01*
X120245276Y-64523000D02*
X120754724Y-64523000D01*
X176245276Y-87478000D02*
X176754724Y-87478000D01*
X176245276Y-88523000D02*
X176754724Y-88523000D01*
X148245276Y-81478000D02*
X148754724Y-81478000D01*
X148245276Y-82523000D02*
X148754724Y-82523000D01*
X120245276Y-105478000D02*
X120754724Y-105478000D01*
X120245276Y-106523000D02*
X120754724Y-106523000D01*
X106245276Y-51478000D02*
X106754724Y-51478000D01*
X106245276Y-52523000D02*
X106754724Y-52523000D01*
X148245276Y-63478000D02*
X148754724Y-63478000D01*
X148245276Y-64523000D02*
X148754724Y-64523000D01*
X134245276Y-99478000D02*
X134754724Y-99478000D01*
X134245276Y-100523000D02*
X134754724Y-100523000D01*
X162245276Y-87478000D02*
X162754724Y-87478000D01*
X162245276Y-88523000D02*
X162754724Y-88523000D01*
X190245276Y-51478000D02*
X190754724Y-51478000D01*
X190245276Y-52523000D02*
X190754724Y-52523000D01*
X120245276Y-45478000D02*
X120754724Y-45478000D01*
X120245276Y-46523000D02*
X120754724Y-46523000D01*
X162245276Y-51478000D02*
X162754724Y-51478000D01*
X162245276Y-52523000D02*
X162754724Y-52523000D01*
X120245276Y-27478000D02*
X120754724Y-27478000D01*
X120245276Y-28523000D02*
X120754724Y-28523000D01*
X176245276Y-33478000D02*
X176754724Y-33478000D01*
X176245276Y-34523000D02*
X176754724Y-34523000D01*
X120245276Y-57478000D02*
X120754724Y-57478000D01*
X120245276Y-58523000D02*
X120754724Y-58523000D01*
X148245276Y-87478000D02*
X148754724Y-87478000D01*
X148245276Y-88523000D02*
X148754724Y-88523000D01*
X162245276Y-75478000D02*
X162754724Y-75478000D01*
X162245276Y-76523000D02*
X162754724Y-76523000D01*
X106245276Y-63478000D02*
X106754724Y-63478000D01*
X106245276Y-64523000D02*
X106754724Y-64523000D01*
X162245276Y-39478000D02*
X162754724Y-39478000D01*
X162245276Y-40523000D02*
X162754724Y-40523000D01*
X162245276Y-81478000D02*
X162754724Y-81478000D01*
X162245276Y-82523000D02*
X162754724Y-82523000D01*
X148245276Y-105478000D02*
X148754724Y-105478000D01*
X148245276Y-106523000D02*
X148754724Y-106523000D01*
X134245276Y-105478000D02*
X134754724Y-105478000D01*
X134245276Y-106523000D02*
X134754724Y-106523000D01*
X120245276Y-99478000D02*
X120754724Y-99478000D01*
X120245276Y-100523000D02*
X120754724Y-100523000D01*
X134245276Y-39478000D02*
X134754724Y-39478000D01*
X134245276Y-40523000D02*
X134754724Y-40523000D01*
X106245276Y-75478000D02*
X106754724Y-75478000D01*
X106245276Y-76523000D02*
X106754724Y-76523000D01*
X190245276Y-69478000D02*
X190754724Y-69478000D01*
X190245276Y-70523000D02*
X190754724Y-70523000D01*
X106245276Y-57478000D02*
X106754724Y-57478000D01*
X106245276Y-58523000D02*
X106754724Y-58523000D01*
X176245276Y-69478000D02*
X176754724Y-69478000D01*
X176245276Y-70523000D02*
X176754724Y-70523000D01*
X120245276Y-39478000D02*
X120754724Y-39478000D01*
X120245276Y-40523000D02*
X120754724Y-40523000D01*
X162245276Y-99478000D02*
X162754724Y-99478000D01*
X162245276Y-100523000D02*
X162754724Y-100523000D01*
X134245276Y-87478000D02*
X134754724Y-87478000D01*
X134245276Y-88523000D02*
X134754724Y-88523000D01*
X190245276Y-99478000D02*
X190754724Y-99478000D01*
X190245276Y-100523000D02*
X190754724Y-100523000D01*
X190245276Y-57478000D02*
X190754724Y-57478000D01*
X190245276Y-58523000D02*
X190754724Y-58523000D01*
X176245276Y-75478000D02*
X176754724Y-75478000D01*
X176245276Y-76523000D02*
X176754724Y-76523000D01*
X162245276Y-27478000D02*
X162754724Y-27478000D01*
X162245276Y-28523000D02*
X162754724Y-28523000D01*
X106245276Y-69478000D02*
X106754724Y-69478000D01*
X106245276Y-70523000D02*
X106754724Y-70523000D01*
X134245276Y-81478000D02*
X134754724Y-81478000D01*
X134245276Y-82523000D02*
X134754724Y-82523000D01*
X120245276Y-33478000D02*
X120754724Y-33478000D01*
X120245276Y-34523000D02*
X120754724Y-34523000D01*
X134245276Y-27478000D02*
X134754724Y-27478000D01*
X134245276Y-28523000D02*
X134754724Y-28523000D01*
X176245276Y-63478000D02*
X176754724Y-63478000D01*
X176245276Y-64523000D02*
X176754724Y-64523000D01*
X162245276Y-33478000D02*
X162754724Y-33478000D01*
X162245276Y-34523000D02*
X162754724Y-34523000D01*
X106245276Y-105478000D02*
X106754724Y-105478000D01*
X106245276Y-106523000D02*
X106754724Y-106523000D01*
X148245276Y-45478000D02*
X148754724Y-45478000D01*
X148245276Y-46523000D02*
X148754724Y-46523000D01*
X106245276Y-81478000D02*
X106754724Y-81478000D01*
X106245276Y-82523000D02*
X106754724Y-82523000D01*
X176245276Y-45478000D02*
X176754724Y-45478000D01*
X176245276Y-46523000D02*
X176754724Y-46523000D01*
X162245276Y-105478000D02*
X162754724Y-105478000D01*
X162245276Y-106523000D02*
X162754724Y-106523000D01*
X148245276Y-33478000D02*
X148754724Y-33478000D01*
X148245276Y-34523000D02*
X148754724Y-34523000D01*
X148245276Y-27478000D02*
X148754724Y-27478000D01*
X148245276Y-28523000D02*
X148754724Y-28523000D01*
X162245276Y-93478000D02*
X162754724Y-93478000D01*
X162245276Y-94523000D02*
X162754724Y-94523000D01*
X148245276Y-57478000D02*
X148754724Y-57478000D01*
X148245276Y-58523000D02*
X148754724Y-58523000D01*
X190245276Y-93478000D02*
X190754724Y-93478000D01*
X190245276Y-94523000D02*
X190754724Y-94523000D01*
X106245276Y-33478000D02*
X106754724Y-33478000D01*
X106245276Y-34523000D02*
X106754724Y-34523000D01*
X176245276Y-81478000D02*
X176754724Y-81478000D01*
X176245276Y-82523000D02*
X176754724Y-82523000D01*
X148245276Y-69478000D02*
X148754724Y-69478000D01*
X148245276Y-70523000D02*
X148754724Y-70523000D01*
X134245276Y-63478000D02*
X134754724Y-63478000D01*
X134245276Y-64523000D02*
X134754724Y-64523000D01*
X176245276Y-105478000D02*
X176754724Y-105478000D01*
X176245276Y-106523000D02*
X176754724Y-106523000D01*
X190245276Y-27478000D02*
X190754724Y-27478000D01*
X190245276Y-28523000D02*
X190754724Y-28523000D01*
%TD*%
M02*
