%TF.GenerationSoftware,KiCad,Pcbnew,10.0.0*%
%TF.CreationDate,2026-03-26T00:28:42+01:00*%
%TF.ProjectId,battery_order,62617474-6572-4795-9f6f-726465722e6b,rev?*%
%TF.SameCoordinates,Original*%
%TF.FileFunction,Profile,NP*%
%FSLAX46Y46*%
G04 Gerber Fmt 4.6, Leading zero omitted, Abs format (unit mm)*
G04 Created by KiCad (PCBNEW 10.0.0) date 2026-03-26 00:28:42*
%MOMM*%
%LPD*%
G01*
G04 APERTURE LIST*
%TA.AperFunction,Profile*%
%ADD10C,0.100000*%
%TD*%
G04 APERTURE END LIST*
D10*
X104500000Y-22006333D02*
X104500000Y-43993666D01*
X104500000Y-43993678D02*
X104500160Y-44006319D01*
X104500000Y-50006333D02*
X104500000Y-71993666D01*
X104500000Y-71993678D02*
X104500160Y-72006319D01*
X104500000Y-78006333D02*
X104500000Y-99993666D01*
X104500000Y-99993678D02*
X104500160Y-100006319D01*
X104500160Y-21993680D02*
X104500000Y-22006321D01*
X104500160Y-44006331D02*
X104502246Y-44088634D01*
X104500160Y-49993680D02*
X104500000Y-50006321D01*
X104500160Y-72006331D02*
X104502246Y-72088634D01*
X104500160Y-77993680D02*
X104500000Y-78006321D01*
X104500160Y-100006331D02*
X104502246Y-100088634D01*
X104502246Y-21911365D02*
X104500160Y-21993668D01*
X104502247Y-44088659D02*
X104503527Y-44113904D01*
X104502246Y-49911365D02*
X104500160Y-49993668D01*
X104502247Y-72088659D02*
X104503527Y-72113904D01*
X104502246Y-77911365D02*
X104500160Y-77993668D01*
X104502247Y-100088659D02*
X104503527Y-100113904D01*
X104503527Y-21886095D02*
X104502247Y-21911340D01*
X104503528Y-44113930D02*
X104509299Y-44189704D01*
X104503527Y-49886095D02*
X104502247Y-49911340D01*
X104503528Y-72113930D02*
X104509299Y-72189704D01*
X104503527Y-77886095D02*
X104502247Y-77911340D01*
X104503528Y-100113930D02*
X104509299Y-100189704D01*
X104509299Y-21810295D02*
X104503528Y-21886069D01*
X104509301Y-44189730D02*
X104511858Y-44214878D01*
X104509299Y-49810295D02*
X104503528Y-49886069D01*
X104509301Y-72189730D02*
X104511858Y-72214878D01*
X104509299Y-77810295D02*
X104503528Y-77886069D01*
X104509301Y-100189730D02*
X104511858Y-100214878D01*
X104511858Y-21785121D02*
X104509301Y-21810269D01*
X104511858Y-49785121D02*
X104509301Y-49810269D01*
X104511858Y-77785121D02*
X104509301Y-77810269D01*
X104511861Y-44214903D02*
X104521462Y-44290288D01*
X104511861Y-72214903D02*
X104521462Y-72290288D01*
X104511861Y-100214903D02*
X104521462Y-100290288D01*
X104521462Y-21709711D02*
X104511861Y-21785096D01*
X104521462Y-49709711D02*
X104511861Y-49785096D01*
X104521462Y-77709711D02*
X104511861Y-77785096D01*
X104521466Y-44290313D02*
X104525294Y-44315300D01*
X104521466Y-72290313D02*
X104525294Y-72315300D01*
X104521466Y-100290313D02*
X104525294Y-100315300D01*
X104525294Y-21684699D02*
X104521466Y-21709686D01*
X104525294Y-49684699D02*
X104521466Y-49709686D01*
X104525294Y-77684699D02*
X104521466Y-77709686D01*
X104525298Y-44315325D02*
X104538705Y-44390127D01*
X104525298Y-72315325D02*
X104538705Y-72390127D01*
X104525298Y-100315325D02*
X104538705Y-100390127D01*
X104538705Y-21609872D02*
X104525298Y-21684674D01*
X104538705Y-49609872D02*
X104525298Y-49684674D01*
X104538705Y-77609872D02*
X104525298Y-77684674D01*
X104538709Y-44390152D02*
X104543798Y-44414912D01*
X104538709Y-72390152D02*
X104543798Y-72414912D01*
X104538709Y-100390152D02*
X104543798Y-100414912D01*
X104543798Y-21585087D02*
X104538709Y-21609847D01*
X104543798Y-49585087D02*
X104538709Y-49609847D01*
X104543798Y-77585087D02*
X104538709Y-77609847D01*
X104543803Y-44414937D02*
X104560982Y-44488964D01*
X104543803Y-72414937D02*
X104560982Y-72488964D01*
X104543803Y-100414937D02*
X104560982Y-100488964D01*
X104560982Y-21511035D02*
X104543803Y-21585062D01*
X104560982Y-49511035D02*
X104543803Y-49585062D01*
X104560982Y-77511035D02*
X104543803Y-77585062D01*
X104560988Y-44488989D02*
X104567324Y-44513460D01*
X104560988Y-72488989D02*
X104567324Y-72513460D01*
X104560988Y-100488989D02*
X104567324Y-100513460D01*
X104567324Y-21486539D02*
X104560988Y-21511010D01*
X104567324Y-49486539D02*
X104560988Y-49511010D01*
X104567324Y-77486539D02*
X104560988Y-77511010D01*
X104567330Y-44513484D02*
X104588236Y-44586546D01*
X104567330Y-72513484D02*
X104588236Y-72586546D01*
X104567330Y-100513484D02*
X104588236Y-100586546D01*
X104588236Y-21413453D02*
X104567330Y-21486515D01*
X104588236Y-49413453D02*
X104567330Y-49486515D01*
X104588236Y-77413453D02*
X104567330Y-77486515D01*
X104588243Y-44586570D02*
X104595811Y-44610689D01*
X104588243Y-72586570D02*
X104595811Y-72610689D01*
X104588243Y-100586570D02*
X104595811Y-100610689D01*
X104595811Y-21389310D02*
X104588243Y-21413429D01*
X104595811Y-49389310D02*
X104588243Y-49413429D01*
X104595811Y-77389310D02*
X104588243Y-77413429D01*
X104595818Y-44610713D02*
X104620398Y-44682623D01*
X104595818Y-72610713D02*
X104620398Y-72682623D01*
X104595818Y-100610713D02*
X104620398Y-100682623D01*
X104620398Y-21317376D02*
X104595818Y-21389286D01*
X104620398Y-49317376D02*
X104595818Y-49389286D01*
X104620398Y-77317376D02*
X104595818Y-77389286D01*
X104620406Y-44682646D02*
X104629185Y-44706351D01*
X104620406Y-72682646D02*
X104629185Y-72706351D01*
X104620406Y-100682646D02*
X104629185Y-100706351D01*
X104629185Y-21293648D02*
X104620406Y-21317353D01*
X104629185Y-49293648D02*
X104620406Y-49317353D01*
X104629185Y-77293648D02*
X104620406Y-77317353D01*
X104629195Y-44706375D02*
X104657385Y-44776947D01*
X104629195Y-72706375D02*
X104657385Y-72776947D01*
X104629195Y-100706375D02*
X104657385Y-100776947D01*
X104657385Y-21223052D02*
X104629195Y-21293624D01*
X104657385Y-49223052D02*
X104629195Y-49293624D01*
X104657385Y-77223052D02*
X104629195Y-77293624D01*
X104657394Y-44776970D02*
X104667363Y-44800199D01*
X104657394Y-72776970D02*
X104667363Y-72800199D01*
X104657394Y-100776970D02*
X104667363Y-100800199D01*
X104667363Y-21199800D02*
X104657394Y-21223029D01*
X104667363Y-49199800D02*
X104657394Y-49223029D01*
X104667363Y-77199800D02*
X104657394Y-77223029D01*
X104667373Y-44800223D02*
X104699101Y-44869276D01*
X104667373Y-72800223D02*
X104699101Y-72869276D01*
X104667373Y-100800223D02*
X104699101Y-100869276D01*
X104699101Y-21130723D02*
X104667373Y-21199776D01*
X104699101Y-49130723D02*
X104667373Y-49199776D01*
X104699101Y-77130723D02*
X104667373Y-77199776D01*
X104699112Y-44869299D02*
X104710244Y-44891994D01*
X104699112Y-72869299D02*
X104710244Y-72891994D01*
X104699112Y-100869299D02*
X104710244Y-100891994D01*
X104710244Y-21108005D02*
X104699112Y-21130700D01*
X104710244Y-49108005D02*
X104699112Y-49130700D01*
X104710244Y-77108005D02*
X104699112Y-77130700D01*
X104710256Y-44892017D02*
X104745441Y-44959375D01*
X104710256Y-72892017D02*
X104745441Y-72959375D01*
X104710256Y-100892017D02*
X104745441Y-100959375D01*
X104745441Y-21040624D02*
X104710256Y-21107982D01*
X104745441Y-49040624D02*
X104710256Y-49107982D01*
X104745441Y-77040624D02*
X104710256Y-77107982D01*
X104745453Y-44959397D02*
X104757720Y-44981499D01*
X104745453Y-72959397D02*
X104757720Y-72981499D01*
X104745453Y-100959397D02*
X104757720Y-100981499D01*
X104757720Y-21018500D02*
X104745453Y-21040602D01*
X104757720Y-49018500D02*
X104745453Y-49040602D01*
X104757720Y-77018500D02*
X104745453Y-77040602D01*
X104757733Y-44981521D02*
X104796284Y-45047010D01*
X104757733Y-72981521D02*
X104796284Y-73047010D01*
X104757733Y-100981521D02*
X104796284Y-101047010D01*
X104796284Y-20952989D02*
X104757733Y-21018478D01*
X104796284Y-48952989D02*
X104757733Y-49018478D01*
X104796284Y-76952989D02*
X104757733Y-77018478D01*
X104796297Y-45047032D02*
X104809669Y-45068484D01*
X104796297Y-73047032D02*
X104809669Y-73068484D01*
X104796297Y-101047032D02*
X104809669Y-101068484D01*
X104809669Y-20931515D02*
X104796297Y-20952967D01*
X104809669Y-48931515D02*
X104796297Y-48952967D01*
X104809669Y-76931515D02*
X104796297Y-76952967D01*
X104809682Y-45068505D02*
X104851501Y-45131958D01*
X104809682Y-73068505D02*
X104851501Y-73131958D01*
X104809682Y-101068505D02*
X104851501Y-101131958D01*
X104851501Y-20868041D02*
X104809682Y-20931494D01*
X104851501Y-48868041D02*
X104809682Y-48931494D01*
X104851501Y-76868041D02*
X104809682Y-76931494D01*
X104851516Y-45131979D02*
X104865956Y-45152726D01*
X104851516Y-73131979D02*
X104865956Y-73152726D01*
X104851516Y-101131979D02*
X104865956Y-101152726D01*
X104865956Y-20847273D02*
X104851516Y-20868020D01*
X104865956Y-48847273D02*
X104851516Y-48868020D01*
X104865956Y-76847273D02*
X104851516Y-76868020D01*
X104865971Y-45152747D02*
X104910950Y-45214000D01*
X104865971Y-73152747D02*
X104910950Y-73214000D01*
X104865971Y-101152747D02*
X104910950Y-101214000D01*
X104910950Y-20785999D02*
X104865971Y-20847252D01*
X104910950Y-48785999D02*
X104865971Y-48847252D01*
X104910950Y-76785999D02*
X104865971Y-76847252D01*
X104910965Y-45214021D02*
X104926438Y-45234010D01*
X104910965Y-73214021D02*
X104926438Y-73234010D01*
X104910965Y-101214021D02*
X104926438Y-101234010D01*
X104926438Y-20765989D02*
X104910965Y-20785978D01*
X104926438Y-48765989D02*
X104910965Y-48785978D01*
X104926438Y-76765989D02*
X104910965Y-76785978D01*
X104926454Y-45234030D02*
X104974478Y-45292926D01*
X104926454Y-73234030D02*
X104974478Y-73292926D01*
X104926454Y-101234030D02*
X104974478Y-101292926D01*
X104974478Y-20707073D02*
X104926454Y-20765969D01*
X104974478Y-48707073D02*
X104926454Y-48765969D01*
X104974478Y-76707073D02*
X104926454Y-76765969D01*
X104974494Y-45292946D02*
X104990959Y-45312126D01*
X104974494Y-73292946D02*
X104990959Y-73312126D01*
X104974494Y-101292946D02*
X104990959Y-101312126D01*
X104990959Y-20687873D02*
X104974494Y-20707053D01*
X104990959Y-48687873D02*
X104974494Y-48707053D01*
X104990959Y-76687873D02*
X104974494Y-76707053D01*
X104990976Y-45312145D02*
X105041921Y-45368533D01*
X104990976Y-73312145D02*
X105041921Y-73368533D01*
X104990976Y-101312145D02*
X105041921Y-101368533D01*
X105041921Y-20631466D02*
X104990976Y-20687854D01*
X105041921Y-48631466D02*
X104990976Y-48687854D01*
X105041921Y-76631466D02*
X104990976Y-76687854D01*
X105041938Y-45368552D02*
X105059354Y-45386873D01*
X105041938Y-73368552D02*
X105059354Y-73386873D01*
X105041938Y-101368552D02*
X105059354Y-101386873D01*
X105059354Y-20613126D02*
X105041938Y-20631447D01*
X105059354Y-48613126D02*
X105041938Y-48631447D01*
X105059354Y-76613126D02*
X105041938Y-76631447D01*
X105059372Y-45386891D02*
X105113108Y-45440627D01*
X105059372Y-73386891D02*
X105113108Y-73440627D01*
X105059372Y-101386891D02*
X105113108Y-101440627D01*
X105113108Y-20559372D02*
X105059372Y-20613108D01*
X105113108Y-48559372D02*
X105059372Y-48613108D01*
X105113108Y-76559372D02*
X105059372Y-76613108D01*
X105113126Y-45440645D02*
X105131447Y-45458061D01*
X105113126Y-73440645D02*
X105131447Y-73458061D01*
X105113126Y-101440645D02*
X105131447Y-101458061D01*
X105131447Y-20541938D02*
X105113126Y-20559354D01*
X105131447Y-48541938D02*
X105113126Y-48559354D01*
X105131447Y-76541938D02*
X105113126Y-76559354D01*
X105131466Y-45458078D02*
X105187854Y-45509023D01*
X105131466Y-73458078D02*
X105187854Y-73509023D01*
X105131466Y-101458078D02*
X105187854Y-101509023D01*
X105187854Y-20490976D02*
X105131466Y-20541921D01*
X105187854Y-48490976D02*
X105131466Y-48541921D01*
X105187854Y-76490976D02*
X105131466Y-76541921D01*
X105187873Y-45509040D02*
X105207053Y-45525505D01*
X105187873Y-73509040D02*
X105207053Y-73525505D01*
X105187873Y-101509040D02*
X105207053Y-101525505D01*
X105207053Y-20474494D02*
X105187873Y-20490959D01*
X105207053Y-48474494D02*
X105187873Y-48490959D01*
X105207053Y-76474494D02*
X105187873Y-76490959D01*
X105207073Y-45525521D02*
X105265969Y-45573545D01*
X105207073Y-73525521D02*
X105265969Y-73573545D01*
X105207073Y-101525521D02*
X105265969Y-101573545D01*
X105265969Y-20426454D02*
X105207073Y-20474478D01*
X105265969Y-48426454D02*
X105207073Y-48474478D01*
X105265969Y-76426454D02*
X105207073Y-76474478D01*
X105265989Y-45573561D02*
X105285978Y-45589034D01*
X105265989Y-73573561D02*
X105285978Y-73589034D01*
X105265989Y-101573561D02*
X105285978Y-101589034D01*
X105285978Y-20410965D02*
X105265989Y-20426438D01*
X105285978Y-48410965D02*
X105265989Y-48426438D01*
X105285978Y-76410965D02*
X105265989Y-76426438D01*
X105285999Y-45589049D02*
X105347252Y-45634028D01*
X105285999Y-73589049D02*
X105347252Y-73634028D01*
X105285999Y-101589049D02*
X105347252Y-101634028D01*
X105347252Y-20365971D02*
X105285999Y-20410950D01*
X105347252Y-48365971D02*
X105285999Y-48410950D01*
X105347252Y-76365971D02*
X105285999Y-76410950D01*
X105347273Y-45634043D02*
X105368020Y-45648483D01*
X105347273Y-73634043D02*
X105368020Y-73648483D01*
X105347273Y-101634043D02*
X105368020Y-101648483D01*
X105368020Y-20351516D02*
X105347273Y-20365956D01*
X105368020Y-48351516D02*
X105347273Y-48365956D01*
X105368020Y-76351516D02*
X105347273Y-76365956D01*
X105368041Y-45648498D02*
X105431494Y-45690317D01*
X105368041Y-73648498D02*
X105431494Y-73690317D01*
X105368041Y-101648498D02*
X105431494Y-101690317D01*
X105431494Y-20309682D02*
X105368041Y-20351501D01*
X105431494Y-48309682D02*
X105368041Y-48351501D01*
X105431494Y-76309682D02*
X105368041Y-76351501D01*
X105431515Y-45690330D02*
X105452967Y-45703702D01*
X105431515Y-73690330D02*
X105452967Y-73703702D01*
X105431515Y-101690330D02*
X105452967Y-101703702D01*
X105452967Y-20296297D02*
X105431515Y-20309669D01*
X105452967Y-48296297D02*
X105431515Y-48309669D01*
X105452967Y-76296297D02*
X105431515Y-76309669D01*
X105452989Y-45703715D02*
X105518478Y-45742266D01*
X105452989Y-73703715D02*
X105518478Y-73742266D01*
X105452989Y-101703715D02*
X105518478Y-101742266D01*
X105518478Y-20257733D02*
X105452989Y-20296284D01*
X105518478Y-48257733D02*
X105452989Y-48296284D01*
X105518478Y-76257733D02*
X105452989Y-76296284D01*
X105518500Y-45742279D02*
X105540602Y-45754546D01*
X105518500Y-73742279D02*
X105540602Y-73754546D01*
X105518500Y-101742279D02*
X105540602Y-101754546D01*
X105540602Y-20245453D02*
X105518500Y-20257720D01*
X105540602Y-48245453D02*
X105518500Y-48257720D01*
X105540602Y-76245453D02*
X105518500Y-76257720D01*
X105540624Y-45754558D02*
X105607982Y-45789743D01*
X105540624Y-73754558D02*
X105607982Y-73789743D01*
X105540624Y-101754558D02*
X105607982Y-101789743D01*
X105607982Y-20210256D02*
X105540624Y-20245441D01*
X105607982Y-48210256D02*
X105540624Y-48245441D01*
X105607982Y-76210256D02*
X105540624Y-76245441D01*
X105608005Y-45789755D02*
X105630700Y-45800887D01*
X105608005Y-73789755D02*
X105630700Y-73800887D01*
X105608005Y-101789755D02*
X105630700Y-101800887D01*
X105630700Y-20199112D02*
X105608005Y-20210244D01*
X105630700Y-48199112D02*
X105608005Y-48210244D01*
X105630700Y-76199112D02*
X105608005Y-76210244D01*
X105630723Y-45800898D02*
X105699776Y-45832626D01*
X105630723Y-73800898D02*
X105699776Y-73832626D01*
X105630723Y-101800898D02*
X105699776Y-101832626D01*
X105699776Y-20167373D02*
X105630723Y-20199101D01*
X105699776Y-48167373D02*
X105630723Y-48199101D01*
X105699776Y-76167373D02*
X105630723Y-76199101D01*
X105699800Y-45832636D02*
X105723029Y-45842605D01*
X105699800Y-73832636D02*
X105723029Y-73842605D01*
X105699800Y-101832636D02*
X105723029Y-101842605D01*
X105723029Y-20157394D02*
X105699800Y-20167363D01*
X105723029Y-48157394D02*
X105699800Y-48167363D01*
X105723029Y-76157394D02*
X105699800Y-76167363D01*
X105723052Y-45842614D02*
X105793624Y-45870804D01*
X105723052Y-73842614D02*
X105793624Y-73870804D01*
X105723052Y-101842614D02*
X105793624Y-101870804D01*
X105793624Y-20129195D02*
X105723052Y-20157385D01*
X105793624Y-48129195D02*
X105723052Y-48157385D01*
X105793624Y-76129195D02*
X105723052Y-76157385D01*
X105793648Y-45870814D02*
X105817353Y-45879593D01*
X105793648Y-73870814D02*
X105817353Y-73879593D01*
X105793648Y-101870814D02*
X105817353Y-101879593D01*
X105817353Y-20120406D02*
X105793648Y-20129185D01*
X105817353Y-48120406D02*
X105793648Y-48129185D01*
X105817353Y-76120406D02*
X105793648Y-76129185D01*
X105817376Y-45879601D02*
X105889286Y-45904181D01*
X105817376Y-73879601D02*
X105889286Y-73904181D01*
X105817376Y-101879601D02*
X105889286Y-101904181D01*
X105889286Y-20095818D02*
X105817376Y-20120398D01*
X105889286Y-48095818D02*
X105817376Y-48120398D01*
X105889286Y-76095818D02*
X105817376Y-76120398D01*
X105889310Y-45904188D02*
X105913429Y-45911756D01*
X105889310Y-73904188D02*
X105913429Y-73911756D01*
X105889310Y-101904188D02*
X105913429Y-101911756D01*
X105913429Y-20088243D02*
X105889310Y-20095811D01*
X105913429Y-48088243D02*
X105889310Y-48095811D01*
X105913429Y-76088243D02*
X105889310Y-76095811D01*
X105913453Y-45911763D02*
X105986515Y-45932669D01*
X105913453Y-73911763D02*
X105986515Y-73932669D01*
X105913453Y-101911763D02*
X105986515Y-101932669D01*
X105986515Y-20067330D02*
X105913453Y-20088236D01*
X105986515Y-48067330D02*
X105913453Y-48088236D01*
X105986515Y-76067330D02*
X105913453Y-76088236D01*
X105986539Y-45932675D02*
X106011010Y-45939011D01*
X105986539Y-73932675D02*
X106011010Y-73939011D01*
X105986539Y-101932675D02*
X106011010Y-101939011D01*
X106011010Y-20060988D02*
X105986539Y-20067324D01*
X106011010Y-48060988D02*
X105986539Y-48067324D01*
X106011010Y-76060988D02*
X105986539Y-76067324D01*
X106011035Y-45939017D02*
X106085062Y-45956196D01*
X106011035Y-73939017D02*
X106085062Y-73956196D01*
X106011035Y-101939017D02*
X106085062Y-101956196D01*
X106085062Y-20043803D02*
X106011035Y-20060982D01*
X106085062Y-48043803D02*
X106011035Y-48060982D01*
X106085062Y-76043803D02*
X106011035Y-76060982D01*
X106085087Y-45956201D02*
X106109847Y-45961290D01*
X106085087Y-73956201D02*
X106109847Y-73961290D01*
X106085087Y-101956201D02*
X106109847Y-101961290D01*
X106109847Y-20038709D02*
X106085087Y-20043798D01*
X106109847Y-48038709D02*
X106085087Y-48043798D01*
X106109847Y-76038709D02*
X106085087Y-76043798D01*
X106109872Y-45961294D02*
X106184674Y-45974701D01*
X106109872Y-73961294D02*
X106184674Y-73974701D01*
X106109872Y-101961294D02*
X106184674Y-101974701D01*
X106184674Y-20025298D02*
X106109872Y-20038705D01*
X106184674Y-48025298D02*
X106109872Y-48038705D01*
X106184674Y-76025298D02*
X106109872Y-76038705D01*
X106184699Y-45974705D02*
X106209686Y-45978533D01*
X106184699Y-73974705D02*
X106209686Y-73978533D01*
X106184699Y-101974705D02*
X106209686Y-101978533D01*
X106209686Y-20021466D02*
X106184699Y-20025294D01*
X106209686Y-48021466D02*
X106184699Y-48025294D01*
X106209686Y-76021466D02*
X106184699Y-76025294D01*
X106209711Y-45978537D02*
X106285096Y-45988138D01*
X106209711Y-73978537D02*
X106285096Y-73988138D01*
X106209711Y-101978537D02*
X106285096Y-101988138D01*
X106285096Y-20011861D02*
X106209711Y-20021462D01*
X106285096Y-48011861D02*
X106209711Y-48021462D01*
X106285096Y-76011861D02*
X106209711Y-76021462D01*
X106285121Y-45988141D02*
X106310269Y-45990698D01*
X106285121Y-73988141D02*
X106310269Y-73990698D01*
X106285121Y-101988141D02*
X106310269Y-101990698D01*
X106310269Y-20009301D02*
X106285121Y-20011858D01*
X106310269Y-48009301D02*
X106285121Y-48011858D01*
X106310269Y-76009301D02*
X106285121Y-76011858D01*
X106310295Y-45990700D02*
X106386069Y-45996471D01*
X106310295Y-73990700D02*
X106386069Y-73996471D01*
X106310295Y-101990700D02*
X106386069Y-101996471D01*
X106386069Y-20003528D02*
X106310295Y-20009299D01*
X106386069Y-48003528D02*
X106310295Y-48009299D01*
X106386069Y-76003528D02*
X106310295Y-76009299D01*
X106386095Y-45996472D02*
X106411340Y-45997752D01*
X106386095Y-73996472D02*
X106411340Y-73997752D01*
X106386095Y-101996472D02*
X106411340Y-101997752D01*
X106411340Y-20002247D02*
X106386095Y-20003527D01*
X106411340Y-48002247D02*
X106386095Y-48003527D01*
X106411340Y-76002247D02*
X106386095Y-76003527D01*
X106411365Y-45997753D02*
X106493668Y-45999839D01*
X106411365Y-73997753D02*
X106493668Y-73999839D01*
X106411365Y-101997753D02*
X106493668Y-101999839D01*
X106493668Y-20000160D02*
X106411365Y-20002246D01*
X106493668Y-48000160D02*
X106411365Y-48002246D01*
X106493668Y-76000160D02*
X106411365Y-76002246D01*
X106493680Y-45999839D02*
X106506321Y-45999999D01*
X106493680Y-73999839D02*
X106506321Y-73999999D01*
X106493680Y-101999839D02*
X106506321Y-101999999D01*
X106506321Y-20000000D02*
X106493680Y-20000160D01*
X106506321Y-48000000D02*
X106493680Y-48000160D01*
X106506321Y-76000000D02*
X106493680Y-76000160D01*
X106506333Y-46000000D02*
X115000987Y-46000000D01*
X106506333Y-74000000D02*
X115000987Y-74000000D01*
X106506333Y-102000000D02*
X130493666Y-102000000D01*
X115000987Y-46000000D02*
X115050018Y-46001203D01*
X115000987Y-48000000D02*
X106506333Y-48000000D01*
X115000987Y-74000000D02*
X115050018Y-74001203D01*
X115000987Y-76000000D02*
X106506333Y-76000000D01*
X115050018Y-46001203D02*
X115098919Y-46004810D01*
X115050018Y-47998796D02*
X115000987Y-48000000D01*
X115050018Y-74001203D02*
X115098919Y-74004810D01*
X115050018Y-75998796D02*
X115000987Y-76000000D01*
X115098919Y-46004810D02*
X115147583Y-46010812D01*
X115098919Y-47995189D02*
X115050018Y-47998796D01*
X115098919Y-74004810D02*
X115147583Y-74010812D01*
X115098919Y-75995189D02*
X115050018Y-75998796D01*
X115147583Y-46010812D02*
X115195895Y-46019195D01*
X115147583Y-47989187D02*
X115098919Y-47995189D01*
X115147583Y-74010812D02*
X115195895Y-74019195D01*
X115147583Y-75989187D02*
X115098919Y-75995189D01*
X115195895Y-46019195D02*
X115243737Y-46029939D01*
X115195895Y-47980804D02*
X115147583Y-47989187D01*
X115195895Y-74019195D02*
X115243737Y-74029939D01*
X115195895Y-75980804D02*
X115147583Y-75989187D01*
X115243737Y-46029939D02*
X115290994Y-46043016D01*
X115243737Y-47970060D02*
X115195895Y-47980804D01*
X115243737Y-74029939D02*
X115290994Y-74043016D01*
X115243737Y-75970060D02*
X115195895Y-75980804D01*
X115290994Y-46043016D02*
X115337552Y-46058397D01*
X115290994Y-47956983D02*
X115243737Y-47970060D01*
X115290994Y-74043016D02*
X115337552Y-74058397D01*
X115290994Y-75956983D02*
X115243737Y-75970060D01*
X115337552Y-46058397D02*
X115383300Y-46076044D01*
X115337552Y-47941602D02*
X115290994Y-47956983D01*
X115337552Y-74058397D02*
X115383300Y-74076044D01*
X115337552Y-75941602D02*
X115290994Y-75956983D01*
X115383300Y-46076044D02*
X115428127Y-46095914D01*
X115383300Y-47923955D02*
X115337552Y-47941602D01*
X115383300Y-74076044D02*
X115428127Y-74095914D01*
X115383300Y-75923955D02*
X115337552Y-75941602D01*
X115428127Y-46095914D02*
X115471925Y-46117960D01*
X115428127Y-47904085D02*
X115383300Y-47923955D01*
X115428127Y-74095914D02*
X115471925Y-74117960D01*
X115428127Y-75904085D02*
X115383300Y-75923955D01*
X115471925Y-46117960D02*
X115514588Y-46142129D01*
X115471925Y-47882039D02*
X115428127Y-47904085D01*
X115471925Y-74117960D02*
X115514588Y-74142129D01*
X115471925Y-75882039D02*
X115428127Y-75904085D01*
X115514588Y-46142129D02*
X115556014Y-46168362D01*
X115514588Y-47857870D02*
X115471925Y-47882039D01*
X115514588Y-74142129D02*
X115556014Y-74168362D01*
X115514588Y-75857870D02*
X115471925Y-75882039D01*
X115556014Y-46168362D02*
X115596103Y-46196595D01*
X115556014Y-47831637D02*
X115514588Y-47857870D01*
X115556014Y-74168362D02*
X115596103Y-74196595D01*
X115556014Y-75831637D02*
X115514588Y-75857870D01*
X115596103Y-46196595D02*
X115634758Y-46226762D01*
X115596103Y-47803404D02*
X115556014Y-47831637D01*
X115596103Y-74196595D02*
X115634758Y-74226762D01*
X115596103Y-75803404D02*
X115556014Y-75831637D01*
X115634758Y-46226762D02*
X115671887Y-46258790D01*
X115634758Y-47773237D02*
X115596103Y-47803404D01*
X115634758Y-74226762D02*
X115671887Y-74258790D01*
X115634758Y-75773237D02*
X115596103Y-75803404D01*
X115671887Y-46258790D02*
X115707399Y-46292600D01*
X115671887Y-47741209D02*
X115634758Y-47773237D01*
X115671887Y-74258790D02*
X115707399Y-74292600D01*
X115671887Y-75741209D02*
X115634758Y-75773237D01*
X115707399Y-46292600D02*
X115741209Y-46328112D01*
X115707399Y-47707399D02*
X115671887Y-47741209D01*
X115707399Y-74292600D02*
X115741209Y-74328112D01*
X115707399Y-75707399D02*
X115671887Y-75741209D01*
X115741209Y-46328112D02*
X115773237Y-46365241D01*
X115741209Y-47671887D02*
X115707399Y-47707399D01*
X115741209Y-74328112D02*
X115773237Y-74365241D01*
X115741209Y-75671887D02*
X115707399Y-75707399D01*
X115773237Y-46365241D02*
X115803404Y-46403896D01*
X115773237Y-47634758D02*
X115741209Y-47671887D01*
X115773237Y-74365241D02*
X115803404Y-74403896D01*
X115773237Y-75634758D02*
X115741209Y-75671887D01*
X115803404Y-46403896D02*
X115831637Y-46443985D01*
X115803404Y-47596103D02*
X115773237Y-47634758D01*
X115803404Y-74403896D02*
X115831637Y-74443985D01*
X115803404Y-75596103D02*
X115773237Y-75634758D01*
X115831637Y-46443985D02*
X115857870Y-46485411D01*
X115831637Y-47556014D02*
X115803404Y-47596103D01*
X115831637Y-74443985D02*
X115857870Y-74485411D01*
X115831637Y-75556014D02*
X115803404Y-75596103D01*
X115857870Y-46485411D02*
X115882039Y-46528074D01*
X115857870Y-47514588D02*
X115831637Y-47556014D01*
X115857870Y-74485411D02*
X115882039Y-74528074D01*
X115857870Y-75514588D02*
X115831637Y-75556014D01*
X115882039Y-46528074D02*
X115904085Y-46571872D01*
X115882039Y-47471925D02*
X115857870Y-47514588D01*
X115882039Y-74528074D02*
X115904085Y-74571872D01*
X115882039Y-75471925D02*
X115857870Y-75514588D01*
X115904085Y-46571872D02*
X115923955Y-46616699D01*
X115904085Y-47428127D02*
X115882039Y-47471925D01*
X115904085Y-74571872D02*
X115923955Y-74616699D01*
X115904085Y-75428127D02*
X115882039Y-75471925D01*
X115923955Y-46616699D02*
X115941602Y-46662447D01*
X115923955Y-47383300D02*
X115904085Y-47428127D01*
X115923955Y-74616699D02*
X115941602Y-74662447D01*
X115923955Y-75383300D02*
X115904085Y-75428127D01*
X115941602Y-46662447D02*
X115956983Y-46709005D01*
X115941602Y-47337552D02*
X115923955Y-47383300D01*
X115941602Y-74662447D02*
X115956983Y-74709005D01*
X115941602Y-75337552D02*
X115923955Y-75383300D01*
X115956983Y-46709005D02*
X115970060Y-46756262D01*
X115956983Y-47290994D02*
X115941602Y-47337552D01*
X115956983Y-74709005D02*
X115970060Y-74756262D01*
X115956983Y-75290994D02*
X115941602Y-75337552D01*
X115970060Y-46756262D02*
X115980804Y-46804104D01*
X115970060Y-47243737D02*
X115956983Y-47290994D01*
X115970060Y-74756262D02*
X115980804Y-74804104D01*
X115970060Y-75243737D02*
X115956983Y-75290994D01*
X115980804Y-46804104D02*
X115989187Y-46852416D01*
X115980804Y-47195895D02*
X115970060Y-47243737D01*
X115980804Y-74804104D02*
X115989187Y-74852416D01*
X115980804Y-75195895D02*
X115970060Y-75243737D01*
X115989187Y-46852416D02*
X115995189Y-46901080D01*
X115989187Y-47147583D02*
X115980804Y-47195895D01*
X115989187Y-74852416D02*
X115995189Y-74901080D01*
X115989187Y-75147583D02*
X115980804Y-75195895D01*
X115995189Y-46901080D02*
X115998796Y-46949981D01*
X115995189Y-47098919D02*
X115989187Y-47147583D01*
X115995189Y-74901080D02*
X115998796Y-74949981D01*
X115995189Y-75098919D02*
X115989187Y-75147583D01*
X115998796Y-46949981D02*
X116000000Y-46999012D01*
X115998796Y-47050018D02*
X115995189Y-47098919D01*
X115998796Y-74949981D02*
X116000000Y-74999012D01*
X115998796Y-75050018D02*
X115995189Y-75098919D01*
X116000000Y-46999012D02*
X116000000Y-47000987D01*
X116000000Y-47000987D02*
X115998796Y-47050018D01*
X116000000Y-74999012D02*
X116000000Y-75000987D01*
X116000000Y-75000987D02*
X115998796Y-75050018D01*
X121000000Y-46999012D02*
X121001203Y-46949981D01*
X121000000Y-47000987D02*
X121000000Y-46999012D01*
X121000000Y-74999012D02*
X121001203Y-74949981D01*
X121000000Y-75000987D02*
X121000000Y-74999012D01*
X121001203Y-46949981D02*
X121004810Y-46901080D01*
X121001203Y-47050018D02*
X121000000Y-47000987D01*
X121001203Y-74949981D02*
X121004810Y-74901080D01*
X121001203Y-75050018D02*
X121000000Y-75000987D01*
X121004810Y-46901080D02*
X121010812Y-46852416D01*
X121004810Y-47098919D02*
X121001203Y-47050018D01*
X121004810Y-74901080D02*
X121010812Y-74852416D01*
X121004810Y-75098919D02*
X121001203Y-75050018D01*
X121010812Y-46852416D02*
X121019195Y-46804104D01*
X121010812Y-47147583D02*
X121004810Y-47098919D01*
X121010812Y-74852416D02*
X121019195Y-74804104D01*
X121010812Y-75147583D02*
X121004810Y-75098919D01*
X121019195Y-46804104D02*
X121029939Y-46756262D01*
X121019195Y-47195895D02*
X121010812Y-47147583D01*
X121019195Y-74804104D02*
X121029939Y-74756262D01*
X121019195Y-75195895D02*
X121010812Y-75147583D01*
X121029939Y-46756262D02*
X121043016Y-46709005D01*
X121029939Y-47243737D02*
X121019195Y-47195895D01*
X121029939Y-74756262D02*
X121043016Y-74709005D01*
X121029939Y-75243737D02*
X121019195Y-75195895D01*
X121043016Y-46709005D02*
X121058397Y-46662447D01*
X121043016Y-47290994D02*
X121029939Y-47243737D01*
X121043016Y-74709005D02*
X121058397Y-74662447D01*
X121043016Y-75290994D02*
X121029939Y-75243737D01*
X121058397Y-46662447D02*
X121076044Y-46616699D01*
X121058397Y-47337552D02*
X121043016Y-47290994D01*
X121058397Y-74662447D02*
X121076044Y-74616699D01*
X121058397Y-75337552D02*
X121043016Y-75290994D01*
X121076044Y-46616699D02*
X121095914Y-46571872D01*
X121076044Y-47383300D02*
X121058397Y-47337552D01*
X121076044Y-74616699D02*
X121095914Y-74571872D01*
X121076044Y-75383300D02*
X121058397Y-75337552D01*
X121095914Y-46571872D02*
X121117960Y-46528074D01*
X121095914Y-47428127D02*
X121076044Y-47383300D01*
X121095914Y-74571872D02*
X121117960Y-74528074D01*
X121095914Y-75428127D02*
X121076044Y-75383300D01*
X121117960Y-46528074D02*
X121142129Y-46485411D01*
X121117960Y-47471925D02*
X121095914Y-47428127D01*
X121117960Y-74528074D02*
X121142129Y-74485411D01*
X121117960Y-75471925D02*
X121095914Y-75428127D01*
X121142129Y-46485411D02*
X121168362Y-46443985D01*
X121142129Y-47514588D02*
X121117960Y-47471925D01*
X121142129Y-74485411D02*
X121168362Y-74443985D01*
X121142129Y-75514588D02*
X121117960Y-75471925D01*
X121168362Y-46443985D02*
X121196595Y-46403896D01*
X121168362Y-47556014D02*
X121142129Y-47514588D01*
X121168362Y-74443985D02*
X121196595Y-74403896D01*
X121168362Y-75556014D02*
X121142129Y-75514588D01*
X121196595Y-46403896D02*
X121226762Y-46365241D01*
X121196595Y-47596103D02*
X121168362Y-47556014D01*
X121196595Y-74403896D02*
X121226762Y-74365241D01*
X121196595Y-75596103D02*
X121168362Y-75556014D01*
X121226762Y-46365241D02*
X121258790Y-46328112D01*
X121226762Y-47634758D02*
X121196595Y-47596103D01*
X121226762Y-74365241D02*
X121258790Y-74328112D01*
X121226762Y-75634758D02*
X121196595Y-75596103D01*
X121258790Y-46328112D02*
X121292600Y-46292600D01*
X121258790Y-47671887D02*
X121226762Y-47634758D01*
X121258790Y-74328112D02*
X121292600Y-74292600D01*
X121258790Y-75671887D02*
X121226762Y-75634758D01*
X121292600Y-46292600D02*
X121328112Y-46258790D01*
X121292600Y-47707399D02*
X121258790Y-47671887D01*
X121292600Y-74292600D02*
X121328112Y-74258790D01*
X121292600Y-75707399D02*
X121258790Y-75671887D01*
X121328112Y-46258790D02*
X121365241Y-46226762D01*
X121328112Y-47741209D02*
X121292600Y-47707399D01*
X121328112Y-74258790D02*
X121365241Y-74226762D01*
X121328112Y-75741209D02*
X121292600Y-75707399D01*
X121365241Y-46226762D02*
X121403896Y-46196595D01*
X121365241Y-47773237D02*
X121328112Y-47741209D01*
X121365241Y-74226762D02*
X121403896Y-74196595D01*
X121365241Y-75773237D02*
X121328112Y-75741209D01*
X121403896Y-46196595D02*
X121443985Y-46168362D01*
X121403896Y-47803404D02*
X121365241Y-47773237D01*
X121403896Y-74196595D02*
X121443985Y-74168362D01*
X121403896Y-75803404D02*
X121365241Y-75773237D01*
X121443985Y-46168362D02*
X121485411Y-46142129D01*
X121443985Y-47831637D02*
X121403896Y-47803404D01*
X121443985Y-74168362D02*
X121485411Y-74142129D01*
X121443985Y-75831637D02*
X121403896Y-75803404D01*
X121485411Y-46142129D02*
X121528074Y-46117960D01*
X121485411Y-47857870D02*
X121443985Y-47831637D01*
X121485411Y-74142129D02*
X121528074Y-74117960D01*
X121485411Y-75857870D02*
X121443985Y-75831637D01*
X121528074Y-46117960D02*
X121571872Y-46095914D01*
X121528074Y-47882039D02*
X121485411Y-47857870D01*
X121528074Y-74117960D02*
X121571872Y-74095914D01*
X121528074Y-75882039D02*
X121485411Y-75857870D01*
X121571872Y-46095914D02*
X121616699Y-46076044D01*
X121571872Y-47904085D02*
X121528074Y-47882039D01*
X121571872Y-74095914D02*
X121616699Y-74076044D01*
X121571872Y-75904085D02*
X121528074Y-75882039D01*
X121616699Y-46076044D02*
X121662447Y-46058397D01*
X121616699Y-47923955D02*
X121571872Y-47904085D01*
X121616699Y-74076044D02*
X121662447Y-74058397D01*
X121616699Y-75923955D02*
X121571872Y-75904085D01*
X121662447Y-46058397D02*
X121709005Y-46043016D01*
X121662447Y-47941602D02*
X121616699Y-47923955D01*
X121662447Y-74058397D02*
X121709005Y-74043016D01*
X121662447Y-75941602D02*
X121616699Y-75923955D01*
X121709005Y-46043016D02*
X121756262Y-46029939D01*
X121709005Y-47956983D02*
X121662447Y-47941602D01*
X121709005Y-74043016D02*
X121756262Y-74029939D01*
X121709005Y-75956983D02*
X121662447Y-75941602D01*
X121756262Y-46029939D02*
X121804104Y-46019195D01*
X121756262Y-47970060D02*
X121709005Y-47956983D01*
X121756262Y-74029939D02*
X121804104Y-74019195D01*
X121756262Y-75970060D02*
X121709005Y-75956983D01*
X121804104Y-46019195D02*
X121852416Y-46010812D01*
X121804104Y-47980804D02*
X121756262Y-47970060D01*
X121804104Y-74019195D02*
X121852416Y-74010812D01*
X121804104Y-75980804D02*
X121756262Y-75970060D01*
X121852416Y-46010812D02*
X121901080Y-46004810D01*
X121852416Y-47989187D02*
X121804104Y-47980804D01*
X121852416Y-74010812D02*
X121901080Y-74004810D01*
X121852416Y-75989187D02*
X121804104Y-75980804D01*
X121901080Y-46004810D02*
X121949981Y-46001203D01*
X121901080Y-47995189D02*
X121852416Y-47989187D01*
X121901080Y-74004810D02*
X121949981Y-74001203D01*
X121901080Y-75995189D02*
X121852416Y-75989187D01*
X121949981Y-46001203D02*
X121999012Y-46000000D01*
X121949981Y-47998796D02*
X121901080Y-47995189D01*
X121949981Y-74001203D02*
X121999012Y-74000000D01*
X121949981Y-75998796D02*
X121901080Y-75995189D01*
X121999012Y-46000000D02*
X130493666Y-46000000D01*
X121999012Y-48000000D02*
X121949981Y-47998796D01*
X121999012Y-74000000D02*
X130493666Y-74000000D01*
X121999012Y-76000000D02*
X121949981Y-75998796D01*
X130493666Y-20000000D02*
X106506333Y-20000000D01*
X130493666Y-48000000D02*
X121999012Y-48000000D01*
X130493666Y-76000000D02*
X121999012Y-76000000D01*
X130493678Y-45999999D02*
X130506319Y-45999839D01*
X130493678Y-73999999D02*
X130506319Y-73999839D01*
X130493678Y-101999999D02*
X130506319Y-101999839D01*
X130506319Y-20000160D02*
X130493678Y-20000000D01*
X130506319Y-48000160D02*
X130493678Y-48000000D01*
X130506319Y-76000160D02*
X130493678Y-76000000D01*
X130506331Y-45999839D02*
X130588634Y-45997753D01*
X130506331Y-73999839D02*
X130588634Y-73997753D01*
X130506331Y-101999839D02*
X130588634Y-101997753D01*
X130588634Y-20002246D02*
X130506331Y-20000160D01*
X130588634Y-48002246D02*
X130506331Y-48000160D01*
X130588634Y-76002246D02*
X130506331Y-76000160D01*
X130588659Y-45997752D02*
X130613904Y-45996472D01*
X130588659Y-73997752D02*
X130613904Y-73996472D01*
X130588659Y-101997752D02*
X130613904Y-101996472D01*
X130613904Y-20003527D02*
X130588659Y-20002247D01*
X130613904Y-48003527D02*
X130588659Y-48002247D01*
X130613904Y-76003527D02*
X130588659Y-76002247D01*
X130613930Y-45996471D02*
X130689704Y-45990700D01*
X130613930Y-73996471D02*
X130689704Y-73990700D01*
X130613930Y-101996471D02*
X130689704Y-101990700D01*
X130689704Y-20009299D02*
X130613930Y-20003528D01*
X130689704Y-48009299D02*
X130613930Y-48003528D01*
X130689704Y-76009299D02*
X130613930Y-76003528D01*
X130689730Y-45990698D02*
X130714878Y-45988141D01*
X130689730Y-73990698D02*
X130714878Y-73988141D01*
X130689730Y-101990698D02*
X130714878Y-101988141D01*
X130714878Y-20011858D02*
X130689730Y-20009301D01*
X130714878Y-48011858D02*
X130689730Y-48009301D01*
X130714878Y-76011858D02*
X130689730Y-76009301D01*
X130714903Y-45988138D02*
X130790288Y-45978537D01*
X130714903Y-73988138D02*
X130790288Y-73978537D01*
X130714903Y-101988138D02*
X130790288Y-101978537D01*
X130790288Y-20021462D02*
X130714903Y-20011861D01*
X130790288Y-48021462D02*
X130714903Y-48011861D01*
X130790288Y-76021462D02*
X130714903Y-76011861D01*
X130790313Y-45978533D02*
X130815300Y-45974705D01*
X130790313Y-73978533D02*
X130815300Y-73974705D01*
X130790313Y-101978533D02*
X130815300Y-101974705D01*
X130815300Y-20025294D02*
X130790313Y-20021466D01*
X130815300Y-48025294D02*
X130790313Y-48021466D01*
X130815300Y-76025294D02*
X130790313Y-76021466D01*
X130815325Y-45974701D02*
X130890127Y-45961294D01*
X130815325Y-73974701D02*
X130890127Y-73961294D01*
X130815325Y-101974701D02*
X130890127Y-101961294D01*
X130890127Y-20038705D02*
X130815325Y-20025298D01*
X130890127Y-48038705D02*
X130815325Y-48025298D01*
X130890127Y-76038705D02*
X130815325Y-76025298D01*
X130890152Y-45961290D02*
X130914912Y-45956201D01*
X130890152Y-73961290D02*
X130914912Y-73956201D01*
X130890152Y-101961290D02*
X130914912Y-101956201D01*
X130914912Y-20043798D02*
X130890152Y-20038709D01*
X130914912Y-48043798D02*
X130890152Y-48038709D01*
X130914912Y-76043798D02*
X130890152Y-76038709D01*
X130914937Y-45956196D02*
X130988964Y-45939017D01*
X130914937Y-73956196D02*
X130988964Y-73939017D01*
X130914937Y-101956196D02*
X130988964Y-101939017D01*
X130988964Y-20060982D02*
X130914937Y-20043803D01*
X130988964Y-48060982D02*
X130914937Y-48043803D01*
X130988964Y-76060982D02*
X130914937Y-76043803D01*
X130988989Y-45939011D02*
X131013460Y-45932675D01*
X130988989Y-73939011D02*
X131013460Y-73932675D01*
X130988989Y-101939011D02*
X131013460Y-101932675D01*
X131013460Y-20067324D02*
X130988989Y-20060988D01*
X131013460Y-48067324D02*
X130988989Y-48060988D01*
X131013460Y-76067324D02*
X130988989Y-76060988D01*
X131013484Y-45932669D02*
X131086546Y-45911763D01*
X131013484Y-73932669D02*
X131086546Y-73911763D01*
X131013484Y-101932669D02*
X131086546Y-101911763D01*
X131086546Y-20088236D02*
X131013484Y-20067330D01*
X131086546Y-48088236D02*
X131013484Y-48067330D01*
X131086546Y-76088236D02*
X131013484Y-76067330D01*
X131086570Y-45911756D02*
X131110689Y-45904188D01*
X131086570Y-73911756D02*
X131110689Y-73904188D01*
X131086570Y-101911756D02*
X131110689Y-101904188D01*
X131110689Y-20095811D02*
X131086570Y-20088243D01*
X131110689Y-48095811D02*
X131086570Y-48088243D01*
X131110689Y-76095811D02*
X131086570Y-76088243D01*
X131110713Y-45904181D02*
X131182623Y-45879601D01*
X131110713Y-73904181D02*
X131182623Y-73879601D01*
X131110713Y-101904181D02*
X131182623Y-101879601D01*
X131182623Y-20120398D02*
X131110713Y-20095818D01*
X131182623Y-48120398D02*
X131110713Y-48095818D01*
X131182623Y-76120398D02*
X131110713Y-76095818D01*
X131182646Y-45879593D02*
X131206351Y-45870814D01*
X131182646Y-73879593D02*
X131206351Y-73870814D01*
X131182646Y-101879593D02*
X131206351Y-101870814D01*
X131206351Y-20129185D02*
X131182646Y-20120406D01*
X131206351Y-48129185D02*
X131182646Y-48120406D01*
X131206351Y-76129185D02*
X131182646Y-76120406D01*
X131206375Y-45870804D02*
X131276947Y-45842614D01*
X131206375Y-73870804D02*
X131276947Y-73842614D01*
X131206375Y-101870804D02*
X131276947Y-101842614D01*
X131276947Y-20157385D02*
X131206375Y-20129195D01*
X131276947Y-48157385D02*
X131206375Y-48129195D01*
X131276947Y-76157385D02*
X131206375Y-76129195D01*
X131276970Y-45842605D02*
X131300199Y-45832636D01*
X131276970Y-73842605D02*
X131300199Y-73832636D01*
X131276970Y-101842605D02*
X131300199Y-101832636D01*
X131300199Y-20167363D02*
X131276970Y-20157394D01*
X131300199Y-48167363D02*
X131276970Y-48157394D01*
X131300199Y-76167363D02*
X131276970Y-76157394D01*
X131300223Y-45832626D02*
X131369276Y-45800898D01*
X131300223Y-73832626D02*
X131369276Y-73800898D01*
X131300223Y-101832626D02*
X131369276Y-101800898D01*
X131369276Y-20199101D02*
X131300223Y-20167373D01*
X131369276Y-48199101D02*
X131300223Y-48167373D01*
X131369276Y-76199101D02*
X131300223Y-76167373D01*
X131369299Y-45800887D02*
X131391994Y-45789755D01*
X131369299Y-73800887D02*
X131391994Y-73789755D01*
X131369299Y-101800887D02*
X131391994Y-101789755D01*
X131391994Y-20210244D02*
X131369299Y-20199112D01*
X131391994Y-48210244D02*
X131369299Y-48199112D01*
X131391994Y-76210244D02*
X131369299Y-76199112D01*
X131392017Y-45789743D02*
X131459375Y-45754558D01*
X131392017Y-73789743D02*
X131459375Y-73754558D01*
X131392017Y-101789743D02*
X131459375Y-101754558D01*
X131459375Y-20245441D02*
X131392017Y-20210256D01*
X131459375Y-48245441D02*
X131392017Y-48210256D01*
X131459375Y-76245441D02*
X131392017Y-76210256D01*
X131459397Y-45754546D02*
X131481499Y-45742279D01*
X131459397Y-73754546D02*
X131481499Y-73742279D01*
X131459397Y-101754546D02*
X131481499Y-101742279D01*
X131481499Y-20257720D02*
X131459397Y-20245453D01*
X131481499Y-48257720D02*
X131459397Y-48245453D01*
X131481499Y-76257720D02*
X131459397Y-76245453D01*
X131481521Y-45742266D02*
X131547010Y-45703715D01*
X131481521Y-73742266D02*
X131547010Y-73703715D01*
X131481521Y-101742266D02*
X131547010Y-101703715D01*
X131547010Y-20296284D02*
X131481521Y-20257733D01*
X131547010Y-48296284D02*
X131481521Y-48257733D01*
X131547010Y-76296284D02*
X131481521Y-76257733D01*
X131547032Y-45703702D02*
X131568484Y-45690330D01*
X131547032Y-73703702D02*
X131568484Y-73690330D01*
X131547032Y-101703702D02*
X131568484Y-101690330D01*
X131568484Y-20309669D02*
X131547032Y-20296297D01*
X131568484Y-48309669D02*
X131547032Y-48296297D01*
X131568484Y-76309669D02*
X131547032Y-76296297D01*
X131568505Y-45690317D02*
X131631958Y-45648498D01*
X131568505Y-73690317D02*
X131631958Y-73648498D01*
X131568505Y-101690317D02*
X131631958Y-101648498D01*
X131631958Y-20351501D02*
X131568505Y-20309682D01*
X131631958Y-48351501D02*
X131568505Y-48309682D01*
X131631958Y-76351501D02*
X131568505Y-76309682D01*
X131631979Y-45648483D02*
X131652726Y-45634043D01*
X131631979Y-73648483D02*
X131652726Y-73634043D01*
X131631979Y-101648483D02*
X131652726Y-101634043D01*
X131652726Y-20365956D02*
X131631979Y-20351516D01*
X131652726Y-48365956D02*
X131631979Y-48351516D01*
X131652726Y-76365956D02*
X131631979Y-76351516D01*
X131652747Y-45634028D02*
X131714000Y-45589049D01*
X131652747Y-73634028D02*
X131714000Y-73589049D01*
X131652747Y-101634028D02*
X131714000Y-101589049D01*
X131714000Y-20410950D02*
X131652747Y-20365971D01*
X131714000Y-48410950D02*
X131652747Y-48365971D01*
X131714000Y-76410950D02*
X131652747Y-76365971D01*
X131714021Y-45589034D02*
X131734010Y-45573561D01*
X131714021Y-73589034D02*
X131734010Y-73573561D01*
X131714021Y-101589034D02*
X131734010Y-101573561D01*
X131734010Y-20426438D02*
X131714021Y-20410965D01*
X131734010Y-48426438D02*
X131714021Y-48410965D01*
X131734010Y-76426438D02*
X131714021Y-76410965D01*
X131734030Y-45573545D02*
X131792926Y-45525521D01*
X131734030Y-73573545D02*
X131792926Y-73525521D01*
X131734030Y-101573545D02*
X131792926Y-101525521D01*
X131792926Y-20474478D02*
X131734030Y-20426454D01*
X131792926Y-48474478D02*
X131734030Y-48426454D01*
X131792926Y-76474478D02*
X131734030Y-76426454D01*
X131792946Y-45525505D02*
X131812126Y-45509040D01*
X131792946Y-73525505D02*
X131812126Y-73509040D01*
X131792946Y-101525505D02*
X131812126Y-101509040D01*
X131812126Y-20490959D02*
X131792946Y-20474494D01*
X131812126Y-48490959D02*
X131792946Y-48474494D01*
X131812126Y-76490959D02*
X131792946Y-76474494D01*
X131812145Y-45509023D02*
X131868533Y-45458078D01*
X131812145Y-73509023D02*
X131868533Y-73458078D01*
X131812145Y-101509023D02*
X131868533Y-101458078D01*
X131868533Y-20541921D02*
X131812145Y-20490976D01*
X131868533Y-48541921D02*
X131812145Y-48490976D01*
X131868533Y-76541921D02*
X131812145Y-76490976D01*
X131868552Y-45458061D02*
X131886873Y-45440645D01*
X131868552Y-73458061D02*
X131886873Y-73440645D01*
X131868552Y-101458061D02*
X131886873Y-101440645D01*
X131886873Y-20559354D02*
X131868552Y-20541938D01*
X131886873Y-48559354D02*
X131868552Y-48541938D01*
X131886873Y-76559354D02*
X131868552Y-76541938D01*
X131886891Y-45440627D02*
X131940627Y-45386891D01*
X131886891Y-73440627D02*
X131940627Y-73386891D01*
X131886891Y-101440627D02*
X131940627Y-101386891D01*
X131940627Y-20613108D02*
X131886891Y-20559372D01*
X131940627Y-48613108D02*
X131886891Y-48559372D01*
X131940627Y-76613108D02*
X131886891Y-76559372D01*
X131940645Y-45386873D02*
X131958061Y-45368552D01*
X131940645Y-73386873D02*
X131958061Y-73368552D01*
X131940645Y-101386873D02*
X131958061Y-101368552D01*
X131958061Y-20631447D02*
X131940645Y-20613126D01*
X131958061Y-48631447D02*
X131940645Y-48613126D01*
X131958061Y-76631447D02*
X131940645Y-76613126D01*
X131958078Y-45368533D02*
X132009023Y-45312145D01*
X131958078Y-73368533D02*
X132009023Y-73312145D01*
X131958078Y-101368533D02*
X132009023Y-101312145D01*
X132009023Y-20687854D02*
X131958078Y-20631466D01*
X132009023Y-48687854D02*
X131958078Y-48631466D01*
X132009023Y-76687854D02*
X131958078Y-76631466D01*
X132009040Y-45312126D02*
X132025505Y-45292946D01*
X132009040Y-73312126D02*
X132025505Y-73292946D01*
X132009040Y-101312126D02*
X132025505Y-101292946D01*
X132025505Y-20707053D02*
X132009040Y-20687873D01*
X132025505Y-48707053D02*
X132009040Y-48687873D01*
X132025505Y-76707053D02*
X132009040Y-76687873D01*
X132025521Y-45292926D02*
X132073545Y-45234030D01*
X132025521Y-73292926D02*
X132073545Y-73234030D01*
X132025521Y-101292926D02*
X132073545Y-101234030D01*
X132073545Y-20765969D02*
X132025521Y-20707073D01*
X132073545Y-48765969D02*
X132025521Y-48707073D01*
X132073545Y-76765969D02*
X132025521Y-76707073D01*
X132073561Y-45234010D02*
X132089034Y-45214021D01*
X132073561Y-73234010D02*
X132089034Y-73214021D01*
X132073561Y-101234010D02*
X132089034Y-101214021D01*
X132089034Y-20785978D02*
X132073561Y-20765989D01*
X132089034Y-48785978D02*
X132073561Y-48765989D01*
X132089034Y-76785978D02*
X132073561Y-76765989D01*
X132089049Y-45214000D02*
X132134028Y-45152747D01*
X132089049Y-73214000D02*
X132134028Y-73152747D01*
X132089049Y-101214000D02*
X132134028Y-101152747D01*
X132134028Y-20847252D02*
X132089049Y-20785999D01*
X132134028Y-48847252D02*
X132089049Y-48785999D01*
X132134028Y-76847252D02*
X132089049Y-76785999D01*
X132134043Y-45152726D02*
X132148483Y-45131979D01*
X132134043Y-73152726D02*
X132148483Y-73131979D01*
X132134043Y-101152726D02*
X132148483Y-101131979D01*
X132148483Y-20868020D02*
X132134043Y-20847273D01*
X132148483Y-48868020D02*
X132134043Y-48847273D01*
X132148483Y-76868020D02*
X132134043Y-76847273D01*
X132148498Y-45131958D02*
X132190317Y-45068505D01*
X132148498Y-73131958D02*
X132190317Y-73068505D01*
X132148498Y-101131958D02*
X132190317Y-101068505D01*
X132190317Y-20931494D02*
X132148498Y-20868041D01*
X132190317Y-48931494D02*
X132148498Y-48868041D01*
X132190317Y-76931494D02*
X132148498Y-76868041D01*
X132190330Y-45068484D02*
X132203702Y-45047032D01*
X132190330Y-73068484D02*
X132203702Y-73047032D01*
X132190330Y-101068484D02*
X132203702Y-101047032D01*
X132203702Y-20952967D02*
X132190330Y-20931515D01*
X132203702Y-48952967D02*
X132190330Y-48931515D01*
X132203702Y-76952967D02*
X132190330Y-76931515D01*
X132203715Y-45047010D02*
X132242266Y-44981521D01*
X132203715Y-73047010D02*
X132242266Y-72981521D01*
X132203715Y-101047010D02*
X132242266Y-100981521D01*
X132242266Y-21018478D02*
X132203715Y-20952989D01*
X132242266Y-49018478D02*
X132203715Y-48952989D01*
X132242266Y-77018478D02*
X132203715Y-76952989D01*
X132242279Y-44981499D02*
X132254546Y-44959397D01*
X132242279Y-72981499D02*
X132254546Y-72959397D01*
X132242279Y-100981499D02*
X132254546Y-100959397D01*
X132254546Y-21040602D02*
X132242279Y-21018500D01*
X132254546Y-49040602D02*
X132242279Y-49018500D01*
X132254546Y-77040602D02*
X132242279Y-77018500D01*
X132254558Y-44959375D02*
X132289743Y-44892017D01*
X132254558Y-72959375D02*
X132289743Y-72892017D01*
X132254558Y-100959375D02*
X132289743Y-100892017D01*
X132289743Y-21107982D02*
X132254558Y-21040624D01*
X132289743Y-49107982D02*
X132254558Y-49040624D01*
X132289743Y-77107982D02*
X132254558Y-77040624D01*
X132289755Y-44891994D02*
X132300887Y-44869299D01*
X132289755Y-72891994D02*
X132300887Y-72869299D01*
X132289755Y-100891994D02*
X132300887Y-100869299D01*
X132300887Y-21130700D02*
X132289755Y-21108005D01*
X132300887Y-49130700D02*
X132289755Y-49108005D01*
X132300887Y-77130700D02*
X132289755Y-77108005D01*
X132300898Y-44869276D02*
X132332626Y-44800223D01*
X132300898Y-72869276D02*
X132332626Y-72800223D01*
X132300898Y-100869276D02*
X132332626Y-100800223D01*
X132332626Y-21199776D02*
X132300898Y-21130723D01*
X132332626Y-49199776D02*
X132300898Y-49130723D01*
X132332626Y-77199776D02*
X132300898Y-77130723D01*
X132332636Y-44800199D02*
X132342605Y-44776970D01*
X132332636Y-72800199D02*
X132342605Y-72776970D01*
X132332636Y-100800199D02*
X132342605Y-100776970D01*
X132342605Y-21223029D02*
X132332636Y-21199800D01*
X132342605Y-49223029D02*
X132332636Y-49199800D01*
X132342605Y-77223029D02*
X132332636Y-77199800D01*
X132342614Y-44776947D02*
X132370804Y-44706375D01*
X132342614Y-72776947D02*
X132370804Y-72706375D01*
X132342614Y-100776947D02*
X132370804Y-100706375D01*
X132370804Y-21293624D02*
X132342614Y-21223052D01*
X132370804Y-49293624D02*
X132342614Y-49223052D01*
X132370804Y-77293624D02*
X132342614Y-77223052D01*
X132370814Y-44706351D02*
X132379593Y-44682646D01*
X132370814Y-72706351D02*
X132379593Y-72682646D01*
X132370814Y-100706351D02*
X132379593Y-100682646D01*
X132379593Y-21317353D02*
X132370814Y-21293648D01*
X132379593Y-49317353D02*
X132370814Y-49293648D01*
X132379593Y-77317353D02*
X132370814Y-77293648D01*
X132379601Y-44682623D02*
X132404181Y-44610713D01*
X132379601Y-72682623D02*
X132404181Y-72610713D01*
X132379601Y-100682623D02*
X132404181Y-100610713D01*
X132404181Y-21389286D02*
X132379601Y-21317376D01*
X132404181Y-49389286D02*
X132379601Y-49317376D01*
X132404181Y-77389286D02*
X132379601Y-77317376D01*
X132404188Y-44610689D02*
X132411756Y-44586570D01*
X132404188Y-72610689D02*
X132411756Y-72586570D01*
X132404188Y-100610689D02*
X132411756Y-100586570D01*
X132411756Y-21413429D02*
X132404188Y-21389310D01*
X132411756Y-49413429D02*
X132404188Y-49389310D01*
X132411756Y-77413429D02*
X132404188Y-77389310D01*
X132411763Y-44586546D02*
X132432669Y-44513484D01*
X132411763Y-72586546D02*
X132432669Y-72513484D01*
X132411763Y-100586546D02*
X132432669Y-100513484D01*
X132432669Y-21486515D02*
X132411763Y-21413453D01*
X132432669Y-49486515D02*
X132411763Y-49413453D01*
X132432669Y-77486515D02*
X132411763Y-77413453D01*
X132432675Y-44513460D02*
X132439011Y-44488989D01*
X132432675Y-72513460D02*
X132439011Y-72488989D01*
X132432675Y-100513460D02*
X132439011Y-100488989D01*
X132439011Y-21511010D02*
X132432675Y-21486539D01*
X132439011Y-49511010D02*
X132432675Y-49486539D01*
X132439011Y-77511010D02*
X132432675Y-77486539D01*
X132439017Y-44488964D02*
X132456196Y-44414937D01*
X132439017Y-72488964D02*
X132456196Y-72414937D01*
X132439017Y-100488964D02*
X132456196Y-100414937D01*
X132456196Y-21585062D02*
X132439017Y-21511035D01*
X132456196Y-49585062D02*
X132439017Y-49511035D01*
X132456196Y-77585062D02*
X132439017Y-77511035D01*
X132456201Y-44414912D02*
X132461290Y-44390152D01*
X132456201Y-72414912D02*
X132461290Y-72390152D01*
X132456201Y-100414912D02*
X132461290Y-100390152D01*
X132461290Y-21609847D02*
X132456201Y-21585087D01*
X132461290Y-49609847D02*
X132456201Y-49585087D01*
X132461290Y-77609847D02*
X132456201Y-77585087D01*
X132461294Y-44390127D02*
X132474701Y-44315325D01*
X132461294Y-72390127D02*
X132474701Y-72315325D01*
X132461294Y-100390127D02*
X132474701Y-100315325D01*
X132474701Y-21684674D02*
X132461294Y-21609872D01*
X132474701Y-49684674D02*
X132461294Y-49609872D01*
X132474701Y-77684674D02*
X132461294Y-77609872D01*
X132474705Y-44315300D02*
X132478533Y-44290313D01*
X132474705Y-72315300D02*
X132478533Y-72290313D01*
X132474705Y-100315300D02*
X132478533Y-100290313D01*
X132478533Y-21709686D02*
X132474705Y-21684699D01*
X132478533Y-49709686D02*
X132474705Y-49684699D01*
X132478533Y-77709686D02*
X132474705Y-77684699D01*
X132478537Y-44290288D02*
X132488138Y-44214903D01*
X132478537Y-72290288D02*
X132488138Y-72214903D01*
X132478537Y-100290288D02*
X132488138Y-100214903D01*
X132488138Y-21785096D02*
X132478537Y-21709711D01*
X132488138Y-49785096D02*
X132478537Y-49709711D01*
X132488138Y-77785096D02*
X132478537Y-77709711D01*
X132488141Y-44214878D02*
X132490698Y-44189730D01*
X132488141Y-72214878D02*
X132490698Y-72189730D01*
X132488141Y-100214878D02*
X132490698Y-100189730D01*
X132490698Y-21810269D02*
X132488141Y-21785121D01*
X132490700Y-44189704D02*
X132496471Y-44113930D01*
X132490698Y-49810269D02*
X132488141Y-49785121D01*
X132490700Y-72189704D02*
X132496471Y-72113930D01*
X132490698Y-77810269D02*
X132488141Y-77785121D01*
X132490700Y-100189704D02*
X132496471Y-100113930D01*
X132496471Y-21886069D02*
X132490700Y-21810295D01*
X132496472Y-44113904D02*
X132497752Y-44088659D01*
X132496471Y-49886069D02*
X132490700Y-49810295D01*
X132496472Y-72113904D02*
X132497752Y-72088659D01*
X132496471Y-77886069D02*
X132490700Y-77810295D01*
X132496472Y-100113904D02*
X132497752Y-100088659D01*
X132497752Y-21911340D02*
X132496472Y-21886095D01*
X132497753Y-44088634D02*
X132499839Y-44006331D01*
X132497752Y-49911340D02*
X132496472Y-49886095D01*
X132497753Y-72088634D02*
X132499839Y-72006331D01*
X132497752Y-77911340D02*
X132496472Y-77886095D01*
X132497753Y-100088634D02*
X132499839Y-100006331D01*
X132499839Y-21993668D02*
X132497753Y-21911365D01*
X132499839Y-44006319D02*
X132499999Y-43993678D01*
X132499839Y-49993668D02*
X132497753Y-49911365D01*
X132499839Y-72006319D02*
X132499999Y-71993678D01*
X132499839Y-77993668D02*
X132497753Y-77911365D01*
X132499839Y-100006319D02*
X132499999Y-99993678D01*
X132499999Y-22006321D02*
X132499839Y-21993680D01*
X132500000Y-29500987D02*
X132500000Y-22006333D01*
X132500000Y-36499012D02*
X132501203Y-36449981D01*
X132500000Y-43993666D02*
X132500000Y-36499012D01*
X132499999Y-50006321D02*
X132499839Y-49993680D01*
X132500000Y-57500987D02*
X132500000Y-50006333D01*
X132500000Y-64499012D02*
X132501203Y-64449981D01*
X132500000Y-71993666D02*
X132500000Y-64499012D01*
X132499999Y-78006321D02*
X132499839Y-77993680D01*
X132500000Y-85500987D02*
X132500000Y-78006333D01*
X132500000Y-92499012D02*
X132501203Y-92449981D01*
X132500000Y-99993666D02*
X132500000Y-92499012D01*
X132501203Y-29550018D02*
X132500000Y-29500987D01*
X132501203Y-36449981D02*
X132504810Y-36401080D01*
X132501203Y-57550018D02*
X132500000Y-57500987D01*
X132501203Y-64449981D02*
X132504810Y-64401080D01*
X132501203Y-85550018D02*
X132500000Y-85500987D01*
X132501203Y-92449981D02*
X132504810Y-92401080D01*
X132504810Y-29598919D02*
X132501203Y-29550018D01*
X132504810Y-36401080D02*
X132510812Y-36352416D01*
X132504810Y-57598919D02*
X132501203Y-57550018D01*
X132504810Y-64401080D02*
X132510812Y-64352416D01*
X132504810Y-85598919D02*
X132501203Y-85550018D01*
X132504810Y-92401080D02*
X132510812Y-92352416D01*
X132510812Y-29647583D02*
X132504810Y-29598919D01*
X132510812Y-36352416D02*
X132519195Y-36304104D01*
X132510812Y-57647583D02*
X132504810Y-57598919D01*
X132510812Y-64352416D02*
X132519195Y-64304104D01*
X132510812Y-85647583D02*
X132504810Y-85598919D01*
X132510812Y-92352416D02*
X132519195Y-92304104D01*
X132519195Y-29695895D02*
X132510812Y-29647583D01*
X132519195Y-36304104D02*
X132529939Y-36256262D01*
X132519195Y-57695895D02*
X132510812Y-57647583D01*
X132519195Y-64304104D02*
X132529939Y-64256262D01*
X132519195Y-85695895D02*
X132510812Y-85647583D01*
X132519195Y-92304104D02*
X132529939Y-92256262D01*
X132529939Y-29743737D02*
X132519195Y-29695895D01*
X132529939Y-36256262D02*
X132543016Y-36209005D01*
X132529939Y-57743737D02*
X132519195Y-57695895D01*
X132529939Y-64256262D02*
X132543016Y-64209005D01*
X132529939Y-85743737D02*
X132519195Y-85695895D01*
X132529939Y-92256262D02*
X132543016Y-92209005D01*
X132543016Y-29790994D02*
X132529939Y-29743737D01*
X132543016Y-36209005D02*
X132558397Y-36162447D01*
X132543016Y-57790994D02*
X132529939Y-57743737D01*
X132543016Y-64209005D02*
X132558397Y-64162447D01*
X132543016Y-85790994D02*
X132529939Y-85743737D01*
X132543016Y-92209005D02*
X132558397Y-92162447D01*
X132558397Y-29837552D02*
X132543016Y-29790994D01*
X132558397Y-36162447D02*
X132576044Y-36116699D01*
X132558397Y-57837552D02*
X132543016Y-57790994D01*
X132558397Y-64162447D02*
X132576044Y-64116699D01*
X132558397Y-85837552D02*
X132543016Y-85790994D01*
X132558397Y-92162447D02*
X132576044Y-92116699D01*
X132576044Y-29883300D02*
X132558397Y-29837552D01*
X132576044Y-36116699D02*
X132595914Y-36071872D01*
X132576044Y-57883300D02*
X132558397Y-57837552D01*
X132576044Y-64116699D02*
X132595914Y-64071872D01*
X132576044Y-85883300D02*
X132558397Y-85837552D01*
X132576044Y-92116699D02*
X132595914Y-92071872D01*
X132595914Y-29928127D02*
X132576044Y-29883300D01*
X132595914Y-36071872D02*
X132617960Y-36028074D01*
X132595914Y-57928127D02*
X132576044Y-57883300D01*
X132595914Y-64071872D02*
X132617960Y-64028074D01*
X132595914Y-85928127D02*
X132576044Y-85883300D01*
X132595914Y-92071872D02*
X132617960Y-92028074D01*
X132617960Y-29971925D02*
X132595914Y-29928127D01*
X132617960Y-36028074D02*
X132642129Y-35985411D01*
X132617960Y-57971925D02*
X132595914Y-57928127D01*
X132617960Y-64028074D02*
X132642129Y-63985411D01*
X132617960Y-85971925D02*
X132595914Y-85928127D01*
X132617960Y-92028074D02*
X132642129Y-91985411D01*
X132642129Y-30014588D02*
X132617960Y-29971925D01*
X132642129Y-35985411D02*
X132668362Y-35943985D01*
X132642129Y-58014588D02*
X132617960Y-57971925D01*
X132642129Y-63985411D02*
X132668362Y-63943985D01*
X132642129Y-86014588D02*
X132617960Y-85971925D01*
X132642129Y-91985411D02*
X132668362Y-91943985D01*
X132668362Y-30056014D02*
X132642129Y-30014588D01*
X132668362Y-35943985D02*
X132696595Y-35903896D01*
X132668362Y-58056014D02*
X132642129Y-58014588D01*
X132668362Y-63943985D02*
X132696595Y-63903896D01*
X132668362Y-86056014D02*
X132642129Y-86014588D01*
X132668362Y-91943985D02*
X132696595Y-91903896D01*
X132696595Y-30096103D02*
X132668362Y-30056014D01*
X132696595Y-35903896D02*
X132726762Y-35865241D01*
X132696595Y-58096103D02*
X132668362Y-58056014D01*
X132696595Y-63903896D02*
X132726762Y-63865241D01*
X132696595Y-86096103D02*
X132668362Y-86056014D01*
X132696595Y-91903896D02*
X132726762Y-91865241D01*
X132726762Y-30134758D02*
X132696595Y-30096103D01*
X132726762Y-35865241D02*
X132758790Y-35828112D01*
X132726762Y-58134758D02*
X132696595Y-58096103D01*
X132726762Y-63865241D02*
X132758790Y-63828112D01*
X132726762Y-86134758D02*
X132696595Y-86096103D01*
X132726762Y-91865241D02*
X132758790Y-91828112D01*
X132758790Y-30171887D02*
X132726762Y-30134758D01*
X132758790Y-35828112D02*
X132792600Y-35792600D01*
X132758790Y-58171887D02*
X132726762Y-58134758D01*
X132758790Y-63828112D02*
X132792600Y-63792600D01*
X132758790Y-86171887D02*
X132726762Y-86134758D01*
X132758790Y-91828112D02*
X132792600Y-91792600D01*
X132792600Y-30207399D02*
X132758790Y-30171887D01*
X132792600Y-35792600D02*
X132828112Y-35758790D01*
X132792600Y-58207399D02*
X132758790Y-58171887D01*
X132792600Y-63792600D02*
X132828112Y-63758790D01*
X132792600Y-86207399D02*
X132758790Y-86171887D01*
X132792600Y-91792600D02*
X132828112Y-91758790D01*
X132828112Y-30241209D02*
X132792600Y-30207399D01*
X132828112Y-35758790D02*
X132865241Y-35726762D01*
X132828112Y-58241209D02*
X132792600Y-58207399D01*
X132828112Y-63758790D02*
X132865241Y-63726762D01*
X132828112Y-86241209D02*
X132792600Y-86207399D01*
X132828112Y-91758790D02*
X132865241Y-91726762D01*
X132865241Y-30273237D02*
X132828112Y-30241209D01*
X132865241Y-35726762D02*
X132903896Y-35696595D01*
X132865241Y-58273237D02*
X132828112Y-58241209D01*
X132865241Y-63726762D02*
X132903896Y-63696595D01*
X132865241Y-86273237D02*
X132828112Y-86241209D01*
X132865241Y-91726762D02*
X132903896Y-91696595D01*
X132903896Y-30303404D02*
X132865241Y-30273237D01*
X132903896Y-35696595D02*
X132943985Y-35668362D01*
X132903896Y-58303404D02*
X132865241Y-58273237D01*
X132903896Y-63696595D02*
X132943985Y-63668362D01*
X132903896Y-86303404D02*
X132865241Y-86273237D01*
X132903896Y-91696595D02*
X132943985Y-91668362D01*
X132943985Y-30331637D02*
X132903896Y-30303404D01*
X132943985Y-35668362D02*
X132985411Y-35642129D01*
X132943985Y-58331637D02*
X132903896Y-58303404D01*
X132943985Y-63668362D02*
X132985411Y-63642129D01*
X132943985Y-86331637D02*
X132903896Y-86303404D01*
X132943985Y-91668362D02*
X132985411Y-91642129D01*
X132985411Y-30357870D02*
X132943985Y-30331637D01*
X132985411Y-35642129D02*
X133028074Y-35617960D01*
X132985411Y-58357870D02*
X132943985Y-58331637D01*
X132985411Y-63642129D02*
X133028074Y-63617960D01*
X132985411Y-86357870D02*
X132943985Y-86331637D01*
X132985411Y-91642129D02*
X133028074Y-91617960D01*
X133028074Y-30382039D02*
X132985411Y-30357870D01*
X133028074Y-35617960D02*
X133071872Y-35595914D01*
X133028074Y-58382039D02*
X132985411Y-58357870D01*
X133028074Y-63617960D02*
X133071872Y-63595914D01*
X133028074Y-86382039D02*
X132985411Y-86357870D01*
X133028074Y-91617960D02*
X133071872Y-91595914D01*
X133071872Y-30404085D02*
X133028074Y-30382039D01*
X133071872Y-35595914D02*
X133116699Y-35576044D01*
X133071872Y-58404085D02*
X133028074Y-58382039D01*
X133071872Y-63595914D02*
X133116699Y-63576044D01*
X133071872Y-86404085D02*
X133028074Y-86382039D01*
X133071872Y-91595914D02*
X133116699Y-91576044D01*
X133116699Y-30423955D02*
X133071872Y-30404085D01*
X133116699Y-35576044D02*
X133162447Y-35558397D01*
X133116699Y-58423955D02*
X133071872Y-58404085D01*
X133116699Y-63576044D02*
X133162447Y-63558397D01*
X133116699Y-86423955D02*
X133071872Y-86404085D01*
X133116699Y-91576044D02*
X133162447Y-91558397D01*
X133162447Y-30441602D02*
X133116699Y-30423955D01*
X133162447Y-35558397D02*
X133209005Y-35543016D01*
X133162447Y-58441602D02*
X133116699Y-58423955D01*
X133162447Y-63558397D02*
X133209005Y-63543016D01*
X133162447Y-86441602D02*
X133116699Y-86423955D01*
X133162447Y-91558397D02*
X133209005Y-91543016D01*
X133209005Y-30456983D02*
X133162447Y-30441602D01*
X133209005Y-35543016D02*
X133256262Y-35529939D01*
X133209005Y-58456983D02*
X133162447Y-58441602D01*
X133209005Y-63543016D02*
X133256262Y-63529939D01*
X133209005Y-86456983D02*
X133162447Y-86441602D01*
X133209005Y-91543016D02*
X133256262Y-91529939D01*
X133256262Y-30470060D02*
X133209005Y-30456983D01*
X133256262Y-35529939D02*
X133304104Y-35519195D01*
X133256262Y-58470060D02*
X133209005Y-58456983D01*
X133256262Y-63529939D02*
X133304104Y-63519195D01*
X133256262Y-86470060D02*
X133209005Y-86456983D01*
X133256262Y-91529939D02*
X133304104Y-91519195D01*
X133304104Y-30480804D02*
X133256262Y-30470060D01*
X133304104Y-35519195D02*
X133352416Y-35510812D01*
X133304104Y-58480804D02*
X133256262Y-58470060D01*
X133304104Y-63519195D02*
X133352416Y-63510812D01*
X133304104Y-86480804D02*
X133256262Y-86470060D01*
X133304104Y-91519195D02*
X133352416Y-91510812D01*
X133352416Y-30489187D02*
X133304104Y-30480804D01*
X133352416Y-35510812D02*
X133401080Y-35504810D01*
X133352416Y-58489187D02*
X133304104Y-58480804D01*
X133352416Y-63510812D02*
X133401080Y-63504810D01*
X133352416Y-86489187D02*
X133304104Y-86480804D01*
X133352416Y-91510812D02*
X133401080Y-91504810D01*
X133401080Y-30495189D02*
X133352416Y-30489187D01*
X133401080Y-35504810D02*
X133449981Y-35501203D01*
X133401080Y-58495189D02*
X133352416Y-58489187D01*
X133401080Y-63504810D02*
X133449981Y-63501203D01*
X133401080Y-86495189D02*
X133352416Y-86489187D01*
X133401080Y-91504810D02*
X133449981Y-91501203D01*
X133449981Y-30498796D02*
X133401080Y-30495189D01*
X133449981Y-35501203D02*
X133499012Y-35500000D01*
X133449981Y-58498796D02*
X133401080Y-58495189D01*
X133449981Y-63501203D02*
X133499012Y-63500000D01*
X133449981Y-86498796D02*
X133401080Y-86495189D01*
X133449981Y-91501203D02*
X133499012Y-91500000D01*
X133499012Y-30500000D02*
X133449981Y-30498796D01*
X133499012Y-35500000D02*
X133500987Y-35500000D01*
X133499012Y-58500000D02*
X133449981Y-58498796D01*
X133499012Y-63500000D02*
X133500987Y-63500000D01*
X133499012Y-86500000D02*
X133449981Y-86498796D01*
X133499012Y-91500000D02*
X133500987Y-91500000D01*
X133500987Y-30500000D02*
X133499012Y-30500000D01*
X133500987Y-35500000D02*
X133550018Y-35501203D01*
X133500987Y-58500000D02*
X133499012Y-58500000D01*
X133500987Y-63500000D02*
X133550018Y-63501203D01*
X133500987Y-86500000D02*
X133499012Y-86500000D01*
X133500987Y-91500000D02*
X133550018Y-91501203D01*
X133550018Y-30498796D02*
X133500987Y-30500000D01*
X133550018Y-35501203D02*
X133598919Y-35504810D01*
X133550018Y-58498796D02*
X133500987Y-58500000D01*
X133550018Y-63501203D02*
X133598919Y-63504810D01*
X133550018Y-86498796D02*
X133500987Y-86500000D01*
X133550018Y-91501203D02*
X133598919Y-91504810D01*
X133598919Y-30495189D02*
X133550018Y-30498796D01*
X133598919Y-35504810D02*
X133647583Y-35510812D01*
X133598919Y-58495189D02*
X133550018Y-58498796D01*
X133598919Y-63504810D02*
X133647583Y-63510812D01*
X133598919Y-86495189D02*
X133550018Y-86498796D01*
X133598919Y-91504810D02*
X133647583Y-91510812D01*
X133647583Y-30489187D02*
X133598919Y-30495189D01*
X133647583Y-35510812D02*
X133695895Y-35519195D01*
X133647583Y-58489187D02*
X133598919Y-58495189D01*
X133647583Y-63510812D02*
X133695895Y-63519195D01*
X133647583Y-86489187D02*
X133598919Y-86495189D01*
X133647583Y-91510812D02*
X133695895Y-91519195D01*
X133695895Y-30480804D02*
X133647583Y-30489187D01*
X133695895Y-35519195D02*
X133743737Y-35529939D01*
X133695895Y-58480804D02*
X133647583Y-58489187D01*
X133695895Y-63519195D02*
X133743737Y-63529939D01*
X133695895Y-86480804D02*
X133647583Y-86489187D01*
X133695895Y-91519195D02*
X133743737Y-91529939D01*
X133743737Y-30470060D02*
X133695895Y-30480804D01*
X133743737Y-35529939D02*
X133790994Y-35543016D01*
X133743737Y-58470060D02*
X133695895Y-58480804D01*
X133743737Y-63529939D02*
X133790994Y-63543016D01*
X133743737Y-86470060D02*
X133695895Y-86480804D01*
X133743737Y-91529939D02*
X133790994Y-91543016D01*
X133790994Y-30456983D02*
X133743737Y-30470060D01*
X133790994Y-35543016D02*
X133837552Y-35558397D01*
X133790994Y-58456983D02*
X133743737Y-58470060D01*
X133790994Y-63543016D02*
X133837552Y-63558397D01*
X133790994Y-86456983D02*
X133743737Y-86470060D01*
X133790994Y-91543016D02*
X133837552Y-91558397D01*
X133837552Y-30441602D02*
X133790994Y-30456983D01*
X133837552Y-35558397D02*
X133883300Y-35576044D01*
X133837552Y-58441602D02*
X133790994Y-58456983D01*
X133837552Y-63558397D02*
X133883300Y-63576044D01*
X133837552Y-86441602D02*
X133790994Y-86456983D01*
X133837552Y-91558397D02*
X133883300Y-91576044D01*
X133883300Y-30423955D02*
X133837552Y-30441602D01*
X133883300Y-35576044D02*
X133928127Y-35595914D01*
X133883300Y-58423955D02*
X133837552Y-58441602D01*
X133883300Y-63576044D02*
X133928127Y-63595914D01*
X133883300Y-86423955D02*
X133837552Y-86441602D01*
X133883300Y-91576044D02*
X133928127Y-91595914D01*
X133928127Y-30404085D02*
X133883300Y-30423955D01*
X133928127Y-35595914D02*
X133971925Y-35617960D01*
X133928127Y-58404085D02*
X133883300Y-58423955D01*
X133928127Y-63595914D02*
X133971925Y-63617960D01*
X133928127Y-86404085D02*
X133883300Y-86423955D01*
X133928127Y-91595914D02*
X133971925Y-91617960D01*
X133971925Y-30382039D02*
X133928127Y-30404085D01*
X133971925Y-35617960D02*
X134014588Y-35642129D01*
X133971925Y-58382039D02*
X133928127Y-58404085D01*
X133971925Y-63617960D02*
X134014588Y-63642129D01*
X133971925Y-86382039D02*
X133928127Y-86404085D01*
X133971925Y-91617960D02*
X134014588Y-91642129D01*
X134014588Y-30357870D02*
X133971925Y-30382039D01*
X134014588Y-35642129D02*
X134056014Y-35668362D01*
X134014588Y-58357870D02*
X133971925Y-58382039D01*
X134014588Y-63642129D02*
X134056014Y-63668362D01*
X134014588Y-86357870D02*
X133971925Y-86382039D01*
X134014588Y-91642129D02*
X134056014Y-91668362D01*
X134056014Y-30331637D02*
X134014588Y-30357870D01*
X134056014Y-35668362D02*
X134096103Y-35696595D01*
X134056014Y-58331637D02*
X134014588Y-58357870D01*
X134056014Y-63668362D02*
X134096103Y-63696595D01*
X134056014Y-86331637D02*
X134014588Y-86357870D01*
X134056014Y-91668362D02*
X134096103Y-91696595D01*
X134096103Y-30303404D02*
X134056014Y-30331637D01*
X134096103Y-35696595D02*
X134134758Y-35726762D01*
X134096103Y-58303404D02*
X134056014Y-58331637D01*
X134096103Y-63696595D02*
X134134758Y-63726762D01*
X134096103Y-86303404D02*
X134056014Y-86331637D01*
X134096103Y-91696595D02*
X134134758Y-91726762D01*
X134134758Y-30273237D02*
X134096103Y-30303404D01*
X134134758Y-35726762D02*
X134171887Y-35758790D01*
X134134758Y-58273237D02*
X134096103Y-58303404D01*
X134134758Y-63726762D02*
X134171887Y-63758790D01*
X134134758Y-86273237D02*
X134096103Y-86303404D01*
X134134758Y-91726762D02*
X134171887Y-91758790D01*
X134171887Y-30241209D02*
X134134758Y-30273237D01*
X134171887Y-35758790D02*
X134207399Y-35792600D01*
X134171887Y-58241209D02*
X134134758Y-58273237D01*
X134171887Y-63758790D02*
X134207399Y-63792600D01*
X134171887Y-86241209D02*
X134134758Y-86273237D01*
X134171887Y-91758790D02*
X134207399Y-91792600D01*
X134207399Y-30207399D02*
X134171887Y-30241209D01*
X134207399Y-35792600D02*
X134241209Y-35828112D01*
X134207399Y-58207399D02*
X134171887Y-58241209D01*
X134207399Y-63792600D02*
X134241209Y-63828112D01*
X134207399Y-86207399D02*
X134171887Y-86241209D01*
X134207399Y-91792600D02*
X134241209Y-91828112D01*
X134241209Y-30171887D02*
X134207399Y-30207399D01*
X134241209Y-35828112D02*
X134273237Y-35865241D01*
X134241209Y-58171887D02*
X134207399Y-58207399D01*
X134241209Y-63828112D02*
X134273237Y-63865241D01*
X134241209Y-86171887D02*
X134207399Y-86207399D01*
X134241209Y-91828112D02*
X134273237Y-91865241D01*
X134273237Y-30134758D02*
X134241209Y-30171887D01*
X134273237Y-35865241D02*
X134303404Y-35903896D01*
X134273237Y-58134758D02*
X134241209Y-58171887D01*
X134273237Y-63865241D02*
X134303404Y-63903896D01*
X134273237Y-86134758D02*
X134241209Y-86171887D01*
X134273237Y-91865241D02*
X134303404Y-91903896D01*
X134303404Y-30096103D02*
X134273237Y-30134758D01*
X134303404Y-35903896D02*
X134331637Y-35943985D01*
X134303404Y-58096103D02*
X134273237Y-58134758D01*
X134303404Y-63903896D02*
X134331637Y-63943985D01*
X134303404Y-86096103D02*
X134273237Y-86134758D01*
X134303404Y-91903896D02*
X134331637Y-91943985D01*
X134331637Y-30056014D02*
X134303404Y-30096103D01*
X134331637Y-35943985D02*
X134357870Y-35985411D01*
X134331637Y-58056014D02*
X134303404Y-58096103D01*
X134331637Y-63943985D02*
X134357870Y-63985411D01*
X134331637Y-86056014D02*
X134303404Y-86096103D01*
X134331637Y-91943985D02*
X134357870Y-91985411D01*
X134357870Y-30014588D02*
X134331637Y-30056014D01*
X134357870Y-35985411D02*
X134382039Y-36028074D01*
X134357870Y-58014588D02*
X134331637Y-58056014D01*
X134357870Y-63985411D02*
X134382039Y-64028074D01*
X134357870Y-86014588D02*
X134331637Y-86056014D01*
X134357870Y-91985411D02*
X134382039Y-92028074D01*
X134382039Y-29971925D02*
X134357870Y-30014588D01*
X134382039Y-36028074D02*
X134404085Y-36071872D01*
X134382039Y-57971925D02*
X134357870Y-58014588D01*
X134382039Y-64028074D02*
X134404085Y-64071872D01*
X134382039Y-85971925D02*
X134357870Y-86014588D01*
X134382039Y-92028074D02*
X134404085Y-92071872D01*
X134404085Y-29928127D02*
X134382039Y-29971925D01*
X134404085Y-36071872D02*
X134423955Y-36116699D01*
X134404085Y-57928127D02*
X134382039Y-57971925D01*
X134404085Y-64071872D02*
X134423955Y-64116699D01*
X134404085Y-85928127D02*
X134382039Y-85971925D01*
X134404085Y-92071872D02*
X134423955Y-92116699D01*
X134423955Y-29883300D02*
X134404085Y-29928127D01*
X134423955Y-36116699D02*
X134441602Y-36162447D01*
X134423955Y-57883300D02*
X134404085Y-57928127D01*
X134423955Y-64116699D02*
X134441602Y-64162447D01*
X134423955Y-85883300D02*
X134404085Y-85928127D01*
X134423955Y-92116699D02*
X134441602Y-92162447D01*
X134441602Y-29837552D02*
X134423955Y-29883300D01*
X134441602Y-36162447D02*
X134456983Y-36209005D01*
X134441602Y-57837552D02*
X134423955Y-57883300D01*
X134441602Y-64162447D02*
X134456983Y-64209005D01*
X134441602Y-85837552D02*
X134423955Y-85883300D01*
X134441602Y-92162447D02*
X134456983Y-92209005D01*
X134456983Y-29790994D02*
X134441602Y-29837552D01*
X134456983Y-36209005D02*
X134470060Y-36256262D01*
X134456983Y-57790994D02*
X134441602Y-57837552D01*
X134456983Y-64209005D02*
X134470060Y-64256262D01*
X134456983Y-85790994D02*
X134441602Y-85837552D01*
X134456983Y-92209005D02*
X134470060Y-92256262D01*
X134470060Y-29743737D02*
X134456983Y-29790994D01*
X134470060Y-36256262D02*
X134480804Y-36304104D01*
X134470060Y-57743737D02*
X134456983Y-57790994D01*
X134470060Y-64256262D02*
X134480804Y-64304104D01*
X134470060Y-85743737D02*
X134456983Y-85790994D01*
X134470060Y-92256262D02*
X134480804Y-92304104D01*
X134480804Y-29695895D02*
X134470060Y-29743737D01*
X134480804Y-36304104D02*
X134489187Y-36352416D01*
X134480804Y-57695895D02*
X134470060Y-57743737D01*
X134480804Y-64304104D02*
X134489187Y-64352416D01*
X134480804Y-85695895D02*
X134470060Y-85743737D01*
X134480804Y-92304104D02*
X134489187Y-92352416D01*
X134489187Y-29647583D02*
X134480804Y-29695895D01*
X134489187Y-36352416D02*
X134495189Y-36401080D01*
X134489187Y-57647583D02*
X134480804Y-57695895D01*
X134489187Y-64352416D02*
X134495189Y-64401080D01*
X134489187Y-85647583D02*
X134480804Y-85695895D01*
X134489187Y-92352416D02*
X134495189Y-92401080D01*
X134495189Y-29598919D02*
X134489187Y-29647583D01*
X134495189Y-36401080D02*
X134498796Y-36449981D01*
X134495189Y-57598919D02*
X134489187Y-57647583D01*
X134495189Y-64401080D02*
X134498796Y-64449981D01*
X134495189Y-85598919D02*
X134489187Y-85647583D01*
X134495189Y-92401080D02*
X134498796Y-92449981D01*
X134498796Y-29550018D02*
X134495189Y-29598919D01*
X134498796Y-36449981D02*
X134500000Y-36499012D01*
X134498796Y-57550018D02*
X134495189Y-57598919D01*
X134498796Y-64449981D02*
X134500000Y-64499012D01*
X134498796Y-85550018D02*
X134495189Y-85598919D01*
X134498796Y-92449981D02*
X134500000Y-92499012D01*
X134500000Y-22006333D02*
X134500000Y-29500987D01*
X134500000Y-29500987D02*
X134498796Y-29550018D01*
X134500000Y-36499012D02*
X134500000Y-43993666D01*
X134500000Y-43993678D02*
X134500160Y-44006319D01*
X134500000Y-50006333D02*
X134500000Y-57500987D01*
X134500000Y-57500987D02*
X134498796Y-57550018D01*
X134500000Y-64499012D02*
X134500000Y-71993666D01*
X134500000Y-71993678D02*
X134500160Y-72006319D01*
X134500000Y-78006333D02*
X134500000Y-85500987D01*
X134500000Y-85500987D02*
X134498796Y-85550018D01*
X134500000Y-92499012D02*
X134500000Y-99993666D01*
X134500000Y-99993678D02*
X134500160Y-100006319D01*
X134500160Y-21993680D02*
X134500000Y-22006321D01*
X134500160Y-44006331D02*
X134502246Y-44088634D01*
X134500160Y-49993680D02*
X134500000Y-50006321D01*
X134500160Y-72006331D02*
X134502246Y-72088634D01*
X134500160Y-77993680D02*
X134500000Y-78006321D01*
X134500160Y-100006331D02*
X134502246Y-100088634D01*
X134502246Y-21911365D02*
X134500160Y-21993668D01*
X134502247Y-44088659D02*
X134503527Y-44113904D01*
X134502246Y-49911365D02*
X134500160Y-49993668D01*
X134502247Y-72088659D02*
X134503527Y-72113904D01*
X134502246Y-77911365D02*
X134500160Y-77993668D01*
X134502247Y-100088659D02*
X134503527Y-100113904D01*
X134503527Y-21886095D02*
X134502247Y-21911340D01*
X134503528Y-44113930D02*
X134509299Y-44189704D01*
X134503527Y-49886095D02*
X134502247Y-49911340D01*
X134503528Y-72113930D02*
X134509299Y-72189704D01*
X134503527Y-77886095D02*
X134502247Y-77911340D01*
X134503528Y-100113930D02*
X134509299Y-100189704D01*
X134509299Y-21810295D02*
X134503528Y-21886069D01*
X134509301Y-44189730D02*
X134511858Y-44214878D01*
X134509299Y-49810295D02*
X134503528Y-49886069D01*
X134509301Y-72189730D02*
X134511858Y-72214878D01*
X134509299Y-77810295D02*
X134503528Y-77886069D01*
X134509301Y-100189730D02*
X134511858Y-100214878D01*
X134511858Y-21785121D02*
X134509301Y-21810269D01*
X134511858Y-49785121D02*
X134509301Y-49810269D01*
X134511858Y-77785121D02*
X134509301Y-77810269D01*
X134511861Y-44214903D02*
X134521462Y-44290288D01*
X134511861Y-72214903D02*
X134521462Y-72290288D01*
X134511861Y-100214903D02*
X134521462Y-100290288D01*
X134521462Y-21709711D02*
X134511861Y-21785096D01*
X134521462Y-49709711D02*
X134511861Y-49785096D01*
X134521462Y-77709711D02*
X134511861Y-77785096D01*
X134521466Y-44290313D02*
X134525294Y-44315300D01*
X134521466Y-72290313D02*
X134525294Y-72315300D01*
X134521466Y-100290313D02*
X134525294Y-100315300D01*
X134525294Y-21684699D02*
X134521466Y-21709686D01*
X134525294Y-49684699D02*
X134521466Y-49709686D01*
X134525294Y-77684699D02*
X134521466Y-77709686D01*
X134525298Y-44315325D02*
X134538705Y-44390127D01*
X134525298Y-72315325D02*
X134538705Y-72390127D01*
X134525298Y-100315325D02*
X134538705Y-100390127D01*
X134538705Y-21609872D02*
X134525298Y-21684674D01*
X134538705Y-49609872D02*
X134525298Y-49684674D01*
X134538705Y-77609872D02*
X134525298Y-77684674D01*
X134538709Y-44390152D02*
X134543798Y-44414912D01*
X134538709Y-72390152D02*
X134543798Y-72414912D01*
X134538709Y-100390152D02*
X134543798Y-100414912D01*
X134543798Y-21585087D02*
X134538709Y-21609847D01*
X134543798Y-49585087D02*
X134538709Y-49609847D01*
X134543798Y-77585087D02*
X134538709Y-77609847D01*
X134543803Y-44414937D02*
X134560982Y-44488964D01*
X134543803Y-72414937D02*
X134560982Y-72488964D01*
X134543803Y-100414937D02*
X134560982Y-100488964D01*
X134560982Y-21511035D02*
X134543803Y-21585062D01*
X134560982Y-49511035D02*
X134543803Y-49585062D01*
X134560982Y-77511035D02*
X134543803Y-77585062D01*
X134560988Y-44488989D02*
X134567324Y-44513460D01*
X134560988Y-72488989D02*
X134567324Y-72513460D01*
X134560988Y-100488989D02*
X134567324Y-100513460D01*
X134567324Y-21486539D02*
X134560988Y-21511010D01*
X134567324Y-49486539D02*
X134560988Y-49511010D01*
X134567324Y-77486539D02*
X134560988Y-77511010D01*
X134567330Y-44513484D02*
X134588236Y-44586546D01*
X134567330Y-72513484D02*
X134588236Y-72586546D01*
X134567330Y-100513484D02*
X134588236Y-100586546D01*
X134588236Y-21413453D02*
X134567330Y-21486515D01*
X134588236Y-49413453D02*
X134567330Y-49486515D01*
X134588236Y-77413453D02*
X134567330Y-77486515D01*
X134588243Y-44586570D02*
X134595811Y-44610689D01*
X134588243Y-72586570D02*
X134595811Y-72610689D01*
X134588243Y-100586570D02*
X134595811Y-100610689D01*
X134595811Y-21389310D02*
X134588243Y-21413429D01*
X134595811Y-49389310D02*
X134588243Y-49413429D01*
X134595811Y-77389310D02*
X134588243Y-77413429D01*
X134595818Y-44610713D02*
X134620398Y-44682623D01*
X134595818Y-72610713D02*
X134620398Y-72682623D01*
X134595818Y-100610713D02*
X134620398Y-100682623D01*
X134620398Y-21317376D02*
X134595818Y-21389286D01*
X134620398Y-49317376D02*
X134595818Y-49389286D01*
X134620398Y-77317376D02*
X134595818Y-77389286D01*
X134620406Y-44682646D02*
X134629185Y-44706351D01*
X134620406Y-72682646D02*
X134629185Y-72706351D01*
X134620406Y-100682646D02*
X134629185Y-100706351D01*
X134629185Y-21293648D02*
X134620406Y-21317353D01*
X134629185Y-49293648D02*
X134620406Y-49317353D01*
X134629185Y-77293648D02*
X134620406Y-77317353D01*
X134629195Y-44706375D02*
X134657385Y-44776947D01*
X134629195Y-72706375D02*
X134657385Y-72776947D01*
X134629195Y-100706375D02*
X134657385Y-100776947D01*
X134657385Y-21223052D02*
X134629195Y-21293624D01*
X134657385Y-49223052D02*
X134629195Y-49293624D01*
X134657385Y-77223052D02*
X134629195Y-77293624D01*
X134657394Y-44776970D02*
X134667363Y-44800199D01*
X134657394Y-72776970D02*
X134667363Y-72800199D01*
X134657394Y-100776970D02*
X134667363Y-100800199D01*
X134667363Y-21199800D02*
X134657394Y-21223029D01*
X134667363Y-49199800D02*
X134657394Y-49223029D01*
X134667363Y-77199800D02*
X134657394Y-77223029D01*
X134667373Y-44800223D02*
X134699101Y-44869276D01*
X134667373Y-72800223D02*
X134699101Y-72869276D01*
X134667373Y-100800223D02*
X134699101Y-100869276D01*
X134699101Y-21130723D02*
X134667373Y-21199776D01*
X134699101Y-49130723D02*
X134667373Y-49199776D01*
X134699101Y-77130723D02*
X134667373Y-77199776D01*
X134699112Y-44869299D02*
X134710244Y-44891994D01*
X134699112Y-72869299D02*
X134710244Y-72891994D01*
X134699112Y-100869299D02*
X134710244Y-100891994D01*
X134710244Y-21108005D02*
X134699112Y-21130700D01*
X134710244Y-49108005D02*
X134699112Y-49130700D01*
X134710244Y-77108005D02*
X134699112Y-77130700D01*
X134710256Y-44892017D02*
X134745441Y-44959375D01*
X134710256Y-72892017D02*
X134745441Y-72959375D01*
X134710256Y-100892017D02*
X134745441Y-100959375D01*
X134745441Y-21040624D02*
X134710256Y-21107982D01*
X134745441Y-49040624D02*
X134710256Y-49107982D01*
X134745441Y-77040624D02*
X134710256Y-77107982D01*
X134745453Y-44959397D02*
X134757720Y-44981499D01*
X134745453Y-72959397D02*
X134757720Y-72981499D01*
X134745453Y-100959397D02*
X134757720Y-100981499D01*
X134757720Y-21018500D02*
X134745453Y-21040602D01*
X134757720Y-49018500D02*
X134745453Y-49040602D01*
X134757720Y-77018500D02*
X134745453Y-77040602D01*
X134757733Y-44981521D02*
X134796284Y-45047010D01*
X134757733Y-72981521D02*
X134796284Y-73047010D01*
X134757733Y-100981521D02*
X134796284Y-101047010D01*
X134796284Y-20952989D02*
X134757733Y-21018478D01*
X134796284Y-48952989D02*
X134757733Y-49018478D01*
X134796284Y-76952989D02*
X134757733Y-77018478D01*
X134796297Y-45047032D02*
X134809669Y-45068484D01*
X134796297Y-73047032D02*
X134809669Y-73068484D01*
X134796297Y-101047032D02*
X134809669Y-101068484D01*
X134809669Y-20931515D02*
X134796297Y-20952967D01*
X134809669Y-48931515D02*
X134796297Y-48952967D01*
X134809669Y-76931515D02*
X134796297Y-76952967D01*
X134809682Y-45068505D02*
X134851501Y-45131958D01*
X134809682Y-73068505D02*
X134851501Y-73131958D01*
X134809682Y-101068505D02*
X134851501Y-101131958D01*
X134851501Y-20868041D02*
X134809682Y-20931494D01*
X134851501Y-48868041D02*
X134809682Y-48931494D01*
X134851501Y-76868041D02*
X134809682Y-76931494D01*
X134851516Y-45131979D02*
X134865956Y-45152726D01*
X134851516Y-73131979D02*
X134865956Y-73152726D01*
X134851516Y-101131979D02*
X134865956Y-101152726D01*
X134865956Y-20847273D02*
X134851516Y-20868020D01*
X134865956Y-48847273D02*
X134851516Y-48868020D01*
X134865956Y-76847273D02*
X134851516Y-76868020D01*
X134865971Y-45152747D02*
X134910950Y-45214000D01*
X134865971Y-73152747D02*
X134910950Y-73214000D01*
X134865971Y-101152747D02*
X134910950Y-101214000D01*
X134910950Y-20785999D02*
X134865971Y-20847252D01*
X134910950Y-48785999D02*
X134865971Y-48847252D01*
X134910950Y-76785999D02*
X134865971Y-76847252D01*
X134910965Y-45214021D02*
X134926438Y-45234010D01*
X134910965Y-73214021D02*
X134926438Y-73234010D01*
X134910965Y-101214021D02*
X134926438Y-101234010D01*
X134926438Y-20765989D02*
X134910965Y-20785978D01*
X134926438Y-48765989D02*
X134910965Y-48785978D01*
X134926438Y-76765989D02*
X134910965Y-76785978D01*
X134926454Y-45234030D02*
X134974478Y-45292926D01*
X134926454Y-73234030D02*
X134974478Y-73292926D01*
X134926454Y-101234030D02*
X134974478Y-101292926D01*
X134974478Y-20707073D02*
X134926454Y-20765969D01*
X134974478Y-48707073D02*
X134926454Y-48765969D01*
X134974478Y-76707073D02*
X134926454Y-76765969D01*
X134974494Y-45292946D02*
X134990959Y-45312126D01*
X134974494Y-73292946D02*
X134990959Y-73312126D01*
X134974494Y-101292946D02*
X134990959Y-101312126D01*
X134990959Y-20687873D02*
X134974494Y-20707053D01*
X134990959Y-48687873D02*
X134974494Y-48707053D01*
X134990959Y-76687873D02*
X134974494Y-76707053D01*
X134990976Y-45312145D02*
X135041921Y-45368533D01*
X134990976Y-73312145D02*
X135041921Y-73368533D01*
X134990976Y-101312145D02*
X135041921Y-101368533D01*
X135041921Y-20631466D02*
X134990976Y-20687854D01*
X135041921Y-48631466D02*
X134990976Y-48687854D01*
X135041921Y-76631466D02*
X134990976Y-76687854D01*
X135041938Y-45368552D02*
X135059354Y-45386873D01*
X135041938Y-73368552D02*
X135059354Y-73386873D01*
X135041938Y-101368552D02*
X135059354Y-101386873D01*
X135059354Y-20613126D02*
X135041938Y-20631447D01*
X135059354Y-48613126D02*
X135041938Y-48631447D01*
X135059354Y-76613126D02*
X135041938Y-76631447D01*
X135059372Y-45386891D02*
X135113108Y-45440627D01*
X135059372Y-73386891D02*
X135113108Y-73440627D01*
X135059372Y-101386891D02*
X135113108Y-101440627D01*
X135113108Y-20559372D02*
X135059372Y-20613108D01*
X135113108Y-48559372D02*
X135059372Y-48613108D01*
X135113108Y-76559372D02*
X135059372Y-76613108D01*
X135113126Y-45440645D02*
X135131447Y-45458061D01*
X135113126Y-73440645D02*
X135131447Y-73458061D01*
X135113126Y-101440645D02*
X135131447Y-101458061D01*
X135131447Y-20541938D02*
X135113126Y-20559354D01*
X135131447Y-48541938D02*
X135113126Y-48559354D01*
X135131447Y-76541938D02*
X135113126Y-76559354D01*
X135131466Y-45458078D02*
X135187854Y-45509023D01*
X135131466Y-73458078D02*
X135187854Y-73509023D01*
X135131466Y-101458078D02*
X135187854Y-101509023D01*
X135187854Y-20490976D02*
X135131466Y-20541921D01*
X135187854Y-48490976D02*
X135131466Y-48541921D01*
X135187854Y-76490976D02*
X135131466Y-76541921D01*
X135187873Y-45509040D02*
X135207053Y-45525505D01*
X135187873Y-73509040D02*
X135207053Y-73525505D01*
X135187873Y-101509040D02*
X135207053Y-101525505D01*
X135207053Y-20474494D02*
X135187873Y-20490959D01*
X135207053Y-48474494D02*
X135187873Y-48490959D01*
X135207053Y-76474494D02*
X135187873Y-76490959D01*
X135207073Y-45525521D02*
X135265969Y-45573545D01*
X135207073Y-73525521D02*
X135265969Y-73573545D01*
X135207073Y-101525521D02*
X135265969Y-101573545D01*
X135265969Y-20426454D02*
X135207073Y-20474478D01*
X135265969Y-48426454D02*
X135207073Y-48474478D01*
X135265969Y-76426454D02*
X135207073Y-76474478D01*
X135265989Y-45573561D02*
X135285978Y-45589034D01*
X135265989Y-73573561D02*
X135285978Y-73589034D01*
X135265989Y-101573561D02*
X135285978Y-101589034D01*
X135285978Y-20410965D02*
X135265989Y-20426438D01*
X135285978Y-48410965D02*
X135265989Y-48426438D01*
X135285978Y-76410965D02*
X135265989Y-76426438D01*
X135285999Y-45589049D02*
X135347252Y-45634028D01*
X135285999Y-73589049D02*
X135347252Y-73634028D01*
X135285999Y-101589049D02*
X135347252Y-101634028D01*
X135347252Y-20365971D02*
X135285999Y-20410950D01*
X135347252Y-48365971D02*
X135285999Y-48410950D01*
X135347252Y-76365971D02*
X135285999Y-76410950D01*
X135347273Y-45634043D02*
X135368020Y-45648483D01*
X135347273Y-73634043D02*
X135368020Y-73648483D01*
X135347273Y-101634043D02*
X135368020Y-101648483D01*
X135368020Y-20351516D02*
X135347273Y-20365956D01*
X135368020Y-48351516D02*
X135347273Y-48365956D01*
X135368020Y-76351516D02*
X135347273Y-76365956D01*
X135368041Y-45648498D02*
X135431494Y-45690317D01*
X135368041Y-73648498D02*
X135431494Y-73690317D01*
X135368041Y-101648498D02*
X135431494Y-101690317D01*
X135431494Y-20309682D02*
X135368041Y-20351501D01*
X135431494Y-48309682D02*
X135368041Y-48351501D01*
X135431494Y-76309682D02*
X135368041Y-76351501D01*
X135431515Y-45690330D02*
X135452967Y-45703702D01*
X135431515Y-73690330D02*
X135452967Y-73703702D01*
X135431515Y-101690330D02*
X135452967Y-101703702D01*
X135452967Y-20296297D02*
X135431515Y-20309669D01*
X135452967Y-48296297D02*
X135431515Y-48309669D01*
X135452967Y-76296297D02*
X135431515Y-76309669D01*
X135452989Y-45703715D02*
X135518478Y-45742266D01*
X135452989Y-73703715D02*
X135518478Y-73742266D01*
X135452989Y-101703715D02*
X135518478Y-101742266D01*
X135518478Y-20257733D02*
X135452989Y-20296284D01*
X135518478Y-48257733D02*
X135452989Y-48296284D01*
X135518478Y-76257733D02*
X135452989Y-76296284D01*
X135518500Y-45742279D02*
X135540602Y-45754546D01*
X135518500Y-73742279D02*
X135540602Y-73754546D01*
X135518500Y-101742279D02*
X135540602Y-101754546D01*
X135540602Y-20245453D02*
X135518500Y-20257720D01*
X135540602Y-48245453D02*
X135518500Y-48257720D01*
X135540602Y-76245453D02*
X135518500Y-76257720D01*
X135540624Y-45754558D02*
X135607982Y-45789743D01*
X135540624Y-73754558D02*
X135607982Y-73789743D01*
X135540624Y-101754558D02*
X135607982Y-101789743D01*
X135607982Y-20210256D02*
X135540624Y-20245441D01*
X135607982Y-48210256D02*
X135540624Y-48245441D01*
X135607982Y-76210256D02*
X135540624Y-76245441D01*
X135608005Y-45789755D02*
X135630700Y-45800887D01*
X135608005Y-73789755D02*
X135630700Y-73800887D01*
X135608005Y-101789755D02*
X135630700Y-101800887D01*
X135630700Y-20199112D02*
X135608005Y-20210244D01*
X135630700Y-48199112D02*
X135608005Y-48210244D01*
X135630700Y-76199112D02*
X135608005Y-76210244D01*
X135630723Y-45800898D02*
X135699776Y-45832626D01*
X135630723Y-73800898D02*
X135699776Y-73832626D01*
X135630723Y-101800898D02*
X135699776Y-101832626D01*
X135699776Y-20167373D02*
X135630723Y-20199101D01*
X135699776Y-48167373D02*
X135630723Y-48199101D01*
X135699776Y-76167373D02*
X135630723Y-76199101D01*
X135699800Y-45832636D02*
X135723029Y-45842605D01*
X135699800Y-73832636D02*
X135723029Y-73842605D01*
X135699800Y-101832636D02*
X135723029Y-101842605D01*
X135723029Y-20157394D02*
X135699800Y-20167363D01*
X135723029Y-48157394D02*
X135699800Y-48167363D01*
X135723029Y-76157394D02*
X135699800Y-76167363D01*
X135723052Y-45842614D02*
X135793624Y-45870804D01*
X135723052Y-73842614D02*
X135793624Y-73870804D01*
X135723052Y-101842614D02*
X135793624Y-101870804D01*
X135793624Y-20129195D02*
X135723052Y-20157385D01*
X135793624Y-48129195D02*
X135723052Y-48157385D01*
X135793624Y-76129195D02*
X135723052Y-76157385D01*
X135793648Y-45870814D02*
X135817353Y-45879593D01*
X135793648Y-73870814D02*
X135817353Y-73879593D01*
X135793648Y-101870814D02*
X135817353Y-101879593D01*
X135817353Y-20120406D02*
X135793648Y-20129185D01*
X135817353Y-48120406D02*
X135793648Y-48129185D01*
X135817353Y-76120406D02*
X135793648Y-76129185D01*
X135817376Y-45879601D02*
X135889286Y-45904181D01*
X135817376Y-73879601D02*
X135889286Y-73904181D01*
X135817376Y-101879601D02*
X135889286Y-101904181D01*
X135889286Y-20095818D02*
X135817376Y-20120398D01*
X135889286Y-48095818D02*
X135817376Y-48120398D01*
X135889286Y-76095818D02*
X135817376Y-76120398D01*
X135889310Y-45904188D02*
X135913429Y-45911756D01*
X135889310Y-73904188D02*
X135913429Y-73911756D01*
X135889310Y-101904188D02*
X135913429Y-101911756D01*
X135913429Y-20088243D02*
X135889310Y-20095811D01*
X135913429Y-48088243D02*
X135889310Y-48095811D01*
X135913429Y-76088243D02*
X135889310Y-76095811D01*
X135913453Y-45911763D02*
X135986515Y-45932669D01*
X135913453Y-73911763D02*
X135986515Y-73932669D01*
X135913453Y-101911763D02*
X135986515Y-101932669D01*
X135986515Y-20067330D02*
X135913453Y-20088236D01*
X135986515Y-48067330D02*
X135913453Y-48088236D01*
X135986515Y-76067330D02*
X135913453Y-76088236D01*
X135986539Y-45932675D02*
X136011010Y-45939011D01*
X135986539Y-73932675D02*
X136011010Y-73939011D01*
X135986539Y-101932675D02*
X136011010Y-101939011D01*
X136011010Y-20060988D02*
X135986539Y-20067324D01*
X136011010Y-48060988D02*
X135986539Y-48067324D01*
X136011010Y-76060988D02*
X135986539Y-76067324D01*
X136011035Y-45939017D02*
X136085062Y-45956196D01*
X136011035Y-73939017D02*
X136085062Y-73956196D01*
X136011035Y-101939017D02*
X136085062Y-101956196D01*
X136085062Y-20043803D02*
X136011035Y-20060982D01*
X136085062Y-48043803D02*
X136011035Y-48060982D01*
X136085062Y-76043803D02*
X136011035Y-76060982D01*
X136085087Y-45956201D02*
X136109847Y-45961290D01*
X136085087Y-73956201D02*
X136109847Y-73961290D01*
X136085087Y-101956201D02*
X136109847Y-101961290D01*
X136109847Y-20038709D02*
X136085087Y-20043798D01*
X136109847Y-48038709D02*
X136085087Y-48043798D01*
X136109847Y-76038709D02*
X136085087Y-76043798D01*
X136109872Y-45961294D02*
X136184674Y-45974701D01*
X136109872Y-73961294D02*
X136184674Y-73974701D01*
X136109872Y-101961294D02*
X136184674Y-101974701D01*
X136184674Y-20025298D02*
X136109872Y-20038705D01*
X136184674Y-48025298D02*
X136109872Y-48038705D01*
X136184674Y-76025298D02*
X136109872Y-76038705D01*
X136184699Y-45974705D02*
X136209686Y-45978533D01*
X136184699Y-73974705D02*
X136209686Y-73978533D01*
X136184699Y-101974705D02*
X136209686Y-101978533D01*
X136209686Y-20021466D02*
X136184699Y-20025294D01*
X136209686Y-48021466D02*
X136184699Y-48025294D01*
X136209686Y-76021466D02*
X136184699Y-76025294D01*
X136209711Y-45978537D02*
X136285096Y-45988138D01*
X136209711Y-73978537D02*
X136285096Y-73988138D01*
X136209711Y-101978537D02*
X136285096Y-101988138D01*
X136285096Y-20011861D02*
X136209711Y-20021462D01*
X136285096Y-48011861D02*
X136209711Y-48021462D01*
X136285096Y-76011861D02*
X136209711Y-76021462D01*
X136285121Y-45988141D02*
X136310269Y-45990698D01*
X136285121Y-73988141D02*
X136310269Y-73990698D01*
X136285121Y-101988141D02*
X136310269Y-101990698D01*
X136310269Y-20009301D02*
X136285121Y-20011858D01*
X136310269Y-48009301D02*
X136285121Y-48011858D01*
X136310269Y-76009301D02*
X136285121Y-76011858D01*
X136310295Y-45990700D02*
X136386069Y-45996471D01*
X136310295Y-73990700D02*
X136386069Y-73996471D01*
X136310295Y-101990700D02*
X136386069Y-101996471D01*
X136386069Y-20003528D02*
X136310295Y-20009299D01*
X136386069Y-48003528D02*
X136310295Y-48009299D01*
X136386069Y-76003528D02*
X136310295Y-76009299D01*
X136386095Y-45996472D02*
X136411340Y-45997752D01*
X136386095Y-73996472D02*
X136411340Y-73997752D01*
X136386095Y-101996472D02*
X136411340Y-101997752D01*
X136411340Y-20002247D02*
X136386095Y-20003527D01*
X136411340Y-48002247D02*
X136386095Y-48003527D01*
X136411340Y-76002247D02*
X136386095Y-76003527D01*
X136411365Y-45997753D02*
X136493668Y-45999839D01*
X136411365Y-73997753D02*
X136493668Y-73999839D01*
X136411365Y-101997753D02*
X136493668Y-101999839D01*
X136493668Y-20000160D02*
X136411365Y-20002246D01*
X136493668Y-48000160D02*
X136411365Y-48002246D01*
X136493668Y-76000160D02*
X136411365Y-76002246D01*
X136493680Y-45999839D02*
X136506321Y-45999999D01*
X136493680Y-73999839D02*
X136506321Y-73999999D01*
X136493680Y-101999839D02*
X136506321Y-101999999D01*
X136506321Y-20000000D02*
X136493680Y-20000160D01*
X136506321Y-48000000D02*
X136493680Y-48000160D01*
X136506321Y-76000000D02*
X136493680Y-76000160D01*
X136506333Y-46000000D02*
X145000987Y-46000000D01*
X136506333Y-74000000D02*
X145000987Y-74000000D01*
X136506333Y-102000000D02*
X160493666Y-102000000D01*
X145000987Y-46000000D02*
X145050018Y-46001203D01*
X145000987Y-48000000D02*
X136506333Y-48000000D01*
X145000987Y-74000000D02*
X145050018Y-74001203D01*
X145000987Y-76000000D02*
X136506333Y-76000000D01*
X145050018Y-46001203D02*
X145098919Y-46004810D01*
X145050018Y-47998796D02*
X145000987Y-48000000D01*
X145050018Y-74001203D02*
X145098919Y-74004810D01*
X145050018Y-75998796D02*
X145000987Y-76000000D01*
X145098919Y-46004810D02*
X145147583Y-46010812D01*
X145098919Y-47995189D02*
X145050018Y-47998796D01*
X145098919Y-74004810D02*
X145147583Y-74010812D01*
X145098919Y-75995189D02*
X145050018Y-75998796D01*
X145147583Y-46010812D02*
X145195895Y-46019195D01*
X145147583Y-47989187D02*
X145098919Y-47995189D01*
X145147583Y-74010812D02*
X145195895Y-74019195D01*
X145147583Y-75989187D02*
X145098919Y-75995189D01*
X145195895Y-46019195D02*
X145243737Y-46029939D01*
X145195895Y-47980804D02*
X145147583Y-47989187D01*
X145195895Y-74019195D02*
X145243737Y-74029939D01*
X145195895Y-75980804D02*
X145147583Y-75989187D01*
X145243737Y-46029939D02*
X145290994Y-46043016D01*
X145243737Y-47970060D02*
X145195895Y-47980804D01*
X145243737Y-74029939D02*
X145290994Y-74043016D01*
X145243737Y-75970060D02*
X145195895Y-75980804D01*
X145290994Y-46043016D02*
X145337552Y-46058397D01*
X145290994Y-47956983D02*
X145243737Y-47970060D01*
X145290994Y-74043016D02*
X145337552Y-74058397D01*
X145290994Y-75956983D02*
X145243737Y-75970060D01*
X145337552Y-46058397D02*
X145383300Y-46076044D01*
X145337552Y-47941602D02*
X145290994Y-47956983D01*
X145337552Y-74058397D02*
X145383300Y-74076044D01*
X145337552Y-75941602D02*
X145290994Y-75956983D01*
X145383300Y-46076044D02*
X145428127Y-46095914D01*
X145383300Y-47923955D02*
X145337552Y-47941602D01*
X145383300Y-74076044D02*
X145428127Y-74095914D01*
X145383300Y-75923955D02*
X145337552Y-75941602D01*
X145428127Y-46095914D02*
X145471925Y-46117960D01*
X145428127Y-47904085D02*
X145383300Y-47923955D01*
X145428127Y-74095914D02*
X145471925Y-74117960D01*
X145428127Y-75904085D02*
X145383300Y-75923955D01*
X145471925Y-46117960D02*
X145514588Y-46142129D01*
X145471925Y-47882039D02*
X145428127Y-47904085D01*
X145471925Y-74117960D02*
X145514588Y-74142129D01*
X145471925Y-75882039D02*
X145428127Y-75904085D01*
X145514588Y-46142129D02*
X145556014Y-46168362D01*
X145514588Y-47857870D02*
X145471925Y-47882039D01*
X145514588Y-74142129D02*
X145556014Y-74168362D01*
X145514588Y-75857870D02*
X145471925Y-75882039D01*
X145556014Y-46168362D02*
X145596103Y-46196595D01*
X145556014Y-47831637D02*
X145514588Y-47857870D01*
X145556014Y-74168362D02*
X145596103Y-74196595D01*
X145556014Y-75831637D02*
X145514588Y-75857870D01*
X145596103Y-46196595D02*
X145634758Y-46226762D01*
X145596103Y-47803404D02*
X145556014Y-47831637D01*
X145596103Y-74196595D02*
X145634758Y-74226762D01*
X145596103Y-75803404D02*
X145556014Y-75831637D01*
X145634758Y-46226762D02*
X145671887Y-46258790D01*
X145634758Y-47773237D02*
X145596103Y-47803404D01*
X145634758Y-74226762D02*
X145671887Y-74258790D01*
X145634758Y-75773237D02*
X145596103Y-75803404D01*
X145671887Y-46258790D02*
X145707399Y-46292600D01*
X145671887Y-47741209D02*
X145634758Y-47773237D01*
X145671887Y-74258790D02*
X145707399Y-74292600D01*
X145671887Y-75741209D02*
X145634758Y-75773237D01*
X145707399Y-46292600D02*
X145741209Y-46328112D01*
X145707399Y-47707399D02*
X145671887Y-47741209D01*
X145707399Y-74292600D02*
X145741209Y-74328112D01*
X145707399Y-75707399D02*
X145671887Y-75741209D01*
X145741209Y-46328112D02*
X145773237Y-46365241D01*
X145741209Y-47671887D02*
X145707399Y-47707399D01*
X145741209Y-74328112D02*
X145773237Y-74365241D01*
X145741209Y-75671887D02*
X145707399Y-75707399D01*
X145773237Y-46365241D02*
X145803404Y-46403896D01*
X145773237Y-47634758D02*
X145741209Y-47671887D01*
X145773237Y-74365241D02*
X145803404Y-74403896D01*
X145773237Y-75634758D02*
X145741209Y-75671887D01*
X145803404Y-46403896D02*
X145831637Y-46443985D01*
X145803404Y-47596103D02*
X145773237Y-47634758D01*
X145803404Y-74403896D02*
X145831637Y-74443985D01*
X145803404Y-75596103D02*
X145773237Y-75634758D01*
X145831637Y-46443985D02*
X145857870Y-46485411D01*
X145831637Y-47556014D02*
X145803404Y-47596103D01*
X145831637Y-74443985D02*
X145857870Y-74485411D01*
X145831637Y-75556014D02*
X145803404Y-75596103D01*
X145857870Y-46485411D02*
X145882039Y-46528074D01*
X145857870Y-47514588D02*
X145831637Y-47556014D01*
X145857870Y-74485411D02*
X145882039Y-74528074D01*
X145857870Y-75514588D02*
X145831637Y-75556014D01*
X145882039Y-46528074D02*
X145904085Y-46571872D01*
X145882039Y-47471925D02*
X145857870Y-47514588D01*
X145882039Y-74528074D02*
X145904085Y-74571872D01*
X145882039Y-75471925D02*
X145857870Y-75514588D01*
X145904085Y-46571872D02*
X145923955Y-46616699D01*
X145904085Y-47428127D02*
X145882039Y-47471925D01*
X145904085Y-74571872D02*
X145923955Y-74616699D01*
X145904085Y-75428127D02*
X145882039Y-75471925D01*
X145923955Y-46616699D02*
X145941602Y-46662447D01*
X145923955Y-47383300D02*
X145904085Y-47428127D01*
X145923955Y-74616699D02*
X145941602Y-74662447D01*
X145923955Y-75383300D02*
X145904085Y-75428127D01*
X145941602Y-46662447D02*
X145956983Y-46709005D01*
X145941602Y-47337552D02*
X145923955Y-47383300D01*
X145941602Y-74662447D02*
X145956983Y-74709005D01*
X145941602Y-75337552D02*
X145923955Y-75383300D01*
X145956983Y-46709005D02*
X145970060Y-46756262D01*
X145956983Y-47290994D02*
X145941602Y-47337552D01*
X145956983Y-74709005D02*
X145970060Y-74756262D01*
X145956983Y-75290994D02*
X145941602Y-75337552D01*
X145970060Y-46756262D02*
X145980804Y-46804104D01*
X145970060Y-47243737D02*
X145956983Y-47290994D01*
X145970060Y-74756262D02*
X145980804Y-74804104D01*
X145970060Y-75243737D02*
X145956983Y-75290994D01*
X145980804Y-46804104D02*
X145989187Y-46852416D01*
X145980804Y-47195895D02*
X145970060Y-47243737D01*
X145980804Y-74804104D02*
X145989187Y-74852416D01*
X145980804Y-75195895D02*
X145970060Y-75243737D01*
X145989187Y-46852416D02*
X145995189Y-46901080D01*
X145989187Y-47147583D02*
X145980804Y-47195895D01*
X145989187Y-74852416D02*
X145995189Y-74901080D01*
X145989187Y-75147583D02*
X145980804Y-75195895D01*
X145995189Y-46901080D02*
X145998796Y-46949981D01*
X145995189Y-47098919D02*
X145989187Y-47147583D01*
X145995189Y-74901080D02*
X145998796Y-74949981D01*
X145995189Y-75098919D02*
X145989187Y-75147583D01*
X145998796Y-46949981D02*
X146000000Y-46999012D01*
X145998796Y-47050018D02*
X145995189Y-47098919D01*
X145998796Y-74949981D02*
X146000000Y-74999012D01*
X145998796Y-75050018D02*
X145995189Y-75098919D01*
X146000000Y-46999012D02*
X146000000Y-47000987D01*
X146000000Y-47000987D02*
X145998796Y-47050018D01*
X146000000Y-74999012D02*
X146000000Y-75000987D01*
X146000000Y-75000987D02*
X145998796Y-75050018D01*
X151000000Y-46999012D02*
X151001203Y-46949981D01*
X151000000Y-47000987D02*
X151000000Y-46999012D01*
X151000000Y-74999012D02*
X151001203Y-74949981D01*
X151000000Y-75000987D02*
X151000000Y-74999012D01*
X151001203Y-46949981D02*
X151004810Y-46901080D01*
X151001203Y-47050018D02*
X151000000Y-47000987D01*
X151001203Y-74949981D02*
X151004810Y-74901080D01*
X151001203Y-75050018D02*
X151000000Y-75000987D01*
X151004810Y-46901080D02*
X151010812Y-46852416D01*
X151004810Y-47098919D02*
X151001203Y-47050018D01*
X151004810Y-74901080D02*
X151010812Y-74852416D01*
X151004810Y-75098919D02*
X151001203Y-75050018D01*
X151010812Y-46852416D02*
X151019195Y-46804104D01*
X151010812Y-47147583D02*
X151004810Y-47098919D01*
X151010812Y-74852416D02*
X151019195Y-74804104D01*
X151010812Y-75147583D02*
X151004810Y-75098919D01*
X151019195Y-46804104D02*
X151029939Y-46756262D01*
X151019195Y-47195895D02*
X151010812Y-47147583D01*
X151019195Y-74804104D02*
X151029939Y-74756262D01*
X151019195Y-75195895D02*
X151010812Y-75147583D01*
X151029939Y-46756262D02*
X151043016Y-46709005D01*
X151029939Y-47243737D02*
X151019195Y-47195895D01*
X151029939Y-74756262D02*
X151043016Y-74709005D01*
X151029939Y-75243737D02*
X151019195Y-75195895D01*
X151043016Y-46709005D02*
X151058397Y-46662447D01*
X151043016Y-47290994D02*
X151029939Y-47243737D01*
X151043016Y-74709005D02*
X151058397Y-74662447D01*
X151043016Y-75290994D02*
X151029939Y-75243737D01*
X151058397Y-46662447D02*
X151076044Y-46616699D01*
X151058397Y-47337552D02*
X151043016Y-47290994D01*
X151058397Y-74662447D02*
X151076044Y-74616699D01*
X151058397Y-75337552D02*
X151043016Y-75290994D01*
X151076044Y-46616699D02*
X151095914Y-46571872D01*
X151076044Y-47383300D02*
X151058397Y-47337552D01*
X151076044Y-74616699D02*
X151095914Y-74571872D01*
X151076044Y-75383300D02*
X151058397Y-75337552D01*
X151095914Y-46571872D02*
X151117960Y-46528074D01*
X151095914Y-47428127D02*
X151076044Y-47383300D01*
X151095914Y-74571872D02*
X151117960Y-74528074D01*
X151095914Y-75428127D02*
X151076044Y-75383300D01*
X151117960Y-46528074D02*
X151142129Y-46485411D01*
X151117960Y-47471925D02*
X151095914Y-47428127D01*
X151117960Y-74528074D02*
X151142129Y-74485411D01*
X151117960Y-75471925D02*
X151095914Y-75428127D01*
X151142129Y-46485411D02*
X151168362Y-46443985D01*
X151142129Y-47514588D02*
X151117960Y-47471925D01*
X151142129Y-74485411D02*
X151168362Y-74443985D01*
X151142129Y-75514588D02*
X151117960Y-75471925D01*
X151168362Y-46443985D02*
X151196595Y-46403896D01*
X151168362Y-47556014D02*
X151142129Y-47514588D01*
X151168362Y-74443985D02*
X151196595Y-74403896D01*
X151168362Y-75556014D02*
X151142129Y-75514588D01*
X151196595Y-46403896D02*
X151226762Y-46365241D01*
X151196595Y-47596103D02*
X151168362Y-47556014D01*
X151196595Y-74403896D02*
X151226762Y-74365241D01*
X151196595Y-75596103D02*
X151168362Y-75556014D01*
X151226762Y-46365241D02*
X151258790Y-46328112D01*
X151226762Y-47634758D02*
X151196595Y-47596103D01*
X151226762Y-74365241D02*
X151258790Y-74328112D01*
X151226762Y-75634758D02*
X151196595Y-75596103D01*
X151258790Y-46328112D02*
X151292600Y-46292600D01*
X151258790Y-47671887D02*
X151226762Y-47634758D01*
X151258790Y-74328112D02*
X151292600Y-74292600D01*
X151258790Y-75671887D02*
X151226762Y-75634758D01*
X151292600Y-46292600D02*
X151328112Y-46258790D01*
X151292600Y-47707399D02*
X151258790Y-47671887D01*
X151292600Y-74292600D02*
X151328112Y-74258790D01*
X151292600Y-75707399D02*
X151258790Y-75671887D01*
X151328112Y-46258790D02*
X151365241Y-46226762D01*
X151328112Y-47741209D02*
X151292600Y-47707399D01*
X151328112Y-74258790D02*
X151365241Y-74226762D01*
X151328112Y-75741209D02*
X151292600Y-75707399D01*
X151365241Y-46226762D02*
X151403896Y-46196595D01*
X151365241Y-47773237D02*
X151328112Y-47741209D01*
X151365241Y-74226762D02*
X151403896Y-74196595D01*
X151365241Y-75773237D02*
X151328112Y-75741209D01*
X151403896Y-46196595D02*
X151443985Y-46168362D01*
X151403896Y-47803404D02*
X151365241Y-47773237D01*
X151403896Y-74196595D02*
X151443985Y-74168362D01*
X151403896Y-75803404D02*
X151365241Y-75773237D01*
X151443985Y-46168362D02*
X151485411Y-46142129D01*
X151443985Y-47831637D02*
X151403896Y-47803404D01*
X151443985Y-74168362D02*
X151485411Y-74142129D01*
X151443985Y-75831637D02*
X151403896Y-75803404D01*
X151485411Y-46142129D02*
X151528074Y-46117960D01*
X151485411Y-47857870D02*
X151443985Y-47831637D01*
X151485411Y-74142129D02*
X151528074Y-74117960D01*
X151485411Y-75857870D02*
X151443985Y-75831637D01*
X151528074Y-46117960D02*
X151571872Y-46095914D01*
X151528074Y-47882039D02*
X151485411Y-47857870D01*
X151528074Y-74117960D02*
X151571872Y-74095914D01*
X151528074Y-75882039D02*
X151485411Y-75857870D01*
X151571872Y-46095914D02*
X151616699Y-46076044D01*
X151571872Y-47904085D02*
X151528074Y-47882039D01*
X151571872Y-74095914D02*
X151616699Y-74076044D01*
X151571872Y-75904085D02*
X151528074Y-75882039D01*
X151616699Y-46076044D02*
X151662447Y-46058397D01*
X151616699Y-47923955D02*
X151571872Y-47904085D01*
X151616699Y-74076044D02*
X151662447Y-74058397D01*
X151616699Y-75923955D02*
X151571872Y-75904085D01*
X151662447Y-46058397D02*
X151709005Y-46043016D01*
X151662447Y-47941602D02*
X151616699Y-47923955D01*
X151662447Y-74058397D02*
X151709005Y-74043016D01*
X151662447Y-75941602D02*
X151616699Y-75923955D01*
X151709005Y-46043016D02*
X151756262Y-46029939D01*
X151709005Y-47956983D02*
X151662447Y-47941602D01*
X151709005Y-74043016D02*
X151756262Y-74029939D01*
X151709005Y-75956983D02*
X151662447Y-75941602D01*
X151756262Y-46029939D02*
X151804104Y-46019195D01*
X151756262Y-47970060D02*
X151709005Y-47956983D01*
X151756262Y-74029939D02*
X151804104Y-74019195D01*
X151756262Y-75970060D02*
X151709005Y-75956983D01*
X151804104Y-46019195D02*
X151852416Y-46010812D01*
X151804104Y-47980804D02*
X151756262Y-47970060D01*
X151804104Y-74019195D02*
X151852416Y-74010812D01*
X151804104Y-75980804D02*
X151756262Y-75970060D01*
X151852416Y-46010812D02*
X151901080Y-46004810D01*
X151852416Y-47989187D02*
X151804104Y-47980804D01*
X151852416Y-74010812D02*
X151901080Y-74004810D01*
X151852416Y-75989187D02*
X151804104Y-75980804D01*
X151901080Y-46004810D02*
X151949981Y-46001203D01*
X151901080Y-47995189D02*
X151852416Y-47989187D01*
X151901080Y-74004810D02*
X151949981Y-74001203D01*
X151901080Y-75995189D02*
X151852416Y-75989187D01*
X151949981Y-46001203D02*
X151999012Y-46000000D01*
X151949981Y-47998796D02*
X151901080Y-47995189D01*
X151949981Y-74001203D02*
X151999012Y-74000000D01*
X151949981Y-75998796D02*
X151901080Y-75995189D01*
X151999012Y-46000000D02*
X160493666Y-46000000D01*
X151999012Y-48000000D02*
X151949981Y-47998796D01*
X151999012Y-74000000D02*
X160493666Y-74000000D01*
X151999012Y-76000000D02*
X151949981Y-75998796D01*
X160493666Y-20000000D02*
X136506333Y-20000000D01*
X160493666Y-48000000D02*
X151999012Y-48000000D01*
X160493666Y-76000000D02*
X151999012Y-76000000D01*
X160493678Y-45999999D02*
X160506319Y-45999839D01*
X160493678Y-73999999D02*
X160506319Y-73999839D01*
X160493678Y-101999999D02*
X160506319Y-101999839D01*
X160506319Y-20000160D02*
X160493678Y-20000000D01*
X160506319Y-48000160D02*
X160493678Y-48000000D01*
X160506319Y-76000160D02*
X160493678Y-76000000D01*
X160506331Y-45999839D02*
X160588634Y-45997753D01*
X160506331Y-73999839D02*
X160588634Y-73997753D01*
X160506331Y-101999839D02*
X160588634Y-101997753D01*
X160588634Y-20002246D02*
X160506331Y-20000160D01*
X160588634Y-48002246D02*
X160506331Y-48000160D01*
X160588634Y-76002246D02*
X160506331Y-76000160D01*
X160588659Y-45997752D02*
X160613904Y-45996472D01*
X160588659Y-73997752D02*
X160613904Y-73996472D01*
X160588659Y-101997752D02*
X160613904Y-101996472D01*
X160613904Y-20003527D02*
X160588659Y-20002247D01*
X160613904Y-48003527D02*
X160588659Y-48002247D01*
X160613904Y-76003527D02*
X160588659Y-76002247D01*
X160613930Y-45996471D02*
X160689704Y-45990700D01*
X160613930Y-73996471D02*
X160689704Y-73990700D01*
X160613930Y-101996471D02*
X160689704Y-101990700D01*
X160689704Y-20009299D02*
X160613930Y-20003528D01*
X160689704Y-48009299D02*
X160613930Y-48003528D01*
X160689704Y-76009299D02*
X160613930Y-76003528D01*
X160689730Y-45990698D02*
X160714878Y-45988141D01*
X160689730Y-73990698D02*
X160714878Y-73988141D01*
X160689730Y-101990698D02*
X160714878Y-101988141D01*
X160714878Y-20011858D02*
X160689730Y-20009301D01*
X160714878Y-48011858D02*
X160689730Y-48009301D01*
X160714878Y-76011858D02*
X160689730Y-76009301D01*
X160714903Y-45988138D02*
X160790288Y-45978537D01*
X160714903Y-73988138D02*
X160790288Y-73978537D01*
X160714903Y-101988138D02*
X160790288Y-101978537D01*
X160790288Y-20021462D02*
X160714903Y-20011861D01*
X160790288Y-48021462D02*
X160714903Y-48011861D01*
X160790288Y-76021462D02*
X160714903Y-76011861D01*
X160790313Y-45978533D02*
X160815300Y-45974705D01*
X160790313Y-73978533D02*
X160815300Y-73974705D01*
X160790313Y-101978533D02*
X160815300Y-101974705D01*
X160815300Y-20025294D02*
X160790313Y-20021466D01*
X160815300Y-48025294D02*
X160790313Y-48021466D01*
X160815300Y-76025294D02*
X160790313Y-76021466D01*
X160815325Y-45974701D02*
X160890127Y-45961294D01*
X160815325Y-73974701D02*
X160890127Y-73961294D01*
X160815325Y-101974701D02*
X160890127Y-101961294D01*
X160890127Y-20038705D02*
X160815325Y-20025298D01*
X160890127Y-48038705D02*
X160815325Y-48025298D01*
X160890127Y-76038705D02*
X160815325Y-76025298D01*
X160890152Y-45961290D02*
X160914912Y-45956201D01*
X160890152Y-73961290D02*
X160914912Y-73956201D01*
X160890152Y-101961290D02*
X160914912Y-101956201D01*
X160914912Y-20043798D02*
X160890152Y-20038709D01*
X160914912Y-48043798D02*
X160890152Y-48038709D01*
X160914912Y-76043798D02*
X160890152Y-76038709D01*
X160914937Y-45956196D02*
X160988964Y-45939017D01*
X160914937Y-73956196D02*
X160988964Y-73939017D01*
X160914937Y-101956196D02*
X160988964Y-101939017D01*
X160988964Y-20060982D02*
X160914937Y-20043803D01*
X160988964Y-48060982D02*
X160914937Y-48043803D01*
X160988964Y-76060982D02*
X160914937Y-76043803D01*
X160988989Y-45939011D02*
X161013460Y-45932675D01*
X160988989Y-73939011D02*
X161013460Y-73932675D01*
X160988989Y-101939011D02*
X161013460Y-101932675D01*
X161013460Y-20067324D02*
X160988989Y-20060988D01*
X161013460Y-48067324D02*
X160988989Y-48060988D01*
X161013460Y-76067324D02*
X160988989Y-76060988D01*
X161013484Y-45932669D02*
X161086546Y-45911763D01*
X161013484Y-73932669D02*
X161086546Y-73911763D01*
X161013484Y-101932669D02*
X161086546Y-101911763D01*
X161086546Y-20088236D02*
X161013484Y-20067330D01*
X161086546Y-48088236D02*
X161013484Y-48067330D01*
X161086546Y-76088236D02*
X161013484Y-76067330D01*
X161086570Y-45911756D02*
X161110689Y-45904188D01*
X161086570Y-73911756D02*
X161110689Y-73904188D01*
X161086570Y-101911756D02*
X161110689Y-101904188D01*
X161110689Y-20095811D02*
X161086570Y-20088243D01*
X161110689Y-48095811D02*
X161086570Y-48088243D01*
X161110689Y-76095811D02*
X161086570Y-76088243D01*
X161110713Y-45904181D02*
X161182623Y-45879601D01*
X161110713Y-73904181D02*
X161182623Y-73879601D01*
X161110713Y-101904181D02*
X161182623Y-101879601D01*
X161182623Y-20120398D02*
X161110713Y-20095818D01*
X161182623Y-48120398D02*
X161110713Y-48095818D01*
X161182623Y-76120398D02*
X161110713Y-76095818D01*
X161182646Y-45879593D02*
X161206351Y-45870814D01*
X161182646Y-73879593D02*
X161206351Y-73870814D01*
X161182646Y-101879593D02*
X161206351Y-101870814D01*
X161206351Y-20129185D02*
X161182646Y-20120406D01*
X161206351Y-48129185D02*
X161182646Y-48120406D01*
X161206351Y-76129185D02*
X161182646Y-76120406D01*
X161206375Y-45870804D02*
X161276947Y-45842614D01*
X161206375Y-73870804D02*
X161276947Y-73842614D01*
X161206375Y-101870804D02*
X161276947Y-101842614D01*
X161276947Y-20157385D02*
X161206375Y-20129195D01*
X161276947Y-48157385D02*
X161206375Y-48129195D01*
X161276947Y-76157385D02*
X161206375Y-76129195D01*
X161276970Y-45842605D02*
X161300199Y-45832636D01*
X161276970Y-73842605D02*
X161300199Y-73832636D01*
X161276970Y-101842605D02*
X161300199Y-101832636D01*
X161300199Y-20167363D02*
X161276970Y-20157394D01*
X161300199Y-48167363D02*
X161276970Y-48157394D01*
X161300199Y-76167363D02*
X161276970Y-76157394D01*
X161300223Y-45832626D02*
X161369276Y-45800898D01*
X161300223Y-73832626D02*
X161369276Y-73800898D01*
X161300223Y-101832626D02*
X161369276Y-101800898D01*
X161369276Y-20199101D02*
X161300223Y-20167373D01*
X161369276Y-48199101D02*
X161300223Y-48167373D01*
X161369276Y-76199101D02*
X161300223Y-76167373D01*
X161369299Y-45800887D02*
X161391994Y-45789755D01*
X161369299Y-73800887D02*
X161391994Y-73789755D01*
X161369299Y-101800887D02*
X161391994Y-101789755D01*
X161391994Y-20210244D02*
X161369299Y-20199112D01*
X161391994Y-48210244D02*
X161369299Y-48199112D01*
X161391994Y-76210244D02*
X161369299Y-76199112D01*
X161392017Y-45789743D02*
X161459375Y-45754558D01*
X161392017Y-73789743D02*
X161459375Y-73754558D01*
X161392017Y-101789743D02*
X161459375Y-101754558D01*
X161459375Y-20245441D02*
X161392017Y-20210256D01*
X161459375Y-48245441D02*
X161392017Y-48210256D01*
X161459375Y-76245441D02*
X161392017Y-76210256D01*
X161459397Y-45754546D02*
X161481499Y-45742279D01*
X161459397Y-73754546D02*
X161481499Y-73742279D01*
X161459397Y-101754546D02*
X161481499Y-101742279D01*
X161481499Y-20257720D02*
X161459397Y-20245453D01*
X161481499Y-48257720D02*
X161459397Y-48245453D01*
X161481499Y-76257720D02*
X161459397Y-76245453D01*
X161481521Y-45742266D02*
X161547010Y-45703715D01*
X161481521Y-73742266D02*
X161547010Y-73703715D01*
X161481521Y-101742266D02*
X161547010Y-101703715D01*
X161547010Y-20296284D02*
X161481521Y-20257733D01*
X161547010Y-48296284D02*
X161481521Y-48257733D01*
X161547010Y-76296284D02*
X161481521Y-76257733D01*
X161547032Y-45703702D02*
X161568484Y-45690330D01*
X161547032Y-73703702D02*
X161568484Y-73690330D01*
X161547032Y-101703702D02*
X161568484Y-101690330D01*
X161568484Y-20309669D02*
X161547032Y-20296297D01*
X161568484Y-48309669D02*
X161547032Y-48296297D01*
X161568484Y-76309669D02*
X161547032Y-76296297D01*
X161568505Y-45690317D02*
X161631958Y-45648498D01*
X161568505Y-73690317D02*
X161631958Y-73648498D01*
X161568505Y-101690317D02*
X161631958Y-101648498D01*
X161631958Y-20351501D02*
X161568505Y-20309682D01*
X161631958Y-48351501D02*
X161568505Y-48309682D01*
X161631958Y-76351501D02*
X161568505Y-76309682D01*
X161631979Y-45648483D02*
X161652726Y-45634043D01*
X161631979Y-73648483D02*
X161652726Y-73634043D01*
X161631979Y-101648483D02*
X161652726Y-101634043D01*
X161652726Y-20365956D02*
X161631979Y-20351516D01*
X161652726Y-48365956D02*
X161631979Y-48351516D01*
X161652726Y-76365956D02*
X161631979Y-76351516D01*
X161652747Y-45634028D02*
X161714000Y-45589049D01*
X161652747Y-73634028D02*
X161714000Y-73589049D01*
X161652747Y-101634028D02*
X161714000Y-101589049D01*
X161714000Y-20410950D02*
X161652747Y-20365971D01*
X161714000Y-48410950D02*
X161652747Y-48365971D01*
X161714000Y-76410950D02*
X161652747Y-76365971D01*
X161714021Y-45589034D02*
X161734010Y-45573561D01*
X161714021Y-73589034D02*
X161734010Y-73573561D01*
X161714021Y-101589034D02*
X161734010Y-101573561D01*
X161734010Y-20426438D02*
X161714021Y-20410965D01*
X161734010Y-48426438D02*
X161714021Y-48410965D01*
X161734010Y-76426438D02*
X161714021Y-76410965D01*
X161734030Y-45573545D02*
X161792926Y-45525521D01*
X161734030Y-73573545D02*
X161792926Y-73525521D01*
X161734030Y-101573545D02*
X161792926Y-101525521D01*
X161792926Y-20474478D02*
X161734030Y-20426454D01*
X161792926Y-48474478D02*
X161734030Y-48426454D01*
X161792926Y-76474478D02*
X161734030Y-76426454D01*
X161792946Y-45525505D02*
X161812126Y-45509040D01*
X161792946Y-73525505D02*
X161812126Y-73509040D01*
X161792946Y-101525505D02*
X161812126Y-101509040D01*
X161812126Y-20490959D02*
X161792946Y-20474494D01*
X161812126Y-48490959D02*
X161792946Y-48474494D01*
X161812126Y-76490959D02*
X161792946Y-76474494D01*
X161812145Y-45509023D02*
X161868533Y-45458078D01*
X161812145Y-73509023D02*
X161868533Y-73458078D01*
X161812145Y-101509023D02*
X161868533Y-101458078D01*
X161868533Y-20541921D02*
X161812145Y-20490976D01*
X161868533Y-48541921D02*
X161812145Y-48490976D01*
X161868533Y-76541921D02*
X161812145Y-76490976D01*
X161868552Y-45458061D02*
X161886873Y-45440645D01*
X161868552Y-73458061D02*
X161886873Y-73440645D01*
X161868552Y-101458061D02*
X161886873Y-101440645D01*
X161886873Y-20559354D02*
X161868552Y-20541938D01*
X161886873Y-48559354D02*
X161868552Y-48541938D01*
X161886873Y-76559354D02*
X161868552Y-76541938D01*
X161886891Y-45440627D02*
X161940627Y-45386891D01*
X161886891Y-73440627D02*
X161940627Y-73386891D01*
X161886891Y-101440627D02*
X161940627Y-101386891D01*
X161940627Y-20613108D02*
X161886891Y-20559372D01*
X161940627Y-48613108D02*
X161886891Y-48559372D01*
X161940627Y-76613108D02*
X161886891Y-76559372D01*
X161940645Y-45386873D02*
X161958061Y-45368552D01*
X161940645Y-73386873D02*
X161958061Y-73368552D01*
X161940645Y-101386873D02*
X161958061Y-101368552D01*
X161958061Y-20631447D02*
X161940645Y-20613126D01*
X161958061Y-48631447D02*
X161940645Y-48613126D01*
X161958061Y-76631447D02*
X161940645Y-76613126D01*
X161958078Y-45368533D02*
X162009023Y-45312145D01*
X161958078Y-73368533D02*
X162009023Y-73312145D01*
X161958078Y-101368533D02*
X162009023Y-101312145D01*
X162009023Y-20687854D02*
X161958078Y-20631466D01*
X162009023Y-48687854D02*
X161958078Y-48631466D01*
X162009023Y-76687854D02*
X161958078Y-76631466D01*
X162009040Y-45312126D02*
X162025505Y-45292946D01*
X162009040Y-73312126D02*
X162025505Y-73292946D01*
X162009040Y-101312126D02*
X162025505Y-101292946D01*
X162025505Y-20707053D02*
X162009040Y-20687873D01*
X162025505Y-48707053D02*
X162009040Y-48687873D01*
X162025505Y-76707053D02*
X162009040Y-76687873D01*
X162025521Y-45292926D02*
X162073545Y-45234030D01*
X162025521Y-73292926D02*
X162073545Y-73234030D01*
X162025521Y-101292926D02*
X162073545Y-101234030D01*
X162073545Y-20765969D02*
X162025521Y-20707073D01*
X162073545Y-48765969D02*
X162025521Y-48707073D01*
X162073545Y-76765969D02*
X162025521Y-76707073D01*
X162073561Y-45234010D02*
X162089034Y-45214021D01*
X162073561Y-73234010D02*
X162089034Y-73214021D01*
X162073561Y-101234010D02*
X162089034Y-101214021D01*
X162089034Y-20785978D02*
X162073561Y-20765989D01*
X162089034Y-48785978D02*
X162073561Y-48765989D01*
X162089034Y-76785978D02*
X162073561Y-76765989D01*
X162089049Y-45214000D02*
X162134028Y-45152747D01*
X162089049Y-73214000D02*
X162134028Y-73152747D01*
X162089049Y-101214000D02*
X162134028Y-101152747D01*
X162134028Y-20847252D02*
X162089049Y-20785999D01*
X162134028Y-48847252D02*
X162089049Y-48785999D01*
X162134028Y-76847252D02*
X162089049Y-76785999D01*
X162134043Y-45152726D02*
X162148483Y-45131979D01*
X162134043Y-73152726D02*
X162148483Y-73131979D01*
X162134043Y-101152726D02*
X162148483Y-101131979D01*
X162148483Y-20868020D02*
X162134043Y-20847273D01*
X162148483Y-48868020D02*
X162134043Y-48847273D01*
X162148483Y-76868020D02*
X162134043Y-76847273D01*
X162148498Y-45131958D02*
X162190317Y-45068505D01*
X162148498Y-73131958D02*
X162190317Y-73068505D01*
X162148498Y-101131958D02*
X162190317Y-101068505D01*
X162190317Y-20931494D02*
X162148498Y-20868041D01*
X162190317Y-48931494D02*
X162148498Y-48868041D01*
X162190317Y-76931494D02*
X162148498Y-76868041D01*
X162190330Y-45068484D02*
X162203702Y-45047032D01*
X162190330Y-73068484D02*
X162203702Y-73047032D01*
X162190330Y-101068484D02*
X162203702Y-101047032D01*
X162203702Y-20952967D02*
X162190330Y-20931515D01*
X162203702Y-48952967D02*
X162190330Y-48931515D01*
X162203702Y-76952967D02*
X162190330Y-76931515D01*
X162203715Y-45047010D02*
X162242266Y-44981521D01*
X162203715Y-73047010D02*
X162242266Y-72981521D01*
X162203715Y-101047010D02*
X162242266Y-100981521D01*
X162242266Y-21018478D02*
X162203715Y-20952989D01*
X162242266Y-49018478D02*
X162203715Y-48952989D01*
X162242266Y-77018478D02*
X162203715Y-76952989D01*
X162242279Y-44981499D02*
X162254546Y-44959397D01*
X162242279Y-72981499D02*
X162254546Y-72959397D01*
X162242279Y-100981499D02*
X162254546Y-100959397D01*
X162254546Y-21040602D02*
X162242279Y-21018500D01*
X162254546Y-49040602D02*
X162242279Y-49018500D01*
X162254546Y-77040602D02*
X162242279Y-77018500D01*
X162254558Y-44959375D02*
X162289743Y-44892017D01*
X162254558Y-72959375D02*
X162289743Y-72892017D01*
X162254558Y-100959375D02*
X162289743Y-100892017D01*
X162289743Y-21107982D02*
X162254558Y-21040624D01*
X162289743Y-49107982D02*
X162254558Y-49040624D01*
X162289743Y-77107982D02*
X162254558Y-77040624D01*
X162289755Y-44891994D02*
X162300887Y-44869299D01*
X162289755Y-72891994D02*
X162300887Y-72869299D01*
X162289755Y-100891994D02*
X162300887Y-100869299D01*
X162300887Y-21130700D02*
X162289755Y-21108005D01*
X162300887Y-49130700D02*
X162289755Y-49108005D01*
X162300887Y-77130700D02*
X162289755Y-77108005D01*
X162300898Y-44869276D02*
X162332626Y-44800223D01*
X162300898Y-72869276D02*
X162332626Y-72800223D01*
X162300898Y-100869276D02*
X162332626Y-100800223D01*
X162332626Y-21199776D02*
X162300898Y-21130723D01*
X162332626Y-49199776D02*
X162300898Y-49130723D01*
X162332626Y-77199776D02*
X162300898Y-77130723D01*
X162332636Y-44800199D02*
X162342605Y-44776970D01*
X162332636Y-72800199D02*
X162342605Y-72776970D01*
X162332636Y-100800199D02*
X162342605Y-100776970D01*
X162342605Y-21223029D02*
X162332636Y-21199800D01*
X162342605Y-49223029D02*
X162332636Y-49199800D01*
X162342605Y-77223029D02*
X162332636Y-77199800D01*
X162342614Y-44776947D02*
X162370804Y-44706375D01*
X162342614Y-72776947D02*
X162370804Y-72706375D01*
X162342614Y-100776947D02*
X162370804Y-100706375D01*
X162370804Y-21293624D02*
X162342614Y-21223052D01*
X162370804Y-49293624D02*
X162342614Y-49223052D01*
X162370804Y-77293624D02*
X162342614Y-77223052D01*
X162370814Y-44706351D02*
X162379593Y-44682646D01*
X162370814Y-72706351D02*
X162379593Y-72682646D01*
X162370814Y-100706351D02*
X162379593Y-100682646D01*
X162379593Y-21317353D02*
X162370814Y-21293648D01*
X162379593Y-49317353D02*
X162370814Y-49293648D01*
X162379593Y-77317353D02*
X162370814Y-77293648D01*
X162379601Y-44682623D02*
X162404181Y-44610713D01*
X162379601Y-72682623D02*
X162404181Y-72610713D01*
X162379601Y-100682623D02*
X162404181Y-100610713D01*
X162404181Y-21389286D02*
X162379601Y-21317376D01*
X162404181Y-49389286D02*
X162379601Y-49317376D01*
X162404181Y-77389286D02*
X162379601Y-77317376D01*
X162404188Y-44610689D02*
X162411756Y-44586570D01*
X162404188Y-72610689D02*
X162411756Y-72586570D01*
X162404188Y-100610689D02*
X162411756Y-100586570D01*
X162411756Y-21413429D02*
X162404188Y-21389310D01*
X162411756Y-49413429D02*
X162404188Y-49389310D01*
X162411756Y-77413429D02*
X162404188Y-77389310D01*
X162411763Y-44586546D02*
X162432669Y-44513484D01*
X162411763Y-72586546D02*
X162432669Y-72513484D01*
X162411763Y-100586546D02*
X162432669Y-100513484D01*
X162432669Y-21486515D02*
X162411763Y-21413453D01*
X162432669Y-49486515D02*
X162411763Y-49413453D01*
X162432669Y-77486515D02*
X162411763Y-77413453D01*
X162432675Y-44513460D02*
X162439011Y-44488989D01*
X162432675Y-72513460D02*
X162439011Y-72488989D01*
X162432675Y-100513460D02*
X162439011Y-100488989D01*
X162439011Y-21511010D02*
X162432675Y-21486539D01*
X162439011Y-49511010D02*
X162432675Y-49486539D01*
X162439011Y-77511010D02*
X162432675Y-77486539D01*
X162439017Y-44488964D02*
X162456196Y-44414937D01*
X162439017Y-72488964D02*
X162456196Y-72414937D01*
X162439017Y-100488964D02*
X162456196Y-100414937D01*
X162456196Y-21585062D02*
X162439017Y-21511035D01*
X162456196Y-49585062D02*
X162439017Y-49511035D01*
X162456196Y-77585062D02*
X162439017Y-77511035D01*
X162456201Y-44414912D02*
X162461290Y-44390152D01*
X162456201Y-72414912D02*
X162461290Y-72390152D01*
X162456201Y-100414912D02*
X162461290Y-100390152D01*
X162461290Y-21609847D02*
X162456201Y-21585087D01*
X162461290Y-49609847D02*
X162456201Y-49585087D01*
X162461290Y-77609847D02*
X162456201Y-77585087D01*
X162461294Y-44390127D02*
X162474701Y-44315325D01*
X162461294Y-72390127D02*
X162474701Y-72315325D01*
X162461294Y-100390127D02*
X162474701Y-100315325D01*
X162474701Y-21684674D02*
X162461294Y-21609872D01*
X162474701Y-49684674D02*
X162461294Y-49609872D01*
X162474701Y-77684674D02*
X162461294Y-77609872D01*
X162474705Y-44315300D02*
X162478533Y-44290313D01*
X162474705Y-72315300D02*
X162478533Y-72290313D01*
X162474705Y-100315300D02*
X162478533Y-100290313D01*
X162478533Y-21709686D02*
X162474705Y-21684699D01*
X162478533Y-49709686D02*
X162474705Y-49684699D01*
X162478533Y-77709686D02*
X162474705Y-77684699D01*
X162478537Y-44290288D02*
X162488138Y-44214903D01*
X162478537Y-72290288D02*
X162488138Y-72214903D01*
X162478537Y-100290288D02*
X162488138Y-100214903D01*
X162488138Y-21785096D02*
X162478537Y-21709711D01*
X162488138Y-49785096D02*
X162478537Y-49709711D01*
X162488138Y-77785096D02*
X162478537Y-77709711D01*
X162488141Y-44214878D02*
X162490698Y-44189730D01*
X162488141Y-72214878D02*
X162490698Y-72189730D01*
X162488141Y-100214878D02*
X162490698Y-100189730D01*
X162490698Y-21810269D02*
X162488141Y-21785121D01*
X162490700Y-44189704D02*
X162496471Y-44113930D01*
X162490698Y-49810269D02*
X162488141Y-49785121D01*
X162490700Y-72189704D02*
X162496471Y-72113930D01*
X162490698Y-77810269D02*
X162488141Y-77785121D01*
X162490700Y-100189704D02*
X162496471Y-100113930D01*
X162496471Y-21886069D02*
X162490700Y-21810295D01*
X162496472Y-44113904D02*
X162497752Y-44088659D01*
X162496471Y-49886069D02*
X162490700Y-49810295D01*
X162496472Y-72113904D02*
X162497752Y-72088659D01*
X162496471Y-77886069D02*
X162490700Y-77810295D01*
X162496472Y-100113904D02*
X162497752Y-100088659D01*
X162497752Y-21911340D02*
X162496472Y-21886095D01*
X162497753Y-44088634D02*
X162499839Y-44006331D01*
X162497752Y-49911340D02*
X162496472Y-49886095D01*
X162497753Y-72088634D02*
X162499839Y-72006331D01*
X162497752Y-77911340D02*
X162496472Y-77886095D01*
X162497753Y-100088634D02*
X162499839Y-100006331D01*
X162499839Y-21993668D02*
X162497753Y-21911365D01*
X162499839Y-44006319D02*
X162499999Y-43993678D01*
X162499839Y-49993668D02*
X162497753Y-49911365D01*
X162499839Y-72006319D02*
X162499999Y-71993678D01*
X162499839Y-77993668D02*
X162497753Y-77911365D01*
X162499839Y-100006319D02*
X162499999Y-99993678D01*
X162499999Y-22006321D02*
X162499839Y-21993680D01*
X162500000Y-29500987D02*
X162500000Y-22006333D01*
X162500000Y-36499012D02*
X162501203Y-36449981D01*
X162500000Y-43993666D02*
X162500000Y-36499012D01*
X162499999Y-50006321D02*
X162499839Y-49993680D01*
X162500000Y-57500987D02*
X162500000Y-50006333D01*
X162500000Y-64499012D02*
X162501203Y-64449981D01*
X162500000Y-71993666D02*
X162500000Y-64499012D01*
X162499999Y-78006321D02*
X162499839Y-77993680D01*
X162500000Y-85500987D02*
X162500000Y-78006333D01*
X162500000Y-92499012D02*
X162501203Y-92449981D01*
X162500000Y-99993666D02*
X162500000Y-92499012D01*
X162501203Y-29550018D02*
X162500000Y-29500987D01*
X162501203Y-36449981D02*
X162504810Y-36401080D01*
X162501203Y-57550018D02*
X162500000Y-57500987D01*
X162501203Y-64449981D02*
X162504810Y-64401080D01*
X162501203Y-85550018D02*
X162500000Y-85500987D01*
X162501203Y-92449981D02*
X162504810Y-92401080D01*
X162504810Y-29598919D02*
X162501203Y-29550018D01*
X162504810Y-36401080D02*
X162510812Y-36352416D01*
X162504810Y-57598919D02*
X162501203Y-57550018D01*
X162504810Y-64401080D02*
X162510812Y-64352416D01*
X162504810Y-85598919D02*
X162501203Y-85550018D01*
X162504810Y-92401080D02*
X162510812Y-92352416D01*
X162510812Y-29647583D02*
X162504810Y-29598919D01*
X162510812Y-36352416D02*
X162519195Y-36304104D01*
X162510812Y-57647583D02*
X162504810Y-57598919D01*
X162510812Y-64352416D02*
X162519195Y-64304104D01*
X162510812Y-85647583D02*
X162504810Y-85598919D01*
X162510812Y-92352416D02*
X162519195Y-92304104D01*
X162519195Y-29695895D02*
X162510812Y-29647583D01*
X162519195Y-36304104D02*
X162529939Y-36256262D01*
X162519195Y-57695895D02*
X162510812Y-57647583D01*
X162519195Y-64304104D02*
X162529939Y-64256262D01*
X162519195Y-85695895D02*
X162510812Y-85647583D01*
X162519195Y-92304104D02*
X162529939Y-92256262D01*
X162529939Y-29743737D02*
X162519195Y-29695895D01*
X162529939Y-36256262D02*
X162543016Y-36209005D01*
X162529939Y-57743737D02*
X162519195Y-57695895D01*
X162529939Y-64256262D02*
X162543016Y-64209005D01*
X162529939Y-85743737D02*
X162519195Y-85695895D01*
X162529939Y-92256262D02*
X162543016Y-92209005D01*
X162543016Y-29790994D02*
X162529939Y-29743737D01*
X162543016Y-36209005D02*
X162558397Y-36162447D01*
X162543016Y-57790994D02*
X162529939Y-57743737D01*
X162543016Y-64209005D02*
X162558397Y-64162447D01*
X162543016Y-85790994D02*
X162529939Y-85743737D01*
X162543016Y-92209005D02*
X162558397Y-92162447D01*
X162558397Y-29837552D02*
X162543016Y-29790994D01*
X162558397Y-36162447D02*
X162576044Y-36116699D01*
X162558397Y-57837552D02*
X162543016Y-57790994D01*
X162558397Y-64162447D02*
X162576044Y-64116699D01*
X162558397Y-85837552D02*
X162543016Y-85790994D01*
X162558397Y-92162447D02*
X162576044Y-92116699D01*
X162576044Y-29883300D02*
X162558397Y-29837552D01*
X162576044Y-36116699D02*
X162595914Y-36071872D01*
X162576044Y-57883300D02*
X162558397Y-57837552D01*
X162576044Y-64116699D02*
X162595914Y-64071872D01*
X162576044Y-85883300D02*
X162558397Y-85837552D01*
X162576044Y-92116699D02*
X162595914Y-92071872D01*
X162595914Y-29928127D02*
X162576044Y-29883300D01*
X162595914Y-36071872D02*
X162617960Y-36028074D01*
X162595914Y-57928127D02*
X162576044Y-57883300D01*
X162595914Y-64071872D02*
X162617960Y-64028074D01*
X162595914Y-85928127D02*
X162576044Y-85883300D01*
X162595914Y-92071872D02*
X162617960Y-92028074D01*
X162617960Y-29971925D02*
X162595914Y-29928127D01*
X162617960Y-36028074D02*
X162642129Y-35985411D01*
X162617960Y-57971925D02*
X162595914Y-57928127D01*
X162617960Y-64028074D02*
X162642129Y-63985411D01*
X162617960Y-85971925D02*
X162595914Y-85928127D01*
X162617960Y-92028074D02*
X162642129Y-91985411D01*
X162642129Y-30014588D02*
X162617960Y-29971925D01*
X162642129Y-35985411D02*
X162668362Y-35943985D01*
X162642129Y-58014588D02*
X162617960Y-57971925D01*
X162642129Y-63985411D02*
X162668362Y-63943985D01*
X162642129Y-86014588D02*
X162617960Y-85971925D01*
X162642129Y-91985411D02*
X162668362Y-91943985D01*
X162668362Y-30056014D02*
X162642129Y-30014588D01*
X162668362Y-35943985D02*
X162696595Y-35903896D01*
X162668362Y-58056014D02*
X162642129Y-58014588D01*
X162668362Y-63943985D02*
X162696595Y-63903896D01*
X162668362Y-86056014D02*
X162642129Y-86014588D01*
X162668362Y-91943985D02*
X162696595Y-91903896D01*
X162696595Y-30096103D02*
X162668362Y-30056014D01*
X162696595Y-35903896D02*
X162726762Y-35865241D01*
X162696595Y-58096103D02*
X162668362Y-58056014D01*
X162696595Y-63903896D02*
X162726762Y-63865241D01*
X162696595Y-86096103D02*
X162668362Y-86056014D01*
X162696595Y-91903896D02*
X162726762Y-91865241D01*
X162726762Y-30134758D02*
X162696595Y-30096103D01*
X162726762Y-35865241D02*
X162758790Y-35828112D01*
X162726762Y-58134758D02*
X162696595Y-58096103D01*
X162726762Y-63865241D02*
X162758790Y-63828112D01*
X162726762Y-86134758D02*
X162696595Y-86096103D01*
X162726762Y-91865241D02*
X162758790Y-91828112D01*
X162758790Y-30171887D02*
X162726762Y-30134758D01*
X162758790Y-35828112D02*
X162792600Y-35792600D01*
X162758790Y-58171887D02*
X162726762Y-58134758D01*
X162758790Y-63828112D02*
X162792600Y-63792600D01*
X162758790Y-86171887D02*
X162726762Y-86134758D01*
X162758790Y-91828112D02*
X162792600Y-91792600D01*
X162792600Y-30207399D02*
X162758790Y-30171887D01*
X162792600Y-35792600D02*
X162828112Y-35758790D01*
X162792600Y-58207399D02*
X162758790Y-58171887D01*
X162792600Y-63792600D02*
X162828112Y-63758790D01*
X162792600Y-86207399D02*
X162758790Y-86171887D01*
X162792600Y-91792600D02*
X162828112Y-91758790D01*
X162828112Y-30241209D02*
X162792600Y-30207399D01*
X162828112Y-35758790D02*
X162865241Y-35726762D01*
X162828112Y-58241209D02*
X162792600Y-58207399D01*
X162828112Y-63758790D02*
X162865241Y-63726762D01*
X162828112Y-86241209D02*
X162792600Y-86207399D01*
X162828112Y-91758790D02*
X162865241Y-91726762D01*
X162865241Y-30273237D02*
X162828112Y-30241209D01*
X162865241Y-35726762D02*
X162903896Y-35696595D01*
X162865241Y-58273237D02*
X162828112Y-58241209D01*
X162865241Y-63726762D02*
X162903896Y-63696595D01*
X162865241Y-86273237D02*
X162828112Y-86241209D01*
X162865241Y-91726762D02*
X162903896Y-91696595D01*
X162903896Y-30303404D02*
X162865241Y-30273237D01*
X162903896Y-35696595D02*
X162943985Y-35668362D01*
X162903896Y-58303404D02*
X162865241Y-58273237D01*
X162903896Y-63696595D02*
X162943985Y-63668362D01*
X162903896Y-86303404D02*
X162865241Y-86273237D01*
X162903896Y-91696595D02*
X162943985Y-91668362D01*
X162943985Y-30331637D02*
X162903896Y-30303404D01*
X162943985Y-35668362D02*
X162985411Y-35642129D01*
X162943985Y-58331637D02*
X162903896Y-58303404D01*
X162943985Y-63668362D02*
X162985411Y-63642129D01*
X162943985Y-86331637D02*
X162903896Y-86303404D01*
X162943985Y-91668362D02*
X162985411Y-91642129D01*
X162985411Y-30357870D02*
X162943985Y-30331637D01*
X162985411Y-35642129D02*
X163028074Y-35617960D01*
X162985411Y-58357870D02*
X162943985Y-58331637D01*
X162985411Y-63642129D02*
X163028074Y-63617960D01*
X162985411Y-86357870D02*
X162943985Y-86331637D01*
X162985411Y-91642129D02*
X163028074Y-91617960D01*
X163028074Y-30382039D02*
X162985411Y-30357870D01*
X163028074Y-35617960D02*
X163071872Y-35595914D01*
X163028074Y-58382039D02*
X162985411Y-58357870D01*
X163028074Y-63617960D02*
X163071872Y-63595914D01*
X163028074Y-86382039D02*
X162985411Y-86357870D01*
X163028074Y-91617960D02*
X163071872Y-91595914D01*
X163071872Y-30404085D02*
X163028074Y-30382039D01*
X163071872Y-35595914D02*
X163116699Y-35576044D01*
X163071872Y-58404085D02*
X163028074Y-58382039D01*
X163071872Y-63595914D02*
X163116699Y-63576044D01*
X163071872Y-86404085D02*
X163028074Y-86382039D01*
X163071872Y-91595914D02*
X163116699Y-91576044D01*
X163116699Y-30423955D02*
X163071872Y-30404085D01*
X163116699Y-35576044D02*
X163162447Y-35558397D01*
X163116699Y-58423955D02*
X163071872Y-58404085D01*
X163116699Y-63576044D02*
X163162447Y-63558397D01*
X163116699Y-86423955D02*
X163071872Y-86404085D01*
X163116699Y-91576044D02*
X163162447Y-91558397D01*
X163162447Y-30441602D02*
X163116699Y-30423955D01*
X163162447Y-35558397D02*
X163209005Y-35543016D01*
X163162447Y-58441602D02*
X163116699Y-58423955D01*
X163162447Y-63558397D02*
X163209005Y-63543016D01*
X163162447Y-86441602D02*
X163116699Y-86423955D01*
X163162447Y-91558397D02*
X163209005Y-91543016D01*
X163209005Y-30456983D02*
X163162447Y-30441602D01*
X163209005Y-35543016D02*
X163256262Y-35529939D01*
X163209005Y-58456983D02*
X163162447Y-58441602D01*
X163209005Y-63543016D02*
X163256262Y-63529939D01*
X163209005Y-86456983D02*
X163162447Y-86441602D01*
X163209005Y-91543016D02*
X163256262Y-91529939D01*
X163256262Y-30470060D02*
X163209005Y-30456983D01*
X163256262Y-35529939D02*
X163304104Y-35519195D01*
X163256262Y-58470060D02*
X163209005Y-58456983D01*
X163256262Y-63529939D02*
X163304104Y-63519195D01*
X163256262Y-86470060D02*
X163209005Y-86456983D01*
X163256262Y-91529939D02*
X163304104Y-91519195D01*
X163304104Y-30480804D02*
X163256262Y-30470060D01*
X163304104Y-35519195D02*
X163352416Y-35510812D01*
X163304104Y-58480804D02*
X163256262Y-58470060D01*
X163304104Y-63519195D02*
X163352416Y-63510812D01*
X163304104Y-86480804D02*
X163256262Y-86470060D01*
X163304104Y-91519195D02*
X163352416Y-91510812D01*
X163352416Y-30489187D02*
X163304104Y-30480804D01*
X163352416Y-35510812D02*
X163401080Y-35504810D01*
X163352416Y-58489187D02*
X163304104Y-58480804D01*
X163352416Y-63510812D02*
X163401080Y-63504810D01*
X163352416Y-86489187D02*
X163304104Y-86480804D01*
X163352416Y-91510812D02*
X163401080Y-91504810D01*
X163401080Y-30495189D02*
X163352416Y-30489187D01*
X163401080Y-35504810D02*
X163449981Y-35501203D01*
X163401080Y-58495189D02*
X163352416Y-58489187D01*
X163401080Y-63504810D02*
X163449981Y-63501203D01*
X163401080Y-86495189D02*
X163352416Y-86489187D01*
X163401080Y-91504810D02*
X163449981Y-91501203D01*
X163449981Y-30498796D02*
X163401080Y-30495189D01*
X163449981Y-35501203D02*
X163499012Y-35500000D01*
X163449981Y-58498796D02*
X163401080Y-58495189D01*
X163449981Y-63501203D02*
X163499012Y-63500000D01*
X163449981Y-86498796D02*
X163401080Y-86495189D01*
X163449981Y-91501203D02*
X163499012Y-91500000D01*
X163499012Y-30500000D02*
X163449981Y-30498796D01*
X163499012Y-35500000D02*
X163500987Y-35500000D01*
X163499012Y-58500000D02*
X163449981Y-58498796D01*
X163499012Y-63500000D02*
X163500987Y-63500000D01*
X163499012Y-86500000D02*
X163449981Y-86498796D01*
X163499012Y-91500000D02*
X163500987Y-91500000D01*
X163500987Y-30500000D02*
X163499012Y-30500000D01*
X163500987Y-35500000D02*
X163550018Y-35501203D01*
X163500987Y-58500000D02*
X163499012Y-58500000D01*
X163500987Y-63500000D02*
X163550018Y-63501203D01*
X163500987Y-86500000D02*
X163499012Y-86500000D01*
X163500987Y-91500000D02*
X163550018Y-91501203D01*
X163550018Y-30498796D02*
X163500987Y-30500000D01*
X163550018Y-35501203D02*
X163598919Y-35504810D01*
X163550018Y-58498796D02*
X163500987Y-58500000D01*
X163550018Y-63501203D02*
X163598919Y-63504810D01*
X163550018Y-86498796D02*
X163500987Y-86500000D01*
X163550018Y-91501203D02*
X163598919Y-91504810D01*
X163598919Y-30495189D02*
X163550018Y-30498796D01*
X163598919Y-35504810D02*
X163647583Y-35510812D01*
X163598919Y-58495189D02*
X163550018Y-58498796D01*
X163598919Y-63504810D02*
X163647583Y-63510812D01*
X163598919Y-86495189D02*
X163550018Y-86498796D01*
X163598919Y-91504810D02*
X163647583Y-91510812D01*
X163647583Y-30489187D02*
X163598919Y-30495189D01*
X163647583Y-35510812D02*
X163695895Y-35519195D01*
X163647583Y-58489187D02*
X163598919Y-58495189D01*
X163647583Y-63510812D02*
X163695895Y-63519195D01*
X163647583Y-86489187D02*
X163598919Y-86495189D01*
X163647583Y-91510812D02*
X163695895Y-91519195D01*
X163695895Y-30480804D02*
X163647583Y-30489187D01*
X163695895Y-35519195D02*
X163743737Y-35529939D01*
X163695895Y-58480804D02*
X163647583Y-58489187D01*
X163695895Y-63519195D02*
X163743737Y-63529939D01*
X163695895Y-86480804D02*
X163647583Y-86489187D01*
X163695895Y-91519195D02*
X163743737Y-91529939D01*
X163743737Y-30470060D02*
X163695895Y-30480804D01*
X163743737Y-35529939D02*
X163790994Y-35543016D01*
X163743737Y-58470060D02*
X163695895Y-58480804D01*
X163743737Y-63529939D02*
X163790994Y-63543016D01*
X163743737Y-86470060D02*
X163695895Y-86480804D01*
X163743737Y-91529939D02*
X163790994Y-91543016D01*
X163790994Y-30456983D02*
X163743737Y-30470060D01*
X163790994Y-35543016D02*
X163837552Y-35558397D01*
X163790994Y-58456983D02*
X163743737Y-58470060D01*
X163790994Y-63543016D02*
X163837552Y-63558397D01*
X163790994Y-86456983D02*
X163743737Y-86470060D01*
X163790994Y-91543016D02*
X163837552Y-91558397D01*
X163837552Y-30441602D02*
X163790994Y-30456983D01*
X163837552Y-35558397D02*
X163883300Y-35576044D01*
X163837552Y-58441602D02*
X163790994Y-58456983D01*
X163837552Y-63558397D02*
X163883300Y-63576044D01*
X163837552Y-86441602D02*
X163790994Y-86456983D01*
X163837552Y-91558397D02*
X163883300Y-91576044D01*
X163883300Y-30423955D02*
X163837552Y-30441602D01*
X163883300Y-35576044D02*
X163928127Y-35595914D01*
X163883300Y-58423955D02*
X163837552Y-58441602D01*
X163883300Y-63576044D02*
X163928127Y-63595914D01*
X163883300Y-86423955D02*
X163837552Y-86441602D01*
X163883300Y-91576044D02*
X163928127Y-91595914D01*
X163928127Y-30404085D02*
X163883300Y-30423955D01*
X163928127Y-35595914D02*
X163971925Y-35617960D01*
X163928127Y-58404085D02*
X163883300Y-58423955D01*
X163928127Y-63595914D02*
X163971925Y-63617960D01*
X163928127Y-86404085D02*
X163883300Y-86423955D01*
X163928127Y-91595914D02*
X163971925Y-91617960D01*
X163971925Y-30382039D02*
X163928127Y-30404085D01*
X163971925Y-35617960D02*
X164014588Y-35642129D01*
X163971925Y-58382039D02*
X163928127Y-58404085D01*
X163971925Y-63617960D02*
X164014588Y-63642129D01*
X163971925Y-86382039D02*
X163928127Y-86404085D01*
X163971925Y-91617960D02*
X164014588Y-91642129D01*
X164014588Y-30357870D02*
X163971925Y-30382039D01*
X164014588Y-35642129D02*
X164056014Y-35668362D01*
X164014588Y-58357870D02*
X163971925Y-58382039D01*
X164014588Y-63642129D02*
X164056014Y-63668362D01*
X164014588Y-86357870D02*
X163971925Y-86382039D01*
X164014588Y-91642129D02*
X164056014Y-91668362D01*
X164056014Y-30331637D02*
X164014588Y-30357870D01*
X164056014Y-35668362D02*
X164096103Y-35696595D01*
X164056014Y-58331637D02*
X164014588Y-58357870D01*
X164056014Y-63668362D02*
X164096103Y-63696595D01*
X164056014Y-86331637D02*
X164014588Y-86357870D01*
X164056014Y-91668362D02*
X164096103Y-91696595D01*
X164096103Y-30303404D02*
X164056014Y-30331637D01*
X164096103Y-35696595D02*
X164134758Y-35726762D01*
X164096103Y-58303404D02*
X164056014Y-58331637D01*
X164096103Y-63696595D02*
X164134758Y-63726762D01*
X164096103Y-86303404D02*
X164056014Y-86331637D01*
X164096103Y-91696595D02*
X164134758Y-91726762D01*
X164134758Y-30273237D02*
X164096103Y-30303404D01*
X164134758Y-35726762D02*
X164171887Y-35758790D01*
X164134758Y-58273237D02*
X164096103Y-58303404D01*
X164134758Y-63726762D02*
X164171887Y-63758790D01*
X164134758Y-86273237D02*
X164096103Y-86303404D01*
X164134758Y-91726762D02*
X164171887Y-91758790D01*
X164171887Y-30241209D02*
X164134758Y-30273237D01*
X164171887Y-35758790D02*
X164207399Y-35792600D01*
X164171887Y-58241209D02*
X164134758Y-58273237D01*
X164171887Y-63758790D02*
X164207399Y-63792600D01*
X164171887Y-86241209D02*
X164134758Y-86273237D01*
X164171887Y-91758790D02*
X164207399Y-91792600D01*
X164207399Y-30207399D02*
X164171887Y-30241209D01*
X164207399Y-35792600D02*
X164241209Y-35828112D01*
X164207399Y-58207399D02*
X164171887Y-58241209D01*
X164207399Y-63792600D02*
X164241209Y-63828112D01*
X164207399Y-86207399D02*
X164171887Y-86241209D01*
X164207399Y-91792600D02*
X164241209Y-91828112D01*
X164241209Y-30171887D02*
X164207399Y-30207399D01*
X164241209Y-35828112D02*
X164273237Y-35865241D01*
X164241209Y-58171887D02*
X164207399Y-58207399D01*
X164241209Y-63828112D02*
X164273237Y-63865241D01*
X164241209Y-86171887D02*
X164207399Y-86207399D01*
X164241209Y-91828112D02*
X164273237Y-91865241D01*
X164273237Y-30134758D02*
X164241209Y-30171887D01*
X164273237Y-35865241D02*
X164303404Y-35903896D01*
X164273237Y-58134758D02*
X164241209Y-58171887D01*
X164273237Y-63865241D02*
X164303404Y-63903896D01*
X164273237Y-86134758D02*
X164241209Y-86171887D01*
X164273237Y-91865241D02*
X164303404Y-91903896D01*
X164303404Y-30096103D02*
X164273237Y-30134758D01*
X164303404Y-35903896D02*
X164331637Y-35943985D01*
X164303404Y-58096103D02*
X164273237Y-58134758D01*
X164303404Y-63903896D02*
X164331637Y-63943985D01*
X164303404Y-86096103D02*
X164273237Y-86134758D01*
X164303404Y-91903896D02*
X164331637Y-91943985D01*
X164331637Y-30056014D02*
X164303404Y-30096103D01*
X164331637Y-35943985D02*
X164357870Y-35985411D01*
X164331637Y-58056014D02*
X164303404Y-58096103D01*
X164331637Y-63943985D02*
X164357870Y-63985411D01*
X164331637Y-86056014D02*
X164303404Y-86096103D01*
X164331637Y-91943985D02*
X164357870Y-91985411D01*
X164357870Y-30014588D02*
X164331637Y-30056014D01*
X164357870Y-35985411D02*
X164382039Y-36028074D01*
X164357870Y-58014588D02*
X164331637Y-58056014D01*
X164357870Y-63985411D02*
X164382039Y-64028074D01*
X164357870Y-86014588D02*
X164331637Y-86056014D01*
X164357870Y-91985411D02*
X164382039Y-92028074D01*
X164382039Y-29971925D02*
X164357870Y-30014588D01*
X164382039Y-36028074D02*
X164404085Y-36071872D01*
X164382039Y-57971925D02*
X164357870Y-58014588D01*
X164382039Y-64028074D02*
X164404085Y-64071872D01*
X164382039Y-85971925D02*
X164357870Y-86014588D01*
X164382039Y-92028074D02*
X164404085Y-92071872D01*
X164404085Y-29928127D02*
X164382039Y-29971925D01*
X164404085Y-36071872D02*
X164423955Y-36116699D01*
X164404085Y-57928127D02*
X164382039Y-57971925D01*
X164404085Y-64071872D02*
X164423955Y-64116699D01*
X164404085Y-85928127D02*
X164382039Y-85971925D01*
X164404085Y-92071872D02*
X164423955Y-92116699D01*
X164423955Y-29883300D02*
X164404085Y-29928127D01*
X164423955Y-36116699D02*
X164441602Y-36162447D01*
X164423955Y-57883300D02*
X164404085Y-57928127D01*
X164423955Y-64116699D02*
X164441602Y-64162447D01*
X164423955Y-85883300D02*
X164404085Y-85928127D01*
X164423955Y-92116699D02*
X164441602Y-92162447D01*
X164441602Y-29837552D02*
X164423955Y-29883300D01*
X164441602Y-36162447D02*
X164456983Y-36209005D01*
X164441602Y-57837552D02*
X164423955Y-57883300D01*
X164441602Y-64162447D02*
X164456983Y-64209005D01*
X164441602Y-85837552D02*
X164423955Y-85883300D01*
X164441602Y-92162447D02*
X164456983Y-92209005D01*
X164456983Y-29790994D02*
X164441602Y-29837552D01*
X164456983Y-36209005D02*
X164470060Y-36256262D01*
X164456983Y-57790994D02*
X164441602Y-57837552D01*
X164456983Y-64209005D02*
X164470060Y-64256262D01*
X164456983Y-85790994D02*
X164441602Y-85837552D01*
X164456983Y-92209005D02*
X164470060Y-92256262D01*
X164470060Y-29743737D02*
X164456983Y-29790994D01*
X164470060Y-36256262D02*
X164480804Y-36304104D01*
X164470060Y-57743737D02*
X164456983Y-57790994D01*
X164470060Y-64256262D02*
X164480804Y-64304104D01*
X164470060Y-85743737D02*
X164456983Y-85790994D01*
X164470060Y-92256262D02*
X164480804Y-92304104D01*
X164480804Y-29695895D02*
X164470060Y-29743737D01*
X164480804Y-36304104D02*
X164489187Y-36352416D01*
X164480804Y-57695895D02*
X164470060Y-57743737D01*
X164480804Y-64304104D02*
X164489187Y-64352416D01*
X164480804Y-85695895D02*
X164470060Y-85743737D01*
X164480804Y-92304104D02*
X164489187Y-92352416D01*
X164489187Y-29647583D02*
X164480804Y-29695895D01*
X164489187Y-36352416D02*
X164495189Y-36401080D01*
X164489187Y-57647583D02*
X164480804Y-57695895D01*
X164489187Y-64352416D02*
X164495189Y-64401080D01*
X164489187Y-85647583D02*
X164480804Y-85695895D01*
X164489187Y-92352416D02*
X164495189Y-92401080D01*
X164495189Y-29598919D02*
X164489187Y-29647583D01*
X164495189Y-36401080D02*
X164498796Y-36449981D01*
X164495189Y-57598919D02*
X164489187Y-57647583D01*
X164495189Y-64401080D02*
X164498796Y-64449981D01*
X164495189Y-85598919D02*
X164489187Y-85647583D01*
X164495189Y-92401080D02*
X164498796Y-92449981D01*
X164498796Y-29550018D02*
X164495189Y-29598919D01*
X164498796Y-36449981D02*
X164500000Y-36499012D01*
X164498796Y-57550018D02*
X164495189Y-57598919D01*
X164498796Y-64449981D02*
X164500000Y-64499012D01*
X164498796Y-85550018D02*
X164495189Y-85598919D01*
X164498796Y-92449981D02*
X164500000Y-92499012D01*
X164500000Y-22006333D02*
X164500000Y-29500987D01*
X164500000Y-29500987D02*
X164498796Y-29550018D01*
X164500000Y-36499012D02*
X164500000Y-43993666D01*
X164500000Y-43993678D02*
X164500160Y-44006319D01*
X164500000Y-50006333D02*
X164500000Y-57500987D01*
X164500000Y-57500987D02*
X164498796Y-57550018D01*
X164500000Y-64499012D02*
X164500000Y-71993666D01*
X164500000Y-71993678D02*
X164500160Y-72006319D01*
X164500000Y-78006333D02*
X164500000Y-85500987D01*
X164500000Y-85500987D02*
X164498796Y-85550018D01*
X164500000Y-92499012D02*
X164500000Y-99993666D01*
X164500000Y-99993678D02*
X164500160Y-100006319D01*
X164500160Y-21993680D02*
X164500000Y-22006321D01*
X164500160Y-44006331D02*
X164502246Y-44088634D01*
X164500160Y-49993680D02*
X164500000Y-50006321D01*
X164500160Y-72006331D02*
X164502246Y-72088634D01*
X164500160Y-77993680D02*
X164500000Y-78006321D01*
X164500160Y-100006331D02*
X164502246Y-100088634D01*
X164502246Y-21911365D02*
X164500160Y-21993668D01*
X164502247Y-44088659D02*
X164503527Y-44113904D01*
X164502246Y-49911365D02*
X164500160Y-49993668D01*
X164502247Y-72088659D02*
X164503527Y-72113904D01*
X164502246Y-77911365D02*
X164500160Y-77993668D01*
X164502247Y-100088659D02*
X164503527Y-100113904D01*
X164503527Y-21886095D02*
X164502247Y-21911340D01*
X164503528Y-44113930D02*
X164509299Y-44189704D01*
X164503527Y-49886095D02*
X164502247Y-49911340D01*
X164503528Y-72113930D02*
X164509299Y-72189704D01*
X164503527Y-77886095D02*
X164502247Y-77911340D01*
X164503528Y-100113930D02*
X164509299Y-100189704D01*
X164509299Y-21810295D02*
X164503528Y-21886069D01*
X164509301Y-44189730D02*
X164511858Y-44214878D01*
X164509299Y-49810295D02*
X164503528Y-49886069D01*
X164509301Y-72189730D02*
X164511858Y-72214878D01*
X164509299Y-77810295D02*
X164503528Y-77886069D01*
X164509301Y-100189730D02*
X164511858Y-100214878D01*
X164511858Y-21785121D02*
X164509301Y-21810269D01*
X164511858Y-49785121D02*
X164509301Y-49810269D01*
X164511858Y-77785121D02*
X164509301Y-77810269D01*
X164511861Y-44214903D02*
X164521462Y-44290288D01*
X164511861Y-72214903D02*
X164521462Y-72290288D01*
X164511861Y-100214903D02*
X164521462Y-100290288D01*
X164521462Y-21709711D02*
X164511861Y-21785096D01*
X164521462Y-49709711D02*
X164511861Y-49785096D01*
X164521462Y-77709711D02*
X164511861Y-77785096D01*
X164521466Y-44290313D02*
X164525294Y-44315300D01*
X164521466Y-72290313D02*
X164525294Y-72315300D01*
X164521466Y-100290313D02*
X164525294Y-100315300D01*
X164525294Y-21684699D02*
X164521466Y-21709686D01*
X164525294Y-49684699D02*
X164521466Y-49709686D01*
X164525294Y-77684699D02*
X164521466Y-77709686D01*
X164525298Y-44315325D02*
X164538705Y-44390127D01*
X164525298Y-72315325D02*
X164538705Y-72390127D01*
X164525298Y-100315325D02*
X164538705Y-100390127D01*
X164538705Y-21609872D02*
X164525298Y-21684674D01*
X164538705Y-49609872D02*
X164525298Y-49684674D01*
X164538705Y-77609872D02*
X164525298Y-77684674D01*
X164538709Y-44390152D02*
X164543798Y-44414912D01*
X164538709Y-72390152D02*
X164543798Y-72414912D01*
X164538709Y-100390152D02*
X164543798Y-100414912D01*
X164543798Y-21585087D02*
X164538709Y-21609847D01*
X164543798Y-49585087D02*
X164538709Y-49609847D01*
X164543798Y-77585087D02*
X164538709Y-77609847D01*
X164543803Y-44414937D02*
X164560982Y-44488964D01*
X164543803Y-72414937D02*
X164560982Y-72488964D01*
X164543803Y-100414937D02*
X164560982Y-100488964D01*
X164560982Y-21511035D02*
X164543803Y-21585062D01*
X164560982Y-49511035D02*
X164543803Y-49585062D01*
X164560982Y-77511035D02*
X164543803Y-77585062D01*
X164560988Y-44488989D02*
X164567324Y-44513460D01*
X164560988Y-72488989D02*
X164567324Y-72513460D01*
X164560988Y-100488989D02*
X164567324Y-100513460D01*
X164567324Y-21486539D02*
X164560988Y-21511010D01*
X164567324Y-49486539D02*
X164560988Y-49511010D01*
X164567324Y-77486539D02*
X164560988Y-77511010D01*
X164567330Y-44513484D02*
X164588236Y-44586546D01*
X164567330Y-72513484D02*
X164588236Y-72586546D01*
X164567330Y-100513484D02*
X164588236Y-100586546D01*
X164588236Y-21413453D02*
X164567330Y-21486515D01*
X164588236Y-49413453D02*
X164567330Y-49486515D01*
X164588236Y-77413453D02*
X164567330Y-77486515D01*
X164588243Y-44586570D02*
X164595811Y-44610689D01*
X164588243Y-72586570D02*
X164595811Y-72610689D01*
X164588243Y-100586570D02*
X164595811Y-100610689D01*
X164595811Y-21389310D02*
X164588243Y-21413429D01*
X164595811Y-49389310D02*
X164588243Y-49413429D01*
X164595811Y-77389310D02*
X164588243Y-77413429D01*
X164595818Y-44610713D02*
X164620398Y-44682623D01*
X164595818Y-72610713D02*
X164620398Y-72682623D01*
X164595818Y-100610713D02*
X164620398Y-100682623D01*
X164620398Y-21317376D02*
X164595818Y-21389286D01*
X164620398Y-49317376D02*
X164595818Y-49389286D01*
X164620398Y-77317376D02*
X164595818Y-77389286D01*
X164620406Y-44682646D02*
X164629185Y-44706351D01*
X164620406Y-72682646D02*
X164629185Y-72706351D01*
X164620406Y-100682646D02*
X164629185Y-100706351D01*
X164629185Y-21293648D02*
X164620406Y-21317353D01*
X164629185Y-49293648D02*
X164620406Y-49317353D01*
X164629185Y-77293648D02*
X164620406Y-77317353D01*
X164629195Y-44706375D02*
X164657385Y-44776947D01*
X164629195Y-72706375D02*
X164657385Y-72776947D01*
X164629195Y-100706375D02*
X164657385Y-100776947D01*
X164657385Y-21223052D02*
X164629195Y-21293624D01*
X164657385Y-49223052D02*
X164629195Y-49293624D01*
X164657385Y-77223052D02*
X164629195Y-77293624D01*
X164657394Y-44776970D02*
X164667363Y-44800199D01*
X164657394Y-72776970D02*
X164667363Y-72800199D01*
X164657394Y-100776970D02*
X164667363Y-100800199D01*
X164667363Y-21199800D02*
X164657394Y-21223029D01*
X164667363Y-49199800D02*
X164657394Y-49223029D01*
X164667363Y-77199800D02*
X164657394Y-77223029D01*
X164667373Y-44800223D02*
X164699101Y-44869276D01*
X164667373Y-72800223D02*
X164699101Y-72869276D01*
X164667373Y-100800223D02*
X164699101Y-100869276D01*
X164699101Y-21130723D02*
X164667373Y-21199776D01*
X164699101Y-49130723D02*
X164667373Y-49199776D01*
X164699101Y-77130723D02*
X164667373Y-77199776D01*
X164699112Y-44869299D02*
X164710244Y-44891994D01*
X164699112Y-72869299D02*
X164710244Y-72891994D01*
X164699112Y-100869299D02*
X164710244Y-100891994D01*
X164710244Y-21108005D02*
X164699112Y-21130700D01*
X164710244Y-49108005D02*
X164699112Y-49130700D01*
X164710244Y-77108005D02*
X164699112Y-77130700D01*
X164710256Y-44892017D02*
X164745441Y-44959375D01*
X164710256Y-72892017D02*
X164745441Y-72959375D01*
X164710256Y-100892017D02*
X164745441Y-100959375D01*
X164745441Y-21040624D02*
X164710256Y-21107982D01*
X164745441Y-49040624D02*
X164710256Y-49107982D01*
X164745441Y-77040624D02*
X164710256Y-77107982D01*
X164745453Y-44959397D02*
X164757720Y-44981499D01*
X164745453Y-72959397D02*
X164757720Y-72981499D01*
X164745453Y-100959397D02*
X164757720Y-100981499D01*
X164757720Y-21018500D02*
X164745453Y-21040602D01*
X164757720Y-49018500D02*
X164745453Y-49040602D01*
X164757720Y-77018500D02*
X164745453Y-77040602D01*
X164757733Y-44981521D02*
X164796284Y-45047010D01*
X164757733Y-72981521D02*
X164796284Y-73047010D01*
X164757733Y-100981521D02*
X164796284Y-101047010D01*
X164796284Y-20952989D02*
X164757733Y-21018478D01*
X164796284Y-48952989D02*
X164757733Y-49018478D01*
X164796284Y-76952989D02*
X164757733Y-77018478D01*
X164796297Y-45047032D02*
X164809669Y-45068484D01*
X164796297Y-73047032D02*
X164809669Y-73068484D01*
X164796297Y-101047032D02*
X164809669Y-101068484D01*
X164809669Y-20931515D02*
X164796297Y-20952967D01*
X164809669Y-48931515D02*
X164796297Y-48952967D01*
X164809669Y-76931515D02*
X164796297Y-76952967D01*
X164809682Y-45068505D02*
X164851501Y-45131958D01*
X164809682Y-73068505D02*
X164851501Y-73131958D01*
X164809682Y-101068505D02*
X164851501Y-101131958D01*
X164851501Y-20868041D02*
X164809682Y-20931494D01*
X164851501Y-48868041D02*
X164809682Y-48931494D01*
X164851501Y-76868041D02*
X164809682Y-76931494D01*
X164851516Y-45131979D02*
X164865956Y-45152726D01*
X164851516Y-73131979D02*
X164865956Y-73152726D01*
X164851516Y-101131979D02*
X164865956Y-101152726D01*
X164865956Y-20847273D02*
X164851516Y-20868020D01*
X164865956Y-48847273D02*
X164851516Y-48868020D01*
X164865956Y-76847273D02*
X164851516Y-76868020D01*
X164865971Y-45152747D02*
X164910950Y-45214000D01*
X164865971Y-73152747D02*
X164910950Y-73214000D01*
X164865971Y-101152747D02*
X164910950Y-101214000D01*
X164910950Y-20785999D02*
X164865971Y-20847252D01*
X164910950Y-48785999D02*
X164865971Y-48847252D01*
X164910950Y-76785999D02*
X164865971Y-76847252D01*
X164910965Y-45214021D02*
X164926438Y-45234010D01*
X164910965Y-73214021D02*
X164926438Y-73234010D01*
X164910965Y-101214021D02*
X164926438Y-101234010D01*
X164926438Y-20765989D02*
X164910965Y-20785978D01*
X164926438Y-48765989D02*
X164910965Y-48785978D01*
X164926438Y-76765989D02*
X164910965Y-76785978D01*
X164926454Y-45234030D02*
X164974478Y-45292926D01*
X164926454Y-73234030D02*
X164974478Y-73292926D01*
X164926454Y-101234030D02*
X164974478Y-101292926D01*
X164974478Y-20707073D02*
X164926454Y-20765969D01*
X164974478Y-48707073D02*
X164926454Y-48765969D01*
X164974478Y-76707073D02*
X164926454Y-76765969D01*
X164974494Y-45292946D02*
X164990959Y-45312126D01*
X164974494Y-73292946D02*
X164990959Y-73312126D01*
X164974494Y-101292946D02*
X164990959Y-101312126D01*
X164990959Y-20687873D02*
X164974494Y-20707053D01*
X164990959Y-48687873D02*
X164974494Y-48707053D01*
X164990959Y-76687873D02*
X164974494Y-76707053D01*
X164990976Y-45312145D02*
X165041921Y-45368533D01*
X164990976Y-73312145D02*
X165041921Y-73368533D01*
X164990976Y-101312145D02*
X165041921Y-101368533D01*
X165041921Y-20631466D02*
X164990976Y-20687854D01*
X165041921Y-48631466D02*
X164990976Y-48687854D01*
X165041921Y-76631466D02*
X164990976Y-76687854D01*
X165041938Y-45368552D02*
X165059354Y-45386873D01*
X165041938Y-73368552D02*
X165059354Y-73386873D01*
X165041938Y-101368552D02*
X165059354Y-101386873D01*
X165059354Y-20613126D02*
X165041938Y-20631447D01*
X165059354Y-48613126D02*
X165041938Y-48631447D01*
X165059354Y-76613126D02*
X165041938Y-76631447D01*
X165059372Y-45386891D02*
X165113108Y-45440627D01*
X165059372Y-73386891D02*
X165113108Y-73440627D01*
X165059372Y-101386891D02*
X165113108Y-101440627D01*
X165113108Y-20559372D02*
X165059372Y-20613108D01*
X165113108Y-48559372D02*
X165059372Y-48613108D01*
X165113108Y-76559372D02*
X165059372Y-76613108D01*
X165113126Y-45440645D02*
X165131447Y-45458061D01*
X165113126Y-73440645D02*
X165131447Y-73458061D01*
X165113126Y-101440645D02*
X165131447Y-101458061D01*
X165131447Y-20541938D02*
X165113126Y-20559354D01*
X165131447Y-48541938D02*
X165113126Y-48559354D01*
X165131447Y-76541938D02*
X165113126Y-76559354D01*
X165131466Y-45458078D02*
X165187854Y-45509023D01*
X165131466Y-73458078D02*
X165187854Y-73509023D01*
X165131466Y-101458078D02*
X165187854Y-101509023D01*
X165187854Y-20490976D02*
X165131466Y-20541921D01*
X165187854Y-48490976D02*
X165131466Y-48541921D01*
X165187854Y-76490976D02*
X165131466Y-76541921D01*
X165187873Y-45509040D02*
X165207053Y-45525505D01*
X165187873Y-73509040D02*
X165207053Y-73525505D01*
X165187873Y-101509040D02*
X165207053Y-101525505D01*
X165207053Y-20474494D02*
X165187873Y-20490959D01*
X165207053Y-48474494D02*
X165187873Y-48490959D01*
X165207053Y-76474494D02*
X165187873Y-76490959D01*
X165207073Y-45525521D02*
X165265969Y-45573545D01*
X165207073Y-73525521D02*
X165265969Y-73573545D01*
X165207073Y-101525521D02*
X165265969Y-101573545D01*
X165265969Y-20426454D02*
X165207073Y-20474478D01*
X165265969Y-48426454D02*
X165207073Y-48474478D01*
X165265969Y-76426454D02*
X165207073Y-76474478D01*
X165265989Y-45573561D02*
X165285978Y-45589034D01*
X165265989Y-73573561D02*
X165285978Y-73589034D01*
X165265989Y-101573561D02*
X165285978Y-101589034D01*
X165285978Y-20410965D02*
X165265989Y-20426438D01*
X165285978Y-48410965D02*
X165265989Y-48426438D01*
X165285978Y-76410965D02*
X165265989Y-76426438D01*
X165285999Y-45589049D02*
X165347252Y-45634028D01*
X165285999Y-73589049D02*
X165347252Y-73634028D01*
X165285999Y-101589049D02*
X165347252Y-101634028D01*
X165347252Y-20365971D02*
X165285999Y-20410950D01*
X165347252Y-48365971D02*
X165285999Y-48410950D01*
X165347252Y-76365971D02*
X165285999Y-76410950D01*
X165347273Y-45634043D02*
X165368020Y-45648483D01*
X165347273Y-73634043D02*
X165368020Y-73648483D01*
X165347273Y-101634043D02*
X165368020Y-101648483D01*
X165368020Y-20351516D02*
X165347273Y-20365956D01*
X165368020Y-48351516D02*
X165347273Y-48365956D01*
X165368020Y-76351516D02*
X165347273Y-76365956D01*
X165368041Y-45648498D02*
X165431494Y-45690317D01*
X165368041Y-73648498D02*
X165431494Y-73690317D01*
X165368041Y-101648498D02*
X165431494Y-101690317D01*
X165431494Y-20309682D02*
X165368041Y-20351501D01*
X165431494Y-48309682D02*
X165368041Y-48351501D01*
X165431494Y-76309682D02*
X165368041Y-76351501D01*
X165431515Y-45690330D02*
X165452967Y-45703702D01*
X165431515Y-73690330D02*
X165452967Y-73703702D01*
X165431515Y-101690330D02*
X165452967Y-101703702D01*
X165452967Y-20296297D02*
X165431515Y-20309669D01*
X165452967Y-48296297D02*
X165431515Y-48309669D01*
X165452967Y-76296297D02*
X165431515Y-76309669D01*
X165452989Y-45703715D02*
X165518478Y-45742266D01*
X165452989Y-73703715D02*
X165518478Y-73742266D01*
X165452989Y-101703715D02*
X165518478Y-101742266D01*
X165518478Y-20257733D02*
X165452989Y-20296284D01*
X165518478Y-48257733D02*
X165452989Y-48296284D01*
X165518478Y-76257733D02*
X165452989Y-76296284D01*
X165518500Y-45742279D02*
X165540602Y-45754546D01*
X165518500Y-73742279D02*
X165540602Y-73754546D01*
X165518500Y-101742279D02*
X165540602Y-101754546D01*
X165540602Y-20245453D02*
X165518500Y-20257720D01*
X165540602Y-48245453D02*
X165518500Y-48257720D01*
X165540602Y-76245453D02*
X165518500Y-76257720D01*
X165540624Y-45754558D02*
X165607982Y-45789743D01*
X165540624Y-73754558D02*
X165607982Y-73789743D01*
X165540624Y-101754558D02*
X165607982Y-101789743D01*
X165607982Y-20210256D02*
X165540624Y-20245441D01*
X165607982Y-48210256D02*
X165540624Y-48245441D01*
X165607982Y-76210256D02*
X165540624Y-76245441D01*
X165608005Y-45789755D02*
X165630700Y-45800887D01*
X165608005Y-73789755D02*
X165630700Y-73800887D01*
X165608005Y-101789755D02*
X165630700Y-101800887D01*
X165630700Y-20199112D02*
X165608005Y-20210244D01*
X165630700Y-48199112D02*
X165608005Y-48210244D01*
X165630700Y-76199112D02*
X165608005Y-76210244D01*
X165630723Y-45800898D02*
X165699776Y-45832626D01*
X165630723Y-73800898D02*
X165699776Y-73832626D01*
X165630723Y-101800898D02*
X165699776Y-101832626D01*
X165699776Y-20167373D02*
X165630723Y-20199101D01*
X165699776Y-48167373D02*
X165630723Y-48199101D01*
X165699776Y-76167373D02*
X165630723Y-76199101D01*
X165699800Y-45832636D02*
X165723029Y-45842605D01*
X165699800Y-73832636D02*
X165723029Y-73842605D01*
X165699800Y-101832636D02*
X165723029Y-101842605D01*
X165723029Y-20157394D02*
X165699800Y-20167363D01*
X165723029Y-48157394D02*
X165699800Y-48167363D01*
X165723029Y-76157394D02*
X165699800Y-76167363D01*
X165723052Y-45842614D02*
X165793624Y-45870804D01*
X165723052Y-73842614D02*
X165793624Y-73870804D01*
X165723052Y-101842614D02*
X165793624Y-101870804D01*
X165793624Y-20129195D02*
X165723052Y-20157385D01*
X165793624Y-48129195D02*
X165723052Y-48157385D01*
X165793624Y-76129195D02*
X165723052Y-76157385D01*
X165793648Y-45870814D02*
X165817353Y-45879593D01*
X165793648Y-73870814D02*
X165817353Y-73879593D01*
X165793648Y-101870814D02*
X165817353Y-101879593D01*
X165817353Y-20120406D02*
X165793648Y-20129185D01*
X165817353Y-48120406D02*
X165793648Y-48129185D01*
X165817353Y-76120406D02*
X165793648Y-76129185D01*
X165817376Y-45879601D02*
X165889286Y-45904181D01*
X165817376Y-73879601D02*
X165889286Y-73904181D01*
X165817376Y-101879601D02*
X165889286Y-101904181D01*
X165889286Y-20095818D02*
X165817376Y-20120398D01*
X165889286Y-48095818D02*
X165817376Y-48120398D01*
X165889286Y-76095818D02*
X165817376Y-76120398D01*
X165889310Y-45904188D02*
X165913429Y-45911756D01*
X165889310Y-73904188D02*
X165913429Y-73911756D01*
X165889310Y-101904188D02*
X165913429Y-101911756D01*
X165913429Y-20088243D02*
X165889310Y-20095811D01*
X165913429Y-48088243D02*
X165889310Y-48095811D01*
X165913429Y-76088243D02*
X165889310Y-76095811D01*
X165913453Y-45911763D02*
X165986515Y-45932669D01*
X165913453Y-73911763D02*
X165986515Y-73932669D01*
X165913453Y-101911763D02*
X165986515Y-101932669D01*
X165986515Y-20067330D02*
X165913453Y-20088236D01*
X165986515Y-48067330D02*
X165913453Y-48088236D01*
X165986515Y-76067330D02*
X165913453Y-76088236D01*
X165986539Y-45932675D02*
X166011010Y-45939011D01*
X165986539Y-73932675D02*
X166011010Y-73939011D01*
X165986539Y-101932675D02*
X166011010Y-101939011D01*
X166011010Y-20060988D02*
X165986539Y-20067324D01*
X166011010Y-48060988D02*
X165986539Y-48067324D01*
X166011010Y-76060988D02*
X165986539Y-76067324D01*
X166011035Y-45939017D02*
X166085062Y-45956196D01*
X166011035Y-73939017D02*
X166085062Y-73956196D01*
X166011035Y-101939017D02*
X166085062Y-101956196D01*
X166085062Y-20043803D02*
X166011035Y-20060982D01*
X166085062Y-48043803D02*
X166011035Y-48060982D01*
X166085062Y-76043803D02*
X166011035Y-76060982D01*
X166085087Y-45956201D02*
X166109847Y-45961290D01*
X166085087Y-73956201D02*
X166109847Y-73961290D01*
X166085087Y-101956201D02*
X166109847Y-101961290D01*
X166109847Y-20038709D02*
X166085087Y-20043798D01*
X166109847Y-48038709D02*
X166085087Y-48043798D01*
X166109847Y-76038709D02*
X166085087Y-76043798D01*
X166109872Y-45961294D02*
X166184674Y-45974701D01*
X166109872Y-73961294D02*
X166184674Y-73974701D01*
X166109872Y-101961294D02*
X166184674Y-101974701D01*
X166184674Y-20025298D02*
X166109872Y-20038705D01*
X166184674Y-48025298D02*
X166109872Y-48038705D01*
X166184674Y-76025298D02*
X166109872Y-76038705D01*
X166184699Y-45974705D02*
X166209686Y-45978533D01*
X166184699Y-73974705D02*
X166209686Y-73978533D01*
X166184699Y-101974705D02*
X166209686Y-101978533D01*
X166209686Y-20021466D02*
X166184699Y-20025294D01*
X166209686Y-48021466D02*
X166184699Y-48025294D01*
X166209686Y-76021466D02*
X166184699Y-76025294D01*
X166209711Y-45978537D02*
X166285096Y-45988138D01*
X166209711Y-73978537D02*
X166285096Y-73988138D01*
X166209711Y-101978537D02*
X166285096Y-101988138D01*
X166285096Y-20011861D02*
X166209711Y-20021462D01*
X166285096Y-48011861D02*
X166209711Y-48021462D01*
X166285096Y-76011861D02*
X166209711Y-76021462D01*
X166285121Y-45988141D02*
X166310269Y-45990698D01*
X166285121Y-73988141D02*
X166310269Y-73990698D01*
X166285121Y-101988141D02*
X166310269Y-101990698D01*
X166310269Y-20009301D02*
X166285121Y-20011858D01*
X166310269Y-48009301D02*
X166285121Y-48011858D01*
X166310269Y-76009301D02*
X166285121Y-76011858D01*
X166310295Y-45990700D02*
X166386069Y-45996471D01*
X166310295Y-73990700D02*
X166386069Y-73996471D01*
X166310295Y-101990700D02*
X166386069Y-101996471D01*
X166386069Y-20003528D02*
X166310295Y-20009299D01*
X166386069Y-48003528D02*
X166310295Y-48009299D01*
X166386069Y-76003528D02*
X166310295Y-76009299D01*
X166386095Y-45996472D02*
X166411340Y-45997752D01*
X166386095Y-73996472D02*
X166411340Y-73997752D01*
X166386095Y-101996472D02*
X166411340Y-101997752D01*
X166411340Y-20002247D02*
X166386095Y-20003527D01*
X166411340Y-48002247D02*
X166386095Y-48003527D01*
X166411340Y-76002247D02*
X166386095Y-76003527D01*
X166411365Y-45997753D02*
X166493668Y-45999839D01*
X166411365Y-73997753D02*
X166493668Y-73999839D01*
X166411365Y-101997753D02*
X166493668Y-101999839D01*
X166493668Y-20000160D02*
X166411365Y-20002246D01*
X166493668Y-48000160D02*
X166411365Y-48002246D01*
X166493668Y-76000160D02*
X166411365Y-76002246D01*
X166493680Y-45999839D02*
X166506321Y-45999999D01*
X166493680Y-73999839D02*
X166506321Y-73999999D01*
X166493680Y-101999839D02*
X166506321Y-101999999D01*
X166506321Y-20000000D02*
X166493680Y-20000160D01*
X166506321Y-48000000D02*
X166493680Y-48000160D01*
X166506321Y-76000000D02*
X166493680Y-76000160D01*
X166506333Y-46000000D02*
X175000987Y-46000000D01*
X166506333Y-74000000D02*
X175000987Y-74000000D01*
X166506333Y-102000000D02*
X190493666Y-102000000D01*
X175000987Y-46000000D02*
X175050018Y-46001203D01*
X175000987Y-48000000D02*
X166506333Y-48000000D01*
X175000987Y-74000000D02*
X175050018Y-74001203D01*
X175000987Y-76000000D02*
X166506333Y-76000000D01*
X175050018Y-46001203D02*
X175098919Y-46004810D01*
X175050018Y-47998796D02*
X175000987Y-48000000D01*
X175050018Y-74001203D02*
X175098919Y-74004810D01*
X175050018Y-75998796D02*
X175000987Y-76000000D01*
X175098919Y-46004810D02*
X175147583Y-46010812D01*
X175098919Y-47995189D02*
X175050018Y-47998796D01*
X175098919Y-74004810D02*
X175147583Y-74010812D01*
X175098919Y-75995189D02*
X175050018Y-75998796D01*
X175147583Y-46010812D02*
X175195895Y-46019195D01*
X175147583Y-47989187D02*
X175098919Y-47995189D01*
X175147583Y-74010812D02*
X175195895Y-74019195D01*
X175147583Y-75989187D02*
X175098919Y-75995189D01*
X175195895Y-46019195D02*
X175243737Y-46029939D01*
X175195895Y-47980804D02*
X175147583Y-47989187D01*
X175195895Y-74019195D02*
X175243737Y-74029939D01*
X175195895Y-75980804D02*
X175147583Y-75989187D01*
X175243737Y-46029939D02*
X175290994Y-46043016D01*
X175243737Y-47970060D02*
X175195895Y-47980804D01*
X175243737Y-74029939D02*
X175290994Y-74043016D01*
X175243737Y-75970060D02*
X175195895Y-75980804D01*
X175290994Y-46043016D02*
X175337552Y-46058397D01*
X175290994Y-47956983D02*
X175243737Y-47970060D01*
X175290994Y-74043016D02*
X175337552Y-74058397D01*
X175290994Y-75956983D02*
X175243737Y-75970060D01*
X175337552Y-46058397D02*
X175383300Y-46076044D01*
X175337552Y-47941602D02*
X175290994Y-47956983D01*
X175337552Y-74058397D02*
X175383300Y-74076044D01*
X175337552Y-75941602D02*
X175290994Y-75956983D01*
X175383300Y-46076044D02*
X175428127Y-46095914D01*
X175383300Y-47923955D02*
X175337552Y-47941602D01*
X175383300Y-74076044D02*
X175428127Y-74095914D01*
X175383300Y-75923955D02*
X175337552Y-75941602D01*
X175428127Y-46095914D02*
X175471925Y-46117960D01*
X175428127Y-47904085D02*
X175383300Y-47923955D01*
X175428127Y-74095914D02*
X175471925Y-74117960D01*
X175428127Y-75904085D02*
X175383300Y-75923955D01*
X175471925Y-46117960D02*
X175514588Y-46142129D01*
X175471925Y-47882039D02*
X175428127Y-47904085D01*
X175471925Y-74117960D02*
X175514588Y-74142129D01*
X175471925Y-75882039D02*
X175428127Y-75904085D01*
X175514588Y-46142129D02*
X175556014Y-46168362D01*
X175514588Y-47857870D02*
X175471925Y-47882039D01*
X175514588Y-74142129D02*
X175556014Y-74168362D01*
X175514588Y-75857870D02*
X175471925Y-75882039D01*
X175556014Y-46168362D02*
X175596103Y-46196595D01*
X175556014Y-47831637D02*
X175514588Y-47857870D01*
X175556014Y-74168362D02*
X175596103Y-74196595D01*
X175556014Y-75831637D02*
X175514588Y-75857870D01*
X175596103Y-46196595D02*
X175634758Y-46226762D01*
X175596103Y-47803404D02*
X175556014Y-47831637D01*
X175596103Y-74196595D02*
X175634758Y-74226762D01*
X175596103Y-75803404D02*
X175556014Y-75831637D01*
X175634758Y-46226762D02*
X175671887Y-46258790D01*
X175634758Y-47773237D02*
X175596103Y-47803404D01*
X175634758Y-74226762D02*
X175671887Y-74258790D01*
X175634758Y-75773237D02*
X175596103Y-75803404D01*
X175671887Y-46258790D02*
X175707399Y-46292600D01*
X175671887Y-47741209D02*
X175634758Y-47773237D01*
X175671887Y-74258790D02*
X175707399Y-74292600D01*
X175671887Y-75741209D02*
X175634758Y-75773237D01*
X175707399Y-46292600D02*
X175741209Y-46328112D01*
X175707399Y-47707399D02*
X175671887Y-47741209D01*
X175707399Y-74292600D02*
X175741209Y-74328112D01*
X175707399Y-75707399D02*
X175671887Y-75741209D01*
X175741209Y-46328112D02*
X175773237Y-46365241D01*
X175741209Y-47671887D02*
X175707399Y-47707399D01*
X175741209Y-74328112D02*
X175773237Y-74365241D01*
X175741209Y-75671887D02*
X175707399Y-75707399D01*
X175773237Y-46365241D02*
X175803404Y-46403896D01*
X175773237Y-47634758D02*
X175741209Y-47671887D01*
X175773237Y-74365241D02*
X175803404Y-74403896D01*
X175773237Y-75634758D02*
X175741209Y-75671887D01*
X175803404Y-46403896D02*
X175831637Y-46443985D01*
X175803404Y-47596103D02*
X175773237Y-47634758D01*
X175803404Y-74403896D02*
X175831637Y-74443985D01*
X175803404Y-75596103D02*
X175773237Y-75634758D01*
X175831637Y-46443985D02*
X175857870Y-46485411D01*
X175831637Y-47556014D02*
X175803404Y-47596103D01*
X175831637Y-74443985D02*
X175857870Y-74485411D01*
X175831637Y-75556014D02*
X175803404Y-75596103D01*
X175857870Y-46485411D02*
X175882039Y-46528074D01*
X175857870Y-47514588D02*
X175831637Y-47556014D01*
X175857870Y-74485411D02*
X175882039Y-74528074D01*
X175857870Y-75514588D02*
X175831637Y-75556014D01*
X175882039Y-46528074D02*
X175904085Y-46571872D01*
X175882039Y-47471925D02*
X175857870Y-47514588D01*
X175882039Y-74528074D02*
X175904085Y-74571872D01*
X175882039Y-75471925D02*
X175857870Y-75514588D01*
X175904085Y-46571872D02*
X175923955Y-46616699D01*
X175904085Y-47428127D02*
X175882039Y-47471925D01*
X175904085Y-74571872D02*
X175923955Y-74616699D01*
X175904085Y-75428127D02*
X175882039Y-75471925D01*
X175923955Y-46616699D02*
X175941602Y-46662447D01*
X175923955Y-47383300D02*
X175904085Y-47428127D01*
X175923955Y-74616699D02*
X175941602Y-74662447D01*
X175923955Y-75383300D02*
X175904085Y-75428127D01*
X175941602Y-46662447D02*
X175956983Y-46709005D01*
X175941602Y-47337552D02*
X175923955Y-47383300D01*
X175941602Y-74662447D02*
X175956983Y-74709005D01*
X175941602Y-75337552D02*
X175923955Y-75383300D01*
X175956983Y-46709005D02*
X175970060Y-46756262D01*
X175956983Y-47290994D02*
X175941602Y-47337552D01*
X175956983Y-74709005D02*
X175970060Y-74756262D01*
X175956983Y-75290994D02*
X175941602Y-75337552D01*
X175970060Y-46756262D02*
X175980804Y-46804104D01*
X175970060Y-47243737D02*
X175956983Y-47290994D01*
X175970060Y-74756262D02*
X175980804Y-74804104D01*
X175970060Y-75243737D02*
X175956983Y-75290994D01*
X175980804Y-46804104D02*
X175989187Y-46852416D01*
X175980804Y-47195895D02*
X175970060Y-47243737D01*
X175980804Y-74804104D02*
X175989187Y-74852416D01*
X175980804Y-75195895D02*
X175970060Y-75243737D01*
X175989187Y-46852416D02*
X175995189Y-46901080D01*
X175989187Y-47147583D02*
X175980804Y-47195895D01*
X175989187Y-74852416D02*
X175995189Y-74901080D01*
X175989187Y-75147583D02*
X175980804Y-75195895D01*
X175995189Y-46901080D02*
X175998796Y-46949981D01*
X175995189Y-47098919D02*
X175989187Y-47147583D01*
X175995189Y-74901080D02*
X175998796Y-74949981D01*
X175995189Y-75098919D02*
X175989187Y-75147583D01*
X175998796Y-46949981D02*
X176000000Y-46999012D01*
X175998796Y-47050018D02*
X175995189Y-47098919D01*
X175998796Y-74949981D02*
X176000000Y-74999012D01*
X175998796Y-75050018D02*
X175995189Y-75098919D01*
X176000000Y-46999012D02*
X176000000Y-47000987D01*
X176000000Y-47000987D02*
X175998796Y-47050018D01*
X176000000Y-74999012D02*
X176000000Y-75000987D01*
X176000000Y-75000987D02*
X175998796Y-75050018D01*
X181000000Y-46999012D02*
X181001203Y-46949981D01*
X181000000Y-47000987D02*
X181000000Y-46999012D01*
X181000000Y-74999012D02*
X181001203Y-74949981D01*
X181000000Y-75000987D02*
X181000000Y-74999012D01*
X181001203Y-46949981D02*
X181004810Y-46901080D01*
X181001203Y-47050018D02*
X181000000Y-47000987D01*
X181001203Y-74949981D02*
X181004810Y-74901080D01*
X181001203Y-75050018D02*
X181000000Y-75000987D01*
X181004810Y-46901080D02*
X181010812Y-46852416D01*
X181004810Y-47098919D02*
X181001203Y-47050018D01*
X181004810Y-74901080D02*
X181010812Y-74852416D01*
X181004810Y-75098919D02*
X181001203Y-75050018D01*
X181010812Y-46852416D02*
X181019195Y-46804104D01*
X181010812Y-47147583D02*
X181004810Y-47098919D01*
X181010812Y-74852416D02*
X181019195Y-74804104D01*
X181010812Y-75147583D02*
X181004810Y-75098919D01*
X181019195Y-46804104D02*
X181029939Y-46756262D01*
X181019195Y-47195895D02*
X181010812Y-47147583D01*
X181019195Y-74804104D02*
X181029939Y-74756262D01*
X181019195Y-75195895D02*
X181010812Y-75147583D01*
X181029939Y-46756262D02*
X181043016Y-46709005D01*
X181029939Y-47243737D02*
X181019195Y-47195895D01*
X181029939Y-74756262D02*
X181043016Y-74709005D01*
X181029939Y-75243737D02*
X181019195Y-75195895D01*
X181043016Y-46709005D02*
X181058397Y-46662447D01*
X181043016Y-47290994D02*
X181029939Y-47243737D01*
X181043016Y-74709005D02*
X181058397Y-74662447D01*
X181043016Y-75290994D02*
X181029939Y-75243737D01*
X181058397Y-46662447D02*
X181076044Y-46616699D01*
X181058397Y-47337552D02*
X181043016Y-47290994D01*
X181058397Y-74662447D02*
X181076044Y-74616699D01*
X181058397Y-75337552D02*
X181043016Y-75290994D01*
X181076044Y-46616699D02*
X181095914Y-46571872D01*
X181076044Y-47383300D02*
X181058397Y-47337552D01*
X181076044Y-74616699D02*
X181095914Y-74571872D01*
X181076044Y-75383300D02*
X181058397Y-75337552D01*
X181095914Y-46571872D02*
X181117960Y-46528074D01*
X181095914Y-47428127D02*
X181076044Y-47383300D01*
X181095914Y-74571872D02*
X181117960Y-74528074D01*
X181095914Y-75428127D02*
X181076044Y-75383300D01*
X181117960Y-46528074D02*
X181142129Y-46485411D01*
X181117960Y-47471925D02*
X181095914Y-47428127D01*
X181117960Y-74528074D02*
X181142129Y-74485411D01*
X181117960Y-75471925D02*
X181095914Y-75428127D01*
X181142129Y-46485411D02*
X181168362Y-46443985D01*
X181142129Y-47514588D02*
X181117960Y-47471925D01*
X181142129Y-74485411D02*
X181168362Y-74443985D01*
X181142129Y-75514588D02*
X181117960Y-75471925D01*
X181168362Y-46443985D02*
X181196595Y-46403896D01*
X181168362Y-47556014D02*
X181142129Y-47514588D01*
X181168362Y-74443985D02*
X181196595Y-74403896D01*
X181168362Y-75556014D02*
X181142129Y-75514588D01*
X181196595Y-46403896D02*
X181226762Y-46365241D01*
X181196595Y-47596103D02*
X181168362Y-47556014D01*
X181196595Y-74403896D02*
X181226762Y-74365241D01*
X181196595Y-75596103D02*
X181168362Y-75556014D01*
X181226762Y-46365241D02*
X181258790Y-46328112D01*
X181226762Y-47634758D02*
X181196595Y-47596103D01*
X181226762Y-74365241D02*
X181258790Y-74328112D01*
X181226762Y-75634758D02*
X181196595Y-75596103D01*
X181258790Y-46328112D02*
X181292600Y-46292600D01*
X181258790Y-47671887D02*
X181226762Y-47634758D01*
X181258790Y-74328112D02*
X181292600Y-74292600D01*
X181258790Y-75671887D02*
X181226762Y-75634758D01*
X181292600Y-46292600D02*
X181328112Y-46258790D01*
X181292600Y-47707399D02*
X181258790Y-47671887D01*
X181292600Y-74292600D02*
X181328112Y-74258790D01*
X181292600Y-75707399D02*
X181258790Y-75671887D01*
X181328112Y-46258790D02*
X181365241Y-46226762D01*
X181328112Y-47741209D02*
X181292600Y-47707399D01*
X181328112Y-74258790D02*
X181365241Y-74226762D01*
X181328112Y-75741209D02*
X181292600Y-75707399D01*
X181365241Y-46226762D02*
X181403896Y-46196595D01*
X181365241Y-47773237D02*
X181328112Y-47741209D01*
X181365241Y-74226762D02*
X181403896Y-74196595D01*
X181365241Y-75773237D02*
X181328112Y-75741209D01*
X181403896Y-46196595D02*
X181443985Y-46168362D01*
X181403896Y-47803404D02*
X181365241Y-47773237D01*
X181403896Y-74196595D02*
X181443985Y-74168362D01*
X181403896Y-75803404D02*
X181365241Y-75773237D01*
X181443985Y-46168362D02*
X181485411Y-46142129D01*
X181443985Y-47831637D02*
X181403896Y-47803404D01*
X181443985Y-74168362D02*
X181485411Y-74142129D01*
X181443985Y-75831637D02*
X181403896Y-75803404D01*
X181485411Y-46142129D02*
X181528074Y-46117960D01*
X181485411Y-47857870D02*
X181443985Y-47831637D01*
X181485411Y-74142129D02*
X181528074Y-74117960D01*
X181485411Y-75857870D02*
X181443985Y-75831637D01*
X181528074Y-46117960D02*
X181571872Y-46095914D01*
X181528074Y-47882039D02*
X181485411Y-47857870D01*
X181528074Y-74117960D02*
X181571872Y-74095914D01*
X181528074Y-75882039D02*
X181485411Y-75857870D01*
X181571872Y-46095914D02*
X181616699Y-46076044D01*
X181571872Y-47904085D02*
X181528074Y-47882039D01*
X181571872Y-74095914D02*
X181616699Y-74076044D01*
X181571872Y-75904085D02*
X181528074Y-75882039D01*
X181616699Y-46076044D02*
X181662447Y-46058397D01*
X181616699Y-47923955D02*
X181571872Y-47904085D01*
X181616699Y-74076044D02*
X181662447Y-74058397D01*
X181616699Y-75923955D02*
X181571872Y-75904085D01*
X181662447Y-46058397D02*
X181709005Y-46043016D01*
X181662447Y-47941602D02*
X181616699Y-47923955D01*
X181662447Y-74058397D02*
X181709005Y-74043016D01*
X181662447Y-75941602D02*
X181616699Y-75923955D01*
X181709005Y-46043016D02*
X181756262Y-46029939D01*
X181709005Y-47956983D02*
X181662447Y-47941602D01*
X181709005Y-74043016D02*
X181756262Y-74029939D01*
X181709005Y-75956983D02*
X181662447Y-75941602D01*
X181756262Y-46029939D02*
X181804104Y-46019195D01*
X181756262Y-47970060D02*
X181709005Y-47956983D01*
X181756262Y-74029939D02*
X181804104Y-74019195D01*
X181756262Y-75970060D02*
X181709005Y-75956983D01*
X181804104Y-46019195D02*
X181852416Y-46010812D01*
X181804104Y-47980804D02*
X181756262Y-47970060D01*
X181804104Y-74019195D02*
X181852416Y-74010812D01*
X181804104Y-75980804D02*
X181756262Y-75970060D01*
X181852416Y-46010812D02*
X181901080Y-46004810D01*
X181852416Y-47989187D02*
X181804104Y-47980804D01*
X181852416Y-74010812D02*
X181901080Y-74004810D01*
X181852416Y-75989187D02*
X181804104Y-75980804D01*
X181901080Y-46004810D02*
X181949981Y-46001203D01*
X181901080Y-47995189D02*
X181852416Y-47989187D01*
X181901080Y-74004810D02*
X181949981Y-74001203D01*
X181901080Y-75995189D02*
X181852416Y-75989187D01*
X181949981Y-46001203D02*
X181999012Y-46000000D01*
X181949981Y-47998796D02*
X181901080Y-47995189D01*
X181949981Y-74001203D02*
X181999012Y-74000000D01*
X181949981Y-75998796D02*
X181901080Y-75995189D01*
X181999012Y-46000000D02*
X190493666Y-46000000D01*
X181999012Y-48000000D02*
X181949981Y-47998796D01*
X181999012Y-74000000D02*
X190493666Y-74000000D01*
X181999012Y-76000000D02*
X181949981Y-75998796D01*
X190493666Y-20000000D02*
X166506333Y-20000000D01*
X190493666Y-48000000D02*
X181999012Y-48000000D01*
X190493666Y-76000000D02*
X181999012Y-76000000D01*
X190493678Y-45999999D02*
X190506319Y-45999839D01*
X190493678Y-73999999D02*
X190506319Y-73999839D01*
X190493678Y-101999999D02*
X190506319Y-101999839D01*
X190506319Y-20000160D02*
X190493678Y-20000000D01*
X190506319Y-48000160D02*
X190493678Y-48000000D01*
X190506319Y-76000160D02*
X190493678Y-76000000D01*
X190506331Y-45999839D02*
X190588634Y-45997753D01*
X190506331Y-73999839D02*
X190588634Y-73997753D01*
X190506331Y-101999839D02*
X190588634Y-101997753D01*
X190588634Y-20002246D02*
X190506331Y-20000160D01*
X190588634Y-48002246D02*
X190506331Y-48000160D01*
X190588634Y-76002246D02*
X190506331Y-76000160D01*
X190588659Y-45997752D02*
X190613904Y-45996472D01*
X190588659Y-73997752D02*
X190613904Y-73996472D01*
X190588659Y-101997752D02*
X190613904Y-101996472D01*
X190613904Y-20003527D02*
X190588659Y-20002247D01*
X190613904Y-48003527D02*
X190588659Y-48002247D01*
X190613904Y-76003527D02*
X190588659Y-76002247D01*
X190613930Y-45996471D02*
X190689704Y-45990700D01*
X190613930Y-73996471D02*
X190689704Y-73990700D01*
X190613930Y-101996471D02*
X190689704Y-101990700D01*
X190689704Y-20009299D02*
X190613930Y-20003528D01*
X190689704Y-48009299D02*
X190613930Y-48003528D01*
X190689704Y-76009299D02*
X190613930Y-76003528D01*
X190689730Y-45990698D02*
X190714878Y-45988141D01*
X190689730Y-73990698D02*
X190714878Y-73988141D01*
X190689730Y-101990698D02*
X190714878Y-101988141D01*
X190714878Y-20011858D02*
X190689730Y-20009301D01*
X190714878Y-48011858D02*
X190689730Y-48009301D01*
X190714878Y-76011858D02*
X190689730Y-76009301D01*
X190714903Y-45988138D02*
X190790288Y-45978537D01*
X190714903Y-73988138D02*
X190790288Y-73978537D01*
X190714903Y-101988138D02*
X190790288Y-101978537D01*
X190790288Y-20021462D02*
X190714903Y-20011861D01*
X190790288Y-48021462D02*
X190714903Y-48011861D01*
X190790288Y-76021462D02*
X190714903Y-76011861D01*
X190790313Y-45978533D02*
X190815300Y-45974705D01*
X190790313Y-73978533D02*
X190815300Y-73974705D01*
X190790313Y-101978533D02*
X190815300Y-101974705D01*
X190815300Y-20025294D02*
X190790313Y-20021466D01*
X190815300Y-48025294D02*
X190790313Y-48021466D01*
X190815300Y-76025294D02*
X190790313Y-76021466D01*
X190815325Y-45974701D02*
X190890127Y-45961294D01*
X190815325Y-73974701D02*
X190890127Y-73961294D01*
X190815325Y-101974701D02*
X190890127Y-101961294D01*
X190890127Y-20038705D02*
X190815325Y-20025298D01*
X190890127Y-48038705D02*
X190815325Y-48025298D01*
X190890127Y-76038705D02*
X190815325Y-76025298D01*
X190890152Y-45961290D02*
X190914912Y-45956201D01*
X190890152Y-73961290D02*
X190914912Y-73956201D01*
X190890152Y-101961290D02*
X190914912Y-101956201D01*
X190914912Y-20043798D02*
X190890152Y-20038709D01*
X190914912Y-48043798D02*
X190890152Y-48038709D01*
X190914912Y-76043798D02*
X190890152Y-76038709D01*
X190914937Y-45956196D02*
X190988964Y-45939017D01*
X190914937Y-73956196D02*
X190988964Y-73939017D01*
X190914937Y-101956196D02*
X190988964Y-101939017D01*
X190988964Y-20060982D02*
X190914937Y-20043803D01*
X190988964Y-48060982D02*
X190914937Y-48043803D01*
X190988964Y-76060982D02*
X190914937Y-76043803D01*
X190988989Y-45939011D02*
X191013460Y-45932675D01*
X190988989Y-73939011D02*
X191013460Y-73932675D01*
X190988989Y-101939011D02*
X191013460Y-101932675D01*
X191013460Y-20067324D02*
X190988989Y-20060988D01*
X191013460Y-48067324D02*
X190988989Y-48060988D01*
X191013460Y-76067324D02*
X190988989Y-76060988D01*
X191013484Y-45932669D02*
X191086546Y-45911763D01*
X191013484Y-73932669D02*
X191086546Y-73911763D01*
X191013484Y-101932669D02*
X191086546Y-101911763D01*
X191086546Y-20088236D02*
X191013484Y-20067330D01*
X191086546Y-48088236D02*
X191013484Y-48067330D01*
X191086546Y-76088236D02*
X191013484Y-76067330D01*
X191086570Y-45911756D02*
X191110689Y-45904188D01*
X191086570Y-73911756D02*
X191110689Y-73904188D01*
X191086570Y-101911756D02*
X191110689Y-101904188D01*
X191110689Y-20095811D02*
X191086570Y-20088243D01*
X191110689Y-48095811D02*
X191086570Y-48088243D01*
X191110689Y-76095811D02*
X191086570Y-76088243D01*
X191110713Y-45904181D02*
X191182623Y-45879601D01*
X191110713Y-73904181D02*
X191182623Y-73879601D01*
X191110713Y-101904181D02*
X191182623Y-101879601D01*
X191182623Y-20120398D02*
X191110713Y-20095818D01*
X191182623Y-48120398D02*
X191110713Y-48095818D01*
X191182623Y-76120398D02*
X191110713Y-76095818D01*
X191182646Y-45879593D02*
X191206351Y-45870814D01*
X191182646Y-73879593D02*
X191206351Y-73870814D01*
X191182646Y-101879593D02*
X191206351Y-101870814D01*
X191206351Y-20129185D02*
X191182646Y-20120406D01*
X191206351Y-48129185D02*
X191182646Y-48120406D01*
X191206351Y-76129185D02*
X191182646Y-76120406D01*
X191206375Y-45870804D02*
X191276947Y-45842614D01*
X191206375Y-73870804D02*
X191276947Y-73842614D01*
X191206375Y-101870804D02*
X191276947Y-101842614D01*
X191276947Y-20157385D02*
X191206375Y-20129195D01*
X191276947Y-48157385D02*
X191206375Y-48129195D01*
X191276947Y-76157385D02*
X191206375Y-76129195D01*
X191276970Y-45842605D02*
X191300199Y-45832636D01*
X191276970Y-73842605D02*
X191300199Y-73832636D01*
X191276970Y-101842605D02*
X191300199Y-101832636D01*
X191300199Y-20167363D02*
X191276970Y-20157394D01*
X191300199Y-48167363D02*
X191276970Y-48157394D01*
X191300199Y-76167363D02*
X191276970Y-76157394D01*
X191300223Y-45832626D02*
X191369276Y-45800898D01*
X191300223Y-73832626D02*
X191369276Y-73800898D01*
X191300223Y-101832626D02*
X191369276Y-101800898D01*
X191369276Y-20199101D02*
X191300223Y-20167373D01*
X191369276Y-48199101D02*
X191300223Y-48167373D01*
X191369276Y-76199101D02*
X191300223Y-76167373D01*
X191369299Y-45800887D02*
X191391994Y-45789755D01*
X191369299Y-73800887D02*
X191391994Y-73789755D01*
X191369299Y-101800887D02*
X191391994Y-101789755D01*
X191391994Y-20210244D02*
X191369299Y-20199112D01*
X191391994Y-48210244D02*
X191369299Y-48199112D01*
X191391994Y-76210244D02*
X191369299Y-76199112D01*
X191392017Y-45789743D02*
X191459375Y-45754558D01*
X191392017Y-73789743D02*
X191459375Y-73754558D01*
X191392017Y-101789743D02*
X191459375Y-101754558D01*
X191459375Y-20245441D02*
X191392017Y-20210256D01*
X191459375Y-48245441D02*
X191392017Y-48210256D01*
X191459375Y-76245441D02*
X191392017Y-76210256D01*
X191459397Y-45754546D02*
X191481499Y-45742279D01*
X191459397Y-73754546D02*
X191481499Y-73742279D01*
X191459397Y-101754546D02*
X191481499Y-101742279D01*
X191481499Y-20257720D02*
X191459397Y-20245453D01*
X191481499Y-48257720D02*
X191459397Y-48245453D01*
X191481499Y-76257720D02*
X191459397Y-76245453D01*
X191481521Y-45742266D02*
X191547010Y-45703715D01*
X191481521Y-73742266D02*
X191547010Y-73703715D01*
X191481521Y-101742266D02*
X191547010Y-101703715D01*
X191547010Y-20296284D02*
X191481521Y-20257733D01*
X191547010Y-48296284D02*
X191481521Y-48257733D01*
X191547010Y-76296284D02*
X191481521Y-76257733D01*
X191547032Y-45703702D02*
X191568484Y-45690330D01*
X191547032Y-73703702D02*
X191568484Y-73690330D01*
X191547032Y-101703702D02*
X191568484Y-101690330D01*
X191568484Y-20309669D02*
X191547032Y-20296297D01*
X191568484Y-48309669D02*
X191547032Y-48296297D01*
X191568484Y-76309669D02*
X191547032Y-76296297D01*
X191568505Y-45690317D02*
X191631958Y-45648498D01*
X191568505Y-73690317D02*
X191631958Y-73648498D01*
X191568505Y-101690317D02*
X191631958Y-101648498D01*
X191631958Y-20351501D02*
X191568505Y-20309682D01*
X191631958Y-48351501D02*
X191568505Y-48309682D01*
X191631958Y-76351501D02*
X191568505Y-76309682D01*
X191631979Y-45648483D02*
X191652726Y-45634043D01*
X191631979Y-73648483D02*
X191652726Y-73634043D01*
X191631979Y-101648483D02*
X191652726Y-101634043D01*
X191652726Y-20365956D02*
X191631979Y-20351516D01*
X191652726Y-48365956D02*
X191631979Y-48351516D01*
X191652726Y-76365956D02*
X191631979Y-76351516D01*
X191652747Y-45634028D02*
X191714000Y-45589049D01*
X191652747Y-73634028D02*
X191714000Y-73589049D01*
X191652747Y-101634028D02*
X191714000Y-101589049D01*
X191714000Y-20410950D02*
X191652747Y-20365971D01*
X191714000Y-48410950D02*
X191652747Y-48365971D01*
X191714000Y-76410950D02*
X191652747Y-76365971D01*
X191714021Y-45589034D02*
X191734010Y-45573561D01*
X191714021Y-73589034D02*
X191734010Y-73573561D01*
X191714021Y-101589034D02*
X191734010Y-101573561D01*
X191734010Y-20426438D02*
X191714021Y-20410965D01*
X191734010Y-48426438D02*
X191714021Y-48410965D01*
X191734010Y-76426438D02*
X191714021Y-76410965D01*
X191734030Y-45573545D02*
X191792926Y-45525521D01*
X191734030Y-73573545D02*
X191792926Y-73525521D01*
X191734030Y-101573545D02*
X191792926Y-101525521D01*
X191792926Y-20474478D02*
X191734030Y-20426454D01*
X191792926Y-48474478D02*
X191734030Y-48426454D01*
X191792926Y-76474478D02*
X191734030Y-76426454D01*
X191792946Y-45525505D02*
X191812126Y-45509040D01*
X191792946Y-73525505D02*
X191812126Y-73509040D01*
X191792946Y-101525505D02*
X191812126Y-101509040D01*
X191812126Y-20490959D02*
X191792946Y-20474494D01*
X191812126Y-48490959D02*
X191792946Y-48474494D01*
X191812126Y-76490959D02*
X191792946Y-76474494D01*
X191812145Y-45509023D02*
X191868533Y-45458078D01*
X191812145Y-73509023D02*
X191868533Y-73458078D01*
X191812145Y-101509023D02*
X191868533Y-101458078D01*
X191868533Y-20541921D02*
X191812145Y-20490976D01*
X191868533Y-48541921D02*
X191812145Y-48490976D01*
X191868533Y-76541921D02*
X191812145Y-76490976D01*
X191868552Y-45458061D02*
X191886873Y-45440645D01*
X191868552Y-73458061D02*
X191886873Y-73440645D01*
X191868552Y-101458061D02*
X191886873Y-101440645D01*
X191886873Y-20559354D02*
X191868552Y-20541938D01*
X191886873Y-48559354D02*
X191868552Y-48541938D01*
X191886873Y-76559354D02*
X191868552Y-76541938D01*
X191886891Y-45440627D02*
X191940627Y-45386891D01*
X191886891Y-73440627D02*
X191940627Y-73386891D01*
X191886891Y-101440627D02*
X191940627Y-101386891D01*
X191940627Y-20613108D02*
X191886891Y-20559372D01*
X191940627Y-48613108D02*
X191886891Y-48559372D01*
X191940627Y-76613108D02*
X191886891Y-76559372D01*
X191940645Y-45386873D02*
X191958061Y-45368552D01*
X191940645Y-73386873D02*
X191958061Y-73368552D01*
X191940645Y-101386873D02*
X191958061Y-101368552D01*
X191958061Y-20631447D02*
X191940645Y-20613126D01*
X191958061Y-48631447D02*
X191940645Y-48613126D01*
X191958061Y-76631447D02*
X191940645Y-76613126D01*
X191958078Y-45368533D02*
X192009023Y-45312145D01*
X191958078Y-73368533D02*
X192009023Y-73312145D01*
X191958078Y-101368533D02*
X192009023Y-101312145D01*
X192009023Y-20687854D02*
X191958078Y-20631466D01*
X192009023Y-48687854D02*
X191958078Y-48631466D01*
X192009023Y-76687854D02*
X191958078Y-76631466D01*
X192009040Y-45312126D02*
X192025505Y-45292946D01*
X192009040Y-73312126D02*
X192025505Y-73292946D01*
X192009040Y-101312126D02*
X192025505Y-101292946D01*
X192025505Y-20707053D02*
X192009040Y-20687873D01*
X192025505Y-48707053D02*
X192009040Y-48687873D01*
X192025505Y-76707053D02*
X192009040Y-76687873D01*
X192025521Y-45292926D02*
X192073545Y-45234030D01*
X192025521Y-73292926D02*
X192073545Y-73234030D01*
X192025521Y-101292926D02*
X192073545Y-101234030D01*
X192073545Y-20765969D02*
X192025521Y-20707073D01*
X192073545Y-48765969D02*
X192025521Y-48707073D01*
X192073545Y-76765969D02*
X192025521Y-76707073D01*
X192073561Y-45234010D02*
X192089034Y-45214021D01*
X192073561Y-73234010D02*
X192089034Y-73214021D01*
X192073561Y-101234010D02*
X192089034Y-101214021D01*
X192089034Y-20785978D02*
X192073561Y-20765989D01*
X192089034Y-48785978D02*
X192073561Y-48765989D01*
X192089034Y-76785978D02*
X192073561Y-76765989D01*
X192089049Y-45214000D02*
X192134028Y-45152747D01*
X192089049Y-73214000D02*
X192134028Y-73152747D01*
X192089049Y-101214000D02*
X192134028Y-101152747D01*
X192134028Y-20847252D02*
X192089049Y-20785999D01*
X192134028Y-48847252D02*
X192089049Y-48785999D01*
X192134028Y-76847252D02*
X192089049Y-76785999D01*
X192134043Y-45152726D02*
X192148483Y-45131979D01*
X192134043Y-73152726D02*
X192148483Y-73131979D01*
X192134043Y-101152726D02*
X192148483Y-101131979D01*
X192148483Y-20868020D02*
X192134043Y-20847273D01*
X192148483Y-48868020D02*
X192134043Y-48847273D01*
X192148483Y-76868020D02*
X192134043Y-76847273D01*
X192148498Y-45131958D02*
X192190317Y-45068505D01*
X192148498Y-73131958D02*
X192190317Y-73068505D01*
X192148498Y-101131958D02*
X192190317Y-101068505D01*
X192190317Y-20931494D02*
X192148498Y-20868041D01*
X192190317Y-48931494D02*
X192148498Y-48868041D01*
X192190317Y-76931494D02*
X192148498Y-76868041D01*
X192190330Y-45068484D02*
X192203702Y-45047032D01*
X192190330Y-73068484D02*
X192203702Y-73047032D01*
X192190330Y-101068484D02*
X192203702Y-101047032D01*
X192203702Y-20952967D02*
X192190330Y-20931515D01*
X192203702Y-48952967D02*
X192190330Y-48931515D01*
X192203702Y-76952967D02*
X192190330Y-76931515D01*
X192203715Y-45047010D02*
X192242266Y-44981521D01*
X192203715Y-73047010D02*
X192242266Y-72981521D01*
X192203715Y-101047010D02*
X192242266Y-100981521D01*
X192242266Y-21018478D02*
X192203715Y-20952989D01*
X192242266Y-49018478D02*
X192203715Y-48952989D01*
X192242266Y-77018478D02*
X192203715Y-76952989D01*
X192242279Y-44981499D02*
X192254546Y-44959397D01*
X192242279Y-72981499D02*
X192254546Y-72959397D01*
X192242279Y-100981499D02*
X192254546Y-100959397D01*
X192254546Y-21040602D02*
X192242279Y-21018500D01*
X192254546Y-49040602D02*
X192242279Y-49018500D01*
X192254546Y-77040602D02*
X192242279Y-77018500D01*
X192254558Y-44959375D02*
X192289743Y-44892017D01*
X192254558Y-72959375D02*
X192289743Y-72892017D01*
X192254558Y-100959375D02*
X192289743Y-100892017D01*
X192289743Y-21107982D02*
X192254558Y-21040624D01*
X192289743Y-49107982D02*
X192254558Y-49040624D01*
X192289743Y-77107982D02*
X192254558Y-77040624D01*
X192289755Y-44891994D02*
X192300887Y-44869299D01*
X192289755Y-72891994D02*
X192300887Y-72869299D01*
X192289755Y-100891994D02*
X192300887Y-100869299D01*
X192300887Y-21130700D02*
X192289755Y-21108005D01*
X192300887Y-49130700D02*
X192289755Y-49108005D01*
X192300887Y-77130700D02*
X192289755Y-77108005D01*
X192300898Y-44869276D02*
X192332626Y-44800223D01*
X192300898Y-72869276D02*
X192332626Y-72800223D01*
X192300898Y-100869276D02*
X192332626Y-100800223D01*
X192332626Y-21199776D02*
X192300898Y-21130723D01*
X192332626Y-49199776D02*
X192300898Y-49130723D01*
X192332626Y-77199776D02*
X192300898Y-77130723D01*
X192332636Y-44800199D02*
X192342605Y-44776970D01*
X192332636Y-72800199D02*
X192342605Y-72776970D01*
X192332636Y-100800199D02*
X192342605Y-100776970D01*
X192342605Y-21223029D02*
X192332636Y-21199800D01*
X192342605Y-49223029D02*
X192332636Y-49199800D01*
X192342605Y-77223029D02*
X192332636Y-77199800D01*
X192342614Y-44776947D02*
X192370804Y-44706375D01*
X192342614Y-72776947D02*
X192370804Y-72706375D01*
X192342614Y-100776947D02*
X192370804Y-100706375D01*
X192370804Y-21293624D02*
X192342614Y-21223052D01*
X192370804Y-49293624D02*
X192342614Y-49223052D01*
X192370804Y-77293624D02*
X192342614Y-77223052D01*
X192370814Y-44706351D02*
X192379593Y-44682646D01*
X192370814Y-72706351D02*
X192379593Y-72682646D01*
X192370814Y-100706351D02*
X192379593Y-100682646D01*
X192379593Y-21317353D02*
X192370814Y-21293648D01*
X192379593Y-49317353D02*
X192370814Y-49293648D01*
X192379593Y-77317353D02*
X192370814Y-77293648D01*
X192379601Y-44682623D02*
X192404181Y-44610713D01*
X192379601Y-72682623D02*
X192404181Y-72610713D01*
X192379601Y-100682623D02*
X192404181Y-100610713D01*
X192404181Y-21389286D02*
X192379601Y-21317376D01*
X192404181Y-49389286D02*
X192379601Y-49317376D01*
X192404181Y-77389286D02*
X192379601Y-77317376D01*
X192404188Y-44610689D02*
X192411756Y-44586570D01*
X192404188Y-72610689D02*
X192411756Y-72586570D01*
X192404188Y-100610689D02*
X192411756Y-100586570D01*
X192411756Y-21413429D02*
X192404188Y-21389310D01*
X192411756Y-49413429D02*
X192404188Y-49389310D01*
X192411756Y-77413429D02*
X192404188Y-77389310D01*
X192411763Y-44586546D02*
X192432669Y-44513484D01*
X192411763Y-72586546D02*
X192432669Y-72513484D01*
X192411763Y-100586546D02*
X192432669Y-100513484D01*
X192432669Y-21486515D02*
X192411763Y-21413453D01*
X192432669Y-49486515D02*
X192411763Y-49413453D01*
X192432669Y-77486515D02*
X192411763Y-77413453D01*
X192432675Y-44513460D02*
X192439011Y-44488989D01*
X192432675Y-72513460D02*
X192439011Y-72488989D01*
X192432675Y-100513460D02*
X192439011Y-100488989D01*
X192439011Y-21511010D02*
X192432675Y-21486539D01*
X192439011Y-49511010D02*
X192432675Y-49486539D01*
X192439011Y-77511010D02*
X192432675Y-77486539D01*
X192439017Y-44488964D02*
X192456196Y-44414937D01*
X192439017Y-72488964D02*
X192456196Y-72414937D01*
X192439017Y-100488964D02*
X192456196Y-100414937D01*
X192456196Y-21585062D02*
X192439017Y-21511035D01*
X192456196Y-49585062D02*
X192439017Y-49511035D01*
X192456196Y-77585062D02*
X192439017Y-77511035D01*
X192456201Y-44414912D02*
X192461290Y-44390152D01*
X192456201Y-72414912D02*
X192461290Y-72390152D01*
X192456201Y-100414912D02*
X192461290Y-100390152D01*
X192461290Y-21609847D02*
X192456201Y-21585087D01*
X192461290Y-49609847D02*
X192456201Y-49585087D01*
X192461290Y-77609847D02*
X192456201Y-77585087D01*
X192461294Y-44390127D02*
X192474701Y-44315325D01*
X192461294Y-72390127D02*
X192474701Y-72315325D01*
X192461294Y-100390127D02*
X192474701Y-100315325D01*
X192474701Y-21684674D02*
X192461294Y-21609872D01*
X192474701Y-49684674D02*
X192461294Y-49609872D01*
X192474701Y-77684674D02*
X192461294Y-77609872D01*
X192474705Y-44315300D02*
X192478533Y-44290313D01*
X192474705Y-72315300D02*
X192478533Y-72290313D01*
X192474705Y-100315300D02*
X192478533Y-100290313D01*
X192478533Y-21709686D02*
X192474705Y-21684699D01*
X192478533Y-49709686D02*
X192474705Y-49684699D01*
X192478533Y-77709686D02*
X192474705Y-77684699D01*
X192478537Y-44290288D02*
X192488138Y-44214903D01*
X192478537Y-72290288D02*
X192488138Y-72214903D01*
X192478537Y-100290288D02*
X192488138Y-100214903D01*
X192488138Y-21785096D02*
X192478537Y-21709711D01*
X192488138Y-49785096D02*
X192478537Y-49709711D01*
X192488138Y-77785096D02*
X192478537Y-77709711D01*
X192488141Y-44214878D02*
X192490698Y-44189730D01*
X192488141Y-72214878D02*
X192490698Y-72189730D01*
X192488141Y-100214878D02*
X192490698Y-100189730D01*
X192490698Y-21810269D02*
X192488141Y-21785121D01*
X192490700Y-44189704D02*
X192496471Y-44113930D01*
X192490698Y-49810269D02*
X192488141Y-49785121D01*
X192490700Y-72189704D02*
X192496471Y-72113930D01*
X192490698Y-77810269D02*
X192488141Y-77785121D01*
X192490700Y-100189704D02*
X192496471Y-100113930D01*
X192496471Y-21886069D02*
X192490700Y-21810295D01*
X192496472Y-44113904D02*
X192497752Y-44088659D01*
X192496471Y-49886069D02*
X192490700Y-49810295D01*
X192496472Y-72113904D02*
X192497752Y-72088659D01*
X192496471Y-77886069D02*
X192490700Y-77810295D01*
X192496472Y-100113904D02*
X192497752Y-100088659D01*
X192497752Y-21911340D02*
X192496472Y-21886095D01*
X192497753Y-44088634D02*
X192499839Y-44006331D01*
X192497752Y-49911340D02*
X192496472Y-49886095D01*
X192497753Y-72088634D02*
X192499839Y-72006331D01*
X192497752Y-77911340D02*
X192496472Y-77886095D01*
X192497753Y-100088634D02*
X192499839Y-100006331D01*
X192499839Y-21993668D02*
X192497753Y-21911365D01*
X192499839Y-44006319D02*
X192499999Y-43993678D01*
X192499839Y-49993668D02*
X192497753Y-49911365D01*
X192499839Y-72006319D02*
X192499999Y-71993678D01*
X192499839Y-77993668D02*
X192497753Y-77911365D01*
X192499839Y-100006319D02*
X192499999Y-99993678D01*
X192499999Y-22006321D02*
X192499839Y-21993680D01*
X192500000Y-43993666D02*
X192500000Y-22006333D01*
X192499999Y-50006321D02*
X192499839Y-49993680D01*
X192500000Y-71993666D02*
X192500000Y-50006333D01*
X192499999Y-78006321D02*
X192499839Y-77993680D01*
X192500000Y-99993666D02*
X192500000Y-78006333D01*
M02*
