%TF.GenerationSoftware,KiCad,Pcbnew,10.0.0*%
%TF.CreationDate,2026-03-26T00:28:42+01:00*%
%TF.ProjectId,battery_order,62617474-6572-4795-9f6f-726465722e6b,rev?*%
%TF.SameCoordinates,Original*%
%TF.FileFunction,Paste,Top*%
%TF.FilePolarity,Positive*%
%FSLAX46Y46*%
G04 Gerber Fmt 4.6, Leading zero omitted, Abs format (unit mm)*
G04 Created by KiCad (PCBNEW 10.0.0) date 2026-03-26 00:28:42*
%MOMM*%
%LPD*%
G01*
G04 APERTURE LIST*
%ADD10R,1.000000X0.800000*%
%ADD11R,0.700000X1.500000*%
%ADD12R,2.600000X5.560000*%
G04 APERTURE END LIST*
D10*
%TO.C,SW1*%
X175350000Y-71220000D03*
X175350000Y-73430000D03*
X182650000Y-71220000D03*
X182650000Y-73430000D03*
D11*
X176750000Y-70570000D03*
X179750000Y-70570000D03*
X181250000Y-70570000D03*
%TD*%
D10*
%TO.C,SW1*%
X145350000Y-43220000D03*
X145350000Y-45430000D03*
X152650000Y-43220000D03*
X152650000Y-45430000D03*
D11*
X146750000Y-42570000D03*
X149750000Y-42570000D03*
X151250000Y-42570000D03*
%TD*%
D12*
%TO.C,BT1*%
X136595000Y-30500000D03*
X160405000Y-30500000D03*
%TD*%
D10*
%TO.C,SW1*%
X175350000Y-99220000D03*
X175350000Y-101430000D03*
X182650000Y-99220000D03*
X182650000Y-101430000D03*
D11*
X176750000Y-98570000D03*
X179750000Y-98570000D03*
X181250000Y-98570000D03*
%TD*%
D10*
%TO.C,SW1*%
X115350000Y-43220000D03*
X115350000Y-45430000D03*
X122650000Y-43220000D03*
X122650000Y-45430000D03*
D11*
X116750000Y-42570000D03*
X119750000Y-42570000D03*
X121250000Y-42570000D03*
%TD*%
D12*
%TO.C,BT1*%
X136595000Y-86500000D03*
X160405000Y-86500000D03*
%TD*%
%TO.C,BT1*%
X166595000Y-86500000D03*
X190405000Y-86500000D03*
%TD*%
D10*
%TO.C,SW1*%
X115350000Y-99220000D03*
X115350000Y-101430000D03*
X122650000Y-99220000D03*
X122650000Y-101430000D03*
D11*
X116750000Y-98570000D03*
X119750000Y-98570000D03*
X121250000Y-98570000D03*
%TD*%
D12*
%TO.C,BT1*%
X106595000Y-58500000D03*
X130405000Y-58500000D03*
%TD*%
D10*
%TO.C,SW1*%
X145350000Y-71220000D03*
X145350000Y-73430000D03*
X152650000Y-71220000D03*
X152650000Y-73430000D03*
D11*
X146750000Y-70570000D03*
X149750000Y-70570000D03*
X151250000Y-70570000D03*
%TD*%
D10*
%TO.C,SW1*%
X145350000Y-99220000D03*
X145350000Y-101430000D03*
X152650000Y-99220000D03*
X152650000Y-101430000D03*
D11*
X146750000Y-98570000D03*
X149750000Y-98570000D03*
X151250000Y-98570000D03*
%TD*%
D12*
%TO.C,BT1*%
X106595000Y-30500000D03*
X130405000Y-30500000D03*
%TD*%
%TO.C,BT1*%
X166595000Y-30500000D03*
X190405000Y-30500000D03*
%TD*%
%TO.C,BT1*%
X166595000Y-58500000D03*
X190405000Y-58500000D03*
%TD*%
%TO.C,BT1*%
X106595000Y-86500000D03*
X130405000Y-86500000D03*
%TD*%
D10*
%TO.C,SW1*%
X115350000Y-71220000D03*
X115350000Y-73430000D03*
X122650000Y-71220000D03*
X122650000Y-73430000D03*
D11*
X116750000Y-70570000D03*
X119750000Y-70570000D03*
X121250000Y-70570000D03*
%TD*%
D10*
%TO.C,SW1*%
X175350000Y-43220000D03*
X175350000Y-45430000D03*
X182650000Y-43220000D03*
X182650000Y-45430000D03*
D11*
X176750000Y-42570000D03*
X179750000Y-42570000D03*
X181250000Y-42570000D03*
%TD*%
D12*
%TO.C,BT1*%
X136595000Y-58500000D03*
X160405000Y-58500000D03*
%TD*%
M02*
