M48
; DRILL file KiCad 10.0.0 date 2026-03-26T00:28:39
; FORMAT={-:-/ absolute / metric / decimal}
; #@! TF.CreationDate,2026-03-26T00:28:39+01:00
; #@! TF.GenerationSoftware,Kicad,Pcbnew,10.0.0
; #@! TF.FileFunction,Plated,1,2,PTH
FMAT,2
METRIC
; #@! TA.AperFunction,Plated,PTH,ViaDrill
T1C0.300
; #@! TA.AperFunction,Plated,PTH,ComponentDrill
T2C2.200
%
G90
G05
T1
X106.5Y-25.5
X106.5Y-40.0
X106.5Y-53.5
X106.5Y-68.0
X106.5Y-81.5
X106.5Y-96.0
X108.5Y-34.5
X108.5Y-62.5
X108.5Y-90.5
X113.5Y-26.5
X113.5Y-34.5
X113.5Y-54.5
X113.5Y-62.5
X113.5Y-82.5
X113.5Y-90.5
X119.5Y-41.0
X119.5Y-69.0
X119.5Y-97.0
X121.0Y-41.0
X121.0Y-69.0
X121.0Y-97.0
X123.0Y-26.5
X123.0Y-34.5
X123.0Y-54.5
X123.0Y-62.5
X123.0Y-82.5
X123.0Y-90.5
X128.0Y-34.5
X128.0Y-62.5
X128.0Y-90.5
X130.5Y-25.5
X130.5Y-40.0
X130.5Y-53.5
X130.5Y-68.0
X130.5Y-81.5
X130.5Y-96.0
X136.5Y-25.5
X136.5Y-40.0
X136.5Y-53.5
X136.5Y-68.0
X136.5Y-81.5
X136.5Y-96.0
X138.5Y-34.5
X138.5Y-62.5
X138.5Y-90.5
X143.5Y-26.5
X143.5Y-34.5
X143.5Y-54.5
X143.5Y-62.5
X143.5Y-82.5
X143.5Y-90.5
X149.5Y-41.0
X149.5Y-69.0
X149.5Y-97.0
X151.0Y-41.0
X151.0Y-69.0
X151.0Y-97.0
X153.0Y-26.5
X153.0Y-34.5
X153.0Y-54.5
X153.0Y-62.5
X153.0Y-82.5
X153.0Y-90.5
X158.0Y-34.5
X158.0Y-62.5
X158.0Y-90.5
X160.5Y-25.5
X160.5Y-40.0
X160.5Y-53.5
X160.5Y-68.0
X160.5Y-81.5
X160.5Y-96.0
X166.5Y-25.5
X166.5Y-40.0
X166.5Y-53.5
X166.5Y-68.0
X166.5Y-81.5
X166.5Y-96.0
X168.5Y-34.5
X168.5Y-62.5
X168.5Y-90.5
X173.5Y-26.5
X173.5Y-34.5
X173.5Y-54.5
X173.5Y-62.5
X173.5Y-82.5
X173.5Y-90.5
X179.5Y-41.0
X179.5Y-69.0
X179.5Y-97.0
X181.0Y-41.0
X181.0Y-69.0
X181.0Y-97.0
X183.0Y-26.5
X183.0Y-34.5
X183.0Y-54.5
X183.0Y-62.5
X183.0Y-82.5
X183.0Y-90.5
X188.0Y-34.5
X188.0Y-62.5
X188.0Y-90.5
X190.5Y-25.5
X190.5Y-40.0
X190.5Y-53.5
X190.5Y-68.0
X190.5Y-81.5
X190.5Y-96.0
T2
X106.5Y-22.0
X106.5Y-44.0
X106.5Y-50.0
X106.5Y-72.0
X106.5Y-78.0
X106.5Y-100.0
X130.5Y-22.0
X130.5Y-44.0
X130.5Y-50.0
X130.5Y-72.0
X130.5Y-78.0
X130.5Y-100.0
X136.5Y-22.0
X136.5Y-44.0
X136.5Y-50.0
X136.5Y-72.0
X136.5Y-78.0
X136.5Y-100.0
X160.5Y-22.0
X160.5Y-44.0
X160.5Y-50.0
X160.5Y-72.0
X160.5Y-78.0
X160.5Y-100.0
X166.5Y-22.0
X166.5Y-44.0
X166.5Y-50.0
X166.5Y-72.0
X166.5Y-78.0
X166.5Y-100.0
X190.5Y-22.0
X190.5Y-44.0
X190.5Y-50.0
X190.5Y-72.0
X190.5Y-78.0
X190.5Y-100.0
M30
