%TF.GenerationSoftware,KiCad,Pcbnew,10.0.0*%
%TF.CreationDate,2026-03-26T00:28:42+01:00*%
%TF.ProjectId,battery_order,62617474-6572-4795-9f6f-726465722e6b,rev?*%
%TF.SameCoordinates,Original*%
%TF.FileFunction,Legend,Top*%
%TF.FilePolarity,Positive*%
%FSLAX46Y46*%
G04 Gerber Fmt 4.6, Leading zero omitted, Abs format (unit mm)*
G04 Created by KiCad (PCBNEW 10.0.0) date 2026-03-26 00:28:42*
%MOMM*%
%LPD*%
G01*
G04 APERTURE LIST*
%ADD10C,0.125000*%
%ADD11C,0.187500*%
%ADD12C,0.120000*%
G04 APERTURE END LIST*
D10*
X112047619Y-43871119D02*
X112238095Y-43871119D01*
X112238095Y-43871119D02*
X112333333Y-43918738D01*
X112333333Y-43918738D02*
X112428571Y-44013976D01*
X112428571Y-44013976D02*
X112476190Y-44204452D01*
X112476190Y-44204452D02*
X112476190Y-44537785D01*
X112476190Y-44537785D02*
X112428571Y-44728261D01*
X112428571Y-44728261D02*
X112333333Y-44823500D01*
X112333333Y-44823500D02*
X112238095Y-44871119D01*
X112238095Y-44871119D02*
X112047619Y-44871119D01*
X112047619Y-44871119D02*
X111952381Y-44823500D01*
X111952381Y-44823500D02*
X111857143Y-44728261D01*
X111857143Y-44728261D02*
X111809524Y-44537785D01*
X111809524Y-44537785D02*
X111809524Y-44204452D01*
X111809524Y-44204452D02*
X111857143Y-44013976D01*
X111857143Y-44013976D02*
X111952381Y-43918738D01*
X111952381Y-43918738D02*
X112047619Y-43871119D01*
X113238095Y-44347309D02*
X112904762Y-44347309D01*
X112904762Y-44871119D02*
X112904762Y-43871119D01*
X112904762Y-43871119D02*
X113380952Y-43871119D01*
X114095238Y-44347309D02*
X113761905Y-44347309D01*
X113761905Y-44871119D02*
X113761905Y-43871119D01*
X113761905Y-43871119D02*
X114238095Y-43871119D01*
X112047619Y-71871119D02*
X112238095Y-71871119D01*
X112238095Y-71871119D02*
X112333333Y-71918738D01*
X112333333Y-71918738D02*
X112428571Y-72013976D01*
X112428571Y-72013976D02*
X112476190Y-72204452D01*
X112476190Y-72204452D02*
X112476190Y-72537785D01*
X112476190Y-72537785D02*
X112428571Y-72728261D01*
X112428571Y-72728261D02*
X112333333Y-72823500D01*
X112333333Y-72823500D02*
X112238095Y-72871119D01*
X112238095Y-72871119D02*
X112047619Y-72871119D01*
X112047619Y-72871119D02*
X111952381Y-72823500D01*
X111952381Y-72823500D02*
X111857143Y-72728261D01*
X111857143Y-72728261D02*
X111809524Y-72537785D01*
X111809524Y-72537785D02*
X111809524Y-72204452D01*
X111809524Y-72204452D02*
X111857143Y-72013976D01*
X111857143Y-72013976D02*
X111952381Y-71918738D01*
X111952381Y-71918738D02*
X112047619Y-71871119D01*
X113238095Y-72347309D02*
X112904762Y-72347309D01*
X112904762Y-72871119D02*
X112904762Y-71871119D01*
X112904762Y-71871119D02*
X113380952Y-71871119D01*
X114095238Y-72347309D02*
X113761905Y-72347309D01*
X113761905Y-72871119D02*
X113761905Y-71871119D01*
X113761905Y-71871119D02*
X114238095Y-71871119D01*
X112047619Y-99871119D02*
X112238095Y-99871119D01*
X112238095Y-99871119D02*
X112333333Y-99918738D01*
X112333333Y-99918738D02*
X112428571Y-100013976D01*
X112428571Y-100013976D02*
X112476190Y-100204452D01*
X112476190Y-100204452D02*
X112476190Y-100537785D01*
X112476190Y-100537785D02*
X112428571Y-100728261D01*
X112428571Y-100728261D02*
X112333333Y-100823500D01*
X112333333Y-100823500D02*
X112238095Y-100871119D01*
X112238095Y-100871119D02*
X112047619Y-100871119D01*
X112047619Y-100871119D02*
X111952381Y-100823500D01*
X111952381Y-100823500D02*
X111857143Y-100728261D01*
X111857143Y-100728261D02*
X111809524Y-100537785D01*
X111809524Y-100537785D02*
X111809524Y-100204452D01*
X111809524Y-100204452D02*
X111857143Y-100013976D01*
X111857143Y-100013976D02*
X111952381Y-99918738D01*
X111952381Y-99918738D02*
X112047619Y-99871119D01*
X113238095Y-100347309D02*
X112904762Y-100347309D01*
X112904762Y-100871119D02*
X112904762Y-99871119D01*
X112904762Y-99871119D02*
X113380952Y-99871119D01*
X114095238Y-100347309D02*
X113761905Y-100347309D01*
X113761905Y-100871119D02*
X113761905Y-99871119D01*
X113761905Y-99871119D02*
X114238095Y-99871119D01*
X123880952Y-43871119D02*
X124071428Y-43871119D01*
X124071428Y-43871119D02*
X124166666Y-43918738D01*
X124166666Y-43918738D02*
X124261904Y-44013976D01*
X124261904Y-44013976D02*
X124309523Y-44204452D01*
X124309523Y-44204452D02*
X124309523Y-44537785D01*
X124309523Y-44537785D02*
X124261904Y-44728261D01*
X124261904Y-44728261D02*
X124166666Y-44823500D01*
X124166666Y-44823500D02*
X124071428Y-44871119D01*
X124071428Y-44871119D02*
X123880952Y-44871119D01*
X123880952Y-44871119D02*
X123785714Y-44823500D01*
X123785714Y-44823500D02*
X123690476Y-44728261D01*
X123690476Y-44728261D02*
X123642857Y-44537785D01*
X123642857Y-44537785D02*
X123642857Y-44204452D01*
X123642857Y-44204452D02*
X123690476Y-44013976D01*
X123690476Y-44013976D02*
X123785714Y-43918738D01*
X123785714Y-43918738D02*
X123880952Y-43871119D01*
X124738095Y-44871119D02*
X124738095Y-43871119D01*
X124738095Y-43871119D02*
X125309523Y-44871119D01*
X125309523Y-44871119D02*
X125309523Y-43871119D01*
X123880952Y-71871119D02*
X124071428Y-71871119D01*
X124071428Y-71871119D02*
X124166666Y-71918738D01*
X124166666Y-71918738D02*
X124261904Y-72013976D01*
X124261904Y-72013976D02*
X124309523Y-72204452D01*
X124309523Y-72204452D02*
X124309523Y-72537785D01*
X124309523Y-72537785D02*
X124261904Y-72728261D01*
X124261904Y-72728261D02*
X124166666Y-72823500D01*
X124166666Y-72823500D02*
X124071428Y-72871119D01*
X124071428Y-72871119D02*
X123880952Y-72871119D01*
X123880952Y-72871119D02*
X123785714Y-72823500D01*
X123785714Y-72823500D02*
X123690476Y-72728261D01*
X123690476Y-72728261D02*
X123642857Y-72537785D01*
X123642857Y-72537785D02*
X123642857Y-72204452D01*
X123642857Y-72204452D02*
X123690476Y-72013976D01*
X123690476Y-72013976D02*
X123785714Y-71918738D01*
X123785714Y-71918738D02*
X123880952Y-71871119D01*
X124738095Y-72871119D02*
X124738095Y-71871119D01*
X124738095Y-71871119D02*
X125309523Y-72871119D01*
X125309523Y-72871119D02*
X125309523Y-71871119D01*
X123880952Y-99871119D02*
X124071428Y-99871119D01*
X124071428Y-99871119D02*
X124166666Y-99918738D01*
X124166666Y-99918738D02*
X124261904Y-100013976D01*
X124261904Y-100013976D02*
X124309523Y-100204452D01*
X124309523Y-100204452D02*
X124309523Y-100537785D01*
X124309523Y-100537785D02*
X124261904Y-100728261D01*
X124261904Y-100728261D02*
X124166666Y-100823500D01*
X124166666Y-100823500D02*
X124071428Y-100871119D01*
X124071428Y-100871119D02*
X123880952Y-100871119D01*
X123880952Y-100871119D02*
X123785714Y-100823500D01*
X123785714Y-100823500D02*
X123690476Y-100728261D01*
X123690476Y-100728261D02*
X123642857Y-100537785D01*
X123642857Y-100537785D02*
X123642857Y-100204452D01*
X123642857Y-100204452D02*
X123690476Y-100013976D01*
X123690476Y-100013976D02*
X123785714Y-99918738D01*
X123785714Y-99918738D02*
X123880952Y-99871119D01*
X124738095Y-100871119D02*
X124738095Y-99871119D01*
X124738095Y-99871119D02*
X125309523Y-100871119D01*
X125309523Y-100871119D02*
X125309523Y-99871119D01*
X142047619Y-43871119D02*
X142238095Y-43871119D01*
X142238095Y-43871119D02*
X142333333Y-43918738D01*
X142333333Y-43918738D02*
X142428571Y-44013976D01*
X142428571Y-44013976D02*
X142476190Y-44204452D01*
X142476190Y-44204452D02*
X142476190Y-44537785D01*
X142476190Y-44537785D02*
X142428571Y-44728261D01*
X142428571Y-44728261D02*
X142333333Y-44823500D01*
X142333333Y-44823500D02*
X142238095Y-44871119D01*
X142238095Y-44871119D02*
X142047619Y-44871119D01*
X142047619Y-44871119D02*
X141952381Y-44823500D01*
X141952381Y-44823500D02*
X141857143Y-44728261D01*
X141857143Y-44728261D02*
X141809524Y-44537785D01*
X141809524Y-44537785D02*
X141809524Y-44204452D01*
X141809524Y-44204452D02*
X141857143Y-44013976D01*
X141857143Y-44013976D02*
X141952381Y-43918738D01*
X141952381Y-43918738D02*
X142047619Y-43871119D01*
X143238095Y-44347309D02*
X142904762Y-44347309D01*
X142904762Y-44871119D02*
X142904762Y-43871119D01*
X142904762Y-43871119D02*
X143380952Y-43871119D01*
X144095238Y-44347309D02*
X143761905Y-44347309D01*
X143761905Y-44871119D02*
X143761905Y-43871119D01*
X143761905Y-43871119D02*
X144238095Y-43871119D01*
X142047619Y-71871119D02*
X142238095Y-71871119D01*
X142238095Y-71871119D02*
X142333333Y-71918738D01*
X142333333Y-71918738D02*
X142428571Y-72013976D01*
X142428571Y-72013976D02*
X142476190Y-72204452D01*
X142476190Y-72204452D02*
X142476190Y-72537785D01*
X142476190Y-72537785D02*
X142428571Y-72728261D01*
X142428571Y-72728261D02*
X142333333Y-72823500D01*
X142333333Y-72823500D02*
X142238095Y-72871119D01*
X142238095Y-72871119D02*
X142047619Y-72871119D01*
X142047619Y-72871119D02*
X141952381Y-72823500D01*
X141952381Y-72823500D02*
X141857143Y-72728261D01*
X141857143Y-72728261D02*
X141809524Y-72537785D01*
X141809524Y-72537785D02*
X141809524Y-72204452D01*
X141809524Y-72204452D02*
X141857143Y-72013976D01*
X141857143Y-72013976D02*
X141952381Y-71918738D01*
X141952381Y-71918738D02*
X142047619Y-71871119D01*
X143238095Y-72347309D02*
X142904762Y-72347309D01*
X142904762Y-72871119D02*
X142904762Y-71871119D01*
X142904762Y-71871119D02*
X143380952Y-71871119D01*
X144095238Y-72347309D02*
X143761905Y-72347309D01*
X143761905Y-72871119D02*
X143761905Y-71871119D01*
X143761905Y-71871119D02*
X144238095Y-71871119D01*
X142047619Y-99871119D02*
X142238095Y-99871119D01*
X142238095Y-99871119D02*
X142333333Y-99918738D01*
X142333333Y-99918738D02*
X142428571Y-100013976D01*
X142428571Y-100013976D02*
X142476190Y-100204452D01*
X142476190Y-100204452D02*
X142476190Y-100537785D01*
X142476190Y-100537785D02*
X142428571Y-100728261D01*
X142428571Y-100728261D02*
X142333333Y-100823500D01*
X142333333Y-100823500D02*
X142238095Y-100871119D01*
X142238095Y-100871119D02*
X142047619Y-100871119D01*
X142047619Y-100871119D02*
X141952381Y-100823500D01*
X141952381Y-100823500D02*
X141857143Y-100728261D01*
X141857143Y-100728261D02*
X141809524Y-100537785D01*
X141809524Y-100537785D02*
X141809524Y-100204452D01*
X141809524Y-100204452D02*
X141857143Y-100013976D01*
X141857143Y-100013976D02*
X141952381Y-99918738D01*
X141952381Y-99918738D02*
X142047619Y-99871119D01*
X143238095Y-100347309D02*
X142904762Y-100347309D01*
X142904762Y-100871119D02*
X142904762Y-99871119D01*
X142904762Y-99871119D02*
X143380952Y-99871119D01*
X144095238Y-100347309D02*
X143761905Y-100347309D01*
X143761905Y-100871119D02*
X143761905Y-99871119D01*
X143761905Y-99871119D02*
X144238095Y-99871119D01*
X153880952Y-43871119D02*
X154071428Y-43871119D01*
X154071428Y-43871119D02*
X154166666Y-43918738D01*
X154166666Y-43918738D02*
X154261904Y-44013976D01*
X154261904Y-44013976D02*
X154309523Y-44204452D01*
X154309523Y-44204452D02*
X154309523Y-44537785D01*
X154309523Y-44537785D02*
X154261904Y-44728261D01*
X154261904Y-44728261D02*
X154166666Y-44823500D01*
X154166666Y-44823500D02*
X154071428Y-44871119D01*
X154071428Y-44871119D02*
X153880952Y-44871119D01*
X153880952Y-44871119D02*
X153785714Y-44823500D01*
X153785714Y-44823500D02*
X153690476Y-44728261D01*
X153690476Y-44728261D02*
X153642857Y-44537785D01*
X153642857Y-44537785D02*
X153642857Y-44204452D01*
X153642857Y-44204452D02*
X153690476Y-44013976D01*
X153690476Y-44013976D02*
X153785714Y-43918738D01*
X153785714Y-43918738D02*
X153880952Y-43871119D01*
X154738095Y-44871119D02*
X154738095Y-43871119D01*
X154738095Y-43871119D02*
X155309523Y-44871119D01*
X155309523Y-44871119D02*
X155309523Y-43871119D01*
X153880952Y-71871119D02*
X154071428Y-71871119D01*
X154071428Y-71871119D02*
X154166666Y-71918738D01*
X154166666Y-71918738D02*
X154261904Y-72013976D01*
X154261904Y-72013976D02*
X154309523Y-72204452D01*
X154309523Y-72204452D02*
X154309523Y-72537785D01*
X154309523Y-72537785D02*
X154261904Y-72728261D01*
X154261904Y-72728261D02*
X154166666Y-72823500D01*
X154166666Y-72823500D02*
X154071428Y-72871119D01*
X154071428Y-72871119D02*
X153880952Y-72871119D01*
X153880952Y-72871119D02*
X153785714Y-72823500D01*
X153785714Y-72823500D02*
X153690476Y-72728261D01*
X153690476Y-72728261D02*
X153642857Y-72537785D01*
X153642857Y-72537785D02*
X153642857Y-72204452D01*
X153642857Y-72204452D02*
X153690476Y-72013976D01*
X153690476Y-72013976D02*
X153785714Y-71918738D01*
X153785714Y-71918738D02*
X153880952Y-71871119D01*
X154738095Y-72871119D02*
X154738095Y-71871119D01*
X154738095Y-71871119D02*
X155309523Y-72871119D01*
X155309523Y-72871119D02*
X155309523Y-71871119D01*
X153880952Y-99871119D02*
X154071428Y-99871119D01*
X154071428Y-99871119D02*
X154166666Y-99918738D01*
X154166666Y-99918738D02*
X154261904Y-100013976D01*
X154261904Y-100013976D02*
X154309523Y-100204452D01*
X154309523Y-100204452D02*
X154309523Y-100537785D01*
X154309523Y-100537785D02*
X154261904Y-100728261D01*
X154261904Y-100728261D02*
X154166666Y-100823500D01*
X154166666Y-100823500D02*
X154071428Y-100871119D01*
X154071428Y-100871119D02*
X153880952Y-100871119D01*
X153880952Y-100871119D02*
X153785714Y-100823500D01*
X153785714Y-100823500D02*
X153690476Y-100728261D01*
X153690476Y-100728261D02*
X153642857Y-100537785D01*
X153642857Y-100537785D02*
X153642857Y-100204452D01*
X153642857Y-100204452D02*
X153690476Y-100013976D01*
X153690476Y-100013976D02*
X153785714Y-99918738D01*
X153785714Y-99918738D02*
X153880952Y-99871119D01*
X154738095Y-100871119D02*
X154738095Y-99871119D01*
X154738095Y-99871119D02*
X155309523Y-100871119D01*
X155309523Y-100871119D02*
X155309523Y-99871119D01*
X172047619Y-43871119D02*
X172238095Y-43871119D01*
X172238095Y-43871119D02*
X172333333Y-43918738D01*
X172333333Y-43918738D02*
X172428571Y-44013976D01*
X172428571Y-44013976D02*
X172476190Y-44204452D01*
X172476190Y-44204452D02*
X172476190Y-44537785D01*
X172476190Y-44537785D02*
X172428571Y-44728261D01*
X172428571Y-44728261D02*
X172333333Y-44823500D01*
X172333333Y-44823500D02*
X172238095Y-44871119D01*
X172238095Y-44871119D02*
X172047619Y-44871119D01*
X172047619Y-44871119D02*
X171952381Y-44823500D01*
X171952381Y-44823500D02*
X171857143Y-44728261D01*
X171857143Y-44728261D02*
X171809524Y-44537785D01*
X171809524Y-44537785D02*
X171809524Y-44204452D01*
X171809524Y-44204452D02*
X171857143Y-44013976D01*
X171857143Y-44013976D02*
X171952381Y-43918738D01*
X171952381Y-43918738D02*
X172047619Y-43871119D01*
X173238095Y-44347309D02*
X172904762Y-44347309D01*
X172904762Y-44871119D02*
X172904762Y-43871119D01*
X172904762Y-43871119D02*
X173380952Y-43871119D01*
X174095238Y-44347309D02*
X173761905Y-44347309D01*
X173761905Y-44871119D02*
X173761905Y-43871119D01*
X173761905Y-43871119D02*
X174238095Y-43871119D01*
X172047619Y-71871119D02*
X172238095Y-71871119D01*
X172238095Y-71871119D02*
X172333333Y-71918738D01*
X172333333Y-71918738D02*
X172428571Y-72013976D01*
X172428571Y-72013976D02*
X172476190Y-72204452D01*
X172476190Y-72204452D02*
X172476190Y-72537785D01*
X172476190Y-72537785D02*
X172428571Y-72728261D01*
X172428571Y-72728261D02*
X172333333Y-72823500D01*
X172333333Y-72823500D02*
X172238095Y-72871119D01*
X172238095Y-72871119D02*
X172047619Y-72871119D01*
X172047619Y-72871119D02*
X171952381Y-72823500D01*
X171952381Y-72823500D02*
X171857143Y-72728261D01*
X171857143Y-72728261D02*
X171809524Y-72537785D01*
X171809524Y-72537785D02*
X171809524Y-72204452D01*
X171809524Y-72204452D02*
X171857143Y-72013976D01*
X171857143Y-72013976D02*
X171952381Y-71918738D01*
X171952381Y-71918738D02*
X172047619Y-71871119D01*
X173238095Y-72347309D02*
X172904762Y-72347309D01*
X172904762Y-72871119D02*
X172904762Y-71871119D01*
X172904762Y-71871119D02*
X173380952Y-71871119D01*
X174095238Y-72347309D02*
X173761905Y-72347309D01*
X173761905Y-72871119D02*
X173761905Y-71871119D01*
X173761905Y-71871119D02*
X174238095Y-71871119D01*
X172047619Y-99871119D02*
X172238095Y-99871119D01*
X172238095Y-99871119D02*
X172333333Y-99918738D01*
X172333333Y-99918738D02*
X172428571Y-100013976D01*
X172428571Y-100013976D02*
X172476190Y-100204452D01*
X172476190Y-100204452D02*
X172476190Y-100537785D01*
X172476190Y-100537785D02*
X172428571Y-100728261D01*
X172428571Y-100728261D02*
X172333333Y-100823500D01*
X172333333Y-100823500D02*
X172238095Y-100871119D01*
X172238095Y-100871119D02*
X172047619Y-100871119D01*
X172047619Y-100871119D02*
X171952381Y-100823500D01*
X171952381Y-100823500D02*
X171857143Y-100728261D01*
X171857143Y-100728261D02*
X171809524Y-100537785D01*
X171809524Y-100537785D02*
X171809524Y-100204452D01*
X171809524Y-100204452D02*
X171857143Y-100013976D01*
X171857143Y-100013976D02*
X171952381Y-99918738D01*
X171952381Y-99918738D02*
X172047619Y-99871119D01*
X173238095Y-100347309D02*
X172904762Y-100347309D01*
X172904762Y-100871119D02*
X172904762Y-99871119D01*
X172904762Y-99871119D02*
X173380952Y-99871119D01*
X174095238Y-100347309D02*
X173761905Y-100347309D01*
X173761905Y-100871119D02*
X173761905Y-99871119D01*
X173761905Y-99871119D02*
X174238095Y-99871119D01*
X183880952Y-43871119D02*
X184071428Y-43871119D01*
X184071428Y-43871119D02*
X184166666Y-43918738D01*
X184166666Y-43918738D02*
X184261904Y-44013976D01*
X184261904Y-44013976D02*
X184309523Y-44204452D01*
X184309523Y-44204452D02*
X184309523Y-44537785D01*
X184309523Y-44537785D02*
X184261904Y-44728261D01*
X184261904Y-44728261D02*
X184166666Y-44823500D01*
X184166666Y-44823500D02*
X184071428Y-44871119D01*
X184071428Y-44871119D02*
X183880952Y-44871119D01*
X183880952Y-44871119D02*
X183785714Y-44823500D01*
X183785714Y-44823500D02*
X183690476Y-44728261D01*
X183690476Y-44728261D02*
X183642857Y-44537785D01*
X183642857Y-44537785D02*
X183642857Y-44204452D01*
X183642857Y-44204452D02*
X183690476Y-44013976D01*
X183690476Y-44013976D02*
X183785714Y-43918738D01*
X183785714Y-43918738D02*
X183880952Y-43871119D01*
X184738095Y-44871119D02*
X184738095Y-43871119D01*
X184738095Y-43871119D02*
X185309523Y-44871119D01*
X185309523Y-44871119D02*
X185309523Y-43871119D01*
X183880952Y-71871119D02*
X184071428Y-71871119D01*
X184071428Y-71871119D02*
X184166666Y-71918738D01*
X184166666Y-71918738D02*
X184261904Y-72013976D01*
X184261904Y-72013976D02*
X184309523Y-72204452D01*
X184309523Y-72204452D02*
X184309523Y-72537785D01*
X184309523Y-72537785D02*
X184261904Y-72728261D01*
X184261904Y-72728261D02*
X184166666Y-72823500D01*
X184166666Y-72823500D02*
X184071428Y-72871119D01*
X184071428Y-72871119D02*
X183880952Y-72871119D01*
X183880952Y-72871119D02*
X183785714Y-72823500D01*
X183785714Y-72823500D02*
X183690476Y-72728261D01*
X183690476Y-72728261D02*
X183642857Y-72537785D01*
X183642857Y-72537785D02*
X183642857Y-72204452D01*
X183642857Y-72204452D02*
X183690476Y-72013976D01*
X183690476Y-72013976D02*
X183785714Y-71918738D01*
X183785714Y-71918738D02*
X183880952Y-71871119D01*
X184738095Y-72871119D02*
X184738095Y-71871119D01*
X184738095Y-71871119D02*
X185309523Y-72871119D01*
X185309523Y-72871119D02*
X185309523Y-71871119D01*
X183880952Y-99871119D02*
X184071428Y-99871119D01*
X184071428Y-99871119D02*
X184166666Y-99918738D01*
X184166666Y-99918738D02*
X184261904Y-100013976D01*
X184261904Y-100013976D02*
X184309523Y-100204452D01*
X184309523Y-100204452D02*
X184309523Y-100537785D01*
X184309523Y-100537785D02*
X184261904Y-100728261D01*
X184261904Y-100728261D02*
X184166666Y-100823500D01*
X184166666Y-100823500D02*
X184071428Y-100871119D01*
X184071428Y-100871119D02*
X183880952Y-100871119D01*
X183880952Y-100871119D02*
X183785714Y-100823500D01*
X183785714Y-100823500D02*
X183690476Y-100728261D01*
X183690476Y-100728261D02*
X183642857Y-100537785D01*
X183642857Y-100537785D02*
X183642857Y-100204452D01*
X183642857Y-100204452D02*
X183690476Y-100013976D01*
X183690476Y-100013976D02*
X183785714Y-99918738D01*
X183785714Y-99918738D02*
X183880952Y-99871119D01*
X184738095Y-100871119D02*
X184738095Y-99871119D01*
X184738095Y-99871119D02*
X185309523Y-100871119D01*
X185309523Y-100871119D02*
X185309523Y-99871119D01*
D11*
X125888427Y-42716854D02*
X127302641Y-43423961D01*
X127302641Y-43423961D02*
X126595534Y-42009747D01*
X128514823Y-42009747D02*
X128514823Y-42110763D01*
X128514823Y-42110763D02*
X128413808Y-42312793D01*
X128413808Y-42312793D02*
X128312793Y-42413808D01*
X128312793Y-42413808D02*
X128110762Y-42514824D01*
X128110762Y-42514824D02*
X127908732Y-42514824D01*
X127908732Y-42514824D02*
X127757209Y-42464316D01*
X127757209Y-42464316D02*
X127504671Y-42312793D01*
X127504671Y-42312793D02*
X127353148Y-42161270D01*
X127353148Y-42161270D02*
X127201625Y-41908732D01*
X127201625Y-41908732D02*
X127151117Y-41757209D01*
X127151117Y-41757209D02*
X127151117Y-41555179D01*
X127151117Y-41555179D02*
X127252133Y-41353148D01*
X127252133Y-41353148D02*
X127353148Y-41252133D01*
X127353148Y-41252133D02*
X127555178Y-41151118D01*
X127555178Y-41151118D02*
X127656194Y-41151118D01*
X129575484Y-40949087D02*
X129575484Y-41050102D01*
X129575484Y-41050102D02*
X129474468Y-41252133D01*
X129474468Y-41252133D02*
X129373453Y-41353148D01*
X129373453Y-41353148D02*
X129171423Y-41454163D01*
X129171423Y-41454163D02*
X128969392Y-41454163D01*
X128969392Y-41454163D02*
X128817869Y-41403656D01*
X128817869Y-41403656D02*
X128565331Y-41252133D01*
X128565331Y-41252133D02*
X128413808Y-41100610D01*
X128413808Y-41100610D02*
X128262285Y-40848072D01*
X128262285Y-40848072D02*
X128211778Y-40696549D01*
X128211778Y-40696549D02*
X128211778Y-40494519D01*
X128211778Y-40494519D02*
X128312793Y-40292488D01*
X128312793Y-40292488D02*
X128413808Y-40191473D01*
X128413808Y-40191473D02*
X128615839Y-40090457D01*
X128615839Y-40090457D02*
X128716854Y-40090457D01*
X125888427Y-70716854D02*
X127302641Y-71423961D01*
X127302641Y-71423961D02*
X126595534Y-70009747D01*
X128514823Y-70009747D02*
X128514823Y-70110763D01*
X128514823Y-70110763D02*
X128413808Y-70312793D01*
X128413808Y-70312793D02*
X128312793Y-70413808D01*
X128312793Y-70413808D02*
X128110762Y-70514824D01*
X128110762Y-70514824D02*
X127908732Y-70514824D01*
X127908732Y-70514824D02*
X127757209Y-70464316D01*
X127757209Y-70464316D02*
X127504671Y-70312793D01*
X127504671Y-70312793D02*
X127353148Y-70161270D01*
X127353148Y-70161270D02*
X127201625Y-69908732D01*
X127201625Y-69908732D02*
X127151117Y-69757209D01*
X127151117Y-69757209D02*
X127151117Y-69555179D01*
X127151117Y-69555179D02*
X127252133Y-69353148D01*
X127252133Y-69353148D02*
X127353148Y-69252133D01*
X127353148Y-69252133D02*
X127555178Y-69151118D01*
X127555178Y-69151118D02*
X127656194Y-69151118D01*
X129575484Y-68949087D02*
X129575484Y-69050102D01*
X129575484Y-69050102D02*
X129474468Y-69252133D01*
X129474468Y-69252133D02*
X129373453Y-69353148D01*
X129373453Y-69353148D02*
X129171423Y-69454163D01*
X129171423Y-69454163D02*
X128969392Y-69454163D01*
X128969392Y-69454163D02*
X128817869Y-69403656D01*
X128817869Y-69403656D02*
X128565331Y-69252133D01*
X128565331Y-69252133D02*
X128413808Y-69100610D01*
X128413808Y-69100610D02*
X128262285Y-68848072D01*
X128262285Y-68848072D02*
X128211778Y-68696549D01*
X128211778Y-68696549D02*
X128211778Y-68494519D01*
X128211778Y-68494519D02*
X128312793Y-68292488D01*
X128312793Y-68292488D02*
X128413808Y-68191473D01*
X128413808Y-68191473D02*
X128615839Y-68090457D01*
X128615839Y-68090457D02*
X128716854Y-68090457D01*
X125888427Y-98716854D02*
X127302641Y-99423961D01*
X127302641Y-99423961D02*
X126595534Y-98009747D01*
X128514823Y-98009747D02*
X128514823Y-98110763D01*
X128514823Y-98110763D02*
X128413808Y-98312793D01*
X128413808Y-98312793D02*
X128312793Y-98413808D01*
X128312793Y-98413808D02*
X128110762Y-98514824D01*
X128110762Y-98514824D02*
X127908732Y-98514824D01*
X127908732Y-98514824D02*
X127757209Y-98464316D01*
X127757209Y-98464316D02*
X127504671Y-98312793D01*
X127504671Y-98312793D02*
X127353148Y-98161270D01*
X127353148Y-98161270D02*
X127201625Y-97908732D01*
X127201625Y-97908732D02*
X127151117Y-97757209D01*
X127151117Y-97757209D02*
X127151117Y-97555179D01*
X127151117Y-97555179D02*
X127252133Y-97353148D01*
X127252133Y-97353148D02*
X127353148Y-97252133D01*
X127353148Y-97252133D02*
X127555178Y-97151118D01*
X127555178Y-97151118D02*
X127656194Y-97151118D01*
X129575484Y-96949087D02*
X129575484Y-97050102D01*
X129575484Y-97050102D02*
X129474468Y-97252133D01*
X129474468Y-97252133D02*
X129373453Y-97353148D01*
X129373453Y-97353148D02*
X129171423Y-97454163D01*
X129171423Y-97454163D02*
X128969392Y-97454163D01*
X128969392Y-97454163D02*
X128817869Y-97403656D01*
X128817869Y-97403656D02*
X128565331Y-97252133D01*
X128565331Y-97252133D02*
X128413808Y-97100610D01*
X128413808Y-97100610D02*
X128262285Y-96848072D01*
X128262285Y-96848072D02*
X128211778Y-96696549D01*
X128211778Y-96696549D02*
X128211778Y-96494519D01*
X128211778Y-96494519D02*
X128312793Y-96292488D01*
X128312793Y-96292488D02*
X128413808Y-96191473D01*
X128413808Y-96191473D02*
X128615839Y-96090457D01*
X128615839Y-96090457D02*
X128716854Y-96090457D01*
X155888427Y-42716854D02*
X157302641Y-43423961D01*
X157302641Y-43423961D02*
X156595534Y-42009747D01*
X158514823Y-42009747D02*
X158514823Y-42110763D01*
X158514823Y-42110763D02*
X158413808Y-42312793D01*
X158413808Y-42312793D02*
X158312793Y-42413808D01*
X158312793Y-42413808D02*
X158110762Y-42514824D01*
X158110762Y-42514824D02*
X157908732Y-42514824D01*
X157908732Y-42514824D02*
X157757209Y-42464316D01*
X157757209Y-42464316D02*
X157504671Y-42312793D01*
X157504671Y-42312793D02*
X157353148Y-42161270D01*
X157353148Y-42161270D02*
X157201625Y-41908732D01*
X157201625Y-41908732D02*
X157151117Y-41757209D01*
X157151117Y-41757209D02*
X157151117Y-41555179D01*
X157151117Y-41555179D02*
X157252133Y-41353148D01*
X157252133Y-41353148D02*
X157353148Y-41252133D01*
X157353148Y-41252133D02*
X157555178Y-41151118D01*
X157555178Y-41151118D02*
X157656194Y-41151118D01*
X159575484Y-40949087D02*
X159575484Y-41050102D01*
X159575484Y-41050102D02*
X159474468Y-41252133D01*
X159474468Y-41252133D02*
X159373453Y-41353148D01*
X159373453Y-41353148D02*
X159171423Y-41454163D01*
X159171423Y-41454163D02*
X158969392Y-41454163D01*
X158969392Y-41454163D02*
X158817869Y-41403656D01*
X158817869Y-41403656D02*
X158565331Y-41252133D01*
X158565331Y-41252133D02*
X158413808Y-41100610D01*
X158413808Y-41100610D02*
X158262285Y-40848072D01*
X158262285Y-40848072D02*
X158211778Y-40696549D01*
X158211778Y-40696549D02*
X158211778Y-40494519D01*
X158211778Y-40494519D02*
X158312793Y-40292488D01*
X158312793Y-40292488D02*
X158413808Y-40191473D01*
X158413808Y-40191473D02*
X158615839Y-40090457D01*
X158615839Y-40090457D02*
X158716854Y-40090457D01*
X155888427Y-70716854D02*
X157302641Y-71423961D01*
X157302641Y-71423961D02*
X156595534Y-70009747D01*
X158514823Y-70009747D02*
X158514823Y-70110763D01*
X158514823Y-70110763D02*
X158413808Y-70312793D01*
X158413808Y-70312793D02*
X158312793Y-70413808D01*
X158312793Y-70413808D02*
X158110762Y-70514824D01*
X158110762Y-70514824D02*
X157908732Y-70514824D01*
X157908732Y-70514824D02*
X157757209Y-70464316D01*
X157757209Y-70464316D02*
X157504671Y-70312793D01*
X157504671Y-70312793D02*
X157353148Y-70161270D01*
X157353148Y-70161270D02*
X157201625Y-69908732D01*
X157201625Y-69908732D02*
X157151117Y-69757209D01*
X157151117Y-69757209D02*
X157151117Y-69555179D01*
X157151117Y-69555179D02*
X157252133Y-69353148D01*
X157252133Y-69353148D02*
X157353148Y-69252133D01*
X157353148Y-69252133D02*
X157555178Y-69151118D01*
X157555178Y-69151118D02*
X157656194Y-69151118D01*
X159575484Y-68949087D02*
X159575484Y-69050102D01*
X159575484Y-69050102D02*
X159474468Y-69252133D01*
X159474468Y-69252133D02*
X159373453Y-69353148D01*
X159373453Y-69353148D02*
X159171423Y-69454163D01*
X159171423Y-69454163D02*
X158969392Y-69454163D01*
X158969392Y-69454163D02*
X158817869Y-69403656D01*
X158817869Y-69403656D02*
X158565331Y-69252133D01*
X158565331Y-69252133D02*
X158413808Y-69100610D01*
X158413808Y-69100610D02*
X158262285Y-68848072D01*
X158262285Y-68848072D02*
X158211778Y-68696549D01*
X158211778Y-68696549D02*
X158211778Y-68494519D01*
X158211778Y-68494519D02*
X158312793Y-68292488D01*
X158312793Y-68292488D02*
X158413808Y-68191473D01*
X158413808Y-68191473D02*
X158615839Y-68090457D01*
X158615839Y-68090457D02*
X158716854Y-68090457D01*
X155888427Y-98716854D02*
X157302641Y-99423961D01*
X157302641Y-99423961D02*
X156595534Y-98009747D01*
X158514823Y-98009747D02*
X158514823Y-98110763D01*
X158514823Y-98110763D02*
X158413808Y-98312793D01*
X158413808Y-98312793D02*
X158312793Y-98413808D01*
X158312793Y-98413808D02*
X158110762Y-98514824D01*
X158110762Y-98514824D02*
X157908732Y-98514824D01*
X157908732Y-98514824D02*
X157757209Y-98464316D01*
X157757209Y-98464316D02*
X157504671Y-98312793D01*
X157504671Y-98312793D02*
X157353148Y-98161270D01*
X157353148Y-98161270D02*
X157201625Y-97908732D01*
X157201625Y-97908732D02*
X157151117Y-97757209D01*
X157151117Y-97757209D02*
X157151117Y-97555179D01*
X157151117Y-97555179D02*
X157252133Y-97353148D01*
X157252133Y-97353148D02*
X157353148Y-97252133D01*
X157353148Y-97252133D02*
X157555178Y-97151118D01*
X157555178Y-97151118D02*
X157656194Y-97151118D01*
X159575484Y-96949087D02*
X159575484Y-97050102D01*
X159575484Y-97050102D02*
X159474468Y-97252133D01*
X159474468Y-97252133D02*
X159373453Y-97353148D01*
X159373453Y-97353148D02*
X159171423Y-97454163D01*
X159171423Y-97454163D02*
X158969392Y-97454163D01*
X158969392Y-97454163D02*
X158817869Y-97403656D01*
X158817869Y-97403656D02*
X158565331Y-97252133D01*
X158565331Y-97252133D02*
X158413808Y-97100610D01*
X158413808Y-97100610D02*
X158262285Y-96848072D01*
X158262285Y-96848072D02*
X158211778Y-96696549D01*
X158211778Y-96696549D02*
X158211778Y-96494519D01*
X158211778Y-96494519D02*
X158312793Y-96292488D01*
X158312793Y-96292488D02*
X158413808Y-96191473D01*
X158413808Y-96191473D02*
X158615839Y-96090457D01*
X158615839Y-96090457D02*
X158716854Y-96090457D01*
X185888427Y-42716854D02*
X187302641Y-43423961D01*
X187302641Y-43423961D02*
X186595534Y-42009747D01*
X188514823Y-42009747D02*
X188514823Y-42110763D01*
X188514823Y-42110763D02*
X188413808Y-42312793D01*
X188413808Y-42312793D02*
X188312793Y-42413808D01*
X188312793Y-42413808D02*
X188110762Y-42514824D01*
X188110762Y-42514824D02*
X187908732Y-42514824D01*
X187908732Y-42514824D02*
X187757209Y-42464316D01*
X187757209Y-42464316D02*
X187504671Y-42312793D01*
X187504671Y-42312793D02*
X187353148Y-42161270D01*
X187353148Y-42161270D02*
X187201625Y-41908732D01*
X187201625Y-41908732D02*
X187151117Y-41757209D01*
X187151117Y-41757209D02*
X187151117Y-41555179D01*
X187151117Y-41555179D02*
X187252133Y-41353148D01*
X187252133Y-41353148D02*
X187353148Y-41252133D01*
X187353148Y-41252133D02*
X187555178Y-41151118D01*
X187555178Y-41151118D02*
X187656194Y-41151118D01*
X189575484Y-40949087D02*
X189575484Y-41050102D01*
X189575484Y-41050102D02*
X189474468Y-41252133D01*
X189474468Y-41252133D02*
X189373453Y-41353148D01*
X189373453Y-41353148D02*
X189171423Y-41454163D01*
X189171423Y-41454163D02*
X188969392Y-41454163D01*
X188969392Y-41454163D02*
X188817869Y-41403656D01*
X188817869Y-41403656D02*
X188565331Y-41252133D01*
X188565331Y-41252133D02*
X188413808Y-41100610D01*
X188413808Y-41100610D02*
X188262285Y-40848072D01*
X188262285Y-40848072D02*
X188211778Y-40696549D01*
X188211778Y-40696549D02*
X188211778Y-40494519D01*
X188211778Y-40494519D02*
X188312793Y-40292488D01*
X188312793Y-40292488D02*
X188413808Y-40191473D01*
X188413808Y-40191473D02*
X188615839Y-40090457D01*
X188615839Y-40090457D02*
X188716854Y-40090457D01*
X185888427Y-70716854D02*
X187302641Y-71423961D01*
X187302641Y-71423961D02*
X186595534Y-70009747D01*
X188514823Y-70009747D02*
X188514823Y-70110763D01*
X188514823Y-70110763D02*
X188413808Y-70312793D01*
X188413808Y-70312793D02*
X188312793Y-70413808D01*
X188312793Y-70413808D02*
X188110762Y-70514824D01*
X188110762Y-70514824D02*
X187908732Y-70514824D01*
X187908732Y-70514824D02*
X187757209Y-70464316D01*
X187757209Y-70464316D02*
X187504671Y-70312793D01*
X187504671Y-70312793D02*
X187353148Y-70161270D01*
X187353148Y-70161270D02*
X187201625Y-69908732D01*
X187201625Y-69908732D02*
X187151117Y-69757209D01*
X187151117Y-69757209D02*
X187151117Y-69555179D01*
X187151117Y-69555179D02*
X187252133Y-69353148D01*
X187252133Y-69353148D02*
X187353148Y-69252133D01*
X187353148Y-69252133D02*
X187555178Y-69151118D01*
X187555178Y-69151118D02*
X187656194Y-69151118D01*
X189575484Y-68949087D02*
X189575484Y-69050102D01*
X189575484Y-69050102D02*
X189474468Y-69252133D01*
X189474468Y-69252133D02*
X189373453Y-69353148D01*
X189373453Y-69353148D02*
X189171423Y-69454163D01*
X189171423Y-69454163D02*
X188969392Y-69454163D01*
X188969392Y-69454163D02*
X188817869Y-69403656D01*
X188817869Y-69403656D02*
X188565331Y-69252133D01*
X188565331Y-69252133D02*
X188413808Y-69100610D01*
X188413808Y-69100610D02*
X188262285Y-68848072D01*
X188262285Y-68848072D02*
X188211778Y-68696549D01*
X188211778Y-68696549D02*
X188211778Y-68494519D01*
X188211778Y-68494519D02*
X188312793Y-68292488D01*
X188312793Y-68292488D02*
X188413808Y-68191473D01*
X188413808Y-68191473D02*
X188615839Y-68090457D01*
X188615839Y-68090457D02*
X188716854Y-68090457D01*
X185888427Y-98716854D02*
X187302641Y-99423961D01*
X187302641Y-99423961D02*
X186595534Y-98009747D01*
X188514823Y-98009747D02*
X188514823Y-98110763D01*
X188514823Y-98110763D02*
X188413808Y-98312793D01*
X188413808Y-98312793D02*
X188312793Y-98413808D01*
X188312793Y-98413808D02*
X188110762Y-98514824D01*
X188110762Y-98514824D02*
X187908732Y-98514824D01*
X187908732Y-98514824D02*
X187757209Y-98464316D01*
X187757209Y-98464316D02*
X187504671Y-98312793D01*
X187504671Y-98312793D02*
X187353148Y-98161270D01*
X187353148Y-98161270D02*
X187201625Y-97908732D01*
X187201625Y-97908732D02*
X187151117Y-97757209D01*
X187151117Y-97757209D02*
X187151117Y-97555179D01*
X187151117Y-97555179D02*
X187252133Y-97353148D01*
X187252133Y-97353148D02*
X187353148Y-97252133D01*
X187353148Y-97252133D02*
X187555178Y-97151118D01*
X187555178Y-97151118D02*
X187656194Y-97151118D01*
X189575484Y-96949087D02*
X189575484Y-97050102D01*
X189575484Y-97050102D02*
X189474468Y-97252133D01*
X189474468Y-97252133D02*
X189373453Y-97353148D01*
X189373453Y-97353148D02*
X189171423Y-97454163D01*
X189171423Y-97454163D02*
X188969392Y-97454163D01*
X188969392Y-97454163D02*
X188817869Y-97403656D01*
X188817869Y-97403656D02*
X188565331Y-97252133D01*
X188565331Y-97252133D02*
X188413808Y-97100610D01*
X188413808Y-97100610D02*
X188262285Y-96848072D01*
X188262285Y-96848072D02*
X188211778Y-96696549D01*
X188211778Y-96696549D02*
X188211778Y-96494519D01*
X188211778Y-96494519D02*
X188312793Y-96292488D01*
X188312793Y-96292488D02*
X188413808Y-96191473D01*
X188413808Y-96191473D02*
X188615839Y-96090457D01*
X188615839Y-96090457D02*
X188716854Y-96090457D01*
X128161270Y-24954973D02*
X128211778Y-25106496D01*
X128211778Y-25106496D02*
X128363300Y-25258019D01*
X128363300Y-25258019D02*
X128565331Y-25359034D01*
X128565331Y-25359034D02*
X128767361Y-25359034D01*
X128767361Y-25359034D02*
X128918884Y-25308526D01*
X128918884Y-25308526D02*
X129171422Y-25157003D01*
X129171422Y-25157003D02*
X129322945Y-25005480D01*
X129322945Y-25005480D02*
X129474468Y-24752942D01*
X129474468Y-24752942D02*
X129524976Y-24601419D01*
X129524976Y-24601419D02*
X129524976Y-24399389D01*
X129524976Y-24399389D02*
X129423961Y-24197358D01*
X129423961Y-24197358D02*
X129322945Y-24096343D01*
X129322945Y-24096343D02*
X129120915Y-23995328D01*
X129120915Y-23995328D02*
X129019900Y-23995328D01*
X129019900Y-23995328D02*
X128666346Y-24348881D01*
X128666346Y-24348881D02*
X128868377Y-24550912D01*
X128666346Y-23439744D02*
X127605686Y-24500404D01*
X127605686Y-24500404D02*
X128060255Y-22833652D01*
X128060255Y-22833652D02*
X126999594Y-23894313D01*
X127555178Y-22328576D02*
X126494518Y-23389236D01*
X126494518Y-23389236D02*
X126241980Y-23136698D01*
X126241980Y-23136698D02*
X126140965Y-22934667D01*
X126140965Y-22934667D02*
X126140965Y-22732637D01*
X126140965Y-22732637D02*
X126191472Y-22581114D01*
X126191472Y-22581114D02*
X126342995Y-22328576D01*
X126342995Y-22328576D02*
X126494518Y-22177053D01*
X126494518Y-22177053D02*
X126747056Y-22025530D01*
X126747056Y-22025530D02*
X126898579Y-21975022D01*
X126898579Y-21975022D02*
X127100609Y-21975022D01*
X127100609Y-21975022D02*
X127302640Y-22076038D01*
X127302640Y-22076038D02*
X127555178Y-22328576D01*
X128161270Y-52954973D02*
X128211778Y-53106496D01*
X128211778Y-53106496D02*
X128363300Y-53258019D01*
X128363300Y-53258019D02*
X128565331Y-53359034D01*
X128565331Y-53359034D02*
X128767361Y-53359034D01*
X128767361Y-53359034D02*
X128918884Y-53308526D01*
X128918884Y-53308526D02*
X129171422Y-53157003D01*
X129171422Y-53157003D02*
X129322945Y-53005480D01*
X129322945Y-53005480D02*
X129474468Y-52752942D01*
X129474468Y-52752942D02*
X129524976Y-52601419D01*
X129524976Y-52601419D02*
X129524976Y-52399389D01*
X129524976Y-52399389D02*
X129423961Y-52197358D01*
X129423961Y-52197358D02*
X129322945Y-52096343D01*
X129322945Y-52096343D02*
X129120915Y-51995328D01*
X129120915Y-51995328D02*
X129019900Y-51995328D01*
X129019900Y-51995328D02*
X128666346Y-52348881D01*
X128666346Y-52348881D02*
X128868377Y-52550912D01*
X128666346Y-51439744D02*
X127605686Y-52500404D01*
X127605686Y-52500404D02*
X128060255Y-50833652D01*
X128060255Y-50833652D02*
X126999594Y-51894313D01*
X127555178Y-50328576D02*
X126494518Y-51389236D01*
X126494518Y-51389236D02*
X126241980Y-51136698D01*
X126241980Y-51136698D02*
X126140965Y-50934667D01*
X126140965Y-50934667D02*
X126140965Y-50732637D01*
X126140965Y-50732637D02*
X126191472Y-50581114D01*
X126191472Y-50581114D02*
X126342995Y-50328576D01*
X126342995Y-50328576D02*
X126494518Y-50177053D01*
X126494518Y-50177053D02*
X126747056Y-50025530D01*
X126747056Y-50025530D02*
X126898579Y-49975022D01*
X126898579Y-49975022D02*
X127100609Y-49975022D01*
X127100609Y-49975022D02*
X127302640Y-50076038D01*
X127302640Y-50076038D02*
X127555178Y-50328576D01*
X128161270Y-80954973D02*
X128211778Y-81106496D01*
X128211778Y-81106496D02*
X128363300Y-81258019D01*
X128363300Y-81258019D02*
X128565331Y-81359034D01*
X128565331Y-81359034D02*
X128767361Y-81359034D01*
X128767361Y-81359034D02*
X128918884Y-81308526D01*
X128918884Y-81308526D02*
X129171422Y-81157003D01*
X129171422Y-81157003D02*
X129322945Y-81005480D01*
X129322945Y-81005480D02*
X129474468Y-80752942D01*
X129474468Y-80752942D02*
X129524976Y-80601419D01*
X129524976Y-80601419D02*
X129524976Y-80399389D01*
X129524976Y-80399389D02*
X129423961Y-80197358D01*
X129423961Y-80197358D02*
X129322945Y-80096343D01*
X129322945Y-80096343D02*
X129120915Y-79995328D01*
X129120915Y-79995328D02*
X129019900Y-79995328D01*
X129019900Y-79995328D02*
X128666346Y-80348881D01*
X128666346Y-80348881D02*
X128868377Y-80550912D01*
X128666346Y-79439744D02*
X127605686Y-80500404D01*
X127605686Y-80500404D02*
X128060255Y-78833652D01*
X128060255Y-78833652D02*
X126999594Y-79894313D01*
X127555178Y-78328576D02*
X126494518Y-79389236D01*
X126494518Y-79389236D02*
X126241980Y-79136698D01*
X126241980Y-79136698D02*
X126140965Y-78934667D01*
X126140965Y-78934667D02*
X126140965Y-78732637D01*
X126140965Y-78732637D02*
X126191472Y-78581114D01*
X126191472Y-78581114D02*
X126342995Y-78328576D01*
X126342995Y-78328576D02*
X126494518Y-78177053D01*
X126494518Y-78177053D02*
X126747056Y-78025530D01*
X126747056Y-78025530D02*
X126898579Y-77975022D01*
X126898579Y-77975022D02*
X127100609Y-77975022D01*
X127100609Y-77975022D02*
X127302640Y-78076038D01*
X127302640Y-78076038D02*
X127555178Y-78328576D01*
X158161270Y-24954973D02*
X158211778Y-25106496D01*
X158211778Y-25106496D02*
X158363300Y-25258019D01*
X158363300Y-25258019D02*
X158565331Y-25359034D01*
X158565331Y-25359034D02*
X158767361Y-25359034D01*
X158767361Y-25359034D02*
X158918884Y-25308526D01*
X158918884Y-25308526D02*
X159171422Y-25157003D01*
X159171422Y-25157003D02*
X159322945Y-25005480D01*
X159322945Y-25005480D02*
X159474468Y-24752942D01*
X159474468Y-24752942D02*
X159524976Y-24601419D01*
X159524976Y-24601419D02*
X159524976Y-24399389D01*
X159524976Y-24399389D02*
X159423961Y-24197358D01*
X159423961Y-24197358D02*
X159322945Y-24096343D01*
X159322945Y-24096343D02*
X159120915Y-23995328D01*
X159120915Y-23995328D02*
X159019900Y-23995328D01*
X159019900Y-23995328D02*
X158666346Y-24348881D01*
X158666346Y-24348881D02*
X158868377Y-24550912D01*
X158666346Y-23439744D02*
X157605686Y-24500404D01*
X157605686Y-24500404D02*
X158060255Y-22833652D01*
X158060255Y-22833652D02*
X156999594Y-23894313D01*
X157555178Y-22328576D02*
X156494518Y-23389236D01*
X156494518Y-23389236D02*
X156241980Y-23136698D01*
X156241980Y-23136698D02*
X156140965Y-22934667D01*
X156140965Y-22934667D02*
X156140965Y-22732637D01*
X156140965Y-22732637D02*
X156191472Y-22581114D01*
X156191472Y-22581114D02*
X156342995Y-22328576D01*
X156342995Y-22328576D02*
X156494518Y-22177053D01*
X156494518Y-22177053D02*
X156747056Y-22025530D01*
X156747056Y-22025530D02*
X156898579Y-21975022D01*
X156898579Y-21975022D02*
X157100609Y-21975022D01*
X157100609Y-21975022D02*
X157302640Y-22076038D01*
X157302640Y-22076038D02*
X157555178Y-22328576D01*
X158161270Y-52954973D02*
X158211778Y-53106496D01*
X158211778Y-53106496D02*
X158363300Y-53258019D01*
X158363300Y-53258019D02*
X158565331Y-53359034D01*
X158565331Y-53359034D02*
X158767361Y-53359034D01*
X158767361Y-53359034D02*
X158918884Y-53308526D01*
X158918884Y-53308526D02*
X159171422Y-53157003D01*
X159171422Y-53157003D02*
X159322945Y-53005480D01*
X159322945Y-53005480D02*
X159474468Y-52752942D01*
X159474468Y-52752942D02*
X159524976Y-52601419D01*
X159524976Y-52601419D02*
X159524976Y-52399389D01*
X159524976Y-52399389D02*
X159423961Y-52197358D01*
X159423961Y-52197358D02*
X159322945Y-52096343D01*
X159322945Y-52096343D02*
X159120915Y-51995328D01*
X159120915Y-51995328D02*
X159019900Y-51995328D01*
X159019900Y-51995328D02*
X158666346Y-52348881D01*
X158666346Y-52348881D02*
X158868377Y-52550912D01*
X158666346Y-51439744D02*
X157605686Y-52500404D01*
X157605686Y-52500404D02*
X158060255Y-50833652D01*
X158060255Y-50833652D02*
X156999594Y-51894313D01*
X157555178Y-50328576D02*
X156494518Y-51389236D01*
X156494518Y-51389236D02*
X156241980Y-51136698D01*
X156241980Y-51136698D02*
X156140965Y-50934667D01*
X156140965Y-50934667D02*
X156140965Y-50732637D01*
X156140965Y-50732637D02*
X156191472Y-50581114D01*
X156191472Y-50581114D02*
X156342995Y-50328576D01*
X156342995Y-50328576D02*
X156494518Y-50177053D01*
X156494518Y-50177053D02*
X156747056Y-50025530D01*
X156747056Y-50025530D02*
X156898579Y-49975022D01*
X156898579Y-49975022D02*
X157100609Y-49975022D01*
X157100609Y-49975022D02*
X157302640Y-50076038D01*
X157302640Y-50076038D02*
X157555178Y-50328576D01*
X158161270Y-80954973D02*
X158211778Y-81106496D01*
X158211778Y-81106496D02*
X158363300Y-81258019D01*
X158363300Y-81258019D02*
X158565331Y-81359034D01*
X158565331Y-81359034D02*
X158767361Y-81359034D01*
X158767361Y-81359034D02*
X158918884Y-81308526D01*
X158918884Y-81308526D02*
X159171422Y-81157003D01*
X159171422Y-81157003D02*
X159322945Y-81005480D01*
X159322945Y-81005480D02*
X159474468Y-80752942D01*
X159474468Y-80752942D02*
X159524976Y-80601419D01*
X159524976Y-80601419D02*
X159524976Y-80399389D01*
X159524976Y-80399389D02*
X159423961Y-80197358D01*
X159423961Y-80197358D02*
X159322945Y-80096343D01*
X159322945Y-80096343D02*
X159120915Y-79995328D01*
X159120915Y-79995328D02*
X159019900Y-79995328D01*
X159019900Y-79995328D02*
X158666346Y-80348881D01*
X158666346Y-80348881D02*
X158868377Y-80550912D01*
X158666346Y-79439744D02*
X157605686Y-80500404D01*
X157605686Y-80500404D02*
X158060255Y-78833652D01*
X158060255Y-78833652D02*
X156999594Y-79894313D01*
X157555178Y-78328576D02*
X156494518Y-79389236D01*
X156494518Y-79389236D02*
X156241980Y-79136698D01*
X156241980Y-79136698D02*
X156140965Y-78934667D01*
X156140965Y-78934667D02*
X156140965Y-78732637D01*
X156140965Y-78732637D02*
X156191472Y-78581114D01*
X156191472Y-78581114D02*
X156342995Y-78328576D01*
X156342995Y-78328576D02*
X156494518Y-78177053D01*
X156494518Y-78177053D02*
X156747056Y-78025530D01*
X156747056Y-78025530D02*
X156898579Y-77975022D01*
X156898579Y-77975022D02*
X157100609Y-77975022D01*
X157100609Y-77975022D02*
X157302640Y-78076038D01*
X157302640Y-78076038D02*
X157555178Y-78328576D01*
X188161270Y-24954973D02*
X188211778Y-25106496D01*
X188211778Y-25106496D02*
X188363300Y-25258019D01*
X188363300Y-25258019D02*
X188565331Y-25359034D01*
X188565331Y-25359034D02*
X188767361Y-25359034D01*
X188767361Y-25359034D02*
X188918884Y-25308526D01*
X188918884Y-25308526D02*
X189171422Y-25157003D01*
X189171422Y-25157003D02*
X189322945Y-25005480D01*
X189322945Y-25005480D02*
X189474468Y-24752942D01*
X189474468Y-24752942D02*
X189524976Y-24601419D01*
X189524976Y-24601419D02*
X189524976Y-24399389D01*
X189524976Y-24399389D02*
X189423961Y-24197358D01*
X189423961Y-24197358D02*
X189322945Y-24096343D01*
X189322945Y-24096343D02*
X189120915Y-23995328D01*
X189120915Y-23995328D02*
X189019900Y-23995328D01*
X189019900Y-23995328D02*
X188666346Y-24348881D01*
X188666346Y-24348881D02*
X188868377Y-24550912D01*
X188666346Y-23439744D02*
X187605686Y-24500404D01*
X187605686Y-24500404D02*
X188060255Y-22833652D01*
X188060255Y-22833652D02*
X186999594Y-23894313D01*
X187555178Y-22328576D02*
X186494518Y-23389236D01*
X186494518Y-23389236D02*
X186241980Y-23136698D01*
X186241980Y-23136698D02*
X186140965Y-22934667D01*
X186140965Y-22934667D02*
X186140965Y-22732637D01*
X186140965Y-22732637D02*
X186191472Y-22581114D01*
X186191472Y-22581114D02*
X186342995Y-22328576D01*
X186342995Y-22328576D02*
X186494518Y-22177053D01*
X186494518Y-22177053D02*
X186747056Y-22025530D01*
X186747056Y-22025530D02*
X186898579Y-21975022D01*
X186898579Y-21975022D02*
X187100609Y-21975022D01*
X187100609Y-21975022D02*
X187302640Y-22076038D01*
X187302640Y-22076038D02*
X187555178Y-22328576D01*
X188161270Y-52954973D02*
X188211778Y-53106496D01*
X188211778Y-53106496D02*
X188363300Y-53258019D01*
X188363300Y-53258019D02*
X188565331Y-53359034D01*
X188565331Y-53359034D02*
X188767361Y-53359034D01*
X188767361Y-53359034D02*
X188918884Y-53308526D01*
X188918884Y-53308526D02*
X189171422Y-53157003D01*
X189171422Y-53157003D02*
X189322945Y-53005480D01*
X189322945Y-53005480D02*
X189474468Y-52752942D01*
X189474468Y-52752942D02*
X189524976Y-52601419D01*
X189524976Y-52601419D02*
X189524976Y-52399389D01*
X189524976Y-52399389D02*
X189423961Y-52197358D01*
X189423961Y-52197358D02*
X189322945Y-52096343D01*
X189322945Y-52096343D02*
X189120915Y-51995328D01*
X189120915Y-51995328D02*
X189019900Y-51995328D01*
X189019900Y-51995328D02*
X188666346Y-52348881D01*
X188666346Y-52348881D02*
X188868377Y-52550912D01*
X188666346Y-51439744D02*
X187605686Y-52500404D01*
X187605686Y-52500404D02*
X188060255Y-50833652D01*
X188060255Y-50833652D02*
X186999594Y-51894313D01*
X187555178Y-50328576D02*
X186494518Y-51389236D01*
X186494518Y-51389236D02*
X186241980Y-51136698D01*
X186241980Y-51136698D02*
X186140965Y-50934667D01*
X186140965Y-50934667D02*
X186140965Y-50732637D01*
X186140965Y-50732637D02*
X186191472Y-50581114D01*
X186191472Y-50581114D02*
X186342995Y-50328576D01*
X186342995Y-50328576D02*
X186494518Y-50177053D01*
X186494518Y-50177053D02*
X186747056Y-50025530D01*
X186747056Y-50025530D02*
X186898579Y-49975022D01*
X186898579Y-49975022D02*
X187100609Y-49975022D01*
X187100609Y-49975022D02*
X187302640Y-50076038D01*
X187302640Y-50076038D02*
X187555178Y-50328576D01*
X188161270Y-80954973D02*
X188211778Y-81106496D01*
X188211778Y-81106496D02*
X188363300Y-81258019D01*
X188363300Y-81258019D02*
X188565331Y-81359034D01*
X188565331Y-81359034D02*
X188767361Y-81359034D01*
X188767361Y-81359034D02*
X188918884Y-81308526D01*
X188918884Y-81308526D02*
X189171422Y-81157003D01*
X189171422Y-81157003D02*
X189322945Y-81005480D01*
X189322945Y-81005480D02*
X189474468Y-80752942D01*
X189474468Y-80752942D02*
X189524976Y-80601419D01*
X189524976Y-80601419D02*
X189524976Y-80399389D01*
X189524976Y-80399389D02*
X189423961Y-80197358D01*
X189423961Y-80197358D02*
X189322945Y-80096343D01*
X189322945Y-80096343D02*
X189120915Y-79995328D01*
X189120915Y-79995328D02*
X189019900Y-79995328D01*
X189019900Y-79995328D02*
X188666346Y-80348881D01*
X188666346Y-80348881D02*
X188868377Y-80550912D01*
X188666346Y-79439744D02*
X187605686Y-80500404D01*
X187605686Y-80500404D02*
X188060255Y-78833652D01*
X188060255Y-78833652D02*
X186999594Y-79894313D01*
X187555178Y-78328576D02*
X186494518Y-79389236D01*
X186494518Y-79389236D02*
X186241980Y-79136698D01*
X186241980Y-79136698D02*
X186140965Y-78934667D01*
X186140965Y-78934667D02*
X186140965Y-78732637D01*
X186140965Y-78732637D02*
X186191472Y-78581114D01*
X186191472Y-78581114D02*
X186342995Y-78328576D01*
X186342995Y-78328576D02*
X186494518Y-78177053D01*
X186494518Y-78177053D02*
X186747056Y-78025530D01*
X186747056Y-78025530D02*
X186898579Y-77975022D01*
X186898579Y-77975022D02*
X187100609Y-77975022D01*
X187100609Y-77975022D02*
X187302640Y-78076038D01*
X187302640Y-78076038D02*
X187555178Y-78328576D01*
X111111572Y-22783145D02*
X109697358Y-22076038D01*
X109697358Y-22076038D02*
X110404465Y-23490252D01*
X108485176Y-23490252D02*
X108485176Y-23389236D01*
X108485176Y-23389236D02*
X108586191Y-23187206D01*
X108586191Y-23187206D02*
X108687206Y-23086191D01*
X108687206Y-23086191D02*
X108889237Y-22985175D01*
X108889237Y-22985175D02*
X109091267Y-22985175D01*
X109091267Y-22985175D02*
X109242790Y-23035683D01*
X109242790Y-23035683D02*
X109495328Y-23187206D01*
X109495328Y-23187206D02*
X109646851Y-23338729D01*
X109646851Y-23338729D02*
X109798374Y-23591267D01*
X109798374Y-23591267D02*
X109848882Y-23742790D01*
X109848882Y-23742790D02*
X109848882Y-23944820D01*
X109848882Y-23944820D02*
X109747866Y-24146851D01*
X109747866Y-24146851D02*
X109646851Y-24247866D01*
X109646851Y-24247866D02*
X109444821Y-24348881D01*
X109444821Y-24348881D02*
X109343805Y-24348881D01*
X107424515Y-24550912D02*
X107424515Y-24449897D01*
X107424515Y-24449897D02*
X107525531Y-24247866D01*
X107525531Y-24247866D02*
X107626546Y-24146851D01*
X107626546Y-24146851D02*
X107828576Y-24045836D01*
X107828576Y-24045836D02*
X108030607Y-24045836D01*
X108030607Y-24045836D02*
X108182130Y-24096343D01*
X108182130Y-24096343D02*
X108434668Y-24247866D01*
X108434668Y-24247866D02*
X108586191Y-24399389D01*
X108586191Y-24399389D02*
X108737714Y-24651927D01*
X108737714Y-24651927D02*
X108788221Y-24803450D01*
X108788221Y-24803450D02*
X108788221Y-25005480D01*
X108788221Y-25005480D02*
X108687206Y-25207511D01*
X108687206Y-25207511D02*
X108586191Y-25308526D01*
X108586191Y-25308526D02*
X108384160Y-25409542D01*
X108384160Y-25409542D02*
X108283145Y-25409542D01*
X111111572Y-50783145D02*
X109697358Y-50076038D01*
X109697358Y-50076038D02*
X110404465Y-51490252D01*
X108485176Y-51490252D02*
X108485176Y-51389236D01*
X108485176Y-51389236D02*
X108586191Y-51187206D01*
X108586191Y-51187206D02*
X108687206Y-51086191D01*
X108687206Y-51086191D02*
X108889237Y-50985175D01*
X108889237Y-50985175D02*
X109091267Y-50985175D01*
X109091267Y-50985175D02*
X109242790Y-51035683D01*
X109242790Y-51035683D02*
X109495328Y-51187206D01*
X109495328Y-51187206D02*
X109646851Y-51338729D01*
X109646851Y-51338729D02*
X109798374Y-51591267D01*
X109798374Y-51591267D02*
X109848882Y-51742790D01*
X109848882Y-51742790D02*
X109848882Y-51944820D01*
X109848882Y-51944820D02*
X109747866Y-52146851D01*
X109747866Y-52146851D02*
X109646851Y-52247866D01*
X109646851Y-52247866D02*
X109444821Y-52348881D01*
X109444821Y-52348881D02*
X109343805Y-52348881D01*
X107424515Y-52550912D02*
X107424515Y-52449897D01*
X107424515Y-52449897D02*
X107525531Y-52247866D01*
X107525531Y-52247866D02*
X107626546Y-52146851D01*
X107626546Y-52146851D02*
X107828576Y-52045836D01*
X107828576Y-52045836D02*
X108030607Y-52045836D01*
X108030607Y-52045836D02*
X108182130Y-52096343D01*
X108182130Y-52096343D02*
X108434668Y-52247866D01*
X108434668Y-52247866D02*
X108586191Y-52399389D01*
X108586191Y-52399389D02*
X108737714Y-52651927D01*
X108737714Y-52651927D02*
X108788221Y-52803450D01*
X108788221Y-52803450D02*
X108788221Y-53005480D01*
X108788221Y-53005480D02*
X108687206Y-53207511D01*
X108687206Y-53207511D02*
X108586191Y-53308526D01*
X108586191Y-53308526D02*
X108384160Y-53409542D01*
X108384160Y-53409542D02*
X108283145Y-53409542D01*
X111111572Y-78783145D02*
X109697358Y-78076038D01*
X109697358Y-78076038D02*
X110404465Y-79490252D01*
X108485176Y-79490252D02*
X108485176Y-79389236D01*
X108485176Y-79389236D02*
X108586191Y-79187206D01*
X108586191Y-79187206D02*
X108687206Y-79086191D01*
X108687206Y-79086191D02*
X108889237Y-78985175D01*
X108889237Y-78985175D02*
X109091267Y-78985175D01*
X109091267Y-78985175D02*
X109242790Y-79035683D01*
X109242790Y-79035683D02*
X109495328Y-79187206D01*
X109495328Y-79187206D02*
X109646851Y-79338729D01*
X109646851Y-79338729D02*
X109798374Y-79591267D01*
X109798374Y-79591267D02*
X109848882Y-79742790D01*
X109848882Y-79742790D02*
X109848882Y-79944820D01*
X109848882Y-79944820D02*
X109747866Y-80146851D01*
X109747866Y-80146851D02*
X109646851Y-80247866D01*
X109646851Y-80247866D02*
X109444821Y-80348881D01*
X109444821Y-80348881D02*
X109343805Y-80348881D01*
X107424515Y-80550912D02*
X107424515Y-80449897D01*
X107424515Y-80449897D02*
X107525531Y-80247866D01*
X107525531Y-80247866D02*
X107626546Y-80146851D01*
X107626546Y-80146851D02*
X107828576Y-80045836D01*
X107828576Y-80045836D02*
X108030607Y-80045836D01*
X108030607Y-80045836D02*
X108182130Y-80096343D01*
X108182130Y-80096343D02*
X108434668Y-80247866D01*
X108434668Y-80247866D02*
X108586191Y-80399389D01*
X108586191Y-80399389D02*
X108737714Y-80651927D01*
X108737714Y-80651927D02*
X108788221Y-80803450D01*
X108788221Y-80803450D02*
X108788221Y-81005480D01*
X108788221Y-81005480D02*
X108687206Y-81207511D01*
X108687206Y-81207511D02*
X108586191Y-81308526D01*
X108586191Y-81308526D02*
X108384160Y-81409542D01*
X108384160Y-81409542D02*
X108283145Y-81409542D01*
X141111572Y-22783145D02*
X139697358Y-22076038D01*
X139697358Y-22076038D02*
X140404465Y-23490252D01*
X138485176Y-23490252D02*
X138485176Y-23389236D01*
X138485176Y-23389236D02*
X138586191Y-23187206D01*
X138586191Y-23187206D02*
X138687206Y-23086191D01*
X138687206Y-23086191D02*
X138889237Y-22985175D01*
X138889237Y-22985175D02*
X139091267Y-22985175D01*
X139091267Y-22985175D02*
X139242790Y-23035683D01*
X139242790Y-23035683D02*
X139495328Y-23187206D01*
X139495328Y-23187206D02*
X139646851Y-23338729D01*
X139646851Y-23338729D02*
X139798374Y-23591267D01*
X139798374Y-23591267D02*
X139848882Y-23742790D01*
X139848882Y-23742790D02*
X139848882Y-23944820D01*
X139848882Y-23944820D02*
X139747866Y-24146851D01*
X139747866Y-24146851D02*
X139646851Y-24247866D01*
X139646851Y-24247866D02*
X139444821Y-24348881D01*
X139444821Y-24348881D02*
X139343805Y-24348881D01*
X137424515Y-24550912D02*
X137424515Y-24449897D01*
X137424515Y-24449897D02*
X137525531Y-24247866D01*
X137525531Y-24247866D02*
X137626546Y-24146851D01*
X137626546Y-24146851D02*
X137828576Y-24045836D01*
X137828576Y-24045836D02*
X138030607Y-24045836D01*
X138030607Y-24045836D02*
X138182130Y-24096343D01*
X138182130Y-24096343D02*
X138434668Y-24247866D01*
X138434668Y-24247866D02*
X138586191Y-24399389D01*
X138586191Y-24399389D02*
X138737714Y-24651927D01*
X138737714Y-24651927D02*
X138788221Y-24803450D01*
X138788221Y-24803450D02*
X138788221Y-25005480D01*
X138788221Y-25005480D02*
X138687206Y-25207511D01*
X138687206Y-25207511D02*
X138586191Y-25308526D01*
X138586191Y-25308526D02*
X138384160Y-25409542D01*
X138384160Y-25409542D02*
X138283145Y-25409542D01*
X141111572Y-50783145D02*
X139697358Y-50076038D01*
X139697358Y-50076038D02*
X140404465Y-51490252D01*
X138485176Y-51490252D02*
X138485176Y-51389236D01*
X138485176Y-51389236D02*
X138586191Y-51187206D01*
X138586191Y-51187206D02*
X138687206Y-51086191D01*
X138687206Y-51086191D02*
X138889237Y-50985175D01*
X138889237Y-50985175D02*
X139091267Y-50985175D01*
X139091267Y-50985175D02*
X139242790Y-51035683D01*
X139242790Y-51035683D02*
X139495328Y-51187206D01*
X139495328Y-51187206D02*
X139646851Y-51338729D01*
X139646851Y-51338729D02*
X139798374Y-51591267D01*
X139798374Y-51591267D02*
X139848882Y-51742790D01*
X139848882Y-51742790D02*
X139848882Y-51944820D01*
X139848882Y-51944820D02*
X139747866Y-52146851D01*
X139747866Y-52146851D02*
X139646851Y-52247866D01*
X139646851Y-52247866D02*
X139444821Y-52348881D01*
X139444821Y-52348881D02*
X139343805Y-52348881D01*
X137424515Y-52550912D02*
X137424515Y-52449897D01*
X137424515Y-52449897D02*
X137525531Y-52247866D01*
X137525531Y-52247866D02*
X137626546Y-52146851D01*
X137626546Y-52146851D02*
X137828576Y-52045836D01*
X137828576Y-52045836D02*
X138030607Y-52045836D01*
X138030607Y-52045836D02*
X138182130Y-52096343D01*
X138182130Y-52096343D02*
X138434668Y-52247866D01*
X138434668Y-52247866D02*
X138586191Y-52399389D01*
X138586191Y-52399389D02*
X138737714Y-52651927D01*
X138737714Y-52651927D02*
X138788221Y-52803450D01*
X138788221Y-52803450D02*
X138788221Y-53005480D01*
X138788221Y-53005480D02*
X138687206Y-53207511D01*
X138687206Y-53207511D02*
X138586191Y-53308526D01*
X138586191Y-53308526D02*
X138384160Y-53409542D01*
X138384160Y-53409542D02*
X138283145Y-53409542D01*
X141111572Y-78783145D02*
X139697358Y-78076038D01*
X139697358Y-78076038D02*
X140404465Y-79490252D01*
X138485176Y-79490252D02*
X138485176Y-79389236D01*
X138485176Y-79389236D02*
X138586191Y-79187206D01*
X138586191Y-79187206D02*
X138687206Y-79086191D01*
X138687206Y-79086191D02*
X138889237Y-78985175D01*
X138889237Y-78985175D02*
X139091267Y-78985175D01*
X139091267Y-78985175D02*
X139242790Y-79035683D01*
X139242790Y-79035683D02*
X139495328Y-79187206D01*
X139495328Y-79187206D02*
X139646851Y-79338729D01*
X139646851Y-79338729D02*
X139798374Y-79591267D01*
X139798374Y-79591267D02*
X139848882Y-79742790D01*
X139848882Y-79742790D02*
X139848882Y-79944820D01*
X139848882Y-79944820D02*
X139747866Y-80146851D01*
X139747866Y-80146851D02*
X139646851Y-80247866D01*
X139646851Y-80247866D02*
X139444821Y-80348881D01*
X139444821Y-80348881D02*
X139343805Y-80348881D01*
X137424515Y-80550912D02*
X137424515Y-80449897D01*
X137424515Y-80449897D02*
X137525531Y-80247866D01*
X137525531Y-80247866D02*
X137626546Y-80146851D01*
X137626546Y-80146851D02*
X137828576Y-80045836D01*
X137828576Y-80045836D02*
X138030607Y-80045836D01*
X138030607Y-80045836D02*
X138182130Y-80096343D01*
X138182130Y-80096343D02*
X138434668Y-80247866D01*
X138434668Y-80247866D02*
X138586191Y-80399389D01*
X138586191Y-80399389D02*
X138737714Y-80651927D01*
X138737714Y-80651927D02*
X138788221Y-80803450D01*
X138788221Y-80803450D02*
X138788221Y-81005480D01*
X138788221Y-81005480D02*
X138687206Y-81207511D01*
X138687206Y-81207511D02*
X138586191Y-81308526D01*
X138586191Y-81308526D02*
X138384160Y-81409542D01*
X138384160Y-81409542D02*
X138283145Y-81409542D01*
X171111572Y-22783145D02*
X169697358Y-22076038D01*
X169697358Y-22076038D02*
X170404465Y-23490252D01*
X168485176Y-23490252D02*
X168485176Y-23389236D01*
X168485176Y-23389236D02*
X168586191Y-23187206D01*
X168586191Y-23187206D02*
X168687206Y-23086191D01*
X168687206Y-23086191D02*
X168889237Y-22985175D01*
X168889237Y-22985175D02*
X169091267Y-22985175D01*
X169091267Y-22985175D02*
X169242790Y-23035683D01*
X169242790Y-23035683D02*
X169495328Y-23187206D01*
X169495328Y-23187206D02*
X169646851Y-23338729D01*
X169646851Y-23338729D02*
X169798374Y-23591267D01*
X169798374Y-23591267D02*
X169848882Y-23742790D01*
X169848882Y-23742790D02*
X169848882Y-23944820D01*
X169848882Y-23944820D02*
X169747866Y-24146851D01*
X169747866Y-24146851D02*
X169646851Y-24247866D01*
X169646851Y-24247866D02*
X169444821Y-24348881D01*
X169444821Y-24348881D02*
X169343805Y-24348881D01*
X167424515Y-24550912D02*
X167424515Y-24449897D01*
X167424515Y-24449897D02*
X167525531Y-24247866D01*
X167525531Y-24247866D02*
X167626546Y-24146851D01*
X167626546Y-24146851D02*
X167828576Y-24045836D01*
X167828576Y-24045836D02*
X168030607Y-24045836D01*
X168030607Y-24045836D02*
X168182130Y-24096343D01*
X168182130Y-24096343D02*
X168434668Y-24247866D01*
X168434668Y-24247866D02*
X168586191Y-24399389D01*
X168586191Y-24399389D02*
X168737714Y-24651927D01*
X168737714Y-24651927D02*
X168788221Y-24803450D01*
X168788221Y-24803450D02*
X168788221Y-25005480D01*
X168788221Y-25005480D02*
X168687206Y-25207511D01*
X168687206Y-25207511D02*
X168586191Y-25308526D01*
X168586191Y-25308526D02*
X168384160Y-25409542D01*
X168384160Y-25409542D02*
X168283145Y-25409542D01*
X171111572Y-50783145D02*
X169697358Y-50076038D01*
X169697358Y-50076038D02*
X170404465Y-51490252D01*
X168485176Y-51490252D02*
X168485176Y-51389236D01*
X168485176Y-51389236D02*
X168586191Y-51187206D01*
X168586191Y-51187206D02*
X168687206Y-51086191D01*
X168687206Y-51086191D02*
X168889237Y-50985175D01*
X168889237Y-50985175D02*
X169091267Y-50985175D01*
X169091267Y-50985175D02*
X169242790Y-51035683D01*
X169242790Y-51035683D02*
X169495328Y-51187206D01*
X169495328Y-51187206D02*
X169646851Y-51338729D01*
X169646851Y-51338729D02*
X169798374Y-51591267D01*
X169798374Y-51591267D02*
X169848882Y-51742790D01*
X169848882Y-51742790D02*
X169848882Y-51944820D01*
X169848882Y-51944820D02*
X169747866Y-52146851D01*
X169747866Y-52146851D02*
X169646851Y-52247866D01*
X169646851Y-52247866D02*
X169444821Y-52348881D01*
X169444821Y-52348881D02*
X169343805Y-52348881D01*
X167424515Y-52550912D02*
X167424515Y-52449897D01*
X167424515Y-52449897D02*
X167525531Y-52247866D01*
X167525531Y-52247866D02*
X167626546Y-52146851D01*
X167626546Y-52146851D02*
X167828576Y-52045836D01*
X167828576Y-52045836D02*
X168030607Y-52045836D01*
X168030607Y-52045836D02*
X168182130Y-52096343D01*
X168182130Y-52096343D02*
X168434668Y-52247866D01*
X168434668Y-52247866D02*
X168586191Y-52399389D01*
X168586191Y-52399389D02*
X168737714Y-52651927D01*
X168737714Y-52651927D02*
X168788221Y-52803450D01*
X168788221Y-52803450D02*
X168788221Y-53005480D01*
X168788221Y-53005480D02*
X168687206Y-53207511D01*
X168687206Y-53207511D02*
X168586191Y-53308526D01*
X168586191Y-53308526D02*
X168384160Y-53409542D01*
X168384160Y-53409542D02*
X168283145Y-53409542D01*
X171111572Y-78783145D02*
X169697358Y-78076038D01*
X169697358Y-78076038D02*
X170404465Y-79490252D01*
X168485176Y-79490252D02*
X168485176Y-79389236D01*
X168485176Y-79389236D02*
X168586191Y-79187206D01*
X168586191Y-79187206D02*
X168687206Y-79086191D01*
X168687206Y-79086191D02*
X168889237Y-78985175D01*
X168889237Y-78985175D02*
X169091267Y-78985175D01*
X169091267Y-78985175D02*
X169242790Y-79035683D01*
X169242790Y-79035683D02*
X169495328Y-79187206D01*
X169495328Y-79187206D02*
X169646851Y-79338729D01*
X169646851Y-79338729D02*
X169798374Y-79591267D01*
X169798374Y-79591267D02*
X169848882Y-79742790D01*
X169848882Y-79742790D02*
X169848882Y-79944820D01*
X169848882Y-79944820D02*
X169747866Y-80146851D01*
X169747866Y-80146851D02*
X169646851Y-80247866D01*
X169646851Y-80247866D02*
X169444821Y-80348881D01*
X169444821Y-80348881D02*
X169343805Y-80348881D01*
X167424515Y-80550912D02*
X167424515Y-80449897D01*
X167424515Y-80449897D02*
X167525531Y-80247866D01*
X167525531Y-80247866D02*
X167626546Y-80146851D01*
X167626546Y-80146851D02*
X167828576Y-80045836D01*
X167828576Y-80045836D02*
X168030607Y-80045836D01*
X168030607Y-80045836D02*
X168182130Y-80096343D01*
X168182130Y-80096343D02*
X168434668Y-80247866D01*
X168434668Y-80247866D02*
X168586191Y-80399389D01*
X168586191Y-80399389D02*
X168737714Y-80651927D01*
X168737714Y-80651927D02*
X168788221Y-80803450D01*
X168788221Y-80803450D02*
X168788221Y-81005480D01*
X168788221Y-81005480D02*
X168687206Y-81207511D01*
X168687206Y-81207511D02*
X168586191Y-81308526D01*
X168586191Y-81308526D02*
X168384160Y-81409542D01*
X168384160Y-81409542D02*
X168283145Y-81409542D01*
X108838729Y-40545026D02*
X108788221Y-40393503D01*
X108788221Y-40393503D02*
X108636699Y-40241980D01*
X108636699Y-40241980D02*
X108434668Y-40140965D01*
X108434668Y-40140965D02*
X108232638Y-40140965D01*
X108232638Y-40140965D02*
X108081115Y-40191473D01*
X108081115Y-40191473D02*
X107828577Y-40342996D01*
X107828577Y-40342996D02*
X107677054Y-40494519D01*
X107677054Y-40494519D02*
X107525531Y-40747057D01*
X107525531Y-40747057D02*
X107475023Y-40898580D01*
X107475023Y-40898580D02*
X107475023Y-41100610D01*
X107475023Y-41100610D02*
X107576038Y-41302641D01*
X107576038Y-41302641D02*
X107677054Y-41403656D01*
X107677054Y-41403656D02*
X107879084Y-41504671D01*
X107879084Y-41504671D02*
X107980099Y-41504671D01*
X107980099Y-41504671D02*
X108333653Y-41151118D01*
X108333653Y-41151118D02*
X108131622Y-40949087D01*
X108333653Y-42060255D02*
X109394313Y-40999595D01*
X109394313Y-40999595D02*
X108939744Y-42666347D01*
X108939744Y-42666347D02*
X110000405Y-41605686D01*
X109444821Y-43171423D02*
X110505481Y-42110763D01*
X110505481Y-42110763D02*
X110758019Y-42363301D01*
X110758019Y-42363301D02*
X110859034Y-42565332D01*
X110859034Y-42565332D02*
X110859034Y-42767362D01*
X110859034Y-42767362D02*
X110808527Y-42918885D01*
X110808527Y-42918885D02*
X110657004Y-43171423D01*
X110657004Y-43171423D02*
X110505481Y-43322946D01*
X110505481Y-43322946D02*
X110252943Y-43474469D01*
X110252943Y-43474469D02*
X110101420Y-43524977D01*
X110101420Y-43524977D02*
X109899390Y-43524977D01*
X109899390Y-43524977D02*
X109697359Y-43423961D01*
X109697359Y-43423961D02*
X109444821Y-43171423D01*
X108838729Y-68545026D02*
X108788221Y-68393503D01*
X108788221Y-68393503D02*
X108636699Y-68241980D01*
X108636699Y-68241980D02*
X108434668Y-68140965D01*
X108434668Y-68140965D02*
X108232638Y-68140965D01*
X108232638Y-68140965D02*
X108081115Y-68191473D01*
X108081115Y-68191473D02*
X107828577Y-68342996D01*
X107828577Y-68342996D02*
X107677054Y-68494519D01*
X107677054Y-68494519D02*
X107525531Y-68747057D01*
X107525531Y-68747057D02*
X107475023Y-68898580D01*
X107475023Y-68898580D02*
X107475023Y-69100610D01*
X107475023Y-69100610D02*
X107576038Y-69302641D01*
X107576038Y-69302641D02*
X107677054Y-69403656D01*
X107677054Y-69403656D02*
X107879084Y-69504671D01*
X107879084Y-69504671D02*
X107980099Y-69504671D01*
X107980099Y-69504671D02*
X108333653Y-69151118D01*
X108333653Y-69151118D02*
X108131622Y-68949087D01*
X108333653Y-70060255D02*
X109394313Y-68999595D01*
X109394313Y-68999595D02*
X108939744Y-70666347D01*
X108939744Y-70666347D02*
X110000405Y-69605686D01*
X109444821Y-71171423D02*
X110505481Y-70110763D01*
X110505481Y-70110763D02*
X110758019Y-70363301D01*
X110758019Y-70363301D02*
X110859034Y-70565332D01*
X110859034Y-70565332D02*
X110859034Y-70767362D01*
X110859034Y-70767362D02*
X110808527Y-70918885D01*
X110808527Y-70918885D02*
X110657004Y-71171423D01*
X110657004Y-71171423D02*
X110505481Y-71322946D01*
X110505481Y-71322946D02*
X110252943Y-71474469D01*
X110252943Y-71474469D02*
X110101420Y-71524977D01*
X110101420Y-71524977D02*
X109899390Y-71524977D01*
X109899390Y-71524977D02*
X109697359Y-71423961D01*
X109697359Y-71423961D02*
X109444821Y-71171423D01*
X108838729Y-96545026D02*
X108788221Y-96393503D01*
X108788221Y-96393503D02*
X108636699Y-96241980D01*
X108636699Y-96241980D02*
X108434668Y-96140965D01*
X108434668Y-96140965D02*
X108232638Y-96140965D01*
X108232638Y-96140965D02*
X108081115Y-96191473D01*
X108081115Y-96191473D02*
X107828577Y-96342996D01*
X107828577Y-96342996D02*
X107677054Y-96494519D01*
X107677054Y-96494519D02*
X107525531Y-96747057D01*
X107525531Y-96747057D02*
X107475023Y-96898580D01*
X107475023Y-96898580D02*
X107475023Y-97100610D01*
X107475023Y-97100610D02*
X107576038Y-97302641D01*
X107576038Y-97302641D02*
X107677054Y-97403656D01*
X107677054Y-97403656D02*
X107879084Y-97504671D01*
X107879084Y-97504671D02*
X107980099Y-97504671D01*
X107980099Y-97504671D02*
X108333653Y-97151118D01*
X108333653Y-97151118D02*
X108131622Y-96949087D01*
X108333653Y-98060255D02*
X109394313Y-96999595D01*
X109394313Y-96999595D02*
X108939744Y-98666347D01*
X108939744Y-98666347D02*
X110000405Y-97605686D01*
X109444821Y-99171423D02*
X110505481Y-98110763D01*
X110505481Y-98110763D02*
X110758019Y-98363301D01*
X110758019Y-98363301D02*
X110859034Y-98565332D01*
X110859034Y-98565332D02*
X110859034Y-98767362D01*
X110859034Y-98767362D02*
X110808527Y-98918885D01*
X110808527Y-98918885D02*
X110657004Y-99171423D01*
X110657004Y-99171423D02*
X110505481Y-99322946D01*
X110505481Y-99322946D02*
X110252943Y-99474469D01*
X110252943Y-99474469D02*
X110101420Y-99524977D01*
X110101420Y-99524977D02*
X109899390Y-99524977D01*
X109899390Y-99524977D02*
X109697359Y-99423961D01*
X109697359Y-99423961D02*
X109444821Y-99171423D01*
X138838729Y-40545026D02*
X138788221Y-40393503D01*
X138788221Y-40393503D02*
X138636699Y-40241980D01*
X138636699Y-40241980D02*
X138434668Y-40140965D01*
X138434668Y-40140965D02*
X138232638Y-40140965D01*
X138232638Y-40140965D02*
X138081115Y-40191473D01*
X138081115Y-40191473D02*
X137828577Y-40342996D01*
X137828577Y-40342996D02*
X137677054Y-40494519D01*
X137677054Y-40494519D02*
X137525531Y-40747057D01*
X137525531Y-40747057D02*
X137475023Y-40898580D01*
X137475023Y-40898580D02*
X137475023Y-41100610D01*
X137475023Y-41100610D02*
X137576038Y-41302641D01*
X137576038Y-41302641D02*
X137677054Y-41403656D01*
X137677054Y-41403656D02*
X137879084Y-41504671D01*
X137879084Y-41504671D02*
X137980099Y-41504671D01*
X137980099Y-41504671D02*
X138333653Y-41151118D01*
X138333653Y-41151118D02*
X138131622Y-40949087D01*
X138333653Y-42060255D02*
X139394313Y-40999595D01*
X139394313Y-40999595D02*
X138939744Y-42666347D01*
X138939744Y-42666347D02*
X140000405Y-41605686D01*
X139444821Y-43171423D02*
X140505481Y-42110763D01*
X140505481Y-42110763D02*
X140758019Y-42363301D01*
X140758019Y-42363301D02*
X140859034Y-42565332D01*
X140859034Y-42565332D02*
X140859034Y-42767362D01*
X140859034Y-42767362D02*
X140808527Y-42918885D01*
X140808527Y-42918885D02*
X140657004Y-43171423D01*
X140657004Y-43171423D02*
X140505481Y-43322946D01*
X140505481Y-43322946D02*
X140252943Y-43474469D01*
X140252943Y-43474469D02*
X140101420Y-43524977D01*
X140101420Y-43524977D02*
X139899390Y-43524977D01*
X139899390Y-43524977D02*
X139697359Y-43423961D01*
X139697359Y-43423961D02*
X139444821Y-43171423D01*
X138838729Y-68545026D02*
X138788221Y-68393503D01*
X138788221Y-68393503D02*
X138636699Y-68241980D01*
X138636699Y-68241980D02*
X138434668Y-68140965D01*
X138434668Y-68140965D02*
X138232638Y-68140965D01*
X138232638Y-68140965D02*
X138081115Y-68191473D01*
X138081115Y-68191473D02*
X137828577Y-68342996D01*
X137828577Y-68342996D02*
X137677054Y-68494519D01*
X137677054Y-68494519D02*
X137525531Y-68747057D01*
X137525531Y-68747057D02*
X137475023Y-68898580D01*
X137475023Y-68898580D02*
X137475023Y-69100610D01*
X137475023Y-69100610D02*
X137576038Y-69302641D01*
X137576038Y-69302641D02*
X137677054Y-69403656D01*
X137677054Y-69403656D02*
X137879084Y-69504671D01*
X137879084Y-69504671D02*
X137980099Y-69504671D01*
X137980099Y-69504671D02*
X138333653Y-69151118D01*
X138333653Y-69151118D02*
X138131622Y-68949087D01*
X138333653Y-70060255D02*
X139394313Y-68999595D01*
X139394313Y-68999595D02*
X138939744Y-70666347D01*
X138939744Y-70666347D02*
X140000405Y-69605686D01*
X139444821Y-71171423D02*
X140505481Y-70110763D01*
X140505481Y-70110763D02*
X140758019Y-70363301D01*
X140758019Y-70363301D02*
X140859034Y-70565332D01*
X140859034Y-70565332D02*
X140859034Y-70767362D01*
X140859034Y-70767362D02*
X140808527Y-70918885D01*
X140808527Y-70918885D02*
X140657004Y-71171423D01*
X140657004Y-71171423D02*
X140505481Y-71322946D01*
X140505481Y-71322946D02*
X140252943Y-71474469D01*
X140252943Y-71474469D02*
X140101420Y-71524977D01*
X140101420Y-71524977D02*
X139899390Y-71524977D01*
X139899390Y-71524977D02*
X139697359Y-71423961D01*
X139697359Y-71423961D02*
X139444821Y-71171423D01*
X138838729Y-96545026D02*
X138788221Y-96393503D01*
X138788221Y-96393503D02*
X138636699Y-96241980D01*
X138636699Y-96241980D02*
X138434668Y-96140965D01*
X138434668Y-96140965D02*
X138232638Y-96140965D01*
X138232638Y-96140965D02*
X138081115Y-96191473D01*
X138081115Y-96191473D02*
X137828577Y-96342996D01*
X137828577Y-96342996D02*
X137677054Y-96494519D01*
X137677054Y-96494519D02*
X137525531Y-96747057D01*
X137525531Y-96747057D02*
X137475023Y-96898580D01*
X137475023Y-96898580D02*
X137475023Y-97100610D01*
X137475023Y-97100610D02*
X137576038Y-97302641D01*
X137576038Y-97302641D02*
X137677054Y-97403656D01*
X137677054Y-97403656D02*
X137879084Y-97504671D01*
X137879084Y-97504671D02*
X137980099Y-97504671D01*
X137980099Y-97504671D02*
X138333653Y-97151118D01*
X138333653Y-97151118D02*
X138131622Y-96949087D01*
X138333653Y-98060255D02*
X139394313Y-96999595D01*
X139394313Y-96999595D02*
X138939744Y-98666347D01*
X138939744Y-98666347D02*
X140000405Y-97605686D01*
X139444821Y-99171423D02*
X140505481Y-98110763D01*
X140505481Y-98110763D02*
X140758019Y-98363301D01*
X140758019Y-98363301D02*
X140859034Y-98565332D01*
X140859034Y-98565332D02*
X140859034Y-98767362D01*
X140859034Y-98767362D02*
X140808527Y-98918885D01*
X140808527Y-98918885D02*
X140657004Y-99171423D01*
X140657004Y-99171423D02*
X140505481Y-99322946D01*
X140505481Y-99322946D02*
X140252943Y-99474469D01*
X140252943Y-99474469D02*
X140101420Y-99524977D01*
X140101420Y-99524977D02*
X139899390Y-99524977D01*
X139899390Y-99524977D02*
X139697359Y-99423961D01*
X139697359Y-99423961D02*
X139444821Y-99171423D01*
X168838729Y-40545026D02*
X168788221Y-40393503D01*
X168788221Y-40393503D02*
X168636699Y-40241980D01*
X168636699Y-40241980D02*
X168434668Y-40140965D01*
X168434668Y-40140965D02*
X168232638Y-40140965D01*
X168232638Y-40140965D02*
X168081115Y-40191473D01*
X168081115Y-40191473D02*
X167828577Y-40342996D01*
X167828577Y-40342996D02*
X167677054Y-40494519D01*
X167677054Y-40494519D02*
X167525531Y-40747057D01*
X167525531Y-40747057D02*
X167475023Y-40898580D01*
X167475023Y-40898580D02*
X167475023Y-41100610D01*
X167475023Y-41100610D02*
X167576038Y-41302641D01*
X167576038Y-41302641D02*
X167677054Y-41403656D01*
X167677054Y-41403656D02*
X167879084Y-41504671D01*
X167879084Y-41504671D02*
X167980099Y-41504671D01*
X167980099Y-41504671D02*
X168333653Y-41151118D01*
X168333653Y-41151118D02*
X168131622Y-40949087D01*
X168333653Y-42060255D02*
X169394313Y-40999595D01*
X169394313Y-40999595D02*
X168939744Y-42666347D01*
X168939744Y-42666347D02*
X170000405Y-41605686D01*
X169444821Y-43171423D02*
X170505481Y-42110763D01*
X170505481Y-42110763D02*
X170758019Y-42363301D01*
X170758019Y-42363301D02*
X170859034Y-42565332D01*
X170859034Y-42565332D02*
X170859034Y-42767362D01*
X170859034Y-42767362D02*
X170808527Y-42918885D01*
X170808527Y-42918885D02*
X170657004Y-43171423D01*
X170657004Y-43171423D02*
X170505481Y-43322946D01*
X170505481Y-43322946D02*
X170252943Y-43474469D01*
X170252943Y-43474469D02*
X170101420Y-43524977D01*
X170101420Y-43524977D02*
X169899390Y-43524977D01*
X169899390Y-43524977D02*
X169697359Y-43423961D01*
X169697359Y-43423961D02*
X169444821Y-43171423D01*
X168838729Y-68545026D02*
X168788221Y-68393503D01*
X168788221Y-68393503D02*
X168636699Y-68241980D01*
X168636699Y-68241980D02*
X168434668Y-68140965D01*
X168434668Y-68140965D02*
X168232638Y-68140965D01*
X168232638Y-68140965D02*
X168081115Y-68191473D01*
X168081115Y-68191473D02*
X167828577Y-68342996D01*
X167828577Y-68342996D02*
X167677054Y-68494519D01*
X167677054Y-68494519D02*
X167525531Y-68747057D01*
X167525531Y-68747057D02*
X167475023Y-68898580D01*
X167475023Y-68898580D02*
X167475023Y-69100610D01*
X167475023Y-69100610D02*
X167576038Y-69302641D01*
X167576038Y-69302641D02*
X167677054Y-69403656D01*
X167677054Y-69403656D02*
X167879084Y-69504671D01*
X167879084Y-69504671D02*
X167980099Y-69504671D01*
X167980099Y-69504671D02*
X168333653Y-69151118D01*
X168333653Y-69151118D02*
X168131622Y-68949087D01*
X168333653Y-70060255D02*
X169394313Y-68999595D01*
X169394313Y-68999595D02*
X168939744Y-70666347D01*
X168939744Y-70666347D02*
X170000405Y-69605686D01*
X169444821Y-71171423D02*
X170505481Y-70110763D01*
X170505481Y-70110763D02*
X170758019Y-70363301D01*
X170758019Y-70363301D02*
X170859034Y-70565332D01*
X170859034Y-70565332D02*
X170859034Y-70767362D01*
X170859034Y-70767362D02*
X170808527Y-70918885D01*
X170808527Y-70918885D02*
X170657004Y-71171423D01*
X170657004Y-71171423D02*
X170505481Y-71322946D01*
X170505481Y-71322946D02*
X170252943Y-71474469D01*
X170252943Y-71474469D02*
X170101420Y-71524977D01*
X170101420Y-71524977D02*
X169899390Y-71524977D01*
X169899390Y-71524977D02*
X169697359Y-71423961D01*
X169697359Y-71423961D02*
X169444821Y-71171423D01*
X168838729Y-96545026D02*
X168788221Y-96393503D01*
X168788221Y-96393503D02*
X168636699Y-96241980D01*
X168636699Y-96241980D02*
X168434668Y-96140965D01*
X168434668Y-96140965D02*
X168232638Y-96140965D01*
X168232638Y-96140965D02*
X168081115Y-96191473D01*
X168081115Y-96191473D02*
X167828577Y-96342996D01*
X167828577Y-96342996D02*
X167677054Y-96494519D01*
X167677054Y-96494519D02*
X167525531Y-96747057D01*
X167525531Y-96747057D02*
X167475023Y-96898580D01*
X167475023Y-96898580D02*
X167475023Y-97100610D01*
X167475023Y-97100610D02*
X167576038Y-97302641D01*
X167576038Y-97302641D02*
X167677054Y-97403656D01*
X167677054Y-97403656D02*
X167879084Y-97504671D01*
X167879084Y-97504671D02*
X167980099Y-97504671D01*
X167980099Y-97504671D02*
X168333653Y-97151118D01*
X168333653Y-97151118D02*
X168131622Y-96949087D01*
X168333653Y-98060255D02*
X169394313Y-96999595D01*
X169394313Y-96999595D02*
X168939744Y-98666347D01*
X168939744Y-98666347D02*
X170000405Y-97605686D01*
X169444821Y-99171423D02*
X170505481Y-98110763D01*
X170505481Y-98110763D02*
X170758019Y-98363301D01*
X170758019Y-98363301D02*
X170859034Y-98565332D01*
X170859034Y-98565332D02*
X170859034Y-98767362D01*
X170859034Y-98767362D02*
X170808527Y-98918885D01*
X170808527Y-98918885D02*
X170657004Y-99171423D01*
X170657004Y-99171423D02*
X170505481Y-99322946D01*
X170505481Y-99322946D02*
X170252943Y-99474469D01*
X170252943Y-99474469D02*
X170101420Y-99524977D01*
X170101420Y-99524977D02*
X169899390Y-99524977D01*
X169899390Y-99524977D02*
X169697359Y-99423961D01*
X169697359Y-99423961D02*
X169444821Y-99171423D01*
%TO.C,SW1*%
D12*
X175550000Y-71930000D02*
X175550000Y-72720000D01*
X176150000Y-73730000D02*
X181850000Y-73730000D01*
X177400000Y-70880000D02*
X179100000Y-70880000D01*
X177600000Y-73730000D02*
X177600000Y-75020000D01*
X177600000Y-75020000D02*
X177800000Y-75230000D01*
X177800000Y-75230000D02*
X178700000Y-75230000D01*
X178900000Y-75020000D02*
X178700000Y-75230000D01*
X178900000Y-75020000D02*
X178900000Y-73730000D01*
X180400000Y-70880000D02*
X180600000Y-70880000D01*
X182450000Y-72720000D02*
X182450000Y-71930000D01*
X145550000Y-43930000D02*
X145550000Y-44720000D01*
X146150000Y-45730000D02*
X151850000Y-45730000D01*
X147400000Y-42880000D02*
X149100000Y-42880000D01*
X147600000Y-45730000D02*
X147600000Y-47020000D01*
X147600000Y-47020000D02*
X147800000Y-47230000D01*
X147800000Y-47230000D02*
X148700000Y-47230000D01*
X148900000Y-47020000D02*
X148700000Y-47230000D01*
X148900000Y-47020000D02*
X148900000Y-45730000D01*
X150400000Y-42880000D02*
X150600000Y-42880000D01*
X152450000Y-44720000D02*
X152450000Y-43930000D01*
%TO.C,BT1*%
X138030000Y-25615000D02*
X139637090Y-25615000D01*
X138030000Y-27500000D02*
X138030000Y-25615000D01*
X138030000Y-33500000D02*
X138030000Y-35385000D01*
X138030000Y-35385000D02*
X139637090Y-35385000D01*
X158970000Y-25615000D02*
X157362910Y-25615000D01*
X158970000Y-27500000D02*
X158970000Y-25615000D01*
X158970000Y-33500000D02*
X158970000Y-35385000D01*
X158970000Y-35385000D02*
X157362910Y-35385000D01*
X139637090Y-25615000D02*
G75*
G02*
X157362910Y-25615000I8862910J-4885000D01*
G01*
X157365021Y-35381168D02*
G75*
G02*
X139637090Y-35385000I-8865021J4881167D01*
G01*
%TO.C,SW1*%
X175550000Y-99930000D02*
X175550000Y-100720000D01*
X176150000Y-101730000D02*
X181850000Y-101730000D01*
X177400000Y-98880000D02*
X179100000Y-98880000D01*
X177600000Y-101730000D02*
X177600000Y-103020000D01*
X177600000Y-103020000D02*
X177800000Y-103230000D01*
X177800000Y-103230000D02*
X178700000Y-103230000D01*
X178900000Y-103020000D02*
X178700000Y-103230000D01*
X178900000Y-103020000D02*
X178900000Y-101730000D01*
X180400000Y-98880000D02*
X180600000Y-98880000D01*
X182450000Y-100720000D02*
X182450000Y-99930000D01*
X115550000Y-43930000D02*
X115550000Y-44720000D01*
X116150000Y-45730000D02*
X121850000Y-45730000D01*
X117400000Y-42880000D02*
X119100000Y-42880000D01*
X117600000Y-45730000D02*
X117600000Y-47020000D01*
X117600000Y-47020000D02*
X117800000Y-47230000D01*
X117800000Y-47230000D02*
X118700000Y-47230000D01*
X118900000Y-47020000D02*
X118700000Y-47230000D01*
X118900000Y-47020000D02*
X118900000Y-45730000D01*
X120400000Y-42880000D02*
X120600000Y-42880000D01*
X122450000Y-44720000D02*
X122450000Y-43930000D01*
%TO.C,BT1*%
X138030000Y-81615000D02*
X139637090Y-81615000D01*
X138030000Y-83500000D02*
X138030000Y-81615000D01*
X138030000Y-89500000D02*
X138030000Y-91385000D01*
X138030000Y-91385000D02*
X139637090Y-91385000D01*
X158970000Y-81615000D02*
X157362910Y-81615000D01*
X158970000Y-83500000D02*
X158970000Y-81615000D01*
X158970000Y-89500000D02*
X158970000Y-91385000D01*
X158970000Y-91385000D02*
X157362910Y-91385000D01*
X139637090Y-81615000D02*
G75*
G02*
X157362910Y-81615000I8862910J-4885000D01*
G01*
X157365021Y-91381168D02*
G75*
G02*
X139637090Y-91385000I-8865021J4881167D01*
G01*
X168030000Y-81615000D02*
X169637090Y-81615000D01*
X168030000Y-83500000D02*
X168030000Y-81615000D01*
X168030000Y-89500000D02*
X168030000Y-91385000D01*
X168030000Y-91385000D02*
X169637090Y-91385000D01*
X188970000Y-81615000D02*
X187362910Y-81615000D01*
X188970000Y-83500000D02*
X188970000Y-81615000D01*
X188970000Y-89500000D02*
X188970000Y-91385000D01*
X188970000Y-91385000D02*
X187362910Y-91385000D01*
X169637090Y-81615000D02*
G75*
G02*
X187362910Y-81615000I8862910J-4885000D01*
G01*
X187365021Y-91381168D02*
G75*
G02*
X169637090Y-91385000I-8865021J4881167D01*
G01*
%TO.C,SW1*%
X115550000Y-99930000D02*
X115550000Y-100720000D01*
X116150000Y-101730000D02*
X121850000Y-101730000D01*
X117400000Y-98880000D02*
X119100000Y-98880000D01*
X117600000Y-101730000D02*
X117600000Y-103020000D01*
X117600000Y-103020000D02*
X117800000Y-103230000D01*
X117800000Y-103230000D02*
X118700000Y-103230000D01*
X118900000Y-103020000D02*
X118700000Y-103230000D01*
X118900000Y-103020000D02*
X118900000Y-101730000D01*
X120400000Y-98880000D02*
X120600000Y-98880000D01*
X122450000Y-100720000D02*
X122450000Y-99930000D01*
%TO.C,BT1*%
X108030000Y-53615000D02*
X109637090Y-53615000D01*
X108030000Y-55500000D02*
X108030000Y-53615000D01*
X108030000Y-61500000D02*
X108030000Y-63385000D01*
X108030000Y-63385000D02*
X109637090Y-63385000D01*
X128970000Y-53615000D02*
X127362910Y-53615000D01*
X128970000Y-55500000D02*
X128970000Y-53615000D01*
X128970000Y-61500000D02*
X128970000Y-63385000D01*
X128970000Y-63385000D02*
X127362910Y-63385000D01*
X109637090Y-53615000D02*
G75*
G02*
X127362910Y-53615000I8862910J-4885000D01*
G01*
X127365021Y-63381168D02*
G75*
G02*
X109637090Y-63385000I-8865021J4881167D01*
G01*
%TO.C,SW1*%
X145550000Y-71930000D02*
X145550000Y-72720000D01*
X146150000Y-73730000D02*
X151850000Y-73730000D01*
X147400000Y-70880000D02*
X149100000Y-70880000D01*
X147600000Y-73730000D02*
X147600000Y-75020000D01*
X147600000Y-75020000D02*
X147800000Y-75230000D01*
X147800000Y-75230000D02*
X148700000Y-75230000D01*
X148900000Y-75020000D02*
X148700000Y-75230000D01*
X148900000Y-75020000D02*
X148900000Y-73730000D01*
X150400000Y-70880000D02*
X150600000Y-70880000D01*
X152450000Y-72720000D02*
X152450000Y-71930000D01*
X145550000Y-99930000D02*
X145550000Y-100720000D01*
X146150000Y-101730000D02*
X151850000Y-101730000D01*
X147400000Y-98880000D02*
X149100000Y-98880000D01*
X147600000Y-101730000D02*
X147600000Y-103020000D01*
X147600000Y-103020000D02*
X147800000Y-103230000D01*
X147800000Y-103230000D02*
X148700000Y-103230000D01*
X148900000Y-103020000D02*
X148700000Y-103230000D01*
X148900000Y-103020000D02*
X148900000Y-101730000D01*
X150400000Y-98880000D02*
X150600000Y-98880000D01*
X152450000Y-100720000D02*
X152450000Y-99930000D01*
%TO.C,BT1*%
X108030000Y-25615000D02*
X109637090Y-25615000D01*
X108030000Y-27500000D02*
X108030000Y-25615000D01*
X108030000Y-33500000D02*
X108030000Y-35385000D01*
X108030000Y-35385000D02*
X109637090Y-35385000D01*
X128970000Y-25615000D02*
X127362910Y-25615000D01*
X128970000Y-27500000D02*
X128970000Y-25615000D01*
X128970000Y-33500000D02*
X128970000Y-35385000D01*
X128970000Y-35385000D02*
X127362910Y-35385000D01*
X109637090Y-25615000D02*
G75*
G02*
X127362910Y-25615000I8862910J-4885000D01*
G01*
X127365021Y-35381168D02*
G75*
G02*
X109637090Y-35385000I-8865021J4881167D01*
G01*
X168030000Y-25615000D02*
X169637090Y-25615000D01*
X168030000Y-27500000D02*
X168030000Y-25615000D01*
X168030000Y-33500000D02*
X168030000Y-35385000D01*
X168030000Y-35385000D02*
X169637090Y-35385000D01*
X188970000Y-25615000D02*
X187362910Y-25615000D01*
X188970000Y-27500000D02*
X188970000Y-25615000D01*
X188970000Y-33500000D02*
X188970000Y-35385000D01*
X188970000Y-35385000D02*
X187362910Y-35385000D01*
X169637090Y-25615000D02*
G75*
G02*
X187362910Y-25615000I8862910J-4885000D01*
G01*
X187365021Y-35381168D02*
G75*
G02*
X169637090Y-35385000I-8865021J4881167D01*
G01*
X168030000Y-53615000D02*
X169637090Y-53615000D01*
X168030000Y-55500000D02*
X168030000Y-53615000D01*
X168030000Y-61500000D02*
X168030000Y-63385000D01*
X168030000Y-63385000D02*
X169637090Y-63385000D01*
X188970000Y-53615000D02*
X187362910Y-53615000D01*
X188970000Y-55500000D02*
X188970000Y-53615000D01*
X188970000Y-61500000D02*
X188970000Y-63385000D01*
X188970000Y-63385000D02*
X187362910Y-63385000D01*
X169637090Y-53615000D02*
G75*
G02*
X187362910Y-53615000I8862910J-4885000D01*
G01*
X187365021Y-63381168D02*
G75*
G02*
X169637090Y-63385000I-8865021J4881167D01*
G01*
X108030000Y-81615000D02*
X109637090Y-81615000D01*
X108030000Y-83500000D02*
X108030000Y-81615000D01*
X108030000Y-89500000D02*
X108030000Y-91385000D01*
X108030000Y-91385000D02*
X109637090Y-91385000D01*
X128970000Y-81615000D02*
X127362910Y-81615000D01*
X128970000Y-83500000D02*
X128970000Y-81615000D01*
X128970000Y-89500000D02*
X128970000Y-91385000D01*
X128970000Y-91385000D02*
X127362910Y-91385000D01*
X109637090Y-81615000D02*
G75*
G02*
X127362910Y-81615000I8862910J-4885000D01*
G01*
X127365021Y-91381168D02*
G75*
G02*
X109637090Y-91385000I-8865021J4881167D01*
G01*
%TO.C,SW1*%
X115550000Y-71930000D02*
X115550000Y-72720000D01*
X116150000Y-73730000D02*
X121850000Y-73730000D01*
X117400000Y-70880000D02*
X119100000Y-70880000D01*
X117600000Y-73730000D02*
X117600000Y-75020000D01*
X117600000Y-75020000D02*
X117800000Y-75230000D01*
X117800000Y-75230000D02*
X118700000Y-75230000D01*
X118900000Y-75020000D02*
X118700000Y-75230000D01*
X118900000Y-75020000D02*
X118900000Y-73730000D01*
X120400000Y-70880000D02*
X120600000Y-70880000D01*
X122450000Y-72720000D02*
X122450000Y-71930000D01*
X175550000Y-43930000D02*
X175550000Y-44720000D01*
X176150000Y-45730000D02*
X181850000Y-45730000D01*
X177400000Y-42880000D02*
X179100000Y-42880000D01*
X177600000Y-45730000D02*
X177600000Y-47020000D01*
X177600000Y-47020000D02*
X177800000Y-47230000D01*
X177800000Y-47230000D02*
X178700000Y-47230000D01*
X178900000Y-47020000D02*
X178700000Y-47230000D01*
X178900000Y-47020000D02*
X178900000Y-45730000D01*
X180400000Y-42880000D02*
X180600000Y-42880000D01*
X182450000Y-44720000D02*
X182450000Y-43930000D01*
%TO.C,BT1*%
X138030000Y-53615000D02*
X139637090Y-53615000D01*
X138030000Y-55500000D02*
X138030000Y-53615000D01*
X138030000Y-61500000D02*
X138030000Y-63385000D01*
X138030000Y-63385000D02*
X139637090Y-63385000D01*
X158970000Y-53615000D02*
X157362910Y-53615000D01*
X158970000Y-55500000D02*
X158970000Y-53615000D01*
X158970000Y-61500000D02*
X158970000Y-63385000D01*
X158970000Y-63385000D02*
X157362910Y-63385000D01*
X139637090Y-53615000D02*
G75*
G02*
X157362910Y-53615000I8862910J-4885000D01*
G01*
X157365021Y-63381168D02*
G75*
G02*
X139637090Y-63385000I-8865021J4881167D01*
G01*
%TD*%
M02*
