%TF.GenerationSoftware,KiCad,Pcbnew,10.0.4*%
%TF.CreationDate,2026-07-01T18:47:49+02:00*%
%TF.ProjectId,fs_led_res_0805,66735f6c-6564-45f7-9265-735f30383035,rev?*%
%TF.SameCoordinates,Original*%
%TF.FileFunction,Legend,Bot*%
%TF.FilePolarity,Positive*%
%FSLAX46Y46*%
G04 Gerber Fmt 4.6, Leading zero omitted, Abs format (unit mm)*
G04 Created by KiCad (PCBNEW 10.0.4) date 2026-07-01 18:47:49*
%MOMM*%
%LPD*%
G01*
G04 APERTURE LIST*
%ADD10C,0.106250*%
%ADD11C,0.200000*%
G04 APERTURE END LIST*
D10*
X147744653Y-78539591D02*
X147763225Y-78483643D01*
X147763225Y-78483643D02*
X147818480Y-78410590D01*
X147818480Y-78410590D02*
X147891848Y-78376378D01*
X147891848Y-78376378D02*
X147983328Y-78381007D01*
X147983328Y-78381007D02*
X148038124Y-78402743D01*
X148038124Y-78402743D02*
X148111033Y-78463321D01*
X148111033Y-78463321D02*
X148147257Y-78541004D01*
X148147257Y-78541004D02*
X148146798Y-78635794D01*
X148146798Y-78635794D02*
X148128226Y-78691741D01*
X148128226Y-78691741D02*
X148072970Y-78764795D01*
X148072970Y-78764795D02*
X147999603Y-78799007D01*
X147999603Y-78799007D02*
X147908123Y-78794377D01*
X147908123Y-78794377D02*
X147853326Y-78772642D01*
X147708429Y-78461907D02*
X147853326Y-78772642D01*
X147853326Y-78772642D02*
X147834755Y-78828589D01*
X147834755Y-78828589D02*
X147798071Y-78845695D01*
X147798071Y-78845695D02*
X147706591Y-78841065D01*
X147706591Y-78841065D02*
X147633683Y-78780488D01*
X147633683Y-78780488D02*
X147543122Y-78586279D01*
X147543122Y-78586279D02*
X147562153Y-78435542D01*
X147562153Y-78435542D02*
X147635980Y-78306540D01*
X147635980Y-78306540D02*
X147764603Y-78199275D01*
X147764603Y-78199275D02*
X147929451Y-78169693D01*
X147929451Y-78169693D02*
X148075727Y-78196058D01*
X148075727Y-78196058D02*
X148203432Y-78278372D01*
X148203432Y-78278372D02*
X148312564Y-78416633D01*
X148312564Y-78416633D02*
X148348329Y-78589106D01*
X148348329Y-78589106D02*
X148329298Y-78739843D01*
X148329298Y-78739843D02*
X148255471Y-78868844D01*
X148255471Y-78868844D02*
X148126848Y-78976110D01*
X148126848Y-78976110D02*
X147962000Y-79005692D01*
X147962000Y-79005692D02*
X147815724Y-78979327D01*
X147412201Y-79167492D02*
X147031845Y-78351815D01*
X147176742Y-78662549D02*
X147085262Y-78657920D01*
X147085262Y-78657920D02*
X146938527Y-78726343D01*
X146938527Y-78726343D02*
X146883271Y-78799397D01*
X146883271Y-78799397D02*
X146864700Y-78855345D01*
X146864700Y-78855345D02*
X146864240Y-78950134D01*
X146864240Y-78950134D02*
X146972913Y-79183185D01*
X146972913Y-79183185D02*
X147045822Y-79243763D01*
X147045822Y-79243763D02*
X147100618Y-79265498D01*
X147100618Y-79265498D02*
X147192098Y-79270128D01*
X147192098Y-79270128D02*
X147338833Y-79201704D01*
X147338833Y-79201704D02*
X147394089Y-79128650D01*
X146605155Y-79543824D02*
X146660411Y-79470770D01*
X146660411Y-79470770D02*
X146678982Y-79414822D01*
X146678982Y-79414822D02*
X146679442Y-79320033D01*
X146679442Y-79320033D02*
X146570769Y-79086982D01*
X146570769Y-79086982D02*
X146497860Y-79026405D01*
X146497860Y-79026405D02*
X146443064Y-79004669D01*
X146443064Y-79004669D02*
X146351584Y-79000039D01*
X146351584Y-79000039D02*
X146241533Y-79051357D01*
X146241533Y-79051357D02*
X146186277Y-79124411D01*
X146186277Y-79124411D02*
X146167705Y-79180359D01*
X146167705Y-79180359D02*
X146167246Y-79275148D01*
X146167246Y-79275148D02*
X146275919Y-79508199D01*
X146275919Y-79508199D02*
X146348827Y-79568776D01*
X146348827Y-79568776D02*
X146403624Y-79590512D01*
X146403624Y-79590512D02*
X146495104Y-79595142D01*
X146495104Y-79595142D02*
X146605155Y-79543824D01*
X146018213Y-79817520D02*
X145764642Y-79273735D01*
X145837091Y-79429102D02*
X145764182Y-79368525D01*
X145764182Y-79368525D02*
X145709386Y-79346789D01*
X145709386Y-79346789D02*
X145617906Y-79342159D01*
X145617906Y-79342159D02*
X145544538Y-79376371D01*
X145541323Y-80039897D02*
X145287752Y-79496113D01*
X145160966Y-79224220D02*
X145215762Y-79245956D01*
X145215762Y-79245956D02*
X145197191Y-79301904D01*
X145197191Y-79301904D02*
X145142394Y-79280168D01*
X145142394Y-79280168D02*
X145160966Y-79224220D01*
X145160966Y-79224220D02*
X145197191Y-79301904D01*
X145193055Y-80155009D02*
X145137800Y-80228063D01*
X145137800Y-80228063D02*
X144991064Y-80296487D01*
X144991064Y-80296487D02*
X144899584Y-80291857D01*
X144899584Y-80291857D02*
X144826676Y-80231280D01*
X144826676Y-80231280D02*
X144808564Y-80192438D01*
X144808564Y-80192438D02*
X144809023Y-80097648D01*
X144809023Y-80097648D02*
X144864279Y-80024595D01*
X144864279Y-80024595D02*
X144974330Y-79973277D01*
X144974330Y-79973277D02*
X145029586Y-79900223D01*
X145029586Y-79900223D02*
X145030045Y-79805433D01*
X145030045Y-79805433D02*
X145011933Y-79766592D01*
X145011933Y-79766592D02*
X144939025Y-79706014D01*
X144939025Y-79706014D02*
X144847545Y-79701384D01*
X144847545Y-79701384D02*
X144737493Y-79752702D01*
X144737493Y-79752702D02*
X144682238Y-79825756D01*
X144297287Y-79957974D02*
X144550858Y-80501759D01*
X144333511Y-80035657D02*
X144278715Y-80013922D01*
X144278715Y-80013922D02*
X144187235Y-80009292D01*
X144187235Y-80009292D02*
X144077183Y-80060610D01*
X144077183Y-80060610D02*
X144021928Y-80133663D01*
X144021928Y-80133663D02*
X144021468Y-80228453D01*
X144021468Y-80228453D02*
X144220703Y-80655712D01*
X143743812Y-80878090D02*
X143799067Y-80805036D01*
X143799067Y-80805036D02*
X143817639Y-80749089D01*
X143817639Y-80749089D02*
X143818099Y-80654299D01*
X143818099Y-80654299D02*
X143709425Y-80421249D01*
X143709425Y-80421249D02*
X143636517Y-80360671D01*
X143636517Y-80360671D02*
X143581721Y-80338935D01*
X143581721Y-80338935D02*
X143490241Y-80334306D01*
X143490241Y-80334306D02*
X143380189Y-80385623D01*
X143380189Y-80385623D02*
X143324934Y-80458677D01*
X143324934Y-80458677D02*
X143306362Y-80514625D01*
X143306362Y-80514625D02*
X143305903Y-80609414D01*
X143305903Y-80609414D02*
X143414576Y-80842465D01*
X143414576Y-80842465D02*
X143487484Y-80903043D01*
X143487484Y-80903043D02*
X143542280Y-80924778D01*
X143542280Y-80924778D02*
X143633760Y-80929408D01*
X143633760Y-80929408D02*
X143743812Y-80878090D01*
X143013350Y-80556683D02*
X142719879Y-80693531D01*
X142776513Y-80336109D02*
X143102533Y-81035261D01*
X143102533Y-81035261D02*
X143102073Y-81130050D01*
X143102073Y-81130050D02*
X143046818Y-81203104D01*
X143046818Y-81203104D02*
X142973450Y-81237316D01*
X142405080Y-81455064D02*
X142496560Y-81459693D01*
X142496560Y-81459693D02*
X142643295Y-81391270D01*
X142643295Y-81391270D02*
X142698551Y-81318216D01*
X142698551Y-81318216D02*
X142699010Y-81223426D01*
X142699010Y-81223426D02*
X142554113Y-80912692D01*
X142554113Y-80912692D02*
X142481204Y-80852115D01*
X142481204Y-80852115D02*
X142389724Y-80847485D01*
X142389724Y-80847485D02*
X142242989Y-80915909D01*
X142242989Y-80915909D02*
X142187733Y-80988962D01*
X142187733Y-80988962D02*
X142187274Y-81083752D01*
X142187274Y-81083752D02*
X142223498Y-81161436D01*
X142223498Y-81161436D02*
X142626561Y-81068059D01*
X142074925Y-81609017D02*
X142019670Y-81682071D01*
X142019670Y-81682071D02*
X141872934Y-81750495D01*
X141872934Y-81750495D02*
X141781454Y-81745865D01*
X141781454Y-81745865D02*
X141708546Y-81685288D01*
X141708546Y-81685288D02*
X141690433Y-81646446D01*
X141690433Y-81646446D02*
X141690893Y-81551656D01*
X141690893Y-81551656D02*
X141746149Y-81478603D01*
X141746149Y-81478603D02*
X141856200Y-81427285D01*
X141856200Y-81427285D02*
X141911456Y-81354231D01*
X141911456Y-81354231D02*
X141911915Y-81259441D01*
X141911915Y-81259441D02*
X141893803Y-81220600D01*
X141893803Y-81220600D02*
X141820895Y-81160022D01*
X141820895Y-81160022D02*
X141729415Y-81155392D01*
X141729415Y-81155392D02*
X141619363Y-81206710D01*
X141619363Y-81206710D02*
X141564107Y-81279764D01*
D11*
X147826190Y-80767219D02*
X147730952Y-80767219D01*
X147730952Y-80767219D02*
X147635714Y-80814838D01*
X147635714Y-80814838D02*
X147588095Y-80862457D01*
X147588095Y-80862457D02*
X147540476Y-80957695D01*
X147540476Y-80957695D02*
X147492857Y-81148171D01*
X147492857Y-81148171D02*
X147492857Y-81386266D01*
X147492857Y-81386266D02*
X147540476Y-81576742D01*
X147540476Y-81576742D02*
X147588095Y-81671980D01*
X147588095Y-81671980D02*
X147635714Y-81719600D01*
X147635714Y-81719600D02*
X147730952Y-81767219D01*
X147730952Y-81767219D02*
X147826190Y-81767219D01*
X147826190Y-81767219D02*
X147921428Y-81719600D01*
X147921428Y-81719600D02*
X147969047Y-81671980D01*
X147969047Y-81671980D02*
X148016666Y-81576742D01*
X148016666Y-81576742D02*
X148064285Y-81386266D01*
X148064285Y-81386266D02*
X148064285Y-81148171D01*
X148064285Y-81148171D02*
X148016666Y-80957695D01*
X148016666Y-80957695D02*
X147969047Y-80862457D01*
X147969047Y-80862457D02*
X147921428Y-80814838D01*
X147921428Y-80814838D02*
X147826190Y-80767219D01*
X146921428Y-81195790D02*
X147016666Y-81148171D01*
X147016666Y-81148171D02*
X147064285Y-81100552D01*
X147064285Y-81100552D02*
X147111904Y-81005314D01*
X147111904Y-81005314D02*
X147111904Y-80957695D01*
X147111904Y-80957695D02*
X147064285Y-80862457D01*
X147064285Y-80862457D02*
X147016666Y-80814838D01*
X147016666Y-80814838D02*
X146921428Y-80767219D01*
X146921428Y-80767219D02*
X146730952Y-80767219D01*
X146730952Y-80767219D02*
X146635714Y-80814838D01*
X146635714Y-80814838D02*
X146588095Y-80862457D01*
X146588095Y-80862457D02*
X146540476Y-80957695D01*
X146540476Y-80957695D02*
X146540476Y-81005314D01*
X146540476Y-81005314D02*
X146588095Y-81100552D01*
X146588095Y-81100552D02*
X146635714Y-81148171D01*
X146635714Y-81148171D02*
X146730952Y-81195790D01*
X146730952Y-81195790D02*
X146921428Y-81195790D01*
X146921428Y-81195790D02*
X147016666Y-81243409D01*
X147016666Y-81243409D02*
X147064285Y-81291028D01*
X147064285Y-81291028D02*
X147111904Y-81386266D01*
X147111904Y-81386266D02*
X147111904Y-81576742D01*
X147111904Y-81576742D02*
X147064285Y-81671980D01*
X147064285Y-81671980D02*
X147016666Y-81719600D01*
X147016666Y-81719600D02*
X146921428Y-81767219D01*
X146921428Y-81767219D02*
X146730952Y-81767219D01*
X146730952Y-81767219D02*
X146635714Y-81719600D01*
X146635714Y-81719600D02*
X146588095Y-81671980D01*
X146588095Y-81671980D02*
X146540476Y-81576742D01*
X146540476Y-81576742D02*
X146540476Y-81386266D01*
X146540476Y-81386266D02*
X146588095Y-81291028D01*
X146588095Y-81291028D02*
X146635714Y-81243409D01*
X146635714Y-81243409D02*
X146730952Y-81195790D01*
X145921428Y-80767219D02*
X145826190Y-80767219D01*
X145826190Y-80767219D02*
X145730952Y-80814838D01*
X145730952Y-80814838D02*
X145683333Y-80862457D01*
X145683333Y-80862457D02*
X145635714Y-80957695D01*
X145635714Y-80957695D02*
X145588095Y-81148171D01*
X145588095Y-81148171D02*
X145588095Y-81386266D01*
X145588095Y-81386266D02*
X145635714Y-81576742D01*
X145635714Y-81576742D02*
X145683333Y-81671980D01*
X145683333Y-81671980D02*
X145730952Y-81719600D01*
X145730952Y-81719600D02*
X145826190Y-81767219D01*
X145826190Y-81767219D02*
X145921428Y-81767219D01*
X145921428Y-81767219D02*
X146016666Y-81719600D01*
X146016666Y-81719600D02*
X146064285Y-81671980D01*
X146064285Y-81671980D02*
X146111904Y-81576742D01*
X146111904Y-81576742D02*
X146159523Y-81386266D01*
X146159523Y-81386266D02*
X146159523Y-81148171D01*
X146159523Y-81148171D02*
X146111904Y-80957695D01*
X146111904Y-80957695D02*
X146064285Y-80862457D01*
X146064285Y-80862457D02*
X146016666Y-80814838D01*
X146016666Y-80814838D02*
X145921428Y-80767219D01*
X144683333Y-80767219D02*
X145159523Y-80767219D01*
X145159523Y-80767219D02*
X145207142Y-81243409D01*
X145207142Y-81243409D02*
X145159523Y-81195790D01*
X145159523Y-81195790D02*
X145064285Y-81148171D01*
X145064285Y-81148171D02*
X144826190Y-81148171D01*
X144826190Y-81148171D02*
X144730952Y-81195790D01*
X144730952Y-81195790D02*
X144683333Y-81243409D01*
X144683333Y-81243409D02*
X144635714Y-81338647D01*
X144635714Y-81338647D02*
X144635714Y-81576742D01*
X144635714Y-81576742D02*
X144683333Y-81671980D01*
X144683333Y-81671980D02*
X144730952Y-81719600D01*
X144730952Y-81719600D02*
X144826190Y-81767219D01*
X144826190Y-81767219D02*
X145064285Y-81767219D01*
X145064285Y-81767219D02*
X145159523Y-81719600D01*
X145159523Y-81719600D02*
X145207142Y-81671980D01*
M02*
