%TF.GenerationSoftware,KiCad,Pcbnew,10.0.5*%
%TF.CreationDate,2026-08-24T15:46:22+02:00*%
%TF.ProjectId,fs_led_res_0805,66735f6c-6564-45f7-9265-735f30383035,rev?*%
%TF.SameCoordinates,Original*%
%TF.FileFunction,Copper,L1,Top*%
%TF.FilePolarity,Positive*%
%FSLAX46Y46*%
G04 Gerber Fmt 4.6, Leading zero omitted, Abs format (unit mm)*
G04 Created by KiCad (PCBNEW 10.0.5) date 2026-08-24 15:46:22*
%MOMM*%
%LPD*%
G01*
G04 APERTURE LIST*
G04 Aperture macros list*
%AMRoundRect*
0 Rectangle with rounded corners*
0 $1 Rounding radius*
0 $2 $3 $4 $5 $6 $7 $8 $9 X,Y pos of 4 corners*
0 Add a 4 corners polygon primitive as box body*
4,1,4,$2,$3,$4,$5,$6,$7,$8,$9,$2,$3,0*
0 Add four circle primitives for the rounded corners*
1,1,$1+$1,$2,$3*
1,1,$1+$1,$4,$5*
1,1,$1+$1,$6,$7*
1,1,$1+$1,$8,$9*
0 Add four rect primitives between the rounded corners*
20,1,$1+$1,$2,$3,$4,$5,0*
20,1,$1+$1,$4,$5,$6,$7,0*
20,1,$1+$1,$6,$7,$8,$9,0*
20,1,$1+$1,$8,$9,$2,$3,0*%
G04 Aperture macros list end*
%TA.AperFunction,Conductor*%
%ADD10C,0.100000*%
%TD*%
%TA.AperFunction,ComponentPad*%
%ADD11C,2.600000*%
%TD*%
%TA.AperFunction,ConnectorPad*%
%ADD12C,3.800000*%
%TD*%
%TA.AperFunction,SMDPad,CuDef*%
%ADD13RoundRect,0.250000X0.450000X-0.325000X0.450000X0.325000X-0.450000X0.325000X-0.450000X-0.325000X0*%
%TD*%
%TA.AperFunction,ViaPad*%
%ADD14C,0.600000*%
%TD*%
G04 APERTURE END LIST*
%TO.N,GND*%
D10*
X147900000Y-66000000D02*
X151300000Y-66000000D01*
X151300000Y-70100000D01*
X147900000Y-70100000D01*
X147900000Y-66000000D01*
%TA.AperFunction,Conductor*%
G36*
X147900000Y-66000000D02*
G01*
X151300000Y-66000000D01*
X151300000Y-70100000D01*
X147900000Y-70100000D01*
X147900000Y-66000000D01*
G37*
%TD.AperFunction*%
%TO.N,VCC*%
X140000000Y-66000000D02*
X143400000Y-66000000D01*
X143400000Y-70100000D01*
X140000000Y-70100000D01*
X140000000Y-66000000D01*
%TA.AperFunction,Conductor*%
G36*
X140000000Y-66000000D02*
G01*
X143400000Y-66000000D01*
X143400000Y-70100000D01*
X140000000Y-70100000D01*
X140000000Y-66000000D01*
G37*
%TD.AperFunction*%
%TD*%
D11*
%TO.P,H2,1,1_1*%
%TO.N,GND*%
X149300000Y-68000000D03*
D12*
X149300000Y-68000000D03*
%TD*%
D13*
%TO.P,D1,1,K_1*%
%TO.N,Net-(D1-K)*%
X145600000Y-69025000D03*
%TO.P,D1,2,A_2*%
%TO.N,VCC*%
X145600000Y-66975000D03*
%TD*%
D11*
%TO.P,H1,1,1_1*%
%TO.N,VCC*%
X142000000Y-68000000D03*
D12*
X142000000Y-68000000D03*
%TD*%
D14*
%TO.N,Net-(D1-K)*%
X145600000Y-69025000D03*
%TD*%
%TA.AperFunction,Conductor*%
%TO.N,VCC*%
G36*
X144293106Y-66505523D02*
G01*
X144308104Y-66509927D01*
X144366855Y-66547672D01*
X144368042Y-66549041D01*
X144395518Y-66603902D01*
X144397163Y-66611460D01*
X144400000Y-66637831D01*
X144400000Y-66725000D01*
X145458170Y-66725000D01*
X145463617Y-66726599D01*
X145469188Y-66725490D01*
X145493106Y-66730023D01*
X145508104Y-66734427D01*
X145523112Y-66744069D01*
X145525209Y-66744685D01*
X145526638Y-66746334D01*
X145566855Y-66772172D01*
X145568042Y-66773541D01*
X145595518Y-66828402D01*
X145597163Y-66835960D01*
X145600000Y-66862331D01*
X145600000Y-67083170D01*
X145594975Y-67118114D01*
X145590570Y-67133112D01*
X145582704Y-67145354D01*
X145579366Y-67159498D01*
X145564223Y-67174117D01*
X145552827Y-67191855D01*
X145551458Y-67193042D01*
X145537253Y-67200155D01*
X145529100Y-67208028D01*
X145516539Y-67210530D01*
X145496597Y-67220518D01*
X145489039Y-67222163D01*
X145462668Y-67225000D01*
X144400001Y-67225000D01*
X144400001Y-67349995D01*
X144410493Y-67452694D01*
X144410493Y-67452695D01*
X144410494Y-67452697D01*
X144465641Y-67619119D01*
X144465643Y-67619124D01*
X144557684Y-67768345D01*
X144681655Y-67892316D01*
X144681660Y-67892321D01*
X144681917Y-67892544D01*
X144692864Y-67903295D01*
X144705857Y-67917740D01*
X144736055Y-67980747D01*
X144727394Y-68050078D01*
X144727394Y-68050079D01*
X144725988Y-68053315D01*
X144693464Y-68097612D01*
X144691216Y-68099560D01*
X144682432Y-68106503D01*
X144681359Y-68107274D01*
X144681340Y-68107290D01*
X144557288Y-68231343D01*
X144465187Y-68380662D01*
X144465187Y-68380663D01*
X144465186Y-68380666D01*
X144420300Y-68516123D01*
X144411852Y-68529069D01*
X144410365Y-68543630D01*
X144409542Y-68549881D01*
X144409359Y-68553476D01*
X144399500Y-68649973D01*
X144399500Y-69357673D01*
X144394477Y-69392608D01*
X144390074Y-69407603D01*
X144352329Y-69466355D01*
X144350960Y-69467542D01*
X144296096Y-69495019D01*
X144288537Y-69496664D01*
X144262169Y-69499500D01*
X142007320Y-69499500D01*
X142002445Y-69499404D01*
X141997565Y-69499212D01*
X141992711Y-69498926D01*
X141780006Y-69482185D01*
X141770341Y-69481041D01*
X141760755Y-69479523D01*
X141751202Y-69477623D01*
X141550854Y-69429524D01*
X141541475Y-69426878D01*
X141532238Y-69423876D01*
X141523111Y-69420509D01*
X141371411Y-69357673D01*
X141332746Y-69341657D01*
X141323908Y-69337582D01*
X141320478Y-69335834D01*
X141315248Y-69333169D01*
X141306765Y-69328418D01*
X141278919Y-69311354D01*
X141253809Y-69295967D01*
X141131085Y-69220761D01*
X141122993Y-69215354D01*
X141115134Y-69209644D01*
X141107488Y-69203617D01*
X140950813Y-69069804D01*
X140943664Y-69063195D01*
X140936803Y-69056334D01*
X140930194Y-69049185D01*
X140796366Y-68892492D01*
X140790358Y-68884871D01*
X140784640Y-68877002D01*
X140779237Y-68868915D01*
X140671577Y-68693228D01*
X140666824Y-68684742D01*
X140662408Y-68676074D01*
X140658337Y-68667241D01*
X140644066Y-68632788D01*
X140579486Y-68476878D01*
X140576118Y-68467750D01*
X140573115Y-68458509D01*
X140570479Y-68449161D01*
X140522373Y-68248788D01*
X140520475Y-68239243D01*
X140519224Y-68231343D01*
X140518956Y-68229651D01*
X140517813Y-68219994D01*
X140501647Y-68014572D01*
X140501265Y-68004844D01*
X140501265Y-67995152D01*
X140501647Y-67985424D01*
X140504740Y-67946116D01*
X140517814Y-67779981D01*
X140518954Y-67770351D01*
X140520477Y-67760736D01*
X140522373Y-67751211D01*
X140570483Y-67550820D01*
X140573110Y-67541504D01*
X140576126Y-67532221D01*
X140579473Y-67523149D01*
X140658346Y-67332733D01*
X140662408Y-67323924D01*
X140666826Y-67315251D01*
X140671568Y-67306784D01*
X140779253Y-67131058D01*
X140784635Y-67123003D01*
X140790355Y-67115130D01*
X140796361Y-67107511D01*
X140930210Y-66950794D01*
X140936795Y-66943671D01*
X140943671Y-66936795D01*
X140950794Y-66930210D01*
X141107511Y-66796361D01*
X141115130Y-66790355D01*
X141123003Y-66784635D01*
X141131058Y-66779253D01*
X141306784Y-66671568D01*
X141315251Y-66666826D01*
X141323924Y-66662408D01*
X141332733Y-66658346D01*
X141523149Y-66579473D01*
X141532221Y-66576126D01*
X141541504Y-66573110D01*
X141550820Y-66570483D01*
X141751212Y-66522372D01*
X141760748Y-66520476D01*
X141762584Y-66520185D01*
X141770335Y-66518957D01*
X141779979Y-66517814D01*
X141992722Y-66501071D01*
X141997597Y-66500785D01*
X142002452Y-66500595D01*
X142007301Y-66500500D01*
X144258170Y-66500500D01*
X144293106Y-66505523D01*
G37*
%TD.AperFunction*%
%TD*%
%TA.AperFunction,Conductor*%
%TO.N,GND*%
G36*
X149387708Y-66501501D02*
G01*
X149595573Y-66528094D01*
X149614291Y-66531977D01*
X149818663Y-66591151D01*
X149836575Y-66597875D01*
X150029392Y-66687806D01*
X150046066Y-66697215D01*
X150222726Y-66815753D01*
X150237753Y-66827616D01*
X150394060Y-66971945D01*
X150407079Y-66985978D01*
X150539298Y-67152649D01*
X150550005Y-67168525D01*
X150654984Y-67353563D01*
X150663118Y-67370897D01*
X150738357Y-67569893D01*
X150743727Y-67588275D01*
X150787430Y-67796488D01*
X150789904Y-67815477D01*
X150801027Y-68027924D01*
X150800549Y-68047066D01*
X150778830Y-68258698D01*
X150775410Y-68277540D01*
X150721365Y-68483304D01*
X150715085Y-68501393D01*
X150630004Y-68696383D01*
X150621014Y-68713291D01*
X150506922Y-68892862D01*
X150495435Y-68908183D01*
X150355066Y-69068034D01*
X150341358Y-69081404D01*
X150178038Y-69217748D01*
X150162433Y-69228849D01*
X149980074Y-69338416D01*
X149962949Y-69346981D01*
X149765898Y-69427165D01*
X149747656Y-69432992D01*
X149540602Y-69481881D01*
X149521682Y-69484829D01*
X149337033Y-69499130D01*
X149327458Y-69499500D01*
X146924500Y-69499500D01*
X146857461Y-69479815D01*
X146811706Y-69427011D01*
X146800500Y-69375500D01*
X146800499Y-68649998D01*
X146800498Y-68649980D01*
X146789999Y-68547203D01*
X146789998Y-68547200D01*
X146768825Y-68483304D01*
X146734814Y-68380666D01*
X146642712Y-68231344D01*
X146518656Y-68107288D01*
X146515819Y-68105538D01*
X146514283Y-68103830D01*
X146512989Y-68102807D01*
X146513163Y-68102585D01*
X146469096Y-68053594D01*
X146457872Y-67984632D01*
X146485713Y-67920549D01*
X146515817Y-67894462D01*
X146518656Y-67892712D01*
X146642712Y-67768656D01*
X146734814Y-67619334D01*
X146789999Y-67452797D01*
X146800500Y-67350009D01*
X146800499Y-66624499D01*
X146820183Y-66557461D01*
X146872987Y-66511706D01*
X146924499Y-66500500D01*
X149371987Y-66500500D01*
X149387708Y-66501501D01*
G37*
%TD.AperFunction*%
%TD*%
M02*
