%TF.GenerationSoftware,KiCad,Pcbnew,10.0.4*%
%TF.CreationDate,2026-07-01T18:47:49+02:00*%
%TF.ProjectId,fs_led_res_0805,66735f6c-6564-45f7-9265-735f30383035,rev?*%
%TF.SameCoordinates,Original*%
%TF.FileFunction,Copper,L1,Top*%
%TF.FilePolarity,Positive*%
%FSLAX46Y46*%
G04 Gerber Fmt 4.6, Leading zero omitted, Abs format (unit mm)*
G04 Created by KiCad (PCBNEW 10.0.4) date 2026-07-01 18:47:49*
%MOMM*%
%LPD*%
G01*
G04 APERTURE LIST*
G04 Aperture macros list*
%AMRoundRect*
0 Rectangle with rounded corners*
0 $1 Rounding radius*
0 $2 $3 $4 $5 $6 $7 $8 $9 X,Y pos of 4 corners*
0 Add a 4 corners polygon primitive as box body*
4,1,4,$2,$3,$4,$5,$6,$7,$8,$9,$2,$3,0*
0 Add four circle primitives for the rounded corners*
1,1,$1+$1,$2,$3*
1,1,$1+$1,$4,$5*
1,1,$1+$1,$6,$7*
1,1,$1+$1,$8,$9*
0 Add four rect primitives between the rounded corners*
20,1,$1+$1,$2,$3,$4,$5,0*
20,1,$1+$1,$4,$5,$6,$7,0*
20,1,$1+$1,$6,$7,$8,$9,0*
20,1,$1+$1,$8,$9,$2,$3,0*%
G04 Aperture macros list end*
%TA.AperFunction,Conductor*%
%ADD10C,0.200000*%
%TD*%
%TA.AperFunction,SMDPad,CuDef*%
%ADD11RoundRect,0.250000X0.450000X-0.350000X0.450000X0.350000X-0.450000X0.350000X-0.450000X-0.350000X0*%
%TD*%
%TA.AperFunction,ComponentPad*%
%ADD12C,2.600000*%
%TD*%
%TA.AperFunction,ConnectorPad*%
%ADD13C,3.800000*%
%TD*%
%TA.AperFunction,SMDPad,CuDef*%
%ADD14RoundRect,0.250000X0.450000X-0.325000X0.450000X0.325000X-0.450000X0.325000X-0.450000X-0.325000X0*%
%TD*%
%TA.AperFunction,Conductor*%
%ADD15C,0.300000*%
%TD*%
G04 APERTURE END LIST*
%TO.N,GND*%
D10*
X148550000Y-78000000D02*
X151950000Y-78000000D01*
X151950000Y-82000000D01*
X148550000Y-82000000D01*
X148550000Y-78000000D01*
%TA.AperFunction,Conductor*%
G36*
X148550000Y-78000000D02*
G01*
X151950000Y-78000000D01*
X151950000Y-82000000D01*
X148550000Y-82000000D01*
X148550000Y-78000000D01*
G37*
%TD.AperFunction*%
%TO.N,VCC*%
X137950000Y-78000000D02*
X141350000Y-78000000D01*
X141350000Y-82000000D01*
X137950000Y-82000000D01*
X137950000Y-78000000D01*
%TA.AperFunction,Conductor*%
G36*
X137950000Y-78000000D02*
G01*
X141350000Y-78000000D01*
X141350000Y-82000000D01*
X137950000Y-82000000D01*
X137950000Y-78000000D01*
G37*
%TD.AperFunction*%
%TD*%
D11*
%TO.P,R1,1*%
%TO.N,Net-(D1-K)*%
X146000000Y-81000000D03*
%TO.P,R1,2*%
%TO.N,GND*%
X146000000Y-79000000D03*
%TD*%
D12*
%TO.P,H2,1,1_1*%
%TO.N,GND*%
X150000000Y-80000000D03*
D13*
X150000000Y-80000000D03*
%TD*%
D14*
%TO.P,D1,1,K_1*%
%TO.N,Net-(D1-K)*%
X144000000Y-81025000D03*
%TO.P,D1,2,A_2*%
%TO.N,VCC*%
X144000000Y-78975000D03*
%TD*%
D12*
%TO.P,H1,1,1_1*%
%TO.N,VCC*%
X140000000Y-80000000D03*
D13*
X140000000Y-80000000D03*
%TD*%
%TO.N,VCC*%
D15*
X141500000Y-80000000D02*
X142525000Y-78975000D01*
X140000000Y-80000000D02*
X141500000Y-80000000D01*
X142525000Y-78975000D02*
X144000000Y-78975000D01*
%TO.N,Net-(D1-K)*%
D10*
X145975000Y-81025000D02*
X146000000Y-81000000D01*
D15*
X144000000Y-81025000D02*
X145975000Y-81025000D01*
%TO.N,GND*%
X148000000Y-80000000D02*
X150000000Y-80000000D01*
X147000000Y-79000000D02*
X148000000Y-80000000D01*
X146000000Y-79000000D02*
X147000000Y-79000000D01*
%TD*%
M02*
