%TF.GenerationSoftware,KiCad,Pcbnew,10.0.0*%
%TF.CreationDate,2026-03-26T01:58:46+01:00*%
%TF.ProjectId,resistor_0805_order,72657369-7374-46f7-925f-303830355f6f,rev?*%
%TF.SameCoordinates,Original*%
%TF.FileFunction,Legend,Top*%
%TF.FilePolarity,Positive*%
%FSLAX46Y46*%
G04 Gerber Fmt 4.6, Leading zero omitted, Abs format (unit mm)*
G04 Created by KiCad (PCBNEW 10.0.0) date 2026-03-26 01:58:46*
%MOMM*%
%LPD*%
G01*
G04 APERTURE LIST*
%ADD10C,0.150000*%
%ADD11C,0.120000*%
G04 APERTURE END LIST*
D10*
X190819048Y-105489366D02*
X191580953Y-105489366D01*
X190819048Y-99489366D02*
X191580953Y-99489366D01*
X190819048Y-93489366D02*
X191580953Y-93489366D01*
X190819048Y-87489366D02*
X191580953Y-87489366D01*
X190819048Y-81489366D02*
X191580953Y-81489366D01*
X190819048Y-75489366D02*
X191580953Y-75489366D01*
X190819048Y-69489366D02*
X191580953Y-69489366D01*
X190819048Y-63489366D02*
X191580953Y-63489366D01*
X190819048Y-57489366D02*
X191580953Y-57489366D01*
X190819048Y-51489366D02*
X191580953Y-51489366D01*
X190819048Y-45489366D02*
X191580953Y-45489366D01*
X190819048Y-39489366D02*
X191580953Y-39489366D01*
X190819048Y-33489366D02*
X191580953Y-33489366D01*
X190819048Y-27489366D02*
X191580953Y-27489366D01*
X185369048Y-108389366D02*
X186130953Y-108389366D01*
X185750000Y-108770319D02*
X185750000Y-108008414D01*
X185369048Y-102389366D02*
X186130953Y-102389366D01*
X185750000Y-102770319D02*
X185750000Y-102008414D01*
X185369048Y-96389366D02*
X186130953Y-96389366D01*
X185750000Y-96770319D02*
X185750000Y-96008414D01*
X185369048Y-90389366D02*
X186130953Y-90389366D01*
X185750000Y-90770319D02*
X185750000Y-90008414D01*
X185369048Y-84389366D02*
X186130953Y-84389366D01*
X185750000Y-84770319D02*
X185750000Y-84008414D01*
X185369048Y-78389366D02*
X186130953Y-78389366D01*
X185750000Y-78770319D02*
X185750000Y-78008414D01*
X185369048Y-72389366D02*
X186130953Y-72389366D01*
X185750000Y-72770319D02*
X185750000Y-72008414D01*
X185369048Y-66389366D02*
X186130953Y-66389366D01*
X185750000Y-66770319D02*
X185750000Y-66008414D01*
X185369048Y-60389366D02*
X186130953Y-60389366D01*
X185750000Y-60770319D02*
X185750000Y-60008414D01*
X185369048Y-54389366D02*
X186130953Y-54389366D01*
X185750000Y-54770319D02*
X185750000Y-54008414D01*
X185369048Y-48389366D02*
X186130953Y-48389366D01*
X185750000Y-48770319D02*
X185750000Y-48008414D01*
X185369048Y-42389366D02*
X186130953Y-42389366D01*
X185750000Y-42770319D02*
X185750000Y-42008414D01*
X185369048Y-36389366D02*
X186130953Y-36389366D01*
X185750000Y-36770319D02*
X185750000Y-36008414D01*
X185369048Y-30389366D02*
X186130953Y-30389366D01*
X185750000Y-30770319D02*
X185750000Y-30008414D01*
X174819048Y-105489366D02*
X175580953Y-105489366D01*
X174819048Y-99489366D02*
X175580953Y-99489366D01*
X174819048Y-93489366D02*
X175580953Y-93489366D01*
X174819048Y-87489366D02*
X175580953Y-87489366D01*
X174819048Y-81489366D02*
X175580953Y-81489366D01*
X174819048Y-75489366D02*
X175580953Y-75489366D01*
X174819048Y-69489366D02*
X175580953Y-69489366D01*
X174819048Y-63489366D02*
X175580953Y-63489366D01*
X174819048Y-57489366D02*
X175580953Y-57489366D01*
X174819048Y-51489366D02*
X175580953Y-51489366D01*
X174819048Y-45489366D02*
X175580953Y-45489366D01*
X174819048Y-39489366D02*
X175580953Y-39489366D01*
X174819048Y-33489366D02*
X175580953Y-33489366D01*
X174819048Y-27489366D02*
X175580953Y-27489366D01*
X169369048Y-108389366D02*
X170130953Y-108389366D01*
X169750000Y-108770319D02*
X169750000Y-108008414D01*
X169369048Y-102389366D02*
X170130953Y-102389366D01*
X169750000Y-102770319D02*
X169750000Y-102008414D01*
X169369048Y-96389366D02*
X170130953Y-96389366D01*
X169750000Y-96770319D02*
X169750000Y-96008414D01*
X169369048Y-90389366D02*
X170130953Y-90389366D01*
X169750000Y-90770319D02*
X169750000Y-90008414D01*
X169369048Y-84389366D02*
X170130953Y-84389366D01*
X169750000Y-84770319D02*
X169750000Y-84008414D01*
X169369048Y-78389366D02*
X170130953Y-78389366D01*
X169750000Y-78770319D02*
X169750000Y-78008414D01*
X169369048Y-72389366D02*
X170130953Y-72389366D01*
X169750000Y-72770319D02*
X169750000Y-72008414D01*
X169369048Y-66389366D02*
X170130953Y-66389366D01*
X169750000Y-66770319D02*
X169750000Y-66008414D01*
X169369048Y-60389366D02*
X170130953Y-60389366D01*
X169750000Y-60770319D02*
X169750000Y-60008414D01*
X169369048Y-54389366D02*
X170130953Y-54389366D01*
X169750000Y-54770319D02*
X169750000Y-54008414D01*
X169369048Y-48389366D02*
X170130953Y-48389366D01*
X169750000Y-48770319D02*
X169750000Y-48008414D01*
X169369048Y-42389366D02*
X170130953Y-42389366D01*
X169750000Y-42770319D02*
X169750000Y-42008414D01*
X169369048Y-36389366D02*
X170130953Y-36389366D01*
X169750000Y-36770319D02*
X169750000Y-36008414D01*
X169369048Y-30389366D02*
X170130953Y-30389366D01*
X169750000Y-30770319D02*
X169750000Y-30008414D01*
X158819048Y-105489366D02*
X159580953Y-105489366D01*
X158819048Y-99489366D02*
X159580953Y-99489366D01*
X158819048Y-93489366D02*
X159580953Y-93489366D01*
X158819048Y-87489366D02*
X159580953Y-87489366D01*
X158819048Y-81489366D02*
X159580953Y-81489366D01*
X158819048Y-75489366D02*
X159580953Y-75489366D01*
X158819048Y-69489366D02*
X159580953Y-69489366D01*
X158819048Y-63489366D02*
X159580953Y-63489366D01*
X158819048Y-57489366D02*
X159580953Y-57489366D01*
X158819048Y-51489366D02*
X159580953Y-51489366D01*
X158819048Y-45489366D02*
X159580953Y-45489366D01*
X158819048Y-39489366D02*
X159580953Y-39489366D01*
X158819048Y-33489366D02*
X159580953Y-33489366D01*
X158819048Y-27489366D02*
X159580953Y-27489366D01*
X153369048Y-108389366D02*
X154130953Y-108389366D01*
X153750000Y-108770319D02*
X153750000Y-108008414D01*
X153369048Y-102389366D02*
X154130953Y-102389366D01*
X153750000Y-102770319D02*
X153750000Y-102008414D01*
X153369048Y-96389366D02*
X154130953Y-96389366D01*
X153750000Y-96770319D02*
X153750000Y-96008414D01*
X153369048Y-90389366D02*
X154130953Y-90389366D01*
X153750000Y-90770319D02*
X153750000Y-90008414D01*
X153369048Y-84389366D02*
X154130953Y-84389366D01*
X153750000Y-84770319D02*
X153750000Y-84008414D01*
X153369048Y-78389366D02*
X154130953Y-78389366D01*
X153750000Y-78770319D02*
X153750000Y-78008414D01*
X153369048Y-72389366D02*
X154130953Y-72389366D01*
X153750000Y-72770319D02*
X153750000Y-72008414D01*
X153369048Y-66389366D02*
X154130953Y-66389366D01*
X153750000Y-66770319D02*
X153750000Y-66008414D01*
X153369048Y-60389366D02*
X154130953Y-60389366D01*
X153750000Y-60770319D02*
X153750000Y-60008414D01*
X153369048Y-54389366D02*
X154130953Y-54389366D01*
X153750000Y-54770319D02*
X153750000Y-54008414D01*
X153369048Y-48389366D02*
X154130953Y-48389366D01*
X153750000Y-48770319D02*
X153750000Y-48008414D01*
X153369048Y-42389366D02*
X154130953Y-42389366D01*
X153750000Y-42770319D02*
X153750000Y-42008414D01*
X153369048Y-36389366D02*
X154130953Y-36389366D01*
X153750000Y-36770319D02*
X153750000Y-36008414D01*
X153369048Y-30389366D02*
X154130953Y-30389366D01*
X153750000Y-30770319D02*
X153750000Y-30008414D01*
X142819048Y-105489366D02*
X143580953Y-105489366D01*
X142819048Y-99489366D02*
X143580953Y-99489366D01*
X142819048Y-93489366D02*
X143580953Y-93489366D01*
X142819048Y-87489366D02*
X143580953Y-87489366D01*
X142819048Y-81489366D02*
X143580953Y-81489366D01*
X142819048Y-75489366D02*
X143580953Y-75489366D01*
X142819048Y-69489366D02*
X143580953Y-69489366D01*
X142819048Y-63489366D02*
X143580953Y-63489366D01*
X142819048Y-57489366D02*
X143580953Y-57489366D01*
X142819048Y-51489366D02*
X143580953Y-51489366D01*
X142819048Y-45489366D02*
X143580953Y-45489366D01*
X142819048Y-39489366D02*
X143580953Y-39489366D01*
X142819048Y-33489366D02*
X143580953Y-33489366D01*
X142819048Y-27489366D02*
X143580953Y-27489366D01*
X137369048Y-108389366D02*
X138130953Y-108389366D01*
X137750000Y-108770319D02*
X137750000Y-108008414D01*
X137369048Y-102389366D02*
X138130953Y-102389366D01*
X137750000Y-102770319D02*
X137750000Y-102008414D01*
X137369048Y-96389366D02*
X138130953Y-96389366D01*
X137750000Y-96770319D02*
X137750000Y-96008414D01*
X137369048Y-90389366D02*
X138130953Y-90389366D01*
X137750000Y-90770319D02*
X137750000Y-90008414D01*
X137369048Y-84389366D02*
X138130953Y-84389366D01*
X137750000Y-84770319D02*
X137750000Y-84008414D01*
X137369048Y-78389366D02*
X138130953Y-78389366D01*
X137750000Y-78770319D02*
X137750000Y-78008414D01*
X137369048Y-72389366D02*
X138130953Y-72389366D01*
X137750000Y-72770319D02*
X137750000Y-72008414D01*
X137369048Y-66389366D02*
X138130953Y-66389366D01*
X137750000Y-66770319D02*
X137750000Y-66008414D01*
X137369048Y-60389366D02*
X138130953Y-60389366D01*
X137750000Y-60770319D02*
X137750000Y-60008414D01*
X137369048Y-54389366D02*
X138130953Y-54389366D01*
X137750000Y-54770319D02*
X137750000Y-54008414D01*
X137369048Y-48389366D02*
X138130953Y-48389366D01*
X137750000Y-48770319D02*
X137750000Y-48008414D01*
X137369048Y-42389366D02*
X138130953Y-42389366D01*
X137750000Y-42770319D02*
X137750000Y-42008414D01*
X137369048Y-36389366D02*
X138130953Y-36389366D01*
X137750000Y-36770319D02*
X137750000Y-36008414D01*
X137369048Y-30389366D02*
X138130953Y-30389366D01*
X137750000Y-30770319D02*
X137750000Y-30008414D01*
X126819048Y-105489366D02*
X127580953Y-105489366D01*
X126819048Y-99489366D02*
X127580953Y-99489366D01*
X126819048Y-93489366D02*
X127580953Y-93489366D01*
X126819048Y-87489366D02*
X127580953Y-87489366D01*
X126819048Y-81489366D02*
X127580953Y-81489366D01*
X126819048Y-75489366D02*
X127580953Y-75489366D01*
X126819048Y-69489366D02*
X127580953Y-69489366D01*
X126819048Y-63489366D02*
X127580953Y-63489366D01*
X126819048Y-57489366D02*
X127580953Y-57489366D01*
X126819048Y-51489366D02*
X127580953Y-51489366D01*
X126819048Y-45489366D02*
X127580953Y-45489366D01*
X126819048Y-39489366D02*
X127580953Y-39489366D01*
X126819048Y-33489366D02*
X127580953Y-33489366D01*
X126819048Y-27489366D02*
X127580953Y-27489366D01*
X121369048Y-108389366D02*
X122130953Y-108389366D01*
X121750000Y-108770319D02*
X121750000Y-108008414D01*
X121369048Y-102389366D02*
X122130953Y-102389366D01*
X121750000Y-102770319D02*
X121750000Y-102008414D01*
X121369048Y-96389366D02*
X122130953Y-96389366D01*
X121750000Y-96770319D02*
X121750000Y-96008414D01*
X121369048Y-90389366D02*
X122130953Y-90389366D01*
X121750000Y-90770319D02*
X121750000Y-90008414D01*
X121369048Y-84389366D02*
X122130953Y-84389366D01*
X121750000Y-84770319D02*
X121750000Y-84008414D01*
X121369048Y-78389366D02*
X122130953Y-78389366D01*
X121750000Y-78770319D02*
X121750000Y-78008414D01*
X121369048Y-72389366D02*
X122130953Y-72389366D01*
X121750000Y-72770319D02*
X121750000Y-72008414D01*
X121369048Y-66389366D02*
X122130953Y-66389366D01*
X121750000Y-66770319D02*
X121750000Y-66008414D01*
X121369048Y-60389366D02*
X122130953Y-60389366D01*
X121750000Y-60770319D02*
X121750000Y-60008414D01*
X121369048Y-54389366D02*
X122130953Y-54389366D01*
X121750000Y-54770319D02*
X121750000Y-54008414D01*
X121369048Y-48389366D02*
X122130953Y-48389366D01*
X121750000Y-48770319D02*
X121750000Y-48008414D01*
X121369048Y-42389366D02*
X122130953Y-42389366D01*
X121750000Y-42770319D02*
X121750000Y-42008414D01*
X121369048Y-36389366D02*
X122130953Y-36389366D01*
X121750000Y-36770319D02*
X121750000Y-36008414D01*
X121369048Y-30389366D02*
X122130953Y-30389366D01*
X121750000Y-30770319D02*
X121750000Y-30008414D01*
X110819048Y-105489366D02*
X111580953Y-105489366D01*
X110819048Y-99489366D02*
X111580953Y-99489366D01*
X110819048Y-93489366D02*
X111580953Y-93489366D01*
X110819048Y-87489366D02*
X111580953Y-87489366D01*
X110819048Y-81489366D02*
X111580953Y-81489366D01*
X110819048Y-75489366D02*
X111580953Y-75489366D01*
X110819048Y-69489366D02*
X111580953Y-69489366D01*
X110819048Y-63489366D02*
X111580953Y-63489366D01*
X110819048Y-57489366D02*
X111580953Y-57489366D01*
X110819048Y-51489366D02*
X111580953Y-51489366D01*
X110819048Y-45489366D02*
X111580953Y-45489366D01*
X110819048Y-39489366D02*
X111580953Y-39489366D01*
X110819048Y-33489366D02*
X111580953Y-33489366D01*
X110819048Y-27489366D02*
X111580953Y-27489366D01*
X105369048Y-108389366D02*
X106130953Y-108389366D01*
X105750000Y-108770319D02*
X105750000Y-108008414D01*
X105369048Y-102389366D02*
X106130953Y-102389366D01*
X105750000Y-102770319D02*
X105750000Y-102008414D01*
X105369048Y-96389366D02*
X106130953Y-96389366D01*
X105750000Y-96770319D02*
X105750000Y-96008414D01*
X105369048Y-90389366D02*
X106130953Y-90389366D01*
X105750000Y-90770319D02*
X105750000Y-90008414D01*
X105369048Y-84389366D02*
X106130953Y-84389366D01*
X105750000Y-84770319D02*
X105750000Y-84008414D01*
X105369048Y-78389366D02*
X106130953Y-78389366D01*
X105750000Y-78770319D02*
X105750000Y-78008414D01*
X105369048Y-72389366D02*
X106130953Y-72389366D01*
X105750000Y-72770319D02*
X105750000Y-72008414D01*
X105369048Y-66389366D02*
X106130953Y-66389366D01*
X105750000Y-66770319D02*
X105750000Y-66008414D01*
X105369048Y-60389366D02*
X106130953Y-60389366D01*
X105750000Y-60770319D02*
X105750000Y-60008414D01*
X105369048Y-54389366D02*
X106130953Y-54389366D01*
X105750000Y-54770319D02*
X105750000Y-54008414D01*
X105369048Y-48389366D02*
X106130953Y-48389366D01*
X105750000Y-48770319D02*
X105750000Y-48008414D01*
X105369048Y-42389366D02*
X106130953Y-42389366D01*
X105750000Y-42770319D02*
X105750000Y-42008414D01*
X105369048Y-36389366D02*
X106130953Y-36389366D01*
X105750000Y-36770319D02*
X105750000Y-36008414D01*
X105369048Y-30389366D02*
X106130953Y-30389366D01*
X105750000Y-30770319D02*
X105750000Y-30008414D01*
%TO.C,D1*%
D11*
X106540000Y-34000500D02*
X106540000Y-36860500D01*
X106540000Y-36860500D02*
X108460000Y-36860500D01*
X108460000Y-36860500D02*
X108460000Y-34000500D01*
%TO.C,R1*%
X108765000Y-71227564D02*
X108765000Y-70773436D01*
X110235000Y-71227564D02*
X110235000Y-70773436D01*
X188765000Y-35227564D02*
X188765000Y-34773436D01*
X190235000Y-35227564D02*
X190235000Y-34773436D01*
X156765000Y-101227564D02*
X156765000Y-100773436D01*
X158235000Y-101227564D02*
X158235000Y-100773436D01*
%TO.C,D1*%
X138540000Y-58000500D02*
X138540000Y-60860500D01*
X138540000Y-60860500D02*
X140460000Y-60860500D01*
X140460000Y-60860500D02*
X140460000Y-58000500D01*
X122540000Y-40000500D02*
X122540000Y-42860500D01*
X122540000Y-42860500D02*
X124460000Y-42860500D01*
X124460000Y-42860500D02*
X124460000Y-40000500D01*
X138540000Y-40000500D02*
X138540000Y-42860500D01*
X138540000Y-42860500D02*
X140460000Y-42860500D01*
X140460000Y-42860500D02*
X140460000Y-40000500D01*
X186540000Y-70000500D02*
X186540000Y-72860500D01*
X186540000Y-72860500D02*
X188460000Y-72860500D01*
X188460000Y-72860500D02*
X188460000Y-70000500D01*
%TO.C,R1*%
X124765000Y-107227564D02*
X124765000Y-106773436D01*
X126235000Y-107227564D02*
X126235000Y-106773436D01*
%TO.C,D1*%
X170540000Y-82000500D02*
X170540000Y-84860500D01*
X170540000Y-84860500D02*
X172460000Y-84860500D01*
X172460000Y-84860500D02*
X172460000Y-82000500D01*
X122540000Y-64000500D02*
X122540000Y-66860500D01*
X122540000Y-66860500D02*
X124460000Y-66860500D01*
X124460000Y-66860500D02*
X124460000Y-64000500D01*
X106540000Y-64000500D02*
X106540000Y-66860500D01*
X106540000Y-66860500D02*
X108460000Y-66860500D01*
X108460000Y-66860500D02*
X108460000Y-64000500D01*
%TO.C,R1*%
X124765000Y-41227564D02*
X124765000Y-40773436D01*
X126235000Y-41227564D02*
X126235000Y-40773436D01*
X156765000Y-41227564D02*
X156765000Y-40773436D01*
X158235000Y-41227564D02*
X158235000Y-40773436D01*
X108765000Y-35227564D02*
X108765000Y-34773436D01*
X110235000Y-35227564D02*
X110235000Y-34773436D01*
%TO.C,D1*%
X122540000Y-70000500D02*
X122540000Y-72860500D01*
X122540000Y-72860500D02*
X124460000Y-72860500D01*
X124460000Y-72860500D02*
X124460000Y-70000500D01*
X154540000Y-46000500D02*
X154540000Y-48860500D01*
X154540000Y-48860500D02*
X156460000Y-48860500D01*
X156460000Y-48860500D02*
X156460000Y-46000500D01*
X186540000Y-28000500D02*
X186540000Y-30860500D01*
X186540000Y-30860500D02*
X188460000Y-30860500D01*
X188460000Y-30860500D02*
X188460000Y-28000500D01*
%TO.C,R1*%
X140765000Y-65227564D02*
X140765000Y-64773436D01*
X142235000Y-65227564D02*
X142235000Y-64773436D01*
%TO.C,D1*%
X186540000Y-46000500D02*
X186540000Y-48860500D01*
X186540000Y-48860500D02*
X188460000Y-48860500D01*
X188460000Y-48860500D02*
X188460000Y-46000500D01*
X122540000Y-52000500D02*
X122540000Y-54860500D01*
X122540000Y-54860500D02*
X124460000Y-54860500D01*
X124460000Y-54860500D02*
X124460000Y-52000500D01*
X170540000Y-106000500D02*
X170540000Y-108860500D01*
X170540000Y-108860500D02*
X172460000Y-108860500D01*
X172460000Y-108860500D02*
X172460000Y-106000500D01*
%TO.C,R1*%
X156765000Y-89227564D02*
X156765000Y-88773436D01*
X158235000Y-89227564D02*
X158235000Y-88773436D01*
%TO.C,D1*%
X138540000Y-64000500D02*
X138540000Y-66860500D01*
X138540000Y-66860500D02*
X140460000Y-66860500D01*
X140460000Y-66860500D02*
X140460000Y-64000500D01*
%TO.C,R1*%
X188765000Y-53227564D02*
X188765000Y-52773436D01*
X190235000Y-53227564D02*
X190235000Y-52773436D01*
%TO.C,D1*%
X186540000Y-40000500D02*
X186540000Y-42860500D01*
X186540000Y-42860500D02*
X188460000Y-42860500D01*
X188460000Y-42860500D02*
X188460000Y-40000500D01*
%TO.C,R1*%
X172765000Y-83227564D02*
X172765000Y-82773436D01*
X174235000Y-83227564D02*
X174235000Y-82773436D01*
X172765000Y-77227564D02*
X172765000Y-76773436D01*
X174235000Y-77227564D02*
X174235000Y-76773436D01*
X172765000Y-35227564D02*
X172765000Y-34773436D01*
X174235000Y-35227564D02*
X174235000Y-34773436D01*
X140765000Y-89227564D02*
X140765000Y-88773436D01*
X142235000Y-89227564D02*
X142235000Y-88773436D01*
X140765000Y-29227564D02*
X140765000Y-28773436D01*
X142235000Y-29227564D02*
X142235000Y-28773436D01*
X172765000Y-53227564D02*
X172765000Y-52773436D01*
X174235000Y-53227564D02*
X174235000Y-52773436D01*
X140765000Y-77227564D02*
X140765000Y-76773436D01*
X142235000Y-77227564D02*
X142235000Y-76773436D01*
%TO.C,D1*%
X122540000Y-94000500D02*
X122540000Y-96860500D01*
X122540000Y-96860500D02*
X124460000Y-96860500D01*
X124460000Y-96860500D02*
X124460000Y-94000500D01*
X106540000Y-70000500D02*
X106540000Y-72860500D01*
X106540000Y-72860500D02*
X108460000Y-72860500D01*
X108460000Y-72860500D02*
X108460000Y-70000500D01*
%TO.C,R1*%
X188765000Y-41227564D02*
X188765000Y-40773436D01*
X190235000Y-41227564D02*
X190235000Y-40773436D01*
X188765000Y-77227564D02*
X188765000Y-76773436D01*
X190235000Y-77227564D02*
X190235000Y-76773436D01*
X124765000Y-89227564D02*
X124765000Y-88773436D01*
X126235000Y-89227564D02*
X126235000Y-88773436D01*
%TO.C,D1*%
X186540000Y-34000500D02*
X186540000Y-36860500D01*
X186540000Y-36860500D02*
X188460000Y-36860500D01*
X188460000Y-36860500D02*
X188460000Y-34000500D01*
%TO.C,R1*%
X172765000Y-107227564D02*
X172765000Y-106773436D01*
X174235000Y-107227564D02*
X174235000Y-106773436D01*
%TO.C,D1*%
X122540000Y-58000500D02*
X122540000Y-60860500D01*
X122540000Y-60860500D02*
X124460000Y-60860500D01*
X124460000Y-60860500D02*
X124460000Y-58000500D01*
X122540000Y-28000500D02*
X122540000Y-30860500D01*
X122540000Y-30860500D02*
X124460000Y-30860500D01*
X124460000Y-30860500D02*
X124460000Y-28000500D01*
X154540000Y-70000500D02*
X154540000Y-72860500D01*
X154540000Y-72860500D02*
X156460000Y-72860500D01*
X156460000Y-72860500D02*
X156460000Y-70000500D01*
%TO.C,R1*%
X124765000Y-59227564D02*
X124765000Y-58773436D01*
X126235000Y-59227564D02*
X126235000Y-58773436D01*
%TO.C,D1*%
X138540000Y-52000500D02*
X138540000Y-54860500D01*
X138540000Y-54860500D02*
X140460000Y-54860500D01*
X140460000Y-54860500D02*
X140460000Y-52000500D01*
%TO.C,R1*%
X140765000Y-83227564D02*
X140765000Y-82773436D01*
X142235000Y-83227564D02*
X142235000Y-82773436D01*
X188765000Y-59227564D02*
X188765000Y-58773436D01*
X190235000Y-59227564D02*
X190235000Y-58773436D01*
%TO.C,D1*%
X170540000Y-88000500D02*
X170540000Y-90860500D01*
X170540000Y-90860500D02*
X172460000Y-90860500D01*
X172460000Y-90860500D02*
X172460000Y-88000500D01*
X154540000Y-106000500D02*
X154540000Y-108860500D01*
X154540000Y-108860500D02*
X156460000Y-108860500D01*
X156460000Y-108860500D02*
X156460000Y-106000500D01*
%TO.C,R1*%
X124765000Y-95227564D02*
X124765000Y-94773436D01*
X126235000Y-95227564D02*
X126235000Y-94773436D01*
X156765000Y-53227564D02*
X156765000Y-52773436D01*
X158235000Y-53227564D02*
X158235000Y-52773436D01*
%TO.C,D1*%
X170540000Y-40000500D02*
X170540000Y-42860500D01*
X170540000Y-42860500D02*
X172460000Y-42860500D01*
X172460000Y-42860500D02*
X172460000Y-40000500D01*
%TO.C,R1*%
X172765000Y-47227564D02*
X172765000Y-46773436D01*
X174235000Y-47227564D02*
X174235000Y-46773436D01*
%TO.C,D1*%
X186540000Y-94000500D02*
X186540000Y-96860500D01*
X186540000Y-96860500D02*
X188460000Y-96860500D01*
X188460000Y-96860500D02*
X188460000Y-94000500D01*
X170540000Y-58000500D02*
X170540000Y-60860500D01*
X170540000Y-60860500D02*
X172460000Y-60860500D01*
X172460000Y-60860500D02*
X172460000Y-58000500D01*
%TO.C,R1*%
X108765000Y-41227564D02*
X108765000Y-40773436D01*
X110235000Y-41227564D02*
X110235000Y-40773436D01*
%TO.C,D1*%
X138540000Y-70000500D02*
X138540000Y-72860500D01*
X138540000Y-72860500D02*
X140460000Y-72860500D01*
X140460000Y-72860500D02*
X140460000Y-70000500D01*
X106540000Y-58000500D02*
X106540000Y-60860500D01*
X106540000Y-60860500D02*
X108460000Y-60860500D01*
X108460000Y-60860500D02*
X108460000Y-58000500D01*
%TO.C,R1*%
X108765000Y-77227564D02*
X108765000Y-76773436D01*
X110235000Y-77227564D02*
X110235000Y-76773436D01*
%TO.C,D1*%
X170540000Y-76000500D02*
X170540000Y-78860500D01*
X170540000Y-78860500D02*
X172460000Y-78860500D01*
X172460000Y-78860500D02*
X172460000Y-76000500D01*
X138540000Y-100000500D02*
X138540000Y-102860500D01*
X138540000Y-102860500D02*
X140460000Y-102860500D01*
X140460000Y-102860500D02*
X140460000Y-100000500D01*
X154540000Y-28000500D02*
X154540000Y-30860500D01*
X154540000Y-30860500D02*
X156460000Y-30860500D01*
X156460000Y-30860500D02*
X156460000Y-28000500D01*
X138540000Y-34000500D02*
X138540000Y-36860500D01*
X138540000Y-36860500D02*
X140460000Y-36860500D01*
X140460000Y-36860500D02*
X140460000Y-34000500D01*
X138540000Y-88000500D02*
X138540000Y-90860500D01*
X138540000Y-90860500D02*
X140460000Y-90860500D01*
X140460000Y-90860500D02*
X140460000Y-88000500D01*
%TO.C,R1*%
X188765000Y-107227564D02*
X188765000Y-106773436D01*
X190235000Y-107227564D02*
X190235000Y-106773436D01*
%TO.C,D1*%
X154540000Y-100000500D02*
X154540000Y-102860500D01*
X154540000Y-102860500D02*
X156460000Y-102860500D01*
X156460000Y-102860500D02*
X156460000Y-100000500D01*
%TO.C,R1*%
X108765000Y-101227564D02*
X108765000Y-100773436D01*
X110235000Y-101227564D02*
X110235000Y-100773436D01*
%TO.C,D1*%
X122540000Y-46000500D02*
X122540000Y-48860500D01*
X122540000Y-48860500D02*
X124460000Y-48860500D01*
X124460000Y-48860500D02*
X124460000Y-46000500D01*
%TO.C,R1*%
X172765000Y-95227564D02*
X172765000Y-94773436D01*
X174235000Y-95227564D02*
X174235000Y-94773436D01*
%TO.C,D1*%
X154540000Y-94000500D02*
X154540000Y-96860500D01*
X154540000Y-96860500D02*
X156460000Y-96860500D01*
X156460000Y-96860500D02*
X156460000Y-94000500D01*
X106540000Y-52000500D02*
X106540000Y-54860500D01*
X106540000Y-54860500D02*
X108460000Y-54860500D01*
X108460000Y-54860500D02*
X108460000Y-52000500D01*
%TO.C,R1*%
X124765000Y-53227564D02*
X124765000Y-52773436D01*
X126235000Y-53227564D02*
X126235000Y-52773436D01*
X140765000Y-41227564D02*
X140765000Y-40773436D01*
X142235000Y-41227564D02*
X142235000Y-40773436D01*
X108765000Y-83227564D02*
X108765000Y-82773436D01*
X110235000Y-83227564D02*
X110235000Y-82773436D01*
X140765000Y-47227564D02*
X140765000Y-46773436D01*
X142235000Y-47227564D02*
X142235000Y-46773436D01*
%TO.C,D1*%
X106540000Y-46000500D02*
X106540000Y-48860500D01*
X106540000Y-48860500D02*
X108460000Y-48860500D01*
X108460000Y-48860500D02*
X108460000Y-46000500D01*
%TO.C,R1*%
X172765000Y-101227564D02*
X172765000Y-100773436D01*
X174235000Y-101227564D02*
X174235000Y-100773436D01*
%TO.C,D1*%
X170540000Y-70000500D02*
X170540000Y-72860500D01*
X170540000Y-72860500D02*
X172460000Y-72860500D01*
X172460000Y-72860500D02*
X172460000Y-70000500D01*
%TO.C,R1*%
X108765000Y-65227564D02*
X108765000Y-64773436D01*
X110235000Y-65227564D02*
X110235000Y-64773436D01*
X140765000Y-53227564D02*
X140765000Y-52773436D01*
X142235000Y-53227564D02*
X142235000Y-52773436D01*
X140765000Y-59227564D02*
X140765000Y-58773436D01*
X142235000Y-59227564D02*
X142235000Y-58773436D01*
%TO.C,D1*%
X122540000Y-88000500D02*
X122540000Y-90860500D01*
X122540000Y-90860500D02*
X124460000Y-90860500D01*
X124460000Y-90860500D02*
X124460000Y-88000500D01*
%TO.C,R1*%
X172765000Y-65227564D02*
X172765000Y-64773436D01*
X174235000Y-65227564D02*
X174235000Y-64773436D01*
X156765000Y-77227564D02*
X156765000Y-76773436D01*
X158235000Y-77227564D02*
X158235000Y-76773436D01*
X108765000Y-107227564D02*
X108765000Y-106773436D01*
X110235000Y-107227564D02*
X110235000Y-106773436D01*
%TO.C,D1*%
X154540000Y-58000500D02*
X154540000Y-60860500D01*
X154540000Y-60860500D02*
X156460000Y-60860500D01*
X156460000Y-60860500D02*
X156460000Y-58000500D01*
X170540000Y-34000500D02*
X170540000Y-36860500D01*
X170540000Y-36860500D02*
X172460000Y-36860500D01*
X172460000Y-36860500D02*
X172460000Y-34000500D01*
X106540000Y-94000500D02*
X106540000Y-96860500D01*
X106540000Y-96860500D02*
X108460000Y-96860500D01*
X108460000Y-96860500D02*
X108460000Y-94000500D01*
X106540000Y-82000500D02*
X106540000Y-84860500D01*
X106540000Y-84860500D02*
X108460000Y-84860500D01*
X108460000Y-84860500D02*
X108460000Y-82000500D01*
X154540000Y-88000500D02*
X154540000Y-90860500D01*
X154540000Y-90860500D02*
X156460000Y-90860500D01*
X156460000Y-90860500D02*
X156460000Y-88000500D01*
%TO.C,R1*%
X156765000Y-83227564D02*
X156765000Y-82773436D01*
X158235000Y-83227564D02*
X158235000Y-82773436D01*
%TO.C,D1*%
X106540000Y-76000500D02*
X106540000Y-78860500D01*
X106540000Y-78860500D02*
X108460000Y-78860500D01*
X108460000Y-78860500D02*
X108460000Y-76000500D01*
%TO.C,R1*%
X108765000Y-89227564D02*
X108765000Y-88773436D01*
X110235000Y-89227564D02*
X110235000Y-88773436D01*
%TO.C,D1*%
X170540000Y-100000500D02*
X170540000Y-102860500D01*
X170540000Y-102860500D02*
X172460000Y-102860500D01*
X172460000Y-102860500D02*
X172460000Y-100000500D01*
%TO.C,R1*%
X188765000Y-47227564D02*
X188765000Y-46773436D01*
X190235000Y-47227564D02*
X190235000Y-46773436D01*
X188765000Y-83227564D02*
X188765000Y-82773436D01*
X190235000Y-83227564D02*
X190235000Y-82773436D01*
X124765000Y-29227564D02*
X124765000Y-28773436D01*
X126235000Y-29227564D02*
X126235000Y-28773436D01*
X140765000Y-107227564D02*
X140765000Y-106773436D01*
X142235000Y-107227564D02*
X142235000Y-106773436D01*
%TO.C,D1*%
X106540000Y-106000500D02*
X106540000Y-108860500D01*
X106540000Y-108860500D02*
X108460000Y-108860500D01*
X108460000Y-108860500D02*
X108460000Y-106000500D01*
X170540000Y-46000500D02*
X170540000Y-48860500D01*
X170540000Y-48860500D02*
X172460000Y-48860500D01*
X172460000Y-48860500D02*
X172460000Y-46000500D01*
X138540000Y-46000500D02*
X138540000Y-48860500D01*
X138540000Y-48860500D02*
X140460000Y-48860500D01*
X140460000Y-48860500D02*
X140460000Y-46000500D01*
%TO.C,R1*%
X172765000Y-89227564D02*
X172765000Y-88773436D01*
X174235000Y-89227564D02*
X174235000Y-88773436D01*
X124765000Y-77227564D02*
X124765000Y-76773436D01*
X126235000Y-77227564D02*
X126235000Y-76773436D01*
%TO.C,D1*%
X154540000Y-76000500D02*
X154540000Y-78860500D01*
X154540000Y-78860500D02*
X156460000Y-78860500D01*
X156460000Y-78860500D02*
X156460000Y-76000500D01*
%TO.C,R1*%
X124765000Y-47227564D02*
X124765000Y-46773436D01*
X126235000Y-47227564D02*
X126235000Y-46773436D01*
X188765000Y-95227564D02*
X188765000Y-94773436D01*
X190235000Y-95227564D02*
X190235000Y-94773436D01*
%TO.C,D1*%
X138540000Y-76000500D02*
X138540000Y-78860500D01*
X138540000Y-78860500D02*
X140460000Y-78860500D01*
X140460000Y-78860500D02*
X140460000Y-76000500D01*
X106540000Y-100000500D02*
X106540000Y-102860500D01*
X106540000Y-102860500D02*
X108460000Y-102860500D01*
X108460000Y-102860500D02*
X108460000Y-100000500D01*
%TO.C,R1*%
X156765000Y-107227564D02*
X156765000Y-106773436D01*
X158235000Y-107227564D02*
X158235000Y-106773436D01*
X156765000Y-71227564D02*
X156765000Y-70773436D01*
X158235000Y-71227564D02*
X158235000Y-70773436D01*
X156765000Y-29227564D02*
X156765000Y-28773436D01*
X158235000Y-29227564D02*
X158235000Y-28773436D01*
%TO.C,D1*%
X186540000Y-58000500D02*
X186540000Y-60860500D01*
X186540000Y-60860500D02*
X188460000Y-60860500D01*
X188460000Y-60860500D02*
X188460000Y-58000500D01*
X186540000Y-82000500D02*
X186540000Y-84860500D01*
X186540000Y-84860500D02*
X188460000Y-84860500D01*
X188460000Y-84860500D02*
X188460000Y-82000500D01*
%TO.C,R1*%
X172765000Y-29227564D02*
X172765000Y-28773436D01*
X174235000Y-29227564D02*
X174235000Y-28773436D01*
X188765000Y-89227564D02*
X188765000Y-88773436D01*
X190235000Y-89227564D02*
X190235000Y-88773436D01*
%TO.C,D1*%
X122540000Y-100000500D02*
X122540000Y-102860500D01*
X122540000Y-102860500D02*
X124460000Y-102860500D01*
X124460000Y-102860500D02*
X124460000Y-100000500D01*
%TO.C,R1*%
X124765000Y-71227564D02*
X124765000Y-70773436D01*
X126235000Y-71227564D02*
X126235000Y-70773436D01*
%TO.C,D1*%
X186540000Y-64000500D02*
X186540000Y-66860500D01*
X186540000Y-66860500D02*
X188460000Y-66860500D01*
X188460000Y-66860500D02*
X188460000Y-64000500D01*
%TO.C,R1*%
X188765000Y-29227564D02*
X188765000Y-28773436D01*
X190235000Y-29227564D02*
X190235000Y-28773436D01*
X124765000Y-83227564D02*
X124765000Y-82773436D01*
X126235000Y-83227564D02*
X126235000Y-82773436D01*
%TO.C,D1*%
X122540000Y-34000500D02*
X122540000Y-36860500D01*
X122540000Y-36860500D02*
X124460000Y-36860500D01*
X124460000Y-36860500D02*
X124460000Y-34000500D01*
%TO.C,R1*%
X188765000Y-65227564D02*
X188765000Y-64773436D01*
X190235000Y-65227564D02*
X190235000Y-64773436D01*
X140765000Y-101227564D02*
X140765000Y-100773436D01*
X142235000Y-101227564D02*
X142235000Y-100773436D01*
X188765000Y-101227564D02*
X188765000Y-100773436D01*
X190235000Y-101227564D02*
X190235000Y-100773436D01*
%TO.C,D1*%
X122540000Y-76000500D02*
X122540000Y-78860500D01*
X122540000Y-78860500D02*
X124460000Y-78860500D01*
X124460000Y-78860500D02*
X124460000Y-76000500D01*
%TO.C,R1*%
X140765000Y-35227564D02*
X140765000Y-34773436D01*
X142235000Y-35227564D02*
X142235000Y-34773436D01*
X124765000Y-35227564D02*
X124765000Y-34773436D01*
X126235000Y-35227564D02*
X126235000Y-34773436D01*
X140765000Y-71227564D02*
X140765000Y-70773436D01*
X142235000Y-71227564D02*
X142235000Y-70773436D01*
X172765000Y-41227564D02*
X172765000Y-40773436D01*
X174235000Y-41227564D02*
X174235000Y-40773436D01*
%TO.C,D1*%
X122540000Y-106000500D02*
X122540000Y-108860500D01*
X122540000Y-108860500D02*
X124460000Y-108860500D01*
X124460000Y-108860500D02*
X124460000Y-106000500D01*
%TO.C,R1*%
X108765000Y-53227564D02*
X108765000Y-52773436D01*
X110235000Y-53227564D02*
X110235000Y-52773436D01*
%TO.C,D1*%
X138540000Y-28000500D02*
X138540000Y-30860500D01*
X138540000Y-30860500D02*
X140460000Y-30860500D01*
X140460000Y-30860500D02*
X140460000Y-28000500D01*
%TO.C,R1*%
X124765000Y-65227564D02*
X124765000Y-64773436D01*
X126235000Y-65227564D02*
X126235000Y-64773436D01*
X140765000Y-95227564D02*
X140765000Y-94773436D01*
X142235000Y-95227564D02*
X142235000Y-94773436D01*
X124765000Y-101227564D02*
X124765000Y-100773436D01*
X126235000Y-101227564D02*
X126235000Y-100773436D01*
X156765000Y-47227564D02*
X156765000Y-46773436D01*
X158235000Y-47227564D02*
X158235000Y-46773436D01*
%TO.C,D1*%
X186540000Y-88000500D02*
X186540000Y-90860500D01*
X186540000Y-90860500D02*
X188460000Y-90860500D01*
X188460000Y-90860500D02*
X188460000Y-88000500D01*
X154540000Y-52000500D02*
X154540000Y-54860500D01*
X154540000Y-54860500D02*
X156460000Y-54860500D01*
X156460000Y-54860500D02*
X156460000Y-52000500D01*
%TO.C,R1*%
X156765000Y-35227564D02*
X156765000Y-34773436D01*
X158235000Y-35227564D02*
X158235000Y-34773436D01*
%TO.C,D1*%
X186540000Y-100000500D02*
X186540000Y-102860500D01*
X186540000Y-102860500D02*
X188460000Y-102860500D01*
X188460000Y-102860500D02*
X188460000Y-100000500D01*
%TO.C,R1*%
X188765000Y-71227564D02*
X188765000Y-70773436D01*
X190235000Y-71227564D02*
X190235000Y-70773436D01*
%TO.C,D1*%
X106540000Y-28000500D02*
X106540000Y-30860500D01*
X106540000Y-30860500D02*
X108460000Y-30860500D01*
X108460000Y-30860500D02*
X108460000Y-28000500D01*
X138540000Y-94000500D02*
X138540000Y-96860500D01*
X138540000Y-96860500D02*
X140460000Y-96860500D01*
X140460000Y-96860500D02*
X140460000Y-94000500D01*
X170540000Y-28000500D02*
X170540000Y-30860500D01*
X170540000Y-30860500D02*
X172460000Y-30860500D01*
X172460000Y-30860500D02*
X172460000Y-28000500D01*
X170540000Y-94000500D02*
X170540000Y-96860500D01*
X170540000Y-96860500D02*
X172460000Y-96860500D01*
X172460000Y-96860500D02*
X172460000Y-94000500D01*
%TO.C,R1*%
X156765000Y-65227564D02*
X156765000Y-64773436D01*
X158235000Y-65227564D02*
X158235000Y-64773436D01*
%TO.C,D1*%
X170540000Y-52000500D02*
X170540000Y-54860500D01*
X170540000Y-54860500D02*
X172460000Y-54860500D01*
X172460000Y-54860500D02*
X172460000Y-52000500D01*
%TO.C,R1*%
X108765000Y-59227564D02*
X108765000Y-58773436D01*
X110235000Y-59227564D02*
X110235000Y-58773436D01*
X156765000Y-59227564D02*
X156765000Y-58773436D01*
X158235000Y-59227564D02*
X158235000Y-58773436D01*
%TO.C,D1*%
X138540000Y-106000500D02*
X138540000Y-108860500D01*
X138540000Y-108860500D02*
X140460000Y-108860500D01*
X140460000Y-108860500D02*
X140460000Y-106000500D01*
%TO.C,R1*%
X108765000Y-95227564D02*
X108765000Y-94773436D01*
X110235000Y-95227564D02*
X110235000Y-94773436D01*
%TO.C,D1*%
X170540000Y-64000500D02*
X170540000Y-66860500D01*
X170540000Y-66860500D02*
X172460000Y-66860500D01*
X172460000Y-66860500D02*
X172460000Y-64000500D01*
X186540000Y-52000500D02*
X186540000Y-54860500D01*
X186540000Y-54860500D02*
X188460000Y-54860500D01*
X188460000Y-54860500D02*
X188460000Y-52000500D01*
X138540000Y-82000500D02*
X138540000Y-84860500D01*
X138540000Y-84860500D02*
X140460000Y-84860500D01*
X140460000Y-84860500D02*
X140460000Y-82000500D01*
X154540000Y-82000500D02*
X154540000Y-84860500D01*
X154540000Y-84860500D02*
X156460000Y-84860500D01*
X156460000Y-84860500D02*
X156460000Y-82000500D01*
X154540000Y-64000500D02*
X154540000Y-66860500D01*
X154540000Y-66860500D02*
X156460000Y-66860500D01*
X156460000Y-66860500D02*
X156460000Y-64000500D01*
%TO.C,R1*%
X108765000Y-47227564D02*
X108765000Y-46773436D01*
X110235000Y-47227564D02*
X110235000Y-46773436D01*
%TO.C,D1*%
X154540000Y-40000500D02*
X154540000Y-42860500D01*
X154540000Y-42860500D02*
X156460000Y-42860500D01*
X156460000Y-42860500D02*
X156460000Y-40000500D01*
%TO.C,R1*%
X156765000Y-95227564D02*
X156765000Y-94773436D01*
X158235000Y-95227564D02*
X158235000Y-94773436D01*
%TO.C,D1*%
X186540000Y-106000500D02*
X186540000Y-108860500D01*
X186540000Y-108860500D02*
X188460000Y-108860500D01*
X188460000Y-108860500D02*
X188460000Y-106000500D01*
X186540000Y-76000500D02*
X186540000Y-78860500D01*
X186540000Y-78860500D02*
X188460000Y-78860500D01*
X188460000Y-78860500D02*
X188460000Y-76000500D01*
X106540000Y-40000500D02*
X106540000Y-42860500D01*
X106540000Y-42860500D02*
X108460000Y-42860500D01*
X108460000Y-42860500D02*
X108460000Y-40000500D01*
X154540000Y-34000500D02*
X154540000Y-36860500D01*
X154540000Y-36860500D02*
X156460000Y-36860500D01*
X156460000Y-36860500D02*
X156460000Y-34000500D01*
%TO.C,R1*%
X172765000Y-59227564D02*
X172765000Y-58773436D01*
X174235000Y-59227564D02*
X174235000Y-58773436D01*
X108765000Y-29227564D02*
X108765000Y-28773436D01*
X110235000Y-29227564D02*
X110235000Y-28773436D01*
X172765000Y-71227564D02*
X172765000Y-70773436D01*
X174235000Y-71227564D02*
X174235000Y-70773436D01*
%TO.C,D1*%
X106540000Y-88000500D02*
X106540000Y-90860500D01*
X106540000Y-90860500D02*
X108460000Y-90860500D01*
X108460000Y-90860500D02*
X108460000Y-88000500D01*
X122540000Y-82000500D02*
X122540000Y-84860500D01*
X122540000Y-84860500D02*
X124460000Y-84860500D01*
X124460000Y-84860500D02*
X124460000Y-82000500D01*
%TD*%
M02*
