%TF.GenerationSoftware,KiCad,Pcbnew,10.0.0*%
%TF.CreationDate,2026-03-26T01:58:46+01:00*%
%TF.ProjectId,resistor_0805_order,72657369-7374-46f7-925f-303830355f6f,rev?*%
%TF.SameCoordinates,Original*%
%TF.FileFunction,Soldermask,Top*%
%TF.FilePolarity,Negative*%
%FSLAX46Y46*%
G04 Gerber Fmt 4.6, Leading zero omitted, Abs format (unit mm)*
G04 Created by KiCad (PCBNEW 10.0.0) date 2026-03-26 01:58:46*
%MOMM*%
%LPD*%
G01*
G04 APERTURE LIST*
G04 Aperture macros list*
%AMRoundRect*
0 Rectangle with rounded corners*
0 $1 Rounding radius*
0 $2 $3 $4 $5 $6 $7 $8 $9 X,Y pos of 4 corners*
0 Add a 4 corners polygon primitive as box body*
4,1,4,$2,$3,$4,$5,$6,$7,$8,$9,$2,$3,0*
0 Add four circle primitives for the rounded corners*
1,1,$1+$1,$2,$3*
1,1,$1+$1,$4,$5*
1,1,$1+$1,$6,$7*
1,1,$1+$1,$8,$9*
0 Add four rect primitives between the rounded corners*
20,1,$1+$1,$2,$3,$4,$5,0*
20,1,$1+$1,$4,$5,$6,$7,0*
20,1,$1+$1,$6,$7,$8,$9,0*
20,1,$1+$1,$8,$9,$2,$3,0*%
G04 Aperture macros list end*
%ADD10C,0.500000*%
%ADD11C,2.600000*%
%ADD12C,3.800000*%
%ADD13RoundRect,0.250000X0.450000X-0.325000X0.450000X0.325000X-0.450000X0.325000X-0.450000X-0.325000X0*%
%ADD14RoundRect,0.250000X0.450000X-0.350000X0.450000X0.350000X-0.450000X0.350000X-0.450000X-0.350000X0*%
G04 APERTURE END LIST*
D10*
%TO.C,KiKit_MB_56_1*%
X158000000Y-55100500D03*
%TD*%
%TO.C,KiKit_MB_137_2*%
X140000000Y-92900500D03*
%TD*%
%TO.C,KiKit_MB_138_3*%
X140000000Y-97100500D03*
%TD*%
%TO.C,KiKit_MB_100_1*%
X126000000Y-79100500D03*
%TD*%
%TO.C,KiKit_MB_95_2*%
X188000000Y-68900500D03*
%TD*%
%TO.C,KiKit_MB_83_3*%
X189000000Y-62900500D03*
%TD*%
%TO.C,KiKit_MB_132_4*%
X187000000Y-91100500D03*
%TD*%
%TO.C,KiKit_MB_167_3*%
X189000000Y-104900500D03*
%TD*%
%TO.C,KiKit_MB_142_1*%
X174000000Y-97100500D03*
%TD*%
%TO.C,KiKit_MB_118_4*%
X171000000Y-85100500D03*
%TD*%
%TO.C,KiKit_MB_30_1*%
X142000000Y-43100500D03*
%TD*%
D11*
%TO.C,H1*%
X167500000Y-83000500D03*
D12*
X167500000Y-83000500D03*
%TD*%
D13*
%TO.C,D1*%
X107500000Y-36025500D03*
X107500000Y-33975500D03*
%TD*%
D10*
%TO.C,KiKit_MB_93_1*%
X171000000Y-68900500D03*
%TD*%
%TO.C,KiKit_MB_123_3*%
X125000000Y-86900500D03*
%TD*%
%TO.C,KiKit_MB_90_2*%
X141000000Y-73100500D03*
%TD*%
D11*
%TO.C,H2*%
X177500000Y-53000500D03*
D12*
X177500000Y-53000500D03*
%TD*%
D10*
%TO.C,KiKit_MB_83_1*%
X187000000Y-62900500D03*
%TD*%
%TO.C,KiKit_MB_82_2*%
X173000000Y-67100500D03*
%TD*%
%TO.C,KiKit_MB_138_1*%
X142000000Y-97100500D03*
%TD*%
%TO.C,KiKit_MB_8_1*%
X158000000Y-31100500D03*
%TD*%
%TO.C,KiKit_MB_104_4*%
X155000000Y-79100500D03*
%TD*%
%TO.C,KiKit_MB_111_2*%
X124000000Y-80900500D03*
%TD*%
D14*
%TO.C,R1*%
X109500000Y-72000500D03*
X109500000Y-70000500D03*
%TD*%
D10*
%TO.C,KiKit_MB_76_2*%
X125000000Y-67100500D03*
%TD*%
%TO.C,KiKit_MB_25_4*%
X110000000Y-38900500D03*
%TD*%
%TO.C,KiKit_MB_26_2*%
X109000000Y-43100500D03*
%TD*%
%TO.C,KiKit_MB_92_2*%
X157000000Y-73100500D03*
%TD*%
%TO.C,KiKit_MB_17_4*%
X142000000Y-32900500D03*
%TD*%
%TO.C,KiKit_MB_75_4*%
X126000000Y-62900500D03*
%TD*%
D11*
%TO.C,H2*%
X145500000Y-101000500D03*
D12*
X145500000Y-101000500D03*
%TD*%
D14*
%TO.C,R1*%
X189500000Y-36000500D03*
X189500000Y-34000500D03*
%TD*%
%TO.C,R1*%
X157500000Y-102000500D03*
X157500000Y-100000500D03*
%TD*%
D10*
%TO.C,KiKit_MB_19_3*%
X157000000Y-32900500D03*
%TD*%
%TO.C,KiKit_MB_121_3*%
X109000000Y-86900500D03*
%TD*%
D11*
%TO.C,H1*%
X151500000Y-83000500D03*
D12*
X151500000Y-83000500D03*
%TD*%
D11*
%TO.C,H1*%
X151500000Y-107000500D03*
D12*
X151500000Y-107000500D03*
%TD*%
D13*
%TO.C,D1*%
X139500000Y-60025500D03*
X139500000Y-57975500D03*
%TD*%
D10*
%TO.C,KiKit_MB_113_4*%
X142000000Y-80900500D03*
%TD*%
D13*
%TO.C,D1*%
X123500000Y-42025500D03*
X123500000Y-39975500D03*
%TD*%
D10*
%TO.C,KiKit_MB_115_2*%
X156000000Y-80900500D03*
%TD*%
%TO.C,KiKit_MB_82_1*%
X174000000Y-67100500D03*
%TD*%
%TO.C,KiKit_MB_125_4*%
X142000000Y-86900500D03*
%TD*%
%TO.C,KiKit_MB_157_3*%
X109000000Y-104900500D03*
%TD*%
D13*
%TO.C,D1*%
X139500000Y-42025500D03*
X139500000Y-39975500D03*
%TD*%
D11*
%TO.C,H2*%
X145500000Y-83000500D03*
D12*
X145500000Y-83000500D03*
%TD*%
D10*
%TO.C,KiKit_MB_58_2*%
X173000000Y-55100500D03*
%TD*%
D11*
%TO.C,H2*%
X177500000Y-77000500D03*
D12*
X177500000Y-77000500D03*
%TD*%
D11*
%TO.C,H2*%
X177500000Y-35000500D03*
D12*
X177500000Y-35000500D03*
%TD*%
D10*
%TO.C,KiKit_MB_111_3*%
X125000000Y-80900500D03*
%TD*%
%TO.C,KiKit_MB_70_3*%
X172000000Y-61100500D03*
%TD*%
%TO.C,KiKit_MB_130_3*%
X172000000Y-91100500D03*
%TD*%
%TO.C,KiKit_MB_117_4*%
X174000000Y-80900500D03*
%TD*%
%TO.C,KiKit_MB_125_3*%
X141000000Y-86900500D03*
%TD*%
D11*
%TO.C,H1*%
X135500000Y-71000500D03*
D12*
X135500000Y-71000500D03*
%TD*%
D10*
%TO.C,KiKit_MB_83_4*%
X190000000Y-62900500D03*
%TD*%
%TO.C,KiKit_MB_10_2*%
X173000000Y-31100500D03*
%TD*%
%TO.C,KiKit_MB_130_1*%
X174000000Y-91100500D03*
%TD*%
%TO.C,KiKit_MB_166_4*%
X171000000Y-109100500D03*
%TD*%
D11*
%TO.C,H2*%
X161500000Y-83000500D03*
D12*
X161500000Y-83000500D03*
%TD*%
D10*
%TO.C,KiKit_MB_143_1*%
X187000000Y-92900500D03*
%TD*%
%TO.C,KiKit_MB_23_2*%
X188000000Y-32900500D03*
%TD*%
D11*
%TO.C,H1*%
X119500000Y-29000500D03*
D12*
X119500000Y-29000500D03*
%TD*%
D13*
%TO.C,D1*%
X187500000Y-72025500D03*
X187500000Y-69975500D03*
%TD*%
D10*
%TO.C,KiKit_MB_27_3*%
X125000000Y-38900500D03*
%TD*%
D11*
%TO.C,H2*%
X145500000Y-65000500D03*
D12*
X145500000Y-65000500D03*
%TD*%
D14*
%TO.C,R1*%
X125500000Y-108000500D03*
X125500000Y-106000500D03*
%TD*%
D10*
%TO.C,KiKit_MB_76_1*%
X126000000Y-67100500D03*
%TD*%
%TO.C,KiKit_MB_158_4*%
X107000000Y-109100500D03*
%TD*%
%TO.C,KiKit_MB_112_3*%
X124000000Y-85100500D03*
%TD*%
%TO.C,KiKit_MB_132_3*%
X188000000Y-91100500D03*
%TD*%
%TO.C,KiKit_MB_48_3*%
X188000000Y-49100500D03*
%TD*%
D13*
%TO.C,D1*%
X171500000Y-84025500D03*
X171500000Y-81975500D03*
%TD*%
D11*
%TO.C,H1*%
X135500000Y-53000500D03*
D12*
X135500000Y-53000500D03*
%TD*%
D10*
%TO.C,KiKit_MB_155_2*%
X188000000Y-98900500D03*
%TD*%
%TO.C,KiKit_MB_75_3*%
X125000000Y-62900500D03*
%TD*%
D11*
%TO.C,H1*%
X151500000Y-89000500D03*
D12*
X151500000Y-89000500D03*
%TD*%
D13*
%TO.C,D1*%
X123500000Y-66025500D03*
X123500000Y-63975500D03*
%TD*%
%TO.C,D1*%
X107500000Y-66025500D03*
X107500000Y-63975500D03*
%TD*%
D10*
%TO.C,KiKit_MB_94_3*%
X172000000Y-73100500D03*
%TD*%
%TO.C,KiKit_MB_24_1*%
X190000000Y-37100500D03*
%TD*%
%TO.C,KiKit_MB_40_3*%
X124000000Y-49100500D03*
%TD*%
%TO.C,KiKit_MB_43_2*%
X156000000Y-44900500D03*
%TD*%
%TO.C,KiKit_MB_19_1*%
X155000000Y-32900500D03*
%TD*%
%TO.C,KiKit_MB_132_1*%
X190000000Y-91100500D03*
%TD*%
%TO.C,KiKit_MB_91_2*%
X156000000Y-68900500D03*
%TD*%
%TO.C,KiKit_MB_119_2*%
X188000000Y-80900500D03*
%TD*%
%TO.C,KiKit_MB_125_2*%
X140000000Y-86900500D03*
%TD*%
%TO.C,KiKit_MB_131_4*%
X190000000Y-86900500D03*
%TD*%
%TO.C,KiKit_MB_124_3*%
X124000000Y-91100500D03*
%TD*%
%TO.C,KiKit_MB_165_1*%
X171000000Y-104900500D03*
%TD*%
%TO.C,KiKit_MB_64_2*%
X125000000Y-61100500D03*
%TD*%
D14*
%TO.C,R1*%
X125500000Y-42000500D03*
X125500000Y-40000500D03*
%TD*%
D10*
%TO.C,KiKit_MB_157_2*%
X108000000Y-104900500D03*
%TD*%
%TO.C,KiKit_MB_18_1*%
X142000000Y-37100500D03*
%TD*%
D14*
%TO.C,R1*%
X157500000Y-42000500D03*
X157500000Y-40000500D03*
%TD*%
D11*
%TO.C,H1*%
X167500000Y-65000500D03*
D12*
X167500000Y-65000500D03*
%TD*%
D10*
%TO.C,KiKit_MB_57_4*%
X174000000Y-50900500D03*
%TD*%
D14*
%TO.C,R1*%
X109500000Y-36000500D03*
X109500000Y-34000500D03*
%TD*%
D10*
%TO.C,KiKit_MB_117_1*%
X171000000Y-80900500D03*
%TD*%
%TO.C,KiKit_MB_12_3*%
X188000000Y-31100500D03*
%TD*%
%TO.C,KiKit_MB_120_2*%
X189000000Y-85100500D03*
%TD*%
%TO.C,KiKit_MB_145_4*%
X110000000Y-98900500D03*
%TD*%
%TO.C,KiKit_MB_154_3*%
X172000000Y-103100500D03*
%TD*%
%TO.C,KiKit_MB_117_3*%
X173000000Y-80900500D03*
%TD*%
D13*
%TO.C,D1*%
X123500000Y-72025500D03*
X123500000Y-69975500D03*
%TD*%
D10*
%TO.C,KiKit_MB_86_2*%
X109000000Y-73100500D03*
%TD*%
D13*
%TO.C,D1*%
X155500000Y-48025500D03*
X155500000Y-45975500D03*
%TD*%
D11*
%TO.C,H1*%
X119500000Y-47000500D03*
D12*
X119500000Y-47000500D03*
%TD*%
D10*
%TO.C,KiKit_MB_107_3*%
X189000000Y-74900500D03*
%TD*%
%TO.C,KiKit_MB_49_2*%
X108000000Y-50900500D03*
%TD*%
%TO.C,KiKit_MB_6_4*%
X139000000Y-31100500D03*
%TD*%
%TO.C,KiKit_MB_98_2*%
X109000000Y-79100500D03*
%TD*%
D11*
%TO.C,H1*%
X167500000Y-47000500D03*
D12*
X167500000Y-47000500D03*
%TD*%
D10*
%TO.C,KiKit_MB_54_3*%
X140000000Y-55100500D03*
%TD*%
%TO.C,KiKit_MB_44_2*%
X157000000Y-49100500D03*
%TD*%
%TO.C,KiKit_MB_153_3*%
X173000000Y-98900500D03*
%TD*%
D11*
%TO.C,H2*%
X113500000Y-47000500D03*
D12*
X113500000Y-47000500D03*
%TD*%
D10*
%TO.C,KiKit_MB_163_3*%
X157000000Y-104900500D03*
%TD*%
D11*
%TO.C,H2*%
X161500000Y-95000500D03*
D12*
X161500000Y-95000500D03*
%TD*%
D13*
%TO.C,D1*%
X187500000Y-30025500D03*
X187500000Y-27975500D03*
%TD*%
D10*
%TO.C,KiKit_MB_127_2*%
X156000000Y-86900500D03*
%TD*%
%TO.C,KiKit_MB_49_3*%
X109000000Y-50900500D03*
%TD*%
%TO.C,KiKit_MB_29_1*%
X139000000Y-38900500D03*
%TD*%
D14*
%TO.C,R1*%
X141500000Y-66000500D03*
X141500000Y-64000500D03*
%TD*%
D10*
%TO.C,KiKit_MB_148_3*%
X124000000Y-103100500D03*
%TD*%
%TO.C,KiKit_MB_88_3*%
X124000000Y-73100500D03*
%TD*%
%TO.C,KiKit_MB_36_4*%
X187000000Y-43100500D03*
%TD*%
D11*
%TO.C,H2*%
X177500000Y-29000500D03*
D12*
X177500000Y-29000500D03*
%TD*%
D11*
%TO.C,H1*%
X151500000Y-47000500D03*
D12*
X151500000Y-47000500D03*
%TD*%
D10*
%TO.C,KiKit_MB_28_1*%
X126000000Y-43100500D03*
%TD*%
D11*
%TO.C,H1*%
X135500000Y-77000500D03*
D12*
X135500000Y-77000500D03*
%TD*%
D10*
%TO.C,KiKit_MB_71_1*%
X187000000Y-56900500D03*
%TD*%
%TO.C,KiKit_MB_5_4*%
X142000000Y-26900500D03*
%TD*%
%TO.C,KiKit_MB_67_3*%
X157000000Y-56900500D03*
%TD*%
D13*
%TO.C,D1*%
X187500000Y-48025500D03*
X187500000Y-45975500D03*
%TD*%
%TO.C,D1*%
X123500000Y-54025500D03*
X123500000Y-51975500D03*
%TD*%
D11*
%TO.C,H2*%
X177500000Y-95000500D03*
D12*
X177500000Y-95000500D03*
%TD*%
D13*
%TO.C,D1*%
X171500000Y-108025500D03*
X171500000Y-105975500D03*
%TD*%
D14*
%TO.C,R1*%
X157500000Y-90000500D03*
X157500000Y-88000500D03*
%TD*%
D10*
%TO.C,KiKit_MB_158_3*%
X108000000Y-109100500D03*
%TD*%
%TO.C,KiKit_MB_77_3*%
X141000000Y-62900500D03*
%TD*%
%TO.C,KiKit_MB_74_4*%
X107000000Y-67100500D03*
%TD*%
D13*
%TO.C,D1*%
X139500000Y-66025500D03*
X139500000Y-63975500D03*
%TD*%
D14*
%TO.C,R1*%
X189500000Y-54000500D03*
X189500000Y-52000500D03*
%TD*%
D10*
%TO.C,KiKit_MB_154_1*%
X174000000Y-103100500D03*
%TD*%
D13*
%TO.C,D1*%
X187500000Y-42025500D03*
X187500000Y-39975500D03*
%TD*%
D11*
%TO.C,H2*%
X161500000Y-47000500D03*
D12*
X161500000Y-47000500D03*
%TD*%
D10*
%TO.C,KiKit_MB_152_3*%
X156000000Y-103100500D03*
%TD*%
%TO.C,KiKit_MB_66_1*%
X142000000Y-61100500D03*
%TD*%
D11*
%TO.C,H2*%
X161500000Y-89000500D03*
D12*
X161500000Y-89000500D03*
%TD*%
D10*
%TO.C,KiKit_MB_134_4*%
X107000000Y-97100500D03*
%TD*%
D14*
%TO.C,R1*%
X173500000Y-84000500D03*
X173500000Y-82000500D03*
%TD*%
%TO.C,R1*%
X173500000Y-78000500D03*
X173500000Y-76000500D03*
%TD*%
%TO.C,R1*%
X173500000Y-36000500D03*
X173500000Y-34000500D03*
%TD*%
D11*
%TO.C,H1*%
X135500000Y-59000500D03*
D12*
X135500000Y-59000500D03*
%TD*%
D14*
%TO.C,R1*%
X141500000Y-90000500D03*
X141500000Y-88000500D03*
%TD*%
D10*
%TO.C,KiKit_MB_127_1*%
X155000000Y-86900500D03*
%TD*%
%TO.C,KiKit_MB_136_1*%
X126000000Y-97100500D03*
%TD*%
%TO.C,KiKit_MB_151_4*%
X158000000Y-98900500D03*
%TD*%
D11*
%TO.C,H1*%
X151500000Y-77000500D03*
D12*
X151500000Y-77000500D03*
%TD*%
D14*
%TO.C,R1*%
X141500000Y-30000500D03*
X141500000Y-28000500D03*
%TD*%
D10*
%TO.C,KiKit_MB_15_3*%
X125000000Y-32900500D03*
%TD*%
%TO.C,KiKit_MB_101_3*%
X141000000Y-74900500D03*
%TD*%
D14*
%TO.C,R1*%
X173500000Y-54000500D03*
X173500000Y-52000500D03*
%TD*%
D10*
%TO.C,KiKit_MB_140_1*%
X158000000Y-97100500D03*
%TD*%
%TO.C,KiKit_MB_138_4*%
X139000000Y-97100500D03*
%TD*%
D11*
%TO.C,H2*%
X113500000Y-53000500D03*
D12*
X113500000Y-53000500D03*
%TD*%
D14*
%TO.C,R1*%
X141500000Y-78000500D03*
X141500000Y-76000500D03*
%TD*%
D10*
%TO.C,KiKit_MB_98_3*%
X108000000Y-79100500D03*
%TD*%
%TO.C,KiKit_MB_71_3*%
X189000000Y-56900500D03*
%TD*%
D11*
%TO.C,H2*%
X193500000Y-53000500D03*
D12*
X193500000Y-53000500D03*
%TD*%
D10*
%TO.C,KiKit_MB_81_3*%
X173000000Y-62900500D03*
%TD*%
%TO.C,KiKit_MB_130_2*%
X173000000Y-91100500D03*
%TD*%
%TO.C,KiKit_MB_164_4*%
X155000000Y-109100500D03*
%TD*%
%TO.C,KiKit_MB_17_1*%
X139000000Y-32900500D03*
%TD*%
%TO.C,KiKit_MB_110_2*%
X109000000Y-85100500D03*
%TD*%
%TO.C,KiKit_MB_144_4*%
X187000000Y-97100500D03*
%TD*%
%TO.C,KiKit_MB_59_3*%
X189000000Y-50900500D03*
%TD*%
D11*
%TO.C,H1*%
X183500000Y-107000500D03*
D12*
X183500000Y-107000500D03*
%TD*%
D13*
%TO.C,D1*%
X123500000Y-96025500D03*
X123500000Y-93975500D03*
%TD*%
D10*
%TO.C,KiKit_MB_126_2*%
X141000000Y-91100500D03*
%TD*%
%TO.C,KiKit_MB_167_1*%
X187000000Y-104900500D03*
%TD*%
%TO.C,KiKit_MB_115_3*%
X157000000Y-80900500D03*
%TD*%
%TO.C,KiKit_MB_23_3*%
X189000000Y-32900500D03*
%TD*%
D11*
%TO.C,H2*%
X161500000Y-107000500D03*
D12*
X161500000Y-107000500D03*
%TD*%
D10*
%TO.C,KiKit_MB_76_4*%
X123000000Y-67100500D03*
%TD*%
%TO.C,KiKit_MB_99_4*%
X126000000Y-74900500D03*
%TD*%
%TO.C,KiKit_MB_144_2*%
X189000000Y-97100500D03*
%TD*%
D11*
%TO.C,H2*%
X193500000Y-77000500D03*
D12*
X193500000Y-77000500D03*
%TD*%
D13*
%TO.C,D1*%
X107500000Y-72025500D03*
X107500000Y-69975500D03*
%TD*%
D10*
%TO.C,KiKit_MB_115_1*%
X155000000Y-80900500D03*
%TD*%
%TO.C,KiKit_MB_5_2*%
X140000000Y-26900500D03*
%TD*%
D14*
%TO.C,R1*%
X189500000Y-42000500D03*
X189500000Y-40000500D03*
%TD*%
D11*
%TO.C,H2*%
X177500000Y-89000500D03*
D12*
X177500000Y-89000500D03*
%TD*%
D11*
%TO.C,H1*%
X119500000Y-89000500D03*
D12*
X119500000Y-89000500D03*
%TD*%
D10*
%TO.C,KiKit_MB_26_3*%
X108000000Y-43100500D03*
%TD*%
%TO.C,KiKit_MB_68_2*%
X157000000Y-61100500D03*
%TD*%
D14*
%TO.C,R1*%
X189500000Y-78000500D03*
X189500000Y-76000500D03*
%TD*%
D11*
%TO.C,H2*%
X177500000Y-59000500D03*
D12*
X177500000Y-59000500D03*
%TD*%
D14*
%TO.C,R1*%
X125500000Y-90000500D03*
X125500000Y-88000500D03*
%TD*%
D10*
%TO.C,KiKit_MB_157_1*%
X107000000Y-104900500D03*
%TD*%
D11*
%TO.C,H1*%
X183500000Y-83000500D03*
D12*
X183500000Y-83000500D03*
%TD*%
D10*
%TO.C,KiKit_MB_18_4*%
X139000000Y-37100500D03*
%TD*%
D11*
%TO.C,H2*%
X129500000Y-77000500D03*
D12*
X129500000Y-77000500D03*
%TD*%
D11*
%TO.C,H2*%
X129500000Y-107000500D03*
D12*
X129500000Y-107000500D03*
%TD*%
D10*
%TO.C,KiKit_MB_90_3*%
X140000000Y-73100500D03*
%TD*%
%TO.C,KiKit_MB_160_3*%
X124000000Y-109100500D03*
%TD*%
%TO.C,KiKit_MB_4_1*%
X126000000Y-31100500D03*
%TD*%
%TO.C,KiKit_MB_96_3*%
X188000000Y-73100500D03*
%TD*%
%TO.C,KiKit_MB_68_4*%
X155000000Y-61100500D03*
%TD*%
%TO.C,KiKit_MB_137_1*%
X139000000Y-92900500D03*
%TD*%
D11*
%TO.C,H1*%
X183500000Y-47000500D03*
D12*
X183500000Y-47000500D03*
%TD*%
D10*
%TO.C,KiKit_MB_168_3*%
X188000000Y-109100500D03*
%TD*%
%TO.C,KiKit_MB_150_1*%
X142000000Y-103100500D03*
%TD*%
%TO.C,KiKit_MB_135_3*%
X125000000Y-92900500D03*
%TD*%
%TO.C,KiKit_MB_101_1*%
X139000000Y-74900500D03*
%TD*%
%TO.C,KiKit_MB_51_4*%
X126000000Y-50900500D03*
%TD*%
D11*
%TO.C,H1*%
X167500000Y-107000500D03*
D12*
X167500000Y-107000500D03*
%TD*%
D13*
%TO.C,D1*%
X187500000Y-36025500D03*
X187500000Y-33975500D03*
%TD*%
D14*
%TO.C,R1*%
X173500000Y-108000500D03*
X173500000Y-106000500D03*
%TD*%
D10*
%TO.C,KiKit_MB_16_1*%
X126000000Y-37100500D03*
%TD*%
%TO.C,KiKit_MB_152_4*%
X155000000Y-103100500D03*
%TD*%
%TO.C,KiKit_MB_149_3*%
X141000000Y-98900500D03*
%TD*%
%TO.C,KiKit_MB_67_1*%
X155000000Y-56900500D03*
%TD*%
%TO.C,KiKit_MB_85_1*%
X107000000Y-68900500D03*
%TD*%
%TO.C,KiKit_MB_30_4*%
X139000000Y-43100500D03*
%TD*%
%TO.C,KiKit_MB_84_1*%
X190000000Y-67100500D03*
%TD*%
%TO.C,KiKit_MB_146_1*%
X110000000Y-103100500D03*
%TD*%
%TO.C,KiKit_MB_56_3*%
X156000000Y-55100500D03*
%TD*%
%TO.C,KiKit_MB_106_4*%
X171000000Y-79100500D03*
%TD*%
D11*
%TO.C,H2*%
X129500000Y-95000500D03*
D12*
X129500000Y-95000500D03*
%TD*%
D10*
%TO.C,KiKit_MB_94_2*%
X173000000Y-73100500D03*
%TD*%
%TO.C,KiKit_MB_3_2*%
X124000000Y-26900500D03*
%TD*%
%TO.C,KiKit_MB_20_1*%
X158000000Y-37100500D03*
%TD*%
%TO.C,KiKit_MB_11_1*%
X187000000Y-26900500D03*
%TD*%
%TO.C,KiKit_MB_79_2*%
X156000000Y-62900500D03*
%TD*%
%TO.C,KiKit_MB_105_4*%
X174000000Y-74900500D03*
%TD*%
D13*
%TO.C,D1*%
X123500000Y-60025500D03*
X123500000Y-57975500D03*
%TD*%
D10*
%TO.C,KiKit_MB_82_3*%
X172000000Y-67100500D03*
%TD*%
D11*
%TO.C,H2*%
X193500000Y-71000500D03*
D12*
X193500000Y-71000500D03*
%TD*%
D11*
%TO.C,H2*%
X129500000Y-59000500D03*
D12*
X129500000Y-59000500D03*
%TD*%
D10*
%TO.C,KiKit_MB_124_4*%
X123000000Y-91100500D03*
%TD*%
%TO.C,KiKit_MB_101_4*%
X142000000Y-74900500D03*
%TD*%
D11*
%TO.C,H1*%
X103500000Y-59000500D03*
D12*
X103500000Y-59000500D03*
%TD*%
D10*
%TO.C,KiKit_MB_46_3*%
X172000000Y-49100500D03*
%TD*%
%TO.C,KiKit_MB_2_2*%
X109000000Y-31100500D03*
%TD*%
D11*
%TO.C,H1*%
X151500000Y-71000500D03*
D12*
X151500000Y-71000500D03*
%TD*%
D10*
%TO.C,KiKit_MB_62_1*%
X110000000Y-61100500D03*
%TD*%
%TO.C,KiKit_MB_32_2*%
X157000000Y-43100500D03*
%TD*%
%TO.C,KiKit_MB_150_3*%
X140000000Y-103100500D03*
%TD*%
%TO.C,KiKit_MB_14_1*%
X110000000Y-37100500D03*
%TD*%
D13*
%TO.C,D1*%
X123500000Y-30025500D03*
X123500000Y-27975500D03*
%TD*%
%TO.C,D1*%
X155500000Y-72025500D03*
X155500000Y-69975500D03*
%TD*%
D10*
%TO.C,KiKit_MB_38_2*%
X109000000Y-49100500D03*
%TD*%
D14*
%TO.C,R1*%
X125500000Y-60000500D03*
X125500000Y-58000500D03*
%TD*%
D10*
%TO.C,KiKit_MB_42_2*%
X141000000Y-49100500D03*
%TD*%
D11*
%TO.C,H1*%
X135500000Y-29000500D03*
D12*
X135500000Y-29000500D03*
%TD*%
D10*
%TO.C,KiKit_MB_156_2*%
X189000000Y-103100500D03*
%TD*%
%TO.C,KiKit_MB_4_2*%
X125000000Y-31100500D03*
%TD*%
D13*
%TO.C,D1*%
X139500000Y-54025500D03*
X139500000Y-51975500D03*
%TD*%
D10*
%TO.C,KiKit_MB_65_3*%
X141000000Y-56900500D03*
%TD*%
%TO.C,KiKit_MB_43_1*%
X155000000Y-44900500D03*
%TD*%
D11*
%TO.C,H2*%
X193500000Y-35000500D03*
D12*
X193500000Y-35000500D03*
%TD*%
D10*
%TO.C,KiKit_MB_164_2*%
X157000000Y-109100500D03*
%TD*%
%TO.C,KiKit_MB_7_3*%
X157000000Y-26900500D03*
%TD*%
%TO.C,KiKit_MB_113_2*%
X140000000Y-80900500D03*
%TD*%
%TO.C,KiKit_MB_104_3*%
X156000000Y-79100500D03*
%TD*%
D11*
%TO.C,H2*%
X177500000Y-41000500D03*
D12*
X177500000Y-41000500D03*
%TD*%
D10*
%TO.C,KiKit_MB_62_2*%
X109000000Y-61100500D03*
%TD*%
%TO.C,KiKit_MB_44_1*%
X158000000Y-49100500D03*
%TD*%
D14*
%TO.C,R1*%
X141500000Y-84000500D03*
X141500000Y-82000500D03*
%TD*%
D10*
%TO.C,KiKit_MB_80_3*%
X156000000Y-67100500D03*
%TD*%
%TO.C,KiKit_MB_132_2*%
X189000000Y-91100500D03*
%TD*%
%TO.C,KiKit_MB_144_1*%
X190000000Y-97100500D03*
%TD*%
D11*
%TO.C,H2*%
X113500000Y-77000500D03*
D12*
X113500000Y-77000500D03*
%TD*%
D10*
%TO.C,KiKit_MB_61_3*%
X109000000Y-56900500D03*
%TD*%
D11*
%TO.C,H2*%
X177500000Y-107000500D03*
D12*
X177500000Y-107000500D03*
%TD*%
D10*
%TO.C,KiKit_MB_28_4*%
X123000000Y-43100500D03*
%TD*%
%TO.C,KiKit_MB_84_4*%
X187000000Y-67100500D03*
%TD*%
%TO.C,KiKit_MB_108_2*%
X189000000Y-79100500D03*
%TD*%
%TO.C,KiKit_MB_80_2*%
X157000000Y-67100500D03*
%TD*%
%TO.C,KiKit_MB_59_1*%
X187000000Y-50900500D03*
%TD*%
D14*
%TO.C,R1*%
X189500000Y-60000500D03*
X189500000Y-58000500D03*
%TD*%
D13*
%TO.C,D1*%
X171500000Y-90025500D03*
X171500000Y-87975500D03*
%TD*%
D10*
%TO.C,KiKit_MB_77_1*%
X139000000Y-62900500D03*
%TD*%
D11*
%TO.C,H2*%
X113500000Y-107000500D03*
D12*
X113500000Y-107000500D03*
%TD*%
D10*
%TO.C,KiKit_MB_3_4*%
X126000000Y-26900500D03*
%TD*%
%TO.C,KiKit_MB_158_2*%
X109000000Y-109100500D03*
%TD*%
D11*
%TO.C,H2*%
X193500000Y-95000500D03*
D12*
X193500000Y-95000500D03*
%TD*%
D10*
%TO.C,KiKit_MB_103_3*%
X157000000Y-74900500D03*
%TD*%
D13*
%TO.C,D1*%
X155500000Y-108025500D03*
X155500000Y-105975500D03*
%TD*%
D14*
%TO.C,R1*%
X125500000Y-96000500D03*
X125500000Y-94000500D03*
%TD*%
D10*
%TO.C,KiKit_MB_75_1*%
X123000000Y-62900500D03*
%TD*%
%TO.C,KiKit_MB_71_2*%
X188000000Y-56900500D03*
%TD*%
%TO.C,KiKit_MB_32_1*%
X158000000Y-43100500D03*
%TD*%
%TO.C,KiKit_MB_100_3*%
X124000000Y-79100500D03*
%TD*%
%TO.C,KiKit_MB_17_2*%
X140000000Y-32900500D03*
%TD*%
%TO.C,KiKit_MB_122_3*%
X108000000Y-91100500D03*
%TD*%
%TO.C,KiKit_MB_129_2*%
X172000000Y-86900500D03*
%TD*%
D11*
%TO.C,H2*%
X145500000Y-47000500D03*
D12*
X145500000Y-47000500D03*
%TD*%
D10*
%TO.C,KiKit_MB_98_1*%
X110000000Y-79100500D03*
%TD*%
D14*
%TO.C,R1*%
X157500000Y-54000500D03*
X157500000Y-52000500D03*
%TD*%
D13*
%TO.C,D1*%
X171500000Y-42025500D03*
X171500000Y-39975500D03*
%TD*%
D11*
%TO.C,H1*%
X135500000Y-83000500D03*
D12*
X135500000Y-83000500D03*
%TD*%
D14*
%TO.C,R1*%
X173500000Y-48000500D03*
X173500000Y-46000500D03*
%TD*%
D10*
%TO.C,KiKit_MB_22_4*%
X171000000Y-37100500D03*
%TD*%
D13*
%TO.C,D1*%
X187500000Y-96025500D03*
X187500000Y-93975500D03*
%TD*%
%TO.C,D1*%
X171500000Y-60025500D03*
X171500000Y-57975500D03*
%TD*%
D10*
%TO.C,KiKit_MB_53_4*%
X142000000Y-50900500D03*
%TD*%
D14*
%TO.C,R1*%
X109500000Y-42000500D03*
X109500000Y-40000500D03*
%TD*%
D10*
%TO.C,KiKit_MB_159_3*%
X125000000Y-104900500D03*
%TD*%
%TO.C,KiKit_MB_9_4*%
X174000000Y-26900500D03*
%TD*%
D13*
%TO.C,D1*%
X139500000Y-72025500D03*
X139500000Y-69975500D03*
%TD*%
D10*
%TO.C,KiKit_MB_86_3*%
X108000000Y-73100500D03*
%TD*%
%TO.C,KiKit_MB_53_2*%
X140000000Y-50900500D03*
%TD*%
D11*
%TO.C,H1*%
X103500000Y-47000500D03*
D12*
X103500000Y-47000500D03*
%TD*%
D10*
%TO.C,KiKit_MB_84_2*%
X189000000Y-67100500D03*
%TD*%
%TO.C,KiKit_MB_165_3*%
X173000000Y-104900500D03*
%TD*%
%TO.C,KiKit_MB_13_2*%
X108000000Y-32900500D03*
%TD*%
D13*
%TO.C,D1*%
X107500000Y-60025500D03*
X107500000Y-57975500D03*
%TD*%
D10*
%TO.C,KiKit_MB_3_1*%
X123000000Y-26900500D03*
%TD*%
%TO.C,KiKit_MB_64_4*%
X123000000Y-61100500D03*
%TD*%
D11*
%TO.C,H2*%
X193500000Y-83000500D03*
D12*
X193500000Y-83000500D03*
%TD*%
D11*
%TO.C,H1*%
X119500000Y-41000500D03*
D12*
X119500000Y-41000500D03*
%TD*%
D10*
%TO.C,KiKit_MB_20_3*%
X156000000Y-37100500D03*
%TD*%
D11*
%TO.C,H2*%
X145500000Y-53000500D03*
D12*
X145500000Y-53000500D03*
%TD*%
D10*
%TO.C,KiKit_MB_83_2*%
X188000000Y-62900500D03*
%TD*%
%TO.C,KiKit_MB_166_1*%
X174000000Y-109100500D03*
%TD*%
%TO.C,KiKit_MB_40_4*%
X123000000Y-49100500D03*
%TD*%
%TO.C,KiKit_MB_153_4*%
X174000000Y-98900500D03*
%TD*%
%TO.C,KiKit_MB_131_3*%
X189000000Y-86900500D03*
%TD*%
D14*
%TO.C,R1*%
X109500000Y-78000500D03*
X109500000Y-76000500D03*
%TD*%
D10*
%TO.C,KiKit_MB_111_4*%
X126000000Y-80900500D03*
%TD*%
%TO.C,KiKit_MB_52_1*%
X126000000Y-55100500D03*
%TD*%
D13*
%TO.C,D1*%
X171500000Y-78025500D03*
X171500000Y-75975500D03*
%TD*%
D10*
%TO.C,KiKit_MB_91_3*%
X157000000Y-68900500D03*
%TD*%
%TO.C,KiKit_MB_74_3*%
X108000000Y-67100500D03*
%TD*%
D11*
%TO.C,H1*%
X103500000Y-53000500D03*
D12*
X103500000Y-53000500D03*
%TD*%
D10*
%TO.C,KiKit_MB_112_2*%
X125000000Y-85100500D03*
%TD*%
%TO.C,KiKit_MB_34_1*%
X174000000Y-43100500D03*
%TD*%
%TO.C,KiKit_MB_165_4*%
X174000000Y-104900500D03*
%TD*%
D13*
%TO.C,D1*%
X139500000Y-102025500D03*
X139500000Y-99975500D03*
%TD*%
%TO.C,D1*%
X155500000Y-30025500D03*
X155500000Y-27975500D03*
%TD*%
D10*
%TO.C,KiKit_MB_105_3*%
X173000000Y-74900500D03*
%TD*%
%TO.C,KiKit_MB_120_3*%
X188000000Y-85100500D03*
%TD*%
D13*
%TO.C,D1*%
X139500000Y-36025500D03*
X139500000Y-33975500D03*
%TD*%
D10*
%TO.C,KiKit_MB_147_3*%
X125000000Y-98900500D03*
%TD*%
%TO.C,KiKit_MB_142_3*%
X172000000Y-97100500D03*
%TD*%
%TO.C,KiKit_MB_16_4*%
X123000000Y-37100500D03*
%TD*%
%TO.C,KiKit_MB_142_4*%
X171000000Y-97100500D03*
%TD*%
D11*
%TO.C,H1*%
X103500000Y-29000500D03*
D12*
X103500000Y-29000500D03*
%TD*%
D10*
%TO.C,KiKit_MB_145_2*%
X108000000Y-98900500D03*
%TD*%
%TO.C,KiKit_MB_122_1*%
X110000000Y-91100500D03*
%TD*%
D11*
%TO.C,H2*%
X177500000Y-101000500D03*
D12*
X177500000Y-101000500D03*
%TD*%
D10*
%TO.C,KiKit_MB_144_3*%
X188000000Y-97100500D03*
%TD*%
%TO.C,KiKit_MB_74_1*%
X110000000Y-67100500D03*
%TD*%
%TO.C,KiKit_MB_164_1*%
X158000000Y-109100500D03*
%TD*%
%TO.C,KiKit_MB_66_2*%
X141000000Y-61100500D03*
%TD*%
%TO.C,KiKit_MB_159_1*%
X123000000Y-104900500D03*
%TD*%
%TO.C,KiKit_MB_109_3*%
X109000000Y-80900500D03*
%TD*%
D11*
%TO.C,H1*%
X183500000Y-41000500D03*
D12*
X183500000Y-41000500D03*
%TD*%
D10*
%TO.C,KiKit_MB_38_4*%
X107000000Y-49100500D03*
%TD*%
%TO.C,KiKit_MB_21_3*%
X173000000Y-32900500D03*
%TD*%
D11*
%TO.C,H1*%
X183500000Y-53000500D03*
D12*
X183500000Y-53000500D03*
%TD*%
D10*
%TO.C,KiKit_MB_121_2*%
X108000000Y-86900500D03*
%TD*%
%TO.C,KiKit_MB_60_2*%
X189000000Y-55100500D03*
%TD*%
%TO.C,KiKit_MB_110_1*%
X110000000Y-85100500D03*
%TD*%
%TO.C,KiKit_MB_10_3*%
X172000000Y-31100500D03*
%TD*%
%TO.C,KiKit_MB_92_1*%
X158000000Y-73100500D03*
%TD*%
%TO.C,KiKit_MB_161_4*%
X142000000Y-104900500D03*
%TD*%
%TO.C,KiKit_MB_151_2*%
X156000000Y-98900500D03*
%TD*%
%TO.C,KiKit_MB_114_2*%
X141000000Y-85100500D03*
%TD*%
%TO.C,KiKit_MB_103_4*%
X158000000Y-74900500D03*
%TD*%
%TO.C,KiKit_MB_95_4*%
X190000000Y-68900500D03*
%TD*%
%TO.C,KiKit_MB_12_1*%
X190000000Y-31100500D03*
%TD*%
%TO.C,KiKit_MB_29_4*%
X142000000Y-38900500D03*
%TD*%
D11*
%TO.C,H1*%
X135500000Y-101000500D03*
D12*
X135500000Y-101000500D03*
%TD*%
D11*
%TO.C,H1*%
X183500000Y-77000500D03*
D12*
X183500000Y-77000500D03*
%TD*%
D10*
%TO.C,KiKit_MB_91_1*%
X155000000Y-68900500D03*
%TD*%
D13*
%TO.C,D1*%
X139500000Y-90025500D03*
X139500000Y-87975500D03*
%TD*%
D14*
%TO.C,R1*%
X189500000Y-108000500D03*
X189500000Y-106000500D03*
%TD*%
D13*
%TO.C,D1*%
X155500000Y-102025500D03*
X155500000Y-99975500D03*
%TD*%
D10*
%TO.C,KiKit_MB_94_1*%
X174000000Y-73100500D03*
%TD*%
%TO.C,KiKit_MB_76_3*%
X124000000Y-67100500D03*
%TD*%
D14*
%TO.C,R1*%
X109500000Y-102000500D03*
X109500000Y-100000500D03*
%TD*%
D10*
%TO.C,KiKit_MB_1_2*%
X108000000Y-26900500D03*
%TD*%
%TO.C,KiKit_MB_95_3*%
X189000000Y-68900500D03*
%TD*%
%TO.C,KiKit_MB_46_2*%
X173000000Y-49100500D03*
%TD*%
%TO.C,KiKit_MB_6_3*%
X140000000Y-31100500D03*
%TD*%
%TO.C,KiKit_MB_143_2*%
X188000000Y-92900500D03*
%TD*%
%TO.C,KiKit_MB_78_3*%
X140000000Y-67100500D03*
%TD*%
%TO.C,KiKit_MB_54_2*%
X141000000Y-55100500D03*
%TD*%
%TO.C,KiKit_MB_97_1*%
X107000000Y-74900500D03*
%TD*%
D11*
%TO.C,H2*%
X177500000Y-65000500D03*
D12*
X177500000Y-65000500D03*
%TD*%
D10*
%TO.C,KiKit_MB_102_2*%
X141000000Y-79100500D03*
%TD*%
D13*
%TO.C,D1*%
X123500000Y-48025500D03*
X123500000Y-45975500D03*
%TD*%
D10*
%TO.C,KiKit_MB_40_1*%
X126000000Y-49100500D03*
%TD*%
%TO.C,KiKit_MB_67_2*%
X156000000Y-56900500D03*
%TD*%
D11*
%TO.C,H1*%
X167500000Y-77000500D03*
D12*
X167500000Y-77000500D03*
%TD*%
D10*
%TO.C,KiKit_MB_126_3*%
X140000000Y-91100500D03*
%TD*%
D14*
%TO.C,R1*%
X173500000Y-96000500D03*
X173500000Y-94000500D03*
%TD*%
D10*
%TO.C,KiKit_MB_33_4*%
X174000000Y-38900500D03*
%TD*%
%TO.C,KiKit_MB_106_3*%
X172000000Y-79100500D03*
%TD*%
D11*
%TO.C,H2*%
X161500000Y-53000500D03*
D12*
X161500000Y-53000500D03*
%TD*%
D10*
%TO.C,KiKit_MB_60_4*%
X187000000Y-55100500D03*
%TD*%
%TO.C,KiKit_MB_103_1*%
X155000000Y-74900500D03*
%TD*%
%TO.C,KiKit_MB_97_2*%
X108000000Y-74900500D03*
%TD*%
%TO.C,KiKit_MB_150_4*%
X139000000Y-103100500D03*
%TD*%
D11*
%TO.C,H2*%
X161500000Y-77000500D03*
D12*
X161500000Y-77000500D03*
%TD*%
D10*
%TO.C,KiKit_MB_121_4*%
X110000000Y-86900500D03*
%TD*%
%TO.C,KiKit_MB_6_1*%
X142000000Y-31100500D03*
%TD*%
%TO.C,KiKit_MB_140_4*%
X155000000Y-97100500D03*
%TD*%
D13*
%TO.C,D1*%
X155500000Y-96025500D03*
X155500000Y-93975500D03*
%TD*%
%TO.C,D1*%
X107500000Y-54025500D03*
X107500000Y-51975500D03*
%TD*%
D14*
%TO.C,R1*%
X125500000Y-54000500D03*
X125500000Y-52000500D03*
%TD*%
D10*
%TO.C,KiKit_MB_16_2*%
X125000000Y-37100500D03*
%TD*%
D14*
%TO.C,R1*%
X141500000Y-42000500D03*
X141500000Y-40000500D03*
%TD*%
D10*
%TO.C,KiKit_MB_151_1*%
X155000000Y-98900500D03*
%TD*%
D11*
%TO.C,H1*%
X183500000Y-35000500D03*
D12*
X183500000Y-35000500D03*
%TD*%
D11*
%TO.C,H1*%
X151500000Y-29000500D03*
D12*
X151500000Y-29000500D03*
%TD*%
D11*
%TO.C,H1*%
X167500000Y-41000500D03*
D12*
X167500000Y-41000500D03*
%TD*%
D10*
%TO.C,KiKit_MB_80_1*%
X158000000Y-67100500D03*
%TD*%
%TO.C,KiKit_MB_77_4*%
X142000000Y-62900500D03*
%TD*%
%TO.C,KiKit_MB_65_1*%
X139000000Y-56900500D03*
%TD*%
D11*
%TO.C,H2*%
X177500000Y-83000500D03*
D12*
X177500000Y-83000500D03*
%TD*%
D11*
%TO.C,H2*%
X161500000Y-41000500D03*
D12*
X161500000Y-41000500D03*
%TD*%
D11*
%TO.C,H1*%
X103500000Y-41000500D03*
D12*
X103500000Y-41000500D03*
%TD*%
D10*
%TO.C,KiKit_MB_46_4*%
X171000000Y-49100500D03*
%TD*%
D14*
%TO.C,R1*%
X109500000Y-84000500D03*
X109500000Y-82000500D03*
%TD*%
D10*
%TO.C,KiKit_MB_13_1*%
X107000000Y-32900500D03*
%TD*%
%TO.C,KiKit_MB_116_3*%
X156000000Y-85100500D03*
%TD*%
%TO.C,KiKit_MB_36_2*%
X189000000Y-43100500D03*
%TD*%
%TO.C,KiKit_MB_118_3*%
X172000000Y-85100500D03*
%TD*%
%TO.C,KiKit_MB_128_1*%
X158000000Y-91100500D03*
%TD*%
%TO.C,KiKit_MB_33_3*%
X173000000Y-38900500D03*
%TD*%
%TO.C,KiKit_MB_74_2*%
X109000000Y-67100500D03*
%TD*%
D14*
%TO.C,R1*%
X141500000Y-48000500D03*
X141500000Y-46000500D03*
%TD*%
D11*
%TO.C,H1*%
X119500000Y-35000500D03*
D12*
X119500000Y-35000500D03*
%TD*%
D10*
%TO.C,KiKit_MB_146_2*%
X109000000Y-103100500D03*
%TD*%
%TO.C,KiKit_MB_151_3*%
X157000000Y-98900500D03*
%TD*%
D13*
%TO.C,D1*%
X107500000Y-48025500D03*
X107500000Y-45975500D03*
%TD*%
D10*
%TO.C,KiKit_MB_78_2*%
X141000000Y-67100500D03*
%TD*%
%TO.C,KiKit_MB_29_3*%
X141000000Y-38900500D03*
%TD*%
%TO.C,KiKit_MB_42_4*%
X139000000Y-49100500D03*
%TD*%
%TO.C,KiKit_MB_69_1*%
X171000000Y-56900500D03*
%TD*%
%TO.C,KiKit_MB_63_3*%
X125000000Y-56900500D03*
%TD*%
D11*
%TO.C,H1*%
X167500000Y-89000500D03*
D12*
X167500000Y-89000500D03*
%TD*%
D14*
%TO.C,R1*%
X173500000Y-102000500D03*
X173500000Y-100000500D03*
%TD*%
D10*
%TO.C,KiKit_MB_72_3*%
X188000000Y-61100500D03*
%TD*%
D11*
%TO.C,H2*%
X129500000Y-53000500D03*
D12*
X129500000Y-53000500D03*
%TD*%
D10*
%TO.C,KiKit_MB_78_4*%
X139000000Y-67100500D03*
%TD*%
%TO.C,KiKit_MB_13_3*%
X109000000Y-32900500D03*
%TD*%
%TO.C,KiKit_MB_11_2*%
X188000000Y-26900500D03*
%TD*%
%TO.C,KiKit_MB_51_2*%
X124000000Y-50900500D03*
%TD*%
D11*
%TO.C,H1*%
X151500000Y-53000500D03*
D12*
X151500000Y-53000500D03*
%TD*%
D10*
%TO.C,KiKit_MB_85_2*%
X108000000Y-68900500D03*
%TD*%
%TO.C,KiKit_MB_50_3*%
X108000000Y-55100500D03*
%TD*%
%TO.C,KiKit_MB_43_4*%
X158000000Y-44900500D03*
%TD*%
%TO.C,KiKit_MB_133_3*%
X109000000Y-92900500D03*
%TD*%
D11*
%TO.C,H2*%
X193500000Y-29000500D03*
D12*
X193500000Y-29000500D03*
%TD*%
D10*
%TO.C,KiKit_MB_113_1*%
X139000000Y-80900500D03*
%TD*%
D11*
%TO.C,H1*%
X183500000Y-101000500D03*
D12*
X183500000Y-101000500D03*
%TD*%
D13*
%TO.C,D1*%
X171500000Y-72025500D03*
X171500000Y-69975500D03*
%TD*%
D10*
%TO.C,KiKit_MB_155_1*%
X187000000Y-98900500D03*
%TD*%
%TO.C,KiKit_MB_93_3*%
X173000000Y-68900500D03*
%TD*%
D14*
%TO.C,R1*%
X109500000Y-66000500D03*
X109500000Y-64000500D03*
%TD*%
D10*
%TO.C,KiKit_MB_87_3*%
X125000000Y-68900500D03*
%TD*%
%TO.C,KiKit_MB_86_1*%
X110000000Y-73100500D03*
%TD*%
%TO.C,KiKit_MB_58_1*%
X174000000Y-55100500D03*
%TD*%
%TO.C,KiKit_MB_128_4*%
X155000000Y-91100500D03*
%TD*%
%TO.C,KiKit_MB_4_4*%
X123000000Y-31100500D03*
%TD*%
%TO.C,KiKit_MB_105_1*%
X171000000Y-74900500D03*
%TD*%
%TO.C,KiKit_MB_152_2*%
X157000000Y-103100500D03*
%TD*%
%TO.C,KiKit_MB_84_3*%
X188000000Y-67100500D03*
%TD*%
%TO.C,KiKit_MB_168_4*%
X187000000Y-109100500D03*
%TD*%
D14*
%TO.C,R1*%
X141500000Y-54000500D03*
X141500000Y-52000500D03*
%TD*%
%TO.C,R1*%
X141500000Y-60000500D03*
X141500000Y-58000500D03*
%TD*%
D13*
%TO.C,D1*%
X123500000Y-90025500D03*
X123500000Y-87975500D03*
%TD*%
D10*
%TO.C,KiKit_MB_116_4*%
X155000000Y-85100500D03*
%TD*%
D14*
%TO.C,R1*%
X173500000Y-66000500D03*
X173500000Y-64000500D03*
%TD*%
D10*
%TO.C,KiKit_MB_155_3*%
X189000000Y-98900500D03*
%TD*%
%TO.C,KiKit_MB_154_2*%
X173000000Y-103100500D03*
%TD*%
D14*
%TO.C,R1*%
X157500000Y-78000500D03*
X157500000Y-76000500D03*
%TD*%
D10*
%TO.C,KiKit_MB_107_1*%
X187000000Y-74900500D03*
%TD*%
%TO.C,KiKit_MB_7_1*%
X155000000Y-26900500D03*
%TD*%
%TO.C,KiKit_MB_79_4*%
X158000000Y-62900500D03*
%TD*%
%TO.C,KiKit_MB_138_2*%
X141000000Y-97100500D03*
%TD*%
%TO.C,KiKit_MB_107_2*%
X188000000Y-74900500D03*
%TD*%
D14*
%TO.C,R1*%
X109500000Y-108000500D03*
X109500000Y-106000500D03*
%TD*%
D10*
%TO.C,KiKit_MB_136_4*%
X123000000Y-97100500D03*
%TD*%
%TO.C,KiKit_MB_73_3*%
X109000000Y-62900500D03*
%TD*%
%TO.C,KiKit_MB_69_4*%
X174000000Y-56900500D03*
%TD*%
D11*
%TO.C,H2*%
X129500000Y-29000500D03*
D12*
X129500000Y-29000500D03*
%TD*%
D10*
%TO.C,KiKit_MB_137_4*%
X142000000Y-92900500D03*
%TD*%
%TO.C,KiKit_MB_52_3*%
X124000000Y-55100500D03*
%TD*%
%TO.C,KiKit_MB_117_2*%
X172000000Y-80900500D03*
%TD*%
D13*
%TO.C,D1*%
X155500000Y-60025500D03*
X155500000Y-57975500D03*
%TD*%
D10*
%TO.C,KiKit_MB_129_3*%
X173000000Y-86900500D03*
%TD*%
%TO.C,KiKit_MB_68_1*%
X158000000Y-61100500D03*
%TD*%
D13*
%TO.C,D1*%
X171500000Y-36025500D03*
X171500000Y-33975500D03*
%TD*%
D10*
%TO.C,KiKit_MB_157_4*%
X110000000Y-104900500D03*
%TD*%
%TO.C,KiKit_MB_135_2*%
X124000000Y-92900500D03*
%TD*%
%TO.C,KiKit_MB_67_4*%
X158000000Y-56900500D03*
%TD*%
%TO.C,KiKit_MB_31_2*%
X156000000Y-38900500D03*
%TD*%
D11*
%TO.C,H1*%
X119500000Y-53000500D03*
D12*
X119500000Y-53000500D03*
%TD*%
D10*
%TO.C,KiKit_MB_27_1*%
X123000000Y-38900500D03*
%TD*%
%TO.C,KiKit_MB_37_3*%
X109000000Y-44900500D03*
%TD*%
D13*
%TO.C,D1*%
X107500000Y-96025500D03*
X107500000Y-93975500D03*
%TD*%
D10*
%TO.C,KiKit_MB_75_2*%
X124000000Y-62900500D03*
%TD*%
%TO.C,KiKit_MB_45_3*%
X173000000Y-44900500D03*
%TD*%
%TO.C,KiKit_MB_57_2*%
X172000000Y-50900500D03*
%TD*%
%TO.C,KiKit_MB_50_4*%
X107000000Y-55100500D03*
%TD*%
%TO.C,KiKit_MB_15_1*%
X123000000Y-32900500D03*
%TD*%
%TO.C,KiKit_MB_99_3*%
X125000000Y-74900500D03*
%TD*%
%TO.C,KiKit_MB_168_1*%
X190000000Y-109100500D03*
%TD*%
D13*
%TO.C,D1*%
X107500000Y-84025500D03*
X107500000Y-81975500D03*
%TD*%
%TO.C,D1*%
X155500000Y-90025500D03*
X155500000Y-87975500D03*
%TD*%
D10*
%TO.C,KiKit_MB_63_2*%
X124000000Y-56900500D03*
%TD*%
%TO.C,KiKit_MB_135_1*%
X123000000Y-92900500D03*
%TD*%
D14*
%TO.C,R1*%
X157500000Y-84000500D03*
X157500000Y-82000500D03*
%TD*%
D13*
%TO.C,D1*%
X107500000Y-78025500D03*
X107500000Y-75975500D03*
%TD*%
D11*
%TO.C,H1*%
X135500000Y-41000500D03*
D12*
X135500000Y-41000500D03*
%TD*%
D10*
%TO.C,KiKit_MB_50_1*%
X110000000Y-55100500D03*
%TD*%
D11*
%TO.C,H1*%
X151500000Y-59000500D03*
D12*
X151500000Y-59000500D03*
%TD*%
D10*
%TO.C,KiKit_MB_150_2*%
X141000000Y-103100500D03*
%TD*%
%TO.C,KiKit_MB_59_4*%
X190000000Y-50900500D03*
%TD*%
D14*
%TO.C,R1*%
X109500000Y-90000500D03*
X109500000Y-88000500D03*
%TD*%
D10*
%TO.C,KiKit_MB_27_2*%
X124000000Y-38900500D03*
%TD*%
D13*
%TO.C,D1*%
X171500000Y-102025500D03*
X171500000Y-99975500D03*
%TD*%
D10*
%TO.C,KiKit_MB_100_2*%
X125000000Y-79100500D03*
%TD*%
D14*
%TO.C,R1*%
X189500000Y-48000500D03*
X189500000Y-46000500D03*
%TD*%
D10*
%TO.C,KiKit_MB_123_1*%
X123000000Y-86900500D03*
%TD*%
%TO.C,KiKit_MB_32_3*%
X156000000Y-43100500D03*
%TD*%
%TO.C,KiKit_MB_61_2*%
X108000000Y-56900500D03*
%TD*%
%TO.C,KiKit_MB_139_4*%
X158000000Y-92900500D03*
%TD*%
%TO.C,KiKit_MB_130_4*%
X171000000Y-91100500D03*
%TD*%
%TO.C,KiKit_MB_148_1*%
X126000000Y-103100500D03*
%TD*%
D14*
%TO.C,R1*%
X189500000Y-84000500D03*
X189500000Y-82000500D03*
%TD*%
D10*
%TO.C,KiKit_MB_162_4*%
X139000000Y-109100500D03*
%TD*%
%TO.C,KiKit_MB_1_3*%
X109000000Y-26900500D03*
%TD*%
%TO.C,KiKit_MB_93_2*%
X172000000Y-68900500D03*
%TD*%
%TO.C,KiKit_MB_73_2*%
X108000000Y-62900500D03*
%TD*%
D11*
%TO.C,H1*%
X167500000Y-53000500D03*
D12*
X167500000Y-53000500D03*
%TD*%
D10*
%TO.C,KiKit_MB_68_3*%
X156000000Y-61100500D03*
%TD*%
%TO.C,KiKit_MB_126_1*%
X142000000Y-91100500D03*
%TD*%
%TO.C,KiKit_MB_48_1*%
X190000000Y-49100500D03*
%TD*%
D11*
%TO.C,H1*%
X135500000Y-107000500D03*
D12*
X135500000Y-107000500D03*
%TD*%
D10*
%TO.C,KiKit_MB_87_2*%
X124000000Y-68900500D03*
%TD*%
%TO.C,KiKit_MB_65_4*%
X142000000Y-56900500D03*
%TD*%
D11*
%TO.C,H2*%
X145500000Y-107000500D03*
D12*
X145500000Y-107000500D03*
%TD*%
D10*
%TO.C,KiKit_MB_126_4*%
X139000000Y-91100500D03*
%TD*%
D11*
%TO.C,H1*%
X119500000Y-95000500D03*
D12*
X119500000Y-95000500D03*
%TD*%
D10*
%TO.C,KiKit_MB_163_4*%
X158000000Y-104900500D03*
%TD*%
%TO.C,KiKit_MB_162_3*%
X140000000Y-109100500D03*
%TD*%
%TO.C,KiKit_MB_146_3*%
X108000000Y-103100500D03*
%TD*%
%TO.C,KiKit_MB_165_2*%
X172000000Y-104900500D03*
%TD*%
%TO.C,KiKit_MB_49_4*%
X110000000Y-50900500D03*
%TD*%
%TO.C,KiKit_MB_149_4*%
X142000000Y-98900500D03*
%TD*%
D14*
%TO.C,R1*%
X125500000Y-30000500D03*
X125500000Y-28000500D03*
%TD*%
D11*
%TO.C,H2*%
X129500000Y-41000500D03*
D12*
X129500000Y-41000500D03*
%TD*%
D10*
%TO.C,KiKit_MB_25_2*%
X108000000Y-38900500D03*
%TD*%
D14*
%TO.C,R1*%
X141500000Y-108000500D03*
X141500000Y-106000500D03*
%TD*%
D10*
%TO.C,KiKit_MB_35_3*%
X189000000Y-38900500D03*
%TD*%
%TO.C,KiKit_MB_53_1*%
X139000000Y-50900500D03*
%TD*%
D13*
%TO.C,D1*%
X107500000Y-108025500D03*
X107500000Y-105975500D03*
%TD*%
D10*
%TO.C,KiKit_MB_45_2*%
X172000000Y-44900500D03*
%TD*%
D13*
%TO.C,D1*%
X171500000Y-48025500D03*
X171500000Y-45975500D03*
%TD*%
%TO.C,D1*%
X139500000Y-48025500D03*
X139500000Y-45975500D03*
%TD*%
D11*
%TO.C,H2*%
X129500000Y-83000500D03*
D12*
X129500000Y-83000500D03*
%TD*%
D10*
%TO.C,KiKit_MB_145_3*%
X109000000Y-98900500D03*
%TD*%
D14*
%TO.C,R1*%
X173500000Y-90000500D03*
X173500000Y-88000500D03*
%TD*%
D10*
%TO.C,KiKit_MB_109_2*%
X108000000Y-80900500D03*
%TD*%
%TO.C,KiKit_MB_11_4*%
X190000000Y-26900500D03*
%TD*%
%TO.C,KiKit_MB_110_3*%
X108000000Y-85100500D03*
%TD*%
D11*
%TO.C,H1*%
X103500000Y-71000500D03*
D12*
X103500000Y-71000500D03*
%TD*%
D11*
%TO.C,H2*%
X145500000Y-29000500D03*
D12*
X145500000Y-29000500D03*
%TD*%
D10*
%TO.C,KiKit_MB_147_1*%
X123000000Y-98900500D03*
%TD*%
D14*
%TO.C,R1*%
X125500000Y-78000500D03*
X125500000Y-76000500D03*
%TD*%
D13*
%TO.C,D1*%
X155500000Y-78025500D03*
X155500000Y-75975500D03*
%TD*%
D10*
%TO.C,KiKit_MB_81_4*%
X174000000Y-62900500D03*
%TD*%
D14*
%TO.C,R1*%
X125500000Y-48000500D03*
X125500000Y-46000500D03*
%TD*%
D10*
%TO.C,KiKit_MB_96_4*%
X187000000Y-73100500D03*
%TD*%
%TO.C,KiKit_MB_92_3*%
X156000000Y-73100500D03*
%TD*%
D11*
%TO.C,H1*%
X103500000Y-83000500D03*
D12*
X103500000Y-83000500D03*
%TD*%
D10*
%TO.C,KiKit_MB_85_3*%
X109000000Y-68900500D03*
%TD*%
%TO.C,KiKit_MB_64_3*%
X124000000Y-61100500D03*
%TD*%
%TO.C,KiKit_MB_100_4*%
X123000000Y-79100500D03*
%TD*%
D11*
%TO.C,H2*%
X193500000Y-41000500D03*
D12*
X193500000Y-41000500D03*
%TD*%
D10*
%TO.C,KiKit_MB_91_4*%
X158000000Y-68900500D03*
%TD*%
%TO.C,KiKit_MB_127_4*%
X158000000Y-86900500D03*
%TD*%
%TO.C,KiKit_MB_3_3*%
X125000000Y-26900500D03*
%TD*%
D11*
%TO.C,H2*%
X145500000Y-71000500D03*
D12*
X145500000Y-71000500D03*
%TD*%
D10*
%TO.C,KiKit_MB_155_4*%
X190000000Y-98900500D03*
%TD*%
%TO.C,KiKit_MB_137_3*%
X141000000Y-92900500D03*
%TD*%
%TO.C,KiKit_MB_34_3*%
X172000000Y-43100500D03*
%TD*%
D14*
%TO.C,R1*%
X189500000Y-96000500D03*
X189500000Y-94000500D03*
%TD*%
D10*
%TO.C,KiKit_MB_119_4*%
X190000000Y-80900500D03*
%TD*%
%TO.C,KiKit_MB_103_2*%
X156000000Y-74900500D03*
%TD*%
D11*
%TO.C,H2*%
X193500000Y-59000500D03*
D12*
X193500000Y-59000500D03*
%TD*%
D10*
%TO.C,KiKit_MB_147_4*%
X126000000Y-98900500D03*
%TD*%
%TO.C,KiKit_MB_33_1*%
X171000000Y-38900500D03*
%TD*%
%TO.C,KiKit_MB_39_2*%
X124000000Y-44900500D03*
%TD*%
%TO.C,KiKit_MB_107_4*%
X190000000Y-74900500D03*
%TD*%
%TO.C,KiKit_MB_92_4*%
X155000000Y-73100500D03*
%TD*%
%TO.C,KiKit_MB_42_1*%
X142000000Y-49100500D03*
%TD*%
%TO.C,KiKit_MB_124_1*%
X126000000Y-91100500D03*
%TD*%
%TO.C,KiKit_MB_55_2*%
X156000000Y-50900500D03*
%TD*%
%TO.C,KiKit_MB_46_1*%
X174000000Y-49100500D03*
%TD*%
D11*
%TO.C,H1*%
X151500000Y-95000500D03*
D12*
X151500000Y-95000500D03*
%TD*%
D10*
%TO.C,KiKit_MB_82_4*%
X171000000Y-67100500D03*
%TD*%
%TO.C,KiKit_MB_94_4*%
X171000000Y-73100500D03*
%TD*%
%TO.C,KiKit_MB_34_4*%
X171000000Y-43100500D03*
%TD*%
%TO.C,KiKit_MB_160_1*%
X126000000Y-109100500D03*
%TD*%
%TO.C,KiKit_MB_81_1*%
X171000000Y-62900500D03*
%TD*%
%TO.C,KiKit_MB_119_3*%
X189000000Y-80900500D03*
%TD*%
D11*
%TO.C,H1*%
X135500000Y-95000500D03*
D12*
X135500000Y-95000500D03*
%TD*%
D13*
%TO.C,D1*%
X139500000Y-78025500D03*
X139500000Y-75975500D03*
%TD*%
D10*
%TO.C,KiKit_MB_73_1*%
X107000000Y-62900500D03*
%TD*%
D13*
%TO.C,D1*%
X107500000Y-102025500D03*
X107500000Y-99975500D03*
%TD*%
D14*
%TO.C,R1*%
X157500000Y-108000500D03*
X157500000Y-106000500D03*
%TD*%
D10*
%TO.C,KiKit_MB_143_3*%
X189000000Y-92900500D03*
%TD*%
%TO.C,KiKit_MB_14_2*%
X109000000Y-37100500D03*
%TD*%
D11*
%TO.C,H2*%
X161500000Y-35000500D03*
D12*
X161500000Y-35000500D03*
%TD*%
D10*
%TO.C,KiKit_MB_104_2*%
X157000000Y-79100500D03*
%TD*%
D14*
%TO.C,R1*%
X157500000Y-72000500D03*
X157500000Y-70000500D03*
%TD*%
D10*
%TO.C,KiKit_MB_48_4*%
X187000000Y-49100500D03*
%TD*%
D11*
%TO.C,H1*%
X151500000Y-101000500D03*
D12*
X151500000Y-101000500D03*
%TD*%
D11*
%TO.C,H1*%
X119500000Y-107000500D03*
D12*
X119500000Y-107000500D03*
%TD*%
D10*
%TO.C,KiKit_MB_40_2*%
X125000000Y-49100500D03*
%TD*%
%TO.C,KiKit_MB_22_2*%
X173000000Y-37100500D03*
%TD*%
%TO.C,KiKit_MB_90_1*%
X142000000Y-73100500D03*
%TD*%
%TO.C,KiKit_MB_133_2*%
X108000000Y-92900500D03*
%TD*%
%TO.C,KiKit_MB_160_4*%
X123000000Y-109100500D03*
%TD*%
D11*
%TO.C,H2*%
X193500000Y-89000500D03*
D12*
X193500000Y-89000500D03*
%TD*%
D10*
%TO.C,KiKit_MB_7_4*%
X158000000Y-26900500D03*
%TD*%
%TO.C,KiKit_MB_33_2*%
X172000000Y-38900500D03*
%TD*%
%TO.C,KiKit_MB_120_1*%
X190000000Y-85100500D03*
%TD*%
D14*
%TO.C,R1*%
X157500000Y-30000500D03*
X157500000Y-28000500D03*
%TD*%
D10*
%TO.C,KiKit_MB_141_4*%
X174000000Y-92900500D03*
%TD*%
%TO.C,KiKit_MB_9_3*%
X173000000Y-26900500D03*
%TD*%
%TO.C,KiKit_MB_36_3*%
X188000000Y-43100500D03*
%TD*%
%TO.C,KiKit_MB_57_3*%
X173000000Y-50900500D03*
%TD*%
%TO.C,KiKit_MB_1_4*%
X110000000Y-26900500D03*
%TD*%
D11*
%TO.C,H2*%
X113500000Y-71000500D03*
D12*
X113500000Y-71000500D03*
%TD*%
D10*
%TO.C,KiKit_MB_44_4*%
X155000000Y-49100500D03*
%TD*%
D13*
%TO.C,D1*%
X187500000Y-60025500D03*
X187500000Y-57975500D03*
%TD*%
D10*
%TO.C,KiKit_MB_20_4*%
X155000000Y-37100500D03*
%TD*%
%TO.C,KiKit_MB_140_3*%
X156000000Y-97100500D03*
%TD*%
%TO.C,KiKit_MB_61_1*%
X107000000Y-56900500D03*
%TD*%
%TO.C,KiKit_MB_147_2*%
X124000000Y-98900500D03*
%TD*%
D11*
%TO.C,H1*%
X135500000Y-65000500D03*
D12*
X135500000Y-65000500D03*
%TD*%
D10*
%TO.C,KiKit_MB_31_3*%
X157000000Y-38900500D03*
%TD*%
%TO.C,KiKit_MB_104_1*%
X158000000Y-79100500D03*
%TD*%
D11*
%TO.C,H2*%
X177500000Y-47000500D03*
D12*
X177500000Y-47000500D03*
%TD*%
D10*
%TO.C,KiKit_MB_52_2*%
X125000000Y-55100500D03*
%TD*%
%TO.C,KiKit_MB_89_3*%
X141000000Y-68900500D03*
%TD*%
%TO.C,KiKit_MB_25_1*%
X107000000Y-38900500D03*
%TD*%
%TO.C,KiKit_MB_37_1*%
X107000000Y-44900500D03*
%TD*%
D13*
%TO.C,D1*%
X187500000Y-84025500D03*
X187500000Y-81975500D03*
%TD*%
D10*
%TO.C,KiKit_MB_93_4*%
X174000000Y-68900500D03*
%TD*%
%TO.C,KiKit_MB_86_4*%
X107000000Y-73100500D03*
%TD*%
%TO.C,KiKit_MB_35_4*%
X190000000Y-38900500D03*
%TD*%
D11*
%TO.C,H1*%
X167500000Y-71000500D03*
D12*
X167500000Y-71000500D03*
%TD*%
D10*
%TO.C,KiKit_MB_15_4*%
X126000000Y-32900500D03*
%TD*%
D11*
%TO.C,H2*%
X177500000Y-71000500D03*
D12*
X177500000Y-71000500D03*
%TD*%
D10*
%TO.C,KiKit_MB_78_1*%
X142000000Y-67100500D03*
%TD*%
%TO.C,KiKit_MB_18_2*%
X141000000Y-37100500D03*
%TD*%
%TO.C,KiKit_MB_69_3*%
X173000000Y-56900500D03*
%TD*%
%TO.C,KiKit_MB_66_3*%
X140000000Y-61100500D03*
%TD*%
D14*
%TO.C,R1*%
X173500000Y-30000500D03*
X173500000Y-28000500D03*
%TD*%
D10*
%TO.C,KiKit_MB_88_4*%
X123000000Y-73100500D03*
%TD*%
D11*
%TO.C,H2*%
X129500000Y-101000500D03*
D12*
X129500000Y-101000500D03*
%TD*%
D10*
%TO.C,KiKit_MB_41_1*%
X139000000Y-44900500D03*
%TD*%
%TO.C,KiKit_MB_79_3*%
X157000000Y-62900500D03*
%TD*%
%TO.C,KiKit_MB_22_3*%
X172000000Y-37100500D03*
%TD*%
%TO.C,KiKit_MB_129_1*%
X171000000Y-86900500D03*
%TD*%
%TO.C,KiKit_MB_37_2*%
X108000000Y-44900500D03*
%TD*%
%TO.C,KiKit_MB_98_4*%
X107000000Y-79100500D03*
%TD*%
%TO.C,KiKit_MB_85_4*%
X110000000Y-68900500D03*
%TD*%
%TO.C,KiKit_MB_8_4*%
X155000000Y-31100500D03*
%TD*%
D11*
%TO.C,H1*%
X103500000Y-95000500D03*
D12*
X103500000Y-95000500D03*
%TD*%
D10*
%TO.C,KiKit_MB_10_1*%
X174000000Y-31100500D03*
%TD*%
%TO.C,KiKit_MB_156_3*%
X188000000Y-103100500D03*
%TD*%
D14*
%TO.C,R1*%
X189500000Y-90000500D03*
X189500000Y-88000500D03*
%TD*%
D10*
%TO.C,KiKit_MB_47_1*%
X187000000Y-44900500D03*
%TD*%
%TO.C,KiKit_MB_14_4*%
X107000000Y-37100500D03*
%TD*%
%TO.C,KiKit_MB_156_4*%
X187000000Y-103100500D03*
%TD*%
%TO.C,KiKit_MB_70_2*%
X173000000Y-61100500D03*
%TD*%
%TO.C,KiKit_MB_13_4*%
X110000000Y-32900500D03*
%TD*%
%TO.C,KiKit_MB_106_2*%
X173000000Y-79100500D03*
%TD*%
D11*
%TO.C,H1*%
X119500000Y-71000500D03*
D12*
X119500000Y-71000500D03*
%TD*%
D10*
%TO.C,KiKit_MB_167_4*%
X190000000Y-104900500D03*
%TD*%
%TO.C,KiKit_MB_72_1*%
X190000000Y-61100500D03*
%TD*%
D13*
%TO.C,D1*%
X123500000Y-102025500D03*
X123500000Y-99975500D03*
%TD*%
D11*
%TO.C,H2*%
X161500000Y-101000500D03*
D12*
X161500000Y-101000500D03*
%TD*%
D10*
%TO.C,KiKit_MB_70_4*%
X171000000Y-61100500D03*
%TD*%
%TO.C,KiKit_MB_64_1*%
X126000000Y-61100500D03*
%TD*%
D11*
%TO.C,H1*%
X103500000Y-77000500D03*
D12*
X103500000Y-77000500D03*
%TD*%
D10*
%TO.C,KiKit_MB_106_1*%
X174000000Y-79100500D03*
%TD*%
D11*
%TO.C,H1*%
X167500000Y-35000500D03*
D12*
X167500000Y-35000500D03*
%TD*%
D10*
%TO.C,KiKit_MB_45_4*%
X174000000Y-44900500D03*
%TD*%
%TO.C,KiKit_MB_162_1*%
X142000000Y-109100500D03*
%TD*%
%TO.C,KiKit_MB_114_4*%
X139000000Y-85100500D03*
%TD*%
%TO.C,KiKit_MB_142_2*%
X173000000Y-97100500D03*
%TD*%
%TO.C,KiKit_MB_20_2*%
X157000000Y-37100500D03*
%TD*%
D14*
%TO.C,R1*%
X125500000Y-72000500D03*
X125500000Y-70000500D03*
%TD*%
D10*
%TO.C,KiKit_MB_24_2*%
X189000000Y-37100500D03*
%TD*%
%TO.C,KiKit_MB_72_4*%
X187000000Y-61100500D03*
%TD*%
%TO.C,KiKit_MB_61_4*%
X110000000Y-56900500D03*
%TD*%
%TO.C,KiKit_MB_114_1*%
X142000000Y-85100500D03*
%TD*%
%TO.C,KiKit_MB_134_2*%
X109000000Y-97100500D03*
%TD*%
%TO.C,KiKit_MB_166_2*%
X173000000Y-109100500D03*
%TD*%
%TO.C,KiKit_MB_111_1*%
X123000000Y-80900500D03*
%TD*%
%TO.C,KiKit_MB_16_3*%
X124000000Y-37100500D03*
%TD*%
%TO.C,KiKit_MB_162_2*%
X141000000Y-109100500D03*
%TD*%
%TO.C,KiKit_MB_167_2*%
X188000000Y-104900500D03*
%TD*%
%TO.C,KiKit_MB_55_1*%
X155000000Y-50900500D03*
%TD*%
D11*
%TO.C,H2*%
X193500000Y-101000500D03*
D12*
X193500000Y-101000500D03*
%TD*%
D10*
%TO.C,KiKit_MB_62_4*%
X107000000Y-61100500D03*
%TD*%
D13*
%TO.C,D1*%
X187500000Y-66025500D03*
X187500000Y-63975500D03*
%TD*%
D11*
%TO.C,H1*%
X167500000Y-101000500D03*
D12*
X167500000Y-101000500D03*
%TD*%
D11*
%TO.C,H2*%
X113500000Y-101000500D03*
D12*
X113500000Y-101000500D03*
%TD*%
D10*
%TO.C,KiKit_MB_41_3*%
X141000000Y-44900500D03*
%TD*%
%TO.C,KiKit_MB_60_3*%
X188000000Y-55100500D03*
%TD*%
D14*
%TO.C,R1*%
X189500000Y-30000500D03*
X189500000Y-28000500D03*
%TD*%
%TO.C,R1*%
X125500000Y-84000500D03*
X125500000Y-82000500D03*
%TD*%
D10*
%TO.C,KiKit_MB_133_1*%
X107000000Y-92900500D03*
%TD*%
%TO.C,KiKit_MB_18_3*%
X140000000Y-37100500D03*
%TD*%
%TO.C,KiKit_MB_105_2*%
X172000000Y-74900500D03*
%TD*%
D13*
%TO.C,D1*%
X123500000Y-36025500D03*
X123500000Y-33975500D03*
%TD*%
D14*
%TO.C,R1*%
X189500000Y-66000500D03*
X189500000Y-64000500D03*
%TD*%
D11*
%TO.C,H2*%
X145500000Y-41000500D03*
D12*
X145500000Y-41000500D03*
%TD*%
D10*
%TO.C,KiKit_MB_131_1*%
X187000000Y-86900500D03*
%TD*%
D11*
%TO.C,H1*%
X135500000Y-47000500D03*
D12*
X135500000Y-47000500D03*
%TD*%
D14*
%TO.C,R1*%
X141500000Y-102000500D03*
X141500000Y-100000500D03*
%TD*%
D10*
%TO.C,KiKit_MB_65_2*%
X140000000Y-56900500D03*
%TD*%
%TO.C,KiKit_MB_90_4*%
X139000000Y-73100500D03*
%TD*%
D14*
%TO.C,R1*%
X189500000Y-102000500D03*
X189500000Y-100000500D03*
%TD*%
D10*
%TO.C,KiKit_MB_60_1*%
X190000000Y-55100500D03*
%TD*%
%TO.C,KiKit_MB_35_2*%
X188000000Y-38900500D03*
%TD*%
D13*
%TO.C,D1*%
X123500000Y-78025500D03*
X123500000Y-75975500D03*
%TD*%
D10*
%TO.C,KiKit_MB_168_2*%
X189000000Y-109100500D03*
%TD*%
%TO.C,KiKit_MB_116_2*%
X157000000Y-85100500D03*
%TD*%
%TO.C,KiKit_MB_41_4*%
X142000000Y-44900500D03*
%TD*%
%TO.C,KiKit_MB_96_1*%
X190000000Y-73100500D03*
%TD*%
D11*
%TO.C,H1*%
X183500000Y-71000500D03*
D12*
X183500000Y-71000500D03*
%TD*%
D10*
%TO.C,KiKit_MB_2_1*%
X110000000Y-31100500D03*
%TD*%
%TO.C,KiKit_MB_122_4*%
X107000000Y-91100500D03*
%TD*%
D14*
%TO.C,R1*%
X141500000Y-36000500D03*
X141500000Y-34000500D03*
%TD*%
%TO.C,R1*%
X125500000Y-36000500D03*
X125500000Y-34000500D03*
%TD*%
%TO.C,R1*%
X141500000Y-72000500D03*
X141500000Y-70000500D03*
%TD*%
D10*
%TO.C,KiKit_MB_139_2*%
X156000000Y-92900500D03*
%TD*%
%TO.C,KiKit_MB_121_1*%
X107000000Y-86900500D03*
%TD*%
%TO.C,KiKit_MB_77_2*%
X140000000Y-62900500D03*
%TD*%
%TO.C,KiKit_MB_34_2*%
X173000000Y-43100500D03*
%TD*%
%TO.C,KiKit_MB_57_1*%
X171000000Y-50900500D03*
%TD*%
%TO.C,KiKit_MB_19_4*%
X158000000Y-32900500D03*
%TD*%
D11*
%TO.C,H1*%
X151500000Y-35000500D03*
D12*
X151500000Y-35000500D03*
%TD*%
D10*
%TO.C,KiKit_MB_134_1*%
X110000000Y-97100500D03*
%TD*%
%TO.C,KiKit_MB_45_1*%
X171000000Y-44900500D03*
%TD*%
%TO.C,KiKit_MB_122_2*%
X109000000Y-91100500D03*
%TD*%
%TO.C,KiKit_MB_108_3*%
X188000000Y-79100500D03*
%TD*%
D11*
%TO.C,H1*%
X183500000Y-65000500D03*
D12*
X183500000Y-65000500D03*
%TD*%
D11*
%TO.C,H1*%
X167500000Y-29000500D03*
D12*
X167500000Y-29000500D03*
%TD*%
D10*
%TO.C,KiKit_MB_19_2*%
X156000000Y-32900500D03*
%TD*%
D14*
%TO.C,R1*%
X173500000Y-42000500D03*
X173500000Y-40000500D03*
%TD*%
D10*
%TO.C,KiKit_MB_109_1*%
X107000000Y-80900500D03*
%TD*%
%TO.C,KiKit_MB_160_2*%
X125000000Y-109100500D03*
%TD*%
%TO.C,KiKit_MB_159_2*%
X124000000Y-104900500D03*
%TD*%
%TO.C,KiKit_MB_161_3*%
X141000000Y-104900500D03*
%TD*%
%TO.C,KiKit_MB_161_2*%
X140000000Y-104900500D03*
%TD*%
%TO.C,KiKit_MB_97_3*%
X109000000Y-74900500D03*
%TD*%
D11*
%TO.C,H2*%
X113500000Y-41000500D03*
D12*
X113500000Y-41000500D03*
%TD*%
D10*
%TO.C,KiKit_MB_49_1*%
X107000000Y-50900500D03*
%TD*%
%TO.C,KiKit_MB_95_1*%
X187000000Y-68900500D03*
%TD*%
D11*
%TO.C,H1*%
X135500000Y-89000500D03*
D12*
X135500000Y-89000500D03*
%TD*%
D10*
%TO.C,KiKit_MB_62_3*%
X108000000Y-61100500D03*
%TD*%
%TO.C,KiKit_MB_52_4*%
X123000000Y-55100500D03*
%TD*%
D13*
%TO.C,D1*%
X123500000Y-108025500D03*
X123500000Y-105975500D03*
%TD*%
D14*
%TO.C,R1*%
X109500000Y-54000500D03*
X109500000Y-52000500D03*
%TD*%
D10*
%TO.C,KiKit_MB_148_2*%
X125000000Y-103100500D03*
%TD*%
D11*
%TO.C,H2*%
X113500000Y-35000500D03*
D12*
X113500000Y-35000500D03*
%TD*%
D10*
%TO.C,KiKit_MB_2_4*%
X107000000Y-31100500D03*
%TD*%
D11*
%TO.C,H2*%
X145500000Y-95000500D03*
D12*
X145500000Y-95000500D03*
%TD*%
D13*
%TO.C,D1*%
X139500000Y-30025500D03*
X139500000Y-27975500D03*
%TD*%
D10*
%TO.C,KiKit_MB_149_1*%
X139000000Y-98900500D03*
%TD*%
%TO.C,KiKit_MB_143_4*%
X190000000Y-92900500D03*
%TD*%
%TO.C,KiKit_MB_58_4*%
X171000000Y-55100500D03*
%TD*%
%TO.C,KiKit_MB_118_2*%
X173000000Y-85100500D03*
%TD*%
%TO.C,KiKit_MB_163_1*%
X155000000Y-104900500D03*
%TD*%
%TO.C,KiKit_MB_22_1*%
X174000000Y-37100500D03*
%TD*%
%TO.C,KiKit_MB_112_4*%
X123000000Y-85100500D03*
%TD*%
D11*
%TO.C,H1*%
X183500000Y-29000500D03*
D12*
X183500000Y-29000500D03*
%TD*%
D10*
%TO.C,KiKit_MB_17_3*%
X141000000Y-32900500D03*
%TD*%
%TO.C,KiKit_MB_101_2*%
X140000000Y-74900500D03*
%TD*%
%TO.C,KiKit_MB_96_2*%
X189000000Y-73100500D03*
%TD*%
D11*
%TO.C,H1*%
X119500000Y-65000500D03*
D12*
X119500000Y-65000500D03*
%TD*%
D10*
%TO.C,KiKit_MB_148_4*%
X123000000Y-103100500D03*
%TD*%
D14*
%TO.C,R1*%
X125500000Y-66000500D03*
X125500000Y-64000500D03*
%TD*%
D11*
%TO.C,H1*%
X183500000Y-95000500D03*
D12*
X183500000Y-95000500D03*
%TD*%
D10*
%TO.C,KiKit_MB_89_1*%
X139000000Y-68900500D03*
%TD*%
%TO.C,KiKit_MB_133_4*%
X110000000Y-92900500D03*
%TD*%
%TO.C,KiKit_MB_28_3*%
X124000000Y-43100500D03*
%TD*%
%TO.C,KiKit_MB_14_3*%
X108000000Y-37100500D03*
%TD*%
%TO.C,KiKit_MB_8_3*%
X156000000Y-31100500D03*
%TD*%
%TO.C,KiKit_MB_166_3*%
X172000000Y-109100500D03*
%TD*%
%TO.C,KiKit_MB_47_4*%
X190000000Y-44900500D03*
%TD*%
D11*
%TO.C,H2*%
X129500000Y-71000500D03*
D12*
X129500000Y-71000500D03*
%TD*%
D14*
%TO.C,R1*%
X141500000Y-96000500D03*
X141500000Y-94000500D03*
%TD*%
D10*
%TO.C,KiKit_MB_79_1*%
X155000000Y-62900500D03*
%TD*%
D11*
%TO.C,H2*%
X113500000Y-29000500D03*
D12*
X113500000Y-29000500D03*
%TD*%
D14*
%TO.C,R1*%
X125500000Y-102000500D03*
X125500000Y-100000500D03*
%TD*%
D10*
%TO.C,KiKit_MB_11_3*%
X189000000Y-26900500D03*
%TD*%
%TO.C,KiKit_MB_141_3*%
X173000000Y-92900500D03*
%TD*%
%TO.C,KiKit_MB_123_4*%
X126000000Y-86900500D03*
%TD*%
D11*
%TO.C,H2*%
X129500000Y-47000500D03*
D12*
X129500000Y-47000500D03*
%TD*%
D10*
%TO.C,KiKit_MB_80_4*%
X155000000Y-67100500D03*
%TD*%
D11*
%TO.C,H1*%
X103500000Y-101000500D03*
D12*
X103500000Y-101000500D03*
%TD*%
D14*
%TO.C,R1*%
X157500000Y-48000500D03*
X157500000Y-46000500D03*
%TD*%
D10*
%TO.C,KiKit_MB_153_1*%
X171000000Y-98900500D03*
%TD*%
%TO.C,KiKit_MB_87_4*%
X126000000Y-68900500D03*
%TD*%
%TO.C,KiKit_MB_26_4*%
X107000000Y-43100500D03*
%TD*%
D11*
%TO.C,H2*%
X113500000Y-89000500D03*
D12*
X113500000Y-89000500D03*
%TD*%
D10*
%TO.C,KiKit_MB_72_2*%
X189000000Y-61100500D03*
%TD*%
D11*
%TO.C,H1*%
X119500000Y-101000500D03*
D12*
X119500000Y-101000500D03*
%TD*%
D10*
%TO.C,KiKit_MB_129_4*%
X174000000Y-86900500D03*
%TD*%
D11*
%TO.C,H1*%
X167500000Y-59000500D03*
D12*
X167500000Y-59000500D03*
%TD*%
D10*
%TO.C,KiKit_MB_47_2*%
X188000000Y-44900500D03*
%TD*%
%TO.C,KiKit_MB_63_1*%
X123000000Y-56900500D03*
%TD*%
%TO.C,KiKit_MB_50_2*%
X109000000Y-55100500D03*
%TD*%
%TO.C,KiKit_MB_15_2*%
X124000000Y-32900500D03*
%TD*%
D11*
%TO.C,H2*%
X113500000Y-95000500D03*
D12*
X113500000Y-95000500D03*
%TD*%
D13*
%TO.C,D1*%
X187500000Y-90025500D03*
X187500000Y-87975500D03*
%TD*%
%TO.C,D1*%
X155500000Y-54025500D03*
X155500000Y-51975500D03*
%TD*%
D10*
%TO.C,KiKit_MB_70_1*%
X174000000Y-61100500D03*
%TD*%
%TO.C,KiKit_MB_69_2*%
X172000000Y-56900500D03*
%TD*%
%TO.C,KiKit_MB_119_1*%
X187000000Y-80900500D03*
%TD*%
D11*
%TO.C,H2*%
X129500000Y-35000500D03*
D12*
X129500000Y-35000500D03*
%TD*%
D14*
%TO.C,R1*%
X157500000Y-36000500D03*
X157500000Y-34000500D03*
%TD*%
D13*
%TO.C,D1*%
X187500000Y-102025500D03*
X187500000Y-99975500D03*
%TD*%
D10*
%TO.C,KiKit_MB_39_4*%
X126000000Y-44900500D03*
%TD*%
D11*
%TO.C,H2*%
X113500000Y-65000500D03*
D12*
X113500000Y-65000500D03*
%TD*%
D10*
%TO.C,KiKit_MB_141_1*%
X171000000Y-92900500D03*
%TD*%
D14*
%TO.C,R1*%
X189500000Y-72000500D03*
X189500000Y-70000500D03*
%TD*%
D10*
%TO.C,KiKit_MB_114_3*%
X140000000Y-85100500D03*
%TD*%
%TO.C,KiKit_MB_102_4*%
X139000000Y-79100500D03*
%TD*%
D13*
%TO.C,D1*%
X107500000Y-30025500D03*
X107500000Y-27975500D03*
%TD*%
D10*
%TO.C,KiKit_MB_158_1*%
X110000000Y-109100500D03*
%TD*%
%TO.C,KiKit_MB_2_3*%
X108000000Y-31100500D03*
%TD*%
%TO.C,KiKit_MB_163_2*%
X156000000Y-104900500D03*
%TD*%
%TO.C,KiKit_MB_102_1*%
X142000000Y-79100500D03*
%TD*%
%TO.C,KiKit_MB_1_1*%
X107000000Y-26900500D03*
%TD*%
D11*
%TO.C,H2*%
X161500000Y-65000500D03*
D12*
X161500000Y-65000500D03*
%TD*%
D10*
%TO.C,KiKit_MB_131_2*%
X188000000Y-86900500D03*
%TD*%
%TO.C,KiKit_MB_38_1*%
X110000000Y-49100500D03*
%TD*%
%TO.C,KiKit_MB_115_4*%
X158000000Y-80900500D03*
%TD*%
%TO.C,KiKit_MB_24_3*%
X188000000Y-37100500D03*
%TD*%
%TO.C,KiKit_MB_39_3*%
X125000000Y-44900500D03*
%TD*%
D13*
%TO.C,D1*%
X139500000Y-96025500D03*
X139500000Y-93975500D03*
%TD*%
D11*
%TO.C,H2*%
X193500000Y-47000500D03*
D12*
X193500000Y-47000500D03*
%TD*%
D13*
%TO.C,D1*%
X171500000Y-30025500D03*
X171500000Y-27975500D03*
%TD*%
D11*
%TO.C,H2*%
X161500000Y-59000500D03*
D12*
X161500000Y-59000500D03*
%TD*%
D10*
%TO.C,KiKit_MB_89_4*%
X142000000Y-68900500D03*
%TD*%
%TO.C,KiKit_MB_141_2*%
X172000000Y-92900500D03*
%TD*%
%TO.C,KiKit_MB_108_4*%
X187000000Y-79100500D03*
%TD*%
%TO.C,KiKit_MB_6_2*%
X141000000Y-31100500D03*
%TD*%
D11*
%TO.C,H2*%
X145500000Y-77000500D03*
D12*
X145500000Y-77000500D03*
%TD*%
D11*
%TO.C,H2*%
X113500000Y-83000500D03*
D12*
X113500000Y-83000500D03*
%TD*%
D13*
%TO.C,D1*%
X171500000Y-96025500D03*
X171500000Y-93975500D03*
%TD*%
D11*
%TO.C,H2*%
X145500000Y-59000500D03*
D12*
X145500000Y-59000500D03*
%TD*%
D10*
%TO.C,KiKit_MB_30_3*%
X140000000Y-43100500D03*
%TD*%
%TO.C,KiKit_MB_164_3*%
X156000000Y-109100500D03*
%TD*%
%TO.C,KiKit_MB_31_1*%
X155000000Y-38900500D03*
%TD*%
D14*
%TO.C,R1*%
X157500000Y-66000500D03*
X157500000Y-64000500D03*
%TD*%
D11*
%TO.C,H1*%
X103500000Y-89000500D03*
D12*
X103500000Y-89000500D03*
%TD*%
D13*
%TO.C,D1*%
X171500000Y-54025500D03*
X171500000Y-51975500D03*
%TD*%
D10*
%TO.C,KiKit_MB_36_1*%
X190000000Y-43100500D03*
%TD*%
D14*
%TO.C,R1*%
X109500000Y-60000500D03*
X109500000Y-58000500D03*
%TD*%
D10*
%TO.C,KiKit_MB_53_3*%
X141000000Y-50900500D03*
%TD*%
D11*
%TO.C,H1*%
X183500000Y-89000500D03*
D12*
X183500000Y-89000500D03*
%TD*%
D10*
%TO.C,KiKit_MB_21_2*%
X172000000Y-32900500D03*
%TD*%
%TO.C,KiKit_MB_51_1*%
X123000000Y-50900500D03*
%TD*%
%TO.C,KiKit_MB_71_4*%
X190000000Y-56900500D03*
%TD*%
%TO.C,KiKit_MB_140_2*%
X157000000Y-97100500D03*
%TD*%
D14*
%TO.C,R1*%
X157500000Y-60000500D03*
X157500000Y-58000500D03*
%TD*%
D10*
%TO.C,KiKit_MB_156_1*%
X190000000Y-103100500D03*
%TD*%
%TO.C,KiKit_MB_10_4*%
X171000000Y-31100500D03*
%TD*%
%TO.C,KiKit_MB_41_2*%
X140000000Y-44900500D03*
%TD*%
%TO.C,KiKit_MB_56_4*%
X155000000Y-55100500D03*
%TD*%
%TO.C,KiKit_MB_161_1*%
X139000000Y-104900500D03*
%TD*%
D11*
%TO.C,H1*%
X119500000Y-83000500D03*
D12*
X119500000Y-83000500D03*
%TD*%
D13*
%TO.C,D1*%
X139500000Y-108025500D03*
X139500000Y-105975500D03*
%TD*%
D10*
%TO.C,KiKit_MB_149_2*%
X140000000Y-98900500D03*
%TD*%
%TO.C,KiKit_MB_124_2*%
X125000000Y-91100500D03*
%TD*%
%TO.C,KiKit_MB_97_4*%
X110000000Y-74900500D03*
%TD*%
D11*
%TO.C,H2*%
X193500000Y-107000500D03*
D12*
X193500000Y-107000500D03*
%TD*%
D10*
%TO.C,KiKit_MB_89_2*%
X140000000Y-68900500D03*
%TD*%
D14*
%TO.C,R1*%
X109500000Y-96000500D03*
X109500000Y-94000500D03*
%TD*%
D10*
%TO.C,KiKit_MB_12_2*%
X189000000Y-31100500D03*
%TD*%
%TO.C,KiKit_MB_136_2*%
X125000000Y-97100500D03*
%TD*%
%TO.C,KiKit_MB_12_4*%
X187000000Y-31100500D03*
%TD*%
%TO.C,KiKit_MB_58_3*%
X172000000Y-55100500D03*
%TD*%
%TO.C,KiKit_MB_112_1*%
X126000000Y-85100500D03*
%TD*%
D13*
%TO.C,D1*%
X171500000Y-66025500D03*
X171500000Y-63975500D03*
%TD*%
D11*
%TO.C,H1*%
X183500000Y-59000500D03*
D12*
X183500000Y-59000500D03*
%TD*%
D10*
%TO.C,KiKit_MB_7_2*%
X156000000Y-26900500D03*
%TD*%
D13*
%TO.C,D1*%
X187500000Y-54025500D03*
X187500000Y-51975500D03*
%TD*%
D10*
%TO.C,KiKit_MB_38_3*%
X108000000Y-49100500D03*
%TD*%
%TO.C,KiKit_MB_87_1*%
X123000000Y-68900500D03*
%TD*%
%TO.C,KiKit_MB_113_3*%
X141000000Y-80900500D03*
%TD*%
%TO.C,KiKit_MB_136_3*%
X124000000Y-97100500D03*
%TD*%
D11*
%TO.C,H2*%
X129500000Y-89000500D03*
D12*
X129500000Y-89000500D03*
%TD*%
D10*
%TO.C,KiKit_MB_63_4*%
X126000000Y-56900500D03*
%TD*%
D11*
%TO.C,H1*%
X167500000Y-95000500D03*
D12*
X167500000Y-95000500D03*
%TD*%
D11*
%TO.C,H1*%
X151500000Y-65000500D03*
D12*
X151500000Y-65000500D03*
%TD*%
D13*
%TO.C,D1*%
X139500000Y-84025500D03*
X139500000Y-81975500D03*
%TD*%
D10*
%TO.C,KiKit_MB_26_1*%
X110000000Y-43100500D03*
%TD*%
%TO.C,KiKit_MB_153_2*%
X172000000Y-98900500D03*
%TD*%
%TO.C,KiKit_MB_118_1*%
X174000000Y-85100500D03*
%TD*%
D13*
%TO.C,D1*%
X155500000Y-84025500D03*
X155500000Y-81975500D03*
%TD*%
D10*
%TO.C,KiKit_MB_5_3*%
X141000000Y-26900500D03*
%TD*%
%TO.C,KiKit_MB_43_3*%
X157000000Y-44900500D03*
%TD*%
D13*
%TO.C,D1*%
X155500000Y-66025500D03*
X155500000Y-63975500D03*
%TD*%
D10*
%TO.C,KiKit_MB_99_1*%
X123000000Y-74900500D03*
%TD*%
%TO.C,KiKit_MB_8_2*%
X157000000Y-31100500D03*
%TD*%
D14*
%TO.C,R1*%
X109500000Y-48000500D03*
X109500000Y-46000500D03*
%TD*%
D11*
%TO.C,H2*%
X145500000Y-89000500D03*
D12*
X145500000Y-89000500D03*
%TD*%
D13*
%TO.C,D1*%
X155500000Y-42025500D03*
X155500000Y-39975500D03*
%TD*%
D10*
%TO.C,KiKit_MB_145_1*%
X107000000Y-98900500D03*
%TD*%
D11*
%TO.C,H1*%
X135500000Y-35000500D03*
D12*
X135500000Y-35000500D03*
%TD*%
D10*
%TO.C,KiKit_MB_42_3*%
X140000000Y-49100500D03*
%TD*%
%TO.C,KiKit_MB_146_4*%
X107000000Y-103100500D03*
%TD*%
%TO.C,KiKit_MB_28_2*%
X125000000Y-43100500D03*
%TD*%
%TO.C,KiKit_MB_134_3*%
X108000000Y-97100500D03*
%TD*%
%TO.C,KiKit_MB_120_4*%
X187000000Y-85100500D03*
%TD*%
%TO.C,KiKit_MB_116_1*%
X158000000Y-85100500D03*
%TD*%
%TO.C,KiKit_MB_128_2*%
X157000000Y-91100500D03*
%TD*%
%TO.C,KiKit_MB_32_4*%
X155000000Y-43100500D03*
%TD*%
D11*
%TO.C,H2*%
X193500000Y-65000500D03*
D12*
X193500000Y-65000500D03*
%TD*%
D10*
%TO.C,KiKit_MB_4_3*%
X124000000Y-31100500D03*
%TD*%
%TO.C,KiKit_MB_135_4*%
X126000000Y-92900500D03*
%TD*%
%TO.C,KiKit_MB_102_3*%
X140000000Y-79100500D03*
%TD*%
%TO.C,KiKit_MB_56_2*%
X157000000Y-55100500D03*
%TD*%
D14*
%TO.C,R1*%
X157500000Y-96000500D03*
X157500000Y-94000500D03*
%TD*%
D10*
%TO.C,KiKit_MB_9_1*%
X171000000Y-26900500D03*
%TD*%
%TO.C,KiKit_MB_23_1*%
X187000000Y-32900500D03*
%TD*%
%TO.C,KiKit_MB_123_2*%
X124000000Y-86900500D03*
%TD*%
%TO.C,KiKit_MB_48_2*%
X189000000Y-49100500D03*
%TD*%
%TO.C,KiKit_MB_73_4*%
X110000000Y-62900500D03*
%TD*%
%TO.C,KiKit_MB_66_4*%
X139000000Y-61100500D03*
%TD*%
D11*
%TO.C,H1*%
X103500000Y-107000500D03*
D12*
X103500000Y-107000500D03*
%TD*%
D10*
%TO.C,KiKit_MB_29_2*%
X140000000Y-38900500D03*
%TD*%
%TO.C,KiKit_MB_81_2*%
X172000000Y-62900500D03*
%TD*%
%TO.C,KiKit_MB_108_1*%
X190000000Y-79100500D03*
%TD*%
D13*
%TO.C,D1*%
X187500000Y-108025500D03*
X187500000Y-105975500D03*
%TD*%
D10*
%TO.C,KiKit_MB_25_3*%
X109000000Y-38900500D03*
%TD*%
%TO.C,KiKit_MB_35_1*%
X187000000Y-38900500D03*
%TD*%
%TO.C,KiKit_MB_139_3*%
X157000000Y-92900500D03*
%TD*%
%TO.C,KiKit_MB_109_4*%
X110000000Y-80900500D03*
%TD*%
%TO.C,KiKit_MB_139_1*%
X155000000Y-92900500D03*
%TD*%
D13*
%TO.C,D1*%
X187500000Y-78025500D03*
X187500000Y-75975500D03*
%TD*%
D10*
%TO.C,KiKit_MB_27_4*%
X126000000Y-38900500D03*
%TD*%
%TO.C,KiKit_MB_154_4*%
X171000000Y-103100500D03*
%TD*%
%TO.C,KiKit_MB_159_4*%
X126000000Y-104900500D03*
%TD*%
D11*
%TO.C,H1*%
X151500000Y-41000500D03*
D12*
X151500000Y-41000500D03*
%TD*%
D10*
%TO.C,KiKit_MB_31_4*%
X158000000Y-38900500D03*
%TD*%
%TO.C,KiKit_MB_21_1*%
X171000000Y-32900500D03*
%TD*%
D11*
%TO.C,H2*%
X145500000Y-35000500D03*
D12*
X145500000Y-35000500D03*
%TD*%
D11*
%TO.C,H1*%
X103500000Y-35000500D03*
D12*
X103500000Y-35000500D03*
%TD*%
D10*
%TO.C,KiKit_MB_54_4*%
X139000000Y-55100500D03*
%TD*%
%TO.C,KiKit_MB_9_2*%
X172000000Y-26900500D03*
%TD*%
%TO.C,KiKit_MB_24_4*%
X187000000Y-37100500D03*
%TD*%
D11*
%TO.C,H2*%
X113500000Y-59000500D03*
D12*
X113500000Y-59000500D03*
%TD*%
D10*
%TO.C,KiKit_MB_55_3*%
X157000000Y-50900500D03*
%TD*%
%TO.C,KiKit_MB_59_2*%
X188000000Y-50900500D03*
%TD*%
D11*
%TO.C,H1*%
X119500000Y-59000500D03*
D12*
X119500000Y-59000500D03*
%TD*%
D11*
%TO.C,H1*%
X119500000Y-77000500D03*
D12*
X119500000Y-77000500D03*
%TD*%
D10*
%TO.C,KiKit_MB_23_4*%
X190000000Y-32900500D03*
%TD*%
%TO.C,KiKit_MB_88_2*%
X125000000Y-73100500D03*
%TD*%
%TO.C,KiKit_MB_152_1*%
X158000000Y-103100500D03*
%TD*%
%TO.C,KiKit_MB_125_1*%
X139000000Y-86900500D03*
%TD*%
D11*
%TO.C,H1*%
X103500000Y-65000500D03*
D12*
X103500000Y-65000500D03*
%TD*%
D10*
%TO.C,KiKit_MB_110_4*%
X107000000Y-85100500D03*
%TD*%
D13*
%TO.C,D1*%
X107500000Y-42025500D03*
X107500000Y-39975500D03*
%TD*%
D11*
%TO.C,H2*%
X161500000Y-29000500D03*
D12*
X161500000Y-29000500D03*
%TD*%
D13*
%TO.C,D1*%
X155500000Y-36025500D03*
X155500000Y-33975500D03*
%TD*%
D10*
%TO.C,KiKit_MB_51_3*%
X125000000Y-50900500D03*
%TD*%
%TO.C,KiKit_MB_128_3*%
X156000000Y-91100500D03*
%TD*%
%TO.C,KiKit_MB_30_2*%
X141000000Y-43100500D03*
%TD*%
%TO.C,KiKit_MB_47_3*%
X189000000Y-44900500D03*
%TD*%
%TO.C,KiKit_MB_127_3*%
X157000000Y-86900500D03*
%TD*%
%TO.C,KiKit_MB_37_4*%
X110000000Y-44900500D03*
%TD*%
D14*
%TO.C,R1*%
X173500000Y-60000500D03*
X173500000Y-58000500D03*
%TD*%
%TO.C,R1*%
X109500000Y-30000500D03*
X109500000Y-28000500D03*
%TD*%
D11*
%TO.C,H2*%
X129500000Y-65000500D03*
D12*
X129500000Y-65000500D03*
%TD*%
D14*
%TO.C,R1*%
X173500000Y-72000500D03*
X173500000Y-70000500D03*
%TD*%
D13*
%TO.C,D1*%
X107500000Y-90025500D03*
X107500000Y-87975500D03*
%TD*%
D10*
%TO.C,KiKit_MB_39_1*%
X123000000Y-44900500D03*
%TD*%
%TO.C,KiKit_MB_44_3*%
X156000000Y-49100500D03*
%TD*%
%TO.C,KiKit_MB_88_1*%
X126000000Y-73100500D03*
%TD*%
%TO.C,KiKit_MB_5_1*%
X139000000Y-26900500D03*
%TD*%
%TO.C,KiKit_MB_99_2*%
X124000000Y-74900500D03*
%TD*%
%TO.C,KiKit_MB_21_4*%
X174000000Y-32900500D03*
%TD*%
%TO.C,KiKit_MB_55_4*%
X158000000Y-50900500D03*
%TD*%
D13*
%TO.C,D1*%
X123500000Y-84025500D03*
X123500000Y-81975500D03*
%TD*%
D10*
%TO.C,KiKit_MB_54_1*%
X142000000Y-55100500D03*
%TD*%
D11*
%TO.C,H2*%
X161500000Y-71000500D03*
D12*
X161500000Y-71000500D03*
%TD*%
M02*
