M48
; DRILL file KiCad 10.0.0 date 2026-03-26T01:58:44
; FORMAT={-:-/ absolute / metric / decimal}
; #@! TF.CreationDate,2026-03-26T01:58:44+01:00
; #@! TF.GenerationSoftware,Kicad,Pcbnew,10.0.0
; #@! TF.FileFunction,Plated,1,2,PTH
FMAT,2
METRIC
; #@! TA.AperFunction,Plated,PTH,ComponentDrill
T1C2.200
%
G90
G05
T1
X103.5Y-29.0
X103.5Y-35.0
X103.5Y-41.0
X103.5Y-47.0
X103.5Y-53.0
X103.5Y-59.0
X103.5Y-65.001
X103.5Y-71.001
X103.5Y-77.001
X103.5Y-83.001
X103.5Y-89.001
X103.5Y-95.001
X103.5Y-101.001
X103.5Y-107.0
X113.5Y-29.0
X113.5Y-35.0
X113.5Y-41.0
X113.5Y-47.0
X113.5Y-53.0
X113.5Y-59.0
X113.5Y-65.001
X113.5Y-71.001
X113.5Y-77.001
X113.5Y-83.001
X113.5Y-89.001
X113.5Y-95.001
X113.5Y-101.001
X113.5Y-107.0
X119.5Y-29.0
X119.5Y-35.0
X119.5Y-41.0
X119.5Y-47.0
X119.5Y-53.0
X119.5Y-59.0
X119.5Y-65.001
X119.5Y-71.001
X119.5Y-77.001
X119.5Y-83.001
X119.5Y-89.001
X119.5Y-95.001
X119.5Y-101.001
X119.5Y-107.0
X129.5Y-29.0
X129.5Y-35.0
X129.5Y-41.0
X129.5Y-47.0
X129.5Y-53.0
X129.5Y-59.0
X129.5Y-65.001
X129.5Y-71.001
X129.5Y-77.001
X129.5Y-83.001
X129.5Y-89.001
X129.5Y-95.001
X129.5Y-101.001
X129.5Y-107.0
X135.5Y-29.0
X135.5Y-35.0
X135.5Y-41.0
X135.5Y-47.0
X135.5Y-53.0
X135.5Y-59.0
X135.5Y-65.001
X135.5Y-71.001
X135.5Y-77.001
X135.5Y-83.001
X135.5Y-89.001
X135.5Y-95.001
X135.5Y-101.001
X135.5Y-107.0
X145.5Y-29.0
X145.5Y-35.0
X145.5Y-41.0
X145.5Y-47.0
X145.5Y-53.0
X145.5Y-59.0
X145.5Y-65.001
X145.5Y-71.001
X145.5Y-77.001
X145.5Y-83.001
X145.5Y-89.001
X145.5Y-95.001
X145.5Y-101.001
X145.5Y-107.0
X151.5Y-29.0
X151.5Y-35.0
X151.5Y-41.0
X151.5Y-47.0
X151.5Y-53.0
X151.5Y-59.0
X151.5Y-65.001
X151.5Y-71.001
X151.5Y-77.001
X151.5Y-83.001
X151.5Y-89.001
X151.5Y-95.001
X151.5Y-101.001
X151.5Y-107.0
X161.5Y-29.0
X161.5Y-35.0
X161.5Y-41.0
X161.5Y-47.0
X161.5Y-53.0
X161.5Y-59.0
X161.5Y-65.001
X161.5Y-71.001
X161.5Y-77.001
X161.5Y-83.001
X161.5Y-89.001
X161.5Y-95.001
X161.5Y-101.001
X161.5Y-107.0
X167.5Y-29.0
X167.5Y-35.0
X167.5Y-41.0
X167.5Y-47.0
X167.5Y-53.0
X167.5Y-59.0
X167.5Y-65.001
X167.5Y-71.001
X167.5Y-77.001
X167.5Y-83.001
X167.5Y-89.001
X167.5Y-95.001
X167.5Y-101.001
X167.5Y-107.0
X177.5Y-29.0
X177.5Y-35.0
X177.5Y-41.0
X177.5Y-47.0
X177.5Y-53.0
X177.5Y-59.0
X177.5Y-65.001
X177.5Y-71.001
X177.5Y-77.001
X177.5Y-83.001
X177.5Y-89.001
X177.5Y-95.001
X177.5Y-101.001
X177.5Y-107.0
X183.5Y-29.0
X183.5Y-35.0
X183.5Y-41.0
X183.5Y-47.0
X183.5Y-53.0
X183.5Y-59.0
X183.5Y-65.001
X183.5Y-71.001
X183.5Y-77.001
X183.5Y-83.001
X183.5Y-89.001
X183.5Y-95.001
X183.5Y-101.001
X183.5Y-107.0
X193.5Y-29.0
X193.5Y-35.0
X193.5Y-41.0
X193.5Y-47.0
X193.5Y-53.0
X193.5Y-59.0
X193.5Y-65.001
X193.5Y-71.001
X193.5Y-77.001
X193.5Y-83.001
X193.5Y-89.001
X193.5Y-95.001
X193.5Y-101.001
X193.5Y-107.0
M30
