M48
; DRILL file KiCad 10.0.0 date 2026-03-26T01:58:44
; FORMAT={-:-/ absolute / metric / decimal}
; #@! TF.CreationDate,2026-03-26T01:58:44+01:00
; #@! TF.GenerationSoftware,Kicad,Pcbnew,10.0.0
; #@! TF.FileFunction,NonPlated,1,2,NPTH
FMAT,2
METRIC
; #@! TA.AperFunction,NonPlated,NPTH,ComponentDrill
T1C0.500
%
G90
G05
T1
X107.0Y-26.9
X107.0Y-31.101
X107.0Y-32.901
X107.0Y-37.1
X107.0Y-38.901
X107.0Y-43.1
X107.0Y-44.901
X107.0Y-49.1
X107.0Y-50.901
X107.0Y-55.1
X107.0Y-56.901
X107.0Y-61.1
X107.0Y-62.9
X107.0Y-67.1
X107.0Y-68.9
X107.0Y-73.1
X107.0Y-74.9
X107.0Y-79.1
X107.0Y-80.9
X107.0Y-85.1
X107.0Y-86.9
X107.0Y-91.1
X107.0Y-92.9
X107.0Y-97.1
X107.0Y-98.9
X107.0Y-103.1
X107.0Y-104.9
X107.0Y-109.1
X108.0Y-26.9
X108.0Y-31.101
X108.0Y-32.901
X108.0Y-37.1
X108.0Y-38.901
X108.0Y-43.1
X108.0Y-44.901
X108.0Y-49.1
X108.0Y-50.901
X108.0Y-55.1
X108.0Y-56.901
X108.0Y-61.1
X108.0Y-62.9
X108.0Y-67.1
X108.0Y-68.9
X108.0Y-73.1
X108.0Y-74.9
X108.0Y-79.1
X108.0Y-80.9
X108.0Y-85.1
X108.0Y-86.9
X108.0Y-91.1
X108.0Y-92.9
X108.0Y-97.1
X108.0Y-98.9
X108.0Y-103.1
X108.0Y-104.9
X108.0Y-109.1
X109.0Y-26.9
X109.0Y-31.101
X109.0Y-32.901
X109.0Y-37.1
X109.0Y-38.901
X109.0Y-43.1
X109.0Y-44.901
X109.0Y-49.1
X109.0Y-50.901
X109.0Y-55.1
X109.0Y-56.901
X109.0Y-61.1
X109.0Y-62.9
X109.0Y-67.1
X109.0Y-68.9
X109.0Y-73.1
X109.0Y-74.9
X109.0Y-79.1
X109.0Y-80.9
X109.0Y-85.1
X109.0Y-86.9
X109.0Y-91.1
X109.0Y-92.9
X109.0Y-97.1
X109.0Y-98.9
X109.0Y-103.1
X109.0Y-104.9
X109.0Y-109.1
X110.0Y-26.9
X110.0Y-31.101
X110.0Y-32.901
X110.0Y-37.1
X110.0Y-38.901
X110.0Y-43.1
X110.0Y-44.901
X110.0Y-49.1
X110.0Y-50.901
X110.0Y-55.1
X110.0Y-56.901
X110.0Y-61.1
X110.0Y-62.9
X110.0Y-67.1
X110.0Y-68.9
X110.0Y-73.1
X110.0Y-74.9
X110.0Y-79.1
X110.0Y-80.9
X110.0Y-85.1
X110.0Y-86.9
X110.0Y-91.1
X110.0Y-92.9
X110.0Y-97.1
X110.0Y-98.9
X110.0Y-103.1
X110.0Y-104.9
X110.0Y-109.1
X123.0Y-26.9
X123.0Y-31.101
X123.0Y-32.901
X123.0Y-37.1
X123.0Y-38.901
X123.0Y-43.1
X123.0Y-44.901
X123.0Y-49.1
X123.0Y-50.901
X123.0Y-55.1
X123.0Y-56.901
X123.0Y-61.1
X123.0Y-62.9
X123.0Y-67.1
X123.0Y-68.9
X123.0Y-73.1
X123.0Y-74.9
X123.0Y-79.1
X123.0Y-80.9
X123.0Y-85.1
X123.0Y-86.9
X123.0Y-91.1
X123.0Y-92.9
X123.0Y-97.1
X123.0Y-98.9
X123.0Y-103.1
X123.0Y-104.9
X123.0Y-109.1
X124.0Y-26.9
X124.0Y-31.101
X124.0Y-32.901
X124.0Y-37.1
X124.0Y-38.901
X124.0Y-43.1
X124.0Y-44.901
X124.0Y-49.1
X124.0Y-50.901
X124.0Y-55.1
X124.0Y-56.901
X124.0Y-61.1
X124.0Y-62.9
X124.0Y-67.1
X124.0Y-68.9
X124.0Y-73.1
X124.0Y-74.9
X124.0Y-79.1
X124.0Y-80.9
X124.0Y-85.1
X124.0Y-86.9
X124.0Y-91.1
X124.0Y-92.9
X124.0Y-97.1
X124.0Y-98.9
X124.0Y-103.1
X124.0Y-104.9
X124.0Y-109.1
X125.0Y-26.9
X125.0Y-31.101
X125.0Y-32.901
X125.0Y-37.1
X125.0Y-38.901
X125.0Y-43.1
X125.0Y-44.901
X125.0Y-49.1
X125.0Y-50.901
X125.0Y-55.1
X125.0Y-56.901
X125.0Y-61.1
X125.0Y-62.9
X125.0Y-67.1
X125.0Y-68.9
X125.0Y-73.1
X125.0Y-74.9
X125.0Y-79.1
X125.0Y-80.9
X125.0Y-85.1
X125.0Y-86.9
X125.0Y-91.1
X125.0Y-92.9
X125.0Y-97.1
X125.0Y-98.9
X125.0Y-103.1
X125.0Y-104.9
X125.0Y-109.1
X126.0Y-26.9
X126.0Y-31.101
X126.0Y-32.901
X126.0Y-37.1
X126.0Y-38.901
X126.0Y-43.1
X126.0Y-44.901
X126.0Y-49.1
X126.0Y-50.901
X126.0Y-55.1
X126.0Y-56.901
X126.0Y-61.1
X126.0Y-62.9
X126.0Y-67.1
X126.0Y-68.9
X126.0Y-73.1
X126.0Y-74.9
X126.0Y-79.1
X126.0Y-80.9
X126.0Y-85.1
X126.0Y-86.9
X126.0Y-91.1
X126.0Y-92.9
X126.0Y-97.1
X126.0Y-98.9
X126.0Y-103.1
X126.0Y-104.9
X126.0Y-109.1
X139.0Y-26.9
X139.0Y-31.101
X139.0Y-32.901
X139.0Y-37.1
X139.0Y-38.901
X139.0Y-43.1
X139.0Y-44.901
X139.0Y-49.1
X139.0Y-50.901
X139.0Y-55.1
X139.0Y-56.901
X139.0Y-61.1
X139.0Y-62.9
X139.0Y-67.1
X139.0Y-68.9
X139.0Y-73.1
X139.0Y-74.9
X139.0Y-79.1
X139.0Y-80.9
X139.0Y-85.1
X139.0Y-86.9
X139.0Y-91.1
X139.0Y-92.9
X139.0Y-97.1
X139.0Y-98.9
X139.0Y-103.1
X139.0Y-104.9
X139.0Y-109.1
X140.0Y-26.9
X140.0Y-31.101
X140.0Y-32.901
X140.0Y-37.1
X140.0Y-38.901
X140.0Y-43.1
X140.0Y-44.901
X140.0Y-49.1
X140.0Y-50.901
X140.0Y-55.1
X140.0Y-56.901
X140.0Y-61.1
X140.0Y-62.9
X140.0Y-67.1
X140.0Y-68.9
X140.0Y-73.1
X140.0Y-74.9
X140.0Y-79.1
X140.0Y-80.9
X140.0Y-85.1
X140.0Y-86.9
X140.0Y-91.1
X140.0Y-92.9
X140.0Y-97.1
X140.0Y-98.9
X140.0Y-103.1
X140.0Y-104.9
X140.0Y-109.1
X141.0Y-26.9
X141.0Y-31.101
X141.0Y-32.901
X141.0Y-37.1
X141.0Y-38.901
X141.0Y-43.1
X141.0Y-44.901
X141.0Y-49.1
X141.0Y-50.901
X141.0Y-55.1
X141.0Y-56.901
X141.0Y-61.1
X141.0Y-62.9
X141.0Y-67.1
X141.0Y-68.9
X141.0Y-73.1
X141.0Y-74.9
X141.0Y-79.1
X141.0Y-80.9
X141.0Y-85.1
X141.0Y-86.9
X141.0Y-91.1
X141.0Y-92.9
X141.0Y-97.1
X141.0Y-98.9
X141.0Y-103.1
X141.0Y-104.9
X141.0Y-109.1
X142.0Y-26.9
X142.0Y-31.101
X142.0Y-32.901
X142.0Y-37.1
X142.0Y-38.901
X142.0Y-43.1
X142.0Y-44.901
X142.0Y-49.1
X142.0Y-50.901
X142.0Y-55.1
X142.0Y-56.901
X142.0Y-61.1
X142.0Y-62.9
X142.0Y-67.1
X142.0Y-68.9
X142.0Y-73.1
X142.0Y-74.9
X142.0Y-79.1
X142.0Y-80.9
X142.0Y-85.1
X142.0Y-86.9
X142.0Y-91.1
X142.0Y-92.9
X142.0Y-97.1
X142.0Y-98.9
X142.0Y-103.1
X142.0Y-104.9
X142.0Y-109.1
X155.0Y-26.9
X155.0Y-31.101
X155.0Y-32.901
X155.0Y-37.1
X155.0Y-38.901
X155.0Y-43.1
X155.0Y-44.901
X155.0Y-49.1
X155.0Y-50.901
X155.0Y-55.1
X155.0Y-56.901
X155.0Y-61.1
X155.0Y-62.9
X155.0Y-67.1
X155.0Y-68.9
X155.0Y-73.1
X155.0Y-74.9
X155.0Y-79.1
X155.0Y-80.9
X155.0Y-85.1
X155.0Y-86.9
X155.0Y-91.1
X155.0Y-92.9
X155.0Y-97.1
X155.0Y-98.9
X155.0Y-103.1
X155.0Y-104.9
X155.0Y-109.1
X156.0Y-26.9
X156.0Y-31.101
X156.0Y-32.901
X156.0Y-37.1
X156.0Y-38.901
X156.0Y-43.1
X156.0Y-44.901
X156.0Y-49.1
X156.0Y-50.901
X156.0Y-55.1
X156.0Y-56.901
X156.0Y-61.1
X156.0Y-62.9
X156.0Y-67.1
X156.0Y-68.9
X156.0Y-73.1
X156.0Y-74.9
X156.0Y-79.1
X156.0Y-80.9
X156.0Y-85.1
X156.0Y-86.9
X156.0Y-91.1
X156.0Y-92.9
X156.0Y-97.1
X156.0Y-98.9
X156.0Y-103.1
X156.0Y-104.9
X156.0Y-109.1
X157.0Y-26.9
X157.0Y-31.101
X157.0Y-32.901
X157.0Y-37.1
X157.0Y-38.901
X157.0Y-43.1
X157.0Y-44.901
X157.0Y-49.1
X157.0Y-50.901
X157.0Y-55.1
X157.0Y-56.901
X157.0Y-61.1
X157.0Y-62.9
X157.0Y-67.1
X157.0Y-68.9
X157.0Y-73.1
X157.0Y-74.9
X157.0Y-79.1
X157.0Y-80.9
X157.0Y-85.1
X157.0Y-86.9
X157.0Y-91.1
X157.0Y-92.9
X157.0Y-97.1
X157.0Y-98.9
X157.0Y-103.1
X157.0Y-104.9
X157.0Y-109.1
X158.0Y-26.9
X158.0Y-31.101
X158.0Y-32.901
X158.0Y-37.1
X158.0Y-38.901
X158.0Y-43.1
X158.0Y-44.901
X158.0Y-49.1
X158.0Y-50.901
X158.0Y-55.1
X158.0Y-56.901
X158.0Y-61.1
X158.0Y-62.9
X158.0Y-67.1
X158.0Y-68.9
X158.0Y-73.1
X158.0Y-74.9
X158.0Y-79.1
X158.0Y-80.9
X158.0Y-85.1
X158.0Y-86.9
X158.0Y-91.1
X158.0Y-92.9
X158.0Y-97.1
X158.0Y-98.9
X158.0Y-103.1
X158.0Y-104.9
X158.0Y-109.1
X171.0Y-26.9
X171.0Y-31.101
X171.0Y-32.901
X171.0Y-37.1
X171.0Y-38.901
X171.0Y-43.1
X171.0Y-44.901
X171.0Y-49.1
X171.0Y-50.901
X171.0Y-55.1
X171.0Y-56.901
X171.0Y-61.1
X171.0Y-62.9
X171.0Y-67.1
X171.0Y-68.9
X171.0Y-73.1
X171.0Y-74.9
X171.0Y-79.1
X171.0Y-80.9
X171.0Y-85.1
X171.0Y-86.9
X171.0Y-91.1
X171.0Y-92.9
X171.0Y-97.1
X171.0Y-98.9
X171.0Y-103.1
X171.0Y-104.9
X171.0Y-109.1
X172.0Y-26.9
X172.0Y-31.101
X172.0Y-32.901
X172.0Y-37.1
X172.0Y-38.901
X172.0Y-43.1
X172.0Y-44.901
X172.0Y-49.1
X172.0Y-50.901
X172.0Y-55.1
X172.0Y-56.901
X172.0Y-61.1
X172.0Y-62.9
X172.0Y-67.1
X172.0Y-68.9
X172.0Y-73.1
X172.0Y-74.9
X172.0Y-79.1
X172.0Y-80.9
X172.0Y-85.1
X172.0Y-86.9
X172.0Y-91.1
X172.0Y-92.9
X172.0Y-97.1
X172.0Y-98.9
X172.0Y-103.1
X172.0Y-104.9
X172.0Y-109.1
X173.0Y-26.9
X173.0Y-31.101
X173.0Y-32.901
X173.0Y-37.1
X173.0Y-38.901
X173.0Y-43.1
X173.0Y-44.901
X173.0Y-49.1
X173.0Y-50.901
X173.0Y-55.1
X173.0Y-56.901
X173.0Y-61.1
X173.0Y-62.9
X173.0Y-67.1
X173.0Y-68.9
X173.0Y-73.1
X173.0Y-74.9
X173.0Y-79.1
X173.0Y-80.9
X173.0Y-85.1
X173.0Y-86.9
X173.0Y-91.1
X173.0Y-92.9
X173.0Y-97.1
X173.0Y-98.9
X173.0Y-103.1
X173.0Y-104.9
X173.0Y-109.1
X174.0Y-26.9
X174.0Y-31.101
X174.0Y-32.901
X174.0Y-37.1
X174.0Y-38.901
X174.0Y-43.1
X174.0Y-44.901
X174.0Y-49.1
X174.0Y-50.901
X174.0Y-55.1
X174.0Y-56.901
X174.0Y-61.1
X174.0Y-62.9
X174.0Y-67.1
X174.0Y-68.9
X174.0Y-73.1
X174.0Y-74.9
X174.0Y-79.1
X174.0Y-80.9
X174.0Y-85.1
X174.0Y-86.9
X174.0Y-91.1
X174.0Y-92.9
X174.0Y-97.1
X174.0Y-98.9
X174.0Y-103.1
X174.0Y-104.9
X174.0Y-109.1
X187.0Y-26.9
X187.0Y-31.101
X187.0Y-32.901
X187.0Y-37.1
X187.0Y-38.901
X187.0Y-43.1
X187.0Y-44.901
X187.0Y-49.1
X187.0Y-50.901
X187.0Y-55.1
X187.0Y-56.901
X187.0Y-61.1
X187.0Y-62.9
X187.0Y-67.1
X187.0Y-68.9
X187.0Y-73.1
X187.0Y-74.9
X187.0Y-79.1
X187.0Y-80.9
X187.0Y-85.1
X187.0Y-86.9
X187.0Y-91.1
X187.0Y-92.9
X187.0Y-97.1
X187.0Y-98.9
X187.0Y-103.1
X187.0Y-104.9
X187.0Y-109.1
X188.0Y-26.9
X188.0Y-31.101
X188.0Y-32.901
X188.0Y-37.1
X188.0Y-38.901
X188.0Y-43.1
X188.0Y-44.901
X188.0Y-49.1
X188.0Y-50.901
X188.0Y-55.1
X188.0Y-56.901
X188.0Y-61.1
X188.0Y-62.9
X188.0Y-67.1
X188.0Y-68.9
X188.0Y-73.1
X188.0Y-74.9
X188.0Y-79.1
X188.0Y-80.9
X188.0Y-85.1
X188.0Y-86.9
X188.0Y-91.1
X188.0Y-92.9
X188.0Y-97.1
X188.0Y-98.9
X188.0Y-103.1
X188.0Y-104.9
X188.0Y-109.1
X189.0Y-26.9
X189.0Y-31.101
X189.0Y-32.901
X189.0Y-37.1
X189.0Y-38.901
X189.0Y-43.1
X189.0Y-44.901
X189.0Y-49.1
X189.0Y-50.901
X189.0Y-55.1
X189.0Y-56.901
X189.0Y-61.1
X189.0Y-62.9
X189.0Y-67.1
X189.0Y-68.9
X189.0Y-73.1
X189.0Y-74.9
X189.0Y-79.1
X189.0Y-80.9
X189.0Y-85.1
X189.0Y-86.9
X189.0Y-91.1
X189.0Y-92.9
X189.0Y-97.1
X189.0Y-98.9
X189.0Y-103.1
X189.0Y-104.9
X189.0Y-109.1
X190.0Y-26.9
X190.0Y-31.101
X190.0Y-32.901
X190.0Y-37.1
X190.0Y-38.901
X190.0Y-43.1
X190.0Y-44.901
X190.0Y-49.1
X190.0Y-50.901
X190.0Y-55.1
X190.0Y-56.901
X190.0Y-61.1
X190.0Y-62.9
X190.0Y-67.1
X190.0Y-68.9
X190.0Y-73.1
X190.0Y-74.9
X190.0Y-79.1
X190.0Y-80.9
X190.0Y-85.1
X190.0Y-86.9
X190.0Y-91.1
X190.0Y-92.9
X190.0Y-97.1
X190.0Y-98.9
X190.0Y-103.1
X190.0Y-104.9
X190.0Y-109.1
M30
